<?xml version="1.0" encoding="utf-8" standalone="no"?>
<!DOCTYPE svg PUBLIC "-//W3C//DTD SVG 1.1//EN"
  "http://www.w3.org/Graphics/SVG/1.1/DTD/svg11.dtd">
<svg xmlns:xlink="http://www.w3.org/1999/xlink" width="673.528334pt" height="692.64pt" viewBox="0 0 673.528334 692.64" xmlns="http://www.w3.org/2000/svg" version="1.1">
 <metadata>
  <rdf:RDF xmlns:dc="http://purl.org/dc/elements/1.1/" xmlns:cc="http://creativecommons.org/ns#" xmlns:rdf="http://www.w3.org/1999/02/22-rdf-syntax-ns#">
   <cc:Work>
    <dc:type rdf:resource="http://purl.org/dc/dcmitype/StillImage"/>
    <dc:date>2025-09-03T13:17:20.089966</dc:date>
    <dc:format>image/svg+xml</dc:format>
    <dc:creator>
     <cc:Agent>
      <dc:title>Matplotlib v3.9.2, https://matplotlib.org/</dc:title>
     </cc:Agent>
    </dc:creator>
   </cc:Work>
  </rdf:RDF>
 </metadata>
 <defs>
  <style type="text/css">*{stroke-linejoin: round; stroke-linecap: butt}</style>
 </defs>
 <g id="figure_1">
  <g id="patch_1">
   <path d="M 0 692.64 
L 673.528334 692.64 
L 673.528334 0 
L 0 0 
z
" style="fill: #ffffff"/>
  </g>
  <g id="axes_1">
   <g id="patch_2">
    <path d="M 3.6 337.68 
L 319.386516 337.68 
L 319.386516 21.893484 
L 3.6 21.893484 
z
" style="fill: #ffffff"/>
   </g>
   <g id="patch_3">
    <path d="M 161.493258 195.576068 
C 165.680636 195.576068 169.697074 193.912405 172.657997 190.951481 
C 175.618921 187.990558 177.282584 183.97412 177.282584 179.786742 
C 177.282584 175.599364 175.618921 171.582926 172.657997 168.622003 
C 169.697074 165.661079 165.680636 163.997416 161.493258 163.997416 
C 157.30588 163.997416 153.289442 165.661079 150.328519 168.622003 
C 147.367595 171.582926 145.703932 175.599364 145.703932 179.786742 
C 145.703932 183.97412 147.367595 187.990558 150.328519 190.951481 
C 153.289442 193.912405 157.30588 195.576068 161.493258 195.576068 
L 161.493258 195.576068 
z
" clip-path="url(#p1c86d8f3ea)" style="fill: none; stroke-dasharray: 1,1.65; stroke-dashoffset: 0; stroke: #000000; stroke-linejoin: miter"/>
   </g>
   <g id="PathCollection_1">
    <defs>
     <path id="mcb16c830e3" d="M 0 5 
C 1.326016 5 2.597899 4.473168 3.535534 3.535534 
C 4.473168 2.597899 5 1.326016 5 0 
C 5 -1.326016 4.473168 -2.597899 3.535534 -3.535534 
C 2.597899 -4.473168 1.326016 -5 0 -5 
C -1.326016 -5 -2.597899 -4.473168 -3.535534 -3.535534 
C -4.473168 -2.597899 -5 -1.326016 -5 0 
C -5 1.326016 -4.473168 2.597899 -3.535534 3.535534 
C -2.597899 4.473168 -1.326016 5 0 5 
z
" style="stroke: #000000"/>
    </defs>
    <g clip-path="url(#p1c86d8f3ea)">
     <use xlink:href="#mcb16c830e3" x="177.282584" y="179.786742" style="fill: #808080; stroke: #000000"/>
     <use xlink:href="#mcb16c830e3" x="145.703932" y="179.786742" style="fill: #808080; stroke: #000000"/>
    </g>
   </g>
   <g id="patch_4">
    <path d="M 161.493258 211.365394 
C 169.868014 211.365394 177.90089 208.038068 183.822737 202.116221 
C 189.744584 196.194374 193.07191 188.161498 193.07191 179.786742 
C 193.07191 171.411986 189.744584 163.37911 183.822737 157.457263 
C 177.90089 151.535416 169.868014 148.20809 161.493258 148.20809 
C 153.118502 148.20809 145.085626 151.535416 139.163779 157.457263 
C 133.241932 163.37911 129.914606 171.411986 129.914606 179.786742 
C 129.914606 188.161498 133.241932 196.194374 139.163779 202.116221 
C 145.085626 208.038068 153.118502 211.365394 161.493258 211.365394 
L 161.493258 211.365394 
z
" clip-path="url(#p1c86d8f3ea)" style="fill: none; stroke-dasharray: 1,1.65; stroke-dashoffset: 0; stroke: #000000; stroke-linejoin: miter"/>
   </g>
   <g id="PathCollection_2">
    <g clip-path="url(#p1c86d8f3ea)">
     <use xlink:href="#mcb16c830e3" x="193.07191" y="179.786742" style="fill: #808080; stroke: #000000"/>
     <use xlink:href="#mcb16c830e3" x="183.822737" y="157.457263" style="fill: #808080; stroke: #000000"/>
     <use xlink:href="#mcb16c830e3" x="161.493258" y="148.20809" style="fill: #808080; stroke: #000000"/>
     <use xlink:href="#mcb16c830e3" x="139.163779" y="157.457263" style="fill: #808080; stroke: #000000"/>
     <use xlink:href="#mcb16c830e3" x="129.914606" y="179.786742" style="fill: #808080; stroke: #000000"/>
     <use xlink:href="#mcb16c830e3" x="139.163779" y="202.116221" style="fill: #808080; stroke: #000000"/>
     <use xlink:href="#mcb16c830e3" x="161.493258" y="211.365394" style="fill: #808080; stroke: #000000"/>
     <use xlink:href="#mcb16c830e3" x="183.822737" y="202.116221" style="fill: #808080; stroke: #000000"/>
    </g>
   </g>
   <g id="patch_5">
    <path d="M 161.493258 227.154719 
C 174.055393 227.154719 186.104706 222.16373 194.987476 213.28096 
C 203.870247 204.398189 208.861236 192.348876 208.861236 179.786742 
C 208.861236 167.224607 203.870247 155.175294 194.987476 146.292524 
C 186.104706 137.409753 174.055393 132.418764 161.493258 132.418764 
C 148.931124 132.418764 136.881811 137.409753 127.99904 146.292524 
C 119.11627 155.175294 114.125281 167.224607 114.125281 179.786742 
C 114.125281 192.348876 119.11627 204.398189 127.99904 213.28096 
C 136.881811 222.16373 148.931124 227.154719 161.493258 227.154719 
L 161.493258 227.154719 
z
" clip-path="url(#p1c86d8f3ea)" style="fill: none; stroke-dasharray: 1,1.65; stroke-dashoffset: 0; stroke: #000000; stroke-linejoin: miter"/>
   </g>
   <g id="PathCollection_3">
    <g clip-path="url(#p1c86d8f3ea)">
     <use xlink:href="#mcb16c830e3" x="208.861236" y="179.786742" style="fill: #808080; stroke: #000000"/>
     <use xlink:href="#mcb16c830e3" x="206.004597" y="163.585939" style="fill: #808080; stroke: #000000"/>
     <use xlink:href="#mcb16c830e3" x="197.779234" y="149.339193" style="fill: #808080; stroke: #000000"/>
     <use xlink:href="#mcb16c830e3" x="185.177247" y="138.76487" style="fill: #808080; stroke: #000000"/>
     <use xlink:href="#mcb16c830e3" x="169.718621" y="133.13839" style="fill: #808080; stroke: #000000"/>
     <use xlink:href="#mcb16c830e3" x="153.267895" y="133.13839" style="fill: #808080; stroke: #000000"/>
     <use xlink:href="#mcb16c830e3" x="137.809269" y="138.76487" style="fill: #808080; stroke: #000000"/>
     <use xlink:href="#mcb16c830e3" x="125.207282" y="149.339193" style="fill: #808080; stroke: #000000"/>
     <use xlink:href="#mcb16c830e3" x="116.981919" y="163.585939" style="fill: #808080; stroke: #000000"/>
     <use xlink:href="#mcb16c830e3" x="114.125281" y="179.786742" style="fill: #808080; stroke: #000000"/>
     <use xlink:href="#mcb16c830e3" x="116.981919" y="195.987544" style="fill: #808080; stroke: #000000"/>
     <use xlink:href="#mcb16c830e3" x="125.207282" y="210.234291" style="fill: #808080; stroke: #000000"/>
     <use xlink:href="#mcb16c830e3" x="137.809269" y="220.808614" style="fill: #808080; stroke: #000000"/>
     <use xlink:href="#mcb16c830e3" x="153.267895" y="226.435093" style="fill: #808080; stroke: #000000"/>
     <use xlink:href="#mcb16c830e3" x="169.718621" y="226.435093" style="fill: #808080; stroke: #000000"/>
     <use xlink:href="#mcb16c830e3" x="185.177247" y="220.808614" style="fill: #808080; stroke: #000000"/>
     <use xlink:href="#mcb16c830e3" x="197.779234" y="210.234291" style="fill: #808080; stroke: #000000"/>
     <use xlink:href="#mcb16c830e3" x="206.004597" y="195.987544" style="fill: #808080; stroke: #000000"/>
    </g>
   </g>
   <g id="patch_6">
    <path d="M 161.493258 242.944045 
C 178.242771 242.944045 194.308522 236.289393 206.152216 224.445699 
C 217.995909 212.602005 224.650561 196.536255 224.650561 179.786742 
C 224.650561 163.037229 217.995909 146.971478 206.152216 135.127784 
C 194.308522 123.284091 178.242771 116.629439 161.493258 116.629439 
C 144.743745 116.629439 128.677995 123.284091 116.834301 135.127784 
C 104.990607 146.971478 98.335955 163.037229 98.335955 179.786742 
C 98.335955 196.536255 104.990607 212.602005 116.834301 224.445699 
C 128.677995 236.289393 144.743745 242.944045 161.493258 242.944045 
L 161.493258 242.944045 
z
" clip-path="url(#p1c86d8f3ea)" style="fill: none; stroke-dasharray: 1,1.65; stroke-dashoffset: 0; stroke: #000000; stroke-linejoin: miter"/>
   </g>
   <g id="PathCollection_4">
    <g clip-path="url(#p1c86d8f3ea)">
     <use xlink:href="#mcb16c830e3" x="224.650561" y="179.786742" style="fill: #808080; stroke: #000000"/>
     <use xlink:href="#mcb16c830e3" x="220.84171" y="158.185672" style="fill: #808080; stroke: #000000"/>
     <use xlink:href="#mcb16c830e3" x="209.874559" y="139.19001" style="fill: #808080; stroke: #000000"/>
     <use xlink:href="#mcb16c830e3" x="193.07191" y="125.090913" style="fill: #808080; stroke: #000000"/>
     <use xlink:href="#mcb16c830e3" x="172.460409" y="117.58894" style="fill: #808080; stroke: #000000"/>
     <use xlink:href="#mcb16c830e3" x="150.526107" y="117.58894" style="fill: #808080; stroke: #000000"/>
     <use xlink:href="#mcb16c830e3" x="129.914606" y="125.090913" style="fill: #808080; stroke: #000000"/>
     <use xlink:href="#mcb16c830e3" x="113.111957" y="139.19001" style="fill: #808080; stroke: #000000"/>
     <use xlink:href="#mcb16c830e3" x="102.144806" y="158.185672" style="fill: #808080; stroke: #000000"/>
     <use xlink:href="#mcb16c830e3" x="98.335955" y="179.786742" style="fill: #808080; stroke: #000000"/>
     <use xlink:href="#mcb16c830e3" x="102.144806" y="201.387812" style="fill: #808080; stroke: #000000"/>
     <use xlink:href="#mcb16c830e3" x="113.111957" y="220.383474" style="fill: #808080; stroke: #000000"/>
     <use xlink:href="#mcb16c830e3" x="129.914606" y="234.482571" style="fill: #808080; stroke: #000000"/>
     <use xlink:href="#mcb16c830e3" x="150.526107" y="241.984544" style="fill: #808080; stroke: #000000"/>
     <use xlink:href="#mcb16c830e3" x="172.460409" y="241.984544" style="fill: #808080; stroke: #000000"/>
     <use xlink:href="#mcb16c830e3" x="193.07191" y="234.482571" style="fill: #808080; stroke: #000000"/>
     <use xlink:href="#mcb16c830e3" x="209.874559" y="220.383474" style="fill: #808080; stroke: #000000"/>
     <use xlink:href="#mcb16c830e3" x="220.84171" y="201.387812" style="fill: #808080; stroke: #000000"/>
    </g>
   </g>
   <g id="patch_7">
    <path d="M 161.493258 258.733371 
C 182.430149 258.733371 202.512337 250.415056 217.316955 235.610439 
C 232.121572 220.805821 240.439887 200.723633 240.439887 179.786742 
C 240.439887 158.849851 232.121572 138.767663 217.316955 123.963045 
C 202.512337 109.158428 182.430149 100.840113 161.493258 100.840113 
C 140.556367 100.840113 120.474179 109.158428 105.669561 123.963045 
C 90.864944 138.767663 82.546629 158.849851 82.546629 179.786742 
C 82.546629 200.723633 90.864944 220.805821 105.669561 235.610439 
C 120.474179 250.415056 140.556367 258.733371 161.493258 258.733371 
L 161.493258 258.733371 
z
" clip-path="url(#p1c86d8f3ea)" style="fill: none; stroke-dasharray: 1,1.65; stroke-dashoffset: 0; stroke: #000000; stroke-linejoin: miter"/>
   </g>
   <g id="PathCollection_5">
    <defs>
     <path id="m225dc85163" d="M 0 5 
C 1.326016 5 2.597899 4.473168 3.535534 3.535534 
C 4.473168 2.597899 5 1.326016 5 0 
C 5 -1.326016 4.473168 -2.597899 3.535534 -3.535534 
C 2.597899 -4.473168 1.326016 -5 0 -5 
C -1.326016 -5 -2.597899 -4.473168 -3.535534 -3.535534 
C -4.473168 -2.597899 -5 -1.326016 -5 0 
C -5 1.326016 -4.473168 2.597899 -3.535534 3.535534 
C -2.597899 4.473168 -1.326016 5 0 5 
z
" style="stroke: #000000"/>
    </defs>
    <g clip-path="url(#p1c86d8f3ea)">
     <use xlink:href="#m225dc85163" x="240.439887" y="179.786742" style="fill: #87ceeb; stroke: #000000"/>
     <use xlink:href="#m225dc85163" x="185.889108" y="104.704036" style="fill: #87ceeb; stroke: #000000"/>
     <use xlink:href="#m225dc85163" x="97.624094" y="133.383078" style="fill: #87ceeb; stroke: #000000"/>
     <use xlink:href="#m225dc85163" x="97.624094" y="226.190406" style="fill: #87ceeb; stroke: #000000"/>
     <use xlink:href="#m225dc85163" x="185.889108" y="254.869448" style="fill: #87ceeb; stroke: #000000"/>
    </g>
   </g>
   <g id="matplotlib.axis_1"/>
   <g id="matplotlib.axis_2"/>
   <g id="line2d_1">
    <defs>
     <path id="m55a4b80bfc" d="M 0 6 
C 1.591219 6 3.117479 5.367802 4.242641 4.242641 
C 5.367802 3.117479 6 1.591219 6 0 
C 6 -1.591219 5.367802 -3.117479 4.242641 -4.242641 
C 3.117479 -5.367802 1.591219 -6 0 -6 
C -1.591219 -6 -3.117479 -5.367802 -4.242641 -4.242641 
C -5.367802 -3.117479 -6 -1.591219 -6 0 
C -6 1.591219 -5.367802 3.117479 -4.242641 4.242641 
C -3.117479 5.367802 -1.591219 6 0 6 
z
" style="stroke: #ff0000"/>
    </defs>
    <g clip-path="url(#p1c86d8f3ea)">
     <use xlink:href="#m55a4b80bfc" x="161.493258" y="179.786742" style="fill: #ff0000; stroke: #ff0000"/>
    </g>
   </g>
   <g id="patch_8">
    <path d="M 3.6 337.68 
L 3.6 21.893484 
" style="fill: none; stroke: #000000; stroke-width: 0.5; stroke-linejoin: miter; stroke-linecap: square"/>
   </g>
   <g id="patch_9">
    <path d="M 319.386516 337.68 
L 319.386516 21.893484 
" style="fill: none; stroke: #000000; stroke-width: 0.5; stroke-linejoin: miter; stroke-linecap: square"/>
   </g>
   <g id="patch_10">
    <path d="M 3.6 337.68 
L 319.386516 337.68 
" style="fill: none; stroke: #000000; stroke-width: 0.5; stroke-linejoin: miter; stroke-linecap: square"/>
   </g>
   <g id="patch_11">
    <path d="M 3.6 21.893484 
L 319.386516 21.893484 
" style="fill: none; stroke: #000000; stroke-width: 0.5; stroke-linejoin: miter; stroke-linecap: square"/>
   </g>
   <g id="text_1">
    <!-- $Sb$ -->
    <g transform="translate(152.911632 173.529401) scale(0.16 -0.16)">
     <defs>
      <path id="CMMI12-53" d="M 4064 4423 
C 4064 4480 4019 4480 4006 4480 
C 3981 4480 3974 4474 3898 4378 
C 3859 4333 3597 4001 3590 3995 
C 3379 4410 2957 4480 2688 4480 
C 1875 4480 1139 3743 1139 3025 
C 1139 2549 1427 2269 1741 2161 
C 1811 2135 2189 2033 2381 1989 
C 2707 1900 2790 1875 2925 1735 
C 2950 1703 3078 1557 3078 1258 
C 3078 667 2528 57 1888 57 
C 1363 57 781 280 781 991 
C 781 1112 806 1265 826 1328 
C 826 1348 832 1378 832 1391 
C 832 1417 819 1449 768 1449 
C 710 1449 704 1436 678 1328 
L 352 24 
C 352 18 326 -64 326 -71 
C 326 -128 378 -128 390 -128 
C 416 -128 422 -122 499 -26 
L 794 356 
C 947 126 1280 -128 1875 -128 
C 2701 -128 3456 666 3456 1460 
C 3456 1728 3392 1963 3149 2197 
C 3014 2331 2899 2363 2310 2516 
C 1882 2630 1824 2649 1709 2751 
C 1600 2858 1517 3011 1517 3227 
C 1517 3761 2061 4308 2669 4308 
C 3296 4308 3590 3926 3590 3323 
C 3590 3158 3558 2986 3558 2961 
C 3558 2903 3610 2903 3629 2903 
C 3686 2903 3693 2922 3718 3024 
L 4064 4423 
z
" transform="scale(0.015625)"/>
      <path id="CMMI12-62" d="M 1478 4257 
C 1485 4283 1498 4321 1498 4352 
C 1498 4416 1434 4416 1421 4416 
C 1414 4416 1184 4393 1069 4377 
C 960 4377 864 4358 749 4358 
C 595 4345 550 4339 550 4224 
C 550 4160 614 4160 678 4160 
C 1005 4160 1005 4103 1005 4040 
C 1005 3996 954 3811 928 3696 
L 774 3085 
C 710 2831 346 1387 320 1272 
C 288 1114 288 1005 288 922 
C 288 274 653 -64 1069 -64 
C 1811 -64 2579 888 2579 1814 
C 2579 2401 2246 2816 1766 2816 
C 1434 2816 1133 2542 1011 2414 
L 1478 4257 
z
M 1075 64 
C 870 64 646 217 646 715 
C 646 926 666 1047 781 1494 
C 800 1577 902 1986 928 2069 
C 941 2120 1318 2689 1754 2689 
C 2035 2689 2163 2408 2163 2076 
C 2163 1769 1984 1047 1824 715 
C 1664 370 1370 64 1075 64 
z
" transform="scale(0.015625)"/>
     </defs>
     <use xlink:href="#CMMI12-53" transform="scale(0.996264)"/>
     <use xlink:href="#CMMI12-62" transform="translate(65.794439 0) scale(0.996264)"/>
    </g>
   </g>
   <g id="text_2">
    <!-- $Sb$ - distribuição completa -->
    <g transform="translate(71.793522 15.893484) scale(0.16 -0.16)">
     <defs>
      <path id="CMR17-2d" d="M 1632 1216 
L 1632 1496 
L 26 1496 
L 26 1216 
L 1632 1216 
z
" transform="scale(0.015625)"/>
      <path id="CMR17-64" d="M 1869 4326 
L 1869 4160 
C 2246 4160 2304 4122 2304 3820 
L 2304 2345 
C 2278 2377 2016 2790 1498 2790 
C 845 2790 211 2208 211 1364 
C 211 525 806 -64 1434 -64 
C 1978 -64 2259 337 2291 380 
L 2291 -63 
L 3066 -63 
L 3066 128 
C 2688 128 2630 166 2630 473 
L 2630 4396 
L 1869 4326 
z
M 2291 755 
C 2291 563 2176 390 2029 262 
C 1811 70 1594 38 1472 38 
C 1286 38 621 134 621 1356 
C 621 2612 1363 2688 1530 2688 
C 1824 2688 2061 2522 2208 2291 
C 2291 2157 2291 2138 2291 2023 
L 2291 755 
z
" transform="scale(0.015625)"/>
      <path id="CMR17-69" d="M 992 3909 
C 992 4049 877 4170 730 4170 
C 589 4170 467 4056 467 3909 
C 467 3769 582 3648 730 3648 
C 870 3648 992 3763 992 3909 
z
M 243 2706 
L 243 2541 
C 602 2541 653 2502 653 2197 
L 653 427 
C 653 184 627 153 218 153 
L 218 -13 
C 371 0 646 0 806 0 
C 960 0 1222 0 1370 -13 
L 1370 153 
C 992 153 979 191 979 420 
L 979 2776 
L 243 2706 
z
" transform="scale(0.015625)"/>
      <path id="CMR17-73" d="M 1978 2697 
C 1978 2813 1971 2819 1933 2819 
C 1907 2819 1901 2813 1824 2717 
C 1805 2691 1747 2626 1728 2601 
C 1523 2819 1235 2819 1126 2819 
C 416 2819 160 2447 160 2076 
C 160 1498 813 1365 998 1325 
C 1402 1243 1542 1217 1677 1101 
C 1760 1025 1901 884 1901 654 
C 1901 384 1747 38 1158 38 
C 602 38 403 460 288 1021 
C 269 1110 269 1117 218 1117 
C 166 1117 160 1110 160 983 
L 160 63 
C 160 -51 166 -58 205 -58 
C 237 -58 243 -51 275 0 
C 314 57 410 211 448 276 
C 576 103 800 -64 1158 -64 
C 1792 -64 2131 283 2131 784 
C 2131 1112 1958 1285 1875 1362 
C 1683 1561 1459 1606 1190 1657 
C 838 1735 390 1825 390 2217 
C 390 2383 480 2737 1126 2737 
C 1811 2737 1850 2094 1862 1888 
C 1869 1856 1901 1849 1920 1849 
C 1978 1849 1978 1869 1978 1978 
L 1978 2697 
z
" transform="scale(0.015625)"/>
      <path id="CMR17-74" d="M 966 2560 
L 1862 2560 
L 1862 2725 
L 966 2725 
L 966 3904 
L 851 3904 
C 838 3245 614 2668 70 2668 
L 70 2560 
L 627 2560 
L 627 771 
C 627 650 627 -64 1370 -64 
C 1747 -64 1965 306 1965 777 
L 1965 1140 
L 1850 1140 
L 1850 783 
C 1850 344 1677 51 1408 51 
C 1222 51 966 178 966 758 
L 966 2560 
z
" transform="scale(0.015625)"/>
      <path id="CMR17-72" d="M 960 1497 
C 960 2112 1222 2688 1702 2688 
C 1747 2688 1792 2682 1837 2662 
C 1837 2662 1696 2617 1696 2452 
C 1696 2298 1818 2234 1914 2234 
C 1990 2234 2131 2279 2131 2458 
C 2131 2663 1926 2790 1709 2790 
C 1222 2790 1011 2317 947 2093 
L 941 2093 
L 941 2790 
L 198 2720 
L 198 2554 
C 576 2554 634 2515 634 2208 
L 634 428 
C 634 184 608 153 198 153 
L 198 -13 
C 352 0 646 0 813 0 
C 998 0 1325 0 1498 -13 
L 1498 153 
C 1037 153 960 153 960 440 
L 960 1497 
z
" transform="scale(0.015625)"/>
      <path id="CMR17-62" d="M 960 4396 
L 198 4326 
L 198 4160 
C 576 4160 634 4122 634 3817 
L 634 -13 
L 749 -13 
L 934 441 
C 1120 141 1395 -64 1766 -64 
C 2406 -64 3053 500 3053 1370 
C 3053 2188 2477 2790 1830 2790 
C 1434 2790 1152 2579 960 2330 
L 960 4396 
z
M 973 2004 
C 973 2118 973 2138 1062 2272 
C 1312 2657 1670 2688 1792 2688 
C 1984 2688 2643 2585 2643 1376 
C 2643 108 1888 38 1734 38 
C 1536 38 1248 114 1043 486 
C 973 608 973 621 973 735 
L 973 2004 
z
" transform="scale(0.015625)"/>
      <path id="CMR17-75" d="M 1882 2693 
L 1882 2528 
C 2259 2528 2317 2489 2317 2186 
L 2317 1032 
C 2317 500 2029 38 1555 38 
C 1030 38 986 348 986 678 
L 986 2763 
L 211 2693 
L 211 2528 
C 467 2528 640 2528 646 2274 
L 646 1058 
C 646 633 646 361 813 183 
C 896 101 1056 -64 1517 -64 
C 2061 -64 2272 377 2323 506 
L 2330 506 
L 2330 -63 
L 3091 -63 
L 3091 128 
C 2714 128 2656 166 2656 473 
L 2656 2763 
L 1882 2693 
z
" transform="scale(0.015625)"/>
      <path id="CMR17-18" d="M 1632 -66 
L 1293 -66 
L 1293 -384 
C 1574 -384 1792 -517 1792 -756 
C 1792 -1101 1357 -1101 966 -1101 
L 794 -1101 
L 794 -1216 
L 1037 -1216 
C 1056 -1216 1472 -1216 1734 -1145 
C 2042 -1066 2131 -918 2131 -743 
C 2131 -502 1939 -360 1632 -308 
L 1632 -66 
z
" transform="scale(0.015625)"/>
      <path id="CMR17-63" d="M 2234 2240 
C 2112 2240 1933 2240 1933 2017 
C 1933 1838 2080 1787 2163 1787 
C 2208 1787 2394 1807 2394 2024 
C 2394 2467 1958 2803 1466 2803 
C 787 2803 211 2178 211 1363 
C 211 516 813 -64 1466 -64 
C 2259 -64 2458 677 2458 748 
C 2458 774 2451 793 2406 793 
C 2362 793 2355 787 2330 703 
C 2163 180 1798 51 1523 51 
C 1114 51 621 427 621 1369 
C 621 2338 1094 2688 1472 2688 
C 1722 2688 2093 2573 2234 2240 
z
" transform="scale(0.015625)"/>
      <path id="CMR17-7e" d="M 2400 4184 
C 2182 3980 2061 3865 1862 3865 
C 1722 3865 1626 3932 1491 4024 
C 1363 4111 1261 4184 1120 4184 
C 890 4184 730 4004 461 3718 
L 531 3648 
C 749 3850 870 3968 1069 3968 
C 1210 3968 1306 3900 1440 3808 
C 1568 3722 1670 3648 1811 3648 
C 2042 3648 2202 3828 2470 4114 
L 2400 4184 
z
" transform="scale(0.015625)"/>
      <path id="CMR17-61" d="M 2304 1653 
C 2304 2072 2304 2294 2035 2543 
C 1798 2752 1523 2816 1306 2816 
C 800 2816 435 2407 435 1971 
C 435 1728 627 1728 666 1728 
C 749 1728 896 1778 896 1954 
C 896 2112 774 2181 666 2181 
C 640 2181 608 2174 589 2168 
C 723 2592 1069 2714 1293 2714 
C 1613 2714 1965 2429 1965 1885 
L 1965 1600 
C 1587 1600 1133 1549 774 1357 
C 371 1133 256 813 256 570 
C 256 77 832 -64 1171 -64 
C 1523 -64 1850 139 1990 511 
C 2003 233 2182 -18 2464 -18 
C 2598 -18 2938 70 2938 567 
L 2938 920 
L 2822 920 
L 2822 562 
C 2822 178 2650 128 2566 128 
C 2304 128 2304 458 2304 738 
L 2304 1653 
z
M 1965 870 
C 1965 317 1568 38 1216 38 
C 896 38 646 275 646 570 
C 646 761 730 1100 1101 1305 
C 1408 1478 1760 1504 1965 1504 
L 1965 870 
z
" transform="scale(0.015625)"/>
      <path id="CMR17-6f" d="M 2758 1356 
C 2758 2176 2163 2816 1466 2816 
C 768 2816 173 2176 173 1356 
C 173 551 768 -64 1466 -64 
C 2163 -64 2758 551 2758 1356 
z
M 1466 51 
C 1165 51 909 230 762 480 
C 602 767 582 1126 582 1408 
C 582 1677 595 2010 762 2298 
C 890 2509 1139 2714 1466 2714 
C 1754 2714 1997 2554 2150 2330 
C 2349 2029 2349 1607 2349 1408 
C 2349 1158 2336 775 2163 467 
C 1984 173 1709 51 1466 51 
z
" transform="scale(0.015625)"/>
      <path id="CMR17-6d" d="M 4326 1933 
C 4326 2252 4269 2790 3507 2790 
C 3072 2790 2771 2496 2656 2151 
L 2650 2151 
C 2573 2676 2195 2790 1837 2790 
C 1331 2790 1069 2400 973 2144 
L 966 2144 
L 966 2790 
L 211 2720 
L 211 2554 
C 589 2554 646 2515 646 2208 
L 646 428 
C 646 184 621 153 211 153 
L 211 -13 
C 365 0 646 0 813 0 
C 979 0 1267 0 1421 -13 
L 1421 153 
C 1011 153 986 178 986 428 
L 986 1658 
C 986 2247 1344 2688 1792 2688 
C 2266 2688 2317 2266 2317 1958 
L 2317 428 
C 2317 184 2291 153 1882 153 
L 1882 -13 
C 2035 0 2317 0 2483 0 
C 2650 0 2938 0 3091 -13 
L 3091 153 
C 2682 153 2656 178 2656 428 
L 2656 1658 
C 2656 2247 3014 2688 3462 2688 
C 3936 2688 3987 2266 3987 1958 
L 3987 428 
C 3987 184 3962 153 3552 153 
L 3552 -13 
C 3706 0 3987 0 4154 0 
C 4320 0 4608 0 4762 -13 
L 4762 153 
C 4352 153 4326 178 4326 428 
L 4326 1933 
z
" transform="scale(0.015625)"/>
      <path id="CMR17-70" d="M 1408 -1063 
C 998 -1063 973 -1037 973 -789 
L 973 402 
C 1158 134 1427 -38 1766 -38 
C 2406 -38 3053 523 3053 1388 
C 3053 2191 2496 2802 1837 2802 
C 1453 2802 1139 2592 960 2338 
L 960 2802 
L 198 2732 
L 198 2567 
C 576 2567 634 2528 634 2223 
L 634 -789 
C 634 -1031 608 -1063 198 -1063 
L 198 -1228 
C 352 -1216 634 -1216 800 -1216 
C 966 -1216 1254 -1216 1408 -1228 
L 1408 -1063 
z
M 973 2012 
C 973 2102 973 2235 1222 2471 
C 1254 2497 1472 2688 1792 2688 
C 2259 2688 2643 2108 2643 1382 
C 2643 656 2234 64 1728 64 
C 1498 64 1248 172 1056 472 
C 973 612 973 650 973 752 
L 973 2012 
z
" transform="scale(0.015625)"/>
      <path id="CMR17-6c" d="M 979 4396 
L 218 4326 
L 218 4160 
C 595 4160 653 4122 653 3817 
L 653 426 
C 653 184 627 153 218 153 
L 218 -13 
C 371 0 653 0 813 0 
C 979 0 1261 0 1414 -13 
L 1414 153 
C 1005 153 979 178 979 426 
L 979 4396 
z
" transform="scale(0.015625)"/>
      <path id="CMR17-65" d="M 2438 1472 
C 2464 1498 2464 1511 2464 1576 
C 2464 2238 2118 2816 1389 2816 
C 710 2816 173 2169 173 1383 
C 173 551 781 -64 1459 -64 
C 2176 -64 2458 607 2458 740 
C 2458 784 2419 784 2406 784 
C 2362 784 2355 771 2330 696 
C 2189 265 1837 51 1504 51 
C 1229 51 954 203 781 480 
C 582 803 582 1176 582 1472 
L 2438 1472 
z
M 589 1568 
C 634 2505 1126 2714 1382 2714 
C 1818 2714 2112 2297 2118 1568 
L 589 1568 
z
" transform="scale(0.015625)"/>
     </defs>
     <use xlink:href="#CMMI12-53" transform="scale(0.996264)"/>
     <use xlink:href="#CMMI12-62" transform="translate(65.794439 0) scale(0.996264)"/>
     <use xlink:href="#CMR17-2d" transform="translate(137.34628 0) scale(0.996264)"/>
     <use xlink:href="#CMR17-64" transform="translate(197.498212 0) scale(0.996264)"/>
     <use xlink:href="#CMR17-69" transform="translate(248.393582 0) scale(0.996264)"/>
     <use xlink:href="#CMR17-73" transform="translate(273.264641 0) scale(0.996264)"/>
     <use xlink:href="#CMR17-74" transform="translate(309.065978 0) scale(0.996264)"/>
     <use xlink:href="#CMR17-72" transform="translate(344.346746 0) scale(0.996264)"/>
     <use xlink:href="#CMR17-69" transform="translate(379.627514 0) scale(0.996264)"/>
     <use xlink:href="#CMR17-62" transform="translate(404.498572 0) scale(0.996264)"/>
     <use xlink:href="#CMR17-75" transform="translate(455.393942 0) scale(0.996264)"/>
     <use xlink:href="#CMR17-69" transform="translate(506.289312 0) scale(0.996264)"/>
     <use xlink:href="#CMR17-18" transform="translate(531.16037 0) scale(0.996264)"/>
     <use xlink:href="#CMR17-63" transform="translate(531.16037 0) scale(0.996264)"/>
     <use xlink:href="#CMR17-7e" transform="translate(571.646031 0) scale(0.996264)"/>
     <use xlink:href="#CMR17-61" transform="translate(571.646031 0) scale(0.996264)"/>
     <use xlink:href="#CMR17-6f" transform="translate(617.336508 0) scale(0.996264)"/>
     <use xlink:href="#CMR17-63" transform="translate(693.102951 0) scale(0.996264)"/>
     <use xlink:href="#CMR17-6f" transform="translate(733.588612 0) scale(0.996264)"/>
     <use xlink:href="#CMR17-6d" transform="translate(779.279089 0) scale(0.996264)"/>
     <use xlink:href="#CMR17-70" transform="translate(856.198679 0) scale(0.996264)"/>
     <use xlink:href="#CMR17-6c" transform="translate(907.094049 0) scale(0.996264)"/>
     <use xlink:href="#CMR17-65" transform="translate(931.965107 0) scale(0.996264)"/>
     <use xlink:href="#CMR17-74" transform="translate(972.450768 0) scale(0.996264)"/>
     <use xlink:href="#CMR17-61" transform="translate(1007.731535 0) scale(0.996264)"/>
    </g>
   </g>
   <g id="legend_1">
    <g id="patch_12">
     <path d="M 174.550997 81.667271 
L 310.986516 81.667271 
Q 313.386516 81.667271 313.386516 79.267271 
L 313.386516 30.293484 
Q 313.386516 27.893484 310.986516 27.893484 
L 174.550997 27.893484 
Q 172.150997 27.893484 172.150997 30.293484 
L 172.150997 79.267271 
Q 172.150997 81.667271 174.550997 81.667271 
z
" style="fill: #ffffff; opacity: 0.8; stroke: #cccccc; stroke-linejoin: miter"/>
    </g>
    <g id="line2d_2">
     <g>
      <use xlink:href="#m55a4b80bfc" x="188.950997" y="36.893484" style="fill: #ff0000; stroke: #ff0000"/>
     </g>
    </g>
    <g id="text_3">
     <!-- Núcleo -->
     <g transform="translate(210.550997 41.093484) scale(0.12 -0.12)">
      <defs>
       <path id="CMR17-4e" d="M 1312 4250 
C 1267 4320 1261 4320 1139 4320 
L 326 4320 
L 326 4160 
L 448 4160 
C 704 4160 819 4129 838 4122 
L 838 610 
C 838 451 838 153 326 153 
L 326 -13 
C 474 0 742 0 902 0 
C 1062 0 1331 0 1478 -13 
L 1478 153 
C 966 153 966 451 966 610 
L 966 4033 
C 1011 3995 1011 3982 1056 3919 
L 3430 76 
C 3475 0 3494 0 3526 0 
C 3590 0 3590 19 3590 139 
L 3590 3705 
C 3590 3863 3590 4160 4102 4160 
L 4102 4326 
C 3955 4320 3686 4320 3526 4320 
C 3366 4320 3098 4320 2950 4326 
L 2950 4160 
C 3462 4160 3462 3862 3462 3703 
L 3462 763 
L 1312 4250 
z
" transform="scale(0.015625)"/>
       <path id="CMR17-13" d="M 2221 4091 
C 2298 4161 2317 4174 2317 4244 
C 2317 4339 2234 4416 2144 4416 
C 2067 4416 2042 4384 1978 4308 
L 1254 3390 
C 1210 3333 1210 3327 1210 3320 
C 1210 3314 1267 3256 1280 3244 
L 2221 4091 
z
" transform="scale(0.015625)"/>
      </defs>
      <use xlink:href="#CMR17-4e" transform="scale(0.996264)"/>
      <use xlink:href="#CMR17-13" transform="translate(71.674884 0) scale(0.996264)"/>
      <use xlink:href="#CMR17-75" transform="translate(69.07243 0) scale(0.996264)"/>
      <use xlink:href="#CMR17-63" transform="translate(119.9678 0) scale(0.996264)"/>
      <use xlink:href="#CMR17-6c" transform="translate(160.45346 0) scale(0.996264)"/>
      <use xlink:href="#CMR17-65" transform="translate(185.324519 0) scale(0.996264)"/>
      <use xlink:href="#CMR17-6f" transform="translate(225.810179 0) scale(0.996264)"/>
     </g>
    </g>
    <g id="PathCollection_6">
     <g>
      <use xlink:href="#mcb16c830e3" x="188.950997" y="54.66808" style="fill: #808080; stroke: #000000"/>
     </g>
    </g>
    <g id="text_4">
     <!-- Elétron interno -->
     <g transform="translate(210.550997 57.81808) scale(0.12 -0.12)">
      <defs>
       <path id="CMR17-45" d="M 3885 1615 
L 3770 1615 
C 3629 676 3546 166 2419 166 
L 1530 166 
C 1274 166 1261 197 1261 414 
L 1261 2176 
L 1862 2176 
C 2464 2176 2522 1960 2522 1430 
L 2637 1430 
L 2637 3081 
L 2522 3081 
C 2522 2557 2464 2342 1862 2342 
L 1261 2342 
L 1261 3913 
C 1261 4128 1274 4160 1530 4160 
L 2406 4160 
C 3398 4160 3514 3769 3603 2929 
L 3718 2929 
L 3565 4325 
L 326 4325 
L 326 4160 
C 768 4160 838 4160 838 3874 
L 838 451 
C 838 166 768 166 326 166 
L 326 0 
L 3654 0 
L 3885 1615 
z
" transform="scale(0.015625)"/>
       <path id="CMR17-6e" d="M 2656 1933 
C 2656 2259 2592 2790 1837 2790 
C 1331 2790 1069 2400 973 2144 
L 966 2144 
L 966 2790 
L 211 2720 
L 211 2554 
C 589 2554 646 2515 646 2208 
L 646 428 
C 646 184 621 153 211 153 
L 211 -13 
C 365 0 646 0 813 0 
C 979 0 1267 0 1421 -13 
L 1421 153 
C 1011 153 986 178 986 428 
L 986 1658 
C 986 2247 1344 2688 1792 2688 
C 2266 2688 2317 2266 2317 1958 
L 2317 428 
C 2317 184 2291 153 1882 153 
L 1882 -13 
C 2035 0 2317 0 2483 0 
C 2650 0 2938 0 3091 -13 
L 3091 153 
C 2682 153 2656 178 2656 428 
L 2656 1933 
z
" transform="scale(0.015625)"/>
      </defs>
      <use xlink:href="#CMR17-45" transform="scale(0.996264)"/>
      <use xlink:href="#CMR17-6c" transform="translate(62.586301 0) scale(0.996264)"/>
      <use xlink:href="#CMR17-13" transform="translate(84.854951 0) scale(0.996264)"/>
      <use xlink:href="#CMR17-65" transform="translate(87.457359 0) scale(0.996264)"/>
      <use xlink:href="#CMR17-74" transform="translate(127.943019 0) scale(0.996264)"/>
      <use xlink:href="#CMR17-72" transform="translate(163.223787 0) scale(0.996264)"/>
      <use xlink:href="#CMR17-6f" transform="translate(198.504555 0) scale(0.996264)"/>
      <use xlink:href="#CMR17-6e" transform="translate(244.195032 0) scale(0.996264)"/>
      <use xlink:href="#CMR17-69" transform="translate(325.166368 0) scale(0.996264)"/>
      <use xlink:href="#CMR17-6e" transform="translate(350.037427 0) scale(0.996264)"/>
      <use xlink:href="#CMR17-74" transform="translate(398.330343 0) scale(0.996264)"/>
      <use xlink:href="#CMR17-65" transform="translate(433.61111 0) scale(0.996264)"/>
      <use xlink:href="#CMR17-72" transform="translate(474.096771 0) scale(0.996264)"/>
      <use xlink:href="#CMR17-6e" transform="translate(509.377539 0) scale(0.996264)"/>
      <use xlink:href="#CMR17-6f" transform="translate(560.272908 0) scale(0.996264)"/>
     </g>
    </g>
    <g id="PathCollection_7">
     <g>
      <use xlink:href="#m225dc85163" x="188.950997" y="71.392675" style="fill: #87ceeb; stroke: #000000"/>
     </g>
    </g>
    <g id="text_5">
     <!-- Elétron de valência -->
     <g transform="translate(210.550997 74.542675) scale(0.12 -0.12)">
      <defs>
       <path id="CMR17-76" d="M 2502 2163 
C 2560 2304 2662 2560 3034 2560 
L 3034 2726 
C 2912 2726 2752 2726 2630 2726 
C 2496 2726 2285 2726 2157 2732 
L 2157 2566 
C 2317 2553 2406 2477 2406 2311 
C 2406 2253 2406 2240 2368 2151 
L 1664 377 
L 902 2286 
C 864 2369 864 2381 864 2407 
C 864 2560 1075 2560 1171 2560 
L 1171 2732 
C 1018 2726 736 2726 576 2726 
C 403 2726 205 2726 64 2732 
L 64 2560 
C 307 2560 442 2560 518 2362 
L 1446 44 
C 1485 -51 1491 -64 1549 -64 
C 1606 -64 1613 -51 1651 44 
L 2502 2163 
z
" transform="scale(0.015625)"/>
       <path id="CMR17-5e" d="M 1466 4421 
L 678 3555 
L 755 3478 
L 1466 4166 
L 2176 3478 
L 2253 3555 
L 1466 4421 
z
" transform="scale(0.015625)"/>
      </defs>
      <use xlink:href="#CMR17-45" transform="scale(0.996264)"/>
      <use xlink:href="#CMR17-6c" transform="translate(62.586301 0) scale(0.996264)"/>
      <use xlink:href="#CMR17-13" transform="translate(84.854951 0) scale(0.996264)"/>
      <use xlink:href="#CMR17-65" transform="translate(87.457359 0) scale(0.996264)"/>
      <use xlink:href="#CMR17-74" transform="translate(127.943019 0) scale(0.996264)"/>
      <use xlink:href="#CMR17-72" transform="translate(163.223787 0) scale(0.996264)"/>
      <use xlink:href="#CMR17-6f" transform="translate(198.504555 0) scale(0.996264)"/>
      <use xlink:href="#CMR17-6e" transform="translate(244.195032 0) scale(0.996264)"/>
      <use xlink:href="#CMR17-64" transform="translate(325.166368 0) scale(0.996264)"/>
      <use xlink:href="#CMR17-65" transform="translate(376.061738 0) scale(0.996264)"/>
      <use xlink:href="#CMR17-76" transform="translate(446.623365 0) scale(0.996264)"/>
      <use xlink:href="#CMR17-61" transform="translate(489.711464 0) scale(0.996264)"/>
      <use xlink:href="#CMR17-6c" transform="translate(535.401941 0) scale(0.996264)"/>
      <use xlink:href="#CMR17-5e" transform="translate(557.670591 0) scale(0.996264)"/>
      <use xlink:href="#CMR17-65" transform="translate(560.273 0) scale(0.996264)"/>
      <use xlink:href="#CMR17-6e" transform="translate(600.75866 0) scale(0.996264)"/>
      <use xlink:href="#CMR17-63" transform="translate(651.65403 0) scale(0.996264)"/>
      <use xlink:href="#CMR17-69" transform="translate(692.13969 0) scale(0.996264)"/>
      <use xlink:href="#CMR17-61" transform="translate(717.010749 0) scale(0.996264)"/>
     </g>
    </g>
   </g>
  </g>
  <g id="axes_2">
   <g id="patch_13">
    <path d="M 354.141818 337.68 
L 669.928334 337.68 
L 669.928334 21.893484 
L 354.141818 21.893484 
z
" style="fill: #ffffff"/>
   </g>
   <g id="patch_14">
    <path d="M 512.035076 195.576068 
C 516.222454 195.576068 520.238892 193.912405 523.199816 190.951481 
C 526.160739 187.990558 527.824402 183.97412 527.824402 179.786742 
C 527.824402 175.599364 526.160739 171.582926 523.199816 168.622003 
C 520.238892 165.661079 516.222454 163.997416 512.035076 163.997416 
C 507.847698 163.997416 503.83126 165.661079 500.870337 168.622003 
C 497.909413 171.582926 496.24575 175.599364 496.24575 179.786742 
C 496.24575 183.97412 497.909413 187.990558 500.870337 190.951481 
C 503.83126 193.912405 507.847698 195.576068 512.035076 195.576068 
L 512.035076 195.576068 
z
" clip-path="url(#pa201b2338d)" style="fill: none; stroke-dasharray: 1,1.65; stroke-dashoffset: 0; stroke: #000000; stroke-linejoin: miter"/>
   </g>
   <g id="PathCollection_8">
    <g clip-path="url(#pa201b2338d)">
     <use xlink:href="#mcb16c830e3" x="527.824402" y="179.786742" style="fill: #808080; stroke: #000000"/>
     <use xlink:href="#mcb16c830e3" x="496.24575" y="179.786742" style="fill: #808080; stroke: #000000"/>
    </g>
   </g>
   <g id="patch_15">
    <path d="M 512.035076 211.365394 
C 520.409833 211.365394 528.442708 208.038068 534.364555 202.116221 
C 540.286402 196.194374 543.613728 188.161498 543.613728 179.786742 
C 543.613728 171.411986 540.286402 163.37911 534.364555 157.457263 
C 528.442708 151.535416 520.409833 148.20809 512.035076 148.20809 
C 503.66032 148.20809 495.627445 151.535416 489.705598 157.457263 
C 483.783751 163.37911 480.456425 171.411986 480.456425 179.786742 
C 480.456425 188.161498 483.783751 196.194374 489.705598 202.116221 
C 495.627445 208.038068 503.66032 211.365394 512.035076 211.365394 
L 512.035076 211.365394 
z
" clip-path="url(#pa201b2338d)" style="fill: none; stroke-dasharray: 1,1.65; stroke-dashoffset: 0; stroke: #000000; stroke-linejoin: miter"/>
   </g>
   <g id="PathCollection_9">
    <g clip-path="url(#pa201b2338d)">
     <use xlink:href="#mcb16c830e3" x="543.613728" y="179.786742" style="fill: #808080; stroke: #000000"/>
     <use xlink:href="#mcb16c830e3" x="534.364555" y="157.457263" style="fill: #808080; stroke: #000000"/>
     <use xlink:href="#mcb16c830e3" x="512.035076" y="148.20809" style="fill: #808080; stroke: #000000"/>
     <use xlink:href="#mcb16c830e3" x="489.705598" y="157.457263" style="fill: #808080; stroke: #000000"/>
     <use xlink:href="#mcb16c830e3" x="480.456425" y="179.786742" style="fill: #808080; stroke: #000000"/>
     <use xlink:href="#mcb16c830e3" x="489.705598" y="202.116221" style="fill: #808080; stroke: #000000"/>
     <use xlink:href="#mcb16c830e3" x="512.035076" y="211.365394" style="fill: #808080; stroke: #000000"/>
     <use xlink:href="#mcb16c830e3" x="534.364555" y="202.116221" style="fill: #808080; stroke: #000000"/>
    </g>
   </g>
   <g id="patch_16">
    <path d="M 512.035076 227.154719 
C 524.597211 227.154719 536.646524 222.16373 545.529294 213.28096 
C 554.412065 204.398189 559.403054 192.348876 559.403054 179.786742 
C 559.403054 167.224607 554.412065 155.175294 545.529294 146.292524 
C 536.646524 137.409753 524.597211 132.418764 512.035076 132.418764 
C 499.472942 132.418764 487.423629 137.409753 478.540858 146.292524 
C 469.658088 155.175294 464.667099 167.224607 464.667099 179.786742 
C 464.667099 192.348876 469.658088 204.398189 478.540858 213.28096 
C 487.423629 222.16373 499.472942 227.154719 512.035076 227.154719 
L 512.035076 227.154719 
z
" clip-path="url(#pa201b2338d)" style="fill: none; stroke-dasharray: 1,1.65; stroke-dashoffset: 0; stroke: #000000; stroke-linejoin: miter"/>
   </g>
   <g id="PathCollection_10">
    <g clip-path="url(#pa201b2338d)">
     <use xlink:href="#mcb16c830e3" x="559.403054" y="179.786742" style="fill: #808080; stroke: #000000"/>
     <use xlink:href="#mcb16c830e3" x="556.546415" y="163.585939" style="fill: #808080; stroke: #000000"/>
     <use xlink:href="#mcb16c830e3" x="548.321052" y="149.339193" style="fill: #808080; stroke: #000000"/>
     <use xlink:href="#mcb16c830e3" x="535.719065" y="138.76487" style="fill: #808080; stroke: #000000"/>
     <use xlink:href="#mcb16c830e3" x="520.260439" y="133.13839" style="fill: #808080; stroke: #000000"/>
     <use xlink:href="#mcb16c830e3" x="503.809713" y="133.13839" style="fill: #808080; stroke: #000000"/>
     <use xlink:href="#mcb16c830e3" x="488.351088" y="138.76487" style="fill: #808080; stroke: #000000"/>
     <use xlink:href="#mcb16c830e3" x="475.7491" y="149.339193" style="fill: #808080; stroke: #000000"/>
     <use xlink:href="#mcb16c830e3" x="467.523737" y="163.585939" style="fill: #808080; stroke: #000000"/>
     <use xlink:href="#mcb16c830e3" x="464.667099" y="179.786742" style="fill: #808080; stroke: #000000"/>
     <use xlink:href="#mcb16c830e3" x="467.523737" y="195.987544" style="fill: #808080; stroke: #000000"/>
     <use xlink:href="#mcb16c830e3" x="475.7491" y="210.234291" style="fill: #808080; stroke: #000000"/>
     <use xlink:href="#mcb16c830e3" x="488.351088" y="220.808614" style="fill: #808080; stroke: #000000"/>
     <use xlink:href="#mcb16c830e3" x="503.809713" y="226.435093" style="fill: #808080; stroke: #000000"/>
     <use xlink:href="#mcb16c830e3" x="520.260439" y="226.435093" style="fill: #808080; stroke: #000000"/>
     <use xlink:href="#mcb16c830e3" x="535.719065" y="220.808614" style="fill: #808080; stroke: #000000"/>
     <use xlink:href="#mcb16c830e3" x="548.321052" y="210.234291" style="fill: #808080; stroke: #000000"/>
     <use xlink:href="#mcb16c830e3" x="556.546415" y="195.987544" style="fill: #808080; stroke: #000000"/>
    </g>
   </g>
   <g id="patch_17">
    <path d="M 512.035076 242.944045 
C 528.784589 242.944045 544.85034 236.289393 556.694034 224.445699 
C 568.537728 212.602005 575.19238 196.536255 575.19238 179.786742 
C 575.19238 163.037229 568.537728 146.971478 556.694034 135.127784 
C 544.85034 123.284091 528.784589 116.629439 512.035076 116.629439 
C 495.285564 116.629439 479.219813 123.284091 467.376119 135.127784 
C 455.532425 146.971478 448.877773 163.037229 448.877773 179.786742 
C 448.877773 196.536255 455.532425 212.602005 467.376119 224.445699 
C 479.219813 236.289393 495.285564 242.944045 512.035076 242.944045 
L 512.035076 242.944045 
z
" clip-path="url(#pa201b2338d)" style="fill: none; stroke-dasharray: 1,1.65; stroke-dashoffset: 0; stroke: #000000; stroke-linejoin: miter"/>
   </g>
   <g id="PathCollection_11">
    <g clip-path="url(#pa201b2338d)">
     <use xlink:href="#mcb16c830e3" x="575.19238" y="179.786742" style="fill: #808080; stroke: #000000"/>
     <use xlink:href="#mcb16c830e3" x="571.383528" y="158.185672" style="fill: #808080; stroke: #000000"/>
     <use xlink:href="#mcb16c830e3" x="560.416377" y="139.19001" style="fill: #808080; stroke: #000000"/>
     <use xlink:href="#mcb16c830e3" x="543.613728" y="125.090913" style="fill: #808080; stroke: #000000"/>
     <use xlink:href="#mcb16c830e3" x="523.002227" y="117.58894" style="fill: #808080; stroke: #000000"/>
     <use xlink:href="#mcb16c830e3" x="501.067926" y="117.58894" style="fill: #808080; stroke: #000000"/>
     <use xlink:href="#mcb16c830e3" x="480.456425" y="125.090913" style="fill: #808080; stroke: #000000"/>
     <use xlink:href="#mcb16c830e3" x="463.653775" y="139.19001" style="fill: #808080; stroke: #000000"/>
     <use xlink:href="#mcb16c830e3" x="452.686624" y="158.185672" style="fill: #808080; stroke: #000000"/>
     <use xlink:href="#mcb16c830e3" x="448.877773" y="179.786742" style="fill: #808080; stroke: #000000"/>
     <use xlink:href="#mcb16c830e3" x="452.686624" y="201.387812" style="fill: #808080; stroke: #000000"/>
     <use xlink:href="#mcb16c830e3" x="463.653775" y="220.383474" style="fill: #808080; stroke: #000000"/>
     <use xlink:href="#mcb16c830e3" x="480.456425" y="234.482571" style="fill: #808080; stroke: #000000"/>
     <use xlink:href="#mcb16c830e3" x="501.067926" y="241.984544" style="fill: #808080; stroke: #000000"/>
     <use xlink:href="#mcb16c830e3" x="523.002227" y="241.984544" style="fill: #808080; stroke: #000000"/>
     <use xlink:href="#mcb16c830e3" x="543.613728" y="234.482571" style="fill: #808080; stroke: #000000"/>
     <use xlink:href="#mcb16c830e3" x="560.416377" y="220.383474" style="fill: #808080; stroke: #000000"/>
     <use xlink:href="#mcb16c830e3" x="571.383528" y="201.387812" style="fill: #808080; stroke: #000000"/>
    </g>
   </g>
   <g id="patch_18">
    <path d="M 512.035076 258.733371 
C 532.971967 258.733371 553.054156 250.415056 567.858773 235.610439 
C 582.66339 220.805821 590.981705 200.723633 590.981705 179.786742 
C 590.981705 158.849851 582.66339 138.767663 567.858773 123.963045 
C 553.054156 109.158428 532.971967 100.840113 512.035076 100.840113 
C 491.098186 100.840113 471.015997 109.158428 456.21138 123.963045 
C 441.406762 138.767663 433.088447 158.849851 433.088447 179.786742 
C 433.088447 200.723633 441.406762 220.805821 456.21138 235.610439 
C 471.015997 250.415056 491.098186 258.733371 512.035076 258.733371 
L 512.035076 258.733371 
z
" clip-path="url(#pa201b2338d)" style="fill: none; stroke-dasharray: 1,1.65; stroke-dashoffset: 0; stroke: #000000; stroke-linejoin: miter"/>
   </g>
   <g id="PathCollection_12">
    <g clip-path="url(#pa201b2338d)">
     <use xlink:href="#m225dc85163" x="590.981705" y="179.786742" style="fill: #87ceeb; stroke: #000000"/>
     <use xlink:href="#m225dc85163" x="567.858773" y="123.963045" style="fill: #87ceeb; stroke: #000000"/>
     <use xlink:href="#m225dc85163" x="512.035076" y="100.840113" style="fill: #87ceeb; stroke: #000000"/>
     <use xlink:href="#m225dc85163" x="456.21138" y="123.963045" style="fill: #87ceeb; stroke: #000000"/>
     <use xlink:href="#m225dc85163" x="433.088447" y="179.786742" style="fill: #87ceeb; stroke: #000000"/>
     <use xlink:href="#m225dc85163" x="456.21138" y="235.610439" style="fill: #87ceeb; stroke: #000000"/>
     <use xlink:href="#m225dc85163" x="512.035076" y="258.733371" style="fill: #87ceeb; stroke: #000000"/>
     <use xlink:href="#m225dc85163" x="567.858773" y="235.610439" style="fill: #87ceeb; stroke: #000000"/>
    </g>
   </g>
   <g id="matplotlib.axis_3"/>
   <g id="matplotlib.axis_4"/>
   <g id="line2d_3">
    <g clip-path="url(#pa201b2338d)">
     <use xlink:href="#m55a4b80bfc" x="512.035076" y="179.786742" style="fill: #ff0000; stroke: #ff0000"/>
    </g>
   </g>
   <g id="patch_19">
    <path d="M 354.141818 337.68 
L 354.141818 21.893484 
" style="fill: none; stroke: #000000; stroke-width: 0.5; stroke-linejoin: miter; stroke-linecap: square"/>
   </g>
   <g id="patch_20">
    <path d="M 669.928334 337.68 
L 669.928334 21.893484 
" style="fill: none; stroke: #000000; stroke-width: 0.5; stroke-linejoin: miter; stroke-linecap: square"/>
   </g>
   <g id="patch_21">
    <path d="M 354.141818 337.68 
L 669.928334 337.68 
" style="fill: none; stroke: #000000; stroke-width: 0.5; stroke-linejoin: miter; stroke-linecap: square"/>
   </g>
   <g id="patch_22">
    <path d="M 354.141818 21.893484 
L 669.928334 21.893484 
" style="fill: none; stroke: #000000; stroke-width: 0.5; stroke-linejoin: miter; stroke-linecap: square"/>
   </g>
   <g id="text_6">
    <!-- $I^-$ -->
    <g transform="translate(503.627282 173.529401) scale(0.16 -0.16)">
     <defs>
      <path id="CMMI12-49" d="M 2355 3880 
C 2413 4103 2426 4167 2893 4167 
C 3034 4167 3085 4167 3085 4288 
C 3085 4352 3014 4352 2995 4352 
C 2880 4352 2739 4352 2624 4352 
L 1837 4352 
C 1709 4352 1562 4352 1434 4352 
C 1382 4352 1312 4352 1312 4231 
C 1312 4167 1363 4167 1491 4167 
C 1888 4167 1888 4116 1888 4046 
C 1888 4002 1875 3963 1862 3906 
L 998 472 
C 941 249 928 185 461 185 
C 320 185 262 185 262 64 
C 262 0 326 0 358 0 
C 474 0 614 0 730 0 
L 1517 0 
C 1645 0 1786 0 1914 0 
C 1965 0 2042 0 2042 115 
C 2042 185 2003 185 1862 185 
C 1466 185 1466 236 1466 312 
C 1466 325 1466 357 1491 459 
L 2355 3880 
z
" transform="scale(0.015625)"/>
      <path id="CMSY10-0" d="M 4218 1472 
C 4326 1472 4442 1472 4442 1600 
C 4442 1728 4326 1728 4218 1728 
L 755 1728 
C 646 1728 531 1728 531 1600 
C 531 1472 646 1472 755 1472 
L 4218 1472 
z
" transform="scale(0.015625)"/>
     </defs>
     <use xlink:href="#CMMI12-49" transform="scale(0.996264)"/>
     <use xlink:href="#CMSY10-0" transform="translate(50.856514 36.153639) scale(0.697382)"/>
    </g>
   </g>
   <g id="text_7">
    <!-- $I^-$ - distribuição completa -->
    <g transform="translate(422.260107 15.893484) scale(0.16 -0.16)">
     <use xlink:href="#CMMI12-49" transform="scale(0.996264)"/>
     <use xlink:href="#CMSY10-0" transform="translate(50.856514 36.153639) scale(0.697382)"/>
     <use xlink:href="#CMR17-2d" transform="translate(135.671606 0) scale(0.996264)"/>
     <use xlink:href="#CMR17-64" transform="translate(195.823538 0) scale(0.996264)"/>
     <use xlink:href="#CMR17-69" transform="translate(246.718908 0) scale(0.996264)"/>
     <use xlink:href="#CMR17-73" transform="translate(271.589967 0) scale(0.996264)"/>
     <use xlink:href="#CMR17-74" transform="translate(307.391304 0) scale(0.996264)"/>
     <use xlink:href="#CMR17-72" transform="translate(342.672072 0) scale(0.996264)"/>
     <use xlink:href="#CMR17-69" transform="translate(377.95284 0) scale(0.996264)"/>
     <use xlink:href="#CMR17-62" transform="translate(402.823898 0) scale(0.996264)"/>
     <use xlink:href="#CMR17-75" transform="translate(453.719268 0) scale(0.996264)"/>
     <use xlink:href="#CMR17-69" transform="translate(504.614638 0) scale(0.996264)"/>
     <use xlink:href="#CMR17-18" transform="translate(529.485696 0) scale(0.996264)"/>
     <use xlink:href="#CMR17-63" transform="translate(529.485696 0) scale(0.996264)"/>
     <use xlink:href="#CMR17-7e" transform="translate(569.971357 0) scale(0.996264)"/>
     <use xlink:href="#CMR17-61" transform="translate(569.971357 0) scale(0.996264)"/>
     <use xlink:href="#CMR17-6f" transform="translate(615.661834 0) scale(0.996264)"/>
     <use xlink:href="#CMR17-63" transform="translate(691.428277 0) scale(0.996264)"/>
     <use xlink:href="#CMR17-6f" transform="translate(731.913938 0) scale(0.996264)"/>
     <use xlink:href="#CMR17-6d" transform="translate(777.604415 0) scale(0.996264)"/>
     <use xlink:href="#CMR17-70" transform="translate(854.524005 0) scale(0.996264)"/>
     <use xlink:href="#CMR17-6c" transform="translate(905.419375 0) scale(0.996264)"/>
     <use xlink:href="#CMR17-65" transform="translate(930.290433 0) scale(0.996264)"/>
     <use xlink:href="#CMR17-74" transform="translate(970.776094 0) scale(0.996264)"/>
     <use xlink:href="#CMR17-61" transform="translate(1006.056861 0) scale(0.996264)"/>
    </g>
   </g>
   <g id="legend_2">
    <g id="patch_23">
     <path d="M 525.092815 81.667271 
L 661.528334 81.667271 
Q 663.928334 81.667271 663.928334 79.267271 
L 663.928334 30.293484 
Q 663.928334 27.893484 661.528334 27.893484 
L 525.092815 27.893484 
Q 522.692815 27.893484 522.692815 30.293484 
L 522.692815 79.267271 
Q 522.692815 81.667271 525.092815 81.667271 
z
" style="fill: #ffffff; opacity: 0.8; stroke: #cccccc; stroke-linejoin: miter"/>
    </g>
    <g id="line2d_4">
     <g>
      <use xlink:href="#m55a4b80bfc" x="539.492815" y="36.893484" style="fill: #ff0000; stroke: #ff0000"/>
     </g>
    </g>
    <g id="text_8">
     <!-- Núcleo -->
     <g transform="translate(561.092815 41.093484) scale(0.12 -0.12)">
      <use xlink:href="#CMR17-4e" transform="scale(0.996264)"/>
      <use xlink:href="#CMR17-13" transform="translate(71.674884 0) scale(0.996264)"/>
      <use xlink:href="#CMR17-75" transform="translate(69.07243 0) scale(0.996264)"/>
      <use xlink:href="#CMR17-63" transform="translate(119.9678 0) scale(0.996264)"/>
      <use xlink:href="#CMR17-6c" transform="translate(160.45346 0) scale(0.996264)"/>
      <use xlink:href="#CMR17-65" transform="translate(185.324519 0) scale(0.996264)"/>
      <use xlink:href="#CMR17-6f" transform="translate(225.810179 0) scale(0.996264)"/>
     </g>
    </g>
    <g id="PathCollection_13">
     <g>
      <use xlink:href="#mcb16c830e3" x="539.492815" y="54.66808" style="fill: #808080; stroke: #000000"/>
     </g>
    </g>
    <g id="text_9">
     <!-- Elétron interno -->
     <g transform="translate(561.092815 57.81808) scale(0.12 -0.12)">
      <use xlink:href="#CMR17-45" transform="scale(0.996264)"/>
      <use xlink:href="#CMR17-6c" transform="translate(62.586301 0) scale(0.996264)"/>
      <use xlink:href="#CMR17-13" transform="translate(84.854951 0) scale(0.996264)"/>
      <use xlink:href="#CMR17-65" transform="translate(87.457359 0) scale(0.996264)"/>
      <use xlink:href="#CMR17-74" transform="translate(127.943019 0) scale(0.996264)"/>
      <use xlink:href="#CMR17-72" transform="translate(163.223787 0) scale(0.996264)"/>
      <use xlink:href="#CMR17-6f" transform="translate(198.504555 0) scale(0.996264)"/>
      <use xlink:href="#CMR17-6e" transform="translate(244.195032 0) scale(0.996264)"/>
      <use xlink:href="#CMR17-69" transform="translate(325.166368 0) scale(0.996264)"/>
      <use xlink:href="#CMR17-6e" transform="translate(350.037427 0) scale(0.996264)"/>
      <use xlink:href="#CMR17-74" transform="translate(398.330343 0) scale(0.996264)"/>
      <use xlink:href="#CMR17-65" transform="translate(433.61111 0) scale(0.996264)"/>
      <use xlink:href="#CMR17-72" transform="translate(474.096771 0) scale(0.996264)"/>
      <use xlink:href="#CMR17-6e" transform="translate(509.377539 0) scale(0.996264)"/>
      <use xlink:href="#CMR17-6f" transform="translate(560.272908 0) scale(0.996264)"/>
     </g>
    </g>
    <g id="PathCollection_14">
     <g>
      <use xlink:href="#m225dc85163" x="539.492815" y="71.392675" style="fill: #87ceeb; stroke: #000000"/>
     </g>
    </g>
    <g id="text_10">
     <!-- Elétron de valência -->
     <g transform="translate(561.092815 74.542675) scale(0.12 -0.12)">
      <use xlink:href="#CMR17-45" transform="scale(0.996264)"/>
      <use xlink:href="#CMR17-6c" transform="translate(62.586301 0) scale(0.996264)"/>
      <use xlink:href="#CMR17-13" transform="translate(84.854951 0) scale(0.996264)"/>
      <use xlink:href="#CMR17-65" transform="translate(87.457359 0) scale(0.996264)"/>
      <use xlink:href="#CMR17-74" transform="translate(127.943019 0) scale(0.996264)"/>
      <use xlink:href="#CMR17-72" transform="translate(163.223787 0) scale(0.996264)"/>
      <use xlink:href="#CMR17-6f" transform="translate(198.504555 0) scale(0.996264)"/>
      <use xlink:href="#CMR17-6e" transform="translate(244.195032 0) scale(0.996264)"/>
      <use xlink:href="#CMR17-64" transform="translate(325.166368 0) scale(0.996264)"/>
      <use xlink:href="#CMR17-65" transform="translate(376.061738 0) scale(0.996264)"/>
      <use xlink:href="#CMR17-76" transform="translate(446.623365 0) scale(0.996264)"/>
      <use xlink:href="#CMR17-61" transform="translate(489.711464 0) scale(0.996264)"/>
      <use xlink:href="#CMR17-6c" transform="translate(535.401941 0) scale(0.996264)"/>
      <use xlink:href="#CMR17-5e" transform="translate(557.670591 0) scale(0.996264)"/>
      <use xlink:href="#CMR17-65" transform="translate(560.273 0) scale(0.996264)"/>
      <use xlink:href="#CMR17-6e" transform="translate(600.75866 0) scale(0.996264)"/>
      <use xlink:href="#CMR17-63" transform="translate(651.65403 0) scale(0.996264)"/>
      <use xlink:href="#CMR17-69" transform="translate(692.13969 0) scale(0.996264)"/>
      <use xlink:href="#CMR17-61" transform="translate(717.010749 0) scale(0.996264)"/>
     </g>
    </g>
   </g>
  </g>
  <g id="axes_3">
   <g id="patch_24">
    <path d="M 3.6 689.04 
L 319.386516 689.04 
L 319.386516 373.253484 
L 3.6 373.253484 
z
" style="fill: #ffffff"/>
   </g>
   <g id="patch_25">
    <path d="M 161.493258 546.936068 
C 165.680636 546.936068 169.697074 545.272405 172.657997 542.311481 
C 175.618921 539.350558 177.282584 535.33412 177.282584 531.146742 
C 177.282584 526.959364 175.618921 522.942926 172.657997 519.982003 
C 169.697074 517.021079 165.680636 515.357416 161.493258 515.357416 
C 157.30588 515.357416 153.289442 517.021079 150.328519 519.982003 
C 147.367595 522.942926 145.703932 526.959364 145.703932 531.146742 
C 145.703932 535.33412 147.367595 539.350558 150.328519 542.311481 
C 153.289442 545.272405 157.30588 546.936068 161.493258 546.936068 
L 161.493258 546.936068 
z
" clip-path="url(#pc5fc6faa51)" style="fill: none; stroke-dasharray: 1,1.65; stroke-dashoffset: 0; stroke: #000000; stroke-linejoin: miter"/>
   </g>
   <g id="PathCollection_15">
    <g clip-path="url(#pc5fc6faa51)">
     <use xlink:href="#mcb16c830e3" x="177.282584" y="531.146742" style="fill: #808080; stroke: #000000"/>
     <use xlink:href="#mcb16c830e3" x="145.703932" y="531.146742" style="fill: #808080; stroke: #000000"/>
    </g>
   </g>
   <g id="patch_26">
    <path d="M 161.493258 562.725394 
C 169.868014 562.725394 177.90089 559.398068 183.822737 553.476221 
C 189.744584 547.554374 193.07191 539.521498 193.07191 531.146742 
C 193.07191 522.771986 189.744584 514.73911 183.822737 508.817263 
C 177.90089 502.895416 169.868014 499.56809 161.493258 499.56809 
C 153.118502 499.56809 145.085626 502.895416 139.163779 508.817263 
C 133.241932 514.73911 129.914606 522.771986 129.914606 531.146742 
C 129.914606 539.521498 133.241932 547.554374 139.163779 553.476221 
C 145.085626 559.398068 153.118502 562.725394 161.493258 562.725394 
L 161.493258 562.725394 
z
" clip-path="url(#pc5fc6faa51)" style="fill: none; stroke-dasharray: 1,1.65; stroke-dashoffset: 0; stroke: #000000; stroke-linejoin: miter"/>
   </g>
   <g id="PathCollection_16">
    <g clip-path="url(#pc5fc6faa51)">
     <use xlink:href="#mcb16c830e3" x="193.07191" y="531.146742" style="fill: #808080; stroke: #000000"/>
     <use xlink:href="#mcb16c830e3" x="183.822737" y="508.817263" style="fill: #808080; stroke: #000000"/>
     <use xlink:href="#mcb16c830e3" x="161.493258" y="499.56809" style="fill: #808080; stroke: #000000"/>
     <use xlink:href="#mcb16c830e3" x="139.163779" y="508.817263" style="fill: #808080; stroke: #000000"/>
     <use xlink:href="#mcb16c830e3" x="129.914606" y="531.146742" style="fill: #808080; stroke: #000000"/>
     <use xlink:href="#mcb16c830e3" x="139.163779" y="553.476221" style="fill: #808080; stroke: #000000"/>
     <use xlink:href="#mcb16c830e3" x="161.493258" y="562.725394" style="fill: #808080; stroke: #000000"/>
     <use xlink:href="#mcb16c830e3" x="183.822737" y="553.476221" style="fill: #808080; stroke: #000000"/>
    </g>
   </g>
   <g id="patch_27">
    <path d="M 161.493258 578.514719 
C 174.055393 578.514719 186.104706 573.52373 194.987476 564.64096 
C 203.870247 555.758189 208.861236 543.708876 208.861236 531.146742 
C 208.861236 518.584607 203.870247 506.535294 194.987476 497.652524 
C 186.104706 488.769753 174.055393 483.778764 161.493258 483.778764 
C 148.931124 483.778764 136.881811 488.769753 127.99904 497.652524 
C 119.11627 506.535294 114.125281 518.584607 114.125281 531.146742 
C 114.125281 543.708876 119.11627 555.758189 127.99904 564.64096 
C 136.881811 573.52373 148.931124 578.514719 161.493258 578.514719 
L 161.493258 578.514719 
z
" clip-path="url(#pc5fc6faa51)" style="fill: none; stroke-dasharray: 1,1.65; stroke-dashoffset: 0; stroke: #000000; stroke-linejoin: miter"/>
   </g>
   <g id="PathCollection_17">
    <g clip-path="url(#pc5fc6faa51)">
     <use xlink:href="#mcb16c830e3" x="208.861236" y="531.146742" style="fill: #808080; stroke: #000000"/>
     <use xlink:href="#mcb16c830e3" x="194.987476" y="497.652524" style="fill: #808080; stroke: #000000"/>
     <use xlink:href="#mcb16c830e3" x="161.493258" y="483.778764" style="fill: #808080; stroke: #000000"/>
     <use xlink:href="#mcb16c830e3" x="127.99904" y="497.652524" style="fill: #808080; stroke: #000000"/>
     <use xlink:href="#mcb16c830e3" x="114.125281" y="531.146742" style="fill: #808080; stroke: #000000"/>
     <use xlink:href="#mcb16c830e3" x="127.99904" y="564.64096" style="fill: #808080; stroke: #000000"/>
     <use xlink:href="#mcb16c830e3" x="161.493258" y="578.514719" style="fill: #808080; stroke: #000000"/>
     <use xlink:href="#mcb16c830e3" x="194.987476" y="564.64096" style="fill: #808080; stroke: #000000"/>
    </g>
   </g>
   <g id="patch_28">
    <path d="M 161.493258 594.304045 
C 178.242771 594.304045 194.308522 587.649393 206.152216 575.805699 
C 217.995909 563.962005 224.650561 547.896255 224.650561 531.146742 
C 224.650561 514.397229 217.995909 498.331478 206.152216 486.487784 
C 194.308522 474.644091 178.242771 467.989439 161.493258 467.989439 
C 144.743745 467.989439 128.677995 474.644091 116.834301 486.487784 
C 104.990607 498.331478 98.335955 514.397229 98.335955 531.146742 
C 98.335955 547.896255 104.990607 563.962005 116.834301 575.805699 
C 128.677995 587.649393 144.743745 594.304045 161.493258 594.304045 
L 161.493258 594.304045 
z
" clip-path="url(#pc5fc6faa51)" style="fill: none; stroke-dasharray: 1,1.65; stroke-dashoffset: 0; stroke: #000000; stroke-linejoin: miter"/>
   </g>
   <g id="matplotlib.axis_5"/>
   <g id="matplotlib.axis_6"/>
   <g id="line2d_5">
    <g clip-path="url(#pc5fc6faa51)">
     <use xlink:href="#m55a4b80bfc" x="161.493258" y="531.146742" style="fill: #ff0000; stroke: #ff0000"/>
    </g>
   </g>
   <g id="patch_29">
    <path d="M 3.6 689.04 
L 3.6 373.253484 
" style="fill: none; stroke: #000000; stroke-width: 0.5; stroke-linejoin: miter; stroke-linecap: square"/>
   </g>
   <g id="patch_30">
    <path d="M 319.386516 689.04 
L 319.386516 373.253484 
" style="fill: none; stroke: #000000; stroke-width: 0.5; stroke-linejoin: miter; stroke-linecap: square"/>
   </g>
   <g id="patch_31">
    <path d="M 3.6 689.04 
L 319.386516 689.04 
" style="fill: none; stroke: #000000; stroke-width: 0.5; stroke-linejoin: miter; stroke-linecap: square"/>
   </g>
   <g id="patch_32">
    <path d="M 3.6 373.253484 
L 319.386516 373.253484 
" style="fill: none; stroke: #000000; stroke-width: 0.5; stroke-linejoin: miter; stroke-linecap: square"/>
   </g>
   <g id="text_11">
    <!-- $K^+$ -->
    <g transform="translate(149.942191 524.889401) scale(0.16 -0.16)">
     <defs>
      <path id="CMMI12-4b" d="M 3200 2571 
C 3194 2590 3168 2641 3168 2661 
C 3168 2667 3174 2673 3283 2756 
L 3904 3242 
C 4762 3905 5043 4128 5485 4167 
C 5530 4167 5594 4167 5594 4282 
C 5594 4320 5574 4352 5523 4352 
C 5453 4352 5376 4352 5306 4352 
L 5062 4352 
C 4864 4352 4653 4352 4461 4352 
C 4416 4352 4339 4352 4339 4237 
C 4339 4173 4384 4167 4422 4167 
C 4493 4160 4576 4135 4576 4046 
C 4576 3919 4384 3765 4333 3727 
L 1824 1784 
L 2355 3887 
C 2413 4103 2426 4167 2880 4167 
C 3002 4167 3059 4167 3059 4288 
C 3059 4352 2995 4352 2963 4352 
C 2848 4352 2714 4352 2592 4352 
L 1837 4352 
C 1722 4352 1581 4352 1466 4352 
C 1414 4352 1344 4352 1344 4231 
C 1344 4167 1402 4167 1498 4167 
C 1888 4167 1888 4116 1888 4046 
C 1888 4034 1888 3995 1862 3899 
L 998 472 
C 941 249 928 185 480 185 
C 358 185 294 185 294 70 
C 294 0 352 0 390 0 
C 512 0 640 0 762 0 
L 1510 0 
C 1632 0 1766 0 1888 0 
C 1939 0 2010 0 2010 121 
C 2010 185 1952 185 1856 185 
C 1466 185 1466 236 1466 300 
C 1466 345 1504 504 1530 606 
L 1779 1593 
L 2752 2351 
C 2938 1943 3277 1128 3539 505 
C 3558 466 3571 428 3571 383 
C 3571 185 3315 185 3258 185 
C 3200 185 3136 185 3136 64 
C 3136 0 3206 0 3226 0 
C 3450 0 3686 0 3910 0 
L 4218 0 
C 4314 0 4422 0 4518 0 
C 4557 0 4627 0 4627 121 
C 4627 185 4570 185 4506 185 
C 4269 185 4186 236 4090 466 
L 3200 2571 
z
" transform="scale(0.015625)"/>
      <path id="CMR17-2b" d="M 2413 1472 
L 4109 1472 
C 4198 1472 4307 1472 4307 1580 
C 4307 1695 4205 1695 4109 1695 
L 2413 1695 
L 2413 3386 
C 2413 3475 2413 3584 2304 3584 
C 2189 3584 2189 3482 2189 3386 
L 2189 1695 
L 493 1695 
C 403 1695 294 1695 294 1587 
C 294 1472 397 1472 493 1472 
L 2189 1472 
L 2189 -218 
C 2189 -307 2189 -416 2298 -416 
C 2413 -416 2413 -314 2413 -218 
L 2413 1472 
z
" transform="scale(0.015625)"/>
     </defs>
     <use xlink:href="#CMMI12-4b" transform="scale(0.996264)"/>
     <use xlink:href="#CMR17-2b" transform="translate(90.147421 36.153639) scale(0.697382)"/>
    </g>
   </g>
   <g id="text_12">
    <!-- $K^+$ - distribuição completa -->
    <g transform="translate(68.575016 367.253484) scale(0.16 -0.16)">
     <use xlink:href="#CMMI12-4b" transform="scale(0.996264)"/>
     <use xlink:href="#CMR17-2b" transform="translate(90.147421 36.153639) scale(0.697382)"/>
     <use xlink:href="#CMR17-2d" transform="translate(170.921651 0) scale(0.996264)"/>
     <use xlink:href="#CMR17-64" transform="translate(231.073583 0) scale(0.996264)"/>
     <use xlink:href="#CMR17-69" transform="translate(281.968953 0) scale(0.996264)"/>
     <use xlink:href="#CMR17-73" transform="translate(306.840012 0) scale(0.996264)"/>
     <use xlink:href="#CMR17-74" transform="translate(342.641349 0) scale(0.996264)"/>
     <use xlink:href="#CMR17-72" transform="translate(377.922117 0) scale(0.996264)"/>
     <use xlink:href="#CMR17-69" transform="translate(413.202885 0) scale(0.996264)"/>
     <use xlink:href="#CMR17-62" transform="translate(438.073943 0) scale(0.996264)"/>
     <use xlink:href="#CMR17-75" transform="translate(488.969313 0) scale(0.996264)"/>
     <use xlink:href="#CMR17-69" transform="translate(539.864683 0) scale(0.996264)"/>
     <use xlink:href="#CMR17-18" transform="translate(564.735741 0) scale(0.996264)"/>
     <use xlink:href="#CMR17-63" transform="translate(564.735741 0) scale(0.996264)"/>
     <use xlink:href="#CMR17-7e" transform="translate(605.221402 0) scale(0.996264)"/>
     <use xlink:href="#CMR17-61" transform="translate(605.221402 0) scale(0.996264)"/>
     <use xlink:href="#CMR17-6f" transform="translate(650.911879 0) scale(0.996264)"/>
     <use xlink:href="#CMR17-63" transform="translate(726.678322 0) scale(0.996264)"/>
     <use xlink:href="#CMR17-6f" transform="translate(767.163983 0) scale(0.996264)"/>
     <use xlink:href="#CMR17-6d" transform="translate(812.85446 0) scale(0.996264)"/>
     <use xlink:href="#CMR17-70" transform="translate(889.77405 0) scale(0.996264)"/>
     <use xlink:href="#CMR17-6c" transform="translate(940.66942 0) scale(0.996264)"/>
     <use xlink:href="#CMR17-65" transform="translate(965.540478 0) scale(0.996264)"/>
     <use xlink:href="#CMR17-74" transform="translate(1006.026139 0) scale(0.996264)"/>
     <use xlink:href="#CMR17-61" transform="translate(1041.306906 0) scale(0.996264)"/>
    </g>
   </g>
   <g id="legend_3">
    <g id="patch_33">
     <path d="M 194.711297 416.302675 
L 310.986516 416.302675 
Q 313.386516 416.302675 313.386516 413.902675 
L 313.386516 381.653484 
Q 313.386516 379.253484 310.986516 379.253484 
L 194.711297 379.253484 
Q 192.311297 379.253484 192.311297 381.653484 
L 192.311297 413.902675 
Q 192.311297 416.302675 194.711297 416.302675 
z
" style="fill: #ffffff; opacity: 0.8; stroke: #cccccc; stroke-linejoin: miter"/>
    </g>
    <g id="line2d_6">
     <g>
      <use xlink:href="#m55a4b80bfc" x="209.111297" y="388.253484" style="fill: #ff0000; stroke: #ff0000"/>
     </g>
    </g>
    <g id="text_13">
     <!-- Núcleo -->
     <g transform="translate(230.711297 392.453484) scale(0.12 -0.12)">
      <use xlink:href="#CMR17-4e" transform="scale(0.996264)"/>
      <use xlink:href="#CMR17-13" transform="translate(71.674884 0) scale(0.996264)"/>
      <use xlink:href="#CMR17-75" transform="translate(69.07243 0) scale(0.996264)"/>
      <use xlink:href="#CMR17-63" transform="translate(119.9678 0) scale(0.996264)"/>
      <use xlink:href="#CMR17-6c" transform="translate(160.45346 0) scale(0.996264)"/>
      <use xlink:href="#CMR17-65" transform="translate(185.324519 0) scale(0.996264)"/>
      <use xlink:href="#CMR17-6f" transform="translate(225.810179 0) scale(0.996264)"/>
     </g>
    </g>
    <g id="PathCollection_18">
     <g>
      <use xlink:href="#mcb16c830e3" x="209.111297" y="406.02808" style="fill: #808080; stroke: #000000"/>
     </g>
    </g>
    <g id="text_14">
     <!-- Elétron interno -->
     <g transform="translate(230.711297 409.17808) scale(0.12 -0.12)">
      <use xlink:href="#CMR17-45" transform="scale(0.996264)"/>
      <use xlink:href="#CMR17-6c" transform="translate(62.586301 0) scale(0.996264)"/>
      <use xlink:href="#CMR17-13" transform="translate(84.854951 0) scale(0.996264)"/>
      <use xlink:href="#CMR17-65" transform="translate(87.457359 0) scale(0.996264)"/>
      <use xlink:href="#CMR17-74" transform="translate(127.943019 0) scale(0.996264)"/>
      <use xlink:href="#CMR17-72" transform="translate(163.223787 0) scale(0.996264)"/>
      <use xlink:href="#CMR17-6f" transform="translate(198.504555 0) scale(0.996264)"/>
      <use xlink:href="#CMR17-6e" transform="translate(244.195032 0) scale(0.996264)"/>
      <use xlink:href="#CMR17-69" transform="translate(325.166368 0) scale(0.996264)"/>
      <use xlink:href="#CMR17-6e" transform="translate(350.037427 0) scale(0.996264)"/>
      <use xlink:href="#CMR17-74" transform="translate(398.330343 0) scale(0.996264)"/>
      <use xlink:href="#CMR17-65" transform="translate(433.61111 0) scale(0.996264)"/>
      <use xlink:href="#CMR17-72" transform="translate(474.096771 0) scale(0.996264)"/>
      <use xlink:href="#CMR17-6e" transform="translate(509.377539 0) scale(0.996264)"/>
      <use xlink:href="#CMR17-6f" transform="translate(560.272908 0) scale(0.996264)"/>
     </g>
    </g>
   </g>
  </g>
  <g id="axes_4">
   <g id="patch_34">
    <path d="M 354.141818 689.04 
L 669.928334 689.04 
L 669.928334 373.253484 
L 354.141818 373.253484 
z
" style="fill: #ffffff"/>
   </g>
   <g id="patch_35">
    <path d="M 512.035076 546.936068 
C 516.222454 546.936068 520.238892 545.272405 523.199816 542.311481 
C 526.160739 539.350558 527.824402 535.33412 527.824402 531.146742 
C 527.824402 526.959364 526.160739 522.942926 523.199816 519.982003 
C 520.238892 517.021079 516.222454 515.357416 512.035076 515.357416 
C 507.847698 515.357416 503.83126 517.021079 500.870337 519.982003 
C 497.909413 522.942926 496.24575 526.959364 496.24575 531.146742 
C 496.24575 535.33412 497.909413 539.350558 500.870337 542.311481 
C 503.83126 545.272405 507.847698 546.936068 512.035076 546.936068 
L 512.035076 546.936068 
z
" clip-path="url(#p93d3357988)" style="fill: none; stroke-dasharray: 1,1.65; stroke-dashoffset: 0; stroke: #000000; stroke-linejoin: miter"/>
   </g>
   <g id="PathCollection_19">
    <g clip-path="url(#p93d3357988)">
     <use xlink:href="#mcb16c830e3" x="527.824402" y="531.146742" style="fill: #808080; stroke: #000000"/>
     <use xlink:href="#mcb16c830e3" x="496.24575" y="531.146742" style="fill: #808080; stroke: #000000"/>
    </g>
   </g>
   <g id="patch_36">
    <path d="M 512.035076 562.725394 
C 520.409833 562.725394 528.442708 559.398068 534.364555 553.476221 
C 540.286402 547.554374 543.613728 539.521498 543.613728 531.146742 
C 543.613728 522.771986 540.286402 514.73911 534.364555 508.817263 
C 528.442708 502.895416 520.409833 499.56809 512.035076 499.56809 
C 503.66032 499.56809 495.627445 502.895416 489.705598 508.817263 
C 483.783751 514.73911 480.456425 522.771986 480.456425 531.146742 
C 480.456425 539.521498 483.783751 547.554374 489.705598 553.476221 
C 495.627445 559.398068 503.66032 562.725394 512.035076 562.725394 
L 512.035076 562.725394 
z
" clip-path="url(#p93d3357988)" style="fill: none; stroke-dasharray: 1,1.65; stroke-dashoffset: 0; stroke: #000000; stroke-linejoin: miter"/>
   </g>
   <g id="PathCollection_20">
    <g clip-path="url(#p93d3357988)">
     <use xlink:href="#mcb16c830e3" x="543.613728" y="531.146742" style="fill: #808080; stroke: #000000"/>
     <use xlink:href="#mcb16c830e3" x="534.364555" y="508.817263" style="fill: #808080; stroke: #000000"/>
     <use xlink:href="#mcb16c830e3" x="512.035076" y="499.56809" style="fill: #808080; stroke: #000000"/>
     <use xlink:href="#mcb16c830e3" x="489.705598" y="508.817263" style="fill: #808080; stroke: #000000"/>
     <use xlink:href="#mcb16c830e3" x="480.456425" y="531.146742" style="fill: #808080; stroke: #000000"/>
     <use xlink:href="#mcb16c830e3" x="489.705598" y="553.476221" style="fill: #808080; stroke: #000000"/>
     <use xlink:href="#mcb16c830e3" x="512.035076" y="562.725394" style="fill: #808080; stroke: #000000"/>
     <use xlink:href="#mcb16c830e3" x="534.364555" y="553.476221" style="fill: #808080; stroke: #000000"/>
    </g>
   </g>
   <g id="patch_37">
    <path d="M 512.035076 578.514719 
C 524.597211 578.514719 536.646524 573.52373 545.529294 564.64096 
C 554.412065 555.758189 559.403054 543.708876 559.403054 531.146742 
C 559.403054 518.584607 554.412065 506.535294 545.529294 497.652524 
C 536.646524 488.769753 524.597211 483.778764 512.035076 483.778764 
C 499.472942 483.778764 487.423629 488.769753 478.540858 497.652524 
C 469.658088 506.535294 464.667099 518.584607 464.667099 531.146742 
C 464.667099 543.708876 469.658088 555.758189 478.540858 564.64096 
C 487.423629 573.52373 499.472942 578.514719 512.035076 578.514719 
L 512.035076 578.514719 
z
" clip-path="url(#p93d3357988)" style="fill: none; stroke-dasharray: 1,1.65; stroke-dashoffset: 0; stroke: #000000; stroke-linejoin: miter"/>
   </g>
   <g id="PathCollection_21">
    <g clip-path="url(#p93d3357988)">
     <use xlink:href="#m225dc85163" x="559.403054" y="531.146742" style="fill: #87ceeb; stroke: #000000"/>
     <use xlink:href="#m225dc85163" x="535.719065" y="490.12487" style="fill: #87ceeb; stroke: #000000"/>
     <use xlink:href="#m225dc85163" x="488.351088" y="490.12487" style="fill: #87ceeb; stroke: #000000"/>
     <use xlink:href="#m225dc85163" x="464.667099" y="531.146742" style="fill: #87ceeb; stroke: #000000"/>
     <use xlink:href="#m225dc85163" x="488.351088" y="572.168614" style="fill: #87ceeb; stroke: #000000"/>
     <use xlink:href="#m225dc85163" x="535.719065" y="572.168614" style="fill: #87ceeb; stroke: #000000"/>
    </g>
   </g>
   <g id="matplotlib.axis_7"/>
   <g id="matplotlib.axis_8"/>
   <g id="line2d_7">
    <g clip-path="url(#p93d3357988)">
     <use xlink:href="#m55a4b80bfc" x="512.035076" y="531.146742" style="fill: #ff0000; stroke: #ff0000"/>
    </g>
   </g>
   <g id="patch_38">
    <path d="M 354.141818 689.04 
L 354.141818 373.253484 
" style="fill: none; stroke: #000000; stroke-width: 0.5; stroke-linejoin: miter; stroke-linecap: square"/>
   </g>
   <g id="patch_39">
    <path d="M 669.928334 689.04 
L 669.928334 373.253484 
" style="fill: none; stroke: #000000; stroke-width: 0.5; stroke-linejoin: miter; stroke-linecap: square"/>
   </g>
   <g id="patch_40">
    <path d="M 354.141818 689.04 
L 669.928334 689.04 
" style="fill: none; stroke: #000000; stroke-width: 0.5; stroke-linejoin: miter; stroke-linecap: square"/>
   </g>
   <g id="patch_41">
    <path d="M 354.141818 373.253484 
L 669.928334 373.253484 
" style="fill: none; stroke: #000000; stroke-width: 0.5; stroke-linejoin: miter; stroke-linecap: square"/>
   </g>
   <g id="text_15">
    <!-- $S$ -->
    <g transform="translate(507.235516 524.889401) scale(0.16 -0.16)">
     <use xlink:href="#CMMI12-53" transform="scale(0.996264)"/>
    </g>
   </g>
   <g id="text_16">
    <!-- $S$ - distribuição completa -->
    <g transform="translate(425.653411 367.253484) scale(0.16 -0.16)">
     <use xlink:href="#CMMI12-53" transform="scale(0.996264)"/>
     <use xlink:href="#CMR17-2d" transform="translate(95.870405 0) scale(0.996264)"/>
     <use xlink:href="#CMR17-64" transform="translate(156.022338 0) scale(0.996264)"/>
     <use xlink:href="#CMR17-69" transform="translate(206.917708 0) scale(0.996264)"/>
     <use xlink:href="#CMR17-73" transform="translate(231.788766 0) scale(0.996264)"/>
     <use xlink:href="#CMR17-74" transform="translate(267.590104 0) scale(0.996264)"/>
     <use xlink:href="#CMR17-72" transform="translate(302.870872 0) scale(0.996264)"/>
     <use xlink:href="#CMR17-69" transform="translate(338.15164 0) scale(0.996264)"/>
     <use xlink:href="#CMR17-62" transform="translate(363.022698 0) scale(0.996264)"/>
     <use xlink:href="#CMR17-75" transform="translate(413.918068 0) scale(0.996264)"/>
     <use xlink:href="#CMR17-69" transform="translate(464.813438 0) scale(0.996264)"/>
     <use xlink:href="#CMR17-18" transform="translate(489.684496 0) scale(0.996264)"/>
     <use xlink:href="#CMR17-63" transform="translate(489.684496 0) scale(0.996264)"/>
     <use xlink:href="#CMR17-7e" transform="translate(530.170157 0) scale(0.996264)"/>
     <use xlink:href="#CMR17-61" transform="translate(530.170157 0) scale(0.996264)"/>
     <use xlink:href="#CMR17-6f" transform="translate(575.860634 0) scale(0.996264)"/>
     <use xlink:href="#CMR17-63" transform="translate(651.627077 0) scale(0.996264)"/>
     <use xlink:href="#CMR17-6f" transform="translate(692.112738 0) scale(0.996264)"/>
     <use xlink:href="#CMR17-6d" transform="translate(737.803215 0) scale(0.996264)"/>
     <use xlink:href="#CMR17-70" transform="translate(814.722805 0) scale(0.996264)"/>
     <use xlink:href="#CMR17-6c" transform="translate(865.618174 0) scale(0.996264)"/>
     <use xlink:href="#CMR17-65" transform="translate(890.489233 0) scale(0.996264)"/>
     <use xlink:href="#CMR17-74" transform="translate(930.974893 0) scale(0.996264)"/>
     <use xlink:href="#CMR17-61" transform="translate(966.255661 0) scale(0.996264)"/>
    </g>
   </g>
   <g id="legend_4">
    <g id="patch_42">
     <path d="M 525.092815 433.027271 
L 661.528334 433.027271 
Q 663.928334 433.027271 663.928334 430.627271 
L 663.928334 381.653484 
Q 663.928334 379.253484 661.528334 379.253484 
L 525.092815 379.253484 
Q 522.692815 379.253484 522.692815 381.653484 
L 522.692815 430.627271 
Q 522.692815 433.027271 525.092815 433.027271 
z
" style="fill: #ffffff; opacity: 0.8; stroke: #cccccc; stroke-linejoin: miter"/>
    </g>
    <g id="line2d_8">
     <g>
      <use xlink:href="#m55a4b80bfc" x="539.492815" y="388.253484" style="fill: #ff0000; stroke: #ff0000"/>
     </g>
    </g>
    <g id="text_17">
     <!-- Núcleo -->
     <g transform="translate(561.092815 392.453484) scale(0.12 -0.12)">
      <use xlink:href="#CMR17-4e" transform="scale(0.996264)"/>
      <use xlink:href="#CMR17-13" transform="translate(71.674884 0) scale(0.996264)"/>
      <use xlink:href="#CMR17-75" transform="translate(69.07243 0) scale(0.996264)"/>
      <use xlink:href="#CMR17-63" transform="translate(119.9678 0) scale(0.996264)"/>
      <use xlink:href="#CMR17-6c" transform="translate(160.45346 0) scale(0.996264)"/>
      <use xlink:href="#CMR17-65" transform="translate(185.324519 0) scale(0.996264)"/>
      <use xlink:href="#CMR17-6f" transform="translate(225.810179 0) scale(0.996264)"/>
     </g>
    </g>
    <g id="PathCollection_22">
     <g>
      <use xlink:href="#mcb16c830e3" x="539.492815" y="406.02808" style="fill: #808080; stroke: #000000"/>
     </g>
    </g>
    <g id="text_18">
     <!-- Elétron interno -->
     <g transform="translate(561.092815 409.17808) scale(0.12 -0.12)">
      <use xlink:href="#CMR17-45" transform="scale(0.996264)"/>
      <use xlink:href="#CMR17-6c" transform="translate(62.586301 0) scale(0.996264)"/>
      <use xlink:href="#CMR17-13" transform="translate(84.854951 0) scale(0.996264)"/>
      <use xlink:href="#CMR17-65" transform="translate(87.457359 0) scale(0.996264)"/>
      <use xlink:href="#CMR17-74" transform="translate(127.943019 0) scale(0.996264)"/>
      <use xlink:href="#CMR17-72" transform="translate(163.223787 0) scale(0.996264)"/>
      <use xlink:href="#CMR17-6f" transform="translate(198.504555 0) scale(0.996264)"/>
      <use xlink:href="#CMR17-6e" transform="translate(244.195032 0) scale(0.996264)"/>
      <use xlink:href="#CMR17-69" transform="translate(325.166368 0) scale(0.996264)"/>
      <use xlink:href="#CMR17-6e" transform="translate(350.037427 0) scale(0.996264)"/>
      <use xlink:href="#CMR17-74" transform="translate(398.330343 0) scale(0.996264)"/>
      <use xlink:href="#CMR17-65" transform="translate(433.61111 0) scale(0.996264)"/>
      <use xlink:href="#CMR17-72" transform="translate(474.096771 0) scale(0.996264)"/>
      <use xlink:href="#CMR17-6e" transform="translate(509.377539 0) scale(0.996264)"/>
      <use xlink:href="#CMR17-6f" transform="translate(560.272908 0) scale(0.996264)"/>
     </g>
    </g>
    <g id="PathCollection_23">
     <g>
      <use xlink:href="#m225dc85163" x="539.492815" y="422.752675" style="fill: #87ceeb; stroke: #000000"/>
     </g>
    </g>
    <g id="text_19">
     <!-- Elétron de valência -->
     <g transform="translate(561.092815 425.902675) scale(0.12 -0.12)">
      <use xlink:href="#CMR17-45" transform="scale(0.996264)"/>
      <use xlink:href="#CMR17-6c" transform="translate(62.586301 0) scale(0.996264)"/>
      <use xlink:href="#CMR17-13" transform="translate(84.854951 0) scale(0.996264)"/>
      <use xlink:href="#CMR17-65" transform="translate(87.457359 0) scale(0.996264)"/>
      <use xlink:href="#CMR17-74" transform="translate(127.943019 0) scale(0.996264)"/>
      <use xlink:href="#CMR17-72" transform="translate(163.223787 0) scale(0.996264)"/>
      <use xlink:href="#CMR17-6f" transform="translate(198.504555 0) scale(0.996264)"/>
      <use xlink:href="#CMR17-6e" transform="translate(244.195032 0) scale(0.996264)"/>
      <use xlink:href="#CMR17-64" transform="translate(325.166368 0) scale(0.996264)"/>
      <use xlink:href="#CMR17-65" transform="translate(376.061738 0) scale(0.996264)"/>
      <use xlink:href="#CMR17-76" transform="translate(446.623365 0) scale(0.996264)"/>
      <use xlink:href="#CMR17-61" transform="translate(489.711464 0) scale(0.996264)"/>
      <use xlink:href="#CMR17-6c" transform="translate(535.401941 0) scale(0.996264)"/>
      <use xlink:href="#CMR17-5e" transform="translate(557.670591 0) scale(0.996264)"/>
      <use xlink:href="#CMR17-65" transform="translate(560.273 0) scale(0.996264)"/>
      <use xlink:href="#CMR17-6e" transform="translate(600.75866 0) scale(0.996264)"/>
      <use xlink:href="#CMR17-63" transform="translate(651.65403 0) scale(0.996264)"/>
      <use xlink:href="#CMR17-69" transform="translate(692.13969 0) scale(0.996264)"/>
      <use xlink:href="#CMR17-61" transform="translate(717.010749 0) scale(0.996264)"/>
     </g>
    </g>
   </g>
  </g>
 </g>
 <defs>
  <clipPath id="p1c86d8f3ea">
   <rect x="3.6" y="21.893484" width="315.786516" height="315.786516"/>
  </clipPath>
  <clipPath id="pa201b2338d">
   <rect x="354.141818" y="21.893484" width="315.786516" height="315.786516"/>
  </clipPath>
  <clipPath id="pc5fc6faa51">
   <rect x="3.6" y="373.253484" width="315.786516" height="315.786516"/>
  </clipPath>
  <clipPath id="p93d3357988">
   <rect x="354.141818" y="373.253484" width="315.786516" height="315.786516"/>
  </clipPath>
 </defs>
</svg>
