<?xml version="1.0" encoding="utf-8" standalone="no"?>
<!DOCTYPE svg PUBLIC "-//W3C//DTD SVG 1.1//EN"
  "http://www.w3.org/Graphics/SVG/1.1/DTD/svg11.dtd">
<svg xmlns:xlink="http://www.w3.org/1999/xlink" width="506.16pt" height="506.16pt" viewBox="0 0 506.16 506.16" xmlns="http://www.w3.org/2000/svg" version="1.1">
 <metadata>
  <rdf:RDF xmlns:dc="http://purl.org/dc/elements/1.1/" xmlns:cc="http://creativecommons.org/ns#" xmlns:rdf="http://www.w3.org/1999/02/22-rdf-syntax-ns#">
   <cc:Work>
    <dc:type rdf:resource="http://purl.org/dc/dcmitype/StillImage"/>
    <dc:date>2025-09-03T12:58:52.141042</dc:date>
    <dc:format>image/svg+xml</dc:format>
    <dc:creator>
     <cc:Agent>
      <dc:title>Matplotlib v3.9.2, https://matplotlib.org/</dc:title>
     </cc:Agent>
    </dc:creator>
   </cc:Work>
  </rdf:RDF>
 </metadata>
 <defs>
  <style type="text/css">*{stroke-linejoin: round; stroke-linecap: butt}</style>
 </defs>
 <g id="figure_1">
  <g id="patch_1">
   <path d="M 0 506.16 
L 506.16 506.16 
L 506.16 -0 
L 0 -0 
z
" style="fill: #ffffff"/>
  </g>
  <g id="axes_1">
   <g id="patch_2">
    <path d="M 3.6 502.56 
L 502.56 502.56 
L 502.56 3.6 
L 3.6 3.6 
z
" style="fill: #ffffff"/>
   </g>
   <g id="patch_3">
    <path d="M 253.08 315.45 
C 269.620717 315.45 285.486197 308.878303 297.18225 297.18225 
C 308.878303 285.486197 315.45 269.620717 315.45 253.08 
C 315.45 236.539283 308.878303 220.673803 297.18225 208.97775 
C 285.486197 197.281697 269.620717 190.71 253.08 190.71 
C 236.539283 190.71 220.673803 197.281697 208.97775 208.97775 
C 197.281697 220.673803 190.71 236.539283 190.71 253.08 
C 190.71 269.620717 197.281697 285.486197 208.97775 297.18225 
C 220.673803 308.878303 236.539283 315.45 253.08 315.45 
L 253.08 315.45 
z
" clip-path="url(#p8cd5c59f13)" style="fill: none; stroke-dasharray: 1,1.65; stroke-dashoffset: 0; stroke: #000000; stroke-linejoin: miter"/>
   </g>
   <g id="PathCollection_1">
    <defs>
     <path id="ma58c52f46f" d="M 0 5 
C 1.326016 5 2.597899 4.473168 3.535534 3.535534 
C 4.473168 2.597899 5 1.326016 5 0 
C 5 -1.326016 4.473168 -2.597899 3.535534 -3.535534 
C 2.597899 -4.473168 1.326016 -5 0 -5 
C -1.326016 -5 -2.597899 -4.473168 -3.535534 -3.535534 
C -4.473168 -2.597899 -5 -1.326016 -5 0 
C -5 1.326016 -4.473168 2.597899 -3.535534 3.535534 
C -2.597899 4.473168 -1.326016 5 0 5 
z
" style="stroke: #000000"/>
    </defs>
    <g clip-path="url(#p8cd5c59f13)">
     <use xlink:href="#ma58c52f46f" x="315.45" y="253.08" style="fill: #808080; stroke: #000000"/>
     <use xlink:href="#ma58c52f46f" x="190.71" y="253.08" style="fill: #808080; stroke: #000000"/>
    </g>
   </g>
   <g id="patch_4">
    <path d="M 253.08 377.82 
C 286.161435 377.82 317.892393 364.676607 341.2845 341.2845 
C 364.676607 317.892393 377.82 286.161435 377.82 253.08 
C 377.82 219.998565 364.676607 188.267607 341.2845 164.8755 
C 317.892393 141.483393 286.161435 128.34 253.08 128.34 
C 219.998565 128.34 188.267607 141.483393 164.8755 164.8755 
C 141.483393 188.267607 128.34 219.998565 128.34 253.08 
C 128.34 286.161435 141.483393 317.892393 164.8755 341.2845 
C 188.267607 364.676607 219.998565 377.82 253.08 377.82 
L 253.08 377.82 
z
" clip-path="url(#p8cd5c59f13)" style="fill: none; stroke-dasharray: 1,1.65; stroke-dashoffset: 0; stroke: #000000; stroke-linejoin: miter"/>
   </g>
   <g id="PathCollection_2">
    <g clip-path="url(#p8cd5c59f13)">
     <use xlink:href="#ma58c52f46f" x="377.82" y="253.08" style="fill: #808080; stroke: #000000"/>
     <use xlink:href="#ma58c52f46f" x="128.34" y="253.08" style="fill: #808080; stroke: #000000"/>
    </g>
   </g>
   <g id="patch_5">
    <path d="M 253.08 377.82 
C 286.161435 377.82 317.892393 364.676607 341.2845 341.2845 
C 364.676607 317.892393 377.82 286.161435 377.82 253.08 
C 377.82 219.998565 364.676607 188.267607 341.2845 164.8755 
C 317.892393 141.483393 286.161435 128.34 253.08 128.34 
C 219.998565 128.34 188.267607 141.483393 164.8755 164.8755 
C 141.483393 188.267607 128.34 219.998565 128.34 253.08 
C 128.34 286.161435 141.483393 317.892393 164.8755 341.2845 
C 188.267607 364.676607 219.998565 377.82 253.08 377.82 
L 253.08 377.82 
z
" clip-path="url(#p8cd5c59f13)" style="fill: none; stroke-dasharray: 1,1.65; stroke-dashoffset: 0; stroke: #000000; stroke-linejoin: miter"/>
   </g>
   <g id="PathCollection_3">
    <g clip-path="url(#p8cd5c59f13)">
     <use xlink:href="#ma58c52f46f" x="377.82" y="253.08" style="fill: #808080; stroke: #000000"/>
     <use xlink:href="#ma58c52f46f" x="315.45" y="145.051991" style="fill: #808080; stroke: #000000"/>
     <use xlink:href="#ma58c52f46f" x="190.71" y="145.051991" style="fill: #808080; stroke: #000000"/>
     <use xlink:href="#ma58c52f46f" x="128.34" y="253.08" style="fill: #808080; stroke: #000000"/>
     <use xlink:href="#ma58c52f46f" x="190.71" y="361.108009" style="fill: #808080; stroke: #000000"/>
     <use xlink:href="#ma58c52f46f" x="315.45" y="361.108009" style="fill: #808080; stroke: #000000"/>
    </g>
   </g>
   <g id="patch_6">
    <path d="M 253.08 440.19 
C 302.702152 440.19 350.29859 420.47491 385.38675 385.38675 
C 420.47491 350.29859 440.19 302.702152 440.19 253.08 
C 440.19 203.457848 420.47491 155.86141 385.38675 120.77325 
C 350.29859 85.68509 302.702152 65.97 253.08 65.97 
C 203.457848 65.97 155.86141 85.68509 120.77325 120.77325 
C 85.68509 155.86141 65.97 203.457848 65.97 253.08 
C 65.97 302.702152 85.68509 350.29859 120.77325 385.38675 
C 155.86141 420.47491 203.457848 440.19 253.08 440.19 
L 253.08 440.19 
z
" clip-path="url(#p8cd5c59f13)" style="fill: none; stroke-dasharray: 1,1.65; stroke-dashoffset: 0; stroke: #000000; stroke-linejoin: miter"/>
   </g>
   <g id="PathCollection_4">
    <g clip-path="url(#p8cd5c59f13)">
     <use xlink:href="#ma58c52f46f" x="440.19" y="253.08" style="fill: #808080; stroke: #000000"/>
     <use xlink:href="#ma58c52f46f" x="65.97" y="253.08" style="fill: #808080; stroke: #000000"/>
    </g>
   </g>
   <g id="patch_7">
    <path d="M 253.08 440.19 
C 302.702152 440.19 350.29859 420.47491 385.38675 385.38675 
C 420.47491 350.29859 440.19 302.702152 440.19 253.08 
C 440.19 203.457848 420.47491 155.86141 385.38675 120.77325 
C 350.29859 85.68509 302.702152 65.97 253.08 65.97 
C 203.457848 65.97 155.86141 85.68509 120.77325 120.77325 
C 85.68509 155.86141 65.97 203.457848 65.97 253.08 
C 65.97 302.702152 85.68509 350.29859 120.77325 385.38675 
C 155.86141 420.47491 203.457848 440.19 253.08 440.19 
L 253.08 440.19 
z
" clip-path="url(#p8cd5c59f13)" style="fill: none; stroke-dasharray: 1,1.65; stroke-dashoffset: 0; stroke: #000000; stroke-linejoin: miter"/>
   </g>
   <g id="PathCollection_5">
    <defs>
     <path id="m416273755e" d="M 0 5 
C 1.326016 5 2.597899 4.473168 3.535534 3.535534 
C 4.473168 2.597899 5 1.326016 5 0 
C 5 -1.326016 4.473168 -2.597899 3.535534 -3.535534 
C 2.597899 -4.473168 1.326016 -5 0 -5 
C -1.326016 -5 -2.597899 -4.473168 -3.535534 -3.535534 
C -4.473168 -2.597899 -5 -1.326016 -5 0 
C -5 1.326016 -4.473168 2.597899 -3.535534 3.535534 
C -2.597899 4.473168 -1.326016 5 0 5 
z
" style="stroke: #000000"/>
    </defs>
    <g clip-path="url(#p8cd5c59f13)">
     <use xlink:href="#m416273755e" x="440.19" y="253.08" style="fill: #87ceeb; stroke: #000000"/>
     <use xlink:href="#m416273755e" x="159.525" y="91.037987" style="fill: #87ceeb; stroke: #000000"/>
     <use xlink:href="#m416273755e" x="159.525" y="415.122013" style="fill: #87ceeb; stroke: #000000"/>
    </g>
   </g>
   <g id="PathCollection_6"/>
   <g id="matplotlib.axis_1"/>
   <g id="matplotlib.axis_2"/>
   <g id="line2d_1">
    <defs>
     <path id="m129b8e3486" d="M 0 6 
C 1.591219 6 3.117479 5.367802 4.242641 4.242641 
C 5.367802 3.117479 6 1.591219 6 0 
C 6 -1.591219 5.367802 -3.117479 4.242641 -4.242641 
C 3.117479 -5.367802 1.591219 -6 0 -6 
C -1.591219 -6 -3.117479 -5.367802 -4.242641 -4.242641 
C -5.367802 -3.117479 -6 -1.591219 -6 0 
C -6 1.591219 -5.367802 3.117479 -4.242641 4.242641 
C -3.117479 5.367802 -1.591219 6 0 6 
z
" style="stroke: #ff0000"/>
    </defs>
    <g clip-path="url(#p8cd5c59f13)">
     <use xlink:href="#m129b8e3486" x="253.08" y="253.08" style="fill: #ff0000; stroke: #ff0000"/>
    </g>
   </g>
   <g id="patch_8">
    <path d="M 3.6 502.56 
L 3.6 3.6 
" style="fill: none; stroke: #000000; stroke-width: 0.5; stroke-linejoin: miter; stroke-linecap: square"/>
   </g>
   <g id="patch_9">
    <path d="M 502.56 502.56 
L 502.56 3.6 
" style="fill: none; stroke: #000000; stroke-width: 0.5; stroke-linejoin: miter; stroke-linecap: square"/>
   </g>
   <g id="patch_10">
    <path d="M 3.6 502.56 
L 502.56 502.56 
" style="fill: none; stroke: #000000; stroke-width: 0.5; stroke-linejoin: miter; stroke-linecap: square"/>
   </g>
   <g id="patch_11">
    <path d="M 3.6 3.6 
L 502.56 3.6 
" style="fill: none; stroke: #000000; stroke-width: 0.5; stroke-linejoin: miter; stroke-linecap: square"/>
   </g>
   <g id="legend_1">
    <g id="patch_12">
     <path d="M 395.929433 46.649192 
L 494.16 46.649192 
Q 496.56 46.649192 496.56 44.249192 
L 496.56 12 
Q 496.56 9.6 494.16 9.6 
L 395.929433 9.6 
Q 393.529433 9.6 393.529433 12 
L 393.529433 44.249192 
Q 393.529433 46.649192 395.929433 46.649192 
z
" style="fill: #ffffff; opacity: 0.8; stroke: #cccccc; stroke-linejoin: miter"/>
    </g>
    <g id="line2d_2">
     <g>
      <use xlink:href="#m129b8e3486" x="410.329433" y="18.6" style="fill: #ff0000; stroke: #ff0000"/>
     </g>
    </g>
    <g id="text_1">
     <!-- Núcleo -->
     <g transform="translate(431.929433 22.8) scale(0.12 -0.12)">
      <defs>
       <path id="CMR17-4e" d="M 1312 4250 
C 1267 4320 1261 4320 1139 4320 
L 326 4320 
L 326 4160 
L 448 4160 
C 704 4160 819 4129 838 4122 
L 838 610 
C 838 451 838 153 326 153 
L 326 -13 
C 474 0 742 0 902 0 
C 1062 0 1331 0 1478 -13 
L 1478 153 
C 966 153 966 451 966 610 
L 966 4033 
C 1011 3995 1011 3982 1056 3919 
L 3430 76 
C 3475 0 3494 0 3526 0 
C 3590 0 3590 19 3590 139 
L 3590 3705 
C 3590 3863 3590 4160 4102 4160 
L 4102 4326 
C 3955 4320 3686 4320 3526 4320 
C 3366 4320 3098 4320 2950 4326 
L 2950 4160 
C 3462 4160 3462 3862 3462 3703 
L 3462 763 
L 1312 4250 
z
" transform="scale(0.015625)"/>
       <path id="CMR17-13" d="M 2221 4091 
C 2298 4161 2317 4174 2317 4244 
C 2317 4339 2234 4416 2144 4416 
C 2067 4416 2042 4384 1978 4308 
L 1254 3390 
C 1210 3333 1210 3327 1210 3320 
C 1210 3314 1267 3256 1280 3244 
L 2221 4091 
z
" transform="scale(0.015625)"/>
       <path id="CMR17-75" d="M 1882 2693 
L 1882 2528 
C 2259 2528 2317 2489 2317 2186 
L 2317 1032 
C 2317 500 2029 38 1555 38 
C 1030 38 986 348 986 678 
L 986 2763 
L 211 2693 
L 211 2528 
C 467 2528 640 2528 646 2274 
L 646 1058 
C 646 633 646 361 813 183 
C 896 101 1056 -64 1517 -64 
C 2061 -64 2272 377 2323 506 
L 2330 506 
L 2330 -63 
L 3091 -63 
L 3091 128 
C 2714 128 2656 166 2656 473 
L 2656 2763 
L 1882 2693 
z
" transform="scale(0.015625)"/>
       <path id="CMR17-63" d="M 2234 2240 
C 2112 2240 1933 2240 1933 2017 
C 1933 1838 2080 1787 2163 1787 
C 2208 1787 2394 1807 2394 2024 
C 2394 2467 1958 2803 1466 2803 
C 787 2803 211 2178 211 1363 
C 211 516 813 -64 1466 -64 
C 2259 -64 2458 677 2458 748 
C 2458 774 2451 793 2406 793 
C 2362 793 2355 787 2330 703 
C 2163 180 1798 51 1523 51 
C 1114 51 621 427 621 1369 
C 621 2338 1094 2688 1472 2688 
C 1722 2688 2093 2573 2234 2240 
z
" transform="scale(0.015625)"/>
       <path id="CMR17-6c" d="M 979 4396 
L 218 4326 
L 218 4160 
C 595 4160 653 4122 653 3817 
L 653 426 
C 653 184 627 153 218 153 
L 218 -13 
C 371 0 653 0 813 0 
C 979 0 1261 0 1414 -13 
L 1414 153 
C 1005 153 979 178 979 426 
L 979 4396 
z
" transform="scale(0.015625)"/>
       <path id="CMR17-65" d="M 2438 1472 
C 2464 1498 2464 1511 2464 1576 
C 2464 2238 2118 2816 1389 2816 
C 710 2816 173 2169 173 1383 
C 173 551 781 -64 1459 -64 
C 2176 -64 2458 607 2458 740 
C 2458 784 2419 784 2406 784 
C 2362 784 2355 771 2330 696 
C 2189 265 1837 51 1504 51 
C 1229 51 954 203 781 480 
C 582 803 582 1176 582 1472 
L 2438 1472 
z
M 589 1568 
C 634 2505 1126 2714 1382 2714 
C 1818 2714 2112 2297 2118 1568 
L 589 1568 
z
" transform="scale(0.015625)"/>
       <path id="CMR17-6f" d="M 2758 1356 
C 2758 2176 2163 2816 1466 2816 
C 768 2816 173 2176 173 1356 
C 173 551 768 -64 1466 -64 
C 2163 -64 2758 551 2758 1356 
z
M 1466 51 
C 1165 51 909 230 762 480 
C 602 767 582 1126 582 1408 
C 582 1677 595 2010 762 2298 
C 890 2509 1139 2714 1466 2714 
C 1754 2714 1997 2554 2150 2330 
C 2349 2029 2349 1607 2349 1408 
C 2349 1158 2336 775 2163 467 
C 1984 173 1709 51 1466 51 
z
" transform="scale(0.015625)"/>
      </defs>
      <use xlink:href="#CMR17-4e" transform="scale(0.996264)"/>
      <use xlink:href="#CMR17-13" transform="translate(71.674884 0) scale(0.996264)"/>
      <use xlink:href="#CMR17-75" transform="translate(69.07243 0) scale(0.996264)"/>
      <use xlink:href="#CMR17-63" transform="translate(119.9678 0) scale(0.996264)"/>
      <use xlink:href="#CMR17-6c" transform="translate(160.45346 0) scale(0.996264)"/>
      <use xlink:href="#CMR17-65" transform="translate(185.324519 0) scale(0.996264)"/>
      <use xlink:href="#CMR17-6f" transform="translate(225.810179 0) scale(0.996264)"/>
     </g>
    </g>
    <g id="PathCollection_7">
     <g>
      <use xlink:href="#m416273755e" x="410.329433" y="36.374596" style="fill: #87ceeb; stroke: #000000"/>
     </g>
    </g>
    <g id="text_2">
     <!-- Subnível 3p -->
     <g transform="translate(431.929433 39.524596) scale(0.12 -0.12)">
      <defs>
       <path id="CMR17-53" d="M 2803 4290 
C 2803 4404 2797 4411 2758 4411 
C 2720 4411 2707 4385 2682 4328 
L 2490 3907 
C 2246 4257 1875 4416 1472 4416 
C 819 4416 294 3901 294 3253 
C 294 3056 339 2776 557 2510 
C 794 2218 1018 2167 1530 2033 
C 1722 1982 2042 1899 2106 1874 
C 2470 1722 2662 1341 2662 985 
C 2662 527 2336 38 1779 38 
C 1094 38 454 419 410 1311 
C 403 1413 397 1419 352 1419 
C 301 1419 294 1413 294 1285 
L 294 -1 
C 294 -115 301 -122 339 -122 
C 384 -122 397 -90 486 108 
C 493 127 493 140 614 381 
C 934 -39 1472 -128 1779 -128 
C 2477 -128 2970 451 2970 1124 
C 2970 1454 2848 1708 2778 1823 
C 2509 2230 2221 2306 1914 2382 
C 1869 2402 1856 2402 1498 2490 
C 1152 2579 1005 2624 845 2796 
C 666 2992 602 3196 602 3399 
C 602 3812 934 4263 1478 4263 
C 2157 4263 2579 3786 2675 2993 
C 2694 2878 2701 2872 2746 2872 
C 2803 2872 2803 2891 2803 2999 
L 2803 4290 
z
" transform="scale(0.015625)"/>
       <path id="CMR17-62" d="M 960 4396 
L 198 4326 
L 198 4160 
C 576 4160 634 4122 634 3817 
L 634 -13 
L 749 -13 
L 934 441 
C 1120 141 1395 -64 1766 -64 
C 2406 -64 3053 500 3053 1370 
C 3053 2188 2477 2790 1830 2790 
C 1434 2790 1152 2579 960 2330 
L 960 4396 
z
M 973 2004 
C 973 2118 973 2138 1062 2272 
C 1312 2657 1670 2688 1792 2688 
C 1984 2688 2643 2585 2643 1376 
C 2643 108 1888 38 1734 38 
C 1536 38 1248 114 1043 486 
C 973 608 973 621 973 735 
L 973 2004 
z
" transform="scale(0.015625)"/>
       <path id="CMR17-6e" d="M 2656 1933 
C 2656 2259 2592 2790 1837 2790 
C 1331 2790 1069 2400 973 2144 
L 966 2144 
L 966 2790 
L 211 2720 
L 211 2554 
C 589 2554 646 2515 646 2208 
L 646 428 
C 646 184 621 153 211 153 
L 211 -13 
C 365 0 646 0 813 0 
C 979 0 1267 0 1421 -13 
L 1421 153 
C 1011 153 986 178 986 428 
L 986 1658 
C 986 2247 1344 2688 1792 2688 
C 2266 2688 2317 2266 2317 1958 
L 2317 428 
C 2317 184 2291 153 1882 153 
L 1882 -13 
C 2035 0 2317 0 2483 0 
C 2650 0 2938 0 3091 -13 
L 3091 153 
C 2682 153 2656 178 2656 428 
L 2656 1933 
z
" transform="scale(0.015625)"/>
       <path id="CMR17-10" d="M 979 2763 
L 243 2693 
L 243 2528 
C 602 2528 653 2489 653 2186 
L 653 425 
C 653 184 627 153 218 153 
L 218 -13 
C 371 0 646 0 806 0 
C 960 0 1222 0 1370 -13 
L 1370 153 
C 992 153 979 191 979 419 
L 979 2763 
z
" transform="scale(0.015625)"/>
       <path id="CMR17-76" d="M 2502 2163 
C 2560 2304 2662 2560 3034 2560 
L 3034 2726 
C 2912 2726 2752 2726 2630 2726 
C 2496 2726 2285 2726 2157 2732 
L 2157 2566 
C 2317 2553 2406 2477 2406 2311 
C 2406 2253 2406 2240 2368 2151 
L 1664 377 
L 902 2286 
C 864 2369 864 2381 864 2407 
C 864 2560 1075 2560 1171 2560 
L 1171 2732 
C 1018 2726 736 2726 576 2726 
C 403 2726 205 2726 64 2732 
L 64 2560 
C 307 2560 442 2560 518 2362 
L 1446 44 
C 1485 -51 1491 -64 1549 -64 
C 1606 -64 1613 -51 1651 44 
L 2502 2163 
z
" transform="scale(0.015625)"/>
       <path id="CMR17-33" d="M 1414 2157 
C 1984 2157 2234 1662 2234 1090 
C 2234 320 1824 25 1453 25 
C 1114 25 563 194 390 693 
C 422 680 454 680 486 680 
C 640 680 755 782 755 948 
C 755 1133 614 1216 486 1216 
C 378 1216 211 1165 211 926 
C 211 335 787 -128 1466 -128 
C 2176 -128 2720 430 2720 1085 
C 2720 1707 2208 2157 1600 2227 
C 2086 2328 2554 2756 2554 3329 
C 2554 3820 2048 4179 1472 4179 
C 890 4179 378 3829 378 3329 
C 378 3110 544 3072 627 3072 
C 762 3072 877 3155 877 3321 
C 877 3486 762 3569 627 3569 
C 602 3569 570 3569 544 3557 
C 730 3959 1235 4032 1459 4032 
C 1683 4032 2106 3925 2106 3320 
C 2106 3143 2080 2828 1862 2550 
C 1670 2304 1453 2304 1242 2284 
C 1210 2284 1062 2269 1037 2269 
C 992 2263 966 2257 966 2208 
C 966 2163 973 2157 1101 2157 
L 1414 2157 
z
" transform="scale(0.015625)"/>
       <path id="CMR17-70" d="M 1408 -1063 
C 998 -1063 973 -1037 973 -789 
L 973 402 
C 1158 134 1427 -38 1766 -38 
C 2406 -38 3053 523 3053 1388 
C 3053 2191 2496 2802 1837 2802 
C 1453 2802 1139 2592 960 2338 
L 960 2802 
L 198 2732 
L 198 2567 
C 576 2567 634 2528 634 2223 
L 634 -789 
C 634 -1031 608 -1063 198 -1063 
L 198 -1228 
C 352 -1216 634 -1216 800 -1216 
C 966 -1216 1254 -1216 1408 -1228 
L 1408 -1063 
z
M 973 2012 
C 973 2102 973 2235 1222 2471 
C 1254 2497 1472 2688 1792 2688 
C 2259 2688 2643 2108 2643 1382 
C 2643 656 2234 64 1728 64 
C 1498 64 1248 172 1056 472 
C 973 612 973 650 973 752 
L 973 2012 
z
" transform="scale(0.015625)"/>
      </defs>
      <use xlink:href="#CMR17-53" transform="scale(0.996264)"/>
      <use xlink:href="#CMR17-75" transform="translate(50.89537 0) scale(0.996264)"/>
      <use xlink:href="#CMR17-62" transform="translate(101.79074 0) scale(0.996264)"/>
      <use xlink:href="#CMR17-6e" transform="translate(152.686109 0) scale(0.996264)"/>
      <use xlink:href="#CMR17-13" transform="translate(193.17177 0) scale(0.996264)"/>
      <use xlink:href="#CMR17-10" transform="translate(203.581479 0) scale(0.996264)"/>
      <use xlink:href="#CMR17-76" transform="translate(228.452538 0) scale(0.996264)"/>
      <use xlink:href="#CMR17-65" transform="translate(274.143 0) scale(0.996264)"/>
      <use xlink:href="#CMR17-6c" transform="translate(314.62866 0) scale(0.996264)"/>
      <use xlink:href="#CMR17-33" transform="translate(369.575685 0) scale(0.996264)"/>
      <use xlink:href="#CMR17-70" transform="translate(415.266162 0) scale(0.996264)"/>
     </g>
    </g>
   </g>
  </g>
 </g>
 <defs>
  <clipPath id="p8cd5c59f13">
   <rect x="3.6" y="3.6" width="498.96" height="498.96"/>
  </clipPath>
 </defs>
</svg>
