<?xml version="1.0" encoding="utf-8" standalone="no"?>
<!DOCTYPE svg PUBLIC "-//W3C//DTD SVG 1.1//EN"
  "http://www.w3.org/Graphics/SVG/1.1/DTD/svg11.dtd">
<svg xmlns:xlink="http://www.w3.org/1999/xlink" width="1296pt" height="576pt" viewBox="0 0 1296 576" xmlns="http://www.w3.org/2000/svg" version="1.1">
 <metadata>
  <rdf:RDF xmlns:dc="http://purl.org/dc/elements/1.1/" xmlns:cc="http://creativecommons.org/ns#" xmlns:rdf="http://www.w3.org/1999/02/22-rdf-syntax-ns#">
   <cc:Work>
    <dc:type rdf:resource="http://purl.org/dc/dcmitype/StillImage"/>
    <dc:date>2025-07-13T17:16:22.884561</dc:date>
    <dc:format>image/svg+xml</dc:format>
    <dc:creator>
     <cc:Agent>
      <dc:title>Matplotlib v3.9.2, https://matplotlib.org/</dc:title>
     </cc:Agent>
    </dc:creator>
   </cc:Work>
  </rdf:RDF>
 </metadata>
 <defs>
  <style type="text/css">*{stroke-linejoin: round; stroke-linecap: butt}</style>
 </defs>
 <g id="figure_1">
  <g id="patch_1">
   <path d="M 0 576 
L 1296 576 
L 1296 0 
L 0 0 
z
" style="fill: #ffffff"/>
  </g>
  <g id="axes_1">
   <g id="patch_2">
    <path d="M 130.97 512.44 
L 1278.72 512.44 
L 1278.72 39.84 
L 130.97 39.84 
z
" style="fill: #ffffff"/>
   </g>
   <g id="patch_3">
    <path d="M 183.140455 424.653352 
L 190.108128 424.653352 
L 190.108128 457.220917 
L 183.140455 457.220917 
z
" clip-path="url(#p82509d1ef9)" style="fill: #4169e1"/>
   </g>
   <g id="patch_4">
    <path d="M 191.850046 424.653352 
L 198.81772 424.653352 
L 198.81772 460.625815 
L 191.850046 460.625815 
z
" clip-path="url(#p82509d1ef9)" style="fill: #4169e1"/>
   </g>
   <g id="patch_5">
    <path d="M 200.559638 424.653352 
L 207.527311 424.653352 
L 207.527311 463.906239 
L 200.559638 463.906239 
z
" clip-path="url(#p82509d1ef9)" style="fill: #4169e1"/>
   </g>
   <g id="patch_6">
    <path d="M 209.26923 424.653352 
L 216.236903 424.653352 
L 216.236903 467.06219 
L 209.26923 467.06219 
z
" clip-path="url(#p82509d1ef9)" style="fill: #4169e1"/>
   </g>
   <g id="patch_7">
    <path d="M 217.978822 424.653352 
L 224.946495 424.653352 
L 224.946495 470.093666 
L 217.978822 470.093666 
z
" clip-path="url(#p82509d1ef9)" style="fill: #4169e1"/>
   </g>
   <g id="patch_8">
    <path d="M 226.688413 424.653352 
L 233.656087 424.653352 
L 233.656087 473.000668 
L 226.688413 473.000668 
z
" clip-path="url(#p82509d1ef9)" style="fill: #4169e1"/>
   </g>
   <g id="patch_9">
    <path d="M 235.398005 424.653352 
L 242.365678 424.653352 
L 242.365678 475.783196 
L 235.398005 475.783196 
z
" clip-path="url(#p82509d1ef9)" style="fill: #4169e1"/>
   </g>
   <g id="patch_10">
    <path d="M 244.107597 424.653352 
L 251.07527 424.653352 
L 251.07527 478.44125 
L 244.107597 478.44125 
z
" clip-path="url(#p82509d1ef9)" style="fill: #4169e1"/>
   </g>
   <g id="patch_11">
    <path d="M 252.817188 424.653352 
L 259.784862 424.653352 
L 259.784862 480.979276 
L 252.817188 480.979276 
z
" clip-path="url(#p82509d1ef9)" style="fill: #4169e1"/>
   </g>
   <g id="patch_12">
    <path d="M 261.52678 424.653352 
L 268.494454 424.653352 
L 268.494454 483.388382 
L 261.52678 483.388382 
z
" clip-path="url(#p82509d1ef9)" style="fill: #4169e1"/>
   </g>
   <g id="patch_13">
    <path d="M 270.236372 424.653352 
L 277.204045 424.653352 
L 277.204045 485.311506 
L 270.236372 485.311506 
z
" clip-path="url(#p82509d1ef9)" style="fill: #4169e1"/>
   </g>
   <g id="patch_14">
    <path d="M 278.945964 424.653352 
L 285.913637 424.653352 
L 285.913637 487.999256 
L 278.945964 487.999256 
z
" clip-path="url(#p82509d1ef9)" style="fill: #4169e1"/>
   </g>
   <g id="patch_15">
    <path d="M 287.655555 424.653352 
L 294.623229 424.653352 
L 294.623229 488.794112 
L 287.655555 488.794112 
z
" clip-path="url(#p82509d1ef9)" style="fill: #4169e1"/>
   </g>
   <g id="patch_16">
    <path d="M 296.365147 424.653352 
L 303.332821 424.653352 
L 303.332821 489.464493 
L 296.365147 489.464493 
z
" clip-path="url(#p82509d1ef9)" style="fill: #4169e1"/>
   </g>
   <g id="patch_17">
    <path d="M 305.074739 424.653352 
L 312.042412 424.653352 
L 312.042412 490.010401 
L 305.074739 490.010401 
z
" clip-path="url(#p82509d1ef9)" style="fill: #4169e1"/>
   </g>
   <g id="patch_18">
    <path d="M 313.784331 424.653352 
L 320.752004 424.653352 
L 320.752004 490.431834 
L 313.784331 490.431834 
z
" clip-path="url(#p82509d1ef9)" style="fill: #4169e1"/>
   </g>
   <g id="patch_19">
    <path d="M 322.493922 424.653352 
L 329.461596 424.653352 
L 329.461596 490.733239 
L 322.493922 490.733239 
z
" clip-path="url(#p82509d1ef9)" style="fill: #4169e1"/>
   </g>
   <g id="patch_20">
    <path d="M 331.203514 424.653352 
L 338.171188 424.653352 
L 338.171188 490.91017 
L 331.203514 490.91017 
z
" clip-path="url(#p82509d1ef9)" style="fill: #4169e1"/>
   </g>
   <g id="patch_21">
    <path d="M 339.913106 424.653352 
L 346.880779 424.653352 
L 346.880779 490.958182 
L 339.913106 490.958182 
z
" clip-path="url(#p82509d1ef9)" style="fill: #4169e1"/>
   </g>
   <g id="patch_22">
    <path d="M 348.622698 424.653352 
L 355.590371 424.653352 
L 355.590371 490.881719 
L 348.622698 490.881719 
z
" clip-path="url(#p82509d1ef9)" style="fill: #4169e1"/>
   </g>
   <g id="patch_23">
    <path d="M 357.332289 424.653352 
L 364.299963 424.653352 
L 364.299963 490.680783 
L 357.332289 490.680783 
z
" clip-path="url(#p82509d1ef9)" style="fill: #4169e1"/>
   </g>
   <g id="patch_24">
    <path d="M 366.041881 424.653352 
L 373.009555 424.653352 
L 373.009555 490.355372 
L 366.041881 490.355372 
z
" clip-path="url(#p82509d1ef9)" style="fill: #4169e1"/>
   </g>
   <g id="patch_25">
    <path d="M 374.751473 424.653352 
L 381.719146 424.653352 
L 381.719146 489.905487 
L 374.751473 489.905487 
z
" clip-path="url(#p82509d1ef9)" style="fill: #4169e1"/>
   </g>
   <g id="patch_26">
    <path d="M 383.461065 424.653352 
L 390.428738 424.653352 
L 390.428738 490.220229 
L 383.461065 490.220229 
z
" clip-path="url(#p82509d1ef9)" style="fill: #4169e1"/>
   </g>
   <g id="patch_27">
    <path d="M 392.170656 424.653352 
L 399.13833 424.653352 
L 399.13833 489.521396 
L 392.170656 489.521396 
z
" clip-path="url(#p82509d1ef9)" style="fill: #4169e1"/>
   </g>
   <g id="patch_28">
    <path d="M 400.880248 424.653352 
L 407.847922 424.653352 
L 407.847922 488.698089 
L 400.880248 488.698089 
z
" clip-path="url(#p82509d1ef9)" style="fill: #4169e1"/>
   </g>
   <g id="patch_29">
    <path d="M 409.58984 424.653352 
L 416.557513 424.653352 
L 416.557513 487.750308 
L 409.58984 487.750308 
z
" clip-path="url(#p82509d1ef9)" style="fill: #4169e1"/>
   </g>
   <g id="patch_30">
    <path d="M 418.299432 424.653352 
L 425.267105 424.653352 
L 425.267105 486.678053 
L 418.299432 486.678053 
z
" clip-path="url(#p82509d1ef9)" style="fill: #4169e1"/>
   </g>
   <g id="patch_31">
    <path d="M 427.009023 424.653352 
L 433.976697 424.653352 
L 433.976697 485.481324 
L 427.009023 485.481324 
z
" clip-path="url(#p82509d1ef9)" style="fill: #4169e1"/>
   </g>
   <g id="patch_32">
    <path d="M 435.718615 424.653352 
L 442.686289 424.653352 
L 442.686289 484.160121 
L 435.718615 484.160121 
z
" clip-path="url(#p82509d1ef9)" style="fill: #4169e1"/>
   </g>
   <g id="patch_33">
    <path d="M 444.428207 424.653352 
L 451.39588 424.653352 
L 451.39588 482.714444 
L 444.428207 482.714444 
z
" clip-path="url(#p82509d1ef9)" style="fill: #4169e1"/>
   </g>
   <g id="patch_34">
    <path d="M 453.137799 424.653352 
L 460.105472 424.653352 
L 460.105472 481.144293 
L 453.137799 481.144293 
z
" clip-path="url(#p82509d1ef9)" style="fill: #4169e1"/>
   </g>
   <g id="patch_35">
    <path d="M 461.84739 424.653352 
L 468.815064 424.653352 
L 468.815064 479.454114 
L 461.84739 479.454114 
z
" clip-path="url(#p82509d1ef9)" style="fill: #4169e1"/>
   </g>
   <g id="patch_36">
    <path d="M 470.556982 424.653352 
L 477.524655 424.653352 
L 477.524655 477.63946 
L 470.556982 477.63946 
z
" clip-path="url(#p82509d1ef9)" style="fill: #4169e1"/>
   </g>
   <g id="patch_37">
    <path d="M 479.266574 424.653352 
L 486.234247 424.653352 
L 486.234247 475.700332 
L 479.266574 475.700332 
z
" clip-path="url(#p82509d1ef9)" style="fill: #4169e1"/>
   </g>
   <g id="patch_38">
    <path d="M 487.976166 424.653352 
L 494.943839 424.653352 
L 494.943839 474.525831 
L 487.976166 474.525831 
z
" clip-path="url(#p82509d1ef9)" style="fill: #4169e1"/>
   </g>
   <g id="patch_39">
    <path d="M 496.685757 424.653352 
L 503.653431 424.653352 
L 503.653431 472.33331 
L 496.685757 472.33331 
z
" clip-path="url(#p82509d1ef9)" style="fill: #4169e1"/>
   </g>
   <g id="patch_40">
    <path d="M 505.395349 424.653352 
L 512.363022 424.653352 
L 512.363022 470.016314 
L 505.395349 470.016314 
z
" clip-path="url(#p82509d1ef9)" style="fill: #4169e1"/>
   </g>
   <g id="patch_41">
    <path d="M 514.104941 424.653352 
L 521.072614 424.653352 
L 521.072614 467.574845 
L 514.104941 467.574845 
z
" clip-path="url(#p82509d1ef9)" style="fill: #4169e1"/>
   </g>
   <g id="patch_42">
    <path d="M 522.814533 424.653352 
L 529.782206 424.653352 
L 529.782206 465.008902 
L 522.814533 465.008902 
z
" clip-path="url(#p82509d1ef9)" style="fill: #4169e1"/>
   </g>
   <g id="patch_43">
    <path d="M 531.524124 424.653352 
L 538.491798 424.653352 
L 538.491798 462.318484 
L 531.524124 462.318484 
z
" clip-path="url(#p82509d1ef9)" style="fill: #4169e1"/>
   </g>
   <g id="patch_44">
    <path d="M 540.233716 424.653352 
L 547.201389 424.653352 
L 547.201389 459.503593 
L 540.233716 459.503593 
z
" clip-path="url(#p82509d1ef9)" style="fill: #4169e1"/>
   </g>
   <g id="patch_45">
    <path d="M 548.943308 424.653352 
L 555.910981 424.653352 
L 555.910981 456.564227 
L 548.943308 456.564227 
z
" clip-path="url(#p82509d1ef9)" style="fill: #4169e1"/>
   </g>
   <g id="patch_46">
    <path d="M 557.6529 424.653352 
L 564.620573 424.653352 
L 564.620573 453.500388 
L 557.6529 453.500388 
z
" clip-path="url(#p82509d1ef9)" style="fill: #4169e1"/>
   </g>
   <g id="patch_47">
    <path d="M 566.362491 424.653352 
L 573.330165 424.653352 
L 573.330165 450.312074 
L 566.362491 450.312074 
z
" clip-path="url(#p82509d1ef9)" style="fill: #4169e1"/>
   </g>
   <g id="patch_48">
    <path d="M 575.072083 424.653352 
L 582.039756 424.653352 
L 582.039756 446.999287 
L 575.072083 446.999287 
z
" clip-path="url(#p82509d1ef9)" style="fill: #4169e1"/>
   </g>
   <g id="patch_49">
    <path d="M 583.781675 424.653352 
L 590.749348 424.653352 
L 590.749348 443.562025 
L 583.781675 443.562025 
z
" clip-path="url(#p82509d1ef9)" style="fill: #4169e1"/>
   </g>
   <g id="patch_50">
    <path d="M 592.491267 424.653352 
L 599.45894 424.653352 
L 599.45894 440.88939 
L 592.491267 440.88939 
z
" clip-path="url(#p82509d1ef9)" style="fill: #4169e1"/>
   </g>
   <g id="patch_51">
    <path d="M 601.200858 424.653352 
L 608.168532 424.653352 
L 608.168532 437.20318 
L 601.200858 437.20318 
z
" clip-path="url(#p82509d1ef9)" style="fill: #4169e1"/>
   </g>
   <g id="patch_52">
    <path d="M 609.91045 424.653352 
L 616.878123 424.653352 
L 616.878123 433.392496 
L 609.91045 433.392496 
z
" clip-path="url(#p82509d1ef9)" style="fill: #4169e1"/>
   </g>
   <g id="patch_53">
    <path d="M 618.620042 424.653352 
L 625.587715 424.653352 
L 625.587715 429.457338 
L 618.620042 429.457338 
z
" clip-path="url(#p82509d1ef9)" style="fill: #4169e1"/>
   </g>
   <g id="patch_54">
    <path d="M 627.329633 424.653352 
L 634.297307 424.653352 
L 634.297307 425.397707 
L 627.329633 425.397707 
z
" clip-path="url(#p82509d1ef9)" style="fill: #4169e1"/>
   </g>
   <g id="patch_55">
    <path d="M 636.039225 424.653352 
L 643.006899 424.653352 
L 643.006899 421.213601 
L 636.039225 421.213601 
z
" clip-path="url(#p82509d1ef9)" style="fill: #4169e1"/>
   </g>
   <g id="patch_56">
    <path d="M 644.748817 424.653352 
L 651.71649 424.653352 
L 651.71649 416.905021 
L 644.748817 416.905021 
z
" clip-path="url(#p82509d1ef9)" style="fill: #4169e1"/>
   </g>
   <g id="patch_57">
    <path d="M 653.458409 424.653352 
L 660.426082 424.653352 
L 660.426082 412.471967 
L 653.458409 412.471967 
z
" clip-path="url(#p82509d1ef9)" style="fill: #4169e1"/>
   </g>
   <g id="patch_58">
    <path d="M 662.168 424.653352 
L 669.135674 424.653352 
L 669.135674 407.914439 
L 662.168 407.914439 
z
" clip-path="url(#p82509d1ef9)" style="fill: #4169e1"/>
   </g>
   <g id="patch_59">
    <path d="M 670.877592 424.653352 
L 677.845266 424.653352 
L 677.845266 403.232437 
L 670.877592 403.232437 
z
" clip-path="url(#p82509d1ef9)" style="fill: #4169e1"/>
   </g>
   <g id="patch_60">
    <path d="M 679.587184 424.653352 
L 686.554857 424.653352 
L 686.554857 398.425961 
L 679.587184 398.425961 
z
" clip-path="url(#p82509d1ef9)" style="fill: #4169e1"/>
   </g>
   <g id="patch_61">
    <path d="M 688.296776 424.653352 
L 695.264449 424.653352 
L 695.264449 393.495011 
L 688.296776 393.495011 
z
" clip-path="url(#p82509d1ef9)" style="fill: #4169e1"/>
   </g>
   <g id="patch_62">
    <path d="M 697.006367 424.653352 
L 703.974041 424.653352 
L 703.974041 389.328687 
L 697.006367 389.328687 
z
" clip-path="url(#p82509d1ef9)" style="fill: #4169e1"/>
   </g>
   <g id="patch_63">
    <path d="M 705.715959 424.653352 
L 712.683633 424.653352 
L 712.683633 384.148789 
L 705.715959 384.148789 
z
" clip-path="url(#p82509d1ef9)" style="fill: #4169e1"/>
   </g>
   <g id="patch_64">
    <path d="M 714.425551 424.653352 
L 721.393224 424.653352 
L 721.393224 378.844417 
L 714.425551 378.844417 
z
" clip-path="url(#p82509d1ef9)" style="fill: #4169e1"/>
   </g>
   <g id="patch_65">
    <path d="M 723.135143 424.653352 
L 730.102816 424.653352 
L 730.102816 373.415571 
L 723.135143 373.415571 
z
" clip-path="url(#p82509d1ef9)" style="fill: #4169e1"/>
   </g>
   <g id="patch_66">
    <path d="M 731.844734 424.653352 
L 738.812408 424.653352 
L 738.812408 367.86225 
L 731.844734 367.86225 
z
" clip-path="url(#p82509d1ef9)" style="fill: #4169e1"/>
   </g>
   <g id="patch_67">
    <path d="M 740.554326 424.653352 
L 747.522 424.653352 
L 747.522 362.30893 
L 740.554326 362.30893 
z
" clip-path="url(#p82509d1ef9)" style="fill: #4169e1"/>
   </g>
   <g id="patch_68">
    <path d="M 749.263918 424.653352 
L 756.231591 424.653352 
L 756.231591 356.75561 
L 749.263918 356.75561 
z
" clip-path="url(#p82509d1ef9)" style="fill: #4169e1"/>
   </g>
   <g id="patch_69">
    <path d="M 757.97351 424.653352 
L 764.941183 424.653352 
L 764.941183 351.20229 
L 757.97351 351.20229 
z
" clip-path="url(#p82509d1ef9)" style="fill: #4169e1"/>
   </g>
   <g id="patch_70">
    <path d="M 766.683101 424.653352 
L 773.650775 424.653352 
L 773.650775 345.648969 
L 766.683101 345.648969 
z
" clip-path="url(#p82509d1ef9)" style="fill: #4169e1"/>
   </g>
   <g id="patch_71">
    <path d="M 775.392693 424.653352 
L 782.360367 424.653352 
L 782.360367 340.095649 
L 775.392693 340.095649 
z
" clip-path="url(#p82509d1ef9)" style="fill: #4169e1"/>
   </g>
   <g id="patch_72">
    <path d="M 784.102285 424.653352 
L 791.069958 424.653352 
L 791.069958 334.542329 
L 784.102285 334.542329 
z
" clip-path="url(#p82509d1ef9)" style="fill: #4169e1"/>
   </g>
   <g id="patch_73">
    <path d="M 792.811877 424.653352 
L 799.77955 424.653352 
L 799.77955 328.989009 
L 792.811877 328.989009 
z
" clip-path="url(#p82509d1ef9)" style="fill: #4169e1"/>
   </g>
   <g id="patch_74">
    <path d="M 801.521468 424.653352 
L 808.489142 424.653352 
L 808.489142 324.324789 
L 801.521468 324.324789 
z
" clip-path="url(#p82509d1ef9)" style="fill: #4169e1"/>
   </g>
   <g id="patch_75">
    <path d="M 810.23106 424.653352 
L 817.198733 424.653352 
L 817.198733 318.771469 
L 810.23106 318.771469 
z
" clip-path="url(#p82509d1ef9)" style="fill: #4169e1"/>
   </g>
   <g id="patch_76">
    <path d="M 818.940652 424.653352 
L 825.908325 424.653352 
L 825.908325 313.218148 
L 818.940652 313.218148 
z
" clip-path="url(#p82509d1ef9)" style="fill: #4169e1"/>
   </g>
   <g id="patch_77">
    <path d="M 827.650244 424.653352 
L 834.617917 424.653352 
L 834.617917 307.664828 
L 827.650244 307.664828 
z
" clip-path="url(#p82509d1ef9)" style="fill: #4169e1"/>
   </g>
   <g id="patch_78">
    <path d="M 836.359835 424.653352 
L 843.327509 424.653352 
L 843.327509 302.111508 
L 836.359835 302.111508 
z
" clip-path="url(#p82509d1ef9)" style="fill: #4169e1"/>
   </g>
   <g id="patch_79">
    <path d="M 845.069427 424.653352 
L 852.0371 424.653352 
L 852.0371 296.558188 
L 845.069427 296.558188 
z
" clip-path="url(#p82509d1ef9)" style="fill: #4169e1"/>
   </g>
   <g id="patch_80">
    <path d="M 853.779019 424.653352 
L 860.746692 424.653352 
L 860.746692 291.004867 
L 853.779019 291.004867 
z
" clip-path="url(#p82509d1ef9)" style="fill: #4169e1"/>
   </g>
   <g id="patch_81">
    <path d="M 862.488611 424.653352 
L 869.456284 424.653352 
L 869.456284 285.451547 
L 862.488611 285.451547 
z
" clip-path="url(#p82509d1ef9)" style="fill: #4169e1"/>
   </g>
   <g id="patch_82">
    <path d="M 871.198202 424.653352 
L 878.165876 424.653352 
L 878.165876 279.898227 
L 871.198202 279.898227 
z
" clip-path="url(#p82509d1ef9)" style="fill: #4169e1"/>
   </g>
   <g id="patch_83">
    <path d="M 879.907794 424.653352 
L 886.875467 424.653352 
L 886.875467 274.344907 
L 879.907794 274.344907 
z
" clip-path="url(#p82509d1ef9)" style="fill: #4169e1"/>
   </g>
   <g id="patch_84">
    <path d="M 888.617386 424.653352 
L 895.585059 424.653352 
L 895.585059 268.791586 
L 888.617386 268.791586 
z
" clip-path="url(#p82509d1ef9)" style="fill: #4169e1"/>
   </g>
   <g id="patch_85">
    <path d="M 897.326978 424.653352 
L 904.294651 424.653352 
L 904.294651 263.238266 
L 897.326978 263.238266 
z
" clip-path="url(#p82509d1ef9)" style="fill: #4169e1"/>
   </g>
   <g id="patch_86">
    <path d="M 906.036569 424.653352 
L 913.004243 424.653352 
L 913.004243 258.574046 
L 906.036569 258.574046 
z
" clip-path="url(#p82509d1ef9)" style="fill: #4169e1"/>
   </g>
   <g id="patch_87">
    <path d="M 914.746161 424.653352 
L 921.713834 424.653352 
L 921.713834 253.020726 
L 914.746161 253.020726 
z
" clip-path="url(#p82509d1ef9)" style="fill: #4169e1"/>
   </g>
   <g id="patch_88">
    <path d="M 923.455753 424.653352 
L 930.423426 424.653352 
L 930.423426 247.467406 
L 923.455753 247.467406 
z
" clip-path="url(#p82509d1ef9)" style="fill: #4169e1"/>
   </g>
   <g id="patch_89">
    <path d="M 932.165345 424.653352 
L 939.133018 424.653352 
L 939.133018 241.914085 
L 932.165345 241.914085 
z
" clip-path="url(#p82509d1ef9)" style="fill: #4169e1"/>
   </g>
   <g id="patch_90">
    <path d="M 940.874936 424.653352 
L 947.84261 424.653352 
L 947.84261 236.360765 
L 940.874936 236.360765 
z
" clip-path="url(#p82509d1ef9)" style="fill: #4169e1"/>
   </g>
   <g id="patch_91">
    <path d="M 949.584528 424.653352 
L 956.552201 424.653352 
L 956.552201 230.807445 
L 949.584528 230.807445 
z
" clip-path="url(#p82509d1ef9)" style="fill: #4169e1"/>
   </g>
   <g id="patch_92">
    <path d="M 958.29412 424.653352 
L 965.261793 424.653352 
L 965.261793 225.254125 
L 958.29412 225.254125 
z
" clip-path="url(#p82509d1ef9)" style="fill: #4169e1"/>
   </g>
   <g id="patch_93">
    <path d="M 967.003711 424.653352 
L 973.971385 424.653352 
L 973.971385 219.700804 
L 967.003711 219.700804 
z
" clip-path="url(#p82509d1ef9)" style="fill: #4169e1"/>
   </g>
   <g id="patch_94">
    <path d="M 975.713303 424.653352 
L 982.680977 424.653352 
L 982.680977 214.147484 
L 975.713303 214.147484 
z
" clip-path="url(#p82509d1ef9)" style="fill: #4169e1"/>
   </g>
   <g id="patch_95">
    <path d="M 984.422895 424.653352 
L 991.390568 424.653352 
L 991.390568 208.594164 
L 984.422895 208.594164 
z
" clip-path="url(#p82509d1ef9)" style="fill: #4169e1"/>
   </g>
   <g id="patch_96">
    <path d="M 993.132487 424.653352 
L 1000.10016 424.653352 
L 1000.10016 203.040844 
L 993.132487 203.040844 
z
" clip-path="url(#p82509d1ef9)" style="fill: #4169e1"/>
   </g>
   <g id="patch_97">
    <path d="M 1001.842078 424.653352 
L 1008.809752 424.653352 
L 1008.809752 197.487523 
L 1001.842078 197.487523 
z
" clip-path="url(#p82509d1ef9)" style="fill: #4169e1"/>
   </g>
   <g id="patch_98">
    <path d="M 1010.55167 424.653352 
L 1017.519344 424.653352 
L 1017.519344 192.823303 
L 1010.55167 192.823303 
z
" clip-path="url(#p82509d1ef9)" style="fill: #4169e1"/>
   </g>
   <g id="patch_99">
    <path d="M 1019.261262 424.653352 
L 1026.228935 424.653352 
L 1026.228935 187.269983 
L 1019.261262 187.269983 
z
" clip-path="url(#p82509d1ef9)" style="fill: #4169e1"/>
   </g>
   <g id="patch_100">
    <path d="M 1027.970854 424.653352 
L 1034.938527 424.653352 
L 1034.938527 181.716663 
L 1027.970854 181.716663 
z
" clip-path="url(#p82509d1ef9)" style="fill: #4169e1"/>
   </g>
   <g id="patch_101">
    <path d="M 1036.680445 424.653352 
L 1043.648119 424.653352 
L 1043.648119 176.163343 
L 1036.680445 176.163343 
z
" clip-path="url(#p82509d1ef9)" style="fill: #4169e1"/>
   </g>
   <g id="patch_102">
    <path d="M 1045.390037 424.653352 
L 1052.357711 424.653352 
L 1052.357711 170.610022 
L 1045.390037 170.610022 
z
" clip-path="url(#p82509d1ef9)" style="fill: #4169e1"/>
   </g>
   <g id="patch_103">
    <path d="M 1054.099629 424.653352 
L 1061.067302 424.653352 
L 1061.067302 165.056702 
L 1054.099629 165.056702 
z
" clip-path="url(#p82509d1ef9)" style="fill: #4169e1"/>
   </g>
   <g id="patch_104">
    <path d="M 1062.809221 424.653352 
L 1069.776894 424.653352 
L 1069.776894 159.503382 
L 1062.809221 159.503382 
z
" clip-path="url(#p82509d1ef9)" style="fill: #4169e1"/>
   </g>
   <g id="patch_105">
    <path d="M 1071.518812 424.653352 
L 1078.486486 424.653352 
L 1078.486486 153.950062 
L 1071.518812 153.950062 
z
" clip-path="url(#p82509d1ef9)" style="fill: #4169e1"/>
   </g>
   <g id="patch_106">
    <path d="M 1080.228404 424.653352 
L 1087.196078 424.653352 
L 1087.196078 148.396742 
L 1080.228404 148.396742 
z
" clip-path="url(#p82509d1ef9)" style="fill: #4169e1"/>
   </g>
   <g id="patch_107">
    <path d="M 1088.937996 424.653352 
L 1095.905669 424.653352 
L 1095.905669 142.843421 
L 1088.937996 142.843421 
z
" clip-path="url(#p82509d1ef9)" style="fill: #4169e1"/>
   </g>
   <g id="patch_108">
    <path d="M 1097.647588 424.653352 
L 1104.615261 424.653352 
L 1104.615261 137.290101 
L 1097.647588 137.290101 
z
" clip-path="url(#p82509d1ef9)" style="fill: #4169e1"/>
   </g>
   <g id="patch_109">
    <path d="M 1106.357179 424.653352 
L 1113.324853 424.653352 
L 1113.324853 131.736781 
L 1106.357179 131.736781 
z
" clip-path="url(#p82509d1ef9)" style="fill: #4169e1"/>
   </g>
   <g id="patch_110">
    <path d="M 1115.066771 424.653352 
L 1122.034445 424.653352 
L 1122.034445 127.072561 
L 1115.066771 127.072561 
z
" clip-path="url(#p82509d1ef9)" style="fill: #4169e1"/>
   </g>
   <g id="patch_111">
    <path d="M 1123.776363 424.653352 
L 1130.744036 424.653352 
L 1130.744036 121.519241 
L 1123.776363 121.519241 
z
" clip-path="url(#p82509d1ef9)" style="fill: #4169e1"/>
   </g>
   <g id="patch_112">
    <path d="M 1132.485955 424.653352 
L 1139.453628 424.653352 
L 1139.453628 115.96592 
L 1132.485955 115.96592 
z
" clip-path="url(#p82509d1ef9)" style="fill: #4169e1"/>
   </g>
   <g id="patch_113">
    <path d="M 1141.195546 424.653352 
L 1148.16322 424.653352 
L 1148.16322 110.4126 
L 1141.195546 110.4126 
z
" clip-path="url(#p82509d1ef9)" style="fill: #4169e1"/>
   </g>
   <g id="patch_114">
    <path d="M 1149.905138 424.653352 
L 1156.872812 424.653352 
L 1156.872812 104.85928 
L 1149.905138 104.85928 
z
" clip-path="url(#p82509d1ef9)" style="fill: #4169e1"/>
   </g>
   <g id="patch_115">
    <path d="M 1158.61473 424.653352 
L 1165.582403 424.653352 
L 1165.582403 99.30596 
L 1158.61473 99.30596 
z
" clip-path="url(#p82509d1ef9)" style="fill: #4169e1"/>
   </g>
   <g id="patch_116">
    <path d="M 1167.324322 424.653352 
L 1174.291995 424.653352 
L 1174.291995 93.752639 
L 1167.324322 93.752639 
z
" clip-path="url(#p82509d1ef9)" style="fill: #4169e1"/>
   </g>
   <g id="patch_117">
    <path d="M 1176.033913 424.653352 
L 1183.001587 424.653352 
L 1183.001587 88.199319 
L 1176.033913 88.199319 
z
" clip-path="url(#p82509d1ef9)" style="fill: #4169e1"/>
   </g>
   <g id="patch_118">
    <path d="M 1184.743505 424.653352 
L 1191.711178 424.653352 
L 1191.711178 82.645999 
L 1184.743505 82.645999 
z
" clip-path="url(#p82509d1ef9)" style="fill: #4169e1"/>
   </g>
   <g id="patch_119">
    <path d="M 1193.453097 424.653352 
L 1200.42077 424.653352 
L 1200.42077 77.092679 
L 1193.453097 77.092679 
z
" clip-path="url(#p82509d1ef9)" style="fill: #4169e1"/>
   </g>
   <g id="patch_120">
    <path d="M 1202.162689 424.653352 
L 1209.130362 424.653352 
L 1209.130362 71.539358 
L 1202.162689 71.539358 
z
" clip-path="url(#p82509d1ef9)" style="fill: #4169e1"/>
   </g>
   <g id="patch_121">
    <path d="M 1210.87228 424.653352 
L 1217.839954 424.653352 
L 1217.839954 65.986038 
L 1210.87228 65.986038 
z
" clip-path="url(#p82509d1ef9)" style="fill: #4169e1"/>
   </g>
   <g id="patch_122">
    <path d="M 1219.581872 424.653352 
L 1226.549545 424.653352 
L 1226.549545 61.321818 
L 1219.581872 61.321818 
z
" clip-path="url(#p82509d1ef9)" style="fill: #4169e1"/>
   </g>
   <g id="matplotlib.axis_1">
    <g id="xtick_1">
     <g id="line2d_1">
      <path d="M 177.914699 512.44 
L 177.914699 39.84 
" clip-path="url(#p82509d1ef9)" style="fill: none; stroke-dasharray: 2.96,1.28; stroke-dashoffset: 0; stroke: #b0b0b0; stroke-opacity: 0.5; stroke-width: 0.8"/>
     </g>
     <g id="line2d_2">
      <defs>
       <path id="mbfa8797366" d="M 0 0 
L 0 3.5 
" style="stroke: #000000; stroke-width: 0.8"/>
      </defs>
      <g>
       <use xlink:href="#mbfa8797366" x="177.914699" y="512.44" style="stroke: #000000; stroke-width: 0.8"/>
      </g>
     </g>
     <g id="text_1">
      <!-- 0 -->
      <g transform="translate(172.824699 531.5975) scale(0.16 -0.16)">
       <defs>
        <path id="DejaVuSans-30" d="M 2034 4250 
Q 1547 4250 1301 3770 
Q 1056 3291 1056 2328 
Q 1056 1369 1301 889 
Q 1547 409 2034 409 
Q 2525 409 2770 889 
Q 3016 1369 3016 2328 
Q 3016 3291 2770 3770 
Q 2525 4250 2034 4250 
z
M 2034 4750 
Q 2819 4750 3233 4129 
Q 3647 3509 3647 2328 
Q 3647 1150 3233 529 
Q 2819 -91 2034 -91 
Q 1250 -91 836 529 
Q 422 1150 422 2328 
Q 422 3509 836 4129 
Q 1250 4750 2034 4750 
z
" transform="scale(0.015625)"/>
       </defs>
       <use xlink:href="#DejaVuSans-30"/>
      </g>
     </g>
    </g>
    <g id="xtick_2">
     <g id="line2d_3">
      <path d="M 352.106534 512.44 
L 352.106534 39.84 
" clip-path="url(#p82509d1ef9)" style="fill: none; stroke-dasharray: 2.96,1.28; stroke-dashoffset: 0; stroke: #b0b0b0; stroke-opacity: 0.5; stroke-width: 0.8"/>
     </g>
     <g id="line2d_4">
      <g>
       <use xlink:href="#mbfa8797366" x="352.106534" y="512.44" style="stroke: #000000; stroke-width: 0.8"/>
      </g>
     </g>
     <g id="text_2">
      <!-- 20 -->
      <g transform="translate(341.926534 531.5975) scale(0.16 -0.16)">
       <defs>
        <path id="DejaVuSans-32" d="M 1228 531 
L 3431 531 
L 3431 0 
L 469 0 
L 469 531 
Q 828 903 1448 1529 
Q 2069 2156 2228 2338 
Q 2531 2678 2651 2914 
Q 2772 3150 2772 3378 
Q 2772 3750 2511 3984 
Q 2250 4219 1831 4219 
Q 1534 4219 1204 4116 
Q 875 4013 500 3803 
L 500 4441 
Q 881 4594 1212 4672 
Q 1544 4750 1819 4750 
Q 2544 4750 2975 4387 
Q 3406 4025 3406 3419 
Q 3406 3131 3298 2873 
Q 3191 2616 2906 2266 
Q 2828 2175 2409 1742 
Q 1991 1309 1228 531 
z
" transform="scale(0.015625)"/>
       </defs>
       <use xlink:href="#DejaVuSans-32"/>
       <use xlink:href="#DejaVuSans-30" x="63.623047"/>
      </g>
     </g>
    </g>
    <g id="xtick_3">
     <g id="line2d_5">
      <path d="M 526.298369 512.44 
L 526.298369 39.84 
" clip-path="url(#p82509d1ef9)" style="fill: none; stroke-dasharray: 2.96,1.28; stroke-dashoffset: 0; stroke: #b0b0b0; stroke-opacity: 0.5; stroke-width: 0.8"/>
     </g>
     <g id="line2d_6">
      <g>
       <use xlink:href="#mbfa8797366" x="526.298369" y="512.44" style="stroke: #000000; stroke-width: 0.8"/>
      </g>
     </g>
     <g id="text_3">
      <!-- 40 -->
      <g transform="translate(516.118369 531.5975) scale(0.16 -0.16)">
       <defs>
        <path id="DejaVuSans-34" d="M 2419 4116 
L 825 1625 
L 2419 1625 
L 2419 4116 
z
M 2253 4666 
L 3047 4666 
L 3047 1625 
L 3713 1625 
L 3713 1100 
L 3047 1100 
L 3047 0 
L 2419 0 
L 2419 1100 
L 313 1100 
L 313 1709 
L 2253 4666 
z
" transform="scale(0.015625)"/>
       </defs>
       <use xlink:href="#DejaVuSans-34"/>
       <use xlink:href="#DejaVuSans-30" x="63.623047"/>
      </g>
     </g>
    </g>
    <g id="xtick_4">
     <g id="line2d_7">
      <path d="M 700.490204 512.44 
L 700.490204 39.84 
" clip-path="url(#p82509d1ef9)" style="fill: none; stroke-dasharray: 2.96,1.28; stroke-dashoffset: 0; stroke: #b0b0b0; stroke-opacity: 0.5; stroke-width: 0.8"/>
     </g>
     <g id="line2d_8">
      <g>
       <use xlink:href="#mbfa8797366" x="700.490204" y="512.44" style="stroke: #000000; stroke-width: 0.8"/>
      </g>
     </g>
     <g id="text_4">
      <!-- 60 -->
      <g transform="translate(690.310204 531.5975) scale(0.16 -0.16)">
       <defs>
        <path id="DejaVuSans-36" d="M 2113 2584 
Q 1688 2584 1439 2293 
Q 1191 2003 1191 1497 
Q 1191 994 1439 701 
Q 1688 409 2113 409 
Q 2538 409 2786 701 
Q 3034 994 3034 1497 
Q 3034 2003 2786 2293 
Q 2538 2584 2113 2584 
z
M 3366 4563 
L 3366 3988 
Q 3128 4100 2886 4159 
Q 2644 4219 2406 4219 
Q 1781 4219 1451 3797 
Q 1122 3375 1075 2522 
Q 1259 2794 1537 2939 
Q 1816 3084 2150 3084 
Q 2853 3084 3261 2657 
Q 3669 2231 3669 1497 
Q 3669 778 3244 343 
Q 2819 -91 2113 -91 
Q 1303 -91 875 529 
Q 447 1150 447 2328 
Q 447 3434 972 4092 
Q 1497 4750 2381 4750 
Q 2619 4750 2861 4703 
Q 3103 4656 3366 4563 
z
" transform="scale(0.015625)"/>
       </defs>
       <use xlink:href="#DejaVuSans-36"/>
       <use xlink:href="#DejaVuSans-30" x="63.623047"/>
      </g>
     </g>
    </g>
    <g id="xtick_5">
     <g id="line2d_9">
      <path d="M 874.682039 512.44 
L 874.682039 39.84 
" clip-path="url(#p82509d1ef9)" style="fill: none; stroke-dasharray: 2.96,1.28; stroke-dashoffset: 0; stroke: #b0b0b0; stroke-opacity: 0.5; stroke-width: 0.8"/>
     </g>
     <g id="line2d_10">
      <g>
       <use xlink:href="#mbfa8797366" x="874.682039" y="512.44" style="stroke: #000000; stroke-width: 0.8"/>
      </g>
     </g>
     <g id="text_5">
      <!-- 80 -->
      <g transform="translate(864.502039 531.5975) scale(0.16 -0.16)">
       <defs>
        <path id="DejaVuSans-38" d="M 2034 2216 
Q 1584 2216 1326 1975 
Q 1069 1734 1069 1313 
Q 1069 891 1326 650 
Q 1584 409 2034 409 
Q 2484 409 2743 651 
Q 3003 894 3003 1313 
Q 3003 1734 2745 1975 
Q 2488 2216 2034 2216 
z
M 1403 2484 
Q 997 2584 770 2862 
Q 544 3141 544 3541 
Q 544 4100 942 4425 
Q 1341 4750 2034 4750 
Q 2731 4750 3128 4425 
Q 3525 4100 3525 3541 
Q 3525 3141 3298 2862 
Q 3072 2584 2669 2484 
Q 3125 2378 3379 2068 
Q 3634 1759 3634 1313 
Q 3634 634 3220 271 
Q 2806 -91 2034 -91 
Q 1263 -91 848 271 
Q 434 634 434 1313 
Q 434 1759 690 2068 
Q 947 2378 1403 2484 
z
M 1172 3481 
Q 1172 3119 1398 2916 
Q 1625 2713 2034 2713 
Q 2441 2713 2670 2916 
Q 2900 3119 2900 3481 
Q 2900 3844 2670 4047 
Q 2441 4250 2034 4250 
Q 1625 4250 1398 4047 
Q 1172 3844 1172 3481 
z
" transform="scale(0.015625)"/>
       </defs>
       <use xlink:href="#DejaVuSans-38"/>
       <use xlink:href="#DejaVuSans-30" x="63.623047"/>
      </g>
     </g>
    </g>
    <g id="xtick_6">
     <g id="line2d_11">
      <path d="M 1048.873874 512.44 
L 1048.873874 39.84 
" clip-path="url(#p82509d1ef9)" style="fill: none; stroke-dasharray: 2.96,1.28; stroke-dashoffset: 0; stroke: #b0b0b0; stroke-opacity: 0.5; stroke-width: 0.8"/>
     </g>
     <g id="line2d_12">
      <g>
       <use xlink:href="#mbfa8797366" x="1048.873874" y="512.44" style="stroke: #000000; stroke-width: 0.8"/>
      </g>
     </g>
     <g id="text_6">
      <!-- 100 -->
      <g transform="translate(1033.603874 531.5975) scale(0.16 -0.16)">
       <defs>
        <path id="DejaVuSans-31" d="M 794 531 
L 1825 531 
L 1825 4091 
L 703 3866 
L 703 4441 
L 1819 4666 
L 2450 4666 
L 2450 531 
L 3481 531 
L 3481 0 
L 794 0 
L 794 531 
z
" transform="scale(0.015625)"/>
       </defs>
       <use xlink:href="#DejaVuSans-31"/>
       <use xlink:href="#DejaVuSans-30" x="63.623047"/>
       <use xlink:href="#DejaVuSans-30" x="127.246094"/>
      </g>
     </g>
    </g>
    <g id="xtick_7">
     <g id="line2d_13">
      <path d="M 1223.065709 512.44 
L 1223.065709 39.84 
" clip-path="url(#p82509d1ef9)" style="fill: none; stroke-dasharray: 2.96,1.28; stroke-dashoffset: 0; stroke: #b0b0b0; stroke-opacity: 0.5; stroke-width: 0.8"/>
     </g>
     <g id="line2d_14">
      <g>
       <use xlink:href="#mbfa8797366" x="1223.065709" y="512.44" style="stroke: #000000; stroke-width: 0.8"/>
      </g>
     </g>
     <g id="text_7">
      <!-- 120 -->
      <g transform="translate(1207.795709 531.5975) scale(0.16 -0.16)">
       <use xlink:href="#DejaVuSans-31"/>
       <use xlink:href="#DejaVuSans-32" x="63.623047"/>
       <use xlink:href="#DejaVuSans-30" x="127.246094"/>
      </g>
     </g>
    </g>
    <g id="text_8">
     <!-- Meses -->
     <g transform="translate(670.356562 555.641562) scale(0.22 -0.22)">
      <defs>
       <path id="DejaVuSans-4d" d="M 628 4666 
L 1569 4666 
L 2759 1491 
L 3956 4666 
L 4897 4666 
L 4897 0 
L 4281 0 
L 4281 4097 
L 3078 897 
L 2444 897 
L 1241 4097 
L 1241 0 
L 628 0 
L 628 4666 
z
" transform="scale(0.015625)"/>
       <path id="DejaVuSans-65" d="M 3597 1894 
L 3597 1613 
L 953 1613 
Q 991 1019 1311 708 
Q 1631 397 2203 397 
Q 2534 397 2845 478 
Q 3156 559 3463 722 
L 3463 178 
Q 3153 47 2828 -22 
Q 2503 -91 2169 -91 
Q 1331 -91 842 396 
Q 353 884 353 1716 
Q 353 2575 817 3079 
Q 1281 3584 2069 3584 
Q 2775 3584 3186 3129 
Q 3597 2675 3597 1894 
z
M 3022 2063 
Q 3016 2534 2758 2815 
Q 2500 3097 2075 3097 
Q 1594 3097 1305 2825 
Q 1016 2553 972 2059 
L 3022 2063 
z
" transform="scale(0.015625)"/>
       <path id="DejaVuSans-73" d="M 2834 3397 
L 2834 2853 
Q 2591 2978 2328 3040 
Q 2066 3103 1784 3103 
Q 1356 3103 1142 2972 
Q 928 2841 928 2578 
Q 928 2378 1081 2264 
Q 1234 2150 1697 2047 
L 1894 2003 
Q 2506 1872 2764 1633 
Q 3022 1394 3022 966 
Q 3022 478 2636 193 
Q 2250 -91 1575 -91 
Q 1294 -91 989 -36 
Q 684 19 347 128 
L 347 722 
Q 666 556 975 473 
Q 1284 391 1588 391 
Q 1994 391 2212 530 
Q 2431 669 2431 922 
Q 2431 1156 2273 1281 
Q 2116 1406 1581 1522 
L 1381 1569 
Q 847 1681 609 1914 
Q 372 2147 372 2553 
Q 372 3047 722 3315 
Q 1072 3584 1716 3584 
Q 2034 3584 2315 3537 
Q 2597 3491 2834 3397 
z
" transform="scale(0.015625)"/>
      </defs>
      <use xlink:href="#DejaVuSans-4d"/>
      <use xlink:href="#DejaVuSans-65" x="86.279297"/>
      <use xlink:href="#DejaVuSans-73" x="147.802734"/>
      <use xlink:href="#DejaVuSans-65" x="199.902344"/>
      <use xlink:href="#DejaVuSans-73" x="261.425781"/>
     </g>
    </g>
   </g>
   <g id="matplotlib.axis_2">
    <g id="ytick_1">
     <g id="line2d_15">
      <path d="M 130.97 424.653352 
L 1278.72 424.653352 
" clip-path="url(#p82509d1ef9)" style="fill: none; stroke-dasharray: 2.96,1.28; stroke-dashoffset: 0; stroke: #b0b0b0; stroke-opacity: 0.5; stroke-width: 0.8"/>
     </g>
     <g id="line2d_16">
      <defs>
       <path id="mb37b2bdce8" d="M 0 0 
L -3.5 0 
" style="stroke: #000000; stroke-width: 0.8"/>
      </defs>
      <g>
       <use xlink:href="#mb37b2bdce8" x="130.97" y="424.653352" style="stroke: #000000; stroke-width: 0.8"/>
      </g>
     </g>
     <g id="text_9">
      <!-- 0 -->
      <g transform="translate(113.79 430.732102) scale(0.16 -0.16)">
       <use xlink:href="#DejaVuSans-30"/>
      </g>
     </g>
    </g>
    <g id="ytick_2">
     <g id="line2d_17">
      <path d="M 130.97 335.743326 
L 1278.72 335.743326 
" clip-path="url(#p82509d1ef9)" style="fill: none; stroke-dasharray: 2.96,1.28; stroke-dashoffset: 0; stroke: #b0b0b0; stroke-opacity: 0.5; stroke-width: 0.8"/>
     </g>
     <g id="line2d_18">
      <g>
       <use xlink:href="#mb37b2bdce8" x="130.97" y="335.743326" style="stroke: #000000; stroke-width: 0.8"/>
      </g>
     </g>
     <g id="text_10">
      <!-- 1,000,000 -->
      <g transform="translate(42.54 341.822076) scale(0.16 -0.16)">
       <defs>
        <path id="DejaVuSans-2c" d="M 750 794 
L 1409 794 
L 1409 256 
L 897 -744 
L 494 -744 
L 750 256 
L 750 794 
z
" transform="scale(0.015625)"/>
       </defs>
       <use xlink:href="#DejaVuSans-31"/>
       <use xlink:href="#DejaVuSans-2c" x="63.623047"/>
       <use xlink:href="#DejaVuSans-30" x="95.410156"/>
       <use xlink:href="#DejaVuSans-30" x="159.033203"/>
       <use xlink:href="#DejaVuSans-30" x="222.65625"/>
       <use xlink:href="#DejaVuSans-2c" x="286.279297"/>
       <use xlink:href="#DejaVuSans-30" x="318.066406"/>
       <use xlink:href="#DejaVuSans-30" x="381.689453"/>
       <use xlink:href="#DejaVuSans-30" x="445.3125"/>
      </g>
     </g>
    </g>
    <g id="ytick_3">
     <g id="line2d_19">
      <path d="M 130.97 246.833299 
L 1278.72 246.833299 
" clip-path="url(#p82509d1ef9)" style="fill: none; stroke-dasharray: 2.96,1.28; stroke-dashoffset: 0; stroke: #b0b0b0; stroke-opacity: 0.5; stroke-width: 0.8"/>
     </g>
     <g id="line2d_20">
      <g>
       <use xlink:href="#mb37b2bdce8" x="130.97" y="246.833299" style="stroke: #000000; stroke-width: 0.8"/>
      </g>
     </g>
     <g id="text_11">
      <!-- 2,000,000 -->
      <g transform="translate(42.54 252.912049) scale(0.16 -0.16)">
       <use xlink:href="#DejaVuSans-32"/>
       <use xlink:href="#DejaVuSans-2c" x="63.623047"/>
       <use xlink:href="#DejaVuSans-30" x="95.410156"/>
       <use xlink:href="#DejaVuSans-30" x="159.033203"/>
       <use xlink:href="#DejaVuSans-30" x="222.65625"/>
       <use xlink:href="#DejaVuSans-2c" x="286.279297"/>
       <use xlink:href="#DejaVuSans-30" x="318.066406"/>
       <use xlink:href="#DejaVuSans-30" x="381.689453"/>
       <use xlink:href="#DejaVuSans-30" x="445.3125"/>
      </g>
     </g>
    </g>
    <g id="ytick_4">
     <g id="line2d_21">
      <path d="M 130.97 157.923273 
L 1278.72 157.923273 
" clip-path="url(#p82509d1ef9)" style="fill: none; stroke-dasharray: 2.96,1.28; stroke-dashoffset: 0; stroke: #b0b0b0; stroke-opacity: 0.5; stroke-width: 0.8"/>
     </g>
     <g id="line2d_22">
      <g>
       <use xlink:href="#mb37b2bdce8" x="130.97" y="157.923273" style="stroke: #000000; stroke-width: 0.8"/>
      </g>
     </g>
     <g id="text_12">
      <!-- 3,000,000 -->
      <g transform="translate(42.54 164.002023) scale(0.16 -0.16)">
       <defs>
        <path id="DejaVuSans-33" d="M 2597 2516 
Q 3050 2419 3304 2112 
Q 3559 1806 3559 1356 
Q 3559 666 3084 287 
Q 2609 -91 1734 -91 
Q 1441 -91 1130 -33 
Q 819 25 488 141 
L 488 750 
Q 750 597 1062 519 
Q 1375 441 1716 441 
Q 2309 441 2620 675 
Q 2931 909 2931 1356 
Q 2931 1769 2642 2001 
Q 2353 2234 1838 2234 
L 1294 2234 
L 1294 2753 
L 1863 2753 
Q 2328 2753 2575 2939 
Q 2822 3125 2822 3475 
Q 2822 3834 2567 4026 
Q 2313 4219 1838 4219 
Q 1578 4219 1281 4162 
Q 984 4106 628 3988 
L 628 4550 
Q 988 4650 1302 4700 
Q 1616 4750 1894 4750 
Q 2613 4750 3031 4423 
Q 3450 4097 3450 3541 
Q 3450 3153 3228 2886 
Q 3006 2619 2597 2516 
z
" transform="scale(0.015625)"/>
       </defs>
       <use xlink:href="#DejaVuSans-33"/>
       <use xlink:href="#DejaVuSans-2c" x="63.623047"/>
       <use xlink:href="#DejaVuSans-30" x="95.410156"/>
       <use xlink:href="#DejaVuSans-30" x="159.033203"/>
       <use xlink:href="#DejaVuSans-30" x="222.65625"/>
       <use xlink:href="#DejaVuSans-2c" x="286.279297"/>
       <use xlink:href="#DejaVuSans-30" x="318.066406"/>
       <use xlink:href="#DejaVuSans-30" x="381.689453"/>
       <use xlink:href="#DejaVuSans-30" x="445.3125"/>
      </g>
     </g>
    </g>
    <g id="ytick_5">
     <g id="line2d_23">
      <path d="M 130.97 69.013247 
L 1278.72 69.013247 
" clip-path="url(#p82509d1ef9)" style="fill: none; stroke-dasharray: 2.96,1.28; stroke-dashoffset: 0; stroke: #b0b0b0; stroke-opacity: 0.5; stroke-width: 0.8"/>
     </g>
     <g id="line2d_24">
      <g>
       <use xlink:href="#mb37b2bdce8" x="130.97" y="69.013247" style="stroke: #000000; stroke-width: 0.8"/>
      </g>
     </g>
     <g id="text_13">
      <!-- 4,000,000 -->
      <g transform="translate(42.54 75.091997) scale(0.16 -0.16)">
       <use xlink:href="#DejaVuSans-34"/>
       <use xlink:href="#DejaVuSans-2c" x="63.623047"/>
       <use xlink:href="#DejaVuSans-30" x="95.410156"/>
       <use xlink:href="#DejaVuSans-30" x="159.033203"/>
       <use xlink:href="#DejaVuSans-30" x="222.65625"/>
       <use xlink:href="#DejaVuSans-2c" x="286.279297"/>
       <use xlink:href="#DejaVuSans-30" x="318.066406"/>
       <use xlink:href="#DejaVuSans-30" x="381.689453"/>
       <use xlink:href="#DejaVuSans-30" x="445.3125"/>
      </g>
     </g>
    </g>
    <g id="text_14">
     <!-- Saldo Acumulado (R$) -->
     <g transform="translate(33.964688 398.399844) rotate(-90) scale(0.22 -0.22)">
      <defs>
       <path id="DejaVuSans-53" d="M 3425 4513 
L 3425 3897 
Q 3066 4069 2747 4153 
Q 2428 4238 2131 4238 
Q 1616 4238 1336 4038 
Q 1056 3838 1056 3469 
Q 1056 3159 1242 3001 
Q 1428 2844 1947 2747 
L 2328 2669 
Q 3034 2534 3370 2195 
Q 3706 1856 3706 1288 
Q 3706 609 3251 259 
Q 2797 -91 1919 -91 
Q 1588 -91 1214 -16 
Q 841 59 441 206 
L 441 856 
Q 825 641 1194 531 
Q 1563 422 1919 422 
Q 2459 422 2753 634 
Q 3047 847 3047 1241 
Q 3047 1584 2836 1778 
Q 2625 1972 2144 2069 
L 1759 2144 
Q 1053 2284 737 2584 
Q 422 2884 422 3419 
Q 422 4038 858 4394 
Q 1294 4750 2059 4750 
Q 2388 4750 2728 4690 
Q 3069 4631 3425 4513 
z
" transform="scale(0.015625)"/>
       <path id="DejaVuSans-61" d="M 2194 1759 
Q 1497 1759 1228 1600 
Q 959 1441 959 1056 
Q 959 750 1161 570 
Q 1363 391 1709 391 
Q 2188 391 2477 730 
Q 2766 1069 2766 1631 
L 2766 1759 
L 2194 1759 
z
M 3341 1997 
L 3341 0 
L 2766 0 
L 2766 531 
Q 2569 213 2275 61 
Q 1981 -91 1556 -91 
Q 1019 -91 701 211 
Q 384 513 384 1019 
Q 384 1609 779 1909 
Q 1175 2209 1959 2209 
L 2766 2209 
L 2766 2266 
Q 2766 2663 2505 2880 
Q 2244 3097 1772 3097 
Q 1472 3097 1187 3025 
Q 903 2953 641 2809 
L 641 3341 
Q 956 3463 1253 3523 
Q 1550 3584 1831 3584 
Q 2591 3584 2966 3190 
Q 3341 2797 3341 1997 
z
" transform="scale(0.015625)"/>
       <path id="DejaVuSans-6c" d="M 603 4863 
L 1178 4863 
L 1178 0 
L 603 0 
L 603 4863 
z
" transform="scale(0.015625)"/>
       <path id="DejaVuSans-64" d="M 2906 2969 
L 2906 4863 
L 3481 4863 
L 3481 0 
L 2906 0 
L 2906 525 
Q 2725 213 2448 61 
Q 2172 -91 1784 -91 
Q 1150 -91 751 415 
Q 353 922 353 1747 
Q 353 2572 751 3078 
Q 1150 3584 1784 3584 
Q 2172 3584 2448 3432 
Q 2725 3281 2906 2969 
z
M 947 1747 
Q 947 1113 1208 752 
Q 1469 391 1925 391 
Q 2381 391 2643 752 
Q 2906 1113 2906 1747 
Q 2906 2381 2643 2742 
Q 2381 3103 1925 3103 
Q 1469 3103 1208 2742 
Q 947 2381 947 1747 
z
" transform="scale(0.015625)"/>
       <path id="DejaVuSans-6f" d="M 1959 3097 
Q 1497 3097 1228 2736 
Q 959 2375 959 1747 
Q 959 1119 1226 758 
Q 1494 397 1959 397 
Q 2419 397 2687 759 
Q 2956 1122 2956 1747 
Q 2956 2369 2687 2733 
Q 2419 3097 1959 3097 
z
M 1959 3584 
Q 2709 3584 3137 3096 
Q 3566 2609 3566 1747 
Q 3566 888 3137 398 
Q 2709 -91 1959 -91 
Q 1206 -91 779 398 
Q 353 888 353 1747 
Q 353 2609 779 3096 
Q 1206 3584 1959 3584 
z
" transform="scale(0.015625)"/>
       <path id="DejaVuSans-20" transform="scale(0.015625)"/>
       <path id="DejaVuSans-41" d="M 2188 4044 
L 1331 1722 
L 3047 1722 
L 2188 4044 
z
M 1831 4666 
L 2547 4666 
L 4325 0 
L 3669 0 
L 3244 1197 
L 1141 1197 
L 716 0 
L 50 0 
L 1831 4666 
z
" transform="scale(0.015625)"/>
       <path id="DejaVuSans-63" d="M 3122 3366 
L 3122 2828 
Q 2878 2963 2633 3030 
Q 2388 3097 2138 3097 
Q 1578 3097 1268 2742 
Q 959 2388 959 1747 
Q 959 1106 1268 751 
Q 1578 397 2138 397 
Q 2388 397 2633 464 
Q 2878 531 3122 666 
L 3122 134 
Q 2881 22 2623 -34 
Q 2366 -91 2075 -91 
Q 1284 -91 818 406 
Q 353 903 353 1747 
Q 353 2603 823 3093 
Q 1294 3584 2113 3584 
Q 2378 3584 2631 3529 
Q 2884 3475 3122 3366 
z
" transform="scale(0.015625)"/>
       <path id="DejaVuSans-75" d="M 544 1381 
L 544 3500 
L 1119 3500 
L 1119 1403 
Q 1119 906 1312 657 
Q 1506 409 1894 409 
Q 2359 409 2629 706 
Q 2900 1003 2900 1516 
L 2900 3500 
L 3475 3500 
L 3475 0 
L 2900 0 
L 2900 538 
Q 2691 219 2414 64 
Q 2138 -91 1772 -91 
Q 1169 -91 856 284 
Q 544 659 544 1381 
z
M 1991 3584 
L 1991 3584 
z
" transform="scale(0.015625)"/>
       <path id="DejaVuSans-6d" d="M 3328 2828 
Q 3544 3216 3844 3400 
Q 4144 3584 4550 3584 
Q 5097 3584 5394 3201 
Q 5691 2819 5691 2113 
L 5691 0 
L 5113 0 
L 5113 2094 
Q 5113 2597 4934 2840 
Q 4756 3084 4391 3084 
Q 3944 3084 3684 2787 
Q 3425 2491 3425 1978 
L 3425 0 
L 2847 0 
L 2847 2094 
Q 2847 2600 2669 2842 
Q 2491 3084 2119 3084 
Q 1678 3084 1418 2786 
Q 1159 2488 1159 1978 
L 1159 0 
L 581 0 
L 581 3500 
L 1159 3500 
L 1159 2956 
Q 1356 3278 1631 3431 
Q 1906 3584 2284 3584 
Q 2666 3584 2933 3390 
Q 3200 3197 3328 2828 
z
" transform="scale(0.015625)"/>
       <path id="DejaVuSans-28" d="M 1984 4856 
Q 1566 4138 1362 3434 
Q 1159 2731 1159 2009 
Q 1159 1288 1364 580 
Q 1569 -128 1984 -844 
L 1484 -844 
Q 1016 -109 783 600 
Q 550 1309 550 2009 
Q 550 2706 781 3412 
Q 1013 4119 1484 4856 
L 1984 4856 
z
" transform="scale(0.015625)"/>
       <path id="DejaVuSans-52" d="M 2841 2188 
Q 3044 2119 3236 1894 
Q 3428 1669 3622 1275 
L 4263 0 
L 3584 0 
L 2988 1197 
Q 2756 1666 2539 1819 
Q 2322 1972 1947 1972 
L 1259 1972 
L 1259 0 
L 628 0 
L 628 4666 
L 2053 4666 
Q 2853 4666 3247 4331 
Q 3641 3997 3641 3322 
Q 3641 2881 3436 2590 
Q 3231 2300 2841 2188 
z
M 1259 4147 
L 1259 2491 
L 2053 2491 
Q 2509 2491 2742 2702 
Q 2975 2913 2975 3322 
Q 2975 3731 2742 3939 
Q 2509 4147 2053 4147 
L 1259 4147 
z
" transform="scale(0.015625)"/>
       <path id="DejaVuSans-24" d="M 2163 -941 
L 1850 -941 
L 1847 0 
Q 1519 6 1191 76 
Q 863 147 531 288 
L 531 850 
Q 850 650 1176 548 
Q 1503 447 1850 444 
L 1850 1869 
Q 1159 1981 845 2250 
Q 531 2519 531 2988 
Q 531 3497 872 3790 
Q 1213 4084 1850 4128 
L 1850 4863 
L 2163 4863 
L 2163 4138 
Q 2453 4125 2725 4076 
Q 2997 4028 3256 3944 
L 3256 3397 
Q 2997 3528 2723 3600 
Q 2450 3672 2163 3684 
L 2163 2350 
Q 2872 2241 3206 1959 
Q 3541 1678 3541 1191 
Q 3541 663 3186 358 
Q 2831 53 2163 6 
L 2163 -941 
z
M 1850 2406 
L 1850 3688 
Q 1488 3647 1297 3481 
Q 1106 3316 1106 3041 
Q 1106 2772 1282 2622 
Q 1459 2472 1850 2406 
z
M 2163 1806 
L 2163 453 
Q 2559 506 2761 678 
Q 2963 850 2963 1131 
Q 2963 1406 2770 1568 
Q 2578 1731 2163 1806 
z
" transform="scale(0.015625)"/>
       <path id="DejaVuSans-29" d="M 513 4856 
L 1013 4856 
Q 1481 4119 1714 3412 
Q 1947 2706 1947 2009 
Q 1947 1309 1714 600 
Q 1481 -109 1013 -844 
L 513 -844 
Q 928 -128 1133 580 
Q 1338 1288 1338 2009 
Q 1338 2731 1133 3434 
Q 928 4138 513 4856 
z
" transform="scale(0.015625)"/>
      </defs>
      <use xlink:href="#DejaVuSans-53"/>
      <use xlink:href="#DejaVuSans-61" x="63.476562"/>
      <use xlink:href="#DejaVuSans-6c" x="124.755859"/>
      <use xlink:href="#DejaVuSans-64" x="152.539062"/>
      <use xlink:href="#DejaVuSans-6f" x="216.015625"/>
      <use xlink:href="#DejaVuSans-20" x="277.197266"/>
      <use xlink:href="#DejaVuSans-41" x="308.984375"/>
      <use xlink:href="#DejaVuSans-63" x="375.642578"/>
      <use xlink:href="#DejaVuSans-75" x="430.623047"/>
      <use xlink:href="#DejaVuSans-6d" x="494.001953"/>
      <use xlink:href="#DejaVuSans-75" x="591.414062"/>
      <use xlink:href="#DejaVuSans-6c" x="654.792969"/>
      <use xlink:href="#DejaVuSans-61" x="682.576172"/>
      <use xlink:href="#DejaVuSans-64" x="743.855469"/>
      <use xlink:href="#DejaVuSans-6f" x="807.332031"/>
      <use xlink:href="#DejaVuSans-20" x="868.513672"/>
      <use xlink:href="#DejaVuSans-28" x="900.300781"/>
      <use xlink:href="#DejaVuSans-52" x="939.314453"/>
      <use xlink:href="#DejaVuSans-24" x="1008.796875"/>
      <use xlink:href="#DejaVuSans-29" x="1072.419922"/>
     </g>
    </g>
   </g>
   <g id="line2d_25">
    <path d="M 639.523062 512.44 
L 639.523062 39.84 
" clip-path="url(#p82509d1ef9)" style="fill: none; stroke-dasharray: 5.55,2.4; stroke-dashoffset: 0; stroke: #008000; stroke-width: 1.5"/>
   </g>
   <g id="patch_123">
    <path d="M 130.97 512.44 
L 130.97 39.84 
" style="fill: none; stroke: #000000; stroke-width: 0.8; stroke-linejoin: miter; stroke-linecap: square"/>
   </g>
   <g id="patch_124">
    <path d="M 1278.72 512.44 
L 1278.72 39.84 
" style="fill: none; stroke: #000000; stroke-width: 0.8; stroke-linejoin: miter; stroke-linecap: square"/>
   </g>
   <g id="patch_125">
    <path d="M 130.97 512.44 
L 1278.72 512.44 
" style="fill: none; stroke: #000000; stroke-width: 0.8; stroke-linejoin: miter; stroke-linecap: square"/>
   </g>
   <g id="patch_126">
    <path d="M 130.97 39.84 
L 1278.72 39.84 
" style="fill: none; stroke: #000000; stroke-width: 0.8; stroke-linejoin: miter; stroke-linecap: square"/>
   </g>
   <g id="text_15">
    <!-- Payback 53 meses, VPL=R$ 1,281,725.70, TIR=39.07% a.a. -->
    <g transform="translate(374.772812 33.84) scale(0.22 -0.22)">
     <defs>
      <path id="DejaVuSans-50" d="M 1259 4147 
L 1259 2394 
L 2053 2394 
Q 2494 2394 2734 2622 
Q 2975 2850 2975 3272 
Q 2975 3691 2734 3919 
Q 2494 4147 2053 4147 
L 1259 4147 
z
M 628 4666 
L 2053 4666 
Q 2838 4666 3239 4311 
Q 3641 3956 3641 3272 
Q 3641 2581 3239 2228 
Q 2838 1875 2053 1875 
L 1259 1875 
L 1259 0 
L 628 0 
L 628 4666 
z
" transform="scale(0.015625)"/>
      <path id="DejaVuSans-79" d="M 2059 -325 
Q 1816 -950 1584 -1140 
Q 1353 -1331 966 -1331 
L 506 -1331 
L 506 -850 
L 844 -850 
Q 1081 -850 1212 -737 
Q 1344 -625 1503 -206 
L 1606 56 
L 191 3500 
L 800 3500 
L 1894 763 
L 2988 3500 
L 3597 3500 
L 2059 -325 
z
" transform="scale(0.015625)"/>
      <path id="DejaVuSans-62" d="M 3116 1747 
Q 3116 2381 2855 2742 
Q 2594 3103 2138 3103 
Q 1681 3103 1420 2742 
Q 1159 2381 1159 1747 
Q 1159 1113 1420 752 
Q 1681 391 2138 391 
Q 2594 391 2855 752 
Q 3116 1113 3116 1747 
z
M 1159 2969 
Q 1341 3281 1617 3432 
Q 1894 3584 2278 3584 
Q 2916 3584 3314 3078 
Q 3713 2572 3713 1747 
Q 3713 922 3314 415 
Q 2916 -91 2278 -91 
Q 1894 -91 1617 61 
Q 1341 213 1159 525 
L 1159 0 
L 581 0 
L 581 4863 
L 1159 4863 
L 1159 2969 
z
" transform="scale(0.015625)"/>
      <path id="DejaVuSans-6b" d="M 581 4863 
L 1159 4863 
L 1159 1991 
L 2875 3500 
L 3609 3500 
L 1753 1863 
L 3688 0 
L 2938 0 
L 1159 1709 
L 1159 0 
L 581 0 
L 581 4863 
z
" transform="scale(0.015625)"/>
      <path id="DejaVuSans-35" d="M 691 4666 
L 3169 4666 
L 3169 4134 
L 1269 4134 
L 1269 2991 
Q 1406 3038 1543 3061 
Q 1681 3084 1819 3084 
Q 2600 3084 3056 2656 
Q 3513 2228 3513 1497 
Q 3513 744 3044 326 
Q 2575 -91 1722 -91 
Q 1428 -91 1123 -41 
Q 819 9 494 109 
L 494 744 
Q 775 591 1075 516 
Q 1375 441 1709 441 
Q 2250 441 2565 725 
Q 2881 1009 2881 1497 
Q 2881 1984 2565 2268 
Q 2250 2553 1709 2553 
Q 1456 2553 1204 2497 
Q 953 2441 691 2322 
L 691 4666 
z
" transform="scale(0.015625)"/>
      <path id="DejaVuSans-56" d="M 1831 0 
L 50 4666 
L 709 4666 
L 2188 738 
L 3669 4666 
L 4325 4666 
L 2547 0 
L 1831 0 
z
" transform="scale(0.015625)"/>
      <path id="DejaVuSans-4c" d="M 628 4666 
L 1259 4666 
L 1259 531 
L 3531 531 
L 3531 0 
L 628 0 
L 628 4666 
z
" transform="scale(0.015625)"/>
      <path id="DejaVuSans-3d" d="M 678 2906 
L 4684 2906 
L 4684 2381 
L 678 2381 
L 678 2906 
z
M 678 1631 
L 4684 1631 
L 4684 1100 
L 678 1100 
L 678 1631 
z
" transform="scale(0.015625)"/>
      <path id="DejaVuSans-37" d="M 525 4666 
L 3525 4666 
L 3525 4397 
L 1831 0 
L 1172 0 
L 2766 4134 
L 525 4134 
L 525 4666 
z
" transform="scale(0.015625)"/>
      <path id="DejaVuSans-2e" d="M 684 794 
L 1344 794 
L 1344 0 
L 684 0 
L 684 794 
z
" transform="scale(0.015625)"/>
      <path id="DejaVuSans-54" d="M -19 4666 
L 3928 4666 
L 3928 4134 
L 2272 4134 
L 2272 0 
L 1638 0 
L 1638 4134 
L -19 4134 
L -19 4666 
z
" transform="scale(0.015625)"/>
      <path id="DejaVuSans-49" d="M 628 4666 
L 1259 4666 
L 1259 0 
L 628 0 
L 628 4666 
z
" transform="scale(0.015625)"/>
      <path id="DejaVuSans-39" d="M 703 97 
L 703 672 
Q 941 559 1184 500 
Q 1428 441 1663 441 
Q 2288 441 2617 861 
Q 2947 1281 2994 2138 
Q 2813 1869 2534 1725 
Q 2256 1581 1919 1581 
Q 1219 1581 811 2004 
Q 403 2428 403 3163 
Q 403 3881 828 4315 
Q 1253 4750 1959 4750 
Q 2769 4750 3195 4129 
Q 3622 3509 3622 2328 
Q 3622 1225 3098 567 
Q 2575 -91 1691 -91 
Q 1453 -91 1209 -44 
Q 966 3 703 97 
z
M 1959 2075 
Q 2384 2075 2632 2365 
Q 2881 2656 2881 3163 
Q 2881 3666 2632 3958 
Q 2384 4250 1959 4250 
Q 1534 4250 1286 3958 
Q 1038 3666 1038 3163 
Q 1038 2656 1286 2365 
Q 1534 2075 1959 2075 
z
" transform="scale(0.015625)"/>
      <path id="DejaVuSans-25" d="M 4653 2053 
Q 4381 2053 4226 1822 
Q 4072 1591 4072 1178 
Q 4072 772 4226 539 
Q 4381 306 4653 306 
Q 4919 306 5073 539 
Q 5228 772 5228 1178 
Q 5228 1588 5073 1820 
Q 4919 2053 4653 2053 
z
M 4653 2450 
Q 5147 2450 5437 2106 
Q 5728 1763 5728 1178 
Q 5728 594 5436 251 
Q 5144 -91 4653 -91 
Q 4153 -91 3862 251 
Q 3572 594 3572 1178 
Q 3572 1766 3864 2108 
Q 4156 2450 4653 2450 
z
M 1428 4353 
Q 1159 4353 1004 4120 
Q 850 3888 850 3481 
Q 850 3069 1003 2837 
Q 1156 2606 1428 2606 
Q 1700 2606 1854 2837 
Q 2009 3069 2009 3481 
Q 2009 3884 1853 4118 
Q 1697 4353 1428 4353 
z
M 4250 4750 
L 4750 4750 
L 1831 -91 
L 1331 -91 
L 4250 4750 
z
M 1428 4750 
Q 1922 4750 2215 4408 
Q 2509 4066 2509 3481 
Q 2509 2891 2217 2550 
Q 1925 2209 1428 2209 
Q 931 2209 642 2551 
Q 353 2894 353 3481 
Q 353 4063 643 4406 
Q 934 4750 1428 4750 
z
" transform="scale(0.015625)"/>
     </defs>
     <use xlink:href="#DejaVuSans-50"/>
     <use xlink:href="#DejaVuSans-61" x="55.802734"/>
     <use xlink:href="#DejaVuSans-79" x="117.082031"/>
     <use xlink:href="#DejaVuSans-62" x="176.261719"/>
     <use xlink:href="#DejaVuSans-61" x="239.738281"/>
     <use xlink:href="#DejaVuSans-63" x="301.017578"/>
     <use xlink:href="#DejaVuSans-6b" x="355.998047"/>
     <use xlink:href="#DejaVuSans-20" x="413.908203"/>
     <use xlink:href="#DejaVuSans-35" x="445.695312"/>
     <use xlink:href="#DejaVuSans-33" x="509.318359"/>
     <use xlink:href="#DejaVuSans-20" x="572.941406"/>
     <use xlink:href="#DejaVuSans-6d" x="604.728516"/>
     <use xlink:href="#DejaVuSans-65" x="702.140625"/>
     <use xlink:href="#DejaVuSans-73" x="763.664062"/>
     <use xlink:href="#DejaVuSans-65" x="815.763672"/>
     <use xlink:href="#DejaVuSans-73" x="877.287109"/>
     <use xlink:href="#DejaVuSans-2c" x="929.386719"/>
     <use xlink:href="#DejaVuSans-20" x="961.173828"/>
     <use xlink:href="#DejaVuSans-56" x="992.960938"/>
     <use xlink:href="#DejaVuSans-50" x="1061.369141"/>
     <use xlink:href="#DejaVuSans-4c" x="1121.671875"/>
     <use xlink:href="#DejaVuSans-3d" x="1177.384766"/>
     <use xlink:href="#DejaVuSans-52" x="1261.173828"/>
     <use xlink:href="#DejaVuSans-24" x="1330.65625"/>
     <use xlink:href="#DejaVuSans-20" x="1394.279297"/>
     <use xlink:href="#DejaVuSans-31" x="1426.066406"/>
     <use xlink:href="#DejaVuSans-2c" x="1489.689453"/>
     <use xlink:href="#DejaVuSans-32" x="1521.476562"/>
     <use xlink:href="#DejaVuSans-38" x="1585.099609"/>
     <use xlink:href="#DejaVuSans-31" x="1648.722656"/>
     <use xlink:href="#DejaVuSans-2c" x="1712.345703"/>
     <use xlink:href="#DejaVuSans-37" x="1744.132812"/>
     <use xlink:href="#DejaVuSans-32" x="1807.755859"/>
     <use xlink:href="#DejaVuSans-35" x="1871.378906"/>
     <use xlink:href="#DejaVuSans-2e" x="1935.001953"/>
     <use xlink:href="#DejaVuSans-37" x="1966.789062"/>
     <use xlink:href="#DejaVuSans-30" x="2030.412109"/>
     <use xlink:href="#DejaVuSans-2c" x="2094.035156"/>
     <use xlink:href="#DejaVuSans-20" x="2125.822266"/>
     <use xlink:href="#DejaVuSans-54" x="2157.609375"/>
     <use xlink:href="#DejaVuSans-49" x="2218.693359"/>
     <use xlink:href="#DejaVuSans-52" x="2248.185547"/>
     <use xlink:href="#DejaVuSans-3d" x="2317.667969"/>
     <use xlink:href="#DejaVuSans-33" x="2401.457031"/>
     <use xlink:href="#DejaVuSans-39" x="2465.080078"/>
     <use xlink:href="#DejaVuSans-2e" x="2528.703125"/>
     <use xlink:href="#DejaVuSans-30" x="2560.490234"/>
     <use xlink:href="#DejaVuSans-37" x="2624.113281"/>
     <use xlink:href="#DejaVuSans-25" x="2687.736328"/>
     <use xlink:href="#DejaVuSans-20" x="2782.755859"/>
     <use xlink:href="#DejaVuSans-61" x="2814.542969"/>
     <use xlink:href="#DejaVuSans-2e" x="2875.822266"/>
     <use xlink:href="#DejaVuSans-61" x="2907.609375"/>
     <use xlink:href="#DejaVuSans-2e" x="2968.888672"/>
    </g>
   </g>
   <g id="legend_1">
    <g id="patch_127">
     <path d="M 142.17 99.61 
L 332.335 99.61 
Q 335.535 99.61 335.535 96.41 
L 335.535 51.04 
Q 335.535 47.84 332.335 47.84 
L 142.17 47.84 
Q 138.97 47.84 138.97 51.04 
L 138.97 96.41 
Q 138.97 99.61 142.17 99.61 
z
" style="fill: #ffffff; opacity: 0.8; stroke: #cccccc; stroke-linejoin: miter"/>
    </g>
    <g id="line2d_26">
     <path d="M 145.37 60.7975 
L 161.37 60.7975 
L 177.37 60.7975 
" style="fill: none; stroke-dasharray: 5.55,2.4; stroke-dashoffset: 0; stroke: #008000; stroke-width: 1.5"/>
    </g>
    <g id="text_16">
     <!-- Payback: M53 -->
     <g transform="translate(190.17 66.3975) scale(0.16 -0.16)">
      <defs>
       <path id="DejaVuSans-3a" d="M 750 794 
L 1409 794 
L 1409 0 
L 750 0 
L 750 794 
z
M 750 3309 
L 1409 3309 
L 1409 2516 
L 750 2516 
L 750 3309 
z
" transform="scale(0.015625)"/>
      </defs>
      <use xlink:href="#DejaVuSans-50"/>
      <use xlink:href="#DejaVuSans-61" x="55.802734"/>
      <use xlink:href="#DejaVuSans-79" x="117.082031"/>
      <use xlink:href="#DejaVuSans-62" x="176.261719"/>
      <use xlink:href="#DejaVuSans-61" x="239.738281"/>
      <use xlink:href="#DejaVuSans-63" x="301.017578"/>
      <use xlink:href="#DejaVuSans-6b" x="355.998047"/>
      <use xlink:href="#DejaVuSans-3a" x="413.908203"/>
      <use xlink:href="#DejaVuSans-20" x="447.599609"/>
      <use xlink:href="#DejaVuSans-4d" x="479.386719"/>
      <use xlink:href="#DejaVuSans-35" x="565.666016"/>
      <use xlink:href="#DejaVuSans-33" x="629.289062"/>
     </g>
    </g>
    <g id="patch_128">
     <path d="M 145.37 89.8825 
L 177.37 89.8825 
L 177.37 78.6825 
L 145.37 78.6825 
z
" style="fill: #4169e1"/>
    </g>
    <g id="text_17">
     <!-- Saldo Acumulado -->
     <g transform="translate(190.17 89.8825) scale(0.16 -0.16)">
      <use xlink:href="#DejaVuSans-53"/>
      <use xlink:href="#DejaVuSans-61" x="63.476562"/>
      <use xlink:href="#DejaVuSans-6c" x="124.755859"/>
      <use xlink:href="#DejaVuSans-64" x="152.539062"/>
      <use xlink:href="#DejaVuSans-6f" x="216.015625"/>
      <use xlink:href="#DejaVuSans-20" x="277.197266"/>
      <use xlink:href="#DejaVuSans-41" x="308.984375"/>
      <use xlink:href="#DejaVuSans-63" x="375.642578"/>
      <use xlink:href="#DejaVuSans-75" x="430.623047"/>
      <use xlink:href="#DejaVuSans-6d" x="494.001953"/>
      <use xlink:href="#DejaVuSans-75" x="591.414062"/>
      <use xlink:href="#DejaVuSans-6c" x="654.792969"/>
      <use xlink:href="#DejaVuSans-61" x="682.576172"/>
      <use xlink:href="#DejaVuSans-64" x="743.855469"/>
      <use xlink:href="#DejaVuSans-6f" x="807.332031"/>
     </g>
    </g>
   </g>
  </g>
 </g>
 <defs>
  <clipPath id="p82509d1ef9">
   <rect x="130.97" y="39.84" width="1147.75" height="472.6"/>
  </clipPath>
 </defs>
</svg>
