<?xml version="1.0" encoding="utf-8" standalone="no"?>
<!DOCTYPE svg PUBLIC "-//W3C//DTD SVG 1.1//EN"
  "http://www.w3.org/Graphics/SVG/1.1/DTD/svg11.dtd">
<svg xmlns:xlink="http://www.w3.org/1999/xlink" width="1296pt" height="576pt" viewBox="0 0 1296 576" xmlns="http://www.w3.org/2000/svg" version="1.1">
 <metadata>
  <rdf:RDF xmlns:dc="http://purl.org/dc/elements/1.1/" xmlns:cc="http://creativecommons.org/ns#" xmlns:rdf="http://www.w3.org/1999/02/22-rdf-syntax-ns#">
   <cc:Work>
    <dc:type rdf:resource="http://purl.org/dc/dcmitype/StillImage"/>
    <dc:date>2025-07-13T17:17:09.567704</dc:date>
    <dc:format>image/svg+xml</dc:format>
    <dc:creator>
     <cc:Agent>
      <dc:title>Matplotlib v3.9.2, https://matplotlib.org/</dc:title>
     </cc:Agent>
    </dc:creator>
   </cc:Work>
  </rdf:RDF>
 </metadata>
 <defs>
  <style type="text/css">*{stroke-linejoin: round; stroke-linecap: butt}</style>
 </defs>
 <g id="figure_1">
  <g id="patch_1">
   <path d="M 0 576 
L 1296 576 
L 1296 0 
L 0 0 
z
" style="fill: #ffffff"/>
  </g>
  <g id="axes_1">
   <g id="patch_2">
    <path d="M 130.97 512.44 
L 1278.72 512.44 
L 1278.72 39.84 
L 130.97 39.84 
z
" style="fill: #ffffff"/>
   </g>
   <g id="patch_3">
    <path d="M 183.140455 320.002256 
L 194.766183 320.002256 
L 194.766183 403.97228 
L 183.140455 403.97228 
z
" clip-path="url(#p657dd80ef3)" style="fill: #4169e1"/>
   </g>
   <g id="patch_4">
    <path d="M 197.672615 320.002256 
L 209.298343 320.002256 
L 209.298343 412.751242 
L 197.672615 412.751242 
z
" clip-path="url(#p657dd80ef3)" style="fill: #4169e1"/>
   </g>
   <g id="patch_5">
    <path d="M 212.204775 320.002256 
L 223.830503 320.002256 
L 223.830503 421.209268 
L 212.204775 421.209268 
z
" clip-path="url(#p657dd80ef3)" style="fill: #4169e1"/>
   </g>
   <g id="patch_6">
    <path d="M 226.736935 320.002256 
L 238.362663 320.002256 
L 238.362663 429.346359 
L 226.736935 429.346359 
z
" clip-path="url(#p657dd80ef3)" style="fill: #4169e1"/>
   </g>
   <g id="patch_7">
    <path d="M 241.269095 320.002256 
L 252.894823 320.002256 
L 252.894823 437.162514 
L 241.269095 437.162514 
z
" clip-path="url(#p657dd80ef3)" style="fill: #4169e1"/>
   </g>
   <g id="patch_8">
    <path d="M 255.801255 320.002256 
L 267.426983 320.002256 
L 267.426983 444.657733 
L 255.801255 444.657733 
z
" clip-path="url(#p657dd80ef3)" style="fill: #4169e1"/>
   </g>
   <g id="patch_9">
    <path d="M 270.333415 320.002256 
L 281.959143 320.002256 
L 281.959143 451.832017 
L 270.333415 451.832017 
z
" clip-path="url(#p657dd80ef3)" style="fill: #4169e1"/>
   </g>
   <g id="patch_10">
    <path d="M 284.865575 320.002256 
L 296.491303 320.002256 
L 296.491303 458.685366 
L 284.865575 458.685366 
z
" clip-path="url(#p657dd80ef3)" style="fill: #4169e1"/>
   </g>
   <g id="patch_11">
    <path d="M 299.397735 320.002256 
L 311.023463 320.002256 
L 311.023463 465.229241 
L 299.397735 465.229241 
z
" clip-path="url(#p657dd80ef3)" style="fill: #4169e1"/>
   </g>
   <g id="patch_12">
    <path d="M 313.929895 320.002256 
L 325.555623 320.002256 
L 325.555623 471.440718 
L 313.929895 471.440718 
z
" clip-path="url(#p657dd80ef3)" style="fill: #4169e1"/>
   </g>
   <g id="patch_13">
    <path d="M 328.462055 320.002256 
L 340.087783 320.002256 
L 340.087783 476.399172 
L 328.462055 476.399172 
z
" clip-path="url(#p657dd80ef3)" style="fill: #4169e1"/>
   </g>
   <g id="patch_14">
    <path d="M 342.994215 320.002256 
L 354.619943 320.002256 
L 354.619943 483.329086 
L 342.994215 483.329086 
z
" clip-path="url(#p657dd80ef3)" style="fill: #4169e1"/>
   </g>
   <g id="patch_15">
    <path d="M 357.526375 320.002256 
L 369.152103 320.002256 
L 369.152103 485.378489 
L 357.526375 485.378489 
z
" clip-path="url(#p657dd80ef3)" style="fill: #4169e1"/>
   </g>
   <g id="patch_16">
    <path d="M 372.058535 320.002256 
L 383.684263 320.002256 
L 383.684263 487.106956 
L 372.058535 487.106956 
z
" clip-path="url(#p657dd80ef3)" style="fill: #4169e1"/>
   </g>
   <g id="patch_17">
    <path d="M 386.590695 320.002256 
L 398.216423 320.002256 
L 398.216423 488.514487 
L 386.590695 488.514487 
z
" clip-path="url(#p657dd80ef3)" style="fill: #4169e1"/>
   </g>
   <g id="patch_18">
    <path d="M 401.122855 320.002256 
L 412.748583 320.002256 
L 412.748583 489.601083 
L 401.122855 489.601083 
z
" clip-path="url(#p657dd80ef3)" style="fill: #4169e1"/>
   </g>
   <g id="patch_19">
    <path d="M 415.655015 320.002256 
L 427.280743 320.002256 
L 427.280743 490.378206 
L 415.655015 490.378206 
z
" clip-path="url(#p657dd80ef3)" style="fill: #4169e1"/>
   </g>
   <g id="patch_20">
    <path d="M 430.187175 320.002256 
L 441.812903 320.002256 
L 441.812903 490.834392 
L 430.187175 490.834392 
z
" clip-path="url(#p657dd80ef3)" style="fill: #4169e1"/>
   </g>
   <g id="patch_21">
    <path d="M 444.719335 320.002256 
L 456.345063 320.002256 
L 456.345063 490.958182 
L 444.719335 490.958182 
z
" clip-path="url(#p657dd80ef3)" style="fill: #4169e1"/>
   </g>
   <g id="patch_22">
    <path d="M 459.251495 320.002256 
L 470.877223 320.002256 
L 470.877223 490.761036 
L 459.251495 490.761036 
z
" clip-path="url(#p657dd80ef3)" style="fill: #4169e1"/>
   </g>
   <g id="patch_23">
    <path d="M 473.783655 320.002256 
L 485.409383 320.002256 
L 485.409383 490.242954 
L 473.783655 490.242954 
z
" clip-path="url(#p657dd80ef3)" style="fill: #4169e1"/>
   </g>
   <g id="patch_24">
    <path d="M 488.315815 320.002256 
L 499.941543 320.002256 
L 499.941543 489.403937 
L 488.315815 489.403937 
z
" clip-path="url(#p657dd80ef3)" style="fill: #4169e1"/>
   </g>
   <g id="patch_25">
    <path d="M 502.847975 320.002256 
L 514.473703 320.002256 
L 514.473703 488.243984 
L 502.847975 488.243984 
z
" clip-path="url(#p657dd80ef3)" style="fill: #4169e1"/>
   </g>
   <g id="patch_26">
    <path d="M 517.380135 320.002256 
L 529.005864 320.002256 
L 529.005864 489.055493 
L 517.380135 489.055493 
z
" clip-path="url(#p657dd80ef3)" style="fill: #4169e1"/>
   </g>
   <g id="patch_27">
    <path d="M 531.912296 320.002256 
L 543.538024 320.002256 
L 543.538024 487.253669 
L 531.912296 487.253669 
z
" clip-path="url(#p657dd80ef3)" style="fill: #4169e1"/>
   </g>
   <g id="patch_28">
    <path d="M 546.444456 320.002256 
L 558.070184 320.002256 
L 558.070184 485.13091 
L 546.444456 485.13091 
z
" clip-path="url(#p657dd80ef3)" style="fill: #4169e1"/>
   </g>
   <g id="patch_29">
    <path d="M 560.976616 320.002256 
L 572.602344 320.002256 
L 572.602344 482.687215 
L 560.976616 482.687215 
z
" clip-path="url(#p657dd80ef3)" style="fill: #4169e1"/>
   </g>
   <g id="patch_30">
    <path d="M 575.508776 320.002256 
L 587.134504 320.002256 
L 587.134504 479.922585 
L 575.508776 479.922585 
z
" clip-path="url(#p657dd80ef3)" style="fill: #4169e1"/>
   </g>
   <g id="patch_31">
    <path d="M 590.040936 320.002256 
L 601.666664 320.002256 
L 601.666664 476.837019 
L 590.040936 476.837019 
z
" clip-path="url(#p657dd80ef3)" style="fill: #4169e1"/>
   </g>
   <g id="patch_32">
    <path d="M 604.573096 320.002256 
L 616.198824 320.002256 
L 616.198824 473.430518 
L 604.573096 473.430518 
z
" clip-path="url(#p657dd80ef3)" style="fill: #4169e1"/>
   </g>
   <g id="patch_33">
    <path d="M 619.105256 320.002256 
L 630.730984 320.002256 
L 630.730984 469.703082 
L 619.105256 469.703082 
z
" clip-path="url(#p657dd80ef3)" style="fill: #4169e1"/>
   </g>
   <g id="patch_34">
    <path d="M 633.637416 320.002256 
L 645.263144 320.002256 
L 645.263144 465.654709 
L 633.637416 465.654709 
z
" clip-path="url(#p657dd80ef3)" style="fill: #4169e1"/>
   </g>
   <g id="patch_35">
    <path d="M 648.169576 320.002256 
L 659.795304 320.002256 
L 659.795304 461.296864 
L 648.169576 461.296864 
z
" clip-path="url(#p657dd80ef3)" style="fill: #4169e1"/>
   </g>
   <g id="patch_36">
    <path d="M 662.701736 320.002256 
L 674.327464 320.002256 
L 674.327464 456.618083 
L 662.701736 456.618083 
z
" clip-path="url(#p657dd80ef3)" style="fill: #4169e1"/>
   </g>
   <g id="patch_37">
    <path d="M 677.233896 320.002256 
L 688.859624 320.002256 
L 688.859624 451.618366 
L 677.233896 451.618366 
z
" clip-path="url(#p657dd80ef3)" style="fill: #4169e1"/>
   </g>
   <g id="patch_38">
    <path d="M 691.766056 320.002256 
L 703.391784 320.002256 
L 703.391784 448.59011 
L 691.766056 448.59011 
z
" clip-path="url(#p657dd80ef3)" style="fill: #4169e1"/>
   </g>
   <g id="patch_39">
    <path d="M 706.298216 320.002256 
L 717.923944 320.002256 
L 717.923944 442.93706 
L 706.298216 442.93706 
z
" clip-path="url(#p657dd80ef3)" style="fill: #4169e1"/>
   </g>
   <g id="patch_40">
    <path d="M 720.830376 320.002256 
L 732.456104 320.002256 
L 732.456104 436.963075 
L 720.830376 436.963075 
z
" clip-path="url(#p657dd80ef3)" style="fill: #4169e1"/>
   </g>
   <g id="patch_41">
    <path d="M 735.362536 320.002256 
L 746.988264 320.002256 
L 746.988264 430.668154 
L 735.362536 430.668154 
z
" clip-path="url(#p657dd80ef3)" style="fill: #4169e1"/>
   </g>
   <g id="patch_42">
    <path d="M 749.894696 320.002256 
L 761.520424 320.002256 
L 761.520424 424.052298 
L 749.894696 424.052298 
z
" clip-path="url(#p657dd80ef3)" style="fill: #4169e1"/>
   </g>
   <g id="patch_43">
    <path d="M 764.426856 320.002256 
L 776.052584 320.002256 
L 776.052584 417.115506 
L 764.426856 417.115506 
z
" clip-path="url(#p657dd80ef3)" style="fill: #4169e1"/>
   </g>
   <g id="patch_44">
    <path d="M 778.959016 320.002256 
L 790.584744 320.002256 
L 790.584744 409.857779 
L 778.959016 409.857779 
z
" clip-path="url(#p657dd80ef3)" style="fill: #4169e1"/>
   </g>
   <g id="patch_45">
    <path d="M 793.491176 320.002256 
L 805.116904 320.002256 
L 805.116904 402.279116 
L 793.491176 402.279116 
z
" clip-path="url(#p657dd80ef3)" style="fill: #4169e1"/>
   </g>
   <g id="patch_46">
    <path d="M 808.023336 320.002256 
L 819.649064 320.002256 
L 819.649064 394.379518 
L 808.023336 394.379518 
z
" clip-path="url(#p657dd80ef3)" style="fill: #4169e1"/>
   </g>
   <g id="patch_47">
    <path d="M 822.555496 320.002256 
L 834.181224 320.002256 
L 834.181224 386.158984 
L 822.555496 386.158984 
z
" clip-path="url(#p657dd80ef3)" style="fill: #4169e1"/>
   </g>
   <g id="patch_48">
    <path d="M 837.087656 320.002256 
L 848.713384 320.002256 
L 848.713384 377.617515 
L 837.087656 377.617515 
z
" clip-path="url(#p657dd80ef3)" style="fill: #4169e1"/>
   </g>
   <g id="patch_49">
    <path d="M 851.619816 320.002256 
L 863.245544 320.002256 
L 863.245544 368.75511 
L 851.619816 368.75511 
z
" clip-path="url(#p657dd80ef3)" style="fill: #4169e1"/>
   </g>
   <g id="patch_50">
    <path d="M 866.151976 320.002256 
L 877.777704 320.002256 
L 877.777704 361.864166 
L 866.151976 361.864166 
z
" clip-path="url(#p657dd80ef3)" style="fill: #4169e1"/>
   </g>
   <g id="patch_51">
    <path d="M 880.684136 320.002256 
L 892.309865 320.002256 
L 892.309865 352.359891 
L 880.684136 352.359891 
z
" clip-path="url(#p657dd80ef3)" style="fill: #4169e1"/>
   </g>
   <g id="patch_52">
    <path d="M 895.216297 320.002256 
L 906.842025 320.002256 
L 906.842025 342.534679 
L 895.216297 342.534679 
z
" clip-path="url(#p657dd80ef3)" style="fill: #4169e1"/>
   </g>
   <g id="patch_53">
    <path d="M 909.748457 320.002256 
L 921.374185 320.002256 
L 921.374185 332.388532 
L 909.748457 332.388532 
z
" clip-path="url(#p657dd80ef3)" style="fill: #4169e1"/>
   </g>
   <g id="patch_54">
    <path d="M 924.280617 320.002256 
L 935.906345 320.002256 
L 935.906345 321.92145 
L 924.280617 321.92145 
z
" clip-path="url(#p657dd80ef3)" style="fill: #4169e1"/>
   </g>
   <g id="patch_55">
    <path d="M 938.812777 320.002256 
L 950.438505 320.002256 
L 950.438505 311.133432 
L 938.812777 311.133432 
z
" clip-path="url(#p657dd80ef3)" style="fill: #4169e1"/>
   </g>
   <g id="patch_56">
    <path d="M 953.344937 320.002256 
L 964.970665 320.002256 
L 964.970665 300.024479 
L 953.344937 300.024479 
z
" clip-path="url(#p657dd80ef3)" style="fill: #4169e1"/>
   </g>
   <g id="patch_57">
    <path d="M 967.877097 320.002256 
L 979.502825 320.002256 
L 979.502825 288.59459 
L 967.877097 288.59459 
z
" clip-path="url(#p657dd80ef3)" style="fill: #4169e1"/>
   </g>
   <g id="patch_58">
    <path d="M 982.409257 320.002256 
L 994.034985 320.002256 
L 994.034985 276.843766 
L 982.409257 276.843766 
z
" clip-path="url(#p657dd80ef3)" style="fill: #4169e1"/>
   </g>
   <g id="patch_59">
    <path d="M 996.941417 320.002256 
L 1008.567145 320.002256 
L 1008.567145 264.772006 
L 996.941417 264.772006 
z
" clip-path="url(#p657dd80ef3)" style="fill: #4169e1"/>
   </g>
   <g id="patch_60">
    <path d="M 1011.473577 320.002256 
L 1023.099305 320.002256 
L 1023.099305 252.37931 
L 1011.473577 252.37931 
z
" clip-path="url(#p657dd80ef3)" style="fill: #4169e1"/>
   </g>
   <g id="patch_61">
    <path d="M 1026.005737 320.002256 
L 1037.631465 320.002256 
L 1037.631465 239.66568 
L 1026.005737 239.66568 
z
" clip-path="url(#p657dd80ef3)" style="fill: #4169e1"/>
   </g>
   <g id="patch_62">
    <path d="M 1040.537897 320.002256 
L 1052.163625 320.002256 
L 1052.163625 228.92351 
L 1040.537897 228.92351 
z
" clip-path="url(#p657dd80ef3)" style="fill: #4169e1"/>
   </g>
   <g id="patch_63">
    <path d="M 1055.070057 320.002256 
L 1066.695785 320.002256 
L 1066.695785 215.568008 
L 1055.070057 215.568008 
z
" clip-path="url(#p657dd80ef3)" style="fill: #4169e1"/>
   </g>
   <g id="patch_64">
    <path d="M 1069.602217 320.002256 
L 1081.227945 320.002256 
L 1081.227945 201.89157 
L 1069.602217 201.89157 
z
" clip-path="url(#p657dd80ef3)" style="fill: #4169e1"/>
   </g>
   <g id="patch_65">
    <path d="M 1084.134377 320.002256 
L 1095.760105 320.002256 
L 1095.760105 187.894197 
L 1084.134377 187.894197 
z
" clip-path="url(#p657dd80ef3)" style="fill: #4169e1"/>
   </g>
   <g id="patch_66">
    <path d="M 1098.666537 320.002256 
L 1110.292265 320.002256 
L 1110.292265 173.575889 
L 1098.666537 173.575889 
z
" clip-path="url(#p657dd80ef3)" style="fill: #4169e1"/>
   </g>
   <g id="patch_67">
    <path d="M 1113.198697 320.002256 
L 1124.824425 320.002256 
L 1124.824425 159.257581 
L 1113.198697 159.257581 
z
" clip-path="url(#p657dd80ef3)" style="fill: #4169e1"/>
   </g>
   <g id="patch_68">
    <path d="M 1127.730857 320.002256 
L 1139.356585 320.002256 
L 1139.356585 144.939272 
L 1127.730857 144.939272 
z
" clip-path="url(#p657dd80ef3)" style="fill: #4169e1"/>
   </g>
   <g id="patch_69">
    <path d="M 1142.263017 320.002256 
L 1153.888745 320.002256 
L 1153.888745 130.620964 
L 1142.263017 130.620964 
z
" clip-path="url(#p657dd80ef3)" style="fill: #4169e1"/>
   </g>
   <g id="patch_70">
    <path d="M 1156.795177 320.002256 
L 1168.420905 320.002256 
L 1168.420905 116.302655 
L 1156.795177 116.302655 
z
" clip-path="url(#p657dd80ef3)" style="fill: #4169e1"/>
   </g>
   <g id="patch_71">
    <path d="M 1171.327337 320.002256 
L 1182.953065 320.002256 
L 1182.953065 101.984347 
L 1171.327337 101.984347 
z
" clip-path="url(#p657dd80ef3)" style="fill: #4169e1"/>
   </g>
   <g id="patch_72">
    <path d="M 1185.859497 320.002256 
L 1197.485225 320.002256 
L 1197.485225 87.666039 
L 1185.859497 87.666039 
z
" clip-path="url(#p657dd80ef3)" style="fill: #4169e1"/>
   </g>
   <g id="patch_73">
    <path d="M 1200.391657 320.002256 
L 1212.017385 320.002256 
L 1212.017385 73.34773 
L 1200.391657 73.34773 
z
" clip-path="url(#p657dd80ef3)" style="fill: #4169e1"/>
   </g>
   <g id="patch_74">
    <path d="M 1214.923817 320.002256 
L 1226.549545 320.002256 
L 1226.549545 61.321818 
L 1214.923817 61.321818 
z
" clip-path="url(#p657dd80ef3)" style="fill: #4169e1"/>
   </g>
   <g id="matplotlib.axis_1">
    <g id="xtick_1">
     <g id="line2d_1">
      <path d="M 174.421159 512.44 
L 174.421159 39.84 
" clip-path="url(#p657dd80ef3)" style="fill: none; stroke-dasharray: 2.96,1.28; stroke-dashoffset: 0; stroke: #b0b0b0; stroke-opacity: 0.5; stroke-width: 0.8"/>
     </g>
     <g id="line2d_2">
      <defs>
       <path id="m10710db80c" d="M 0 0 
L 0 3.5 
" style="stroke: #000000; stroke-width: 0.8"/>
      </defs>
      <g>
       <use xlink:href="#m10710db80c" x="174.421159" y="512.44" style="stroke: #000000; stroke-width: 0.8"/>
      </g>
     </g>
     <g id="text_1">
      <!-- 0 -->
      <g transform="translate(169.331159 531.5975) scale(0.16 -0.16)">
       <defs>
        <path id="DejaVuSans-30" d="M 2034 4250 
Q 1547 4250 1301 3770 
Q 1056 3291 1056 2328 
Q 1056 1369 1301 889 
Q 1547 409 2034 409 
Q 2525 409 2770 889 
Q 3016 1369 3016 2328 
Q 3016 3291 2770 3770 
Q 2525 4250 2034 4250 
z
M 2034 4750 
Q 2819 4750 3233 4129 
Q 3647 3509 3647 2328 
Q 3647 1150 3233 529 
Q 2819 -91 2034 -91 
Q 1250 -91 836 529 
Q 422 1150 422 2328 
Q 422 3509 836 4129 
Q 1250 4750 2034 4750 
z
" transform="scale(0.015625)"/>
       </defs>
       <use xlink:href="#DejaVuSans-30"/>
      </g>
     </g>
    </g>
    <g id="xtick_2">
     <g id="line2d_3">
      <path d="M 319.742759 512.44 
L 319.742759 39.84 
" clip-path="url(#p657dd80ef3)" style="fill: none; stroke-dasharray: 2.96,1.28; stroke-dashoffset: 0; stroke: #b0b0b0; stroke-opacity: 0.5; stroke-width: 0.8"/>
     </g>
     <g id="line2d_4">
      <g>
       <use xlink:href="#m10710db80c" x="319.742759" y="512.44" style="stroke: #000000; stroke-width: 0.8"/>
      </g>
     </g>
     <g id="text_2">
      <!-- 10 -->
      <g transform="translate(309.562759 531.5975) scale(0.16 -0.16)">
       <defs>
        <path id="DejaVuSans-31" d="M 794 531 
L 1825 531 
L 1825 4091 
L 703 3866 
L 703 4441 
L 1819 4666 
L 2450 4666 
L 2450 531 
L 3481 531 
L 3481 0 
L 794 0 
L 794 531 
z
" transform="scale(0.015625)"/>
       </defs>
       <use xlink:href="#DejaVuSans-31"/>
       <use xlink:href="#DejaVuSans-30" x="63.623047"/>
      </g>
     </g>
    </g>
    <g id="xtick_3">
     <g id="line2d_5">
      <path d="M 465.064359 512.44 
L 465.064359 39.84 
" clip-path="url(#p657dd80ef3)" style="fill: none; stroke-dasharray: 2.96,1.28; stroke-dashoffset: 0; stroke: #b0b0b0; stroke-opacity: 0.5; stroke-width: 0.8"/>
     </g>
     <g id="line2d_6">
      <g>
       <use xlink:href="#m10710db80c" x="465.064359" y="512.44" style="stroke: #000000; stroke-width: 0.8"/>
      </g>
     </g>
     <g id="text_3">
      <!-- 20 -->
      <g transform="translate(454.884359 531.5975) scale(0.16 -0.16)">
       <defs>
        <path id="DejaVuSans-32" d="M 1228 531 
L 3431 531 
L 3431 0 
L 469 0 
L 469 531 
Q 828 903 1448 1529 
Q 2069 2156 2228 2338 
Q 2531 2678 2651 2914 
Q 2772 3150 2772 3378 
Q 2772 3750 2511 3984 
Q 2250 4219 1831 4219 
Q 1534 4219 1204 4116 
Q 875 4013 500 3803 
L 500 4441 
Q 881 4594 1212 4672 
Q 1544 4750 1819 4750 
Q 2544 4750 2975 4387 
Q 3406 4025 3406 3419 
Q 3406 3131 3298 2873 
Q 3191 2616 2906 2266 
Q 2828 2175 2409 1742 
Q 1991 1309 1228 531 
z
" transform="scale(0.015625)"/>
       </defs>
       <use xlink:href="#DejaVuSans-32"/>
       <use xlink:href="#DejaVuSans-30" x="63.623047"/>
      </g>
     </g>
    </g>
    <g id="xtick_4">
     <g id="line2d_7">
      <path d="M 610.38596 512.44 
L 610.38596 39.84 
" clip-path="url(#p657dd80ef3)" style="fill: none; stroke-dasharray: 2.96,1.28; stroke-dashoffset: 0; stroke: #b0b0b0; stroke-opacity: 0.5; stroke-width: 0.8"/>
     </g>
     <g id="line2d_8">
      <g>
       <use xlink:href="#m10710db80c" x="610.38596" y="512.44" style="stroke: #000000; stroke-width: 0.8"/>
      </g>
     </g>
     <g id="text_4">
      <!-- 30 -->
      <g transform="translate(600.20596 531.5975) scale(0.16 -0.16)">
       <defs>
        <path id="DejaVuSans-33" d="M 2597 2516 
Q 3050 2419 3304 2112 
Q 3559 1806 3559 1356 
Q 3559 666 3084 287 
Q 2609 -91 1734 -91 
Q 1441 -91 1130 -33 
Q 819 25 488 141 
L 488 750 
Q 750 597 1062 519 
Q 1375 441 1716 441 
Q 2309 441 2620 675 
Q 2931 909 2931 1356 
Q 2931 1769 2642 2001 
Q 2353 2234 1838 2234 
L 1294 2234 
L 1294 2753 
L 1863 2753 
Q 2328 2753 2575 2939 
Q 2822 3125 2822 3475 
Q 2822 3834 2567 4026 
Q 2313 4219 1838 4219 
Q 1578 4219 1281 4162 
Q 984 4106 628 3988 
L 628 4550 
Q 988 4650 1302 4700 
Q 1616 4750 1894 4750 
Q 2613 4750 3031 4423 
Q 3450 4097 3450 3541 
Q 3450 3153 3228 2886 
Q 3006 2619 2597 2516 
z
" transform="scale(0.015625)"/>
       </defs>
       <use xlink:href="#DejaVuSans-33"/>
       <use xlink:href="#DejaVuSans-30" x="63.623047"/>
      </g>
     </g>
    </g>
    <g id="xtick_5">
     <g id="line2d_9">
      <path d="M 755.70756 512.44 
L 755.70756 39.84 
" clip-path="url(#p657dd80ef3)" style="fill: none; stroke-dasharray: 2.96,1.28; stroke-dashoffset: 0; stroke: #b0b0b0; stroke-opacity: 0.5; stroke-width: 0.8"/>
     </g>
     <g id="line2d_10">
      <g>
       <use xlink:href="#m10710db80c" x="755.70756" y="512.44" style="stroke: #000000; stroke-width: 0.8"/>
      </g>
     </g>
     <g id="text_5">
      <!-- 40 -->
      <g transform="translate(745.52756 531.5975) scale(0.16 -0.16)">
       <defs>
        <path id="DejaVuSans-34" d="M 2419 4116 
L 825 1625 
L 2419 1625 
L 2419 4116 
z
M 2253 4666 
L 3047 4666 
L 3047 1625 
L 3713 1625 
L 3713 1100 
L 3047 1100 
L 3047 0 
L 2419 0 
L 2419 1100 
L 313 1100 
L 313 1709 
L 2253 4666 
z
" transform="scale(0.015625)"/>
       </defs>
       <use xlink:href="#DejaVuSans-34"/>
       <use xlink:href="#DejaVuSans-30" x="63.623047"/>
      </g>
     </g>
    </g>
    <g id="xtick_6">
     <g id="line2d_11">
      <path d="M 901.029161 512.44 
L 901.029161 39.84 
" clip-path="url(#p657dd80ef3)" style="fill: none; stroke-dasharray: 2.96,1.28; stroke-dashoffset: 0; stroke: #b0b0b0; stroke-opacity: 0.5; stroke-width: 0.8"/>
     </g>
     <g id="line2d_12">
      <g>
       <use xlink:href="#m10710db80c" x="901.029161" y="512.44" style="stroke: #000000; stroke-width: 0.8"/>
      </g>
     </g>
     <g id="text_6">
      <!-- 50 -->
      <g transform="translate(890.849161 531.5975) scale(0.16 -0.16)">
       <defs>
        <path id="DejaVuSans-35" d="M 691 4666 
L 3169 4666 
L 3169 4134 
L 1269 4134 
L 1269 2991 
Q 1406 3038 1543 3061 
Q 1681 3084 1819 3084 
Q 2600 3084 3056 2656 
Q 3513 2228 3513 1497 
Q 3513 744 3044 326 
Q 2575 -91 1722 -91 
Q 1428 -91 1123 -41 
Q 819 9 494 109 
L 494 744 
Q 775 591 1075 516 
Q 1375 441 1709 441 
Q 2250 441 2565 725 
Q 2881 1009 2881 1497 
Q 2881 1984 2565 2268 
Q 2250 2553 1709 2553 
Q 1456 2553 1204 2497 
Q 953 2441 691 2322 
L 691 4666 
z
" transform="scale(0.015625)"/>
       </defs>
       <use xlink:href="#DejaVuSans-35"/>
       <use xlink:href="#DejaVuSans-30" x="63.623047"/>
      </g>
     </g>
    </g>
    <g id="xtick_7">
     <g id="line2d_13">
      <path d="M 1046.350761 512.44 
L 1046.350761 39.84 
" clip-path="url(#p657dd80ef3)" style="fill: none; stroke-dasharray: 2.96,1.28; stroke-dashoffset: 0; stroke: #b0b0b0; stroke-opacity: 0.5; stroke-width: 0.8"/>
     </g>
     <g id="line2d_14">
      <g>
       <use xlink:href="#m10710db80c" x="1046.350761" y="512.44" style="stroke: #000000; stroke-width: 0.8"/>
      </g>
     </g>
     <g id="text_7">
      <!-- 60 -->
      <g transform="translate(1036.170761 531.5975) scale(0.16 -0.16)">
       <defs>
        <path id="DejaVuSans-36" d="M 2113 2584 
Q 1688 2584 1439 2293 
Q 1191 2003 1191 1497 
Q 1191 994 1439 701 
Q 1688 409 2113 409 
Q 2538 409 2786 701 
Q 3034 994 3034 1497 
Q 3034 2003 2786 2293 
Q 2538 2584 2113 2584 
z
M 3366 4563 
L 3366 3988 
Q 3128 4100 2886 4159 
Q 2644 4219 2406 4219 
Q 1781 4219 1451 3797 
Q 1122 3375 1075 2522 
Q 1259 2794 1537 2939 
Q 1816 3084 2150 3084 
Q 2853 3084 3261 2657 
Q 3669 2231 3669 1497 
Q 3669 778 3244 343 
Q 2819 -91 2113 -91 
Q 1303 -91 875 529 
Q 447 1150 447 2328 
Q 447 3434 972 4092 
Q 1497 4750 2381 4750 
Q 2619 4750 2861 4703 
Q 3103 4656 3366 4563 
z
" transform="scale(0.015625)"/>
       </defs>
       <use xlink:href="#DejaVuSans-36"/>
       <use xlink:href="#DejaVuSans-30" x="63.623047"/>
      </g>
     </g>
    </g>
    <g id="xtick_8">
     <g id="line2d_15">
      <path d="M 1191.672361 512.44 
L 1191.672361 39.84 
" clip-path="url(#p657dd80ef3)" style="fill: none; stroke-dasharray: 2.96,1.28; stroke-dashoffset: 0; stroke: #b0b0b0; stroke-opacity: 0.5; stroke-width: 0.8"/>
     </g>
     <g id="line2d_16">
      <g>
       <use xlink:href="#m10710db80c" x="1191.672361" y="512.44" style="stroke: #000000; stroke-width: 0.8"/>
      </g>
     </g>
     <g id="text_8">
      <!-- 70 -->
      <g transform="translate(1181.492361 531.5975) scale(0.16 -0.16)">
       <defs>
        <path id="DejaVuSans-37" d="M 525 4666 
L 3525 4666 
L 3525 4397 
L 1831 0 
L 1172 0 
L 2766 4134 
L 525 4134 
L 525 4666 
z
" transform="scale(0.015625)"/>
       </defs>
       <use xlink:href="#DejaVuSans-37"/>
       <use xlink:href="#DejaVuSans-30" x="63.623047"/>
      </g>
     </g>
    </g>
    <g id="text_9">
     <!-- Meses -->
     <g transform="translate(670.356562 555.641562) scale(0.22 -0.22)">
      <defs>
       <path id="DejaVuSans-4d" d="M 628 4666 
L 1569 4666 
L 2759 1491 
L 3956 4666 
L 4897 4666 
L 4897 0 
L 4281 0 
L 4281 4097 
L 3078 897 
L 2444 897 
L 1241 4097 
L 1241 0 
L 628 0 
L 628 4666 
z
" transform="scale(0.015625)"/>
       <path id="DejaVuSans-65" d="M 3597 1894 
L 3597 1613 
L 953 1613 
Q 991 1019 1311 708 
Q 1631 397 2203 397 
Q 2534 397 2845 478 
Q 3156 559 3463 722 
L 3463 178 
Q 3153 47 2828 -22 
Q 2503 -91 2169 -91 
Q 1331 -91 842 396 
Q 353 884 353 1716 
Q 353 2575 817 3079 
Q 1281 3584 2069 3584 
Q 2775 3584 3186 3129 
Q 3597 2675 3597 1894 
z
M 3022 2063 
Q 3016 2534 2758 2815 
Q 2500 3097 2075 3097 
Q 1594 3097 1305 2825 
Q 1016 2553 972 2059 
L 3022 2063 
z
" transform="scale(0.015625)"/>
       <path id="DejaVuSans-73" d="M 2834 3397 
L 2834 2853 
Q 2591 2978 2328 3040 
Q 2066 3103 1784 3103 
Q 1356 3103 1142 2972 
Q 928 2841 928 2578 
Q 928 2378 1081 2264 
Q 1234 2150 1697 2047 
L 1894 2003 
Q 2506 1872 2764 1633 
Q 3022 1394 3022 966 
Q 3022 478 2636 193 
Q 2250 -91 1575 -91 
Q 1294 -91 989 -36 
Q 684 19 347 128 
L 347 722 
Q 666 556 975 473 
Q 1284 391 1588 391 
Q 1994 391 2212 530 
Q 2431 669 2431 922 
Q 2431 1156 2273 1281 
Q 2116 1406 1581 1522 
L 1381 1569 
Q 847 1681 609 1914 
Q 372 2147 372 2553 
Q 372 3047 722 3315 
Q 1072 3584 1716 3584 
Q 2034 3584 2315 3537 
Q 2597 3491 2834 3397 
z
" transform="scale(0.015625)"/>
      </defs>
      <use xlink:href="#DejaVuSans-4d"/>
      <use xlink:href="#DejaVuSans-65" x="86.279297"/>
      <use xlink:href="#DejaVuSans-73" x="147.802734"/>
      <use xlink:href="#DejaVuSans-65" x="199.902344"/>
      <use xlink:href="#DejaVuSans-73" x="261.425781"/>
     </g>
    </g>
   </g>
   <g id="matplotlib.axis_2">
    <g id="ytick_1">
     <g id="line2d_17">
      <path d="M 130.97 491.931992 
L 1278.72 491.931992 
" clip-path="url(#p657dd80ef3)" style="fill: none; stroke-dasharray: 2.96,1.28; stroke-dashoffset: 0; stroke: #b0b0b0; stroke-opacity: 0.5; stroke-width: 0.8"/>
     </g>
     <g id="line2d_18">
      <defs>
       <path id="mb5615a63c3" d="M 0 0 
L -3.5 0 
" style="stroke: #000000; stroke-width: 0.8"/>
      </defs>
      <g>
       <use xlink:href="#mb5615a63c3" x="130.97" y="491.931992" style="stroke: #000000; stroke-width: 0.8"/>
      </g>
     </g>
     <g id="text_10">
      <!-- −750,000 -->
      <g transform="translate(44.3975 498.010742) scale(0.16 -0.16)">
       <defs>
        <path id="DejaVuSans-2212" d="M 678 2272 
L 4684 2272 
L 4684 1741 
L 678 1741 
L 678 2272 
z
" transform="scale(0.015625)"/>
        <path id="DejaVuSans-2c" d="M 750 794 
L 1409 794 
L 1409 256 
L 897 -744 
L 494 -744 
L 750 256 
L 750 794 
z
" transform="scale(0.015625)"/>
       </defs>
       <use xlink:href="#DejaVuSans-2212"/>
       <use xlink:href="#DejaVuSans-37" x="83.789062"/>
       <use xlink:href="#DejaVuSans-35" x="147.412109"/>
       <use xlink:href="#DejaVuSans-30" x="211.035156"/>
       <use xlink:href="#DejaVuSans-2c" x="274.658203"/>
       <use xlink:href="#DejaVuSans-30" x="306.445312"/>
       <use xlink:href="#DejaVuSans-30" x="370.068359"/>
       <use xlink:href="#DejaVuSans-30" x="433.691406"/>
      </g>
     </g>
    </g>
    <g id="ytick_2">
     <g id="line2d_19">
      <path d="M 130.97 434.62208 
L 1278.72 434.62208 
" clip-path="url(#p657dd80ef3)" style="fill: none; stroke-dasharray: 2.96,1.28; stroke-dashoffset: 0; stroke: #b0b0b0; stroke-opacity: 0.5; stroke-width: 0.8"/>
     </g>
     <g id="line2d_20">
      <g>
       <use xlink:href="#mb5615a63c3" x="130.97" y="434.62208" style="stroke: #000000; stroke-width: 0.8"/>
      </g>
     </g>
     <g id="text_11">
      <!-- −500,000 -->
      <g transform="translate(44.3975 440.70083) scale(0.16 -0.16)">
       <use xlink:href="#DejaVuSans-2212"/>
       <use xlink:href="#DejaVuSans-35" x="83.789062"/>
       <use xlink:href="#DejaVuSans-30" x="147.412109"/>
       <use xlink:href="#DejaVuSans-30" x="211.035156"/>
       <use xlink:href="#DejaVuSans-2c" x="274.658203"/>
       <use xlink:href="#DejaVuSans-30" x="306.445312"/>
       <use xlink:href="#DejaVuSans-30" x="370.068359"/>
       <use xlink:href="#DejaVuSans-30" x="433.691406"/>
      </g>
     </g>
    </g>
    <g id="ytick_3">
     <g id="line2d_21">
      <path d="M 130.97 377.312168 
L 1278.72 377.312168 
" clip-path="url(#p657dd80ef3)" style="fill: none; stroke-dasharray: 2.96,1.28; stroke-dashoffset: 0; stroke: #b0b0b0; stroke-opacity: 0.5; stroke-width: 0.8"/>
     </g>
     <g id="line2d_22">
      <g>
       <use xlink:href="#mb5615a63c3" x="130.97" y="377.312168" style="stroke: #000000; stroke-width: 0.8"/>
      </g>
     </g>
     <g id="text_12">
      <!-- −250,000 -->
      <g transform="translate(44.3975 383.390918) scale(0.16 -0.16)">
       <use xlink:href="#DejaVuSans-2212"/>
       <use xlink:href="#DejaVuSans-32" x="83.789062"/>
       <use xlink:href="#DejaVuSans-35" x="147.412109"/>
       <use xlink:href="#DejaVuSans-30" x="211.035156"/>
       <use xlink:href="#DejaVuSans-2c" x="274.658203"/>
       <use xlink:href="#DejaVuSans-30" x="306.445312"/>
       <use xlink:href="#DejaVuSans-30" x="370.068359"/>
       <use xlink:href="#DejaVuSans-30" x="433.691406"/>
      </g>
     </g>
    </g>
    <g id="ytick_4">
     <g id="line2d_23">
      <path d="M 130.97 320.002256 
L 1278.72 320.002256 
" clip-path="url(#p657dd80ef3)" style="fill: none; stroke-dasharray: 2.96,1.28; stroke-dashoffset: 0; stroke: #b0b0b0; stroke-opacity: 0.5; stroke-width: 0.8"/>
     </g>
     <g id="line2d_24">
      <g>
       <use xlink:href="#mb5615a63c3" x="130.97" y="320.002256" style="stroke: #000000; stroke-width: 0.8"/>
      </g>
     </g>
     <g id="text_13">
      <!-- 0 -->
      <g transform="translate(113.79 326.081006) scale(0.16 -0.16)">
       <use xlink:href="#DejaVuSans-30"/>
      </g>
     </g>
    </g>
    <g id="ytick_5">
     <g id="line2d_25">
      <path d="M 130.97 262.692344 
L 1278.72 262.692344 
" clip-path="url(#p657dd80ef3)" style="fill: none; stroke-dasharray: 2.96,1.28; stroke-dashoffset: 0; stroke: #b0b0b0; stroke-opacity: 0.5; stroke-width: 0.8"/>
     </g>
     <g id="line2d_26">
      <g>
       <use xlink:href="#mb5615a63c3" x="130.97" y="262.692344" style="stroke: #000000; stroke-width: 0.8"/>
      </g>
     </g>
     <g id="text_14">
      <!-- 250,000 -->
      <g transform="translate(57.805 268.771094) scale(0.16 -0.16)">
       <use xlink:href="#DejaVuSans-32"/>
       <use xlink:href="#DejaVuSans-35" x="63.623047"/>
       <use xlink:href="#DejaVuSans-30" x="127.246094"/>
       <use xlink:href="#DejaVuSans-2c" x="190.869141"/>
       <use xlink:href="#DejaVuSans-30" x="222.65625"/>
       <use xlink:href="#DejaVuSans-30" x="286.279297"/>
       <use xlink:href="#DejaVuSans-30" x="349.902344"/>
      </g>
     </g>
    </g>
    <g id="ytick_6">
     <g id="line2d_27">
      <path d="M 130.97 205.382432 
L 1278.72 205.382432 
" clip-path="url(#p657dd80ef3)" style="fill: none; stroke-dasharray: 2.96,1.28; stroke-dashoffset: 0; stroke: #b0b0b0; stroke-opacity: 0.5; stroke-width: 0.8"/>
     </g>
     <g id="line2d_28">
      <g>
       <use xlink:href="#mb5615a63c3" x="130.97" y="205.382432" style="stroke: #000000; stroke-width: 0.8"/>
      </g>
     </g>
     <g id="text_15">
      <!-- 500,000 -->
      <g transform="translate(57.805 211.461182) scale(0.16 -0.16)">
       <use xlink:href="#DejaVuSans-35"/>
       <use xlink:href="#DejaVuSans-30" x="63.623047"/>
       <use xlink:href="#DejaVuSans-30" x="127.246094"/>
       <use xlink:href="#DejaVuSans-2c" x="190.869141"/>
       <use xlink:href="#DejaVuSans-30" x="222.65625"/>
       <use xlink:href="#DejaVuSans-30" x="286.279297"/>
       <use xlink:href="#DejaVuSans-30" x="349.902344"/>
      </g>
     </g>
    </g>
    <g id="ytick_7">
     <g id="line2d_29">
      <path d="M 130.97 148.07252 
L 1278.72 148.07252 
" clip-path="url(#p657dd80ef3)" style="fill: none; stroke-dasharray: 2.96,1.28; stroke-dashoffset: 0; stroke: #b0b0b0; stroke-opacity: 0.5; stroke-width: 0.8"/>
     </g>
     <g id="line2d_30">
      <g>
       <use xlink:href="#mb5615a63c3" x="130.97" y="148.07252" style="stroke: #000000; stroke-width: 0.8"/>
      </g>
     </g>
     <g id="text_16">
      <!-- 750,000 -->
      <g transform="translate(57.805 154.15127) scale(0.16 -0.16)">
       <use xlink:href="#DejaVuSans-37"/>
       <use xlink:href="#DejaVuSans-35" x="63.623047"/>
       <use xlink:href="#DejaVuSans-30" x="127.246094"/>
       <use xlink:href="#DejaVuSans-2c" x="190.869141"/>
       <use xlink:href="#DejaVuSans-30" x="222.65625"/>
       <use xlink:href="#DejaVuSans-30" x="286.279297"/>
       <use xlink:href="#DejaVuSans-30" x="349.902344"/>
      </g>
     </g>
    </g>
    <g id="ytick_8">
     <g id="line2d_31">
      <path d="M 130.97 90.762608 
L 1278.72 90.762608 
" clip-path="url(#p657dd80ef3)" style="fill: none; stroke-dasharray: 2.96,1.28; stroke-dashoffset: 0; stroke: #b0b0b0; stroke-opacity: 0.5; stroke-width: 0.8"/>
     </g>
     <g id="line2d_32">
      <g>
       <use xlink:href="#mb5615a63c3" x="130.97" y="90.762608" style="stroke: #000000; stroke-width: 0.8"/>
      </g>
     </g>
     <g id="text_17">
      <!-- 1,000,000 -->
      <g transform="translate(42.54 96.841358) scale(0.16 -0.16)">
       <use xlink:href="#DejaVuSans-31"/>
       <use xlink:href="#DejaVuSans-2c" x="63.623047"/>
       <use xlink:href="#DejaVuSans-30" x="95.410156"/>
       <use xlink:href="#DejaVuSans-30" x="159.033203"/>
       <use xlink:href="#DejaVuSans-30" x="222.65625"/>
       <use xlink:href="#DejaVuSans-2c" x="286.279297"/>
       <use xlink:href="#DejaVuSans-30" x="318.066406"/>
       <use xlink:href="#DejaVuSans-30" x="381.689453"/>
       <use xlink:href="#DejaVuSans-30" x="445.3125"/>
      </g>
     </g>
    </g>
    <g id="text_18">
     <!-- Saldo Acumulado (R$) -->
     <g transform="translate(33.964688 398.399844) rotate(-90) scale(0.22 -0.22)">
      <defs>
       <path id="DejaVuSans-53" d="M 3425 4513 
L 3425 3897 
Q 3066 4069 2747 4153 
Q 2428 4238 2131 4238 
Q 1616 4238 1336 4038 
Q 1056 3838 1056 3469 
Q 1056 3159 1242 3001 
Q 1428 2844 1947 2747 
L 2328 2669 
Q 3034 2534 3370 2195 
Q 3706 1856 3706 1288 
Q 3706 609 3251 259 
Q 2797 -91 1919 -91 
Q 1588 -91 1214 -16 
Q 841 59 441 206 
L 441 856 
Q 825 641 1194 531 
Q 1563 422 1919 422 
Q 2459 422 2753 634 
Q 3047 847 3047 1241 
Q 3047 1584 2836 1778 
Q 2625 1972 2144 2069 
L 1759 2144 
Q 1053 2284 737 2584 
Q 422 2884 422 3419 
Q 422 4038 858 4394 
Q 1294 4750 2059 4750 
Q 2388 4750 2728 4690 
Q 3069 4631 3425 4513 
z
" transform="scale(0.015625)"/>
       <path id="DejaVuSans-61" d="M 2194 1759 
Q 1497 1759 1228 1600 
Q 959 1441 959 1056 
Q 959 750 1161 570 
Q 1363 391 1709 391 
Q 2188 391 2477 730 
Q 2766 1069 2766 1631 
L 2766 1759 
L 2194 1759 
z
M 3341 1997 
L 3341 0 
L 2766 0 
L 2766 531 
Q 2569 213 2275 61 
Q 1981 -91 1556 -91 
Q 1019 -91 701 211 
Q 384 513 384 1019 
Q 384 1609 779 1909 
Q 1175 2209 1959 2209 
L 2766 2209 
L 2766 2266 
Q 2766 2663 2505 2880 
Q 2244 3097 1772 3097 
Q 1472 3097 1187 3025 
Q 903 2953 641 2809 
L 641 3341 
Q 956 3463 1253 3523 
Q 1550 3584 1831 3584 
Q 2591 3584 2966 3190 
Q 3341 2797 3341 1997 
z
" transform="scale(0.015625)"/>
       <path id="DejaVuSans-6c" d="M 603 4863 
L 1178 4863 
L 1178 0 
L 603 0 
L 603 4863 
z
" transform="scale(0.015625)"/>
       <path id="DejaVuSans-64" d="M 2906 2969 
L 2906 4863 
L 3481 4863 
L 3481 0 
L 2906 0 
L 2906 525 
Q 2725 213 2448 61 
Q 2172 -91 1784 -91 
Q 1150 -91 751 415 
Q 353 922 353 1747 
Q 353 2572 751 3078 
Q 1150 3584 1784 3584 
Q 2172 3584 2448 3432 
Q 2725 3281 2906 2969 
z
M 947 1747 
Q 947 1113 1208 752 
Q 1469 391 1925 391 
Q 2381 391 2643 752 
Q 2906 1113 2906 1747 
Q 2906 2381 2643 2742 
Q 2381 3103 1925 3103 
Q 1469 3103 1208 2742 
Q 947 2381 947 1747 
z
" transform="scale(0.015625)"/>
       <path id="DejaVuSans-6f" d="M 1959 3097 
Q 1497 3097 1228 2736 
Q 959 2375 959 1747 
Q 959 1119 1226 758 
Q 1494 397 1959 397 
Q 2419 397 2687 759 
Q 2956 1122 2956 1747 
Q 2956 2369 2687 2733 
Q 2419 3097 1959 3097 
z
M 1959 3584 
Q 2709 3584 3137 3096 
Q 3566 2609 3566 1747 
Q 3566 888 3137 398 
Q 2709 -91 1959 -91 
Q 1206 -91 779 398 
Q 353 888 353 1747 
Q 353 2609 779 3096 
Q 1206 3584 1959 3584 
z
" transform="scale(0.015625)"/>
       <path id="DejaVuSans-20" transform="scale(0.015625)"/>
       <path id="DejaVuSans-41" d="M 2188 4044 
L 1331 1722 
L 3047 1722 
L 2188 4044 
z
M 1831 4666 
L 2547 4666 
L 4325 0 
L 3669 0 
L 3244 1197 
L 1141 1197 
L 716 0 
L 50 0 
L 1831 4666 
z
" transform="scale(0.015625)"/>
       <path id="DejaVuSans-63" d="M 3122 3366 
L 3122 2828 
Q 2878 2963 2633 3030 
Q 2388 3097 2138 3097 
Q 1578 3097 1268 2742 
Q 959 2388 959 1747 
Q 959 1106 1268 751 
Q 1578 397 2138 397 
Q 2388 397 2633 464 
Q 2878 531 3122 666 
L 3122 134 
Q 2881 22 2623 -34 
Q 2366 -91 2075 -91 
Q 1284 -91 818 406 
Q 353 903 353 1747 
Q 353 2603 823 3093 
Q 1294 3584 2113 3584 
Q 2378 3584 2631 3529 
Q 2884 3475 3122 3366 
z
" transform="scale(0.015625)"/>
       <path id="DejaVuSans-75" d="M 544 1381 
L 544 3500 
L 1119 3500 
L 1119 1403 
Q 1119 906 1312 657 
Q 1506 409 1894 409 
Q 2359 409 2629 706 
Q 2900 1003 2900 1516 
L 2900 3500 
L 3475 3500 
L 3475 0 
L 2900 0 
L 2900 538 
Q 2691 219 2414 64 
Q 2138 -91 1772 -91 
Q 1169 -91 856 284 
Q 544 659 544 1381 
z
M 1991 3584 
L 1991 3584 
z
" transform="scale(0.015625)"/>
       <path id="DejaVuSans-6d" d="M 3328 2828 
Q 3544 3216 3844 3400 
Q 4144 3584 4550 3584 
Q 5097 3584 5394 3201 
Q 5691 2819 5691 2113 
L 5691 0 
L 5113 0 
L 5113 2094 
Q 5113 2597 4934 2840 
Q 4756 3084 4391 3084 
Q 3944 3084 3684 2787 
Q 3425 2491 3425 1978 
L 3425 0 
L 2847 0 
L 2847 2094 
Q 2847 2600 2669 2842 
Q 2491 3084 2119 3084 
Q 1678 3084 1418 2786 
Q 1159 2488 1159 1978 
L 1159 0 
L 581 0 
L 581 3500 
L 1159 3500 
L 1159 2956 
Q 1356 3278 1631 3431 
Q 1906 3584 2284 3584 
Q 2666 3584 2933 3390 
Q 3200 3197 3328 2828 
z
" transform="scale(0.015625)"/>
       <path id="DejaVuSans-28" d="M 1984 4856 
Q 1566 4138 1362 3434 
Q 1159 2731 1159 2009 
Q 1159 1288 1364 580 
Q 1569 -128 1984 -844 
L 1484 -844 
Q 1016 -109 783 600 
Q 550 1309 550 2009 
Q 550 2706 781 3412 
Q 1013 4119 1484 4856 
L 1984 4856 
z
" transform="scale(0.015625)"/>
       <path id="DejaVuSans-52" d="M 2841 2188 
Q 3044 2119 3236 1894 
Q 3428 1669 3622 1275 
L 4263 0 
L 3584 0 
L 2988 1197 
Q 2756 1666 2539 1819 
Q 2322 1972 1947 1972 
L 1259 1972 
L 1259 0 
L 628 0 
L 628 4666 
L 2053 4666 
Q 2853 4666 3247 4331 
Q 3641 3997 3641 3322 
Q 3641 2881 3436 2590 
Q 3231 2300 2841 2188 
z
M 1259 4147 
L 1259 2491 
L 2053 2491 
Q 2509 2491 2742 2702 
Q 2975 2913 2975 3322 
Q 2975 3731 2742 3939 
Q 2509 4147 2053 4147 
L 1259 4147 
z
" transform="scale(0.015625)"/>
       <path id="DejaVuSans-24" d="M 2163 -941 
L 1850 -941 
L 1847 0 
Q 1519 6 1191 76 
Q 863 147 531 288 
L 531 850 
Q 850 650 1176 548 
Q 1503 447 1850 444 
L 1850 1869 
Q 1159 1981 845 2250 
Q 531 2519 531 2988 
Q 531 3497 872 3790 
Q 1213 4084 1850 4128 
L 1850 4863 
L 2163 4863 
L 2163 4138 
Q 2453 4125 2725 4076 
Q 2997 4028 3256 3944 
L 3256 3397 
Q 2997 3528 2723 3600 
Q 2450 3672 2163 3684 
L 2163 2350 
Q 2872 2241 3206 1959 
Q 3541 1678 3541 1191 
Q 3541 663 3186 358 
Q 2831 53 2163 6 
L 2163 -941 
z
M 1850 2406 
L 1850 3688 
Q 1488 3647 1297 3481 
Q 1106 3316 1106 3041 
Q 1106 2772 1282 2622 
Q 1459 2472 1850 2406 
z
M 2163 1806 
L 2163 453 
Q 2559 506 2761 678 
Q 2963 850 2963 1131 
Q 2963 1406 2770 1568 
Q 2578 1731 2163 1806 
z
" transform="scale(0.015625)"/>
       <path id="DejaVuSans-29" d="M 513 4856 
L 1013 4856 
Q 1481 4119 1714 3412 
Q 1947 2706 1947 2009 
Q 1947 1309 1714 600 
Q 1481 -109 1013 -844 
L 513 -844 
Q 928 -128 1133 580 
Q 1338 1288 1338 2009 
Q 1338 2731 1133 3434 
Q 928 4138 513 4856 
z
" transform="scale(0.015625)"/>
      </defs>
      <use xlink:href="#DejaVuSans-53"/>
      <use xlink:href="#DejaVuSans-61" x="63.476562"/>
      <use xlink:href="#DejaVuSans-6c" x="124.755859"/>
      <use xlink:href="#DejaVuSans-64" x="152.539062"/>
      <use xlink:href="#DejaVuSans-6f" x="216.015625"/>
      <use xlink:href="#DejaVuSans-20" x="277.197266"/>
      <use xlink:href="#DejaVuSans-41" x="308.984375"/>
      <use xlink:href="#DejaVuSans-63" x="375.642578"/>
      <use xlink:href="#DejaVuSans-75" x="430.623047"/>
      <use xlink:href="#DejaVuSans-6d" x="494.001953"/>
      <use xlink:href="#DejaVuSans-75" x="591.414062"/>
      <use xlink:href="#DejaVuSans-6c" x="654.792969"/>
      <use xlink:href="#DejaVuSans-61" x="682.576172"/>
      <use xlink:href="#DejaVuSans-64" x="743.855469"/>
      <use xlink:href="#DejaVuSans-6f" x="807.332031"/>
      <use xlink:href="#DejaVuSans-20" x="868.513672"/>
      <use xlink:href="#DejaVuSans-28" x="900.300781"/>
      <use xlink:href="#DejaVuSans-52" x="939.314453"/>
      <use xlink:href="#DejaVuSans-24" x="1008.796875"/>
      <use xlink:href="#DejaVuSans-29" x="1072.419922"/>
     </g>
    </g>
   </g>
   <g id="line2d_33">
    <path d="M 944.625641 512.44 
L 944.625641 39.84 
" clip-path="url(#p657dd80ef3)" style="fill: none; stroke-dasharray: 5.55,2.4; stroke-dashoffset: 0; stroke: #008000; stroke-width: 1.5"/>
   </g>
   <g id="patch_75">
    <path d="M 130.97 512.44 
L 130.97 39.84 
" style="fill: none; stroke: #000000; stroke-width: 0.8; stroke-linejoin: miter; stroke-linecap: square"/>
   </g>
   <g id="patch_76">
    <path d="M 1278.72 512.44 
L 1278.72 39.84 
" style="fill: none; stroke: #000000; stroke-width: 0.8; stroke-linejoin: miter; stroke-linecap: square"/>
   </g>
   <g id="patch_77">
    <path d="M 130.97 512.44 
L 1278.72 512.44 
" style="fill: none; stroke: #000000; stroke-width: 0.8; stroke-linejoin: miter; stroke-linecap: square"/>
   </g>
   <g id="patch_78">
    <path d="M 130.97 39.84 
L 1278.72 39.84 
" style="fill: none; stroke: #000000; stroke-width: 0.8; stroke-linejoin: miter; stroke-linecap: square"/>
   </g>
   <g id="text_19">
    <!-- Payback 53 meses, VPL=R$ 295,529.46, TIR=25.28% a.a. -->
    <g transform="translate(385.2675 33.84) scale(0.22 -0.22)">
     <defs>
      <path id="DejaVuSans-50" d="M 1259 4147 
L 1259 2394 
L 2053 2394 
Q 2494 2394 2734 2622 
Q 2975 2850 2975 3272 
Q 2975 3691 2734 3919 
Q 2494 4147 2053 4147 
L 1259 4147 
z
M 628 4666 
L 2053 4666 
Q 2838 4666 3239 4311 
Q 3641 3956 3641 3272 
Q 3641 2581 3239 2228 
Q 2838 1875 2053 1875 
L 1259 1875 
L 1259 0 
L 628 0 
L 628 4666 
z
" transform="scale(0.015625)"/>
      <path id="DejaVuSans-79" d="M 2059 -325 
Q 1816 -950 1584 -1140 
Q 1353 -1331 966 -1331 
L 506 -1331 
L 506 -850 
L 844 -850 
Q 1081 -850 1212 -737 
Q 1344 -625 1503 -206 
L 1606 56 
L 191 3500 
L 800 3500 
L 1894 763 
L 2988 3500 
L 3597 3500 
L 2059 -325 
z
" transform="scale(0.015625)"/>
      <path id="DejaVuSans-62" d="M 3116 1747 
Q 3116 2381 2855 2742 
Q 2594 3103 2138 3103 
Q 1681 3103 1420 2742 
Q 1159 2381 1159 1747 
Q 1159 1113 1420 752 
Q 1681 391 2138 391 
Q 2594 391 2855 752 
Q 3116 1113 3116 1747 
z
M 1159 2969 
Q 1341 3281 1617 3432 
Q 1894 3584 2278 3584 
Q 2916 3584 3314 3078 
Q 3713 2572 3713 1747 
Q 3713 922 3314 415 
Q 2916 -91 2278 -91 
Q 1894 -91 1617 61 
Q 1341 213 1159 525 
L 1159 0 
L 581 0 
L 581 4863 
L 1159 4863 
L 1159 2969 
z
" transform="scale(0.015625)"/>
      <path id="DejaVuSans-6b" d="M 581 4863 
L 1159 4863 
L 1159 1991 
L 2875 3500 
L 3609 3500 
L 1753 1863 
L 3688 0 
L 2938 0 
L 1159 1709 
L 1159 0 
L 581 0 
L 581 4863 
z
" transform="scale(0.015625)"/>
      <path id="DejaVuSans-56" d="M 1831 0 
L 50 4666 
L 709 4666 
L 2188 738 
L 3669 4666 
L 4325 4666 
L 2547 0 
L 1831 0 
z
" transform="scale(0.015625)"/>
      <path id="DejaVuSans-4c" d="M 628 4666 
L 1259 4666 
L 1259 531 
L 3531 531 
L 3531 0 
L 628 0 
L 628 4666 
z
" transform="scale(0.015625)"/>
      <path id="DejaVuSans-3d" d="M 678 2906 
L 4684 2906 
L 4684 2381 
L 678 2381 
L 678 2906 
z
M 678 1631 
L 4684 1631 
L 4684 1100 
L 678 1100 
L 678 1631 
z
" transform="scale(0.015625)"/>
      <path id="DejaVuSans-39" d="M 703 97 
L 703 672 
Q 941 559 1184 500 
Q 1428 441 1663 441 
Q 2288 441 2617 861 
Q 2947 1281 2994 2138 
Q 2813 1869 2534 1725 
Q 2256 1581 1919 1581 
Q 1219 1581 811 2004 
Q 403 2428 403 3163 
Q 403 3881 828 4315 
Q 1253 4750 1959 4750 
Q 2769 4750 3195 4129 
Q 3622 3509 3622 2328 
Q 3622 1225 3098 567 
Q 2575 -91 1691 -91 
Q 1453 -91 1209 -44 
Q 966 3 703 97 
z
M 1959 2075 
Q 2384 2075 2632 2365 
Q 2881 2656 2881 3163 
Q 2881 3666 2632 3958 
Q 2384 4250 1959 4250 
Q 1534 4250 1286 3958 
Q 1038 3666 1038 3163 
Q 1038 2656 1286 2365 
Q 1534 2075 1959 2075 
z
" transform="scale(0.015625)"/>
      <path id="DejaVuSans-2e" d="M 684 794 
L 1344 794 
L 1344 0 
L 684 0 
L 684 794 
z
" transform="scale(0.015625)"/>
      <path id="DejaVuSans-54" d="M -19 4666 
L 3928 4666 
L 3928 4134 
L 2272 4134 
L 2272 0 
L 1638 0 
L 1638 4134 
L -19 4134 
L -19 4666 
z
" transform="scale(0.015625)"/>
      <path id="DejaVuSans-49" d="M 628 4666 
L 1259 4666 
L 1259 0 
L 628 0 
L 628 4666 
z
" transform="scale(0.015625)"/>
      <path id="DejaVuSans-38" d="M 2034 2216 
Q 1584 2216 1326 1975 
Q 1069 1734 1069 1313 
Q 1069 891 1326 650 
Q 1584 409 2034 409 
Q 2484 409 2743 651 
Q 3003 894 3003 1313 
Q 3003 1734 2745 1975 
Q 2488 2216 2034 2216 
z
M 1403 2484 
Q 997 2584 770 2862 
Q 544 3141 544 3541 
Q 544 4100 942 4425 
Q 1341 4750 2034 4750 
Q 2731 4750 3128 4425 
Q 3525 4100 3525 3541 
Q 3525 3141 3298 2862 
Q 3072 2584 2669 2484 
Q 3125 2378 3379 2068 
Q 3634 1759 3634 1313 
Q 3634 634 3220 271 
Q 2806 -91 2034 -91 
Q 1263 -91 848 271 
Q 434 634 434 1313 
Q 434 1759 690 2068 
Q 947 2378 1403 2484 
z
M 1172 3481 
Q 1172 3119 1398 2916 
Q 1625 2713 2034 2713 
Q 2441 2713 2670 2916 
Q 2900 3119 2900 3481 
Q 2900 3844 2670 4047 
Q 2441 4250 2034 4250 
Q 1625 4250 1398 4047 
Q 1172 3844 1172 3481 
z
" transform="scale(0.015625)"/>
      <path id="DejaVuSans-25" d="M 4653 2053 
Q 4381 2053 4226 1822 
Q 4072 1591 4072 1178 
Q 4072 772 4226 539 
Q 4381 306 4653 306 
Q 4919 306 5073 539 
Q 5228 772 5228 1178 
Q 5228 1588 5073 1820 
Q 4919 2053 4653 2053 
z
M 4653 2450 
Q 5147 2450 5437 2106 
Q 5728 1763 5728 1178 
Q 5728 594 5436 251 
Q 5144 -91 4653 -91 
Q 4153 -91 3862 251 
Q 3572 594 3572 1178 
Q 3572 1766 3864 2108 
Q 4156 2450 4653 2450 
z
M 1428 4353 
Q 1159 4353 1004 4120 
Q 850 3888 850 3481 
Q 850 3069 1003 2837 
Q 1156 2606 1428 2606 
Q 1700 2606 1854 2837 
Q 2009 3069 2009 3481 
Q 2009 3884 1853 4118 
Q 1697 4353 1428 4353 
z
M 4250 4750 
L 4750 4750 
L 1831 -91 
L 1331 -91 
L 4250 4750 
z
M 1428 4750 
Q 1922 4750 2215 4408 
Q 2509 4066 2509 3481 
Q 2509 2891 2217 2550 
Q 1925 2209 1428 2209 
Q 931 2209 642 2551 
Q 353 2894 353 3481 
Q 353 4063 643 4406 
Q 934 4750 1428 4750 
z
" transform="scale(0.015625)"/>
     </defs>
     <use xlink:href="#DejaVuSans-50"/>
     <use xlink:href="#DejaVuSans-61" x="55.802734"/>
     <use xlink:href="#DejaVuSans-79" x="117.082031"/>
     <use xlink:href="#DejaVuSans-62" x="176.261719"/>
     <use xlink:href="#DejaVuSans-61" x="239.738281"/>
     <use xlink:href="#DejaVuSans-63" x="301.017578"/>
     <use xlink:href="#DejaVuSans-6b" x="355.998047"/>
     <use xlink:href="#DejaVuSans-20" x="413.908203"/>
     <use xlink:href="#DejaVuSans-35" x="445.695312"/>
     <use xlink:href="#DejaVuSans-33" x="509.318359"/>
     <use xlink:href="#DejaVuSans-20" x="572.941406"/>
     <use xlink:href="#DejaVuSans-6d" x="604.728516"/>
     <use xlink:href="#DejaVuSans-65" x="702.140625"/>
     <use xlink:href="#DejaVuSans-73" x="763.664062"/>
     <use xlink:href="#DejaVuSans-65" x="815.763672"/>
     <use xlink:href="#DejaVuSans-73" x="877.287109"/>
     <use xlink:href="#DejaVuSans-2c" x="929.386719"/>
     <use xlink:href="#DejaVuSans-20" x="961.173828"/>
     <use xlink:href="#DejaVuSans-56" x="992.960938"/>
     <use xlink:href="#DejaVuSans-50" x="1061.369141"/>
     <use xlink:href="#DejaVuSans-4c" x="1121.671875"/>
     <use xlink:href="#DejaVuSans-3d" x="1177.384766"/>
     <use xlink:href="#DejaVuSans-52" x="1261.173828"/>
     <use xlink:href="#DejaVuSans-24" x="1330.65625"/>
     <use xlink:href="#DejaVuSans-20" x="1394.279297"/>
     <use xlink:href="#DejaVuSans-32" x="1426.066406"/>
     <use xlink:href="#DejaVuSans-39" x="1489.689453"/>
     <use xlink:href="#DejaVuSans-35" x="1553.3125"/>
     <use xlink:href="#DejaVuSans-2c" x="1616.935547"/>
     <use xlink:href="#DejaVuSans-35" x="1648.722656"/>
     <use xlink:href="#DejaVuSans-32" x="1712.345703"/>
     <use xlink:href="#DejaVuSans-39" x="1775.96875"/>
     <use xlink:href="#DejaVuSans-2e" x="1839.591797"/>
     <use xlink:href="#DejaVuSans-34" x="1871.378906"/>
     <use xlink:href="#DejaVuSans-36" x="1935.001953"/>
     <use xlink:href="#DejaVuSans-2c" x="1998.625"/>
     <use xlink:href="#DejaVuSans-20" x="2030.412109"/>
     <use xlink:href="#DejaVuSans-54" x="2062.199219"/>
     <use xlink:href="#DejaVuSans-49" x="2123.283203"/>
     <use xlink:href="#DejaVuSans-52" x="2152.775391"/>
     <use xlink:href="#DejaVuSans-3d" x="2222.257812"/>
     <use xlink:href="#DejaVuSans-32" x="2306.046875"/>
     <use xlink:href="#DejaVuSans-35" x="2369.669922"/>
     <use xlink:href="#DejaVuSans-2e" x="2433.292969"/>
     <use xlink:href="#DejaVuSans-32" x="2465.080078"/>
     <use xlink:href="#DejaVuSans-38" x="2528.703125"/>
     <use xlink:href="#DejaVuSans-25" x="2592.326172"/>
     <use xlink:href="#DejaVuSans-20" x="2687.345703"/>
     <use xlink:href="#DejaVuSans-61" x="2719.132812"/>
     <use xlink:href="#DejaVuSans-2e" x="2780.412109"/>
     <use xlink:href="#DejaVuSans-61" x="2812.199219"/>
     <use xlink:href="#DejaVuSans-2e" x="2873.478516"/>
    </g>
   </g>
   <g id="legend_1">
    <g id="patch_79">
     <path d="M 142.17 99.61 
L 332.335 99.61 
Q 335.535 99.61 335.535 96.41 
L 335.535 51.04 
Q 335.535 47.84 332.335 47.84 
L 142.17 47.84 
Q 138.97 47.84 138.97 51.04 
L 138.97 96.41 
Q 138.97 99.61 142.17 99.61 
z
" style="fill: #ffffff; opacity: 0.8; stroke: #cccccc; stroke-linejoin: miter"/>
    </g>
    <g id="line2d_34">
     <path d="M 145.37 60.7975 
L 161.37 60.7975 
L 177.37 60.7975 
" style="fill: none; stroke-dasharray: 5.55,2.4; stroke-dashoffset: 0; stroke: #008000; stroke-width: 1.5"/>
    </g>
    <g id="text_20">
     <!-- Payback: M53 -->
     <g transform="translate(190.17 66.3975) scale(0.16 -0.16)">
      <defs>
       <path id="DejaVuSans-3a" d="M 750 794 
L 1409 794 
L 1409 0 
L 750 0 
L 750 794 
z
M 750 3309 
L 1409 3309 
L 1409 2516 
L 750 2516 
L 750 3309 
z
" transform="scale(0.015625)"/>
      </defs>
      <use xlink:href="#DejaVuSans-50"/>
      <use xlink:href="#DejaVuSans-61" x="55.802734"/>
      <use xlink:href="#DejaVuSans-79" x="117.082031"/>
      <use xlink:href="#DejaVuSans-62" x="176.261719"/>
      <use xlink:href="#DejaVuSans-61" x="239.738281"/>
      <use xlink:href="#DejaVuSans-63" x="301.017578"/>
      <use xlink:href="#DejaVuSans-6b" x="355.998047"/>
      <use xlink:href="#DejaVuSans-3a" x="413.908203"/>
      <use xlink:href="#DejaVuSans-20" x="447.599609"/>
      <use xlink:href="#DejaVuSans-4d" x="479.386719"/>
      <use xlink:href="#DejaVuSans-35" x="565.666016"/>
      <use xlink:href="#DejaVuSans-33" x="629.289062"/>
     </g>
    </g>
    <g id="patch_80">
     <path d="M 145.37 89.8825 
L 177.37 89.8825 
L 177.37 78.6825 
L 145.37 78.6825 
z
" style="fill: #4169e1"/>
    </g>
    <g id="text_21">
     <!-- Saldo Acumulado -->
     <g transform="translate(190.17 89.8825) scale(0.16 -0.16)">
      <use xlink:href="#DejaVuSans-53"/>
      <use xlink:href="#DejaVuSans-61" x="63.476562"/>
      <use xlink:href="#DejaVuSans-6c" x="124.755859"/>
      <use xlink:href="#DejaVuSans-64" x="152.539062"/>
      <use xlink:href="#DejaVuSans-6f" x="216.015625"/>
      <use xlink:href="#DejaVuSans-20" x="277.197266"/>
      <use xlink:href="#DejaVuSans-41" x="308.984375"/>
      <use xlink:href="#DejaVuSans-63" x="375.642578"/>
      <use xlink:href="#DejaVuSans-75" x="430.623047"/>
      <use xlink:href="#DejaVuSans-6d" x="494.001953"/>
      <use xlink:href="#DejaVuSans-75" x="591.414062"/>
      <use xlink:href="#DejaVuSans-6c" x="654.792969"/>
      <use xlink:href="#DejaVuSans-61" x="682.576172"/>
      <use xlink:href="#DejaVuSans-64" x="743.855469"/>
      <use xlink:href="#DejaVuSans-6f" x="807.332031"/>
     </g>
    </g>
   </g>
  </g>
 </g>
 <defs>
  <clipPath id="p657dd80ef3">
   <rect x="130.97" y="39.84" width="1147.75" height="472.6"/>
  </clipPath>
 </defs>
</svg>
