<?xml version="1.0" encoding="utf-8" standalone="no"?>
<!DOCTYPE svg PUBLIC "-//W3C//DTD SVG 1.1//EN"
  "http://www.w3.org/Graphics/SVG/1.1/DTD/svg11.dtd">
<svg xmlns:xlink="http://www.w3.org/1999/xlink" width="720pt" height="288pt" viewBox="0 0 720 288" xmlns="http://www.w3.org/2000/svg" version="1.1">
 <metadata>
  <rdf:RDF xmlns:dc="http://purl.org/dc/elements/1.1/" xmlns:cc="http://creativecommons.org/ns#" xmlns:rdf="http://www.w3.org/1999/02/22-rdf-syntax-ns#">
   <cc:Work>
    <dc:type rdf:resource="http://purl.org/dc/dcmitype/StillImage"/>
    <dc:date>2025-07-27T15:08:48.216781</dc:date>
    <dc:format>image/svg+xml</dc:format>
    <dc:creator>
     <cc:Agent>
      <dc:title>Matplotlib v3.9.2, https://matplotlib.org/</dc:title>
     </cc:Agent>
    </dc:creator>
   </cc:Work>
  </rdf:RDF>
 </metadata>
 <defs>
  <style type="text/css">*{stroke-linejoin: round; stroke-linecap: butt}</style>
 </defs>
 <g id="figure_1">
  <g id="patch_1">
   <path d="M 0 288 
L 720 288 
L 720 0 
L 0 0 
z
" style="fill: #ffffff"/>
  </g>
  <g id="axes_1">
   <g id="patch_2">
    <path d="M 54.02 246.04 
L 709.2 246.04 
L 709.2 26.88 
L 54.02 26.88 
z
" style="fill: #ffffff"/>
   </g>
   <g id="matplotlib.axis_1">
    <g id="xtick_1">
     <g id="line2d_1">
      <path d="M 83.800909 246.04 
L 83.800909 26.88 
" clip-path="url(#pe895eefacc)" style="fill: none; stroke: #b0b0b0; stroke-width: 0.8; stroke-linecap: square"/>
     </g>
     <g id="line2d_2">
      <defs>
       <path id="m77cbcfe95b" d="M 0 0 
L 0 3.5 
" style="stroke: #000000; stroke-width: 0.8"/>
      </defs>
      <g>
       <use xlink:href="#m77cbcfe95b" x="83.800909" y="246.04" style="stroke: #000000; stroke-width: 0.8"/>
      </g>
     </g>
     <g id="text_1">
      <!-- 0 -->
      <g transform="translate(80.619659 260.638438) scale(0.1 -0.1)">
       <defs>
        <path id="DejaVuSans-30" d="M 2034 4250 
Q 1547 4250 1301 3770 
Q 1056 3291 1056 2328 
Q 1056 1369 1301 889 
Q 1547 409 2034 409 
Q 2525 409 2770 889 
Q 3016 1369 3016 2328 
Q 3016 3291 2770 3770 
Q 2525 4250 2034 4250 
z
M 2034 4750 
Q 2819 4750 3233 4129 
Q 3647 3509 3647 2328 
Q 3647 1150 3233 529 
Q 2819 -91 2034 -91 
Q 1250 -91 836 529 
Q 422 1150 422 2328 
Q 422 3509 836 4129 
Q 1250 4750 2034 4750 
z
" transform="scale(0.015625)"/>
       </defs>
       <use xlink:href="#DejaVuSans-30"/>
      </g>
     </g>
    </g>
    <g id="xtick_2">
     <g id="line2d_3">
      <path d="M 228.186195 246.04 
L 228.186195 26.88 
" clip-path="url(#pe895eefacc)" style="fill: none; stroke: #b0b0b0; stroke-width: 0.8; stroke-linecap: square"/>
     </g>
     <g id="line2d_4">
      <g>
       <use xlink:href="#m77cbcfe95b" x="228.186195" y="246.04" style="stroke: #000000; stroke-width: 0.8"/>
      </g>
     </g>
     <g id="text_2">
      <!-- 10000 -->
      <g transform="translate(212.279945 260.638438) scale(0.1 -0.1)">
       <defs>
        <path id="DejaVuSans-31" d="M 794 531 
L 1825 531 
L 1825 4091 
L 703 3866 
L 703 4441 
L 1819 4666 
L 2450 4666 
L 2450 531 
L 3481 531 
L 3481 0 
L 794 0 
L 794 531 
z
" transform="scale(0.015625)"/>
       </defs>
       <use xlink:href="#DejaVuSans-31"/>
       <use xlink:href="#DejaVuSans-30" x="63.623047"/>
       <use xlink:href="#DejaVuSans-30" x="127.246094"/>
       <use xlink:href="#DejaVuSans-30" x="190.869141"/>
       <use xlink:href="#DejaVuSans-30" x="254.492188"/>
      </g>
     </g>
    </g>
    <g id="xtick_3">
     <g id="line2d_5">
      <path d="M 372.571481 246.04 
L 372.571481 26.88 
" clip-path="url(#pe895eefacc)" style="fill: none; stroke: #b0b0b0; stroke-width: 0.8; stroke-linecap: square"/>
     </g>
     <g id="line2d_6">
      <g>
       <use xlink:href="#m77cbcfe95b" x="372.571481" y="246.04" style="stroke: #000000; stroke-width: 0.8"/>
      </g>
     </g>
     <g id="text_3">
      <!-- 20000 -->
      <g transform="translate(356.665231 260.638438) scale(0.1 -0.1)">
       <defs>
        <path id="DejaVuSans-32" d="M 1228 531 
L 3431 531 
L 3431 0 
L 469 0 
L 469 531 
Q 828 903 1448 1529 
Q 2069 2156 2228 2338 
Q 2531 2678 2651 2914 
Q 2772 3150 2772 3378 
Q 2772 3750 2511 3984 
Q 2250 4219 1831 4219 
Q 1534 4219 1204 4116 
Q 875 4013 500 3803 
L 500 4441 
Q 881 4594 1212 4672 
Q 1544 4750 1819 4750 
Q 2544 4750 2975 4387 
Q 3406 4025 3406 3419 
Q 3406 3131 3298 2873 
Q 3191 2616 2906 2266 
Q 2828 2175 2409 1742 
Q 1991 1309 1228 531 
z
" transform="scale(0.015625)"/>
       </defs>
       <use xlink:href="#DejaVuSans-32"/>
       <use xlink:href="#DejaVuSans-30" x="63.623047"/>
       <use xlink:href="#DejaVuSans-30" x="127.246094"/>
       <use xlink:href="#DejaVuSans-30" x="190.869141"/>
       <use xlink:href="#DejaVuSans-30" x="254.492188"/>
      </g>
     </g>
    </g>
    <g id="xtick_4">
     <g id="line2d_7">
      <path d="M 516.956767 246.04 
L 516.956767 26.88 
" clip-path="url(#pe895eefacc)" style="fill: none; stroke: #b0b0b0; stroke-width: 0.8; stroke-linecap: square"/>
     </g>
     <g id="line2d_8">
      <g>
       <use xlink:href="#m77cbcfe95b" x="516.956767" y="246.04" style="stroke: #000000; stroke-width: 0.8"/>
      </g>
     </g>
     <g id="text_4">
      <!-- 30000 -->
      <g transform="translate(501.050517 260.638438) scale(0.1 -0.1)">
       <defs>
        <path id="DejaVuSans-33" d="M 2597 2516 
Q 3050 2419 3304 2112 
Q 3559 1806 3559 1356 
Q 3559 666 3084 287 
Q 2609 -91 1734 -91 
Q 1441 -91 1130 -33 
Q 819 25 488 141 
L 488 750 
Q 750 597 1062 519 
Q 1375 441 1716 441 
Q 2309 441 2620 675 
Q 2931 909 2931 1356 
Q 2931 1769 2642 2001 
Q 2353 2234 1838 2234 
L 1294 2234 
L 1294 2753 
L 1863 2753 
Q 2328 2753 2575 2939 
Q 2822 3125 2822 3475 
Q 2822 3834 2567 4026 
Q 2313 4219 1838 4219 
Q 1578 4219 1281 4162 
Q 984 4106 628 3988 
L 628 4550 
Q 988 4650 1302 4700 
Q 1616 4750 1894 4750 
Q 2613 4750 3031 4423 
Q 3450 4097 3450 3541 
Q 3450 3153 3228 2886 
Q 3006 2619 2597 2516 
z
" transform="scale(0.015625)"/>
       </defs>
       <use xlink:href="#DejaVuSans-33"/>
       <use xlink:href="#DejaVuSans-30" x="63.623047"/>
       <use xlink:href="#DejaVuSans-30" x="127.246094"/>
       <use xlink:href="#DejaVuSans-30" x="190.869141"/>
       <use xlink:href="#DejaVuSans-30" x="254.492188"/>
      </g>
     </g>
    </g>
    <g id="xtick_5">
     <g id="line2d_9">
      <path d="M 661.342053 246.04 
L 661.342053 26.88 
" clip-path="url(#pe895eefacc)" style="fill: none; stroke: #b0b0b0; stroke-width: 0.8; stroke-linecap: square"/>
     </g>
     <g id="line2d_10">
      <g>
       <use xlink:href="#m77cbcfe95b" x="661.342053" y="246.04" style="stroke: #000000; stroke-width: 0.8"/>
      </g>
     </g>
     <g id="text_5">
      <!-- 40000 -->
      <g transform="translate(645.435803 260.638438) scale(0.1 -0.1)">
       <defs>
        <path id="DejaVuSans-34" d="M 2419 4116 
L 825 1625 
L 2419 1625 
L 2419 4116 
z
M 2253 4666 
L 3047 4666 
L 3047 1625 
L 3713 1625 
L 3713 1100 
L 3047 1100 
L 3047 0 
L 2419 0 
L 2419 1100 
L 313 1100 
L 313 1709 
L 2253 4666 
z
" transform="scale(0.015625)"/>
       </defs>
       <use xlink:href="#DejaVuSans-34"/>
       <use xlink:href="#DejaVuSans-30" x="63.623047"/>
       <use xlink:href="#DejaVuSans-30" x="127.246094"/>
       <use xlink:href="#DejaVuSans-30" x="190.869141"/>
       <use xlink:href="#DejaVuSans-30" x="254.492188"/>
      </g>
     </g>
    </g>
    <g id="text_6">
     <!-- Time (s) -->
     <g transform="translate(361.281094 274.316562) scale(0.1 -0.1)">
      <defs>
       <path id="DejaVuSans-54" d="M -19 4666 
L 3928 4666 
L 3928 4134 
L 2272 4134 
L 2272 0 
L 1638 0 
L 1638 4134 
L -19 4134 
L -19 4666 
z
" transform="scale(0.015625)"/>
       <path id="DejaVuSans-69" d="M 603 3500 
L 1178 3500 
L 1178 0 
L 603 0 
L 603 3500 
z
M 603 4863 
L 1178 4863 
L 1178 4134 
L 603 4134 
L 603 4863 
z
" transform="scale(0.015625)"/>
       <path id="DejaVuSans-6d" d="M 3328 2828 
Q 3544 3216 3844 3400 
Q 4144 3584 4550 3584 
Q 5097 3584 5394 3201 
Q 5691 2819 5691 2113 
L 5691 0 
L 5113 0 
L 5113 2094 
Q 5113 2597 4934 2840 
Q 4756 3084 4391 3084 
Q 3944 3084 3684 2787 
Q 3425 2491 3425 1978 
L 3425 0 
L 2847 0 
L 2847 2094 
Q 2847 2600 2669 2842 
Q 2491 3084 2119 3084 
Q 1678 3084 1418 2786 
Q 1159 2488 1159 1978 
L 1159 0 
L 581 0 
L 581 3500 
L 1159 3500 
L 1159 2956 
Q 1356 3278 1631 3431 
Q 1906 3584 2284 3584 
Q 2666 3584 2933 3390 
Q 3200 3197 3328 2828 
z
" transform="scale(0.015625)"/>
       <path id="DejaVuSans-65" d="M 3597 1894 
L 3597 1613 
L 953 1613 
Q 991 1019 1311 708 
Q 1631 397 2203 397 
Q 2534 397 2845 478 
Q 3156 559 3463 722 
L 3463 178 
Q 3153 47 2828 -22 
Q 2503 -91 2169 -91 
Q 1331 -91 842 396 
Q 353 884 353 1716 
Q 353 2575 817 3079 
Q 1281 3584 2069 3584 
Q 2775 3584 3186 3129 
Q 3597 2675 3597 1894 
z
M 3022 2063 
Q 3016 2534 2758 2815 
Q 2500 3097 2075 3097 
Q 1594 3097 1305 2825 
Q 1016 2553 972 2059 
L 3022 2063 
z
" transform="scale(0.015625)"/>
       <path id="DejaVuSans-20" transform="scale(0.015625)"/>
       <path id="DejaVuSans-28" d="M 1984 4856 
Q 1566 4138 1362 3434 
Q 1159 2731 1159 2009 
Q 1159 1288 1364 580 
Q 1569 -128 1984 -844 
L 1484 -844 
Q 1016 -109 783 600 
Q 550 1309 550 2009 
Q 550 2706 781 3412 
Q 1013 4119 1484 4856 
L 1984 4856 
z
" transform="scale(0.015625)"/>
       <path id="DejaVuSans-73" d="M 2834 3397 
L 2834 2853 
Q 2591 2978 2328 3040 
Q 2066 3103 1784 3103 
Q 1356 3103 1142 2972 
Q 928 2841 928 2578 
Q 928 2378 1081 2264 
Q 1234 2150 1697 2047 
L 1894 2003 
Q 2506 1872 2764 1633 
Q 3022 1394 3022 966 
Q 3022 478 2636 193 
Q 2250 -91 1575 -91 
Q 1294 -91 989 -36 
Q 684 19 347 128 
L 347 722 
Q 666 556 975 473 
Q 1284 391 1588 391 
Q 1994 391 2212 530 
Q 2431 669 2431 922 
Q 2431 1156 2273 1281 
Q 2116 1406 1581 1522 
L 1381 1569 
Q 847 1681 609 1914 
Q 372 2147 372 2553 
Q 372 3047 722 3315 
Q 1072 3584 1716 3584 
Q 2034 3584 2315 3537 
Q 2597 3491 2834 3397 
z
" transform="scale(0.015625)"/>
       <path id="DejaVuSans-29" d="M 513 4856 
L 1013 4856 
Q 1481 4119 1714 3412 
Q 1947 2706 1947 2009 
Q 1947 1309 1714 600 
Q 1481 -109 1013 -844 
L 513 -844 
Q 928 -128 1133 580 
Q 1338 1288 1338 2009 
Q 1338 2731 1133 3434 
Q 928 4138 513 4856 
z
" transform="scale(0.015625)"/>
      </defs>
      <use xlink:href="#DejaVuSans-54"/>
      <use xlink:href="#DejaVuSans-69" x="57.958984"/>
      <use xlink:href="#DejaVuSans-6d" x="85.742188"/>
      <use xlink:href="#DejaVuSans-65" x="183.154297"/>
      <use xlink:href="#DejaVuSans-20" x="244.677734"/>
      <use xlink:href="#DejaVuSans-28" x="276.464844"/>
      <use xlink:href="#DejaVuSans-73" x="315.478516"/>
      <use xlink:href="#DejaVuSans-29" x="367.578125"/>
     </g>
    </g>
   </g>
   <g id="matplotlib.axis_2">
    <g id="ytick_1">
     <g id="line2d_11">
      <path d="M 54.02 236.078182 
L 709.2 236.078182 
" clip-path="url(#pe895eefacc)" style="fill: none; stroke: #b0b0b0; stroke-width: 0.8; stroke-linecap: square"/>
     </g>
     <g id="line2d_12">
      <defs>
       <path id="m31c0146789" d="M 0 0 
L -3.5 0 
" style="stroke: #000000; stroke-width: 0.8"/>
      </defs>
      <g>
       <use xlink:href="#m31c0146789" x="54.02" y="236.078182" style="stroke: #000000; stroke-width: 0.8"/>
      </g>
     </g>
     <g id="text_7">
      <!-- 0.00 -->
      <g transform="translate(24.754375 239.877401) scale(0.1 -0.1)">
       <defs>
        <path id="DejaVuSans-2e" d="M 684 794 
L 1344 794 
L 1344 0 
L 684 0 
L 684 794 
z
" transform="scale(0.015625)"/>
       </defs>
       <use xlink:href="#DejaVuSans-30"/>
       <use xlink:href="#DejaVuSans-2e" x="63.623047"/>
       <use xlink:href="#DejaVuSans-30" x="95.410156"/>
       <use xlink:href="#DejaVuSans-30" x="159.033203"/>
      </g>
     </g>
    </g>
    <g id="ytick_2">
     <g id="line2d_13">
      <path d="M 54.02 196.212571 
L 709.2 196.212571 
" clip-path="url(#pe895eefacc)" style="fill: none; stroke: #b0b0b0; stroke-width: 0.8; stroke-linecap: square"/>
     </g>
     <g id="line2d_14">
      <g>
       <use xlink:href="#m31c0146789" x="54.02" y="196.212571" style="stroke: #000000; stroke-width: 0.8"/>
      </g>
     </g>
     <g id="text_8">
      <!-- 0.02 -->
      <g transform="translate(24.754375 200.01179) scale(0.1 -0.1)">
       <use xlink:href="#DejaVuSans-30"/>
       <use xlink:href="#DejaVuSans-2e" x="63.623047"/>
       <use xlink:href="#DejaVuSans-30" x="95.410156"/>
       <use xlink:href="#DejaVuSans-32" x="159.033203"/>
      </g>
     </g>
    </g>
    <g id="ytick_3">
     <g id="line2d_15">
      <path d="M 54.02 156.34696 
L 709.2 156.34696 
" clip-path="url(#pe895eefacc)" style="fill: none; stroke: #b0b0b0; stroke-width: 0.8; stroke-linecap: square"/>
     </g>
     <g id="line2d_16">
      <g>
       <use xlink:href="#m31c0146789" x="54.02" y="156.34696" style="stroke: #000000; stroke-width: 0.8"/>
      </g>
     </g>
     <g id="text_9">
      <!-- 0.04 -->
      <g transform="translate(24.754375 160.146179) scale(0.1 -0.1)">
       <use xlink:href="#DejaVuSans-30"/>
       <use xlink:href="#DejaVuSans-2e" x="63.623047"/>
       <use xlink:href="#DejaVuSans-30" x="95.410156"/>
       <use xlink:href="#DejaVuSans-34" x="159.033203"/>
      </g>
     </g>
    </g>
    <g id="ytick_4">
     <g id="line2d_17">
      <path d="M 54.02 116.481349 
L 709.2 116.481349 
" clip-path="url(#pe895eefacc)" style="fill: none; stroke: #b0b0b0; stroke-width: 0.8; stroke-linecap: square"/>
     </g>
     <g id="line2d_18">
      <g>
       <use xlink:href="#m31c0146789" x="54.02" y="116.481349" style="stroke: #000000; stroke-width: 0.8"/>
      </g>
     </g>
     <g id="text_10">
      <!-- 0.06 -->
      <g transform="translate(24.754375 120.280568) scale(0.1 -0.1)">
       <defs>
        <path id="DejaVuSans-36" d="M 2113 2584 
Q 1688 2584 1439 2293 
Q 1191 2003 1191 1497 
Q 1191 994 1439 701 
Q 1688 409 2113 409 
Q 2538 409 2786 701 
Q 3034 994 3034 1497 
Q 3034 2003 2786 2293 
Q 2538 2584 2113 2584 
z
M 3366 4563 
L 3366 3988 
Q 3128 4100 2886 4159 
Q 2644 4219 2406 4219 
Q 1781 4219 1451 3797 
Q 1122 3375 1075 2522 
Q 1259 2794 1537 2939 
Q 1816 3084 2150 3084 
Q 2853 3084 3261 2657 
Q 3669 2231 3669 1497 
Q 3669 778 3244 343 
Q 2819 -91 2113 -91 
Q 1303 -91 875 529 
Q 447 1150 447 2328 
Q 447 3434 972 4092 
Q 1497 4750 2381 4750 
Q 2619 4750 2861 4703 
Q 3103 4656 3366 4563 
z
" transform="scale(0.015625)"/>
       </defs>
       <use xlink:href="#DejaVuSans-30"/>
       <use xlink:href="#DejaVuSans-2e" x="63.623047"/>
       <use xlink:href="#DejaVuSans-30" x="95.410156"/>
       <use xlink:href="#DejaVuSans-36" x="159.033203"/>
      </g>
     </g>
    </g>
    <g id="ytick_5">
     <g id="line2d_19">
      <path d="M 54.02 76.615738 
L 709.2 76.615738 
" clip-path="url(#pe895eefacc)" style="fill: none; stroke: #b0b0b0; stroke-width: 0.8; stroke-linecap: square"/>
     </g>
     <g id="line2d_20">
      <g>
       <use xlink:href="#m31c0146789" x="54.02" y="76.615738" style="stroke: #000000; stroke-width: 0.8"/>
      </g>
     </g>
     <g id="text_11">
      <!-- 0.08 -->
      <g transform="translate(24.754375 80.414957) scale(0.1 -0.1)">
       <defs>
        <path id="DejaVuSans-38" d="M 2034 2216 
Q 1584 2216 1326 1975 
Q 1069 1734 1069 1313 
Q 1069 891 1326 650 
Q 1584 409 2034 409 
Q 2484 409 2743 651 
Q 3003 894 3003 1313 
Q 3003 1734 2745 1975 
Q 2488 2216 2034 2216 
z
M 1403 2484 
Q 997 2584 770 2862 
Q 544 3141 544 3541 
Q 544 4100 942 4425 
Q 1341 4750 2034 4750 
Q 2731 4750 3128 4425 
Q 3525 4100 3525 3541 
Q 3525 3141 3298 2862 
Q 3072 2584 2669 2484 
Q 3125 2378 3379 2068 
Q 3634 1759 3634 1313 
Q 3634 634 3220 271 
Q 2806 -91 2034 -91 
Q 1263 -91 848 271 
Q 434 634 434 1313 
Q 434 1759 690 2068 
Q 947 2378 1403 2484 
z
M 1172 3481 
Q 1172 3119 1398 2916 
Q 1625 2713 2034 2713 
Q 2441 2713 2670 2916 
Q 2900 3119 2900 3481 
Q 2900 3844 2670 4047 
Q 2441 4250 2034 4250 
Q 1625 4250 1398 4047 
Q 1172 3844 1172 3481 
z
" transform="scale(0.015625)"/>
       </defs>
       <use xlink:href="#DejaVuSans-30"/>
       <use xlink:href="#DejaVuSans-2e" x="63.623047"/>
       <use xlink:href="#DejaVuSans-30" x="95.410156"/>
       <use xlink:href="#DejaVuSans-38" x="159.033203"/>
      </g>
     </g>
    </g>
    <g id="ytick_6">
     <g id="line2d_21">
      <path d="M 54.02 36.750127 
L 709.2 36.750127 
" clip-path="url(#pe895eefacc)" style="fill: none; stroke: #b0b0b0; stroke-width: 0.8; stroke-linecap: square"/>
     </g>
     <g id="line2d_22">
      <g>
       <use xlink:href="#m31c0146789" x="54.02" y="36.750127" style="stroke: #000000; stroke-width: 0.8"/>
      </g>
     </g>
     <g id="text_12">
      <!-- 0.10 -->
      <g transform="translate(24.754375 40.549346) scale(0.1 -0.1)">
       <use xlink:href="#DejaVuSans-30"/>
       <use xlink:href="#DejaVuSans-2e" x="63.623047"/>
       <use xlink:href="#DejaVuSans-31" x="95.410156"/>
       <use xlink:href="#DejaVuSans-30" x="159.033203"/>
      </g>
     </g>
    </g>
    <g id="text_13">
     <!-- Delta Value -->
     <g transform="translate(18.674688 165.120156) rotate(-90) scale(0.1 -0.1)">
      <defs>
       <path id="DejaVuSans-44" d="M 1259 4147 
L 1259 519 
L 2022 519 
Q 2988 519 3436 956 
Q 3884 1394 3884 2338 
Q 3884 3275 3436 3711 
Q 2988 4147 2022 4147 
L 1259 4147 
z
M 628 4666 
L 1925 4666 
Q 3281 4666 3915 4102 
Q 4550 3538 4550 2338 
Q 4550 1131 3912 565 
Q 3275 0 1925 0 
L 628 0 
L 628 4666 
z
" transform="scale(0.015625)"/>
       <path id="DejaVuSans-6c" d="M 603 4863 
L 1178 4863 
L 1178 0 
L 603 0 
L 603 4863 
z
" transform="scale(0.015625)"/>
       <path id="DejaVuSans-74" d="M 1172 4494 
L 1172 3500 
L 2356 3500 
L 2356 3053 
L 1172 3053 
L 1172 1153 
Q 1172 725 1289 603 
Q 1406 481 1766 481 
L 2356 481 
L 2356 0 
L 1766 0 
Q 1100 0 847 248 
Q 594 497 594 1153 
L 594 3053 
L 172 3053 
L 172 3500 
L 594 3500 
L 594 4494 
L 1172 4494 
z
" transform="scale(0.015625)"/>
       <path id="DejaVuSans-61" d="M 2194 1759 
Q 1497 1759 1228 1600 
Q 959 1441 959 1056 
Q 959 750 1161 570 
Q 1363 391 1709 391 
Q 2188 391 2477 730 
Q 2766 1069 2766 1631 
L 2766 1759 
L 2194 1759 
z
M 3341 1997 
L 3341 0 
L 2766 0 
L 2766 531 
Q 2569 213 2275 61 
Q 1981 -91 1556 -91 
Q 1019 -91 701 211 
Q 384 513 384 1019 
Q 384 1609 779 1909 
Q 1175 2209 1959 2209 
L 2766 2209 
L 2766 2266 
Q 2766 2663 2505 2880 
Q 2244 3097 1772 3097 
Q 1472 3097 1187 3025 
Q 903 2953 641 2809 
L 641 3341 
Q 956 3463 1253 3523 
Q 1550 3584 1831 3584 
Q 2591 3584 2966 3190 
Q 3341 2797 3341 1997 
z
" transform="scale(0.015625)"/>
       <path id="DejaVuSans-56" d="M 1831 0 
L 50 4666 
L 709 4666 
L 2188 738 
L 3669 4666 
L 4325 4666 
L 2547 0 
L 1831 0 
z
" transform="scale(0.015625)"/>
       <path id="DejaVuSans-75" d="M 544 1381 
L 544 3500 
L 1119 3500 
L 1119 1403 
Q 1119 906 1312 657 
Q 1506 409 1894 409 
Q 2359 409 2629 706 
Q 2900 1003 2900 1516 
L 2900 3500 
L 3475 3500 
L 3475 0 
L 2900 0 
L 2900 538 
Q 2691 219 2414 64 
Q 2138 -91 1772 -91 
Q 1169 -91 856 284 
Q 544 659 544 1381 
z
M 1991 3584 
L 1991 3584 
z
" transform="scale(0.015625)"/>
      </defs>
      <use xlink:href="#DejaVuSans-44"/>
      <use xlink:href="#DejaVuSans-65" x="77.001953"/>
      <use xlink:href="#DejaVuSans-6c" x="138.525391"/>
      <use xlink:href="#DejaVuSans-74" x="166.308594"/>
      <use xlink:href="#DejaVuSans-61" x="205.517578"/>
      <use xlink:href="#DejaVuSans-20" x="266.796875"/>
      <use xlink:href="#DejaVuSans-56" x="298.583984"/>
      <use xlink:href="#DejaVuSans-61" x="359.242188"/>
      <use xlink:href="#DejaVuSans-6c" x="420.521484"/>
      <use xlink:href="#DejaVuSans-75" x="448.304688"/>
      <use xlink:href="#DejaVuSans-65" x="511.683594"/>
     </g>
    </g>
   </g>
   <g id="line2d_23">
    <path d="M 83.800909 236.078182 
L 84.08968 58.322804 
L 84.176311 235.986491 
L 84.652782 36.841818 
L 84.739413 235.986491 
L 85.533533 36.841818 
L 85.620164 235.986491 
L 86.067758 36.841818 
L 86.154389 235.986491 
L 86.93407 36.841818 
L 87.020701 235.986491 
L 87.396103 36.841818 
L 87.482734 235.986491 
L 87.930328 36.841818 
L 88.016959 235.986491 
L 88.839956 151.481091 
L 88.926587 235.986491 
L 89.301988 121.5306 
L 89.38862 235.986491 
L 89.836214 36.841818 
L 89.922845 235.986491 
L 90.529263 36.841818 
L 90.615895 235.986491 
L 91.04905 36.841818 
L 91.135682 235.986491 
L 91.756538 36.841818 
L 91.84317 235.986491 
L 92.464026 36.841818 
L 92.550657 235.986491 
L 93.185953 36.841818 
L 93.272584 235.986491 
L 93.864564 36.841818 
L 93.951195 235.986491 
L 94.572051 152.150858 
L 94.673121 236.01041 
L 94.774191 235.858921 
L 94.860822 235.994464 
L 95.380609 234.590156 
L 95.481679 236.01041 
L 95.582748 235.539996 
L 95.66938 235.994464 
L 96.246921 235.068543 
L 96.34799 236.01041 
L 96.44906 235.061609 
L 96.535691 235.994464 
L 97.055478 125.495294 
L 97.14211 235.986491 
L 97.575265 36.841818 
L 97.661897 235.986491 
L 98.268315 36.841818 
L 98.354946 235.986491 
L 98.788102 36.841818 
L 98.874733 235.986491 
L 99.481151 36.841818 
L 99.567782 235.986491 
L 99.957623 36.841818 
L 100.044254 235.986491 
L 100.47741 36.841818 
L 100.564041 235.986491 
L 101.170459 36.841818 
L 101.25709 235.986491 
L 101.690246 36.841818 
L 101.776877 235.986491 
L 102.383295 36.841818 
L 102.469927 235.986491 
L 102.859767 36.841818 
L 102.946398 235.986491 
L 103.408431 36.841818 
L 103.495062 235.986491 
L 104.10148 36.841818 
L 104.188111 235.986491 
L 104.621267 36.841818 
L 104.707899 235.986491 
L 105.314317 36.841818 
L 105.400948 235.986491 
L 105.790788 36.841818 
L 105.877419 235.986491 
L 106.310575 36.841818 
L 106.397206 235.986491 
L 107.003625 36.841818 
L 107.090256 235.986491 
L 107.523412 36.841818 
L 107.610043 235.986491 
L 108.216461 36.841818 
L 108.303092 235.986491 
L 108.692932 36.841818 
L 108.779564 235.986491 
L 109.212719 36.841818 
L 109.299351 235.986491 
L 109.905769 36.841818 
L 109.9924 235.986491 
L 110.454433 36.841818 
L 110.541064 235.986491 
L 111.147482 36.841818 
L 111.234113 235.986491 
L 111.623954 36.841818 
L 111.710585 235.986491 
L 112.143741 36.841818 
L 112.230372 235.986491 
L 112.83679 36.841818 
L 112.923421 235.986491 
L 113.356577 36.841818 
L 113.443208 235.986491 
L 114.049627 36.841818 
L 114.136258 235.986491 
L 114.526098 36.841818 
L 114.612729 235.986491 
L 115.045885 36.841818 
L 115.132516 235.986491 
L 115.738934 36.841818 
L 115.825566 235.986491 
L 116.258721 36.841818 
L 116.345353 235.986491 
L 116.951771 36.841818 
L 117.038402 235.986491 
L 117.428242 36.841818 
L 117.514873 235.986491 
L 117.976906 36.841818 
L 118.063537 235.986491 
L 118.669956 36.841818 
L 118.756587 235.986491 
L 119.189743 36.841818 
L 119.276374 235.986491 
L 119.882792 36.841818 
L 119.969423 235.986491 
L 120.359264 36.841818 
L 120.445895 235.986491 
L 120.879051 36.841818 
L 120.965682 235.986491 
L 121.5721 36.841818 
L 121.658731 235.986491 
L 122.091887 36.841818 
L 122.178518 235.986491 
L 122.784936 36.841818 
L 122.871567 235.986491 
L 123.261408 36.841818 
L 123.348039 235.986491 
L 123.781195 36.841818 
L 123.867826 235.986491 
L 124.474244 36.841818 
L 124.560875 235.986491 
L 125.022908 36.841818 
L 125.109539 235.986491 
L 125.715958 36.841818 
L 125.802589 235.986491 
L 126.192429 36.841818 
L 126.27906 235.986491 
L 126.712216 36.841818 
L 126.798847 235.986491 
L 127.405265 36.841818 
L 127.491897 235.986491 
L 127.925052 36.841818 
L 128.011684 235.986491 
L 128.618102 36.841818 
L 128.704733 235.986491 
L 129.094573 36.841818 
L 129.181204 235.986491 
L 129.61436 36.841818 
L 129.700992 235.986491 
L 130.30741 36.841818 
L 130.394041 235.986491 
L 130.827197 36.841818 
L 130.913828 235.986491 
L 131.520246 36.841818 
L 131.606877 235.986491 
L 131.996718 36.841818 
L 132.083349 235.986491 
L 132.545382 36.841818 
L 132.632013 235.986491 
L 133.238431 36.841818 
L 133.325062 235.986491 
L 133.758218 36.841818 
L 133.844849 235.986491 
L 134.451267 36.841818 
L 134.537899 235.986491 
L 134.927739 36.841818 
L 135.01437 235.986491 
L 135.447526 36.841818 
L 135.534157 235.986491 
L 136.140575 36.841818 
L 136.227206 235.986491 
L 136.660362 36.841818 
L 136.746993 235.986491 
L 137.353412 36.841818 
L 137.440043 235.986491 
L 137.829883 36.841818 
L 137.916514 235.986491 
L 138.34967 36.841818 
L 138.436301 235.986491 
L 139.04272 36.841818 
L 139.129351 235.986491 
L 139.591384 36.841818 
L 139.678015 235.986491 
L 140.284433 36.841818 
L 140.371064 235.986491 
L 140.760904 36.841818 
L 140.847536 235.986491 
L 141.280691 36.841818 
L 141.367323 235.986491 
L 141.973741 36.841818 
L 142.060372 235.986491 
L 142.493528 36.841818 
L 142.580159 235.986491 
L 143.186577 36.841818 
L 143.273208 235.986491 
L 143.663049 36.841818 
L 143.74968 235.986491 
L 144.182836 36.841818 
L 144.269467 235.986491 
L 144.875885 36.841818 
L 144.962516 235.986491 
L 145.395672 36.841818 
L 145.482303 235.986491 
L 146.088721 36.841818 
L 146.175353 235.986491 
L 146.565193 36.841818 
L 146.651824 235.986491 
L 147.113857 36.841818 
L 147.200488 235.986491 
L 147.806906 36.841818 
L 147.893538 235.986491 
L 148.326693 36.841818 
L 148.413325 235.986491 
L 149.019743 36.841818 
L 149.106374 235.986491 
L 149.496214 36.841818 
L 149.582845 235.986491 
L 150.016001 36.841818 
L 150.102632 235.986491 
L 150.709051 36.841818 
L 150.795682 235.986491 
L 151.228838 36.841818 
L 151.315469 235.986491 
L 151.921887 36.841818 
L 152.008518 235.986491 
L 152.398358 36.841818 
L 152.48499 235.986491 
L 152.918146 36.841818 
L 153.004777 235.986491 
L 153.611195 36.841818 
L 153.697826 235.986491 
L 154.159859 36.841818 
L 154.24649 235.986491 
L 154.852908 36.841818 
L 154.93954 235.986491 
L 155.32938 36.841818 
L 155.416011 235.986491 
L 155.849167 36.841818 
L 155.935798 235.986491 
L 156.542216 36.841818 
L 156.628847 235.986491 
L 157.062003 36.841818 
L 157.148634 235.986491 
L 157.755053 36.841818 
L 157.841684 235.986491 
L 158.231524 36.841818 
L 158.318155 235.986491 
L 158.751311 36.841818 
L 158.837942 235.986491 
L 159.44436 36.841818 
L 159.530992 235.986491 
L 159.964147 36.841818 
L 160.050779 235.986491 
L 160.657197 36.841818 
L 160.743828 235.986491 
L 161.133668 36.841818 
L 161.220299 235.986491 
L 161.682332 36.841818 
L 161.768964 235.986491 
L 162.375382 36.841818 
L 162.462013 235.986491 
L 162.895169 36.841818 
L 162.9818 235.986491 
L 163.588218 36.841818 
L 163.674849 235.986491 
L 164.06469 36.841818 
L 164.151321 235.986491 
L 164.584477 36.841818 
L 164.671108 235.986491 
L 165.277526 36.841818 
L 165.364157 235.986491 
L 165.797313 36.841818 
L 165.883944 235.986491 
L 166.490362 36.841818 
L 166.576994 235.986491 
L 166.966834 36.841818 
L 167.053465 235.986491 
L 167.486621 36.841818 
L 167.573252 235.986491 
L 168.17967 36.841818 
L 168.266301 235.986491 
L 168.728334 36.841818 
L 168.814965 235.986491 
L 169.421384 36.841818 
L 169.508015 235.986491 
L 169.897855 36.841818 
L 169.984486 235.986491 
L 170.417642 36.841818 
L 170.504273 235.986491 
L 171.110692 36.841818 
L 171.197323 235.986491 
L 171.630479 36.841818 
L 171.71711 235.986491 
L 172.323528 36.841818 
L 172.410159 235.986491 
L 172.799999 36.841818 
L 172.886631 235.986491 
L 173.319786 36.841818 
L 173.406418 235.986491 
L 174.012836 36.841818 
L 174.099467 235.986491 
L 174.532623 36.841818 
L 174.619254 235.986491 
L 175.225672 36.841818 
L 175.312303 235.986491 
L 175.702144 36.841818 
L 175.788775 235.986491 
L 176.250808 36.841818 
L 176.337439 235.986491 
L 176.943857 36.841818 
L 177.030488 235.986491 
L 177.463644 36.841818 
L 177.550275 235.986491 
L 178.156693 36.841818 
L 178.243325 235.986491 
L 178.633165 36.841818 
L 178.719796 235.986491 
L 179.152952 36.841818 
L 179.239583 235.986491 
L 179.846001 36.841818 
L 179.932633 235.986491 
L 180.365788 36.841818 
L 180.45242 235.986491 
L 181.058838 36.841818 
L 181.145469 235.986491 
L 181.535309 36.841818 
L 181.62194 235.986491 
L 182.055096 36.841818 
L 182.141727 235.986491 
L 182.748146 36.841818 
L 182.834777 235.986491 
L 183.29681 36.841818 
L 183.383441 235.986491 
L 183.989859 36.841818 
L 184.07649 235.986491 
L 184.46633 36.841818 
L 184.552962 235.986491 
L 184.986118 36.841818 
L 185.072749 235.986491 
L 185.679167 36.841818 
L 185.765798 235.986491 
L 186.198954 36.841818 
L 186.285585 235.986491 
L 186.892003 36.841818 
L 186.978634 235.986491 
L 187.368475 36.841818 
L 187.455106 235.986491 
L 187.888262 36.841818 
L 187.974893 235.986491 
L 188.581311 36.841818 
L 188.667942 235.986491 
L 189.101098 36.841818 
L 189.187729 235.986491 
L 189.794148 36.841818 
L 189.880779 235.986491 
L 190.270619 36.841818 
L 190.35725 235.986491 
L 190.819283 36.841818 
L 190.905914 235.986491 
L 191.512332 36.841818 
L 191.598964 235.986491 
L 192.032119 36.841818 
L 192.118751 235.986491 
L 192.725169 36.841818 
L 192.8118 235.986491 
L 193.20164 36.841818 
L 193.288271 235.986491 
L 193.721427 36.841818 
L 193.808058 235.986491 
L 194.414477 36.841818 
L 194.501108 235.986491 
L 194.934264 36.841818 
L 195.020895 235.986491 
L 195.627313 36.841818 
L 195.713944 235.986491 
L 196.103785 36.841818 
L 196.190416 235.986491 
L 196.623572 36.841818 
L 196.710203 235.986491 
L 197.316621 36.841818 
L 197.403252 235.986491 
L 197.865285 36.841818 
L 197.951916 235.986491 
L 198.558334 36.841818 
L 198.644966 235.986491 
L 199.034806 36.841818 
L 199.121437 235.986491 
L 199.554593 36.841818 
L 199.641224 235.986491 
L 200.247642 36.841818 
L 200.334273 235.986491 
L 200.767429 36.841818 
L 200.85406 235.986491 
L 201.460479 36.841818 
L 201.54711 235.986491 
L 201.93695 36.841818 
L 202.023581 235.986491 
L 202.456737 36.841818 
L 202.543368 235.986491 
L 203.149787 36.841818 
L 203.236418 235.986491 
L 203.669574 36.841818 
L 203.756205 235.986491 
L 204.362623 36.841818 
L 204.449254 235.986491 
L 204.839094 36.841818 
L 204.925726 235.986491 
L 205.387758 36.841818 
L 205.47439 235.986491 
L 206.080808 36.841818 
L 206.167439 235.986491 
L 206.600595 36.841818 
L 206.687226 235.986491 
L 207.293644 36.841818 
L 207.380275 235.986491 
L 207.770116 36.841818 
L 207.856747 235.986491 
L 208.289903 36.841818 
L 208.376534 235.986491 
L 208.982952 36.841818 
L 209.069583 235.986491 
L 209.502739 36.841818 
L 209.58937 235.986491 
L 210.195788 36.841818 
L 210.28242 235.986491 
L 210.67226 36.841818 
L 210.758891 235.986491 
L 211.192047 36.841818 
L 211.278678 235.986491 
L 211.885096 36.841818 
L 211.971727 235.986491 
L 212.43376 36.841818 
L 212.520392 235.986491 
L 213.12681 36.841818 
L 213.213441 235.986491 
L 213.603281 36.841818 
L 213.689912 235.986491 
L 214.123068 36.841818 
L 214.209699 235.986491 
L 214.816118 36.841818 
L 214.902749 235.986491 
L 215.335905 36.841818 
L 215.422536 235.986491 
L 216.028954 36.841818 
L 216.115585 235.986491 
L 216.505425 36.841818 
L 216.592057 235.986491 
L 217.025212 36.841818 
L 217.111844 235.986491 
L 217.718262 36.841818 
L 217.804893 235.986491 
L 218.238049 36.841818 
L 218.32468 235.986491 
L 218.931098 36.841818 
L 219.017729 235.986491 
L 219.40757 36.841818 
L 219.494201 235.986491 
L 219.956234 36.841818 
L 220.042865 235.986491 
L 220.649283 36.841818 
L 220.735914 235.986491 
L 221.16907 36.841818 
L 221.255701 235.986491 
L 221.86212 36.841818 
L 221.948751 235.986491 
L 222.338591 36.841818 
L 222.425222 235.986491 
L 222.858378 36.841818 
L 222.945009 235.986491 
L 223.551427 36.841818 
L 223.638059 235.986491 
L 224.071214 36.841818 
L 224.157846 235.986491 
L 224.764264 36.841818 
L 224.850895 235.986491 
L 225.240735 36.841818 
L 225.327366 235.986491 
L 225.760522 36.841818 
L 225.847153 235.986491 
L 226.453572 36.841818 
L 226.540203 235.986491 
L 227.002236 36.841818 
L 227.088867 235.986491 
L 227.695285 36.841818 
L 227.781916 235.986491 
L 228.171757 36.841818 
L 228.258388 235.986491 
L 228.691544 36.841818 
L 228.778175 235.986491 
L 229.384593 36.841818 
L 229.471224 235.986491 
L 229.90438 36.841818 
L 229.991011 235.986491 
L 230.597429 36.841818 
L 230.684061 235.986491 
L 231.073901 36.841818 
L 231.160532 235.986491 
L 231.593688 36.841818 
L 231.680319 235.986491 
L 232.286737 36.841818 
L 232.373368 235.986491 
L 232.806524 36.841818 
L 232.893155 235.986491 
L 233.499574 36.841818 
L 233.586205 235.986491 
L 233.976045 36.841818 
L 234.062676 235.986491 
L 234.524709 36.841818 
L 234.61134 235.986491 
L 235.217759 36.841818 
L 235.30439 235.986491 
L 235.737546 36.841818 
L 235.824177 235.986491 
L 236.430595 36.841818 
L 236.517226 235.986491 
L 236.907066 36.841818 
L 236.993698 235.986491 
L 237.426853 36.841818 
L 237.513485 235.986491 
L 238.119903 36.841818 
L 238.206534 235.986491 
L 238.63969 36.841818 
L 238.726321 235.986491 
L 239.332739 36.841818 
L 239.41937 235.986491 
L 239.809211 36.841818 
L 239.895842 235.986491 
L 240.328998 36.841818 
L 240.415629 235.986491 
L 241.022047 36.841818 
L 241.108678 235.986491 
L 241.570711 36.841818 
L 241.657342 235.986491 
L 242.26376 36.841818 
L 242.350392 235.986491 
L 242.740232 36.841818 
L 242.826863 235.986491 
L 243.260019 36.841818 
L 243.34665 235.986491 
L 243.953068 36.841818 
L 244.039699 235.986491 
L 244.472855 36.841818 
L 244.559487 235.986491 
L 245.165905 36.841818 
L 245.252536 235.986491 
L 245.642376 36.841818 
L 245.729007 235.986491 
L 246.162163 36.841818 
L 246.248794 235.986491 
L 246.855213 36.841818 
L 246.941844 235.986491 
L 247.375 36.841818 
L 247.461631 235.986491 
L 248.068049 36.841818 
L 248.15468 235.986491 
L 248.54452 36.841818 
L 248.631152 235.986491 
L 249.093185 36.841818 
L 249.179816 235.986491 
L 249.786234 36.841818 
L 249.872865 235.986491 
L 250.306021 36.841818 
L 250.392652 235.986491 
L 250.99907 36.841818 
L 251.085701 235.986491 
L 251.475542 36.841818 
L 251.562173 235.986491 
L 251.995329 36.841818 
L 252.08196 235.986491 
L 252.688378 36.841818 
L 252.775009 235.986491 
L 253.208165 36.841818 
L 253.294796 235.986491 
L 253.901215 36.841818 
L 253.987846 235.986491 
L 254.377686 36.841818 
L 254.464317 235.986491 
L 254.897473 36.841818 
L 254.984104 235.986491 
L 255.590522 36.841818 
L 255.677154 235.986491 
L 256.110309 36.841818 
L 256.196941 235.986491 
L 256.774482 36.841818 
L 256.861113 235.986491 
L 257.27983 36.841818 
L 257.366461 235.986491 
L 257.987318 36.841818 
L 258.073949 235.986491 
L 258.65149 36.841818 
L 258.738122 235.986491 
L 259.185716 36.841818 
L 259.272347 235.986491 
L 260.066466 36.841818 
L 260.153097 235.986491 
L 260.557376 36.841818 
L 260.644007 235.986491 
L 261.264864 36.841818 
L 261.351495 235.986491 
L 261.929036 36.841818 
L 262.015668 235.986491 
L 262.492139 36.841818 
L 262.57877 235.986491 
L 263.863799 36.841818 
L 263.95043 235.986491 
L 264.354709 36.841818 
L 264.44134 235.986491 
L 264.903373 36.841818 
L 264.990004 235.986491 
L 265.610861 36.841818 
L 265.697492 235.986491 
L 266.318349 36.841818 
L 266.40498 235.986491 
L 269.725842 36.841818 
L 269.812473 235.986491 
L 270.202313 36.841818 
L 270.288944 235.986491 
L 270.7221 36.841818 
L 270.808732 235.986491 
L 271.41515 36.841818 
L 271.501781 235.986491 
L 271.934937 36.841818 
L 272.021568 235.986491 
L 272.627986 36.841818 
L 272.714617 235.986491 
L 273.104458 36.841818 
L 273.191089 235.986491 
L 273.624245 36.841818 
L 273.710876 235.986491 
L 274.317294 36.841818 
L 274.403925 235.986491 
L 274.865958 36.841818 
L 274.952589 235.986491 
L 275.559007 36.841818 
L 275.645639 235.986491 
L 276.035479 36.841818 
L 276.12211 235.986491 
L 276.555266 36.841818 
L 276.641897 235.986491 
L 277.248315 36.841818 
L 277.334946 235.986491 
L 277.768102 36.841818 
L 277.854733 235.986491 
L 278.461152 36.841818 
L 278.547783 235.986491 
L 278.937623 36.841818 
L 279.024254 235.986491 
L 279.45741 36.841818 
L 279.544041 235.986491 
L 280.15046 36.841818 
L 280.237091 235.986491 
L 280.670247 36.841818 
L 280.756878 235.986491 
L 281.363296 36.841818 
L 281.449927 235.986491 
L 281.839767 36.841818 
L 281.926399 235.986491 
L 282.388431 36.841818 
L 282.475063 235.986491 
L 283.081481 36.841818 
L 283.168112 235.986491 
L 283.601268 36.841818 
L 283.687899 235.986491 
L 284.294317 36.841818 
L 284.380948 235.986491 
L 284.770789 36.841818 
L 284.85742 235.986491 
L 285.290576 36.841818 
L 285.377207 235.986491 
L 285.983625 36.841818 
L 286.070256 235.986491 
L 286.503412 36.841818 
L 286.590043 235.986491 
L 287.196461 36.841818 
L 287.283093 235.986491 
L 287.672933 36.841818 
L 287.759564 235.986491 
L 288.19272 36.841818 
L 288.279351 235.986491 
L 288.885769 36.841818 
L 288.972401 235.986491 
L 289.434433 36.841818 
L 289.521065 235.986491 
L 290.127483 36.841818 
L 290.214114 235.986491 
L 290.603954 36.841818 
L 290.690585 235.986491 
L 291.123741 36.841818 
L 291.210372 235.986491 
L 291.816791 36.841818 
L 291.903422 235.986491 
L 292.336578 36.841818 
L 292.423209 235.986491 
L 293.029627 36.841818 
L 293.116258 235.986491 
L 293.506098 36.841818 
L 293.59273 235.986491 
L 294.025886 36.841818 
L 294.112517 235.986491 
L 294.718935 36.841818 
L 294.805566 235.986491 
L 295.238722 36.841818 
L 295.325353 235.986491 
L 295.931771 36.841818 
L 296.018402 235.986491 
L 296.408243 36.841818 
L 296.494874 235.986491 
L 296.956907 36.841818 
L 297.043538 235.986491 
L 297.649956 36.841818 
L 297.736587 235.986491 
L 298.169743 36.841818 
L 298.256374 235.986491 
L 298.862793 36.841818 
L 298.949424 235.986491 
L 299.339264 36.841818 
L 299.425895 235.986491 
L 299.859051 36.841818 
L 299.945682 235.986491 
L 300.5521 36.841818 
L 300.638732 235.986491 
L 301.071887 36.841818 
L 301.158519 235.986491 
L 301.764937 36.841818 
L 301.851568 235.986491 
L 302.241408 36.841818 
L 302.328039 235.986491 
L 302.761195 36.841818 
L 302.847826 235.986491 
L 303.454245 36.841818 
L 303.540876 235.986491 
L 304.002909 36.841818 
L 304.08954 235.986491 
L 304.695958 36.841818 
L 304.782589 235.986491 
L 305.17243 36.841818 
L 305.259061 235.986491 
L 305.692217 36.841818 
L 305.778848 235.986491 
L 306.385266 36.841818 
L 306.471897 235.986491 
L 306.905053 36.841818 
L 306.991684 235.986491 
L 307.598102 36.841818 
L 307.684734 235.986491 
L 308.074574 36.841818 
L 308.161205 235.986491 
L 308.594361 36.841818 
L 308.680992 235.986491 
L 309.28741 36.841818 
L 309.374041 235.986491 
L 309.807197 36.841818 
L 309.893828 235.986491 
L 310.500247 36.841818 
L 310.586878 235.986491 
L 310.976718 36.841818 
L 311.063349 235.986491 
L 311.525382 36.841818 
L 311.612013 235.986491 
L 312.218432 36.841818 
L 312.305063 235.986491 
L 312.738219 36.841818 
L 312.82485 235.986491 
L 313.431268 36.841818 
L 313.517899 235.986491 
L 313.907739 36.841818 
L 313.994371 235.986491 
L 314.427526 36.841818 
L 314.514158 235.986491 
L 315.120576 36.841818 
L 315.207207 235.986491 
L 315.640363 36.841818 
L 315.726994 235.986491 
L 316.333412 36.841818 
L 316.420043 235.986491 
L 316.809884 36.841818 
L 316.896515 235.986491 
L 317.329671 36.841818 
L 317.416302 235.986491 
L 318.02272 36.841818 
L 318.109351 235.986491 
L 318.571384 36.841818 
L 318.658015 235.986491 
L 319.264434 36.841818 
L 319.351065 235.986491 
L 319.740905 36.841818 
L 319.827536 235.986491 
L 320.260692 36.841818 
L 320.347323 235.986491 
L 320.953741 36.841818 
L 321.040373 235.986491 
L 321.473528 36.841818 
L 321.56016 235.986491 
L 322.166578 36.841818 
L 322.253209 235.986491 
L 322.643049 36.841818 
L 322.72968 235.986491 
L 323.162836 36.841818 
L 323.249467 235.986491 
L 323.855886 36.841818 
L 323.942517 235.986491 
L 324.375673 36.841818 
L 324.462304 235.986491 
L 325.068722 36.841818 
L 325.155353 235.986491 
L 325.545193 36.841818 
L 325.631825 235.986491 
L 326.093858 36.841818 
L 326.180489 235.986491 
L 326.786907 36.841818 
L 326.873538 235.986491 
L 327.306694 36.841818 
L 327.393325 235.986491 
L 327.999743 36.841818 
L 328.086374 235.986491 
L 328.476215 36.841818 
L 328.562846 235.986491 
L 328.996002 36.841818 
L 329.082633 235.986491 
L 329.689051 36.841818 
L 329.775682 235.986491 
L 330.208838 36.841818 
L 330.295469 235.986491 
L 330.901888 36.841818 
L 330.988519 235.986491 
L 331.378359 36.841818 
L 331.46499 235.986491 
L 331.898146 36.841818 
L 331.984777 235.986491 
L 332.591195 36.841818 
L 332.677827 235.986491 
L 333.139859 36.841818 
L 333.226491 235.986491 
L 333.832909 36.841818 
L 333.91954 235.986491 
L 334.30938 36.841818 
L 334.396011 235.986491 
L 334.829167 36.841818 
L 334.915799 235.986491 
L 335.522217 36.841818 
L 335.608848 235.986491 
L 336.042004 36.841818 
L 336.128635 235.986491 
L 336.735053 36.841818 
L 336.821684 235.986491 
L 337.211525 36.841818 
L 337.298156 235.986491 
L 337.731312 36.841818 
L 337.817943 235.986491 
L 338.424361 36.841818 
L 338.510992 235.986491 
L 338.944148 36.841818 
L 339.030779 235.986491 
L 339.637197 36.841818 
L 339.723829 235.986491 
L 340.113669 36.841818 
L 340.2003 235.986491 
L 340.662333 36.841818 
L 340.748964 235.986491 
L 341.355382 36.841818 
L 341.442013 235.986491 
L 341.875169 36.841818 
L 341.9618 235.986491 
L 342.568219 36.841818 
L 342.65485 235.986491 
L 343.04469 36.841818 
L 343.131321 235.986491 
L 343.564477 36.841818 
L 343.651108 235.986491 
L 344.257527 36.841818 
L 344.344158 235.986491 
L 344.777314 36.841818 
L 344.863945 235.986491 
L 345.470363 36.841818 
L 345.556994 235.986491 
L 345.946834 36.841818 
L 346.033466 235.986491 
L 346.466621 36.841818 
L 346.553253 235.986491 
L 347.159671 36.841818 
L 347.246302 235.986491 
L 347.708335 36.841818 
L 347.794966 235.986491 
L 348.401384 36.841818 
L 348.488015 235.986491 
L 348.877856 36.841818 
L 348.964487 235.986491 
L 349.397643 36.841818 
L 349.484274 235.986491 
L 350.090692 36.841818 
L 350.177323 235.986491 
L 350.610479 36.841818 
L 350.69711 235.986491 
L 351.303528 36.841818 
L 351.39016 235.986491 
L 351.78 36.841818 
L 351.866631 235.986491 
L 352.299787 36.841818 
L 352.386418 235.986491 
L 352.992836 36.841818 
L 353.079467 235.986491 
L 353.512623 36.841818 
L 353.599255 235.986491 
L 354.205673 36.841818 
L 354.292304 235.986491 
L 354.682144 36.841818 
L 354.768775 235.986491 
L 355.230808 36.841818 
L 355.317439 235.986491 
L 355.923858 36.841818 
L 356.010489 235.986491 
L 356.443645 36.841818 
L 356.530276 235.986491 
L 357.136694 36.841818 
L 357.223325 235.986491 
L 357.613165 36.841818 
L 357.699797 235.986491 
L 358.132952 36.841818 
L 358.219584 235.986491 
L 358.826002 36.841818 
L 358.912633 235.986491 
L 359.345789 36.841818 
L 359.43242 235.986491 
L 360.067715 36.841818 
L 360.154347 235.986491 
L 360.544187 36.841818 
L 360.630818 235.986491 
L 361.063974 36.841818 
L 361.150605 235.986491 
L 361.757023 36.841818 
L 361.843654 235.986491 
L 362.305687 36.841818 
L 362.392318 235.986491 
L 362.998737 36.841818 
L 363.085368 235.986491 
L 363.475208 36.841818 
L 363.561839 235.986491 
L 363.994995 36.841818 
L 364.081626 235.986491 
L 364.688044 36.841818 
L 364.774676 235.986491 
L 365.207832 36.841818 
L 365.294463 235.986491 
L 365.900881 36.841818 
L 365.987512 235.986491 
L 366.377352 36.841818 
L 366.463983 235.986491 
L 366.897139 36.841818 
L 366.983771 235.986491 
L 367.619066 36.841818 
L 367.705697 235.986491 
L 368.138853 36.841818 
L 368.225484 235.986491 
L 368.831902 36.841818 
L 368.918533 235.986491 
L 369.308374 36.841818 
L 369.395005 235.986491 
L 369.857038 36.841818 
L 369.943669 235.986491 
L 370.550087 36.841818 
L 370.636718 235.986491 
L 371.069874 36.841818 
L 371.156505 235.986491 
L 371.762923 36.841818 
L 371.849555 235.986491 
L 372.239395 36.841818 
L 372.326026 235.986491 
L 372.759182 36.841818 
L 372.845813 235.986491 
L 373.452231 36.841818 
L 373.538863 235.986491 
L 373.972018 36.841818 
L 374.05865 235.986491 
L 374.693945 36.841818 
L 374.780576 235.986491 
L 375.170416 36.841818 
L 375.257047 235.986491 
L 375.690203 36.841818 
L 375.776834 235.986491 
L 376.383253 36.841818 
L 376.469884 235.986491 
L 376.931917 36.841818 
L 377.018548 235.986491 
L 377.624966 36.841818 
L 377.711597 235.986491 
L 378.101438 36.841818 
L 378.188069 235.986491 
L 378.621225 36.841818 
L 378.707856 235.986491 
L 379.314274 36.841818 
L 379.400905 235.986491 
L 379.834061 36.841818 
L 379.920692 235.986491 
L 380.52711 36.841818 
L 380.613742 235.986491 
L 381.003582 36.841818 
L 381.090213 235.986491 
L 381.523369 36.841818 
L 381.61 235.986491 
L 382.245295 36.841818 
L 382.331926 235.986491 
L 382.765082 36.841818 
L 382.851713 235.986491 
L 383.458132 36.841818 
L 383.544763 235.986491 
L 383.934603 36.841818 
L 384.021234 235.986491 
L 384.483267 36.841818 
L 384.569898 235.986491 
L 385.176317 36.841818 
L 385.262948 235.986491 
L 385.696104 36.841818 
L 385.782735 235.986491 
L 386.389153 36.841818 
L 386.475784 235.986491 
L 386.865624 36.841818 
L 386.952256 235.986491 
L 387.385411 36.841818 
L 387.472043 235.986491 
L 388.078461 36.841818 
L 388.165092 235.986491 
L 388.598248 36.841818 
L 388.684879 235.986491 
L 389.320174 36.841818 
L 389.406805 235.986491 
L 389.796646 36.841818 
L 389.883277 235.986491 
L 390.316433 36.841818 
L 390.403064 235.986491 
L 391.009482 36.841818 
L 391.096113 235.986491 
L 391.558146 36.841818 
L 391.644777 235.986491 
L 392.251196 36.841818 
L 392.337827 235.986491 
L 392.727667 36.841818 
L 392.814298 235.986491 
L 393.247454 36.841818 
L 393.334085 235.986491 
L 393.940503 36.841818 
L 394.027135 235.986491 
L 394.46029 36.841818 
L 394.546922 235.986491 
L 395.15334 36.841818 
L 395.239971 235.986491 
L 395.629811 36.841818 
L 395.716442 235.986491 
L 396.149598 36.841818 
L 396.236229 235.986491 
L 396.871525 36.841818 
L 396.958156 235.986491 
L 397.391312 36.841818 
L 397.477943 235.986491 
L 398.084361 36.841818 
L 398.170992 235.986491 
L 398.560833 36.841818 
L 398.647464 235.986491 
L 399.109497 36.841818 
L 399.196128 235.986491 
L 399.802546 36.841818 
L 399.889177 235.986491 
L 400.322333 36.841818 
L 400.408964 235.986491 
L 401.015382 36.841818 
L 401.102014 235.986491 
L 401.491854 36.841818 
L 401.578485 235.986491 
L 402.011641 36.841818 
L 402.098272 235.986491 
L 402.70469 36.841818 
L 402.791321 235.986491 
L 403.224477 36.841818 
L 403.311108 235.986491 
L 403.946404 36.841818 
L 404.033035 235.986491 
L 404.422875 36.841818 
L 404.509506 235.986491 
L 404.942662 36.841818 
L 405.029293 235.986491 
L 405.635712 36.841818 
L 405.722343 235.986491 
L 406.184376 36.841818 
L 406.271007 235.986491 
L 406.877425 36.841818 
L 406.964056 235.986491 
L 407.353896 36.841818 
L 407.440528 235.986491 
L 407.873684 36.841818 
L 407.960315 235.986491 
L 408.566733 36.841818 
L 408.653364 235.986491 
L 409.08652 36.841818 
L 409.173151 235.986491 
L 409.779569 36.841818 
L 409.8662 235.986491 
L 410.256041 36.841818 
L 410.342672 235.986491 
L 410.775828 36.841818 
L 410.862459 235.986491 
L 411.497754 36.841818 
L 411.584385 235.986491 
L 412.017541 36.841818 
L 412.104172 235.986491 
L 412.710591 36.841818 
L 412.797222 235.986491 
L 413.187062 36.841818 
L 413.273693 235.986491 
L 413.735726 36.841818 
L 413.822357 235.986491 
L 414.428776 36.841818 
L 414.515407 235.986491 
L 414.948563 36.841818 
L 415.035194 235.986491 
L 415.641612 36.841818 
L 415.728243 235.986491 
L 416.118083 36.841818 
L 416.204715 235.986491 
L 416.63787 36.841818 
L 416.724502 235.986491 
L 417.33092 36.841818 
L 417.417551 235.986491 
L 417.850707 36.841818 
L 417.937338 235.986491 
L 418.572633 36.841818 
L 418.659264 235.986491 
L 419.049105 36.841818 
L 419.135736 235.986491 
L 419.568892 36.841818 
L 419.655523 235.986491 
L 420.261941 36.841818 
L 420.348572 235.986491 
L 420.810605 36.841818 
L 420.897236 235.986491 
L 421.503655 36.841818 
L 421.590286 235.986491 
L 421.980126 36.841818 
L 422.066757 235.986491 
L 422.499913 36.841818 
L 422.586544 235.986491 
L 423.192962 36.841818 
L 423.279594 235.986491 
L 423.712749 36.841818 
L 423.799381 235.986491 
L 424.405799 36.841818 
L 424.49243 235.986491 
L 424.88227 36.841818 
L 424.968901 235.986491 
L 425.402057 36.841818 
L 425.488688 235.986491 
L 426.123984 36.841818 
L 426.210615 235.986491 
L 426.643771 36.841818 
L 426.730402 235.986491 
L 427.33682 36.841818 
L 427.423451 235.986491 
L 427.813292 36.841818 
L 427.899923 235.986491 
L 428.361956 36.841818 
L 428.448587 235.986491 
L 429.055005 36.841818 
L 429.141636 235.986491 
L 429.574792 36.841818 
L 429.661423 235.986491 
L 430.267841 36.841818 
L 430.354473 235.986491 
L 430.744313 36.841818 
L 430.830944 235.986491 
L 431.2641 36.841818 
L 431.350731 235.986491 
L 431.957149 36.841818 
L 432.04378 235.986491 
L 432.476936 36.841818 
L 432.563567 235.986491 
L 433.198863 36.841818 
L 433.285494 235.986491 
L 433.675334 36.841818 
L 433.761965 235.986491 
L 434.195121 36.841818 
L 434.281752 235.986491 
L 434.888171 36.841818 
L 434.974802 235.986491 
L 435.436835 36.841818 
L 435.523466 235.986491 
L 436.129884 36.841818 
L 436.216515 235.986491 
L 436.606355 36.841818 
L 436.692987 235.986491 
L 437.126142 36.841818 
L 437.212774 235.986491 
L 437.819192 36.841818 
L 437.905823 235.986491 
L 438.338979 36.841818 
L 438.42561 235.986491 
L 439.032028 36.841818 
L 439.118659 235.986491 
L 439.5085 36.841818 
L 439.595131 235.986491 
L 440.028287 36.841818 
L 440.114918 235.986491 
L 440.750213 36.841818 
L 440.836844 235.986491 
L 441.27 36.841818 
L 441.356631 235.986491 
L 441.96305 36.841818 
L 442.049681 235.986491 
L 442.439521 36.841818 
L 442.526152 235.986491 
L 442.988185 36.841818 
L 443.074816 235.986491 
L 443.681234 36.841818 
L 443.767866 235.986491 
L 444.201021 36.841818 
L 444.287653 235.986491 
L 444.894071 36.841818 
L 444.980702 235.986491 
L 445.370542 36.841818 
L 445.457173 235.986491 
L 445.890329 36.841818 
L 445.97696 235.986491 
L 446.583379 36.841818 
L 446.67001 235.986491 
L 447.103166 36.841818 
L 447.189797 235.986491 
L 447.825092 36.841818 
L 447.911723 235.986491 
L 448.301564 36.841818 
L 448.388195 235.986491 
L 448.821351 36.841818 
L 448.907982 235.986491 
L 449.5144 36.841818 
L 449.601031 235.986491 
L 450.063064 36.841818 
L 450.149695 235.986491 
L 450.756113 36.841818 
L 450.842745 235.986491 
L 451.232585 36.841818 
L 451.319216 235.986491 
L 451.752372 36.841818 
L 451.839003 235.986491 
L 452.445421 36.841818 
L 452.532052 235.986491 
L 452.965208 36.841818 
L 453.05184 235.986491 
L 453.658258 36.841818 
L 453.744889 235.986491 
L 454.134729 36.841818 
L 454.22136 235.986491 
L 454.654516 36.841818 
L 454.741147 235.986491 
L 455.376443 36.841818 
L 455.463074 235.986491 
L 455.89623 36.841818 
L 455.982861 235.986491 
L 456.589279 36.841818 
L 456.67591 235.986491 
L 457.06575 36.841818 
L 457.152382 235.986491 
L 457.614415 36.841818 
L 457.701046 235.986491 
L 458.307464 36.841818 
L 458.394095 235.986491 
L 458.827251 36.841818 
L 458.913882 235.986491 
L 459.5203 36.841818 
L 459.606931 235.986491 
L 459.996772 36.841818 
L 460.083403 235.986491 
L 460.516559 36.841818 
L 460.60319 235.986491 
L 461.209608 36.841818 
L 461.296239 235.986491 
L 461.729395 36.841818 
L 461.816026 235.986491 
L 462.451322 36.841818 
L 462.537953 235.986491 
L 462.927793 36.841818 
L 463.014424 235.986491 
L 463.44758 36.841818 
L 463.534211 235.986491 
L 464.140629 36.841818 
L 464.227261 235.986491 
L 464.689294 36.841818 
L 464.775925 235.986491 
L 465.382343 36.841818 
L 465.468974 235.986491 
L 465.858814 36.841818 
L 465.945446 235.986491 
L 466.378601 36.841818 
L 466.465233 235.986491 
L 467.071651 36.841818 
L 467.158282 235.986491 
L 467.591438 36.841818 
L 467.678069 235.986491 
L 468.284487 36.841818 
L 468.371118 235.986491 
L 468.760959 36.841818 
L 468.84759 235.986491 
L 469.280746 36.841818 
L 469.367377 235.986491 
L 470.002672 36.841818 
L 470.089303 235.986491 
L 470.522459 36.841818 
L 470.60909 235.986491 
L 471.215508 36.841818 
L 471.30214 235.986491 
L 471.69198 36.841818 
L 471.778611 235.986491 
L 472.240644 36.841818 
L 472.327275 235.986491 
L 472.933693 36.841818 
L 473.020325 235.986491 
L 473.45348 36.841818 
L 473.540112 235.986491 
L 474.14653 36.841818 
L 474.233161 235.986491 
L 474.623001 36.841818 
L 474.709632 235.986491 
L 475.142788 36.841818 
L 475.229419 235.986491 
L 475.835838 36.841818 
L 475.922469 235.986491 
L 476.355625 36.841818 
L 476.442256 235.986491 
L 477.048674 36.841818 
L 477.135305 235.986491 
L 477.525145 36.841818 
L 477.611777 235.986491 
L 478.044933 36.841818 
L 478.131564 235.986491 
L 478.737982 36.841818 
L 478.824613 235.986491 
L 479.286646 36.841818 
L 479.373277 235.986491 
L 479.979695 36.841818 
L 480.066327 235.986491 
L 480.456167 36.841818 
L 480.542798 235.986491 
L 480.975954 36.841818 
L 481.062585 235.986491 
L 481.669003 36.841818 
L 481.755634 235.986491 
L 482.18879 36.841818 
L 482.275421 235.986491 
L 482.88184 36.841818 
L 482.968471 235.986491 
L 483.358311 36.841818 
L 483.444942 235.986491 
L 483.878098 36.841818 
L 483.964729 235.986491 
L 484.571147 36.841818 
L 484.657779 235.986491 
L 485.090934 36.841818 
L 485.177566 235.986491 
L 485.783984 36.841818 
L 485.870615 235.986491 
L 486.260455 36.841818 
L 486.347086 235.986491 
L 486.809119 36.841818 
L 486.895751 235.986491 
L 487.502169 36.841818 
L 487.5888 235.986491 
L 488.021956 36.841818 
L 488.108587 235.986491 
L 488.715005 36.841818 
L 488.801636 235.986491 
L 489.191477 36.841818 
L 489.278108 235.986491 
L 489.711264 36.841818 
L 489.797895 235.986491 
L 490.404313 36.841818 
L 490.490944 235.986491 
L 490.9241 36.841818 
L 491.010731 235.986491 
L 491.617149 36.841818 
L 491.703781 235.986491 
L 492.093621 36.841818 
L 492.180252 235.986491 
L 492.613408 36.841818 
L 492.700039 235.986491 
L 493.306457 36.841818 
L 493.393088 235.986491 
L 493.855121 36.841818 
L 493.941753 235.986491 
L 494.548171 36.841818 
L 494.634802 235.986491 
L 495.024642 36.841818 
L 495.111273 235.986491 
L 495.544429 36.841818 
L 495.63106 235.986491 
L 496.237479 36.841818 
L 496.32411 235.986491 
L 496.757266 36.841818 
L 496.843897 235.986491 
L 497.450315 36.841818 
L 497.536946 235.986491 
L 497.926786 36.841818 
L 498.013418 235.986491 
L 498.446573 36.841818 
L 498.533205 235.986491 
L 499.139623 36.841818 
L 499.226254 235.986491 
L 499.65941 36.841818 
L 499.746041 235.986491 
L 500.352459 36.841818 
L 500.43909 235.986491 
L 500.828931 36.841818 
L 500.915562 235.986491 
L 501.377595 36.841818 
L 501.464226 235.986491 
L 502.070644 36.841818 
L 502.157275 235.986491 
L 502.590431 36.841818 
L 502.677062 235.986491 
L 503.283481 36.841818 
L 503.370112 235.986491 
L 503.759952 36.841818 
L 503.846583 235.986491 
L 504.279739 36.841818 
L 504.36637 235.986491 
L 504.972788 36.841818 
L 505.05942 235.986491 
L 505.492575 36.841818 
L 505.579207 235.986491 
L 506.185625 36.841818 
L 506.272256 235.986491 
L 506.662096 36.841818 
L 506.748727 235.986491 
L 507.181883 36.841818 
L 507.268514 235.986491 
L 507.874933 36.841818 
L 507.961564 235.986491 
L 508.423597 36.841818 
L 508.510228 235.986491 
L 509.116646 36.841818 
L 509.203277 235.986491 
L 509.593118 36.841818 
L 509.679749 235.986491 
L 510.112905 36.841818 
L 510.199536 235.986491 
L 510.805954 36.841818 
L 510.892585 235.986491 
L 511.325741 36.841818 
L 511.412372 235.986491 
L 512.01879 36.841818 
L 512.105421 235.986491 
L 512.495262 36.841818 
L 512.581893 235.986491 
L 513.015049 36.841818 
L 513.10168 235.986491 
L 513.708098 36.841818 
L 513.794729 235.986491 
L 514.227885 36.841818 
L 514.314516 235.986491 
L 514.920935 36.841818 
L 515.007566 235.986491 
L 515.397406 36.841818 
L 515.484037 235.986491 
L 515.94607 36.841818 
L 516.032701 235.986491 
L 516.639119 36.841818 
L 516.725751 235.986491 
L 517.158906 36.841818 
L 517.245538 235.986491 
L 517.851956 36.841818 
L 517.938587 235.986491 
L 518.328427 36.841818 
L 518.415058 235.986491 
L 518.848214 36.841818 
L 518.934846 235.986491 
L 519.541264 36.841818 
L 519.627895 235.986491 
L 520.061051 36.841818 
L 520.147682 235.986491 
L 520.7541 36.841818 
L 520.840731 235.986491 
L 521.230572 36.841818 
L 521.317203 235.986491 
L 521.750359 36.841818 
L 521.83699 235.986491 
L 522.443408 36.841818 
L 522.530039 235.986491 
L 522.992072 36.841818 
L 523.078703 235.986491 
L 523.685121 36.841818 
L 523.771753 235.986491 
L 524.161593 36.841818 
L 524.248224 235.986491 
L 524.68138 36.841818 
L 524.768011 235.986491 
L 525.374429 36.841818 
L 525.46106 235.986491 
L 525.894216 36.841818 
L 525.980847 235.986491 
L 526.587266 36.841818 
L 526.673897 235.986491 
L 527.063737 36.841818 
L 527.150368 235.986491 
L 527.583524 36.841818 
L 527.670155 235.986491 
L 528.276574 36.841818 
L 528.363205 235.986491 
L 528.796361 36.841818 
L 528.882992 235.986491 
L 529.48941 36.841818 
L 529.576041 235.986491 
L 529.965881 36.841818 
L 530.052513 235.986491 
L 530.514545 36.841818 
L 530.601177 235.986491 
L 531.207595 36.841818 
L 531.294226 235.986491 
L 531.727382 36.841818 
L 531.814013 235.986491 
L 532.420431 36.841818 
L 532.507062 235.986491 
L 532.896903 36.841818 
L 532.983534 235.986491 
L 533.41669 36.841818 
L 533.503321 235.986491 
L 534.109739 36.841818 
L 534.19637 235.986491 
L 534.629526 36.841818 
L 534.716157 235.986491 
L 535.322575 36.841818 
L 535.409207 235.986491 
L 535.799047 36.841818 
L 535.885678 235.986491 
L 536.318834 36.841818 
L 536.405465 235.986491 
L 537.011883 36.841818 
L 537.098514 235.986491 
L 537.560547 36.841818 
L 537.647179 235.986491 
L 538.253597 36.841818 
L 538.340228 235.986491 
L 538.730068 36.841818 
L 538.816699 235.986491 
L 539.249855 36.841818 
L 539.336486 235.986491 
L 539.942905 36.841818 
L 540.029536 235.986491 
L 540.462692 36.841818 
L 540.549323 235.986491 
L 541.155741 36.841818 
L 541.242372 235.986491 
L 541.632212 36.841818 
L 541.718844 235.986491 
L 542.152 36.841818 
L 542.238631 235.986491 
L 542.845049 36.841818 
L 542.93168 235.986491 
L 543.364836 36.841818 
L 543.451467 235.986491 
L 544.057885 36.841818 
L 544.144516 235.986491 
L 544.534357 36.841818 
L 544.620988 235.986491 
L 545.083021 36.841818 
L 545.169652 235.986491 
L 545.77607 36.841818 
L 545.862701 235.986491 
L 546.295857 36.841818 
L 546.382488 235.986491 
L 546.988907 36.841818 
L 547.075538 235.986491 
L 547.465378 36.841818 
L 547.552009 235.986491 
L 547.985165 36.841818 
L 548.071796 235.986491 
L 548.678214 36.841818 
L 548.764846 235.986491 
L 549.198001 36.841818 
L 549.284633 235.986491 
L 549.891051 36.841818 
L 549.977682 235.986491 
L 550.367522 36.841818 
L 550.454153 235.986491 
L 550.887309 36.841818 
L 550.97394 235.986491 
L 551.580359 36.841818 
L 551.66699 235.986491 
L 552.129023 36.841818 
L 552.215654 235.986491 
L 552.822072 36.841818 
L 552.908703 235.986491 
L 553.298544 36.841818 
L 553.385175 235.986491 
L 553.818331 36.841818 
L 553.904962 235.986491 
L 554.51138 36.841818 
L 554.598011 235.986491 
L 555.031167 36.841818 
L 555.117798 235.986491 
L 555.724216 36.841818 
L 555.810848 235.986491 
L 556.200688 36.841818 
L 556.287319 235.986491 
L 556.720475 36.841818 
L 556.807106 235.986491 
L 557.413524 36.841818 
L 557.500155 235.986491 
L 557.933311 36.841818 
L 558.019942 235.986491 
L 558.626361 36.841818 
L 558.712992 235.986491 
L 559.102832 36.841818 
L 559.189463 235.986491 
L 559.651496 36.841818 
L 559.738127 235.986491 
L 560.344546 36.841818 
L 560.431177 235.986491 
L 560.864333 36.841818 
L 560.950964 235.986491 
L 561.557382 36.841818 
L 561.644013 235.986491 
L 562.033853 36.841818 
L 562.120485 235.986491 
L 562.55364 36.841818 
L 562.640272 235.986491 
L 563.24669 36.841818 
L 563.333321 235.986491 
L 563.766477 36.841818 
L 563.853108 235.986491 
L 564.459526 36.841818 
L 564.546157 235.986491 
L 564.935998 36.841818 
L 565.022629 235.986491 
L 565.455785 36.841818 
L 565.542416 235.986491 
L 566.148834 36.841818 
L 566.235465 235.986491 
L 566.697498 36.841818 
L 566.784129 235.986491 
L 567.390547 36.841818 
L 567.477179 235.986491 
L 567.867019 36.841818 
L 567.95365 235.986491 
L 568.386806 36.841818 
L 568.473437 235.986491 
L 569.079855 36.841818 
L 569.166487 235.986491 
L 569.599642 36.841818 
L 569.686274 235.986491 
L 570.292692 36.841818 
L 570.379323 235.986491 
L 570.769163 36.841818 
L 570.855794 235.986491 
L 571.28895 36.841818 
L 571.375581 235.986491 
L 571.982 36.841818 
L 572.068631 235.986491 
L 572.501787 36.841818 
L 572.588418 235.986491 
L 573.194836 36.841818 
L 573.281467 235.986491 
L 573.671307 36.841818 
L 573.757939 235.986491 
L 574.219972 36.841818 
L 574.306603 235.986491 
L 574.913021 36.841818 
L 574.999652 235.986491 
L 575.432808 36.841818 
L 575.519439 235.986491 
L 576.125857 36.841818 
L 576.212488 235.986491 
L 576.602329 36.841818 
L 576.68896 235.986491 
L 577.122116 36.841818 
L 577.208747 235.986491 
L 577.815165 36.841818 
L 577.901796 235.986491 
L 578.334952 36.841818 
L 578.421583 235.986491 
L 579.028002 36.841818 
L 579.114633 235.986491 
L 579.504473 36.841818 
L 579.591104 235.986491 
L 580.02426 36.841818 
L 580.110891 235.986491 
L 580.717309 36.841818 
L 580.803941 235.986491 
L 581.265973 36.841818 
L 581.352605 235.986491 
L 581.959023 36.841818 
L 582.045654 235.986491 
L 582.435494 36.841818 
L 582.522125 235.986491 
L 582.955281 36.841818 
L 583.041913 235.986491 
L 583.648331 36.841818 
L 583.734962 235.986491 
L 584.168118 36.841818 
L 584.254749 235.986491 
L 584.861167 36.841818 
L 584.947798 235.986491 
L 585.337639 36.841818 
L 585.42427 235.986491 
L 585.857426 36.841818 
L 585.944057 235.986491 
L 586.550475 36.841818 
L 586.637106 235.986491 
L 587.070262 36.841818 
L 587.156893 235.986491 
L 587.763311 36.841818 
L 587.849943 235.986491 
L 588.239783 36.841818 
L 588.326414 235.986491 
L 588.788447 36.841818 
L 588.875078 235.986491 
L 589.481496 36.841818 
L 589.568127 235.986491 
L 590.001283 36.841818 
L 590.087914 235.986491 
L 590.694333 36.841818 
L 590.780964 235.986491 
L 591.170804 36.841818 
L 591.257435 235.986491 
L 591.690591 36.841818 
L 591.777222 235.986491 
L 592.383641 36.841818 
L 592.470272 235.986491 
L 592.903428 36.841818 
L 592.990059 235.986491 
L 593.596477 36.841818 
L 593.683108 235.986491 
L 594.072948 36.841818 
L 594.15958 235.986491 
L 594.592735 36.841818 
L 594.679367 235.986491 
L 595.285785 36.841818 
L 595.372416 235.986491 
L 595.834449 36.841818 
L 595.92108 235.986491 
L 596.527498 36.841818 
L 596.614129 235.986491 
L 597.00397 36.841818 
L 597.090601 235.986491 
L 597.523757 36.841818 
L 597.610388 235.986491 
L 598.216806 36.841818 
L 598.303437 235.986491 
L 598.736593 36.841818 
L 598.823224 235.986491 
L 599.429642 36.841818 
L 599.516274 235.986491 
L 599.906114 36.841818 
L 599.992745 235.986491 
L 600.425901 36.841818 
L 600.512532 235.986491 
L 601.11895 36.841818 
L 601.205581 235.986491 
L 601.638737 36.841818 
L 601.725369 235.986491 
L 602.331787 36.841818 
L 602.418418 235.986491 
L 602.808258 36.841818 
L 602.894889 235.986491 
L 603.356922 36.841818 
L 603.443553 235.986491 
L 604.049972 36.841818 
L 604.136603 235.986491 
L 604.569759 36.841818 
L 604.65639 235.986491 
L 605.262808 36.841818 
L 605.349439 235.986491 
L 605.739279 36.841818 
L 605.825911 235.986491 
L 606.259066 36.841818 
L 606.345698 235.986491 
L 606.952116 36.841818 
L 607.038747 235.986491 
L 607.471903 36.841818 
L 607.558534 235.986491 
L 608.164952 36.841818 
L 608.251583 235.986491 
L 608.641424 36.841818 
L 608.728055 235.986491 
L 609.161211 36.841818 
L 609.247842 235.986491 
L 609.85426 36.841818 
L 609.940891 235.986491 
L 610.374047 36.841818 
L 610.460678 235.986491 
L 611.038219 36.841818 
L 611.124851 235.986491 
L 611.543568 36.841818 
L 611.630199 235.986491 
L 612.251056 36.841818 
L 612.337687 235.986491 
L 612.915228 36.841818 
L 613.001859 235.986491 
L 613.449454 36.841818 
L 613.536085 235.986491 
L 614.330204 36.841818 
L 614.416835 235.986491 
L 614.821114 36.841818 
L 614.907745 235.986491 
L 615.557479 102.282445 
L 615.64411 235.986491 
L 616.019512 170.729245 
L 616.106143 235.986491 
L 616.712561 36.841818 
L 616.799192 235.986491 
L 617.246787 36.841818 
L 617.333418 235.986491 
L 617.983152 36.841818 
L 618.069783 235.986491 
L 618.647324 36.841818 
L 618.733955 235.986491 
L 619.167111 36.841818 
L 619.253742 235.986491 
L 619.874599 36.841818 
L 619.96123 235.986491 
L 620.582087 36.841818 
L 620.668718 235.986491 
L 621.506153 103.430623 
L 621.607222 236.01041 
L 621.708292 235.300802 
L 621.794923 235.994464 
L 622.31471 234.907973 
L 622.41578 236.01041 
L 622.51685 235.699459 
L 622.603481 235.994464 
L 623.181022 234.589048 
L 623.282092 236.01041 
L 623.383161 234.862281 
L 623.469793 235.994464 
L 623.98958 174.975191 
L 624.076211 235.986491 
L 624.466051 36.841818 
L 624.552682 235.986491 
L 624.985838 36.841818 
L 625.072469 235.986491 
L 625.678887 36.841818 
L 625.765519 235.986491 
L 626.198674 36.841818 
L 626.285306 235.986491 
L 626.891724 36.841818 
L 626.978355 235.986491 
L 627.368195 36.841818 
L 627.454826 235.986491 
L 627.887982 36.841818 
L 627.974614 235.986491 
L 628.581032 36.841818 
L 628.667663 235.986491 
L 629.129696 36.841818 
L 629.216327 235.986491 
L 629.822745 36.841818 
L 629.909376 235.986491 
L 630.299217 36.841818 
L 630.385848 235.986491 
L 630.819004 36.841818 
L 630.905635 235.986491 
L 631.512053 36.841818 
L 631.598684 235.986491 
L 632.03184 36.841818 
L 632.118471 235.986491 
L 632.724889 36.841818 
L 632.811521 235.986491 
L 633.201361 36.841818 
L 633.287992 235.986491 
L 633.721148 36.841818 
L 633.807779 235.986491 
L 634.414197 36.841818 
L 634.500828 235.986491 
L 634.933984 36.841818 
L 635.020615 235.986491 
L 635.627034 36.841818 
L 635.713665 235.986491 
L 636.103505 36.841818 
L 636.190136 235.986491 
L 636.652169 36.841818 
L 636.7388 235.986491 
L 637.345219 36.841818 
L 637.43185 235.986491 
L 637.865006 36.841818 
L 637.951637 235.986491 
L 638.558055 36.841818 
L 638.644686 235.986491 
L 639.034526 36.841818 
L 639.121158 235.986491 
L 639.554313 36.841818 
L 639.640945 235.986491 
L 640.247363 36.841818 
L 640.333994 235.986491 
L 640.76715 36.841818 
L 640.853781 235.986491 
L 641.460199 36.841818 
L 641.54683 235.986491 
L 641.936671 36.841818 
L 642.023302 235.986491 
L 642.456458 36.841818 
L 642.543089 235.986491 
L 643.149507 36.841818 
L 643.236138 235.986491 
L 643.698171 36.841818 
L 643.784802 235.986491 
L 644.391221 36.841818 
L 644.477852 235.986491 
L 644.867692 36.841818 
L 644.954323 235.986491 
L 645.387479 36.841818 
L 645.47411 235.986491 
L 646.080528 36.841818 
L 646.16716 235.986491 
L 646.600315 36.841818 
L 646.686947 235.986491 
L 647.293365 36.841818 
L 647.379996 235.986491 
L 647.769836 36.841818 
L 647.856467 235.986491 
L 648.289623 36.841818 
L 648.376254 235.986491 
L 648.982673 36.841818 
L 649.069304 235.986491 
L 649.50246 36.841818 
L 649.589091 235.986491 
L 650.195509 36.841818 
L 650.28214 235.986491 
L 650.67198 36.841818 
L 650.758612 235.986491 
L 651.220645 36.841818 
L 651.307276 235.986491 
L 651.913694 36.841818 
L 652.000325 235.986491 
L 652.433481 36.841818 
L 652.520112 235.986491 
L 653.12653 36.841818 
L 653.213161 235.986491 
L 653.603002 36.841818 
L 653.689633 235.986491 
L 654.122789 36.841818 
L 654.20942 235.986491 
L 654.815838 36.841818 
L 654.902469 235.986491 
L 655.335625 36.841818 
L 655.422256 235.986491 
L 656.028675 36.841818 
L 656.115306 235.986491 
L 656.505146 36.841818 
L 656.591777 235.986491 
L 657.024933 36.841818 
L 657.111564 235.986491 
L 657.717982 36.841818 
L 657.804614 235.986491 
L 658.266647 36.841818 
L 658.353278 235.986491 
L 658.959696 36.841818 
L 659.046327 235.986491 
L 659.436167 36.841818 
L 659.522798 235.986491 
L 659.955954 36.841818 
L 660.042586 235.986491 
L 660.649004 36.841818 
L 660.735635 235.986491 
L 661.168791 36.841818 
L 661.255422 235.986491 
L 661.86184 36.841818 
L 661.948471 235.986491 
L 662.338312 36.841818 
L 662.424943 235.986491 
L 662.858099 36.841818 
L 662.94473 235.986491 
L 663.551148 36.841818 
L 663.637779 235.986491 
L 664.070935 36.841818 
L 664.157566 235.986491 
L 664.763984 36.841818 
L 664.850616 235.986491 
L 665.240456 36.841818 
L 665.327087 235.986491 
L 665.78912 36.841818 
L 665.875751 235.986491 
L 666.482169 36.841818 
L 666.5688 235.986491 
L 667.001956 36.841818 
L 667.088587 235.986491 
L 667.695006 36.841818 
L 667.781637 235.986491 
L 668.171477 36.841818 
L 668.258108 235.986491 
L 668.691264 36.841818 
L 668.777895 235.986491 
L 669.384314 36.841818 
L 669.470945 235.986491 
L 669.904101 36.841818 
L 669.990732 235.986491 
L 670.59715 36.841818 
L 670.683781 235.986491 
L 671.073621 36.841818 
L 671.160253 235.986491 
L 671.593408 36.841818 
L 671.68004 235.986491 
L 672.286458 36.841818 
L 672.373089 235.986491 
L 672.835122 36.841818 
L 672.921753 235.986491 
L 673.528171 36.841818 
L 673.614802 235.986491 
L 674.004643 36.841818 
L 674.091274 235.986491 
L 674.52443 36.841818 
L 674.611061 235.986491 
L 675.217479 36.841818 
L 675.30411 235.986491 
L 675.737266 36.841818 
L 675.823897 235.986491 
L 676.430315 36.841818 
L 676.516947 235.986491 
L 676.906787 36.841818 
L 676.993418 235.986491 
L 677.426574 36.841818 
L 677.513205 235.986491 
L 678.119623 36.841818 
L 678.206255 235.986491 
L 678.63941 36.841818 
L 678.726042 235.986491 
L 679.33246 36.841818 
L 679.419091 235.986491 
L 679.419091 235.986491 
" clip-path="url(#pe895eefacc)" style="fill: none; stroke: #1f77b4; stroke-width: 1.5; stroke-linecap: square"/>
   </g>
   <g id="patch_3">
    <path d="M 54.02 246.04 
L 54.02 26.88 
" style="fill: none; stroke: #000000; stroke-width: 0.8; stroke-linejoin: miter; stroke-linecap: square"/>
   </g>
   <g id="patch_4">
    <path d="M 709.2 246.04 
L 709.2 26.88 
" style="fill: none; stroke: #000000; stroke-width: 0.8; stroke-linejoin: miter; stroke-linecap: square"/>
   </g>
   <g id="patch_5">
    <path d="M 54.02 246.04 
L 709.2 246.04 
" style="fill: none; stroke: #000000; stroke-width: 0.8; stroke-linejoin: miter; stroke-linecap: square"/>
   </g>
   <g id="patch_6">
    <path d="M 54.02 26.88 
L 709.2 26.88 
" style="fill: none; stroke: #000000; stroke-width: 0.8; stroke-linejoin: miter; stroke-linecap: square"/>
   </g>
   <g id="text_14">
    <!-- radioMode:vector (HandoverShowcase.ap1.wlan[0].radio) -->
    <g transform="translate(208.29625 20.88) scale(0.12 -0.12)">
     <defs>
      <path id="DejaVuSans-72" d="M 2631 2963 
Q 2534 3019 2420 3045 
Q 2306 3072 2169 3072 
Q 1681 3072 1420 2755 
Q 1159 2438 1159 1844 
L 1159 0 
L 581 0 
L 581 3500 
L 1159 3500 
L 1159 2956 
Q 1341 3275 1631 3429 
Q 1922 3584 2338 3584 
Q 2397 3584 2469 3576 
Q 2541 3569 2628 3553 
L 2631 2963 
z
" transform="scale(0.015625)"/>
      <path id="DejaVuSans-64" d="M 2906 2969 
L 2906 4863 
L 3481 4863 
L 3481 0 
L 2906 0 
L 2906 525 
Q 2725 213 2448 61 
Q 2172 -91 1784 -91 
Q 1150 -91 751 415 
Q 353 922 353 1747 
Q 353 2572 751 3078 
Q 1150 3584 1784 3584 
Q 2172 3584 2448 3432 
Q 2725 3281 2906 2969 
z
M 947 1747 
Q 947 1113 1208 752 
Q 1469 391 1925 391 
Q 2381 391 2643 752 
Q 2906 1113 2906 1747 
Q 2906 2381 2643 2742 
Q 2381 3103 1925 3103 
Q 1469 3103 1208 2742 
Q 947 2381 947 1747 
z
" transform="scale(0.015625)"/>
      <path id="DejaVuSans-6f" d="M 1959 3097 
Q 1497 3097 1228 2736 
Q 959 2375 959 1747 
Q 959 1119 1226 758 
Q 1494 397 1959 397 
Q 2419 397 2687 759 
Q 2956 1122 2956 1747 
Q 2956 2369 2687 2733 
Q 2419 3097 1959 3097 
z
M 1959 3584 
Q 2709 3584 3137 3096 
Q 3566 2609 3566 1747 
Q 3566 888 3137 398 
Q 2709 -91 1959 -91 
Q 1206 -91 779 398 
Q 353 888 353 1747 
Q 353 2609 779 3096 
Q 1206 3584 1959 3584 
z
" transform="scale(0.015625)"/>
      <path id="DejaVuSans-4d" d="M 628 4666 
L 1569 4666 
L 2759 1491 
L 3956 4666 
L 4897 4666 
L 4897 0 
L 4281 0 
L 4281 4097 
L 3078 897 
L 2444 897 
L 1241 4097 
L 1241 0 
L 628 0 
L 628 4666 
z
" transform="scale(0.015625)"/>
      <path id="DejaVuSans-3a" d="M 750 794 
L 1409 794 
L 1409 0 
L 750 0 
L 750 794 
z
M 750 3309 
L 1409 3309 
L 1409 2516 
L 750 2516 
L 750 3309 
z
" transform="scale(0.015625)"/>
      <path id="DejaVuSans-76" d="M 191 3500 
L 800 3500 
L 1894 563 
L 2988 3500 
L 3597 3500 
L 2284 0 
L 1503 0 
L 191 3500 
z
" transform="scale(0.015625)"/>
      <path id="DejaVuSans-63" d="M 3122 3366 
L 3122 2828 
Q 2878 2963 2633 3030 
Q 2388 3097 2138 3097 
Q 1578 3097 1268 2742 
Q 959 2388 959 1747 
Q 959 1106 1268 751 
Q 1578 397 2138 397 
Q 2388 397 2633 464 
Q 2878 531 3122 666 
L 3122 134 
Q 2881 22 2623 -34 
Q 2366 -91 2075 -91 
Q 1284 -91 818 406 
Q 353 903 353 1747 
Q 353 2603 823 3093 
Q 1294 3584 2113 3584 
Q 2378 3584 2631 3529 
Q 2884 3475 3122 3366 
z
" transform="scale(0.015625)"/>
      <path id="DejaVuSans-48" d="M 628 4666 
L 1259 4666 
L 1259 2753 
L 3553 2753 
L 3553 4666 
L 4184 4666 
L 4184 0 
L 3553 0 
L 3553 2222 
L 1259 2222 
L 1259 0 
L 628 0 
L 628 4666 
z
" transform="scale(0.015625)"/>
      <path id="DejaVuSans-6e" d="M 3513 2113 
L 3513 0 
L 2938 0 
L 2938 2094 
Q 2938 2591 2744 2837 
Q 2550 3084 2163 3084 
Q 1697 3084 1428 2787 
Q 1159 2491 1159 1978 
L 1159 0 
L 581 0 
L 581 3500 
L 1159 3500 
L 1159 2956 
Q 1366 3272 1645 3428 
Q 1925 3584 2291 3584 
Q 2894 3584 3203 3211 
Q 3513 2838 3513 2113 
z
" transform="scale(0.015625)"/>
      <path id="DejaVuSans-53" d="M 3425 4513 
L 3425 3897 
Q 3066 4069 2747 4153 
Q 2428 4238 2131 4238 
Q 1616 4238 1336 4038 
Q 1056 3838 1056 3469 
Q 1056 3159 1242 3001 
Q 1428 2844 1947 2747 
L 2328 2669 
Q 3034 2534 3370 2195 
Q 3706 1856 3706 1288 
Q 3706 609 3251 259 
Q 2797 -91 1919 -91 
Q 1588 -91 1214 -16 
Q 841 59 441 206 
L 441 856 
Q 825 641 1194 531 
Q 1563 422 1919 422 
Q 2459 422 2753 634 
Q 3047 847 3047 1241 
Q 3047 1584 2836 1778 
Q 2625 1972 2144 2069 
L 1759 2144 
Q 1053 2284 737 2584 
Q 422 2884 422 3419 
Q 422 4038 858 4394 
Q 1294 4750 2059 4750 
Q 2388 4750 2728 4690 
Q 3069 4631 3425 4513 
z
" transform="scale(0.015625)"/>
      <path id="DejaVuSans-68" d="M 3513 2113 
L 3513 0 
L 2938 0 
L 2938 2094 
Q 2938 2591 2744 2837 
Q 2550 3084 2163 3084 
Q 1697 3084 1428 2787 
Q 1159 2491 1159 1978 
L 1159 0 
L 581 0 
L 581 4863 
L 1159 4863 
L 1159 2956 
Q 1366 3272 1645 3428 
Q 1925 3584 2291 3584 
Q 2894 3584 3203 3211 
Q 3513 2838 3513 2113 
z
" transform="scale(0.015625)"/>
      <path id="DejaVuSans-77" d="M 269 3500 
L 844 3500 
L 1563 769 
L 2278 3500 
L 2956 3500 
L 3675 769 
L 4391 3500 
L 4966 3500 
L 4050 0 
L 3372 0 
L 2619 2869 
L 1863 0 
L 1184 0 
L 269 3500 
z
" transform="scale(0.015625)"/>
      <path id="DejaVuSans-70" d="M 1159 525 
L 1159 -1331 
L 581 -1331 
L 581 3500 
L 1159 3500 
L 1159 2969 
Q 1341 3281 1617 3432 
Q 1894 3584 2278 3584 
Q 2916 3584 3314 3078 
Q 3713 2572 3713 1747 
Q 3713 922 3314 415 
Q 2916 -91 2278 -91 
Q 1894 -91 1617 61 
Q 1341 213 1159 525 
z
M 3116 1747 
Q 3116 2381 2855 2742 
Q 2594 3103 2138 3103 
Q 1681 3103 1420 2742 
Q 1159 2381 1159 1747 
Q 1159 1113 1420 752 
Q 1681 391 2138 391 
Q 2594 391 2855 752 
Q 3116 1113 3116 1747 
z
" transform="scale(0.015625)"/>
      <path id="DejaVuSans-5b" d="M 550 4863 
L 1875 4863 
L 1875 4416 
L 1125 4416 
L 1125 -397 
L 1875 -397 
L 1875 -844 
L 550 -844 
L 550 4863 
z
" transform="scale(0.015625)"/>
      <path id="DejaVuSans-5d" d="M 1947 4863 
L 1947 -844 
L 622 -844 
L 622 -397 
L 1369 -397 
L 1369 4416 
L 622 4416 
L 622 4863 
L 1947 4863 
z
" transform="scale(0.015625)"/>
     </defs>
     <use xlink:href="#DejaVuSans-72"/>
     <use xlink:href="#DejaVuSans-61" x="41.113281"/>
     <use xlink:href="#DejaVuSans-64" x="102.392578"/>
     <use xlink:href="#DejaVuSans-69" x="165.869141"/>
     <use xlink:href="#DejaVuSans-6f" x="193.652344"/>
     <use xlink:href="#DejaVuSans-4d" x="254.833984"/>
     <use xlink:href="#DejaVuSans-6f" x="341.113281"/>
     <use xlink:href="#DejaVuSans-64" x="402.294922"/>
     <use xlink:href="#DejaVuSans-65" x="465.771484"/>
     <use xlink:href="#DejaVuSans-3a" x="527.294922"/>
     <use xlink:href="#DejaVuSans-76" x="560.986328"/>
     <use xlink:href="#DejaVuSans-65" x="620.166016"/>
     <use xlink:href="#DejaVuSans-63" x="681.689453"/>
     <use xlink:href="#DejaVuSans-74" x="736.669922"/>
     <use xlink:href="#DejaVuSans-6f" x="775.878906"/>
     <use xlink:href="#DejaVuSans-72" x="837.060547"/>
     <use xlink:href="#DejaVuSans-20" x="878.173828"/>
     <use xlink:href="#DejaVuSans-28" x="909.960938"/>
     <use xlink:href="#DejaVuSans-48" x="948.974609"/>
     <use xlink:href="#DejaVuSans-61" x="1024.169922"/>
     <use xlink:href="#DejaVuSans-6e" x="1085.449219"/>
     <use xlink:href="#DejaVuSans-64" x="1148.828125"/>
     <use xlink:href="#DejaVuSans-6f" x="1212.304688"/>
     <use xlink:href="#DejaVuSans-76" x="1273.486328"/>
     <use xlink:href="#DejaVuSans-65" x="1332.666016"/>
     <use xlink:href="#DejaVuSans-72" x="1394.189453"/>
     <use xlink:href="#DejaVuSans-53" x="1435.302734"/>
     <use xlink:href="#DejaVuSans-68" x="1498.779297"/>
     <use xlink:href="#DejaVuSans-6f" x="1562.158203"/>
     <use xlink:href="#DejaVuSans-77" x="1623.339844"/>
     <use xlink:href="#DejaVuSans-63" x="1705.126953"/>
     <use xlink:href="#DejaVuSans-61" x="1760.107422"/>
     <use xlink:href="#DejaVuSans-73" x="1821.386719"/>
     <use xlink:href="#DejaVuSans-65" x="1873.486328"/>
     <use xlink:href="#DejaVuSans-2e" x="1935.009766"/>
     <use xlink:href="#DejaVuSans-61" x="1966.796875"/>
     <use xlink:href="#DejaVuSans-70" x="2028.076172"/>
     <use xlink:href="#DejaVuSans-31" x="2091.552734"/>
     <use xlink:href="#DejaVuSans-2e" x="2155.175781"/>
     <use xlink:href="#DejaVuSans-77" x="2186.962891"/>
     <use xlink:href="#DejaVuSans-6c" x="2268.75"/>
     <use xlink:href="#DejaVuSans-61" x="2296.533203"/>
     <use xlink:href="#DejaVuSans-6e" x="2357.8125"/>
     <use xlink:href="#DejaVuSans-5b" x="2421.191406"/>
     <use xlink:href="#DejaVuSans-30" x="2460.205078"/>
     <use xlink:href="#DejaVuSans-5d" x="2523.828125"/>
     <use xlink:href="#DejaVuSans-2e" x="2562.841797"/>
     <use xlink:href="#DejaVuSans-72" x="2594.628906"/>
     <use xlink:href="#DejaVuSans-61" x="2635.742188"/>
     <use xlink:href="#DejaVuSans-64" x="2697.021484"/>
     <use xlink:href="#DejaVuSans-69" x="2760.498047"/>
     <use xlink:href="#DejaVuSans-6f" x="2788.28125"/>
     <use xlink:href="#DejaVuSans-29" x="2849.462891"/>
    </g>
   </g>
   <g id="legend_1">
    <g id="patch_7">
     <path d="M 576.717188 145.299062 
L 702.2 145.299062 
Q 704.2 145.299062 704.2 143.299062 
L 704.2 129.620937 
Q 704.2 127.620937 702.2 127.620937 
L 576.717188 127.620937 
Q 574.717188 127.620937 574.717188 129.620937 
L 574.717188 143.299062 
Q 574.717188 145.299062 576.717188 145.299062 
z
" style="fill: #ffffff; opacity: 0.8; stroke: #cccccc; stroke-linejoin: miter"/>
    </g>
    <g id="line2d_24">
     <path d="M 578.717188 135.719375 
L 588.717188 135.719375 
L 598.717188 135.719375 
" style="fill: none; stroke: #1f77b4; stroke-width: 1.5; stroke-linecap: square"/>
    </g>
    <g id="text_15">
     <!-- value per sample -->
     <g transform="translate(606.717188 139.219375) scale(0.1 -0.1)">
      <defs>
       <path id="DejaVuSans-394" d="M 2188 4044 
L 906 525 
L 3472 525 
L 2188 4044 
z
M 50 0 
L 1831 4666 
L 2547 4666 
L 4325 0 
L 50 0 
z
" transform="scale(0.015625)"/>
      </defs>
      <use xlink:href="#DejaVuSans-394"/>
      <use xlink:href="#DejaVuSans-76" x="68.408203"/>
      <use xlink:href="#DejaVuSans-61" x="127.587891"/>
      <use xlink:href="#DejaVuSans-6c" x="188.867188"/>
      <use xlink:href="#DejaVuSans-75" x="216.650391"/>
      <use xlink:href="#DejaVuSans-65" x="280.029297"/>
      <use xlink:href="#DejaVuSans-20" x="341.552734"/>
      <use xlink:href="#DejaVuSans-70" x="373.339844"/>
      <use xlink:href="#DejaVuSans-65" x="436.816406"/>
      <use xlink:href="#DejaVuSans-72" x="498.339844"/>
      <use xlink:href="#DejaVuSans-20" x="539.453125"/>
      <use xlink:href="#DejaVuSans-73" x="571.240234"/>
      <use xlink:href="#DejaVuSans-61" x="623.339844"/>
      <use xlink:href="#DejaVuSans-6d" x="684.619141"/>
      <use xlink:href="#DejaVuSans-70" x="782.03125"/>
      <use xlink:href="#DejaVuSans-6c" x="845.507812"/>
      <use xlink:href="#DejaVuSans-65" x="873.291016"/>
     </g>
    </g>
   </g>
  </g>
 </g>
 <defs>
  <clipPath id="pe895eefacc">
   <rect x="54.02" y="26.88" width="655.18" height="219.16"/>
  </clipPath>
 </defs>
</svg>
