<?xml version="1.0" encoding="utf-8" standalone="no"?>
<!DOCTYPE svg PUBLIC "-//W3C//DTD SVG 1.1//EN"
  "http://www.w3.org/Graphics/SVG/1.1/DTD/svg11.dtd">
<svg xmlns:xlink="http://www.w3.org/1999/xlink" width="720pt" height="288pt" viewBox="0 0 720 288" xmlns="http://www.w3.org/2000/svg" version="1.1">
 <metadata>
  <rdf:RDF xmlns:dc="http://purl.org/dc/elements/1.1/" xmlns:cc="http://creativecommons.org/ns#" xmlns:rdf="http://www.w3.org/1999/02/22-rdf-syntax-ns#">
   <cc:Work>
    <dc:type rdf:resource="http://purl.org/dc/dcmitype/StillImage"/>
    <dc:date>2025-07-27T15:08:52.258376</dc:date>
    <dc:format>image/svg+xml</dc:format>
    <dc:creator>
     <cc:Agent>
      <dc:title>Matplotlib v3.9.2, https://matplotlib.org/</dc:title>
     </cc:Agent>
    </dc:creator>
   </cc:Work>
  </rdf:RDF>
 </metadata>
 <defs>
  <style type="text/css">*{stroke-linejoin: round; stroke-linecap: butt}</style>
 </defs>
 <g id="figure_1">
  <g id="patch_1">
   <path d="M 0 288 
L 720 288 
L 720 0 
L 0 0 
z
" style="fill: #ffffff"/>
  </g>
  <g id="axes_1">
   <g id="patch_2">
    <path d="M 54.02 246.04 
L 709.2 246.04 
L 709.2 26.88 
L 54.02 26.88 
z
" style="fill: #ffffff"/>
   </g>
   <g id="matplotlib.axis_1">
    <g id="xtick_1">
     <g id="line2d_1">
      <path d="M 83.786458 246.04 
L 83.786458 26.88 
" clip-path="url(#p00d1c1d060)" style="fill: none; stroke: #b0b0b0; stroke-width: 0.8; stroke-linecap: square"/>
     </g>
     <g id="line2d_2">
      <defs>
       <path id="m529ee9db2d" d="M 0 0 
L 0 3.5 
" style="stroke: #000000; stroke-width: 0.8"/>
      </defs>
      <g>
       <use xlink:href="#m529ee9db2d" x="83.786458" y="246.04" style="stroke: #000000; stroke-width: 0.8"/>
      </g>
     </g>
     <g id="text_1">
      <!-- 0 -->
      <g transform="translate(80.605208 260.638438) scale(0.1 -0.1)">
       <defs>
        <path id="DejaVuSans-30" d="M 2034 4250 
Q 1547 4250 1301 3770 
Q 1056 3291 1056 2328 
Q 1056 1369 1301 889 
Q 1547 409 2034 409 
Q 2525 409 2770 889 
Q 3016 1369 3016 2328 
Q 3016 3291 2770 3770 
Q 2525 4250 2034 4250 
z
M 2034 4750 
Q 2819 4750 3233 4129 
Q 3647 3509 3647 2328 
Q 3647 1150 3233 529 
Q 2819 -91 2034 -91 
Q 1250 -91 836 529 
Q 422 1150 422 2328 
Q 422 3509 836 4129 
Q 1250 4750 2034 4750 
z
" transform="scale(0.015625)"/>
       </defs>
       <use xlink:href="#DejaVuSans-30"/>
      </g>
     </g>
    </g>
    <g id="xtick_2">
     <g id="line2d_3">
      <path d="M 228.297857 246.04 
L 228.297857 26.88 
" clip-path="url(#p00d1c1d060)" style="fill: none; stroke: #b0b0b0; stroke-width: 0.8; stroke-linecap: square"/>
     </g>
     <g id="line2d_4">
      <g>
       <use xlink:href="#m529ee9db2d" x="228.297857" y="246.04" style="stroke: #000000; stroke-width: 0.8"/>
      </g>
     </g>
     <g id="text_2">
      <!-- 10000 -->
      <g transform="translate(212.391607 260.638438) scale(0.1 -0.1)">
       <defs>
        <path id="DejaVuSans-31" d="M 794 531 
L 1825 531 
L 1825 4091 
L 703 3866 
L 703 4441 
L 1819 4666 
L 2450 4666 
L 2450 531 
L 3481 531 
L 3481 0 
L 794 0 
L 794 531 
z
" transform="scale(0.015625)"/>
       </defs>
       <use xlink:href="#DejaVuSans-31"/>
       <use xlink:href="#DejaVuSans-30" x="63.623047"/>
       <use xlink:href="#DejaVuSans-30" x="127.246094"/>
       <use xlink:href="#DejaVuSans-30" x="190.869141"/>
       <use xlink:href="#DejaVuSans-30" x="254.492188"/>
      </g>
     </g>
    </g>
    <g id="xtick_3">
     <g id="line2d_5">
      <path d="M 372.809256 246.04 
L 372.809256 26.88 
" clip-path="url(#p00d1c1d060)" style="fill: none; stroke: #b0b0b0; stroke-width: 0.8; stroke-linecap: square"/>
     </g>
     <g id="line2d_6">
      <g>
       <use xlink:href="#m529ee9db2d" x="372.809256" y="246.04" style="stroke: #000000; stroke-width: 0.8"/>
      </g>
     </g>
     <g id="text_3">
      <!-- 20000 -->
      <g transform="translate(356.903006 260.638438) scale(0.1 -0.1)">
       <defs>
        <path id="DejaVuSans-32" d="M 1228 531 
L 3431 531 
L 3431 0 
L 469 0 
L 469 531 
Q 828 903 1448 1529 
Q 2069 2156 2228 2338 
Q 2531 2678 2651 2914 
Q 2772 3150 2772 3378 
Q 2772 3750 2511 3984 
Q 2250 4219 1831 4219 
Q 1534 4219 1204 4116 
Q 875 4013 500 3803 
L 500 4441 
Q 881 4594 1212 4672 
Q 1544 4750 1819 4750 
Q 2544 4750 2975 4387 
Q 3406 4025 3406 3419 
Q 3406 3131 3298 2873 
Q 3191 2616 2906 2266 
Q 2828 2175 2409 1742 
Q 1991 1309 1228 531 
z
" transform="scale(0.015625)"/>
       </defs>
       <use xlink:href="#DejaVuSans-32"/>
       <use xlink:href="#DejaVuSans-30" x="63.623047"/>
       <use xlink:href="#DejaVuSans-30" x="127.246094"/>
       <use xlink:href="#DejaVuSans-30" x="190.869141"/>
       <use xlink:href="#DejaVuSans-30" x="254.492188"/>
      </g>
     </g>
    </g>
    <g id="xtick_4">
     <g id="line2d_7">
      <path d="M 517.320655 246.04 
L 517.320655 26.88 
" clip-path="url(#p00d1c1d060)" style="fill: none; stroke: #b0b0b0; stroke-width: 0.8; stroke-linecap: square"/>
     </g>
     <g id="line2d_8">
      <g>
       <use xlink:href="#m529ee9db2d" x="517.320655" y="246.04" style="stroke: #000000; stroke-width: 0.8"/>
      </g>
     </g>
     <g id="text_4">
      <!-- 30000 -->
      <g transform="translate(501.414405 260.638438) scale(0.1 -0.1)">
       <defs>
        <path id="DejaVuSans-33" d="M 2597 2516 
Q 3050 2419 3304 2112 
Q 3559 1806 3559 1356 
Q 3559 666 3084 287 
Q 2609 -91 1734 -91 
Q 1441 -91 1130 -33 
Q 819 25 488 141 
L 488 750 
Q 750 597 1062 519 
Q 1375 441 1716 441 
Q 2309 441 2620 675 
Q 2931 909 2931 1356 
Q 2931 1769 2642 2001 
Q 2353 2234 1838 2234 
L 1294 2234 
L 1294 2753 
L 1863 2753 
Q 2328 2753 2575 2939 
Q 2822 3125 2822 3475 
Q 2822 3834 2567 4026 
Q 2313 4219 1838 4219 
Q 1578 4219 1281 4162 
Q 984 4106 628 3988 
L 628 4550 
Q 988 4650 1302 4700 
Q 1616 4750 1894 4750 
Q 2613 4750 3031 4423 
Q 3450 4097 3450 3541 
Q 3450 3153 3228 2886 
Q 3006 2619 2597 2516 
z
" transform="scale(0.015625)"/>
       </defs>
       <use xlink:href="#DejaVuSans-33"/>
       <use xlink:href="#DejaVuSans-30" x="63.623047"/>
       <use xlink:href="#DejaVuSans-30" x="127.246094"/>
       <use xlink:href="#DejaVuSans-30" x="190.869141"/>
       <use xlink:href="#DejaVuSans-30" x="254.492188"/>
      </g>
     </g>
    </g>
    <g id="xtick_5">
     <g id="line2d_9">
      <path d="M 661.832054 246.04 
L 661.832054 26.88 
" clip-path="url(#p00d1c1d060)" style="fill: none; stroke: #b0b0b0; stroke-width: 0.8; stroke-linecap: square"/>
     </g>
     <g id="line2d_10">
      <g>
       <use xlink:href="#m529ee9db2d" x="661.832054" y="246.04" style="stroke: #000000; stroke-width: 0.8"/>
      </g>
     </g>
     <g id="text_5">
      <!-- 40000 -->
      <g transform="translate(645.925804 260.638438) scale(0.1 -0.1)">
       <defs>
        <path id="DejaVuSans-34" d="M 2419 4116 
L 825 1625 
L 2419 1625 
L 2419 4116 
z
M 2253 4666 
L 3047 4666 
L 3047 1625 
L 3713 1625 
L 3713 1100 
L 3047 1100 
L 3047 0 
L 2419 0 
L 2419 1100 
L 313 1100 
L 313 1709 
L 2253 4666 
z
" transform="scale(0.015625)"/>
       </defs>
       <use xlink:href="#DejaVuSans-34"/>
       <use xlink:href="#DejaVuSans-30" x="63.623047"/>
       <use xlink:href="#DejaVuSans-30" x="127.246094"/>
       <use xlink:href="#DejaVuSans-30" x="190.869141"/>
       <use xlink:href="#DejaVuSans-30" x="254.492188"/>
      </g>
     </g>
    </g>
    <g id="text_6">
     <!-- Time (s) -->
     <g transform="translate(361.281094 274.316562) scale(0.1 -0.1)">
      <defs>
       <path id="DejaVuSans-54" d="M -19 4666 
L 3928 4666 
L 3928 4134 
L 2272 4134 
L 2272 0 
L 1638 0 
L 1638 4134 
L -19 4134 
L -19 4666 
z
" transform="scale(0.015625)"/>
       <path id="DejaVuSans-69" d="M 603 3500 
L 1178 3500 
L 1178 0 
L 603 0 
L 603 3500 
z
M 603 4863 
L 1178 4863 
L 1178 4134 
L 603 4134 
L 603 4863 
z
" transform="scale(0.015625)"/>
       <path id="DejaVuSans-6d" d="M 3328 2828 
Q 3544 3216 3844 3400 
Q 4144 3584 4550 3584 
Q 5097 3584 5394 3201 
Q 5691 2819 5691 2113 
L 5691 0 
L 5113 0 
L 5113 2094 
Q 5113 2597 4934 2840 
Q 4756 3084 4391 3084 
Q 3944 3084 3684 2787 
Q 3425 2491 3425 1978 
L 3425 0 
L 2847 0 
L 2847 2094 
Q 2847 2600 2669 2842 
Q 2491 3084 2119 3084 
Q 1678 3084 1418 2786 
Q 1159 2488 1159 1978 
L 1159 0 
L 581 0 
L 581 3500 
L 1159 3500 
L 1159 2956 
Q 1356 3278 1631 3431 
Q 1906 3584 2284 3584 
Q 2666 3584 2933 3390 
Q 3200 3197 3328 2828 
z
" transform="scale(0.015625)"/>
       <path id="DejaVuSans-65" d="M 3597 1894 
L 3597 1613 
L 953 1613 
Q 991 1019 1311 708 
Q 1631 397 2203 397 
Q 2534 397 2845 478 
Q 3156 559 3463 722 
L 3463 178 
Q 3153 47 2828 -22 
Q 2503 -91 2169 -91 
Q 1331 -91 842 396 
Q 353 884 353 1716 
Q 353 2575 817 3079 
Q 1281 3584 2069 3584 
Q 2775 3584 3186 3129 
Q 3597 2675 3597 1894 
z
M 3022 2063 
Q 3016 2534 2758 2815 
Q 2500 3097 2075 3097 
Q 1594 3097 1305 2825 
Q 1016 2553 972 2059 
L 3022 2063 
z
" transform="scale(0.015625)"/>
       <path id="DejaVuSans-20" transform="scale(0.015625)"/>
       <path id="DejaVuSans-28" d="M 1984 4856 
Q 1566 4138 1362 3434 
Q 1159 2731 1159 2009 
Q 1159 1288 1364 580 
Q 1569 -128 1984 -844 
L 1484 -844 
Q 1016 -109 783 600 
Q 550 1309 550 2009 
Q 550 2706 781 3412 
Q 1013 4119 1484 4856 
L 1984 4856 
z
" transform="scale(0.015625)"/>
       <path id="DejaVuSans-73" d="M 2834 3397 
L 2834 2853 
Q 2591 2978 2328 3040 
Q 2066 3103 1784 3103 
Q 1356 3103 1142 2972 
Q 928 2841 928 2578 
Q 928 2378 1081 2264 
Q 1234 2150 1697 2047 
L 1894 2003 
Q 2506 1872 2764 1633 
Q 3022 1394 3022 966 
Q 3022 478 2636 193 
Q 2250 -91 1575 -91 
Q 1294 -91 989 -36 
Q 684 19 347 128 
L 347 722 
Q 666 556 975 473 
Q 1284 391 1588 391 
Q 1994 391 2212 530 
Q 2431 669 2431 922 
Q 2431 1156 2273 1281 
Q 2116 1406 1581 1522 
L 1381 1569 
Q 847 1681 609 1914 
Q 372 2147 372 2553 
Q 372 3047 722 3315 
Q 1072 3584 1716 3584 
Q 2034 3584 2315 3537 
Q 2597 3491 2834 3397 
z
" transform="scale(0.015625)"/>
       <path id="DejaVuSans-29" d="M 513 4856 
L 1013 4856 
Q 1481 4119 1714 3412 
Q 1947 2706 1947 2009 
Q 1947 1309 1714 600 
Q 1481 -109 1013 -844 
L 513 -844 
Q 928 -128 1133 580 
Q 1338 1288 1338 2009 
Q 1338 2731 1133 3434 
Q 928 4138 513 4856 
z
" transform="scale(0.015625)"/>
      </defs>
      <use xlink:href="#DejaVuSans-54"/>
      <use xlink:href="#DejaVuSans-69" x="57.958984"/>
      <use xlink:href="#DejaVuSans-6d" x="85.742188"/>
      <use xlink:href="#DejaVuSans-65" x="183.154297"/>
      <use xlink:href="#DejaVuSans-20" x="244.677734"/>
      <use xlink:href="#DejaVuSans-28" x="276.464844"/>
      <use xlink:href="#DejaVuSans-73" x="315.478516"/>
      <use xlink:href="#DejaVuSans-29" x="367.578125"/>
     </g>
    </g>
   </g>
   <g id="matplotlib.axis_2">
    <g id="ytick_1">
     <g id="line2d_11">
      <path d="M 54.02 236.078182 
L 709.2 236.078182 
" clip-path="url(#p00d1c1d060)" style="fill: none; stroke: #b0b0b0; stroke-width: 0.8; stroke-linecap: square"/>
     </g>
     <g id="line2d_12">
      <defs>
       <path id="m93036d0373" d="M 0 0 
L -3.5 0 
" style="stroke: #000000; stroke-width: 0.8"/>
      </defs>
      <g>
       <use xlink:href="#m93036d0373" x="54.02" y="236.078182" style="stroke: #000000; stroke-width: 0.8"/>
      </g>
     </g>
     <g id="text_7">
      <!-- 0.00 -->
      <g transform="translate(24.754375 239.877401) scale(0.1 -0.1)">
       <defs>
        <path id="DejaVuSans-2e" d="M 684 794 
L 1344 794 
L 1344 0 
L 684 0 
L 684 794 
z
" transform="scale(0.015625)"/>
       </defs>
       <use xlink:href="#DejaVuSans-30"/>
       <use xlink:href="#DejaVuSans-2e" x="63.623047"/>
       <use xlink:href="#DejaVuSans-30" x="95.410156"/>
       <use xlink:href="#DejaVuSans-30" x="159.033203"/>
      </g>
     </g>
    </g>
    <g id="ytick_2">
     <g id="line2d_13">
      <path d="M 54.02 196.212571 
L 709.2 196.212571 
" clip-path="url(#p00d1c1d060)" style="fill: none; stroke: #b0b0b0; stroke-width: 0.8; stroke-linecap: square"/>
     </g>
     <g id="line2d_14">
      <g>
       <use xlink:href="#m93036d0373" x="54.02" y="196.212571" style="stroke: #000000; stroke-width: 0.8"/>
      </g>
     </g>
     <g id="text_8">
      <!-- 0.02 -->
      <g transform="translate(24.754375 200.01179) scale(0.1 -0.1)">
       <use xlink:href="#DejaVuSans-30"/>
       <use xlink:href="#DejaVuSans-2e" x="63.623047"/>
       <use xlink:href="#DejaVuSans-30" x="95.410156"/>
       <use xlink:href="#DejaVuSans-32" x="159.033203"/>
      </g>
     </g>
    </g>
    <g id="ytick_3">
     <g id="line2d_15">
      <path d="M 54.02 156.34696 
L 709.2 156.34696 
" clip-path="url(#p00d1c1d060)" style="fill: none; stroke: #b0b0b0; stroke-width: 0.8; stroke-linecap: square"/>
     </g>
     <g id="line2d_16">
      <g>
       <use xlink:href="#m93036d0373" x="54.02" y="156.34696" style="stroke: #000000; stroke-width: 0.8"/>
      </g>
     </g>
     <g id="text_9">
      <!-- 0.04 -->
      <g transform="translate(24.754375 160.146179) scale(0.1 -0.1)">
       <use xlink:href="#DejaVuSans-30"/>
       <use xlink:href="#DejaVuSans-2e" x="63.623047"/>
       <use xlink:href="#DejaVuSans-30" x="95.410156"/>
       <use xlink:href="#DejaVuSans-34" x="159.033203"/>
      </g>
     </g>
    </g>
    <g id="ytick_4">
     <g id="line2d_17">
      <path d="M 54.02 116.481349 
L 709.2 116.481349 
" clip-path="url(#p00d1c1d060)" style="fill: none; stroke: #b0b0b0; stroke-width: 0.8; stroke-linecap: square"/>
     </g>
     <g id="line2d_18">
      <g>
       <use xlink:href="#m93036d0373" x="54.02" y="116.481349" style="stroke: #000000; stroke-width: 0.8"/>
      </g>
     </g>
     <g id="text_10">
      <!-- 0.06 -->
      <g transform="translate(24.754375 120.280568) scale(0.1 -0.1)">
       <defs>
        <path id="DejaVuSans-36" d="M 2113 2584 
Q 1688 2584 1439 2293 
Q 1191 2003 1191 1497 
Q 1191 994 1439 701 
Q 1688 409 2113 409 
Q 2538 409 2786 701 
Q 3034 994 3034 1497 
Q 3034 2003 2786 2293 
Q 2538 2584 2113 2584 
z
M 3366 4563 
L 3366 3988 
Q 3128 4100 2886 4159 
Q 2644 4219 2406 4219 
Q 1781 4219 1451 3797 
Q 1122 3375 1075 2522 
Q 1259 2794 1537 2939 
Q 1816 3084 2150 3084 
Q 2853 3084 3261 2657 
Q 3669 2231 3669 1497 
Q 3669 778 3244 343 
Q 2819 -91 2113 -91 
Q 1303 -91 875 529 
Q 447 1150 447 2328 
Q 447 3434 972 4092 
Q 1497 4750 2381 4750 
Q 2619 4750 2861 4703 
Q 3103 4656 3366 4563 
z
" transform="scale(0.015625)"/>
       </defs>
       <use xlink:href="#DejaVuSans-30"/>
       <use xlink:href="#DejaVuSans-2e" x="63.623047"/>
       <use xlink:href="#DejaVuSans-30" x="95.410156"/>
       <use xlink:href="#DejaVuSans-36" x="159.033203"/>
      </g>
     </g>
    </g>
    <g id="ytick_5">
     <g id="line2d_19">
      <path d="M 54.02 76.615738 
L 709.2 76.615738 
" clip-path="url(#p00d1c1d060)" style="fill: none; stroke: #b0b0b0; stroke-width: 0.8; stroke-linecap: square"/>
     </g>
     <g id="line2d_20">
      <g>
       <use xlink:href="#m93036d0373" x="54.02" y="76.615738" style="stroke: #000000; stroke-width: 0.8"/>
      </g>
     </g>
     <g id="text_11">
      <!-- 0.08 -->
      <g transform="translate(24.754375 80.414957) scale(0.1 -0.1)">
       <defs>
        <path id="DejaVuSans-38" d="M 2034 2216 
Q 1584 2216 1326 1975 
Q 1069 1734 1069 1313 
Q 1069 891 1326 650 
Q 1584 409 2034 409 
Q 2484 409 2743 651 
Q 3003 894 3003 1313 
Q 3003 1734 2745 1975 
Q 2488 2216 2034 2216 
z
M 1403 2484 
Q 997 2584 770 2862 
Q 544 3141 544 3541 
Q 544 4100 942 4425 
Q 1341 4750 2034 4750 
Q 2731 4750 3128 4425 
Q 3525 4100 3525 3541 
Q 3525 3141 3298 2862 
Q 3072 2584 2669 2484 
Q 3125 2378 3379 2068 
Q 3634 1759 3634 1313 
Q 3634 634 3220 271 
Q 2806 -91 2034 -91 
Q 1263 -91 848 271 
Q 434 634 434 1313 
Q 434 1759 690 2068 
Q 947 2378 1403 2484 
z
M 1172 3481 
Q 1172 3119 1398 2916 
Q 1625 2713 2034 2713 
Q 2441 2713 2670 2916 
Q 2900 3119 2900 3481 
Q 2900 3844 2670 4047 
Q 2441 4250 2034 4250 
Q 1625 4250 1398 4047 
Q 1172 3844 1172 3481 
z
" transform="scale(0.015625)"/>
       </defs>
       <use xlink:href="#DejaVuSans-30"/>
       <use xlink:href="#DejaVuSans-2e" x="63.623047"/>
       <use xlink:href="#DejaVuSans-30" x="95.410156"/>
       <use xlink:href="#DejaVuSans-38" x="159.033203"/>
      </g>
     </g>
    </g>
    <g id="ytick_6">
     <g id="line2d_21">
      <path d="M 54.02 36.750127 
L 709.2 36.750127 
" clip-path="url(#p00d1c1d060)" style="fill: none; stroke: #b0b0b0; stroke-width: 0.8; stroke-linecap: square"/>
     </g>
     <g id="line2d_22">
      <g>
       <use xlink:href="#m93036d0373" x="54.02" y="36.750127" style="stroke: #000000; stroke-width: 0.8"/>
      </g>
     </g>
     <g id="text_12">
      <!-- 0.10 -->
      <g transform="translate(24.754375 40.549346) scale(0.1 -0.1)">
       <use xlink:href="#DejaVuSans-30"/>
       <use xlink:href="#DejaVuSans-2e" x="63.623047"/>
       <use xlink:href="#DejaVuSans-31" x="95.410156"/>
       <use xlink:href="#DejaVuSans-30" x="159.033203"/>
      </g>
     </g>
    </g>
    <g id="text_13">
     <!-- Delta Value -->
     <g transform="translate(18.674688 165.120156) rotate(-90) scale(0.1 -0.1)">
      <defs>
       <path id="DejaVuSans-44" d="M 1259 4147 
L 1259 519 
L 2022 519 
Q 2988 519 3436 956 
Q 3884 1394 3884 2338 
Q 3884 3275 3436 3711 
Q 2988 4147 2022 4147 
L 1259 4147 
z
M 628 4666 
L 1925 4666 
Q 3281 4666 3915 4102 
Q 4550 3538 4550 2338 
Q 4550 1131 3912 565 
Q 3275 0 1925 0 
L 628 0 
L 628 4666 
z
" transform="scale(0.015625)"/>
       <path id="DejaVuSans-6c" d="M 603 4863 
L 1178 4863 
L 1178 0 
L 603 0 
L 603 4863 
z
" transform="scale(0.015625)"/>
       <path id="DejaVuSans-74" d="M 1172 4494 
L 1172 3500 
L 2356 3500 
L 2356 3053 
L 1172 3053 
L 1172 1153 
Q 1172 725 1289 603 
Q 1406 481 1766 481 
L 2356 481 
L 2356 0 
L 1766 0 
Q 1100 0 847 248 
Q 594 497 594 1153 
L 594 3053 
L 172 3053 
L 172 3500 
L 594 3500 
L 594 4494 
L 1172 4494 
z
" transform="scale(0.015625)"/>
       <path id="DejaVuSans-61" d="M 2194 1759 
Q 1497 1759 1228 1600 
Q 959 1441 959 1056 
Q 959 750 1161 570 
Q 1363 391 1709 391 
Q 2188 391 2477 730 
Q 2766 1069 2766 1631 
L 2766 1759 
L 2194 1759 
z
M 3341 1997 
L 3341 0 
L 2766 0 
L 2766 531 
Q 2569 213 2275 61 
Q 1981 -91 1556 -91 
Q 1019 -91 701 211 
Q 384 513 384 1019 
Q 384 1609 779 1909 
Q 1175 2209 1959 2209 
L 2766 2209 
L 2766 2266 
Q 2766 2663 2505 2880 
Q 2244 3097 1772 3097 
Q 1472 3097 1187 3025 
Q 903 2953 641 2809 
L 641 3341 
Q 956 3463 1253 3523 
Q 1550 3584 1831 3584 
Q 2591 3584 2966 3190 
Q 3341 2797 3341 1997 
z
" transform="scale(0.015625)"/>
       <path id="DejaVuSans-56" d="M 1831 0 
L 50 4666 
L 709 4666 
L 2188 738 
L 3669 4666 
L 4325 4666 
L 2547 0 
L 1831 0 
z
" transform="scale(0.015625)"/>
       <path id="DejaVuSans-75" d="M 544 1381 
L 544 3500 
L 1119 3500 
L 1119 1403 
Q 1119 906 1312 657 
Q 1506 409 1894 409 
Q 2359 409 2629 706 
Q 2900 1003 2900 1516 
L 2900 3500 
L 3475 3500 
L 3475 0 
L 2900 0 
L 2900 538 
Q 2691 219 2414 64 
Q 2138 -91 1772 -91 
Q 1169 -91 856 284 
Q 544 659 544 1381 
z
M 1991 3584 
L 1991 3584 
z
" transform="scale(0.015625)"/>
      </defs>
      <use xlink:href="#DejaVuSans-44"/>
      <use xlink:href="#DejaVuSans-65" x="77.001953"/>
      <use xlink:href="#DejaVuSans-6c" x="138.525391"/>
      <use xlink:href="#DejaVuSans-74" x="166.308594"/>
      <use xlink:href="#DejaVuSans-61" x="205.517578"/>
      <use xlink:href="#DejaVuSans-20" x="266.796875"/>
      <use xlink:href="#DejaVuSans-56" x="298.583984"/>
      <use xlink:href="#DejaVuSans-61" x="359.242188"/>
      <use xlink:href="#DejaVuSans-6c" x="420.521484"/>
      <use xlink:href="#DejaVuSans-75" x="448.304688"/>
      <use xlink:href="#DejaVuSans-65" x="511.683594"/>
     </g>
    </g>
   </g>
   <g id="line2d_23">
    <path d="M 83.800909 236.078182 
L 83.858714 235.986491 
L 83.873165 236.078182 
L 84.292248 36.841818 
L 84.378955 236.078182 
L 85.014805 36.841818 
L 85.101512 236.078182 
L 85.679557 36.841818 
L 85.766264 236.078182 
L 86.214249 36.841818 
L 86.300956 236.078182 
L 87.095769 36.841818 
L 87.182476 236.078182 
L 87.587108 36.841818 
L 87.673815 236.078182 
L 88.324116 36.841818 
L 88.410823 236.078182 
L 89.480207 36.841818 
L 89.566914 236.078182 
L 90.014899 36.841818 
L 90.101606 236.078182 
L 90.708554 36.841818 
L 90.795261 236.078182 
L 91.243246 36.841818 
L 91.329953 236.078182 
L 92.124766 36.841818 
L 92.211473 236.078182 
L 92.616104 36.841818 
L 92.702811 236.078182 
L 93.353113 36.841818 
L 93.439819 236.078182 
L 94.017865 36.841818 
L 94.104572 236.078182 
L 97.283823 36.841818 
L 97.370529 236.078182 
L 97.977477 36.841818 
L 98.064184 236.078182 
L 98.454365 36.841818 
L 98.541072 236.078182 
L 98.974606 36.841818 
L 99.061313 236.078182 
L 99.668261 36.841818 
L 99.754968 236.078182 
L 100.188502 36.841818 
L 100.275209 236.078182 
L 100.882156 36.841818 
L 100.968863 236.078182 
L 101.359044 36.841818 
L 101.445751 236.078182 
L 101.879285 36.841818 
L 101.965992 236.078182 
L 102.57294 36.841818 
L 102.659647 236.078182 
L 103.122083 36.841818 
L 103.20879 236.078182 
L 103.815738 36.841818 
L 103.902445 236.078182 
L 104.292625 36.841818 
L 104.379332 236.078182 
L 104.812866 36.841818 
L 104.899573 236.078182 
L 105.506521 36.841818 
L 105.593228 236.078182 
L 106.026762 36.841818 
L 106.113469 236.078182 
L 106.720417 36.841818 
L 106.807124 236.078182 
L 107.197305 36.841818 
L 107.284011 236.078182 
L 107.717546 36.841818 
L 107.804252 236.078182 
L 108.4112 36.841818 
L 108.497907 236.078182 
L 108.931441 36.841818 
L 109.018148 236.078182 
L 109.625096 36.841818 
L 109.711803 236.078182 
L 110.101984 36.841818 
L 110.188691 236.078182 
L 110.651127 36.841818 
L 110.737834 236.078182 
L 111.344782 36.841818 
L 111.431489 236.078182 
L 111.865023 36.841818 
L 111.95173 236.078182 
L 112.558677 36.841818 
L 112.645384 236.078182 
L 113.035565 36.841818 
L 113.122272 236.078182 
L 113.555806 36.841818 
L 113.642513 236.078182 
L 114.249461 36.841818 
L 114.336168 236.078182 
L 114.769702 36.841818 
L 114.856409 236.078182 
L 115.463357 36.841818 
L 115.550063 236.078182 
L 115.940244 36.841818 
L 116.026951 236.078182 
L 116.460485 36.841818 
L 116.547192 236.078182 
L 117.15414 36.841818 
L 117.240847 236.078182 
L 117.703283 36.841818 
L 117.78999 236.078182 
L 118.396938 36.841818 
L 118.483645 236.078182 
L 118.873826 36.841818 
L 118.960532 236.078182 
L 119.394067 36.841818 
L 119.480773 236.078182 
L 120.087721 36.841818 
L 120.174428 236.078182 
L 120.607962 36.841818 
L 120.694669 236.078182 
L 121.301617 36.841818 
L 121.388324 236.078182 
L 121.778505 36.841818 
L 121.865212 236.078182 
L 122.298746 36.841818 
L 122.385453 236.078182 
L 122.9924 36.841818 
L 123.079107 236.078182 
L 123.512642 36.841818 
L 123.599348 236.078182 
L 124.206296 36.841818 
L 124.293003 236.078182 
L 124.683184 36.841818 
L 124.769891 236.078182 
L 125.232327 36.841818 
L 125.319034 236.078182 
L 125.925982 36.841818 
L 126.012689 236.078182 
L 126.446223 36.841818 
L 126.53293 236.078182 
L 127.139878 36.841818 
L 127.226584 236.078182 
L 127.616765 36.841818 
L 127.703472 236.078182 
L 128.137006 36.841818 
L 128.223713 236.078182 
L 128.830661 36.841818 
L 128.917368 236.078182 
L 129.350902 36.841818 
L 129.437609 236.078182 
L 130.044557 36.841818 
L 130.131264 236.078182 
L 130.521444 36.841818 
L 130.608151 236.078182 
L 131.041685 36.841818 
L 131.128392 236.078182 
L 131.73534 36.841818 
L 131.822047 236.078182 
L 132.284483 36.841818 
L 132.37119 236.078182 
L 132.978138 36.841818 
L 133.064845 236.078182 
L 133.455026 36.841818 
L 133.541733 236.078182 
L 133.975267 36.841818 
L 134.061974 236.078182 
L 134.668922 36.841818 
L 134.755628 236.078182 
L 135.189163 36.841818 
L 135.275869 236.078182 
L 135.882817 36.841818 
L 135.969524 236.078182 
L 136.359705 36.841818 
L 136.446412 236.078182 
L 136.879946 36.841818 
L 136.966653 236.078182 
L 137.573601 36.841818 
L 137.660307 236.078182 
L 138.093842 36.841818 
L 138.180549 236.078182 
L 138.787496 36.841818 
L 138.874203 236.078182 
L 139.264384 36.841818 
L 139.351091 236.078182 
L 139.813527 36.841818 
L 139.900234 236.078182 
L 140.507182 36.841818 
L 140.593889 236.078182 
L 141.027423 36.841818 
L 141.11413 236.078182 
L 141.721078 36.841818 
L 141.807785 236.078182 
L 142.197965 36.841818 
L 142.284672 236.078182 
L 142.718206 36.841818 
L 142.804913 236.078182 
L 143.411861 36.841818 
L 143.498568 236.078182 
L 143.932102 36.841818 
L 144.018809 236.078182 
L 144.625757 36.841818 
L 144.712464 236.078182 
L 145.102645 36.841818 
L 145.189351 236.078182 
L 145.622886 36.841818 
L 145.709592 236.078182 
L 146.31654 36.841818 
L 146.403247 236.078182 
L 146.865684 36.841818 
L 146.95239 236.078182 
L 147.559338 36.841818 
L 147.646045 236.078182 
L 148.036226 36.841818 
L 148.122933 236.078182 
L 148.556467 36.841818 
L 148.643174 236.078182 
L 149.250122 36.841818 
L 149.336829 236.078182 
L 149.770363 36.841818 
L 149.85707 236.078182 
L 150.464017 36.841818 
L 150.550724 236.078182 
L 150.940905 36.841818 
L 151.027612 236.078182 
L 151.461146 36.841818 
L 151.547853 236.078182 
L 152.154801 36.841818 
L 152.241508 236.078182 
L 152.675042 36.841818 
L 152.761749 236.078182 
L 153.368697 36.841818 
L 153.455403 236.078182 
L 153.845584 36.841818 
L 153.932291 236.078182 
L 154.394727 36.841818 
L 154.481434 236.078182 
L 155.088382 36.841818 
L 155.175089 236.078182 
L 155.608623 36.841818 
L 155.69533 236.078182 
L 156.302278 36.841818 
L 156.388985 236.078182 
L 156.779166 36.841818 
L 156.865872 236.078182 
L 157.299407 36.841818 
L 157.386113 236.078182 
L 157.993061 36.841818 
L 158.079768 236.078182 
L 158.513302 36.841818 
L 158.600009 236.078182 
L 159.206957 36.841818 
L 159.293664 236.078182 
L 159.683845 36.841818 
L 159.770552 236.078182 
L 160.204086 36.841818 
L 160.290793 236.078182 
L 160.89774 36.841818 
L 160.984447 236.078182 
L 161.446884 36.841818 
L 161.533591 236.078182 
L 162.140538 36.841818 
L 162.227245 236.078182 
L 162.617426 36.841818 
L 162.704133 236.078182 
L 163.137667 36.841818 
L 163.224374 236.078182 
L 163.831322 36.841818 
L 163.918029 236.078182 
L 164.351563 36.841818 
L 164.43827 236.078182 
L 165.045218 36.841818 
L 165.131924 236.078182 
L 165.522105 36.841818 
L 165.608812 236.078182 
L 166.042346 36.841818 
L 166.129053 236.078182 
L 166.736001 36.841818 
L 166.822708 236.078182 
L 167.256242 36.841818 
L 167.342949 236.078182 
L 167.949897 36.841818 
L 168.036604 236.078182 
L 168.426784 36.841818 
L 168.513491 236.078182 
L 168.975928 36.841818 
L 169.062634 236.078182 
L 169.669582 36.841818 
L 169.756289 236.078182 
L 170.189823 36.841818 
L 170.27653 236.078182 
L 170.883478 36.841818 
L 170.970185 236.078182 
L 171.360366 36.841818 
L 171.447073 236.078182 
L 171.880607 36.841818 
L 171.967314 236.078182 
L 172.574261 36.841818 
L 172.660968 236.078182 
L 173.094502 36.841818 
L 173.181209 236.078182 
L 173.788157 36.841818 
L 173.874864 236.078182 
L 174.265045 36.841818 
L 174.351752 236.078182 
L 174.785286 36.841818 
L 174.871993 236.078182 
L 175.478941 36.841818 
L 175.565647 236.078182 
L 176.028084 36.841818 
L 176.114791 236.078182 
L 176.721739 36.841818 
L 176.808445 236.078182 
L 177.198626 36.841818 
L 177.285333 236.078182 
L 177.718867 36.841818 
L 177.805574 236.078182 
L 178.412522 36.841818 
L 178.499229 236.078182 
L 178.932763 36.841818 
L 179.01947 236.078182 
L 179.626418 36.841818 
L 179.713125 236.078182 
L 180.103305 36.841818 
L 180.190012 236.078182 
L 180.623546 36.841818 
L 180.710253 236.078182 
L 181.317201 36.841818 
L 181.403908 236.078182 
L 181.837442 36.841818 
L 181.924149 236.078182 
L 182.531097 36.841818 
L 182.617804 236.078182 
L 183.007984 36.841818 
L 183.094691 236.078182 
L 183.557128 36.841818 
L 183.643835 236.078182 
L 184.250782 36.841818 
L 184.337489 236.078182 
L 184.771024 36.841818 
L 184.85773 236.078182 
L 185.464678 36.841818 
L 185.551385 236.078182 
L 185.941566 36.841818 
L 186.028273 236.078182 
L 186.461807 36.841818 
L 186.548514 236.078182 
L 187.155462 36.841818 
L 187.242168 236.078182 
L 187.675703 36.841818 
L 187.762409 236.078182 
L 188.369357 36.841818 
L 188.456064 236.078182 
L 188.846245 36.841818 
L 188.932952 236.078182 
L 189.366486 36.841818 
L 189.453193 236.078182 
L 190.060141 36.841818 
L 190.146848 236.078182 
L 190.609284 36.841818 
L 190.695991 236.078182 
L 191.302939 36.841818 
L 191.389646 236.078182 
L 191.779826 36.841818 
L 191.866533 236.078182 
L 192.300067 36.841818 
L 192.386774 236.078182 
L 192.993722 36.841818 
L 193.080429 236.078182 
L 193.513963 36.841818 
L 193.60067 236.078182 
L 194.207618 36.841818 
L 194.294325 236.078182 
L 194.684505 36.841818 
L 194.771212 236.078182 
L 195.204747 36.841818 
L 195.291453 236.078182 
L 195.898401 36.841818 
L 195.985108 236.078182 
L 196.418642 36.841818 
L 196.505349 236.078182 
L 197.112297 36.841818 
L 197.199004 236.078182 
L 197.589185 36.841818 
L 197.675891 236.078182 
L 198.138328 36.841818 
L 198.225035 236.078182 
L 198.831983 36.841818 
L 198.918689 236.078182 
L 199.352224 36.841818 
L 199.438931 236.078182 
L 200.045878 36.841818 
L 200.132585 236.078182 
L 200.522766 36.841818 
L 200.609473 236.078182 
L 201.043007 36.841818 
L 201.129714 236.078182 
L 201.736662 36.841818 
L 201.823369 236.078182 
L 202.256903 36.841818 
L 202.34361 236.078182 
L 202.950558 36.841818 
L 203.037264 236.078182 
L 203.427445 36.841818 
L 203.514152 236.078182 
L 203.947686 36.841818 
L 204.034393 236.078182 
L 204.641341 36.841818 
L 204.728048 236.078182 
L 205.190484 36.841818 
L 205.277191 236.078182 
L 205.884139 36.841818 
L 205.970846 236.078182 
L 206.361027 36.841818 
L 206.447733 236.078182 
L 206.881268 36.841818 
L 206.967974 236.078182 
L 207.574922 36.841818 
L 207.661629 236.078182 
L 208.095163 36.841818 
L 208.18187 236.078182 
L 208.788818 36.841818 
L 208.875525 236.078182 
L 209.265706 36.841818 
L 209.352412 236.078182 
L 209.785947 36.841818 
L 209.872654 236.078182 
L 210.479601 36.841818 
L 210.566308 236.078182 
L 210.999842 36.841818 
L 211.086549 236.078182 
L 211.693497 36.841818 
L 211.780204 236.078182 
L 212.170385 36.841818 
L 212.257092 236.078182 
L 212.719528 36.841818 
L 212.806235 236.078182 
L 213.413183 36.841818 
L 213.49989 236.078182 
L 213.933424 36.841818 
L 214.020131 236.078182 
L 214.627079 36.841818 
L 214.713785 236.078182 
L 215.103966 36.841818 
L 215.190673 236.078182 
L 215.624207 36.841818 
L 215.710914 236.078182 
L 216.317862 36.841818 
L 216.404569 236.078182 
L 216.838103 36.841818 
L 216.92481 236.078182 
L 217.531758 36.841818 
L 217.618464 236.078182 
L 218.008645 36.841818 
L 218.095352 236.078182 
L 218.528886 36.841818 
L 218.615593 236.078182 
L 219.222541 36.841818 
L 219.309248 236.078182 
L 219.771684 36.841818 
L 219.858391 236.078182 
L 220.465339 36.841818 
L 220.552046 236.078182 
L 220.942227 36.841818 
L 221.028934 236.078182 
L 221.462468 36.841818 
L 221.549175 236.078182 
L 222.156122 36.841818 
L 222.242829 236.078182 
L 222.676363 36.841818 
L 222.76307 236.078182 
L 223.370018 36.841818 
L 223.456725 236.078182 
L 223.846906 36.841818 
L 223.933613 236.078182 
L 224.367147 36.841818 
L 224.453854 236.078182 
L 225.060802 36.841818 
L 225.147508 236.078182 
L 225.581043 36.841818 
L 225.667749 236.078182 
L 226.274697 36.841818 
L 226.361404 236.078182 
L 226.751585 36.841818 
L 226.838292 236.078182 
L 227.300728 36.841818 
L 227.387435 236.078182 
L 227.994383 36.841818 
L 228.08109 236.078182 
L 228.514624 36.841818 
L 228.601331 236.078182 
L 229.208279 36.841818 
L 229.294986 236.078182 
L 229.685166 36.841818 
L 229.771873 236.078182 
L 230.205407 36.841818 
L 230.292114 236.078182 
L 230.899062 36.841818 
L 230.985769 236.078182 
L 231.419303 36.841818 
L 231.50601 236.078182 
L 232.112958 36.841818 
L 232.199665 236.078182 
L 232.589845 36.841818 
L 232.676552 236.078182 
L 233.110086 36.841818 
L 233.196793 236.078182 
L 233.803741 36.841818 
L 233.890448 236.078182 
L 234.352884 36.841818 
L 234.439591 236.078182 
L 235.046539 36.841818 
L 235.133246 236.078182 
L 235.523427 36.841818 
L 235.610134 236.078182 
L 236.043668 36.841818 
L 236.130375 236.078182 
L 236.737323 36.841818 
L 236.824029 236.078182 
L 237.257564 36.841818 
L 237.34427 236.078182 
L 237.951218 36.841818 
L 238.037925 236.078182 
L 238.428106 36.841818 
L 238.514813 236.078182 
L 238.948347 36.841818 
L 239.035054 236.078182 
L 239.642002 36.841818 
L 239.728709 236.078182 
L 240.162243 36.841818 
L 240.24895 236.078182 
L 240.855897 36.841818 
L 240.942604 236.078182 
L 241.332785 36.841818 
L 241.419492 236.078182 
L 241.881928 36.841818 
L 241.968635 236.078182 
L 242.575583 36.841818 
L 242.66229 236.078182 
L 243.095824 36.841818 
L 243.182531 236.078182 
L 243.789479 36.841818 
L 243.876186 236.078182 
L 244.266366 36.841818 
L 244.353073 236.078182 
L 244.786607 36.841818 
L 244.873314 236.078182 
L 245.480262 36.841818 
L 245.566969 236.078182 
L 246.000503 36.841818 
L 246.08721 236.078182 
L 246.694158 36.841818 
L 246.780865 236.078182 
L 247.171046 36.841818 
L 247.257752 236.078182 
L 247.691287 36.841818 
L 247.777993 236.078182 
L 248.384941 36.841818 
L 248.471648 236.078182 
L 248.934085 36.841818 
L 249.020791 236.078182 
L 249.627739 36.841818 
L 249.714446 236.078182 
L 250.104627 36.841818 
L 250.191334 236.078182 
L 250.624868 36.841818 
L 250.711575 236.078182 
L 251.318523 36.841818 
L 251.40523 236.078182 
L 251.838764 36.841818 
L 251.925471 236.078182 
L 252.532418 36.841818 
L 252.619125 236.078182 
L 253.009306 36.841818 
L 253.096013 236.078182 
L 253.529547 36.841818 
L 253.616254 236.078182 
L 254.223202 36.841818 
L 254.309909 236.078182 
L 254.743443 36.841818 
L 254.83015 236.078182 
L 255.437098 36.841818 
L 255.523804 236.078182 
L 255.885083 36.841818 
L 255.97179 236.078182 
L 256.405324 36.841818 
L 256.492031 236.078182 
L 257.070076 36.841818 
L 257.156783 236.078182 
L 257.61922 36.841818 
L 257.705927 236.078182 
L 258.500739 36.841818 
L 258.587446 236.078182 
L 258.992078 36.841818 
L 259.078785 236.078182 
L 259.700184 36.841818 
L 259.786891 236.078182 
L 260.364936 36.841818 
L 260.451643 236.078182 
L 260.899628 36.841818 
L 260.986335 236.078182 
L 261.781148 36.841818 
L 261.867855 236.078182 
L 262.272487 36.841818 
L 262.359194 236.078182 
L 262.980593 69.130208 
L 263.067299 236.078182 
L 263.471931 203.881483 
L 263.558638 236.078182 
L 264.165586 36.841818 
L 264.252293 236.078182 
L 264.729181 36.841818 
L 264.815887 236.078182 
L 265.466189 36.841818 
L 265.552896 236.078182 
L 266.130941 36.841818 
L 266.217648 236.078182 
L 266.62228 36.841818 
L 266.708987 236.078182 
L 267.229228 169.184952 
L 267.243679 236.078182 
L 267.38819 236.01041 
L 267.402641 236.078182 
L 267.503799 235.699459 
L 267.590506 236.078182 
L 268.110747 234.668777 
L 268.211905 236.078182 
L 268.313063 235.938652 
L 268.385319 235.994464 
L 268.39977 236.078182 
L 268.977816 235.426224 
L 269.078974 236.078182 
L 269.180132 235.898787 
L 269.252387 235.994464 
L 269.266838 236.078182 
L 270.032749 106.948527 
L 270.119456 236.078182 
L 270.55299 36.841818 
L 270.639697 236.078182 
L 271.246645 36.841818 
L 271.333351 236.078182 
L 271.723532 36.841818 
L 271.810239 236.078182 
L 272.243773 36.841818 
L 272.33048 236.078182 
L 272.937428 36.841818 
L 273.024135 236.078182 
L 273.457669 36.841818 
L 273.544376 236.078182 
L 274.151324 36.841818 
L 274.238031 236.078182 
L 274.628211 36.841818 
L 274.714918 236.078182 
L 275.177355 36.841818 
L 275.264062 236.078182 
L 275.871009 36.841818 
L 275.957716 236.078182 
L 276.39125 36.841818 
L 276.477957 236.078182 
L 277.084905 36.841818 
L 277.171612 236.078182 
L 277.561793 36.841818 
L 277.6485 236.078182 
L 278.082034 36.841818 
L 278.168741 236.078182 
L 278.775689 36.841818 
L 278.862395 236.078182 
L 279.29593 36.841818 
L 279.382636 236.078182 
L 279.989584 36.841818 
L 280.076291 236.078182 
L 280.466472 36.841818 
L 280.553179 236.078182 
L 280.986713 36.841818 
L 281.07342 236.078182 
L 281.680368 36.841818 
L 281.767074 236.078182 
L 282.229511 36.841818 
L 282.316218 236.078182 
L 282.923166 36.841818 
L 283.009873 236.078182 
L 283.400053 36.841818 
L 283.48676 236.078182 
L 283.920294 36.841818 
L 284.007001 236.078182 
L 284.613949 36.841818 
L 284.700656 236.078182 
L 285.13419 36.841818 
L 285.220897 236.078182 
L 285.827845 36.841818 
L 285.914552 236.078182 
L 286.304732 36.841818 
L 286.391439 236.078182 
L 286.824973 36.841818 
L 286.91168 236.078182 
L 287.518628 36.841818 
L 287.605335 236.078182 
L 288.038869 36.841818 
L 288.125576 236.078182 
L 288.732524 36.841818 
L 288.819231 236.078182 
L 289.209412 36.841818 
L 289.296118 236.078182 
L 289.758555 36.841818 
L 289.845262 236.078182 
L 290.45221 36.841818 
L 290.538916 236.078182 
L 290.972451 36.841818 
L 291.059157 236.078182 
L 291.666105 36.841818 
L 291.752812 236.078182 
L 292.142993 36.841818 
L 292.2297 236.078182 
L 292.663234 36.841818 
L 292.749941 236.078182 
L 293.356889 36.841818 
L 293.443596 236.078182 
L 293.87713 36.841818 
L 293.963837 236.078182 
L 294.570784 36.841818 
L 294.657491 236.078182 
L 295.047672 36.841818 
L 295.134379 236.078182 
L 295.567913 36.841818 
L 295.65462 236.078182 
L 296.261568 36.841818 
L 296.348275 236.078182 
L 296.810711 36.841818 
L 296.897418 236.078182 
L 297.504366 36.841818 
L 297.591073 236.078182 
L 297.981253 36.841818 
L 298.06796 236.078182 
L 298.501494 36.841818 
L 298.588201 236.078182 
L 299.195149 36.841818 
L 299.281856 236.078182 
L 299.71539 36.841818 
L 299.802097 236.078182 
L 300.409045 36.841818 
L 300.495752 236.078182 
L 300.885933 36.841818 
L 300.972639 236.078182 
L 301.406174 36.841818 
L 301.49288 236.078182 
L 302.099828 36.841818 
L 302.186535 236.078182 
L 302.620069 36.841818 
L 302.706776 236.078182 
L 303.313724 36.841818 
L 303.400431 236.078182 
L 303.790612 36.841818 
L 303.877319 236.078182 
L 304.339755 36.841818 
L 304.426462 236.078182 
L 305.03341 36.841818 
L 305.120117 236.078182 
L 305.553651 36.841818 
L 305.640358 236.078182 
L 306.247305 36.841818 
L 306.334012 236.078182 
L 306.724193 36.841818 
L 306.8109 236.078182 
L 307.244434 36.841818 
L 307.331141 236.078182 
L 307.938089 36.841818 
L 308.024796 236.078182 
L 308.45833 36.841818 
L 308.545037 236.078182 
L 309.151985 36.841818 
L 309.238691 236.078182 
L 309.628872 36.841818 
L 309.715579 236.078182 
L 310.149113 36.841818 
L 310.23582 236.078182 
L 310.842768 36.841818 
L 310.929475 236.078182 
L 311.391911 36.841818 
L 311.478618 236.078182 
L 312.085566 36.841818 
L 312.172273 236.078182 
L 312.562454 36.841818 
L 312.64916 236.078182 
L 313.082695 36.841818 
L 313.169401 236.078182 
L 313.776349 36.841818 
L 313.863056 236.078182 
L 314.29659 36.841818 
L 314.383297 236.078182 
L 314.990245 36.841818 
L 315.076952 236.078182 
L 315.467133 36.841818 
L 315.55384 236.078182 
L 315.987374 36.841818 
L 316.074081 236.078182 
L 316.681028 36.841818 
L 316.767735 236.078182 
L 317.201269 36.841818 
L 317.287976 236.078182 
L 317.894924 36.841818 
L 317.981631 236.078182 
L 318.371812 36.841818 
L 318.458519 236.078182 
L 318.920955 36.841818 
L 319.007662 236.078182 
L 319.61461 36.841818 
L 319.701317 236.078182 
L 320.134851 36.841818 
L 320.221558 236.078182 
L 320.828506 36.841818 
L 320.915212 236.078182 
L 321.305393 36.841818 
L 321.3921 236.078182 
L 321.825634 36.841818 
L 321.912341 236.078182 
L 322.519289 36.841818 
L 322.605996 236.078182 
L 323.03953 36.841818 
L 323.126237 236.078182 
L 323.733185 36.841818 
L 323.819892 236.078182 
L 324.210072 36.841818 
L 324.296779 236.078182 
L 324.730313 36.841818 
L 324.81702 236.078182 
L 325.423968 36.841818 
L 325.510675 236.078182 
L 325.973111 36.841818 
L 326.059818 236.078182 
L 326.666766 36.841818 
L 326.753473 236.078182 
L 327.143654 36.841818 
L 327.230361 236.078182 
L 327.663895 36.841818 
L 327.750602 236.078182 
L 328.357549 36.841818 
L 328.444256 236.078182 
L 328.877791 36.841818 
L 328.964497 236.078182 
L 329.571445 36.841818 
L 329.658152 236.078182 
L 330.048333 36.841818 
L 330.13504 236.078182 
L 330.568574 36.841818 
L 330.655281 236.078182 
L 331.262229 36.841818 
L 331.348935 236.078182 
L 331.78247 36.841818 
L 331.869176 236.078182 
L 332.476124 36.841818 
L 332.562831 236.078182 
L 332.953012 36.841818 
L 333.039719 236.078182 
L 333.502155 36.841818 
L 333.588862 236.078182 
L 334.19581 36.841818 
L 334.282517 236.078182 
L 334.716051 36.841818 
L 334.802758 236.078182 
L 335.409706 36.841818 
L 335.496413 236.078182 
L 335.886593 36.841818 
L 335.9733 236.078182 
L 336.406834 36.841818 
L 336.493541 236.078182 
L 337.100489 36.841818 
L 337.187196 236.078182 
L 337.62073 36.841818 
L 337.707437 236.078182 
L 338.314385 36.841818 
L 338.401092 236.078182 
L 338.791272 36.841818 
L 338.877979 236.078182 
L 339.311514 36.841818 
L 339.39822 236.078182 
L 340.005168 36.841818 
L 340.091875 236.078182 
L 340.554312 36.841818 
L 340.641018 236.078182 
L 341.247966 36.841818 
L 341.334673 236.078182 
L 341.724854 36.841818 
L 341.811561 236.078182 
L 342.245095 36.841818 
L 342.331802 236.078182 
L 342.93875 36.841818 
L 343.025456 236.078182 
L 343.458991 36.841818 
L 343.545698 236.078182 
L 344.152645 36.841818 
L 344.239352 236.078182 
L 344.629533 36.841818 
L 344.71624 236.078182 
L 345.149774 36.841818 
L 345.236481 236.078182 
L 345.843429 36.841818 
L 345.930136 236.078182 
L 346.36367 36.841818 
L 346.450377 236.078182 
L 347.057325 36.841818 
L 347.144031 236.078182 
L 347.534212 36.841818 
L 347.620919 236.078182 
L 348.083355 36.841818 
L 348.170062 236.078182 
L 348.77701 36.841818 
L 348.863717 236.078182 
L 349.297251 36.841818 
L 349.383958 236.078182 
L 349.990906 36.841818 
L 350.077613 236.078182 
L 350.467794 36.841818 
L 350.5545 236.078182 
L 350.988035 36.841818 
L 351.074741 236.078182 
L 351.681689 36.841818 
L 351.768396 236.078182 
L 352.20193 36.841818 
L 352.288637 236.078182 
L 352.895585 36.841818 
L 352.982292 236.078182 
L 353.372473 36.841818 
L 353.459179 236.078182 
L 353.892714 36.841818 
L 353.979421 236.078182 
L 354.586368 36.841818 
L 354.673075 236.078182 
L 355.135512 36.841818 
L 355.222219 236.078182 
L 355.829166 36.841818 
L 355.915873 236.078182 
L 356.306054 36.841818 
L 356.392761 236.078182 
L 356.826295 36.841818 
L 356.913002 236.078182 
L 357.51995 36.841818 
L 357.606657 236.078182 
L 358.040191 36.841818 
L 358.126898 236.078182 
L 358.733846 36.841818 
L 358.820552 236.078182 
L 359.210733 36.841818 
L 359.29744 236.078182 
L 359.730974 36.841818 
L 359.817681 236.078182 
L 360.453531 36.841818 
L 360.540238 236.078182 
L 360.973772 36.841818 
L 361.060479 236.078182 
L 361.667427 36.841818 
L 361.754134 236.078182 
L 362.144315 36.841818 
L 362.231021 236.078182 
L 362.693458 36.841818 
L 362.780165 236.078182 
L 363.387113 36.841818 
L 363.473819 236.078182 
L 363.907354 36.841818 
L 363.99406 236.078182 
L 364.601008 36.841818 
L 364.687715 236.078182 
L 365.077896 36.841818 
L 365.164603 236.078182 
L 365.598137 36.841818 
L 365.684844 236.078182 
L 366.291792 36.841818 
L 366.378499 236.078182 
L 366.812033 36.841818 
L 366.89874 236.078182 
L 367.53459 36.841818 
L 367.621297 236.078182 
L 368.011477 36.841818 
L 368.098184 236.078182 
L 368.531718 36.841818 
L 368.618425 236.078182 
L 369.225373 36.841818 
L 369.31208 236.078182 
L 369.774516 36.841818 
L 369.861223 236.078182 
L 370.468171 36.841818 
L 370.554878 236.078182 
L 370.945059 36.841818 
L 371.031766 236.078182 
L 371.4653 36.841818 
L 371.552007 236.078182 
L 372.158955 36.841818 
L 372.245661 236.078182 
L 372.679196 36.841818 
L 372.765902 236.078182 
L 373.37285 36.841818 
L 373.459557 236.078182 
L 373.849738 36.841818 
L 373.936445 236.078182 
L 374.369979 36.841818 
L 374.456686 236.078182 
L 375.092536 36.841818 
L 375.179243 236.078182 
L 375.612777 36.841818 
L 375.699484 236.078182 
L 376.306432 36.841818 
L 376.393138 236.078182 
L 376.783319 36.841818 
L 376.870026 236.078182 
L 377.332463 36.841818 
L 377.419169 236.078182 
L 378.026117 36.841818 
L 378.112824 236.078182 
L 378.546358 36.841818 
L 378.633065 236.078182 
L 379.240013 36.841818 
L 379.32672 236.078182 
L 379.716901 36.841818 
L 379.803608 236.078182 
L 380.237142 36.841818 
L 380.323849 236.078182 
L 380.930796 36.841818 
L 381.017503 236.078182 
L 381.451037 36.841818 
L 381.537744 236.078182 
L 382.173594 36.841818 
L 382.260301 236.078182 
L 382.650482 36.841818 
L 382.737189 236.078182 
L 383.170723 36.841818 
L 383.25743 236.078182 
L 383.864378 36.841818 
L 383.951085 236.078182 
L 384.413521 36.841818 
L 384.500228 236.078182 
L 385.107176 36.841818 
L 385.193883 236.078182 
L 385.584063 36.841818 
L 385.67077 236.078182 
L 386.104305 36.841818 
L 386.191011 236.078182 
L 386.797959 36.841818 
L 386.884666 236.078182 
L 387.3182 36.841818 
L 387.404907 236.078182 
L 388.011855 36.841818 
L 388.098562 236.078182 
L 388.488743 36.841818 
L 388.575449 236.078182 
L 389.008984 36.841818 
L 389.09569 236.078182 
L 389.731541 36.841818 
L 389.818247 236.078182 
L 390.251782 36.841818 
L 390.338488 236.078182 
L 390.945436 36.841818 
L 391.032143 236.078182 
L 391.422324 36.841818 
L 391.509031 236.078182 
L 391.971467 36.841818 
L 392.058174 236.078182 
L 392.665122 36.841818 
L 392.751829 236.078182 
L 393.185363 36.841818 
L 393.27207 236.078182 
L 393.879018 36.841818 
L 393.965725 236.078182 
L 394.355905 36.841818 
L 394.442612 236.078182 
L 394.876146 36.841818 
L 394.962853 236.078182 
L 395.569801 36.841818 
L 395.656508 236.078182 
L 396.090042 36.841818 
L 396.176749 236.078182 
L 396.812599 36.841818 
L 396.899306 236.078182 
L 397.289487 36.841818 
L 397.376194 236.078182 
L 397.809728 36.841818 
L 397.896435 236.078182 
L 398.503383 36.841818 
L 398.590089 236.078182 
L 399.052526 36.841818 
L 399.139233 236.078182 
L 399.746181 36.841818 
L 399.832887 236.078182 
L 400.223068 36.841818 
L 400.309775 236.078182 
L 400.743309 36.841818 
L 400.830016 236.078182 
L 401.436964 36.841818 
L 401.523671 236.078182 
L 401.957205 36.841818 
L 402.043912 236.078182 
L 402.65086 36.841818 
L 402.737567 236.078182 
L 403.127747 36.841818 
L 403.214454 236.078182 
L 403.647988 36.841818 
L 403.734695 236.078182 
L 404.370545 36.841818 
L 404.457252 236.078182 
L 404.890786 36.841818 
L 404.977493 236.078182 
L 405.584441 36.841818 
L 405.671148 236.078182 
L 406.061329 36.841818 
L 406.148036 236.078182 
L 406.610472 36.841818 
L 406.697179 236.078182 
L 407.304127 36.841818 
L 407.390834 236.078182 
L 407.824368 36.841818 
L 407.911075 236.078182 
L 408.518022 36.841818 
L 408.604729 236.078182 
L 408.99491 36.841818 
L 409.081617 236.078182 
L 409.515151 36.841818 
L 409.601858 236.078182 
L 410.208806 36.841818 
L 410.295513 236.078182 
L 410.729047 36.841818 
L 410.815754 236.078182 
L 411.451604 36.841818 
L 411.538311 236.078182 
L 411.928491 36.841818 
L 412.015198 236.078182 
L 412.448733 36.841818 
L 412.535439 236.078182 
L 413.142387 36.841818 
L 413.229094 236.078182 
L 413.691531 36.841818 
L 413.778237 236.078182 
L 414.385185 36.841818 
L 414.471892 236.078182 
L 414.862073 36.841818 
L 414.94878 236.078182 
L 415.382314 36.841818 
L 415.469021 236.078182 
L 416.075969 36.841818 
L 416.162675 236.078182 
L 416.59621 36.841818 
L 416.682917 236.078182 
L 417.289864 36.841818 
L 417.376571 236.078182 
L 417.766752 36.841818 
L 417.853459 236.078182 
L 418.286993 36.841818 
L 418.3737 236.078182 
L 419.00955 36.841818 
L 419.096257 236.078182 
L 419.529791 36.841818 
L 419.616498 236.078182 
L 420.223446 36.841818 
L 420.310153 236.078182 
L 420.700333 36.841818 
L 420.78704 236.078182 
L 421.249477 36.841818 
L 421.336184 236.078182 
L 421.943131 36.841818 
L 422.029838 236.078182 
L 422.463372 36.841818 
L 422.550079 236.078182 
L 423.157027 36.841818 
L 423.243734 236.078182 
L 423.633915 36.841818 
L 423.720622 236.078182 
L 424.154156 36.841818 
L 424.240863 236.078182 
L 424.847811 36.841818 
L 424.934517 236.078182 
L 425.368052 36.841818 
L 425.454758 236.078182 
L 426.090609 36.841818 
L 426.177315 236.078182 
L 426.567496 36.841818 
L 426.654203 236.078182 
L 427.087737 36.841818 
L 427.174444 236.078182 
L 427.781392 36.841818 
L 427.868099 236.078182 
L 428.330535 36.841818 
L 428.417242 236.078182 
L 429.02419 36.841818 
L 429.110897 236.078182 
L 429.501078 36.841818 
L 429.587784 236.078182 
L 430.021319 36.841818 
L 430.108025 236.078182 
L 430.714973 36.841818 
L 430.80168 236.078182 
L 431.235214 36.841818 
L 431.321921 236.078182 
L 431.928869 36.841818 
L 432.015576 236.078182 
L 432.405757 36.841818 
L 432.492464 236.078182 
L 432.925998 36.841818 
L 433.012705 236.078182 
L 433.648555 36.841818 
L 433.735262 236.078182 
L 434.168796 36.841818 
L 434.255503 236.078182 
L 434.862451 36.841818 
L 434.949157 236.078182 
L 435.339338 36.841818 
L 435.426045 236.078182 
L 435.888481 36.841818 
L 435.975188 236.078182 
L 436.582136 36.841818 
L 436.668843 236.078182 
L 437.102377 36.841818 
L 437.189084 236.078182 
L 437.796032 36.841818 
L 437.882739 236.078182 
L 438.27292 36.841818 
L 438.359626 236.078182 
L 438.793161 36.841818 
L 438.879867 236.078182 
L 439.486815 36.841818 
L 439.573522 236.078182 
L 440.007056 36.841818 
L 440.093763 236.078182 
L 440.729613 36.841818 
L 440.81632 236.078182 
L 441.206501 36.841818 
L 441.293208 236.078182 
L 441.726742 36.841818 
L 441.813449 236.078182 
L 442.420397 36.841818 
L 442.507104 236.078182 
L 442.96954 36.841818 
L 443.056247 236.078182 
L 443.663195 36.841818 
L 443.749902 236.078182 
L 444.140082 36.841818 
L 444.226789 236.078182 
L 444.660323 36.841818 
L 444.74703 236.078182 
L 445.353978 36.841818 
L 445.440685 236.078182 
L 445.874219 36.841818 
L 445.960926 236.078182 
L 446.567874 36.841818 
L 446.654581 236.078182 
L 447.044761 36.841818 
L 447.131468 236.078182 
L 447.565002 36.841818 
L 447.651709 236.078182 
L 448.287559 36.841818 
L 448.374266 236.078182 
L 448.807801 36.841818 
L 448.894507 236.078182 
L 449.501455 36.841818 
L 449.588162 236.078182 
L 449.978343 36.841818 
L 450.06505 236.078182 
L 450.527486 36.841818 
L 450.614193 236.078182 
L 451.221141 36.841818 
L 451.307848 236.078182 
L 451.741382 36.841818 
L 451.828089 236.078182 
L 452.435037 36.841818 
L 452.521743 236.078182 
L 452.911924 36.841818 
L 452.998631 236.078182 
L 453.432165 36.841818 
L 453.518872 236.078182 
L 454.12582 36.841818 
L 454.212527 236.078182 
L 454.646061 36.841818 
L 454.732768 236.078182 
L 455.368618 36.841818 
L 455.455325 236.078182 
L 455.845506 36.841818 
L 455.932212 236.078182 
L 456.365747 36.841818 
L 456.452454 236.078182 
L 457.059401 36.841818 
L 457.146108 236.078182 
L 457.608545 36.841818 
L 457.695252 236.078182 
L 458.302199 36.841818 
L 458.388906 236.078182 
L 458.779087 36.841818 
L 458.865794 236.078182 
L 459.299328 36.841818 
L 459.386035 236.078182 
L 459.992983 36.841818 
L 460.07969 236.078182 
L 460.513224 36.841818 
L 460.599931 236.078182 
L 461.206879 36.841818 
L 461.293585 236.078182 
L 461.683766 36.841818 
L 461.770473 236.078182 
L 462.204007 36.841818 
L 462.290714 236.078182 
L 462.926564 36.841818 
L 463.013271 236.078182 
L 463.446805 36.841818 
L 463.533512 236.078182 
L 464.14046 36.841818 
L 464.227167 236.078182 
L 464.617348 36.841818 
L 464.704054 236.078182 
L 465.166491 36.841818 
L 465.253198 236.078182 
L 465.860146 36.841818 
L 465.946852 236.078182 
L 466.380387 36.841818 
L 466.467093 236.078182 
L 467.074041 36.841818 
L 467.160748 236.078182 
L 467.550929 36.841818 
L 467.637636 236.078182 
L 468.07117 36.841818 
L 468.157877 236.078182 
L 468.764825 36.841818 
L 468.851532 236.078182 
L 469.285066 36.841818 
L 469.371773 236.078182 
L 470.007623 36.841818 
L 470.09433 236.078182 
L 470.48451 36.841818 
L 470.571217 236.078182 
L 471.004751 36.841818 
L 471.091458 236.078182 
L 471.698406 36.841818 
L 471.785113 236.078182 
L 472.247549 36.841818 
L 472.334256 236.078182 
L 472.941204 36.841818 
L 473.027911 236.078182 
L 473.418092 36.841818 
L 473.504799 236.078182 
L 473.938333 36.841818 
L 474.02504 236.078182 
L 474.631987 36.841818 
L 474.718694 236.078182 
L 475.152229 36.841818 
L 475.238935 236.078182 
L 475.845883 36.841818 
L 475.93259 236.078182 
L 476.322771 36.841818 
L 476.409478 236.078182 
L 476.843012 36.841818 
L 476.929719 236.078182 
L 477.536667 36.841818 
L 477.623373 236.078182 
L 478.056908 36.841818 
L 478.143614 236.078182 
L 478.750562 36.841818 
L 478.837269 236.078182 
L 479.22745 36.841818 
L 479.314157 236.078182 
L 479.776593 36.841818 
L 479.8633 236.078182 
L 480.470248 36.841818 
L 480.556955 236.078182 
L 480.990489 36.841818 
L 481.077196 236.078182 
L 481.684144 36.841818 
L 481.770851 236.078182 
L 482.161031 36.841818 
L 482.247738 236.078182 
L 482.681272 36.841818 
L 482.767979 236.078182 
L 483.374927 36.841818 
L 483.461634 236.078182 
L 483.895168 36.841818 
L 483.981875 236.078182 
L 484.588823 36.841818 
L 484.67553 236.078182 
L 485.06571 36.841818 
L 485.152417 236.078182 
L 485.585952 36.841818 
L 485.672658 236.078182 
L 486.279606 36.841818 
L 486.366313 236.078182 
L 486.82875 36.841818 
L 486.915456 236.078182 
L 487.522404 36.841818 
L 487.609111 236.078182 
L 487.999292 36.841818 
L 488.085999 236.078182 
L 488.519533 36.841818 
L 488.60624 236.078182 
L 489.213188 36.841818 
L 489.299894 236.078182 
L 489.733429 36.841818 
L 489.820136 236.078182 
L 490.427083 36.841818 
L 490.51379 236.078182 
L 490.903971 36.841818 
L 490.990678 236.078182 
L 491.424212 36.841818 
L 491.510919 236.078182 
L 492.117867 36.841818 
L 492.204574 236.078182 
L 492.638108 36.841818 
L 492.724815 236.078182 
L 493.331763 36.841818 
L 493.418469 236.078182 
L 493.80865 36.841818 
L 493.895357 236.078182 
L 494.357793 36.841818 
L 494.4445 236.078182 
L 495.051448 36.841818 
L 495.138155 236.078182 
L 495.571689 36.841818 
L 495.658396 236.078182 
L 496.265344 36.841818 
L 496.352051 236.078182 
L 496.742232 36.841818 
L 496.828938 236.078182 
L 497.262473 36.841818 
L 497.349179 236.078182 
L 497.956127 36.841818 
L 498.042834 236.078182 
L 498.476368 36.841818 
L 498.563075 236.078182 
L 499.170023 36.841818 
L 499.25673 236.078182 
L 499.646911 36.841818 
L 499.733617 236.078182 
L 500.167152 36.841818 
L 500.253859 236.078182 
L 500.860806 36.841818 
L 500.947513 236.078182 
L 501.40995 36.841818 
L 501.496657 236.078182 
L 502.103604 36.841818 
L 502.190311 236.078182 
L 502.580492 36.841818 
L 502.667199 236.078182 
L 503.100733 36.841818 
L 503.18744 236.078182 
L 503.794388 36.841818 
L 503.881095 236.078182 
L 504.314629 36.841818 
L 504.401336 236.078182 
L 505.008284 36.841818 
L 505.09499 236.078182 
L 505.485171 36.841818 
L 505.571878 236.078182 
L 506.005412 36.841818 
L 506.092119 236.078182 
L 506.699067 36.841818 
L 506.785774 236.078182 
L 507.219308 36.841818 
L 507.306015 236.078182 
L 507.912963 36.841818 
L 507.99967 236.078182 
L 508.38985 36.841818 
L 508.476557 236.078182 
L 508.938994 36.841818 
L 509.0257 236.078182 
L 509.632648 36.841818 
L 509.719355 236.078182 
L 510.152889 36.841818 
L 510.239596 236.078182 
L 510.846544 36.841818 
L 510.933251 236.078182 
L 511.323432 36.841818 
L 511.410139 236.078182 
L 511.843673 36.841818 
L 511.93038 236.078182 
L 512.537327 36.841818 
L 512.624034 236.078182 
L 513.057568 36.841818 
L 513.144275 236.078182 
L 513.751223 36.841818 
L 513.83793 236.078182 
L 514.228111 36.841818 
L 514.314818 236.078182 
L 514.748352 36.841818 
L 514.835059 236.078182 
L 515.442007 36.841818 
L 515.528713 236.078182 
L 515.99115 36.841818 
L 516.077857 236.078182 
L 516.684805 36.841818 
L 516.771511 236.078182 
L 517.161692 36.841818 
L 517.248399 236.078182 
L 517.681933 36.841818 
L 517.76864 236.078182 
L 518.375588 36.841818 
L 518.462295 236.078182 
L 518.895829 36.841818 
L 518.982536 236.078182 
L 519.589484 36.841818 
L 519.676191 236.078182 
L 520.066371 36.841818 
L 520.153078 236.078182 
L 520.586612 36.841818 
L 520.673319 236.078182 
L 521.280267 36.841818 
L 521.366974 236.078182 
L 521.800508 36.841818 
L 521.887215 236.078182 
L 522.494163 36.841818 
L 522.58087 236.078182 
L 522.97105 36.841818 
L 523.057757 236.078182 
L 523.520194 36.841818 
L 523.606901 236.078182 
L 524.213848 36.841818 
L 524.300555 236.078182 
L 524.734089 36.841818 
L 524.820796 236.078182 
L 525.427744 36.841818 
L 525.514451 236.078182 
L 525.904632 36.841818 
L 525.991339 236.078182 
L 526.424873 36.841818 
L 526.51158 236.078182 
L 527.118528 36.841818 
L 527.205234 236.078182 
L 527.638769 36.841818 
L 527.725475 236.078182 
L 528.332423 36.841818 
L 528.41913 236.078182 
L 528.809311 36.841818 
L 528.896018 236.078182 
L 529.329552 36.841818 
L 529.416259 236.078182 
L 530.023207 36.841818 
L 530.109914 236.078182 
L 530.57235 36.841818 
L 530.659057 236.078182 
L 531.266005 36.841818 
L 531.352712 236.078182 
L 531.742892 36.841818 
L 531.829599 236.078182 
L 532.263133 36.841818 
L 532.34984 236.078182 
L 532.956788 36.841818 
L 533.043495 236.078182 
L 533.477029 36.841818 
L 533.563736 236.078182 
L 534.170684 36.841818 
L 534.257391 236.078182 
L 534.647571 36.841818 
L 534.734278 236.078182 
L 535.167812 36.841818 
L 535.254519 236.078182 
L 535.861467 36.841818 
L 535.948174 236.078182 
L 536.381708 36.841818 
L 536.468415 236.078182 
L 537.075363 36.841818 
L 537.16207 236.078182 
L 537.552251 36.841818 
L 537.638957 236.078182 
L 538.101394 36.841818 
L 538.188101 236.078182 
L 538.795049 36.841818 
L 538.881755 236.078182 
L 539.31529 36.841818 
L 539.401996 236.078182 
L 540.008944 36.841818 
L 540.095651 236.078182 
L 540.485832 36.841818 
L 540.572539 236.078182 
L 541.006073 36.841818 
L 541.09278 236.078182 
L 541.699728 36.841818 
L 541.786435 236.078182 
L 542.219969 36.841818 
L 542.306676 236.078182 
L 542.913623 36.841818 
L 543.00033 236.078182 
L 543.390511 36.841818 
L 543.477218 236.078182 
L 543.910752 36.841818 
L 543.997459 236.078182 
L 544.604407 36.841818 
L 544.691114 236.078182 
L 545.15355 36.841818 
L 545.240257 236.078182 
L 545.847205 36.841818 
L 545.933912 236.078182 
L 546.324092 36.841818 
L 546.410799 236.078182 
L 546.844334 36.841818 
L 546.93104 236.078182 
L 547.537988 36.841818 
L 547.624695 236.078182 
L 548.058229 36.841818 
L 548.144936 236.078182 
L 548.751884 36.841818 
L 548.838591 236.078182 
L 549.228772 36.841818 
L 549.315478 236.078182 
L 549.749013 36.841818 
L 549.835719 236.078182 
L 550.442667 36.841818 
L 550.529374 236.078182 
L 550.962908 36.841818 
L 551.049615 236.078182 
L 551.656563 36.841818 
L 551.74327 236.078182 
L 552.133451 36.841818 
L 552.220158 236.078182 
L 552.682594 36.841818 
L 552.769301 236.078182 
L 553.376249 36.841818 
L 553.462956 236.078182 
L 553.89649 36.841818 
L 553.983197 236.078182 
L 554.590145 36.841818 
L 554.676851 236.078182 
L 555.067032 36.841818 
L 555.153739 236.078182 
L 555.587273 36.841818 
L 555.67398 236.078182 
L 556.280928 36.841818 
L 556.367635 236.078182 
L 556.801169 36.841818 
L 556.887876 236.078182 
L 557.494824 36.841818 
L 557.58153 236.078182 
L 557.971711 36.841818 
L 558.058418 236.078182 
L 558.491952 36.841818 
L 558.578659 236.078182 
L 559.185607 36.841818 
L 559.272314 236.078182 
L 559.73475 36.841818 
L 559.821457 236.078182 
L 560.428405 36.841818 
L 560.515112 236.078182 
L 560.905293 36.841818 
L 560.991999 236.078182 
L 561.425534 36.841818 
L 561.512241 236.078182 
L 562.119188 36.841818 
L 562.205895 236.078182 
L 562.639429 36.841818 
L 562.726136 236.078182 
L 563.333084 36.841818 
L 563.419791 236.078182 
L 563.809972 36.841818 
L 563.896679 236.078182 
L 564.330213 36.841818 
L 564.41692 236.078182 
L 565.023868 36.841818 
L 565.110574 236.078182 
L 565.544109 36.841818 
L 565.630815 236.078182 
L 566.237763 36.841818 
L 566.32447 236.078182 
L 566.714651 36.841818 
L 566.801358 236.078182 
L 567.263794 36.841818 
L 567.350501 236.078182 
L 567.957449 36.841818 
L 568.044156 236.078182 
L 568.47769 36.841818 
L 568.564397 236.078182 
L 569.171345 36.841818 
L 569.258052 236.078182 
L 569.648232 36.841818 
L 569.734939 236.078182 
L 570.168473 36.841818 
L 570.25518 236.078182 
L 570.862128 36.841818 
L 570.948835 236.078182 
L 571.382369 36.841818 
L 571.469076 236.078182 
L 572.076024 36.841818 
L 572.162731 236.078182 
L 572.552911 36.841818 
L 572.639618 236.078182 
L 573.073152 36.841818 
L 573.159859 236.078182 
L 573.766807 36.841818 
L 573.853514 236.078182 
L 574.31595 36.841818 
L 574.402657 236.078182 
L 575.009605 36.841818 
L 575.096312 236.078182 
L 575.486493 36.841818 
L 575.5732 236.078182 
L 576.006734 36.841818 
L 576.093441 236.078182 
L 576.700389 36.841818 
L 576.787095 236.078182 
L 577.22063 36.841818 
L 577.307336 236.078182 
L 577.914284 36.841818 
L 578.000991 236.078182 
L 578.391172 36.841818 
L 578.477879 236.078182 
L 578.911413 36.841818 
L 578.99812 236.078182 
L 579.605068 36.841818 
L 579.691775 236.078182 
L 580.125309 36.841818 
L 580.212016 236.078182 
L 580.818963 36.841818 
L 580.90567 236.078182 
L 581.295851 36.841818 
L 581.382558 236.078182 
L 581.844994 36.841818 
L 581.931701 236.078182 
L 582.538649 36.841818 
L 582.625356 236.078182 
L 583.05889 36.841818 
L 583.145597 236.078182 
L 583.752545 36.841818 
L 583.839252 236.078182 
L 584.229432 36.841818 
L 584.316139 236.078182 
L 584.749673 36.841818 
L 584.83638 236.078182 
L 585.443328 36.841818 
L 585.530035 236.078182 
L 585.963569 36.841818 
L 586.050276 236.078182 
L 586.657224 36.841818 
L 586.743931 236.078182 
L 587.134112 36.841818 
L 587.220818 236.078182 
L 587.654353 36.841818 
L 587.741059 236.078182 
L 588.348007 36.841818 
L 588.434714 236.078182 
L 588.897151 36.841818 
L 588.983857 236.078182 
L 589.590805 36.841818 
L 589.677512 236.078182 
L 590.067693 36.841818 
L 590.1544 236.078182 
L 590.587934 36.841818 
L 590.674641 236.078182 
L 591.281589 36.841818 
L 591.368296 236.078182 
L 591.80183 36.841818 
L 591.888537 236.078182 
L 592.495484 36.841818 
L 592.582191 236.078182 
L 592.972372 36.841818 
L 593.059079 236.078182 
L 593.492613 36.841818 
L 593.57932 236.078182 
L 594.186268 36.841818 
L 594.272975 236.078182 
L 594.706509 36.841818 
L 594.793216 236.078182 
L 595.400164 36.841818 
L 595.48687 236.078182 
L 595.877051 36.841818 
L 595.963758 236.078182 
L 596.426195 36.841818 
L 596.512901 236.078182 
L 597.119849 36.841818 
L 597.206556 236.078182 
L 597.64009 36.841818 
L 597.726797 236.078182 
L 598.333745 36.841818 
L 598.420452 236.078182 
L 598.810633 36.841818 
L 598.897339 236.078182 
L 599.330874 36.841818 
L 599.41758 236.078182 
L 600.024528 36.841818 
L 600.111235 236.078182 
L 600.544769 36.841818 
L 600.631476 236.078182 
L 601.238424 36.841818 
L 601.325131 236.078182 
L 601.715312 36.841818 
L 601.802019 236.078182 
L 602.235553 36.841818 
L 602.32226 236.078182 
L 602.929207 36.841818 
L 603.015914 236.078182 
L 603.478351 36.841818 
L 603.565058 236.078182 
L 604.172005 36.841818 
L 604.258712 236.078182 
L 604.648893 36.841818 
L 604.7356 236.078182 
L 605.169134 36.841818 
L 605.255841 236.078182 
L 605.862789 36.841818 
L 605.949496 236.078182 
L 606.38303 36.841818 
L 606.469737 236.078182 
L 607.076685 36.841818 
L 607.163391 236.078182 
L 607.553572 36.841818 
L 607.640279 236.078182 
L 608.073813 36.841818 
L 608.16052 236.078182 
L 608.767468 36.841818 
L 608.854175 236.078182 
L 609.287709 36.841818 
L 609.374416 236.078182 
L 609.981364 36.841818 
L 610.068071 236.078182 
L 610.458251 36.841818 
L 610.544958 236.078182 
L 610.978492 36.841818 
L 611.065199 236.078182 
L 611.643245 36.841818 
L 611.729952 236.078182 
L 612.192388 36.841818 
L 612.279095 236.078182 
L 613.073908 36.841818 
L 613.160615 236.078182 
L 613.521893 36.841818 
L 613.6086 236.078182 
L 614.056585 36.841818 
L 614.143292 236.078182 
L 614.938105 36.841818 
L 615.024812 236.078182 
L 615.501699 36.841818 
L 615.588406 236.078182 
L 616.874557 36.841818 
L 616.961264 236.078182 
L 617.351445 36.841818 
L 617.438152 236.078182 
L 617.886137 36.841818 
L 617.972844 236.078182 
L 618.594243 36.841818 
L 618.68095 236.078182 
L 619.331251 36.841818 
L 619.417958 236.078182 
L 619.996004 36.841818 
L 620.082711 236.078182 
L 620.487342 36.841818 
L 620.574049 236.078182 
L 621.195448 36.841818 
L 621.282155 236.078182 
L 624.63482 36.841818 
L 624.721526 236.078182 
L 625.155061 36.841818 
L 625.241767 236.078182 
L 625.848715 36.841818 
L 625.935422 236.078182 
L 626.325603 36.841818 
L 626.41231 236.078182 
L 626.845844 36.841818 
L 626.932551 236.078182 
L 627.539499 36.841818 
L 627.626206 236.078182 
L 628.05974 36.841818 
L 628.146447 236.078182 
L 628.753394 36.841818 
L 628.840101 236.078182 
L 629.230282 36.841818 
L 629.316989 236.078182 
L 629.779425 36.841818 
L 629.866132 236.078182 
L 630.47308 36.841818 
L 630.559787 236.078182 
L 630.993321 36.841818 
L 631.080028 236.078182 
L 631.686976 36.841818 
L 631.773683 236.078182 
L 632.163863 36.841818 
L 632.25057 236.078182 
L 632.684104 36.841818 
L 632.770811 236.078182 
L 633.377759 36.841818 
L 633.464466 236.078182 
L 633.898 36.841818 
L 633.984707 236.078182 
L 634.591655 36.841818 
L 634.678362 236.078182 
L 635.068543 36.841818 
L 635.155249 236.078182 
L 635.588784 36.841818 
L 635.67549 236.078182 
L 636.282438 36.841818 
L 636.369145 236.078182 
L 636.831582 36.841818 
L 636.918288 236.078182 
L 637.525236 36.841818 
L 637.611943 236.078182 
L 638.002124 36.841818 
L 638.088831 236.078182 
L 638.522365 36.841818 
L 638.609072 236.078182 
L 639.21602 36.841818 
L 639.302727 236.078182 
L 639.736261 36.841818 
L 639.822968 236.078182 
L 640.429915 36.841818 
L 640.516622 236.078182 
L 640.906803 36.841818 
L 640.99351 236.078182 
L 641.427044 36.841818 
L 641.513751 236.078182 
L 642.120699 36.841818 
L 642.207406 236.078182 
L 642.64094 36.841818 
L 642.727647 236.078182 
L 643.334595 36.841818 
L 643.421301 236.078182 
L 643.811482 36.841818 
L 643.898189 236.078182 
L 644.360626 36.841818 
L 644.447332 236.078182 
L 645.05428 36.841818 
L 645.140987 236.078182 
L 645.574521 36.841818 
L 645.661228 236.078182 
L 646.268176 36.841818 
L 646.354883 236.078182 
L 646.745064 36.841818 
L 646.83177 236.078182 
L 647.265305 36.841818 
L 647.352011 236.078182 
L 647.958959 36.841818 
L 648.045666 236.078182 
L 648.4792 36.841818 
L 648.565907 236.078182 
L 649.172855 36.841818 
L 649.259562 236.078182 
L 649.649743 36.841818 
L 649.73645 236.078182 
L 650.169984 36.841818 
L 650.256691 236.078182 
L 650.863638 36.841818 
L 650.950345 236.078182 
L 651.412782 36.841818 
L 651.499489 236.078182 
L 652.106437 36.841818 
L 652.193143 236.078182 
L 652.583324 36.841818 
L 652.670031 236.078182 
L 653.103565 36.841818 
L 653.190272 236.078182 
L 653.79722 36.841818 
L 653.883927 236.078182 
L 654.317461 36.841818 
L 654.404168 236.078182 
L 655.011116 36.841818 
L 655.097822 236.078182 
L 655.488003 36.841818 
L 655.57471 236.078182 
L 656.008244 36.841818 
L 656.094951 236.078182 
L 656.701899 36.841818 
L 656.788606 236.078182 
L 657.22214 36.841818 
L 657.308847 236.078182 
L 657.915795 36.841818 
L 658.002502 236.078182 
L 658.392682 36.841818 
L 658.479389 236.078182 
L 658.941826 36.841818 
L 659.028533 236.078182 
L 659.63548 36.841818 
L 659.722187 236.078182 
L 660.155721 36.841818 
L 660.242428 236.078182 
L 660.849376 36.841818 
L 660.936083 236.078182 
L 661.326264 36.841818 
L 661.412971 236.078182 
L 661.846505 36.841818 
L 661.933212 236.078182 
L 662.54016 36.841818 
L 662.626866 236.078182 
L 663.060401 36.841818 
L 663.147107 236.078182 
L 663.754055 36.841818 
L 663.840762 236.078182 
L 664.230943 36.841818 
L 664.31765 236.078182 
L 664.751184 36.841818 
L 664.837891 236.078182 
L 665.444839 36.841818 
L 665.531545 236.078182 
L 665.993982 36.841818 
L 666.080689 236.078182 
L 666.687637 36.841818 
L 666.774344 236.078182 
L 667.164524 36.841818 
L 667.251231 236.078182 
L 667.684765 36.841818 
L 667.771472 236.078182 
L 668.37842 36.841818 
L 668.465127 236.078182 
L 668.898661 36.841818 
L 668.985368 236.078182 
L 669.592316 36.841818 
L 669.679023 236.078182 
L 670.069203 36.841818 
L 670.15591 236.078182 
L 670.589444 36.841818 
L 670.676151 236.078182 
L 671.283099 36.841818 
L 671.369806 236.078182 
L 671.80334 36.841818 
L 671.890047 236.078182 
L 672.496995 36.841818 
L 672.583702 236.078182 
L 672.973883 36.841818 
L 673.060589 236.078182 
L 673.523026 36.841818 
L 673.609733 236.078182 
L 674.216681 36.841818 
L 674.303387 236.078182 
L 674.736922 36.841818 
L 674.823628 236.078182 
L 675.430576 36.841818 
L 675.517283 236.078182 
L 675.907464 36.841818 
L 675.994171 236.078182 
L 676.427705 36.841818 
L 676.514412 236.078182 
L 677.12136 36.841818 
L 677.208067 236.078182 
L 677.641601 36.841818 
L 677.728308 236.078182 
L 678.335255 36.841818 
L 678.421962 236.078182 
L 678.812143 36.841818 
L 678.89885 236.078182 
L 679.332384 36.841818 
L 679.419091 236.078182 
L 679.419091 236.078182 
" clip-path="url(#p00d1c1d060)" style="fill: none; stroke: #1f77b4; stroke-width: 1.5; stroke-linecap: square"/>
   </g>
   <g id="patch_3">
    <path d="M 54.02 246.04 
L 54.02 26.88 
" style="fill: none; stroke: #000000; stroke-width: 0.8; stroke-linejoin: miter; stroke-linecap: square"/>
   </g>
   <g id="patch_4">
    <path d="M 709.2 246.04 
L 709.2 26.88 
" style="fill: none; stroke: #000000; stroke-width: 0.8; stroke-linejoin: miter; stroke-linecap: square"/>
   </g>
   <g id="patch_5">
    <path d="M 54.02 246.04 
L 709.2 246.04 
" style="fill: none; stroke: #000000; stroke-width: 0.8; stroke-linejoin: miter; stroke-linecap: square"/>
   </g>
   <g id="patch_6">
    <path d="M 54.02 26.88 
L 709.2 26.88 
" style="fill: none; stroke: #000000; stroke-width: 0.8; stroke-linejoin: miter; stroke-linecap: square"/>
   </g>
   <g id="text_14">
    <!-- transmissionState:vector (HandoverShowcase.ap2.wlan[0].radio) -->
    <g transform="translate(185.726875 20.88) scale(0.12 -0.12)">
     <defs>
      <path id="DejaVuSans-72" d="M 2631 2963 
Q 2534 3019 2420 3045 
Q 2306 3072 2169 3072 
Q 1681 3072 1420 2755 
Q 1159 2438 1159 1844 
L 1159 0 
L 581 0 
L 581 3500 
L 1159 3500 
L 1159 2956 
Q 1341 3275 1631 3429 
Q 1922 3584 2338 3584 
Q 2397 3584 2469 3576 
Q 2541 3569 2628 3553 
L 2631 2963 
z
" transform="scale(0.015625)"/>
      <path id="DejaVuSans-6e" d="M 3513 2113 
L 3513 0 
L 2938 0 
L 2938 2094 
Q 2938 2591 2744 2837 
Q 2550 3084 2163 3084 
Q 1697 3084 1428 2787 
Q 1159 2491 1159 1978 
L 1159 0 
L 581 0 
L 581 3500 
L 1159 3500 
L 1159 2956 
Q 1366 3272 1645 3428 
Q 1925 3584 2291 3584 
Q 2894 3584 3203 3211 
Q 3513 2838 3513 2113 
z
" transform="scale(0.015625)"/>
      <path id="DejaVuSans-6f" d="M 1959 3097 
Q 1497 3097 1228 2736 
Q 959 2375 959 1747 
Q 959 1119 1226 758 
Q 1494 397 1959 397 
Q 2419 397 2687 759 
Q 2956 1122 2956 1747 
Q 2956 2369 2687 2733 
Q 2419 3097 1959 3097 
z
M 1959 3584 
Q 2709 3584 3137 3096 
Q 3566 2609 3566 1747 
Q 3566 888 3137 398 
Q 2709 -91 1959 -91 
Q 1206 -91 779 398 
Q 353 888 353 1747 
Q 353 2609 779 3096 
Q 1206 3584 1959 3584 
z
" transform="scale(0.015625)"/>
      <path id="DejaVuSans-53" d="M 3425 4513 
L 3425 3897 
Q 3066 4069 2747 4153 
Q 2428 4238 2131 4238 
Q 1616 4238 1336 4038 
Q 1056 3838 1056 3469 
Q 1056 3159 1242 3001 
Q 1428 2844 1947 2747 
L 2328 2669 
Q 3034 2534 3370 2195 
Q 3706 1856 3706 1288 
Q 3706 609 3251 259 
Q 2797 -91 1919 -91 
Q 1588 -91 1214 -16 
Q 841 59 441 206 
L 441 856 
Q 825 641 1194 531 
Q 1563 422 1919 422 
Q 2459 422 2753 634 
Q 3047 847 3047 1241 
Q 3047 1584 2836 1778 
Q 2625 1972 2144 2069 
L 1759 2144 
Q 1053 2284 737 2584 
Q 422 2884 422 3419 
Q 422 4038 858 4394 
Q 1294 4750 2059 4750 
Q 2388 4750 2728 4690 
Q 3069 4631 3425 4513 
z
" transform="scale(0.015625)"/>
      <path id="DejaVuSans-3a" d="M 750 794 
L 1409 794 
L 1409 0 
L 750 0 
L 750 794 
z
M 750 3309 
L 1409 3309 
L 1409 2516 
L 750 2516 
L 750 3309 
z
" transform="scale(0.015625)"/>
      <path id="DejaVuSans-76" d="M 191 3500 
L 800 3500 
L 1894 563 
L 2988 3500 
L 3597 3500 
L 2284 0 
L 1503 0 
L 191 3500 
z
" transform="scale(0.015625)"/>
      <path id="DejaVuSans-63" d="M 3122 3366 
L 3122 2828 
Q 2878 2963 2633 3030 
Q 2388 3097 2138 3097 
Q 1578 3097 1268 2742 
Q 959 2388 959 1747 
Q 959 1106 1268 751 
Q 1578 397 2138 397 
Q 2388 397 2633 464 
Q 2878 531 3122 666 
L 3122 134 
Q 2881 22 2623 -34 
Q 2366 -91 2075 -91 
Q 1284 -91 818 406 
Q 353 903 353 1747 
Q 353 2603 823 3093 
Q 1294 3584 2113 3584 
Q 2378 3584 2631 3529 
Q 2884 3475 3122 3366 
z
" transform="scale(0.015625)"/>
      <path id="DejaVuSans-48" d="M 628 4666 
L 1259 4666 
L 1259 2753 
L 3553 2753 
L 3553 4666 
L 4184 4666 
L 4184 0 
L 3553 0 
L 3553 2222 
L 1259 2222 
L 1259 0 
L 628 0 
L 628 4666 
z
" transform="scale(0.015625)"/>
      <path id="DejaVuSans-64" d="M 2906 2969 
L 2906 4863 
L 3481 4863 
L 3481 0 
L 2906 0 
L 2906 525 
Q 2725 213 2448 61 
Q 2172 -91 1784 -91 
Q 1150 -91 751 415 
Q 353 922 353 1747 
Q 353 2572 751 3078 
Q 1150 3584 1784 3584 
Q 2172 3584 2448 3432 
Q 2725 3281 2906 2969 
z
M 947 1747 
Q 947 1113 1208 752 
Q 1469 391 1925 391 
Q 2381 391 2643 752 
Q 2906 1113 2906 1747 
Q 2906 2381 2643 2742 
Q 2381 3103 1925 3103 
Q 1469 3103 1208 2742 
Q 947 2381 947 1747 
z
" transform="scale(0.015625)"/>
      <path id="DejaVuSans-68" d="M 3513 2113 
L 3513 0 
L 2938 0 
L 2938 2094 
Q 2938 2591 2744 2837 
Q 2550 3084 2163 3084 
Q 1697 3084 1428 2787 
Q 1159 2491 1159 1978 
L 1159 0 
L 581 0 
L 581 4863 
L 1159 4863 
L 1159 2956 
Q 1366 3272 1645 3428 
Q 1925 3584 2291 3584 
Q 2894 3584 3203 3211 
Q 3513 2838 3513 2113 
z
" transform="scale(0.015625)"/>
      <path id="DejaVuSans-77" d="M 269 3500 
L 844 3500 
L 1563 769 
L 2278 3500 
L 2956 3500 
L 3675 769 
L 4391 3500 
L 4966 3500 
L 4050 0 
L 3372 0 
L 2619 2869 
L 1863 0 
L 1184 0 
L 269 3500 
z
" transform="scale(0.015625)"/>
      <path id="DejaVuSans-70" d="M 1159 525 
L 1159 -1331 
L 581 -1331 
L 581 3500 
L 1159 3500 
L 1159 2969 
Q 1341 3281 1617 3432 
Q 1894 3584 2278 3584 
Q 2916 3584 3314 3078 
Q 3713 2572 3713 1747 
Q 3713 922 3314 415 
Q 2916 -91 2278 -91 
Q 1894 -91 1617 61 
Q 1341 213 1159 525 
z
M 3116 1747 
Q 3116 2381 2855 2742 
Q 2594 3103 2138 3103 
Q 1681 3103 1420 2742 
Q 1159 2381 1159 1747 
Q 1159 1113 1420 752 
Q 1681 391 2138 391 
Q 2594 391 2855 752 
Q 3116 1113 3116 1747 
z
" transform="scale(0.015625)"/>
      <path id="DejaVuSans-5b" d="M 550 4863 
L 1875 4863 
L 1875 4416 
L 1125 4416 
L 1125 -397 
L 1875 -397 
L 1875 -844 
L 550 -844 
L 550 4863 
z
" transform="scale(0.015625)"/>
      <path id="DejaVuSans-5d" d="M 1947 4863 
L 1947 -844 
L 622 -844 
L 622 -397 
L 1369 -397 
L 1369 4416 
L 622 4416 
L 622 4863 
L 1947 4863 
z
" transform="scale(0.015625)"/>
     </defs>
     <use xlink:href="#DejaVuSans-74"/>
     <use xlink:href="#DejaVuSans-72" x="39.208984"/>
     <use xlink:href="#DejaVuSans-61" x="80.322266"/>
     <use xlink:href="#DejaVuSans-6e" x="141.601562"/>
     <use xlink:href="#DejaVuSans-73" x="204.980469"/>
     <use xlink:href="#DejaVuSans-6d" x="257.080078"/>
     <use xlink:href="#DejaVuSans-69" x="354.492188"/>
     <use xlink:href="#DejaVuSans-73" x="382.275391"/>
     <use xlink:href="#DejaVuSans-73" x="434.375"/>
     <use xlink:href="#DejaVuSans-69" x="486.474609"/>
     <use xlink:href="#DejaVuSans-6f" x="514.257812"/>
     <use xlink:href="#DejaVuSans-6e" x="575.439453"/>
     <use xlink:href="#DejaVuSans-53" x="638.818359"/>
     <use xlink:href="#DejaVuSans-74" x="702.294922"/>
     <use xlink:href="#DejaVuSans-61" x="741.503906"/>
     <use xlink:href="#DejaVuSans-74" x="802.783203"/>
     <use xlink:href="#DejaVuSans-65" x="841.992188"/>
     <use xlink:href="#DejaVuSans-3a" x="903.515625"/>
     <use xlink:href="#DejaVuSans-76" x="937.207031"/>
     <use xlink:href="#DejaVuSans-65" x="996.386719"/>
     <use xlink:href="#DejaVuSans-63" x="1057.910156"/>
     <use xlink:href="#DejaVuSans-74" x="1112.890625"/>
     <use xlink:href="#DejaVuSans-6f" x="1152.099609"/>
     <use xlink:href="#DejaVuSans-72" x="1213.28125"/>
     <use xlink:href="#DejaVuSans-20" x="1254.394531"/>
     <use xlink:href="#DejaVuSans-28" x="1286.181641"/>
     <use xlink:href="#DejaVuSans-48" x="1325.195312"/>
     <use xlink:href="#DejaVuSans-61" x="1400.390625"/>
     <use xlink:href="#DejaVuSans-6e" x="1461.669922"/>
     <use xlink:href="#DejaVuSans-64" x="1525.048828"/>
     <use xlink:href="#DejaVuSans-6f" x="1588.525391"/>
     <use xlink:href="#DejaVuSans-76" x="1649.707031"/>
     <use xlink:href="#DejaVuSans-65" x="1708.886719"/>
     <use xlink:href="#DejaVuSans-72" x="1770.410156"/>
     <use xlink:href="#DejaVuSans-53" x="1811.523438"/>
     <use xlink:href="#DejaVuSans-68" x="1875"/>
     <use xlink:href="#DejaVuSans-6f" x="1938.378906"/>
     <use xlink:href="#DejaVuSans-77" x="1999.560547"/>
     <use xlink:href="#DejaVuSans-63" x="2081.347656"/>
     <use xlink:href="#DejaVuSans-61" x="2136.328125"/>
     <use xlink:href="#DejaVuSans-73" x="2197.607422"/>
     <use xlink:href="#DejaVuSans-65" x="2249.707031"/>
     <use xlink:href="#DejaVuSans-2e" x="2311.230469"/>
     <use xlink:href="#DejaVuSans-61" x="2343.017578"/>
     <use xlink:href="#DejaVuSans-70" x="2404.296875"/>
     <use xlink:href="#DejaVuSans-32" x="2467.773438"/>
     <use xlink:href="#DejaVuSans-2e" x="2531.396484"/>
     <use xlink:href="#DejaVuSans-77" x="2563.183594"/>
     <use xlink:href="#DejaVuSans-6c" x="2644.970703"/>
     <use xlink:href="#DejaVuSans-61" x="2672.753906"/>
     <use xlink:href="#DejaVuSans-6e" x="2734.033203"/>
     <use xlink:href="#DejaVuSans-5b" x="2797.412109"/>
     <use xlink:href="#DejaVuSans-30" x="2836.425781"/>
     <use xlink:href="#DejaVuSans-5d" x="2900.048828"/>
     <use xlink:href="#DejaVuSans-2e" x="2939.0625"/>
     <use xlink:href="#DejaVuSans-72" x="2970.849609"/>
     <use xlink:href="#DejaVuSans-61" x="3011.962891"/>
     <use xlink:href="#DejaVuSans-64" x="3073.242188"/>
     <use xlink:href="#DejaVuSans-69" x="3136.71875"/>
     <use xlink:href="#DejaVuSans-6f" x="3164.501953"/>
     <use xlink:href="#DejaVuSans-29" x="3225.683594"/>
    </g>
   </g>
   <g id="legend_1">
    <g id="patch_7">
     <path d="M 576.717188 145.299062 
L 702.2 145.299062 
Q 704.2 145.299062 704.2 143.299062 
L 704.2 129.620937 
Q 704.2 127.620937 702.2 127.620937 
L 576.717188 127.620937 
Q 574.717188 127.620937 574.717188 129.620937 
L 574.717188 143.299062 
Q 574.717188 145.299062 576.717188 145.299062 
z
" style="fill: #ffffff; opacity: 0.8; stroke: #cccccc; stroke-linejoin: miter"/>
    </g>
    <g id="line2d_24">
     <path d="M 578.717188 135.719375 
L 588.717188 135.719375 
L 598.717188 135.719375 
" style="fill: none; stroke: #1f77b4; stroke-width: 1.5; stroke-linecap: square"/>
    </g>
    <g id="text_15">
     <!-- value per sample -->
     <g transform="translate(606.717188 139.219375) scale(0.1 -0.1)">
      <defs>
       <path id="DejaVuSans-394" d="M 2188 4044 
L 906 525 
L 3472 525 
L 2188 4044 
z
M 50 0 
L 1831 4666 
L 2547 4666 
L 4325 0 
L 50 0 
z
" transform="scale(0.015625)"/>
      </defs>
      <use xlink:href="#DejaVuSans-394"/>
      <use xlink:href="#DejaVuSans-76" x="68.408203"/>
      <use xlink:href="#DejaVuSans-61" x="127.587891"/>
      <use xlink:href="#DejaVuSans-6c" x="188.867188"/>
      <use xlink:href="#DejaVuSans-75" x="216.650391"/>
      <use xlink:href="#DejaVuSans-65" x="280.029297"/>
      <use xlink:href="#DejaVuSans-20" x="341.552734"/>
      <use xlink:href="#DejaVuSans-70" x="373.339844"/>
      <use xlink:href="#DejaVuSans-65" x="436.816406"/>
      <use xlink:href="#DejaVuSans-72" x="498.339844"/>
      <use xlink:href="#DejaVuSans-20" x="539.453125"/>
      <use xlink:href="#DejaVuSans-73" x="571.240234"/>
      <use xlink:href="#DejaVuSans-61" x="623.339844"/>
      <use xlink:href="#DejaVuSans-6d" x="684.619141"/>
      <use xlink:href="#DejaVuSans-70" x="782.03125"/>
      <use xlink:href="#DejaVuSans-6c" x="845.507812"/>
      <use xlink:href="#DejaVuSans-65" x="873.291016"/>
     </g>
    </g>
   </g>
  </g>
 </g>
 <defs>
  <clipPath id="p00d1c1d060">
   <rect x="54.02" y="26.88" width="655.18" height="219.16"/>
  </clipPath>
 </defs>
</svg>
