<?xml version="1.0" encoding="utf-8" standalone="no"?>
<!DOCTYPE svg PUBLIC "-//W3C//DTD SVG 1.1//EN"
  "http://www.w3.org/Graphics/SVG/1.1/DTD/svg11.dtd">
<svg xmlns:xlink="http://www.w3.org/1999/xlink" width="720pt" height="288pt" viewBox="0 0 720 288" xmlns="http://www.w3.org/2000/svg" version="1.1">
 <metadata>
  <rdf:RDF xmlns:dc="http://purl.org/dc/elements/1.1/" xmlns:cc="http://creativecommons.org/ns#" xmlns:rdf="http://www.w3.org/1999/02/22-rdf-syntax-ns#">
   <cc:Work>
    <dc:type rdf:resource="http://purl.org/dc/dcmitype/StillImage"/>
    <dc:date>2025-07-27T15:08:45.211543</dc:date>
    <dc:format>image/svg+xml</dc:format>
    <dc:creator>
     <cc:Agent>
      <dc:title>Matplotlib v3.9.2, https://matplotlib.org/</dc:title>
     </cc:Agent>
    </dc:creator>
   </cc:Work>
  </rdf:RDF>
 </metadata>
 <defs>
  <style type="text/css">*{stroke-linejoin: round; stroke-linecap: butt}</style>
 </defs>
 <g id="figure_1">
  <g id="patch_1">
   <path d="M 0 288 
L 720 288 
L 720 0 
L 0 0 
z
" style="fill: #ffffff"/>
  </g>
  <g id="axes_1">
   <g id="patch_2">
    <path d="M 56.09 246.04 
L 709.2 246.04 
L 709.2 37.8 
L 56.09 37.8 
z
" style="fill: #ffffff"/>
   </g>
   <g id="matplotlib.axis_1">
    <g id="xtick_1">
     <g id="line2d_1">
      <path d="M 84.896525 246.04 
L 84.896525 37.8 
" clip-path="url(#p349850c142)" style="fill: none; stroke: #b0b0b0; stroke-width: 0.8; stroke-linecap: square"/>
     </g>
     <g id="line2d_2">
      <defs>
       <path id="mee746931d0" d="M 0 0 
L 0 3.5 
" style="stroke: #000000; stroke-width: 0.8"/>
      </defs>
      <g>
       <use xlink:href="#mee746931d0" x="84.896525" y="246.04" style="stroke: #000000; stroke-width: 0.8"/>
      </g>
     </g>
     <g id="text_1">
      <!-- 0 -->
      <g transform="translate(81.715275 260.638438) scale(0.1 -0.1)">
       <defs>
        <path id="DejaVuSans-30" d="M 2034 4250 
Q 1547 4250 1301 3770 
Q 1056 3291 1056 2328 
Q 1056 1369 1301 889 
Q 1547 409 2034 409 
Q 2525 409 2770 889 
Q 3016 1369 3016 2328 
Q 3016 3291 2770 3770 
Q 2525 4250 2034 4250 
z
M 2034 4750 
Q 2819 4750 3233 4129 
Q 3647 3509 3647 2328 
Q 3647 1150 3233 529 
Q 2819 -91 2034 -91 
Q 1250 -91 836 529 
Q 422 1150 422 2328 
Q 422 3509 836 4129 
Q 1250 4750 2034 4750 
z
" transform="scale(0.015625)"/>
       </defs>
       <use xlink:href="#DejaVuSans-30"/>
      </g>
     </g>
    </g>
    <g id="xtick_2">
     <g id="line2d_3">
      <path d="M 229.206945 246.04 
L 229.206945 37.8 
" clip-path="url(#p349850c142)" style="fill: none; stroke: #b0b0b0; stroke-width: 0.8; stroke-linecap: square"/>
     </g>
     <g id="line2d_4">
      <g>
       <use xlink:href="#mee746931d0" x="229.206945" y="246.04" style="stroke: #000000; stroke-width: 0.8"/>
      </g>
     </g>
     <g id="text_2">
      <!-- 10000 -->
      <g transform="translate(213.300695 260.638438) scale(0.1 -0.1)">
       <defs>
        <path id="DejaVuSans-31" d="M 794 531 
L 1825 531 
L 1825 4091 
L 703 3866 
L 703 4441 
L 1819 4666 
L 2450 4666 
L 2450 531 
L 3481 531 
L 3481 0 
L 794 0 
L 794 531 
z
" transform="scale(0.015625)"/>
       </defs>
       <use xlink:href="#DejaVuSans-31"/>
       <use xlink:href="#DejaVuSans-30" x="63.623047"/>
       <use xlink:href="#DejaVuSans-30" x="127.246094"/>
       <use xlink:href="#DejaVuSans-30" x="190.869141"/>
       <use xlink:href="#DejaVuSans-30" x="254.492188"/>
      </g>
     </g>
    </g>
    <g id="xtick_3">
     <g id="line2d_5">
      <path d="M 373.517366 246.04 
L 373.517366 37.8 
" clip-path="url(#p349850c142)" style="fill: none; stroke: #b0b0b0; stroke-width: 0.8; stroke-linecap: square"/>
     </g>
     <g id="line2d_6">
      <g>
       <use xlink:href="#mee746931d0" x="373.517366" y="246.04" style="stroke: #000000; stroke-width: 0.8"/>
      </g>
     </g>
     <g id="text_3">
      <!-- 20000 -->
      <g transform="translate(357.611116 260.638438) scale(0.1 -0.1)">
       <defs>
        <path id="DejaVuSans-32" d="M 1228 531 
L 3431 531 
L 3431 0 
L 469 0 
L 469 531 
Q 828 903 1448 1529 
Q 2069 2156 2228 2338 
Q 2531 2678 2651 2914 
Q 2772 3150 2772 3378 
Q 2772 3750 2511 3984 
Q 2250 4219 1831 4219 
Q 1534 4219 1204 4116 
Q 875 4013 500 3803 
L 500 4441 
Q 881 4594 1212 4672 
Q 1544 4750 1819 4750 
Q 2544 4750 2975 4387 
Q 3406 4025 3406 3419 
Q 3406 3131 3298 2873 
Q 3191 2616 2906 2266 
Q 2828 2175 2409 1742 
Q 1991 1309 1228 531 
z
" transform="scale(0.015625)"/>
       </defs>
       <use xlink:href="#DejaVuSans-32"/>
       <use xlink:href="#DejaVuSans-30" x="63.623047"/>
       <use xlink:href="#DejaVuSans-30" x="127.246094"/>
       <use xlink:href="#DejaVuSans-30" x="190.869141"/>
       <use xlink:href="#DejaVuSans-30" x="254.492188"/>
      </g>
     </g>
    </g>
    <g id="xtick_4">
     <g id="line2d_7">
      <path d="M 517.827787 246.04 
L 517.827787 37.8 
" clip-path="url(#p349850c142)" style="fill: none; stroke: #b0b0b0; stroke-width: 0.8; stroke-linecap: square"/>
     </g>
     <g id="line2d_8">
      <g>
       <use xlink:href="#mee746931d0" x="517.827787" y="246.04" style="stroke: #000000; stroke-width: 0.8"/>
      </g>
     </g>
     <g id="text_4">
      <!-- 30000 -->
      <g transform="translate(501.921537 260.638438) scale(0.1 -0.1)">
       <defs>
        <path id="DejaVuSans-33" d="M 2597 2516 
Q 3050 2419 3304 2112 
Q 3559 1806 3559 1356 
Q 3559 666 3084 287 
Q 2609 -91 1734 -91 
Q 1441 -91 1130 -33 
Q 819 25 488 141 
L 488 750 
Q 750 597 1062 519 
Q 1375 441 1716 441 
Q 2309 441 2620 675 
Q 2931 909 2931 1356 
Q 2931 1769 2642 2001 
Q 2353 2234 1838 2234 
L 1294 2234 
L 1294 2753 
L 1863 2753 
Q 2328 2753 2575 2939 
Q 2822 3125 2822 3475 
Q 2822 3834 2567 4026 
Q 2313 4219 1838 4219 
Q 1578 4219 1281 4162 
Q 984 4106 628 3988 
L 628 4550 
Q 988 4650 1302 4700 
Q 1616 4750 1894 4750 
Q 2613 4750 3031 4423 
Q 3450 4097 3450 3541 
Q 3450 3153 3228 2886 
Q 3006 2619 2597 2516 
z
" transform="scale(0.015625)"/>
       </defs>
       <use xlink:href="#DejaVuSans-33"/>
       <use xlink:href="#DejaVuSans-30" x="63.623047"/>
       <use xlink:href="#DejaVuSans-30" x="127.246094"/>
       <use xlink:href="#DejaVuSans-30" x="190.869141"/>
       <use xlink:href="#DejaVuSans-30" x="254.492188"/>
      </g>
     </g>
    </g>
    <g id="xtick_5">
     <g id="line2d_9">
      <path d="M 662.138207 246.04 
L 662.138207 37.8 
" clip-path="url(#p349850c142)" style="fill: none; stroke: #b0b0b0; stroke-width: 0.8; stroke-linecap: square"/>
     </g>
     <g id="line2d_10">
      <g>
       <use xlink:href="#mee746931d0" x="662.138207" y="246.04" style="stroke: #000000; stroke-width: 0.8"/>
      </g>
     </g>
     <g id="text_5">
      <!-- 40000 -->
      <g transform="translate(646.231957 260.638438) scale(0.1 -0.1)">
       <defs>
        <path id="DejaVuSans-34" d="M 2419 4116 
L 825 1625 
L 2419 1625 
L 2419 4116 
z
M 2253 4666 
L 3047 4666 
L 3047 1625 
L 3713 1625 
L 3713 1100 
L 3047 1100 
L 3047 0 
L 2419 0 
L 2419 1100 
L 313 1100 
L 313 1709 
L 2253 4666 
z
" transform="scale(0.015625)"/>
       </defs>
       <use xlink:href="#DejaVuSans-34"/>
       <use xlink:href="#DejaVuSans-30" x="63.623047"/>
       <use xlink:href="#DejaVuSans-30" x="127.246094"/>
       <use xlink:href="#DejaVuSans-30" x="190.869141"/>
       <use xlink:href="#DejaVuSans-30" x="254.492188"/>
      </g>
     </g>
    </g>
    <g id="text_6">
     <!-- Time (s) -->
     <g transform="translate(362.316094 274.316562) scale(0.1 -0.1)">
      <defs>
       <path id="DejaVuSans-54" d="M -19 4666 
L 3928 4666 
L 3928 4134 
L 2272 4134 
L 2272 0 
L 1638 0 
L 1638 4134 
L -19 4134 
L -19 4666 
z
" transform="scale(0.015625)"/>
       <path id="DejaVuSans-69" d="M 603 3500 
L 1178 3500 
L 1178 0 
L 603 0 
L 603 3500 
z
M 603 4863 
L 1178 4863 
L 1178 4134 
L 603 4134 
L 603 4863 
z
" transform="scale(0.015625)"/>
       <path id="DejaVuSans-6d" d="M 3328 2828 
Q 3544 3216 3844 3400 
Q 4144 3584 4550 3584 
Q 5097 3584 5394 3201 
Q 5691 2819 5691 2113 
L 5691 0 
L 5113 0 
L 5113 2094 
Q 5113 2597 4934 2840 
Q 4756 3084 4391 3084 
Q 3944 3084 3684 2787 
Q 3425 2491 3425 1978 
L 3425 0 
L 2847 0 
L 2847 2094 
Q 2847 2600 2669 2842 
Q 2491 3084 2119 3084 
Q 1678 3084 1418 2786 
Q 1159 2488 1159 1978 
L 1159 0 
L 581 0 
L 581 3500 
L 1159 3500 
L 1159 2956 
Q 1356 3278 1631 3431 
Q 1906 3584 2284 3584 
Q 2666 3584 2933 3390 
Q 3200 3197 3328 2828 
z
" transform="scale(0.015625)"/>
       <path id="DejaVuSans-65" d="M 3597 1894 
L 3597 1613 
L 953 1613 
Q 991 1019 1311 708 
Q 1631 397 2203 397 
Q 2534 397 2845 478 
Q 3156 559 3463 722 
L 3463 178 
Q 3153 47 2828 -22 
Q 2503 -91 2169 -91 
Q 1331 -91 842 396 
Q 353 884 353 1716 
Q 353 2575 817 3079 
Q 1281 3584 2069 3584 
Q 2775 3584 3186 3129 
Q 3597 2675 3597 1894 
z
M 3022 2063 
Q 3016 2534 2758 2815 
Q 2500 3097 2075 3097 
Q 1594 3097 1305 2825 
Q 1016 2553 972 2059 
L 3022 2063 
z
" transform="scale(0.015625)"/>
       <path id="DejaVuSans-20" transform="scale(0.015625)"/>
       <path id="DejaVuSans-28" d="M 1984 4856 
Q 1566 4138 1362 3434 
Q 1159 2731 1159 2009 
Q 1159 1288 1364 580 
Q 1569 -128 1984 -844 
L 1484 -844 
Q 1016 -109 783 600 
Q 550 1309 550 2009 
Q 550 2706 781 3412 
Q 1013 4119 1484 4856 
L 1984 4856 
z
" transform="scale(0.015625)"/>
       <path id="DejaVuSans-73" d="M 2834 3397 
L 2834 2853 
Q 2591 2978 2328 3040 
Q 2066 3103 1784 3103 
Q 1356 3103 1142 2972 
Q 928 2841 928 2578 
Q 928 2378 1081 2264 
Q 1234 2150 1697 2047 
L 1894 2003 
Q 2506 1872 2764 1633 
Q 3022 1394 3022 966 
Q 3022 478 2636 193 
Q 2250 -91 1575 -91 
Q 1294 -91 989 -36 
Q 684 19 347 128 
L 347 722 
Q 666 556 975 473 
Q 1284 391 1588 391 
Q 1994 391 2212 530 
Q 2431 669 2431 922 
Q 2431 1156 2273 1281 
Q 2116 1406 1581 1522 
L 1381 1569 
Q 847 1681 609 1914 
Q 372 2147 372 2553 
Q 372 3047 722 3315 
Q 1072 3584 1716 3584 
Q 2034 3584 2315 3537 
Q 2597 3491 2834 3397 
z
" transform="scale(0.015625)"/>
       <path id="DejaVuSans-29" d="M 513 4856 
L 1013 4856 
Q 1481 4119 1714 3412 
Q 1947 2706 1947 2009 
Q 1947 1309 1714 600 
Q 1481 -109 1013 -844 
L 513 -844 
Q 928 -128 1133 580 
Q 1338 1288 1338 2009 
Q 1338 2731 1133 3434 
Q 928 4138 513 4856 
z
" transform="scale(0.015625)"/>
      </defs>
      <use xlink:href="#DejaVuSans-54"/>
      <use xlink:href="#DejaVuSans-69" x="57.958984"/>
      <use xlink:href="#DejaVuSans-6d" x="85.742188"/>
      <use xlink:href="#DejaVuSans-65" x="183.154297"/>
      <use xlink:href="#DejaVuSans-20" x="244.677734"/>
      <use xlink:href="#DejaVuSans-28" x="276.464844"/>
      <use xlink:href="#DejaVuSans-73" x="315.478516"/>
      <use xlink:href="#DejaVuSans-29" x="367.578125"/>
     </g>
    </g>
   </g>
   <g id="matplotlib.axis_2">
    <g id="ytick_1">
     <g id="line2d_11">
      <path d="M 56.09 240.75 
L 709.2 240.75 
" clip-path="url(#p349850c142)" style="fill: none; stroke: #b0b0b0; stroke-width: 0.8; stroke-linecap: square"/>
     </g>
     <g id="line2d_12">
      <defs>
       <path id="mbde7e72b72" d="M 0 0 
L -3.5 0 
" style="stroke: #000000; stroke-width: 0.8"/>
      </defs>
      <g>
       <use xlink:href="#mbde7e72b72" x="56.09" y="240.75" style="stroke: #000000; stroke-width: 0.8"/>
      </g>
     </g>
     <g id="text_7">
      <!-- −0.6 -->
      <g transform="translate(24.807188 244.549219) scale(0.1 -0.1)">
       <defs>
        <path id="DejaVuSans-2212" d="M 678 2272 
L 4684 2272 
L 4684 1741 
L 678 1741 
L 678 2272 
z
" transform="scale(0.015625)"/>
        <path id="DejaVuSans-2e" d="M 684 794 
L 1344 794 
L 1344 0 
L 684 0 
L 684 794 
z
" transform="scale(0.015625)"/>
        <path id="DejaVuSans-36" d="M 2113 2584 
Q 1688 2584 1439 2293 
Q 1191 2003 1191 1497 
Q 1191 994 1439 701 
Q 1688 409 2113 409 
Q 2538 409 2786 701 
Q 3034 994 3034 1497 
Q 3034 2003 2786 2293 
Q 2538 2584 2113 2584 
z
M 3366 4563 
L 3366 3988 
Q 3128 4100 2886 4159 
Q 2644 4219 2406 4219 
Q 1781 4219 1451 3797 
Q 1122 3375 1075 2522 
Q 1259 2794 1537 2939 
Q 1816 3084 2150 3084 
Q 2853 3084 3261 2657 
Q 3669 2231 3669 1497 
Q 3669 778 3244 343 
Q 2819 -91 2113 -91 
Q 1303 -91 875 529 
Q 447 1150 447 2328 
Q 447 3434 972 4092 
Q 1497 4750 2381 4750 
Q 2619 4750 2861 4703 
Q 3103 4656 3366 4563 
z
" transform="scale(0.015625)"/>
       </defs>
       <use xlink:href="#DejaVuSans-2212"/>
       <use xlink:href="#DejaVuSans-30" x="83.789062"/>
       <use xlink:href="#DejaVuSans-2e" x="147.412109"/>
       <use xlink:href="#DejaVuSans-36" x="179.199219"/>
      </g>
     </g>
    </g>
    <g id="ytick_2">
     <g id="line2d_13">
      <path d="M 56.09 214.25 
L 709.2 214.25 
" clip-path="url(#p349850c142)" style="fill: none; stroke: #b0b0b0; stroke-width: 0.8; stroke-linecap: square"/>
     </g>
     <g id="line2d_14">
      <g>
       <use xlink:href="#mbde7e72b72" x="56.09" y="214.25" style="stroke: #000000; stroke-width: 0.8"/>
      </g>
     </g>
     <g id="text_8">
      <!-- −0.4 -->
      <g transform="translate(24.807188 218.049219) scale(0.1 -0.1)">
       <use xlink:href="#DejaVuSans-2212"/>
       <use xlink:href="#DejaVuSans-30" x="83.789062"/>
       <use xlink:href="#DejaVuSans-2e" x="147.412109"/>
       <use xlink:href="#DejaVuSans-34" x="179.199219"/>
      </g>
     </g>
    </g>
    <g id="ytick_3">
     <g id="line2d_15">
      <path d="M 56.09 187.5 
L 709.2 187.5 
" clip-path="url(#p349850c142)" style="fill: none; stroke: #b0b0b0; stroke-width: 0.8; stroke-linecap: square"/>
     </g>
     <g id="line2d_16">
      <g>
       <use xlink:href="#mbde7e72b72" x="56.09" y="187.5" style="stroke: #000000; stroke-width: 0.8"/>
      </g>
     </g>
     <g id="text_9">
      <!-- −0.2 -->
      <g transform="translate(24.807188 191.299219) scale(0.1 -0.1)">
       <use xlink:href="#DejaVuSans-2212"/>
       <use xlink:href="#DejaVuSans-30" x="83.789062"/>
       <use xlink:href="#DejaVuSans-2e" x="147.412109"/>
       <use xlink:href="#DejaVuSans-32" x="179.199219"/>
      </g>
     </g>
    </g>
    <g id="ytick_4">
     <g id="line2d_17">
      <path d="M 56.09 161 
L 709.2 161 
" clip-path="url(#p349850c142)" style="fill: none; stroke: #b0b0b0; stroke-width: 0.8; stroke-linecap: square"/>
     </g>
     <g id="line2d_18">
      <g>
       <use xlink:href="#mbde7e72b72" x="56.09" y="161" style="stroke: #000000; stroke-width: 0.8"/>
      </g>
     </g>
     <g id="text_10">
      <!-- 0.0 -->
      <g transform="translate(33.186875 164.799219) scale(0.1 -0.1)">
       <use xlink:href="#DejaVuSans-30"/>
       <use xlink:href="#DejaVuSans-2e" x="63.623047"/>
       <use xlink:href="#DejaVuSans-30" x="95.410156"/>
      </g>
     </g>
    </g>
    <g id="ytick_5">
     <g id="line2d_19">
      <path d="M 56.09 134.25 
L 709.2 134.25 
" clip-path="url(#p349850c142)" style="fill: none; stroke: #b0b0b0; stroke-width: 0.8; stroke-linecap: square"/>
     </g>
     <g id="line2d_20">
      <g>
       <use xlink:href="#mbde7e72b72" x="56.09" y="134.25" style="stroke: #000000; stroke-width: 0.8"/>
      </g>
     </g>
     <g id="text_11">
      <!-- 0.2 -->
      <g transform="translate(33.186875 138.049219) scale(0.1 -0.1)">
       <use xlink:href="#DejaVuSans-30"/>
       <use xlink:href="#DejaVuSans-2e" x="63.623047"/>
       <use xlink:href="#DejaVuSans-32" x="95.410156"/>
      </g>
     </g>
    </g>
    <g id="ytick_6">
     <g id="line2d_21">
      <path d="M 56.09 107.75 
L 709.2 107.75 
" clip-path="url(#p349850c142)" style="fill: none; stroke: #b0b0b0; stroke-width: 0.8; stroke-linecap: square"/>
     </g>
     <g id="line2d_22">
      <g>
       <use xlink:href="#mbde7e72b72" x="56.09" y="107.75" style="stroke: #000000; stroke-width: 0.8"/>
      </g>
     </g>
     <g id="text_12">
      <!-- 0.4 -->
      <g transform="translate(33.186875 111.549219) scale(0.1 -0.1)">
       <use xlink:href="#DejaVuSans-30"/>
       <use xlink:href="#DejaVuSans-2e" x="63.623047"/>
       <use xlink:href="#DejaVuSans-34" x="95.410156"/>
      </g>
     </g>
    </g>
    <g id="ytick_7">
     <g id="line2d_23">
      <path d="M 56.09 81 
L 709.2 81 
" clip-path="url(#p349850c142)" style="fill: none; stroke: #b0b0b0; stroke-width: 0.8; stroke-linecap: square"/>
     </g>
     <g id="line2d_24">
      <g>
       <use xlink:href="#mbde7e72b72" x="56.09" y="81" style="stroke: #000000; stroke-width: 0.8"/>
      </g>
     </g>
     <g id="text_13">
      <!-- 0.6 -->
      <g transform="translate(33.186875 84.799219) scale(0.1 -0.1)">
       <use xlink:href="#DejaVuSans-30"/>
       <use xlink:href="#DejaVuSans-2e" x="63.623047"/>
       <use xlink:href="#DejaVuSans-36" x="95.410156"/>
      </g>
     </g>
    </g>
    <g id="ytick_8">
     <g id="line2d_25">
      <path d="M 56.09 54.5 
L 709.2 54.5 
" clip-path="url(#p349850c142)" style="fill: none; stroke: #b0b0b0; stroke-width: 0.8; stroke-linecap: square"/>
     </g>
     <g id="line2d_26">
      <g>
       <use xlink:href="#mbde7e72b72" x="56.09" y="54.5" style="stroke: #000000; stroke-width: 0.8"/>
      </g>
     </g>
     <g id="text_14">
      <!-- 0.8 -->
      <g transform="translate(33.186875 58.299219) scale(0.1 -0.1)">
       <defs>
        <path id="DejaVuSans-38" d="M 2034 2216 
Q 1584 2216 1326 1975 
Q 1069 1734 1069 1313 
Q 1069 891 1326 650 
Q 1584 409 2034 409 
Q 2484 409 2743 651 
Q 3003 894 3003 1313 
Q 3003 1734 2745 1975 
Q 2488 2216 2034 2216 
z
M 1403 2484 
Q 997 2584 770 2862 
Q 544 3141 544 3541 
Q 544 4100 942 4425 
Q 1341 4750 2034 4750 
Q 2731 4750 3128 4425 
Q 3525 4100 3525 3541 
Q 3525 3141 3298 2862 
Q 3072 2584 2669 2484 
Q 3125 2378 3379 2068 
Q 3634 1759 3634 1313 
Q 3634 634 3220 271 
Q 2806 -91 2034 -91 
Q 1263 -91 848 271 
Q 434 634 434 1313 
Q 434 1759 690 2068 
Q 947 2378 1403 2484 
z
M 1172 3481 
Q 1172 3119 1398 2916 
Q 1625 2713 2034 2713 
Q 2441 2713 2670 2916 
Q 2900 3119 2900 3481 
Q 2900 3844 2670 4047 
Q 2441 4250 2034 4250 
Q 1625 4250 1398 4047 
Q 1172 3844 1172 3481 
z
" transform="scale(0.015625)"/>
       </defs>
       <use xlink:href="#DejaVuSans-30"/>
       <use xlink:href="#DejaVuSans-2e" x="63.623047"/>
       <use xlink:href="#DejaVuSans-38" x="95.410156"/>
      </g>
     </g>
    </g>
    <g id="text_15">
     <!-- Delta Value -->
     <g transform="translate(18.7275 170.580156) rotate(-90) scale(0.1 -0.1)">
      <defs>
       <path id="DejaVuSans-44" d="M 1259 4147 
L 1259 519 
L 2022 519 
Q 2988 519 3436 956 
Q 3884 1394 3884 2338 
Q 3884 3275 3436 3711 
Q 2988 4147 2022 4147 
L 1259 4147 
z
M 628 4666 
L 1925 4666 
Q 3281 4666 3915 4102 
Q 4550 3538 4550 2338 
Q 4550 1131 3912 565 
Q 3275 0 1925 0 
L 628 0 
L 628 4666 
z
" transform="scale(0.015625)"/>
       <path id="DejaVuSans-6c" d="M 603 4863 
L 1178 4863 
L 1178 0 
L 603 0 
L 603 4863 
z
" transform="scale(0.015625)"/>
       <path id="DejaVuSans-74" d="M 1172 4494 
L 1172 3500 
L 2356 3500 
L 2356 3053 
L 1172 3053 
L 1172 1153 
Q 1172 725 1289 603 
Q 1406 481 1766 481 
L 2356 481 
L 2356 0 
L 1766 0 
Q 1100 0 847 248 
Q 594 497 594 1153 
L 594 3053 
L 172 3053 
L 172 3500 
L 594 3500 
L 594 4494 
L 1172 4494 
z
" transform="scale(0.015625)"/>
       <path id="DejaVuSans-61" d="M 2194 1759 
Q 1497 1759 1228 1600 
Q 959 1441 959 1056 
Q 959 750 1161 570 
Q 1363 391 1709 391 
Q 2188 391 2477 730 
Q 2766 1069 2766 1631 
L 2766 1759 
L 2194 1759 
z
M 3341 1997 
L 3341 0 
L 2766 0 
L 2766 531 
Q 2569 213 2275 61 
Q 1981 -91 1556 -91 
Q 1019 -91 701 211 
Q 384 513 384 1019 
Q 384 1609 779 1909 
Q 1175 2209 1959 2209 
L 2766 2209 
L 2766 2266 
Q 2766 2663 2505 2880 
Q 2244 3097 1772 3097 
Q 1472 3097 1187 3025 
Q 903 2953 641 2809 
L 641 3341 
Q 956 3463 1253 3523 
Q 1550 3584 1831 3584 
Q 2591 3584 2966 3190 
Q 3341 2797 3341 1997 
z
" transform="scale(0.015625)"/>
       <path id="DejaVuSans-56" d="M 1831 0 
L 50 4666 
L 709 4666 
L 2188 738 
L 3669 4666 
L 4325 4666 
L 2547 0 
L 1831 0 
z
" transform="scale(0.015625)"/>
       <path id="DejaVuSans-75" d="M 544 1381 
L 544 3500 
L 1119 3500 
L 1119 1403 
Q 1119 906 1312 657 
Q 1506 409 1894 409 
Q 2359 409 2629 706 
Q 2900 1003 2900 1516 
L 2900 3500 
L 3475 3500 
L 3475 0 
L 2900 0 
L 2900 538 
Q 2691 219 2414 64 
Q 2138 -91 1772 -91 
Q 1169 -91 856 284 
Q 544 659 544 1381 
z
M 1991 3584 
L 1991 3584 
z
" transform="scale(0.015625)"/>
      </defs>
      <use xlink:href="#DejaVuSans-44"/>
      <use xlink:href="#DejaVuSans-65" x="77.001953"/>
      <use xlink:href="#DejaVuSans-6c" x="138.525391"/>
      <use xlink:href="#DejaVuSans-74" x="166.308594"/>
      <use xlink:href="#DejaVuSans-61" x="205.517578"/>
      <use xlink:href="#DejaVuSans-20" x="266.796875"/>
      <use xlink:href="#DejaVuSans-56" x="298.583984"/>
      <use xlink:href="#DejaVuSans-61" x="359.242188"/>
      <use xlink:href="#DejaVuSans-6c" x="420.521484"/>
      <use xlink:href="#DejaVuSans-75" x="448.304688"/>
      <use xlink:href="#DejaVuSans-65" x="511.683594"/>
     </g>
    </g>
    <g id="text_16">
     <!-- 1e−14+1e−1 -->
     <g transform="translate(56.09 34.8) scale(0.1 -0.1)">
      <defs>
       <path id="DejaVuSans-2b" d="M 2944 4013 
L 2944 2272 
L 4684 2272 
L 4684 1741 
L 2944 1741 
L 2944 0 
L 2419 0 
L 2419 1741 
L 678 1741 
L 678 2272 
L 2419 2272 
L 2419 4013 
L 2944 4013 
z
" transform="scale(0.015625)"/>
      </defs>
      <use xlink:href="#DejaVuSans-31"/>
      <use xlink:href="#DejaVuSans-65" x="63.623047"/>
      <use xlink:href="#DejaVuSans-2212" x="125.146484"/>
      <use xlink:href="#DejaVuSans-31" x="208.935547"/>
      <use xlink:href="#DejaVuSans-34" x="272.558594"/>
      <use xlink:href="#DejaVuSans-2b" x="336.181641"/>
      <use xlink:href="#DejaVuSans-31" x="419.970703"/>
      <use xlink:href="#DejaVuSans-65" x="483.59375"/>
      <use xlink:href="#DejaVuSans-2212" x="545.117188"/>
      <use xlink:href="#DejaVuSans-31" x="628.90625"/>
     </g>
    </g>
   </g>
   <g id="line2d_27">
    <path d="M 85.776818 161 
L 86.310767 161.25 
L 87.176629 160.5 
L 87.638423 161.25 
L 89.052665 161.25 
L 90.077269 159.75 
L 90.769959 161.25 
L 91.289476 161.25 
L 91.996597 159.75 
L 92.703718 162.75 
L 93.42527 159.75 
L 94.103529 162.75 
L 94.796219 159.75 
L 97.812307 159.75 
L 98.504997 162.75 
L 99.024515 159.75 
L 99.717205 162.75 
L 100.193429 159.75 
L 101.405637 159.75 
L 101.925154 165.75 
L 102.617844 159.75 
L 104.335138 159.75 
L 104.854656 165.75 
L 105.547346 159.75 
L 107.235778 159.75 
L 107.755295 165.75 
L 108.447985 159.75 
L 110.136417 159.75 
L 110.684797 165.75 
L 111.377487 159.75 
L 111.853711 159.75 
L 112.373229 165.75 
L 113.065919 154 
L 113.585436 165.75 
L 114.278126 154 
L 114.754351 165.75 
L 115.273868 165.75 
L 115.966558 154 
L 116.486076 165.75 
L 117.178766 154 
L 117.65499 165.75 
L 118.20337 165.75 
L 118.89606 154 
L 119.415577 165.75 
L 120.108267 154 
L 120.584492 165.75 
L 121.104009 165.75 
L 121.796699 154 
L 122.316217 165.75 
L 123.008907 154 
L 123.485131 165.75 
L 124.004649 165.75 
L 124.697339 154 
L 125.245718 165.75 
L 125.938408 154 
L 126.414633 165.75 
L 126.93415 165.75 
L 127.62684 154 
L 128.146358 165.75 
L 128.839048 154 
L 129.315272 165.75 
L 129.83479 165.75 
L 130.52748 154 
L 131.046997 165.75 
L 131.739687 154 
L 132.215912 165.75 
L 132.764291 165.75 
L 133.456981 154 
L 133.976499 165.75 
L 134.669189 154 
L 135.145413 165.75 
L 136.357621 165.75 
L 136.877138 142 
L 137.569828 165.75 
L 139.25826 165.75 
L 139.80664 142 
L 140.49933 165.75 
L 142.187762 165.75 
L 142.707279 142 
L 143.399969 165.75 
L 145.088401 165.75 
L 145.607919 142 
L 146.300609 165.75 
L 148.017903 165.75 
L 148.53742 142 
L 149.23011 165.75 
L 150.918542 165.75 
L 151.43806 142 
L 152.13075 165.75 
L 153.819182 165.75 
L 154.367561 142 
L 155.060251 165.75 
L 156.748683 165.75 
L 157.268201 142 
L 157.960891 165.75 
L 159.649323 165.75 
L 160.16884 142 
L 160.86153 165.75 
L 162.578824 165.75 
L 163.098342 142 
L 163.791032 165.75 
L 165.479464 165.75 
L 165.998981 142 
L 166.691671 165.75 
L 168.380103 165.75 
L 168.928483 142 
L 169.621173 165.75 
L 171.309604 165.75 
L 171.829122 142 
L 172.521812 165.75 
L 174.210244 165.75 
L 174.729761 142 
L 175.422451 165.75 
L 177.139745 165.75 
L 177.659263 142 
L 178.351953 165.75 
L 180.040385 165.75 
L 180.559902 142 
L 181.252592 165.75 
L 181.728817 165.75 
L 182.248334 142 
L 182.941024 189.5 
L 183.489404 142 
L 184.182094 189.5 
L 184.658318 142 
L 185.177836 142 
L 185.870526 189.5 
L 186.390043 142 
L 187.082733 189.5 
L 187.558958 142 
L 188.078475 142 
L 188.771165 189.5 
L 189.290683 142 
L 189.983373 189.5 
L 190.459597 142 
L 191.007977 142 
L 191.700667 189.5 
L 192.220184 142 
L 192.912874 189.5 
L 193.389099 142 
L 193.908616 142 
L 194.601306 189.5 
L 195.120824 142 
L 195.813514 189.5 
L 196.289738 142 
L 196.809256 142 
L 197.501946 189.5 
L 198.050325 142 
L 198.743015 189.5 
L 199.21924 142 
L 199.738757 142 
L 200.431447 189.5 
L 200.950965 142 
L 201.643655 189.5 
L 202.119879 142 
L 202.639397 142 
L 203.332087 189.5 
L 203.851604 142 
L 204.544294 189.5 
L 205.020519 142 
L 205.568898 142 
L 206.261588 189.5 
L 206.781106 142 
L 207.473796 189.5 
L 207.95002 142 
L 208.469538 142 
L 209.162228 189.5 
L 209.681745 142 
L 210.374435 189.5 
L 210.85066 142 
L 211.370177 142 
L 212.062867 189.5 
L 212.611247 142 
L 213.303937 189.5 
L 213.780161 142 
L 214.299679 142 
L 214.992369 189.5 
L 215.511886 142 
L 216.204576 189.5 
L 216.680801 142 
L 217.200318 142 
L 217.893008 189.5 
L 218.412526 142 
L 219.105216 189.5 
L 219.58144 142 
L 220.12982 142 
L 220.82251 189.5 
L 221.342027 142 
L 222.034717 189.5 
L 222.510942 142 
L 223.030459 142 
L 223.723149 189.5 
L 224.242667 142 
L 224.935357 189.5 
L 225.411581 142 
L 225.931099 142 
L 226.623789 189.5 
L 227.172168 142 
L 227.864858 189.5 
L 228.341083 142 
L 228.8606 142 
L 229.55329 189.5 
L 230.072808 142 
L 230.765498 189.5 
L 231.241722 142 
L 231.76124 142 
L 232.45393 189.5 
L 232.973447 142 
L 233.666137 189.5 
L 234.142362 142 
L 234.690741 142 
L 235.383431 189.5 
L 235.902949 142 
L 236.595639 189.5 
L 237.071863 142 
L 237.591381 142 
L 238.284071 189.5 
L 238.803588 142 
L 239.496278 189.5 
L 239.972503 142 
L 240.49202 142 
L 241.18471 189.5 
L 241.73309 142 
L 242.42578 189.5 
L 242.902004 142 
L 243.421522 142 
L 244.114212 189.5 
L 244.633729 142 
L 245.326419 189.5 
L 245.802644 142 
L 246.322161 142 
L 247.014851 189.5 
L 247.534369 142 
L 248.227059 189.5 
L 248.703283 142 
L 249.251663 142 
L 249.944353 189.5 
L 250.46387 142 
L 251.15656 189.5 
L 251.632785 142 
L 252.152302 142 
L 252.844992 189.5 
L 253.36451 142 
L 254.0572 189.5 
L 254.533424 142 
L 255.052942 142 
L 255.745632 189.5 
L 256.265149 142 
L 256.928977 189.5 
L 257.434064 142 
L 258.141185 142 
L 258.805013 189.5 
L 259.338961 142 
L 260.219255 189.5 
L 260.70991 142 
L 261.417031 142 
L 262.080859 189.5 
L 262.64367 142 
L 264.014619 189.5 
L 264.505274 142 
L 265.053654 142 
L 265.760775 189.5 
L 266.467896 142 
L 269.873622 189.5 
L 270.349846 142 
L 270.869364 142 
L 271.562054 189.5 
L 272.081571 142 
L 272.774261 189.5 
L 273.250486 142 
L 273.770003 142 
L 274.462693 189.5 
L 275.011073 142 
L 275.703763 189.5 
L 276.179987 142 
L 276.699505 142 
L 277.392195 189.5 
L 277.911712 142 
L 278.604402 189.5 
L 279.080627 142 
L 280.292834 142 
L 280.812352 236.75 
L 281.505042 142 
L 283.222336 142 
L 283.741853 236.75 
L 284.434543 142 
L 286.122975 142 
L 286.642493 236.75 
L 287.335183 142 
L 289.023615 142 
L 289.571994 236.75 
L 290.264684 142 
L 291.953116 142 
L 292.472634 236.75 
L 293.165324 142 
L 294.853756 142 
L 295.373273 236.75 
L 296.065963 142 
L 297.783257 142 
L 298.302775 236.75 
L 298.995465 142 
L 300.683897 142 
L 301.203414 236.75 
L 301.896104 142 
L 303.584536 142 
L 304.132916 236.75 
L 304.825606 142 
L 306.514038 142 
L 307.033555 236.75 
L 307.726245 142 
L 309.414677 142 
L 309.934195 236.75 
L 310.626885 142 
L 312.344179 142 
L 312.863696 236.75 
L 313.556386 142 
L 315.244818 142 
L 315.764336 236.75 
L 316.457026 142 
L 318.145457 142 
L 318.693837 236.75 
L 319.386527 142 
L 321.074959 142 
L 321.594477 236.75 
L 322.287167 142 
L 323.975598 142 
L 324.495116 236.75 
L 325.187806 142 
L 326.9051 142 
L 327.424618 236.75 
L 328.117308 142 
L 329.805739 142 
L 330.325257 236.75 
L 331.017947 142 
L 332.706379 142 
L 333.254759 236.75 
L 333.947449 142 
L 335.63588 142 
L 336.155398 236.75 
L 336.848088 142 
L 338.53652 142 
L 339.056037 236.75 
L 339.748727 142 
L 341.466021 142 
L 341.985539 236.75 
L 342.678229 142 
L 344.366661 142 
L 344.886178 236.75 
L 345.578868 142 
L 347.2673 142 
L 347.81568 236.75 
L 348.50837 142 
L 350.196802 142 
L 350.716319 236.75 
L 351.409009 142 
L 353.097441 142 
L 353.616959 236.75 
L 354.309649 142 
L 356.026943 142 
L 356.54646 236.75 
L 357.23915 142 
L 358.927582 142 
L 359.4471 236.75 
L 360.168652 142 
L 361.857084 142 
L 362.405464 236.75 
L 363.098154 142 
L 364.786585 142 
L 365.306103 236.75 
L 365.998793 142 
L 367.716087 142 
L 368.235604 236.75 
L 368.928295 142 
L 370.645589 142 
L 371.165106 236.75 
L 371.857796 142 
L 373.546228 142 
L 374.065745 236.75 
L 374.787298 142 
L 376.47573 142 
L 377.024109 236.75 
L 377.716799 142 
L 379.405231 142 
L 379.924749 236.75 
L 380.617439 142 
L 382.334733 142 
L 382.85425 236.75 
L 383.54694 142 
L 385.264234 142 
L 385.783752 236.75 
L 386.476442 142 
L 388.164874 142 
L 388.684391 236.75 
L 389.405943 142 
L 391.094375 142 
L 391.642755 236.75 
L 392.335445 142 
L 394.023877 142 
L 394.543394 236.75 
L 395.236084 142 
L 396.953378 142 
L 397.472896 236.75 
L 398.165586 142 
L 399.88288 142 
L 400.402397 236.75 
L 401.095087 142 
L 402.783519 142 
L 403.303037 236.75 
L 404.024589 142 
L 405.713021 142 
L 406.2614 236.75 
L 406.95409 142 
L 408.642522 142 
L 409.16204 236.75 
L 409.85473 142 
L 411.572024 142 
L 412.091541 236.75 
L 412.784231 142 
L 414.501525 142 
L 415.021043 236.75 
L 415.713733 142 
L 417.402165 142 
L 417.921682 236.75 
L 418.643234 142 
L 420.331666 142 
L 420.880046 236.75 
L 421.572736 142 
L 423.261168 142 
L 423.780685 236.75 
L 424.473375 142 
L 426.190669 142 
L 426.710187 236.75 
L 427.402877 142 
L 429.120171 142 
L 429.639688 236.75 
L 430.332379 142 
L 432.02081 142 
L 432.540328 236.75 
L 433.26188 142 
L 434.950312 142 
L 435.498692 236.75 
L 436.191382 142 
L 437.879813 142 
L 438.399331 236.75 
L 439.092021 142 
L 440.809315 142 
L 441.328833 236.75 
L 442.021523 142 
L 443.738817 142 
L 444.258334 236.75 
L 444.951024 142 
L 446.639456 142 
L 447.158974 236.75 
L 447.880526 142 
L 449.568958 142 
L 450.117337 236.75 
L 450.810027 142 
L 452.498459 142 
L 453.017977 236.75 
L 453.710667 142 
L 455.427961 142 
L 455.947478 236.75 
L 456.640168 142 
L 458.357462 142 
L 458.87698 236.75 
L 459.56967 142 
L 461.258102 142 
L 461.777619 236.75 
L 462.499171 142 
L 464.187603 142 
L 464.735983 236.75 
L 465.428673 142 
L 465.904897 142 
L 466.424415 236.75 
L 467.117105 47.5 
L 467.636622 236.75 
L 468.329312 47.5 
L 468.805537 236.75 
L 469.325054 236.75 
L 470.046606 47.5 
L 470.566124 236.75 
L 471.258814 47.5 
L 471.735038 236.75 
L 472.283418 236.75 
L 472.976108 47.5 
L 473.495625 236.75 
L 474.188315 47.5 
L 474.66454 236.75 
L 475.184057 236.75 
L 475.876747 47.5 
L 476.396265 236.75 
L 477.088955 47.5 
L 477.565179 236.75 
L 478.084697 236.75 
L 478.777387 47.5 
L 479.325766 236.75 
L 480.018456 47.5 
L 480.494681 236.75 
L 481.014198 236.75 
L 481.706888 47.5 
L 482.226406 236.75 
L 482.919096 47.5 
L 483.39532 236.75 
L 483.914838 236.75 
L 484.607528 47.5 
L 485.127045 236.75 
L 485.819735 47.5 
L 486.29596 236.75 
L 486.844339 236.75 
L 487.537029 47.5 
L 488.056547 236.75 
L 488.749237 47.5 
L 489.225461 236.75 
L 489.744979 236.75 
L 490.437669 47.5 
L 490.957186 236.75 
L 491.649876 47.5 
L 492.126101 236.75 
L 492.645618 236.75 
L 493.338308 47.5 
L 493.886688 236.75 
L 494.579378 47.5 
L 495.055602 236.75 
L 495.57512 236.75 
L 496.26781 47.5 
L 496.787327 236.75 
L 497.480017 47.5 
L 497.956242 236.75 
L 498.475759 236.75 
L 499.168449 47.5 
L 499.687967 236.75 
L 500.380657 47.5 
L 500.856881 236.75 
L 501.405261 236.75 
L 502.097951 47.5 
L 502.617468 236.75 
L 503.310158 47.5 
L 503.786383 236.75 
L 504.3059 236.75 
L 504.99859 47.5 
L 505.518108 236.75 
L 506.210798 47.5 
L 506.687022 236.75 
L 507.20654 236.75 
L 507.89923 47.5 
L 508.447609 236.75 
L 509.140299 47.5 
L 509.616524 236.75 
L 510.136041 236.75 
L 510.828731 47.5 
L 511.348249 236.75 
L 512.040939 47.5 
L 512.517163 236.75 
L 513.036681 236.75 
L 513.729371 47.5 
L 514.248888 236.75 
L 514.941578 47.5 
L 515.417803 236.75 
L 515.966182 236.75 
L 516.658872 47.5 
L 517.17839 236.75 
L 517.87108 47.5 
L 518.347304 236.75 
L 518.866822 236.75 
L 519.559512 47.5 
L 520.079029 236.75 
L 520.771719 47.5 
L 521.247944 236.75 
L 521.767461 236.75 
L 522.460151 47.5 
L 523.008531 236.75 
L 523.701221 47.5 
L 524.177445 236.75 
L 524.696963 236.75 
L 525.389653 47.5 
L 525.90917 236.75 
L 526.60186 47.5 
L 527.078084 236.75 
L 527.597602 236.75 
L 528.290292 47.5 
L 528.80981 236.75 
L 529.5025 47.5 
L 529.978724 236.75 
L 530.527104 236.75 
L 531.219794 47.5 
L 531.739311 236.75 
L 532.432001 47.5 
L 532.908225 236.75 
L 533.427743 236.75 
L 534.120433 47.5 
L 534.639951 236.75 
L 535.332641 47.5 
L 535.808865 236.75 
L 536.328382 236.75 
L 537.021072 47.5 
L 537.569452 236.75 
L 538.262142 47.5 
L 538.738366 236.75 
L 539.257884 236.75 
L 539.950574 47.5 
L 540.470092 236.75 
L 541.162782 47.5 
L 541.639006 236.75 
L 542.158523 236.75 
L 542.851213 47.5 
L 543.370731 236.75 
L 544.063421 47.5 
L 544.539645 236.75 
L 545.088025 236.75 
L 545.780715 47.5 
L 546.300233 236.75 
L 546.992923 47.5 
L 547.469147 236.75 
L 547.988664 236.75 
L 548.681354 47.5 
L 549.200872 236.75 
L 549.893562 47.5 
L 550.369786 236.75 
L 550.889304 236.75 
L 551.581994 47.5 
L 552.130374 236.75 
L 552.823064 47.5 
L 553.299288 236.75 
L 553.818805 236.75 
L 554.511495 47.5 
L 555.031013 236.75 
L 555.723703 47.5 
L 556.199927 236.75 
L 556.719445 236.75 
L 557.412135 47.5 
L 557.931652 236.75 
L 558.624342 47.5 
L 559.100567 236.75 
L 559.648946 236.75 
L 560.341636 47.5 
L 560.861154 236.75 
L 561.553844 47.5 
L 562.030068 236.75 
L 562.549586 236.75 
L 563.242276 47.5 
L 563.761793 236.75 
L 564.454483 47.5 
L 564.930708 236.75 
L 565.450225 236.75 
L 566.142915 47.5 
L 566.691295 236.75 
L 567.383985 47.5 
L 567.860209 236.75 
L 568.379727 236.75 
L 569.072417 47.5 
L 569.591934 236.75 
L 570.284624 47.5 
L 570.760849 236.75 
L 571.280366 236.75 
L 571.973056 47.5 
L 572.492574 236.75 
L 573.185264 47.5 
L 573.661488 236.75 
L 574.209868 236.75 
L 574.902558 47.5 
L 575.422075 236.75 
L 576.114765 47.5 
L 576.59099 236.75 
L 577.110507 236.75 
L 577.803197 47.5 
L 578.322715 236.75 
L 579.015405 47.5 
L 579.491629 236.75 
L 580.011147 236.75 
L 580.703837 47.5 
L 581.252216 236.75 
L 581.944906 47.5 
L 582.421131 236.75 
L 582.940648 236.75 
L 583.633338 47.5 
L 584.152856 236.75 
L 584.845546 47.5 
L 585.32177 236.75 
L 585.841288 236.75 
L 586.533978 47.5 
L 587.053495 236.75 
L 587.746185 47.5 
L 588.22241 236.75 
L 588.770789 236.75 
L 589.463479 47.5 
L 589.982997 236.75 
L 590.675687 47.5 
L 591.151911 236.75 
L 591.671429 236.75 
L 592.364119 47.5 
L 592.883636 236.75 
L 593.576326 47.5 
L 594.052551 236.75 
L 594.572068 236.75 
L 595.264758 47.5 
L 595.813138 236.75 
L 596.505828 47.5 
L 596.982052 236.75 
L 597.50157 236.75 
L 598.19426 47.5 
L 598.713777 236.75 
L 599.406467 47.5 
L 599.882692 236.75 
L 600.402209 236.75 
L 601.094899 47.5 
L 601.614417 236.75 
L 602.307107 47.5 
L 602.783331 236.75 
L 603.331711 236.75 
L 604.024401 47.5 
L 604.543918 236.75 
L 605.236608 47.5 
L 605.712833 236.75 
L 606.23235 236.75 
L 606.92504 47.5 
L 607.444558 236.75 
L 608.137248 47.5 
L 608.613472 236.75 
L 609.13299 236.75 
L 609.82568 47.5 
L 610.345197 236.75 
L 611.009025 47.5 
L 611.514112 236.75 
L 612.221233 236.75 
L 612.885061 47.5 
L 613.419009 236.75 
L 614.299303 47.5 
L 614.789958 236.75 
L 615.497079 236.75 
L 616.680425 47.5 
L 617.214373 236.75 
L 617.950356 47.5 
L 618.614184 236.75 
L 619.133702 236.75 
L 619.840823 47.5 
L 620.547944 236.75 
L 621.4571 47.5 
L 624.429894 236.75 
L 624.949412 236.75 
L 625.642102 47.5 
L 626.161619 236.75 
L 626.854309 47.5 
L 627.330534 236.75 
L 627.850051 236.75 
L 628.542741 47.5 
L 629.091121 236.75 
L 629.783811 47.5 
L 630.260035 236.75 
L 630.779553 236.75 
L 631.472243 47.5 
L 631.99176 236.75 
L 632.68445 47.5 
L 633.160675 236.75 
L 633.680192 236.75 
L 634.372882 47.5 
L 634.8924 236.75 
L 635.58509 47.5 
L 636.061314 236.75 
L 636.609694 236.75 
L 637.302384 47.5 
L 637.821901 236.75 
L 638.514591 47.5 
L 638.990816 236.75 
L 639.510333 236.75 
L 640.203023 47.5 
L 640.722541 236.75 
L 641.415231 47.5 
L 641.891455 236.75 
L 642.410973 236.75 
L 643.103663 47.5 
L 643.652042 236.75 
L 644.344732 47.5 
L 644.820957 236.75 
L 645.340474 236.75 
L 646.033164 47.5 
L 646.552682 236.75 
L 647.245372 47.5 
L 647.721596 236.75 
L 648.241114 236.75 
L 648.933804 47.5 
L 649.453321 236.75 
L 650.146011 47.5 
L 650.622236 236.75 
L 651.170615 236.75 
L 651.863305 47.5 
L 652.382823 236.75 
L 653.075513 47.5 
L 653.551737 236.75 
L 654.071255 236.75 
L 654.763945 47.5 
L 655.283462 236.75 
L 655.976152 47.5 
L 656.452377 236.75 
L 656.971894 236.75 
L 657.664584 47.5 
L 658.212964 236.75 
L 658.905654 47.5 
L 659.381878 236.75 
L 659.901396 236.75 
L 660.594086 47.5 
L 661.113603 236.75 
L 661.806293 47.5 
L 662.282518 236.75 
L 662.802035 236.75 
L 663.494725 47.5 
L 664.014243 236.75 
L 664.706933 47.5 
L 665.183157 236.75 
L 665.731537 236.75 
L 666.424227 47.5 
L 666.943744 236.75 
L 667.636434 47.5 
L 668.112659 236.75 
L 668.632176 236.75 
L 669.324866 47.5 
L 669.844384 236.75 
L 670.537074 47.5 
L 671.013298 236.75 
L 671.532816 236.75 
L 672.225506 47.5 
L 672.773885 236.75 
L 673.466575 47.5 
L 673.9428 236.75 
L 674.462317 236.75 
L 675.155007 47.5 
L 675.674525 236.75 
L 676.367215 47.5 
L 676.843439 236.75 
L 677.362957 236.75 
L 678.055647 47.5 
L 678.575164 236.75 
L 679.267854 47.5 
L 679.513182 236.75 
L 679.513182 236.75 
" clip-path="url(#p349850c142)" style="fill: none; stroke: #1f77b4; stroke-width: 1.5; stroke-linecap: square"/>
   </g>
   <g id="patch_3">
    <path d="M 56.09 246.25 
L 56.09 38 
" style="fill: none; stroke: #000000; stroke-width: 0.8; stroke-linejoin: miter; stroke-linecap: square"/>
   </g>
   <g id="patch_4">
    <path d="M 709.2 246.25 
L 709.2 38 
" style="fill: none; stroke: #000000; stroke-width: 0.8; stroke-linejoin: miter; stroke-linecap: square"/>
   </g>
   <g id="patch_5">
    <path d="M 56.09 246.04 
L 709.2 246.04 
" style="fill: none; stroke: #000000; stroke-width: 0.8; stroke-linejoin: miter; stroke-linecap: square"/>
   </g>
   <g id="patch_6">
    <path d="M 56.09 37.8 
L 709.2 37.8 
" style="fill: none; stroke: #000000; stroke-width: 0.8; stroke-linejoin: miter; stroke-linecap: square"/>
   </g>
   <g id="text_17">
    <!-- incomingDataRate:vector (HandoverShowcase.ap1.wlan[0].mac.dcf.channelAccess.pendingQueue) -->
    <g transform="translate(84.90625 21.201563) scale(0.12 -0.12)">
     <defs>
      <path id="DejaVuSans-6e" d="M 3513 2113 
L 3513 0 
L 2938 0 
L 2938 2094 
Q 2938 2591 2744 2837 
Q 2550 3084 2163 3084 
Q 1697 3084 1428 2787 
Q 1159 2491 1159 1978 
L 1159 0 
L 581 0 
L 581 3500 
L 1159 3500 
L 1159 2956 
Q 1366 3272 1645 3428 
Q 1925 3584 2291 3584 
Q 2894 3584 3203 3211 
Q 3513 2838 3513 2113 
z
" transform="scale(0.015625)"/>
      <path id="DejaVuSans-63" d="M 3122 3366 
L 3122 2828 
Q 2878 2963 2633 3030 
Q 2388 3097 2138 3097 
Q 1578 3097 1268 2742 
Q 959 2388 959 1747 
Q 959 1106 1268 751 
Q 1578 397 2138 397 
Q 2388 397 2633 464 
Q 2878 531 3122 666 
L 3122 134 
Q 2881 22 2623 -34 
Q 2366 -91 2075 -91 
Q 1284 -91 818 406 
Q 353 903 353 1747 
Q 353 2603 823 3093 
Q 1294 3584 2113 3584 
Q 2378 3584 2631 3529 
Q 2884 3475 3122 3366 
z
" transform="scale(0.015625)"/>
      <path id="DejaVuSans-6f" d="M 1959 3097 
Q 1497 3097 1228 2736 
Q 959 2375 959 1747 
Q 959 1119 1226 758 
Q 1494 397 1959 397 
Q 2419 397 2687 759 
Q 2956 1122 2956 1747 
Q 2956 2369 2687 2733 
Q 2419 3097 1959 3097 
z
M 1959 3584 
Q 2709 3584 3137 3096 
Q 3566 2609 3566 1747 
Q 3566 888 3137 398 
Q 2709 -91 1959 -91 
Q 1206 -91 779 398 
Q 353 888 353 1747 
Q 353 2609 779 3096 
Q 1206 3584 1959 3584 
z
" transform="scale(0.015625)"/>
      <path id="DejaVuSans-67" d="M 2906 1791 
Q 2906 2416 2648 2759 
Q 2391 3103 1925 3103 
Q 1463 3103 1205 2759 
Q 947 2416 947 1791 
Q 947 1169 1205 825 
Q 1463 481 1925 481 
Q 2391 481 2648 825 
Q 2906 1169 2906 1791 
z
M 3481 434 
Q 3481 -459 3084 -895 
Q 2688 -1331 1869 -1331 
Q 1566 -1331 1297 -1286 
Q 1028 -1241 775 -1147 
L 775 -588 
Q 1028 -725 1275 -790 
Q 1522 -856 1778 -856 
Q 2344 -856 2625 -561 
Q 2906 -266 2906 331 
L 2906 616 
Q 2728 306 2450 153 
Q 2172 0 1784 0 
Q 1141 0 747 490 
Q 353 981 353 1791 
Q 353 2603 747 3093 
Q 1141 3584 1784 3584 
Q 2172 3584 2450 3431 
Q 2728 3278 2906 2969 
L 2906 3500 
L 3481 3500 
L 3481 434 
z
" transform="scale(0.015625)"/>
      <path id="DejaVuSans-52" d="M 2841 2188 
Q 3044 2119 3236 1894 
Q 3428 1669 3622 1275 
L 4263 0 
L 3584 0 
L 2988 1197 
Q 2756 1666 2539 1819 
Q 2322 1972 1947 1972 
L 1259 1972 
L 1259 0 
L 628 0 
L 628 4666 
L 2053 4666 
Q 2853 4666 3247 4331 
Q 3641 3997 3641 3322 
Q 3641 2881 3436 2590 
Q 3231 2300 2841 2188 
z
M 1259 4147 
L 1259 2491 
L 2053 2491 
Q 2509 2491 2742 2702 
Q 2975 2913 2975 3322 
Q 2975 3731 2742 3939 
Q 2509 4147 2053 4147 
L 1259 4147 
z
" transform="scale(0.015625)"/>
      <path id="DejaVuSans-3a" d="M 750 794 
L 1409 794 
L 1409 0 
L 750 0 
L 750 794 
z
M 750 3309 
L 1409 3309 
L 1409 2516 
L 750 2516 
L 750 3309 
z
" transform="scale(0.015625)"/>
      <path id="DejaVuSans-76" d="M 191 3500 
L 800 3500 
L 1894 563 
L 2988 3500 
L 3597 3500 
L 2284 0 
L 1503 0 
L 191 3500 
z
" transform="scale(0.015625)"/>
      <path id="DejaVuSans-72" d="M 2631 2963 
Q 2534 3019 2420 3045 
Q 2306 3072 2169 3072 
Q 1681 3072 1420 2755 
Q 1159 2438 1159 1844 
L 1159 0 
L 581 0 
L 581 3500 
L 1159 3500 
L 1159 2956 
Q 1341 3275 1631 3429 
Q 1922 3584 2338 3584 
Q 2397 3584 2469 3576 
Q 2541 3569 2628 3553 
L 2631 2963 
z
" transform="scale(0.015625)"/>
      <path id="DejaVuSans-48" d="M 628 4666 
L 1259 4666 
L 1259 2753 
L 3553 2753 
L 3553 4666 
L 4184 4666 
L 4184 0 
L 3553 0 
L 3553 2222 
L 1259 2222 
L 1259 0 
L 628 0 
L 628 4666 
z
" transform="scale(0.015625)"/>
      <path id="DejaVuSans-64" d="M 2906 2969 
L 2906 4863 
L 3481 4863 
L 3481 0 
L 2906 0 
L 2906 525 
Q 2725 213 2448 61 
Q 2172 -91 1784 -91 
Q 1150 -91 751 415 
Q 353 922 353 1747 
Q 353 2572 751 3078 
Q 1150 3584 1784 3584 
Q 2172 3584 2448 3432 
Q 2725 3281 2906 2969 
z
M 947 1747 
Q 947 1113 1208 752 
Q 1469 391 1925 391 
Q 2381 391 2643 752 
Q 2906 1113 2906 1747 
Q 2906 2381 2643 2742 
Q 2381 3103 1925 3103 
Q 1469 3103 1208 2742 
Q 947 2381 947 1747 
z
" transform="scale(0.015625)"/>
      <path id="DejaVuSans-53" d="M 3425 4513 
L 3425 3897 
Q 3066 4069 2747 4153 
Q 2428 4238 2131 4238 
Q 1616 4238 1336 4038 
Q 1056 3838 1056 3469 
Q 1056 3159 1242 3001 
Q 1428 2844 1947 2747 
L 2328 2669 
Q 3034 2534 3370 2195 
Q 3706 1856 3706 1288 
Q 3706 609 3251 259 
Q 2797 -91 1919 -91 
Q 1588 -91 1214 -16 
Q 841 59 441 206 
L 441 856 
Q 825 641 1194 531 
Q 1563 422 1919 422 
Q 2459 422 2753 634 
Q 3047 847 3047 1241 
Q 3047 1584 2836 1778 
Q 2625 1972 2144 2069 
L 1759 2144 
Q 1053 2284 737 2584 
Q 422 2884 422 3419 
Q 422 4038 858 4394 
Q 1294 4750 2059 4750 
Q 2388 4750 2728 4690 
Q 3069 4631 3425 4513 
z
" transform="scale(0.015625)"/>
      <path id="DejaVuSans-68" d="M 3513 2113 
L 3513 0 
L 2938 0 
L 2938 2094 
Q 2938 2591 2744 2837 
Q 2550 3084 2163 3084 
Q 1697 3084 1428 2787 
Q 1159 2491 1159 1978 
L 1159 0 
L 581 0 
L 581 4863 
L 1159 4863 
L 1159 2956 
Q 1366 3272 1645 3428 
Q 1925 3584 2291 3584 
Q 2894 3584 3203 3211 
Q 3513 2838 3513 2113 
z
" transform="scale(0.015625)"/>
      <path id="DejaVuSans-77" d="M 269 3500 
L 844 3500 
L 1563 769 
L 2278 3500 
L 2956 3500 
L 3675 769 
L 4391 3500 
L 4966 3500 
L 4050 0 
L 3372 0 
L 2619 2869 
L 1863 0 
L 1184 0 
L 269 3500 
z
" transform="scale(0.015625)"/>
      <path id="DejaVuSans-70" d="M 1159 525 
L 1159 -1331 
L 581 -1331 
L 581 3500 
L 1159 3500 
L 1159 2969 
Q 1341 3281 1617 3432 
Q 1894 3584 2278 3584 
Q 2916 3584 3314 3078 
Q 3713 2572 3713 1747 
Q 3713 922 3314 415 
Q 2916 -91 2278 -91 
Q 1894 -91 1617 61 
Q 1341 213 1159 525 
z
M 3116 1747 
Q 3116 2381 2855 2742 
Q 2594 3103 2138 3103 
Q 1681 3103 1420 2742 
Q 1159 2381 1159 1747 
Q 1159 1113 1420 752 
Q 1681 391 2138 391 
Q 2594 391 2855 752 
Q 3116 1113 3116 1747 
z
" transform="scale(0.015625)"/>
      <path id="DejaVuSans-5b" d="M 550 4863 
L 1875 4863 
L 1875 4416 
L 1125 4416 
L 1125 -397 
L 1875 -397 
L 1875 -844 
L 550 -844 
L 550 4863 
z
" transform="scale(0.015625)"/>
      <path id="DejaVuSans-5d" d="M 1947 4863 
L 1947 -844 
L 622 -844 
L 622 -397 
L 1369 -397 
L 1369 4416 
L 622 4416 
L 622 4863 
L 1947 4863 
z
" transform="scale(0.015625)"/>
      <path id="DejaVuSans-66" d="M 2375 4863 
L 2375 4384 
L 1825 4384 
Q 1516 4384 1395 4259 
Q 1275 4134 1275 3809 
L 1275 3500 
L 2222 3500 
L 2222 3053 
L 1275 3053 
L 1275 0 
L 697 0 
L 697 3053 
L 147 3053 
L 147 3500 
L 697 3500 
L 697 3744 
Q 697 4328 969 4595 
Q 1241 4863 1831 4863 
L 2375 4863 
z
" transform="scale(0.015625)"/>
      <path id="DejaVuSans-41" d="M 2188 4044 
L 1331 1722 
L 3047 1722 
L 2188 4044 
z
M 1831 4666 
L 2547 4666 
L 4325 0 
L 3669 0 
L 3244 1197 
L 1141 1197 
L 716 0 
L 50 0 
L 1831 4666 
z
" transform="scale(0.015625)"/>
      <path id="DejaVuSans-51" d="M 2522 4238 
Q 1834 4238 1429 3725 
Q 1025 3213 1025 2328 
Q 1025 1447 1429 934 
Q 1834 422 2522 422 
Q 3209 422 3611 934 
Q 4013 1447 4013 2328 
Q 4013 3213 3611 3725 
Q 3209 4238 2522 4238 
z
M 3406 84 
L 4238 -825 
L 3475 -825 
L 2784 -78 
Q 2681 -84 2626 -87 
Q 2572 -91 2522 -91 
Q 1538 -91 948 567 
Q 359 1225 359 2328 
Q 359 3434 948 4092 
Q 1538 4750 2522 4750 
Q 3503 4750 4090 4092 
Q 4678 3434 4678 2328 
Q 4678 1516 4351 937 
Q 4025 359 3406 84 
z
" transform="scale(0.015625)"/>
     </defs>
     <use xlink:href="#DejaVuSans-69"/>
     <use xlink:href="#DejaVuSans-6e" x="27.783203"/>
     <use xlink:href="#DejaVuSans-63" x="91.162109"/>
     <use xlink:href="#DejaVuSans-6f" x="146.142578"/>
     <use xlink:href="#DejaVuSans-6d" x="207.324219"/>
     <use xlink:href="#DejaVuSans-69" x="304.736328"/>
     <use xlink:href="#DejaVuSans-6e" x="332.519531"/>
     <use xlink:href="#DejaVuSans-67" x="395.898438"/>
     <use xlink:href="#DejaVuSans-44" x="459.375"/>
     <use xlink:href="#DejaVuSans-61" x="536.376953"/>
     <use xlink:href="#DejaVuSans-74" x="597.65625"/>
     <use xlink:href="#DejaVuSans-61" x="636.865234"/>
     <use xlink:href="#DejaVuSans-52" x="698.144531"/>
     <use xlink:href="#DejaVuSans-61" x="765.376953"/>
     <use xlink:href="#DejaVuSans-74" x="826.65625"/>
     <use xlink:href="#DejaVuSans-65" x="865.865234"/>
     <use xlink:href="#DejaVuSans-3a" x="927.388672"/>
     <use xlink:href="#DejaVuSans-76" x="961.080078"/>
     <use xlink:href="#DejaVuSans-65" x="1020.259766"/>
     <use xlink:href="#DejaVuSans-63" x="1081.783203"/>
     <use xlink:href="#DejaVuSans-74" x="1136.763672"/>
     <use xlink:href="#DejaVuSans-6f" x="1175.972656"/>
     <use xlink:href="#DejaVuSans-72" x="1237.154297"/>
     <use xlink:href="#DejaVuSans-20" x="1278.267578"/>
     <use xlink:href="#DejaVuSans-28" x="1310.054688"/>
     <use xlink:href="#DejaVuSans-48" x="1349.068359"/>
     <use xlink:href="#DejaVuSans-61" x="1424.263672"/>
     <use xlink:href="#DejaVuSans-6e" x="1485.542969"/>
     <use xlink:href="#DejaVuSans-64" x="1548.921875"/>
     <use xlink:href="#DejaVuSans-6f" x="1612.398438"/>
     <use xlink:href="#DejaVuSans-76" x="1673.580078"/>
     <use xlink:href="#DejaVuSans-65" x="1732.759766"/>
     <use xlink:href="#DejaVuSans-72" x="1794.283203"/>
     <use xlink:href="#DejaVuSans-53" x="1835.396484"/>
     <use xlink:href="#DejaVuSans-68" x="1898.873047"/>
     <use xlink:href="#DejaVuSans-6f" x="1962.251953"/>
     <use xlink:href="#DejaVuSans-77" x="2023.433594"/>
     <use xlink:href="#DejaVuSans-63" x="2105.220703"/>
     <use xlink:href="#DejaVuSans-61" x="2160.201172"/>
     <use xlink:href="#DejaVuSans-73" x="2221.480469"/>
     <use xlink:href="#DejaVuSans-65" x="2273.580078"/>
     <use xlink:href="#DejaVuSans-2e" x="2335.103516"/>
     <use xlink:href="#DejaVuSans-61" x="2366.890625"/>
     <use xlink:href="#DejaVuSans-70" x="2428.169922"/>
     <use xlink:href="#DejaVuSans-31" x="2491.646484"/>
     <use xlink:href="#DejaVuSans-2e" x="2555.269531"/>
     <use xlink:href="#DejaVuSans-77" x="2587.056641"/>
     <use xlink:href="#DejaVuSans-6c" x="2668.84375"/>
     <use xlink:href="#DejaVuSans-61" x="2696.626953"/>
     <use xlink:href="#DejaVuSans-6e" x="2757.90625"/>
     <use xlink:href="#DejaVuSans-5b" x="2821.285156"/>
     <use xlink:href="#DejaVuSans-30" x="2860.298828"/>
     <use xlink:href="#DejaVuSans-5d" x="2923.921875"/>
     <use xlink:href="#DejaVuSans-2e" x="2962.935547"/>
     <use xlink:href="#DejaVuSans-6d" x="2994.722656"/>
     <use xlink:href="#DejaVuSans-61" x="3092.134766"/>
     <use xlink:href="#DejaVuSans-63" x="3153.414062"/>
     <use xlink:href="#DejaVuSans-2e" x="3208.394531"/>
     <use xlink:href="#DejaVuSans-64" x="3240.181641"/>
     <use xlink:href="#DejaVuSans-63" x="3303.658203"/>
     <use xlink:href="#DejaVuSans-66" x="3358.638672"/>
     <use xlink:href="#DejaVuSans-2e" x="3386.59375"/>
     <use xlink:href="#DejaVuSans-63" x="3418.380859"/>
     <use xlink:href="#DejaVuSans-68" x="3473.361328"/>
     <use xlink:href="#DejaVuSans-61" x="3536.740234"/>
     <use xlink:href="#DejaVuSans-6e" x="3598.019531"/>
     <use xlink:href="#DejaVuSans-6e" x="3661.398438"/>
     <use xlink:href="#DejaVuSans-65" x="3724.777344"/>
     <use xlink:href="#DejaVuSans-6c" x="3786.300781"/>
     <use xlink:href="#DejaVuSans-41" x="3814.083984"/>
     <use xlink:href="#DejaVuSans-63" x="3880.742188"/>
     <use xlink:href="#DejaVuSans-63" x="3935.722656"/>
     <use xlink:href="#DejaVuSans-65" x="3990.703125"/>
     <use xlink:href="#DejaVuSans-73" x="4052.226562"/>
     <use xlink:href="#DejaVuSans-73" x="4104.326172"/>
     <use xlink:href="#DejaVuSans-2e" x="4156.425781"/>
     <use xlink:href="#DejaVuSans-70" x="4188.212891"/>
     <use xlink:href="#DejaVuSans-65" x="4251.689453"/>
     <use xlink:href="#DejaVuSans-6e" x="4313.212891"/>
     <use xlink:href="#DejaVuSans-64" x="4376.591797"/>
     <use xlink:href="#DejaVuSans-69" x="4440.068359"/>
     <use xlink:href="#DejaVuSans-6e" x="4467.851562"/>
     <use xlink:href="#DejaVuSans-67" x="4531.230469"/>
     <use xlink:href="#DejaVuSans-51" x="4594.707031"/>
     <use xlink:href="#DejaVuSans-75" x="4673.417969"/>
     <use xlink:href="#DejaVuSans-65" x="4736.796875"/>
     <use xlink:href="#DejaVuSans-75" x="4798.320312"/>
     <use xlink:href="#DejaVuSans-65" x="4861.699219"/>
     <use xlink:href="#DejaVuSans-29" x="4923.222656"/>
    </g>
   </g>
   <g id="legend_1">
    <g id="patch_7">
     <path d="M 63.09 60.478125 
L 188.572813 60.478125 
Q 190.572813 60.478125 190.572813 58.478125 
L 190.572813 44.8 
Q 190.572813 42.8 188.572813 42.8 
L 63.09 42.8 
Q 61.09 42.8 61.09 44.8 
L 61.09 58.478125 
Q 61.09 60.478125 63.09 60.478125 
z
" style="fill: #ffffff; opacity: 0.8; stroke: #cccccc; stroke-linejoin: miter"/>
    </g>
    <g id="line2d_28">
     <path d="M 65.09 50.898438 
L 75.09 50.898438 
L 85.09 50.898438 
" style="fill: none; stroke: #1f77b4; stroke-width: 1.5; stroke-linecap: square"/>
    </g>
    <g id="text_18">
     <!-- Δvalue per sample -->
     <g transform="translate(93.09 54.398438) scale(0.1 -0.1)">
      <defs>
       <path id="DejaVuSans-394" d="M 2188 4044 
L 906 525 
L 3472 525 
L 2188 4044 
z
M 50 0 
L 1831 4666 
L 2547 4666 
L 4325 0 
L 50 0 
z
" transform="scale(0.015625)"/>
      </defs>
      <use xlink:href="#DejaVuSans-394"/>
      <use xlink:href="#DejaVuSans-76" x="68.408203"/>
      <use xlink:href="#DejaVuSans-61" x="127.587891"/>
      <use xlink:href="#DejaVuSans-6c" x="188.867188"/>
      <use xlink:href="#DejaVuSans-75" x="216.650391"/>
      <use xlink:href="#DejaVuSans-65" x="280.029297"/>
      <use xlink:href="#DejaVuSans-20" x="341.552734"/>
      <use xlink:href="#DejaVuSans-70" x="373.339844"/>
      <use xlink:href="#DejaVuSans-65" x="436.816406"/>
      <use xlink:href="#DejaVuSans-72" x="498.339844"/>
      <use xlink:href="#DejaVuSans-20" x="539.453125"/>
      <use xlink:href="#DejaVuSans-73" x="571.240234"/>
      <use xlink:href="#DejaVuSans-61" x="623.339844"/>
      <use xlink:href="#DejaVuSans-6d" x="684.619141"/>
      <use xlink:href="#DejaVuSans-70" x="782.03125"/>
      <use xlink:href="#DejaVuSans-6c" x="845.507812"/>
      <use xlink:href="#DejaVuSans-65" x="873.291016"/>
     </g>
    </g>
   </g>
  </g>
 </g>
 <defs>
  <clipPath id="p349850c142">
   <rect x="56.09" y="37.8" width="653.11" height="208.24"/>
  </clipPath>
 </defs>
</svg>
