<?xml version="1.0" encoding="utf-8" standalone="no"?>
<!DOCTYPE svg PUBLIC "-//W3C//DTD SVG 1.1//EN"
  "http://www.w3.org/Graphics/SVG/1.1/DTD/svg11.dtd">
<svg xmlns:xlink="http://www.w3.org/1999/xlink" width="720pt" height="288pt" viewBox="0 0 720 288" xmlns="http://www.w3.org/2000/svg" version="1.1">
 <metadata>
  <rdf:RDF xmlns:dc="http://purl.org/dc/elements/1.1/" xmlns:cc="http://creativecommons.org/ns#" xmlns:rdf="http://www.w3.org/1999/02/22-rdf-syntax-ns#">
   <cc:Work>
    <dc:type rdf:resource="http://purl.org/dc/dcmitype/StillImage"/>
    <dc:date>2025-07-27T15:08:48.354127</dc:date>
    <dc:format>image/svg+xml</dc:format>
    <dc:creator>
     <cc:Agent>
      <dc:title>Matplotlib v3.9.2, https://matplotlib.org/</dc:title>
     </cc:Agent>
    </dc:creator>
   </cc:Work>
  </rdf:RDF>
 </metadata>
 <defs>
  <style type="text/css">*{stroke-linejoin: round; stroke-linecap: butt}</style>
 </defs>
 <g id="figure_1">
  <g id="patch_1">
   <path d="M 0 288 
L 720 288 
L 720 0 
L 0 0 
z
" style="fill: #ffffff"/>
  </g>
  <g id="axes_1">
   <g id="patch_2">
    <path d="M 54.02 246.04 
L 709.2 246.04 
L 709.2 26.88 
L 54.02 26.88 
z
" style="fill: #ffffff"/>
   </g>
   <g id="matplotlib.axis_1">
    <g id="xtick_1">
     <g id="line2d_1">
      <path d="M 83.511998 246.04 
L 83.511998 26.88 
" clip-path="url(#pff0f25e647)" style="fill: none; stroke: #b0b0b0; stroke-width: 0.8; stroke-linecap: square"/>
     </g>
     <g id="line2d_2">
      <defs>
       <path id="m11a471f9e0" d="M 0 0 
L 0 3.5 
" style="stroke: #000000; stroke-width: 0.8"/>
      </defs>
      <g>
       <use xlink:href="#m11a471f9e0" x="83.511998" y="246.04" style="stroke: #000000; stroke-width: 0.8"/>
      </g>
     </g>
     <g id="text_1">
      <!-- 0 -->
      <g transform="translate(80.330748 260.638438) scale(0.1 -0.1)">
       <defs>
        <path id="DejaVuSans-30" d="M 2034 4250 
Q 1547 4250 1301 3770 
Q 1056 3291 1056 2328 
Q 1056 1369 1301 889 
Q 1547 409 2034 409 
Q 2525 409 2770 889 
Q 3016 1369 3016 2328 
Q 3016 3291 2770 3770 
Q 2525 4250 2034 4250 
z
M 2034 4750 
Q 2819 4750 3233 4129 
Q 3647 3509 3647 2328 
Q 3647 1150 3233 529 
Q 2819 -91 2034 -91 
Q 1250 -91 836 529 
Q 422 1150 422 2328 
Q 422 3509 836 4129 
Q 1250 4750 2034 4750 
z
" transform="scale(0.015625)"/>
       </defs>
       <use xlink:href="#DejaVuSans-30"/>
      </g>
     </g>
    </g>
    <g id="xtick_2">
     <g id="line2d_3">
      <path d="M 227.96732 246.04 
L 227.96732 26.88 
" clip-path="url(#pff0f25e647)" style="fill: none; stroke: #b0b0b0; stroke-width: 0.8; stroke-linecap: square"/>
     </g>
     <g id="line2d_4">
      <g>
       <use xlink:href="#m11a471f9e0" x="227.96732" y="246.04" style="stroke: #000000; stroke-width: 0.8"/>
      </g>
     </g>
     <g id="text_2">
      <!-- 10000 -->
      <g transform="translate(212.06107 260.638438) scale(0.1 -0.1)">
       <defs>
        <path id="DejaVuSans-31" d="M 794 531 
L 1825 531 
L 1825 4091 
L 703 3866 
L 703 4441 
L 1819 4666 
L 2450 4666 
L 2450 531 
L 3481 531 
L 3481 0 
L 794 0 
L 794 531 
z
" transform="scale(0.015625)"/>
       </defs>
       <use xlink:href="#DejaVuSans-31"/>
       <use xlink:href="#DejaVuSans-30" x="63.623047"/>
       <use xlink:href="#DejaVuSans-30" x="127.246094"/>
       <use xlink:href="#DejaVuSans-30" x="190.869141"/>
       <use xlink:href="#DejaVuSans-30" x="254.492188"/>
      </g>
     </g>
    </g>
    <g id="xtick_3">
     <g id="line2d_5">
      <path d="M 372.422642 246.04 
L 372.422642 26.88 
" clip-path="url(#pff0f25e647)" style="fill: none; stroke: #b0b0b0; stroke-width: 0.8; stroke-linecap: square"/>
     </g>
     <g id="line2d_6">
      <g>
       <use xlink:href="#m11a471f9e0" x="372.422642" y="246.04" style="stroke: #000000; stroke-width: 0.8"/>
      </g>
     </g>
     <g id="text_3">
      <!-- 20000 -->
      <g transform="translate(356.516392 260.638438) scale(0.1 -0.1)">
       <defs>
        <path id="DejaVuSans-32" d="M 1228 531 
L 3431 531 
L 3431 0 
L 469 0 
L 469 531 
Q 828 903 1448 1529 
Q 2069 2156 2228 2338 
Q 2531 2678 2651 2914 
Q 2772 3150 2772 3378 
Q 2772 3750 2511 3984 
Q 2250 4219 1831 4219 
Q 1534 4219 1204 4116 
Q 875 4013 500 3803 
L 500 4441 
Q 881 4594 1212 4672 
Q 1544 4750 1819 4750 
Q 2544 4750 2975 4387 
Q 3406 4025 3406 3419 
Q 3406 3131 3298 2873 
Q 3191 2616 2906 2266 
Q 2828 2175 2409 1742 
Q 1991 1309 1228 531 
z
" transform="scale(0.015625)"/>
       </defs>
       <use xlink:href="#DejaVuSans-32"/>
       <use xlink:href="#DejaVuSans-30" x="63.623047"/>
       <use xlink:href="#DejaVuSans-30" x="127.246094"/>
       <use xlink:href="#DejaVuSans-30" x="190.869141"/>
       <use xlink:href="#DejaVuSans-30" x="254.492188"/>
      </g>
     </g>
    </g>
    <g id="xtick_4">
     <g id="line2d_7">
      <path d="M 516.877963 246.04 
L 516.877963 26.88 
" clip-path="url(#pff0f25e647)" style="fill: none; stroke: #b0b0b0; stroke-width: 0.8; stroke-linecap: square"/>
     </g>
     <g id="line2d_8">
      <g>
       <use xlink:href="#m11a471f9e0" x="516.877963" y="246.04" style="stroke: #000000; stroke-width: 0.8"/>
      </g>
     </g>
     <g id="text_4">
      <!-- 30000 -->
      <g transform="translate(500.971713 260.638438) scale(0.1 -0.1)">
       <defs>
        <path id="DejaVuSans-33" d="M 2597 2516 
Q 3050 2419 3304 2112 
Q 3559 1806 3559 1356 
Q 3559 666 3084 287 
Q 2609 -91 1734 -91 
Q 1441 -91 1130 -33 
Q 819 25 488 141 
L 488 750 
Q 750 597 1062 519 
Q 1375 441 1716 441 
Q 2309 441 2620 675 
Q 2931 909 2931 1356 
Q 2931 1769 2642 2001 
Q 2353 2234 1838 2234 
L 1294 2234 
L 1294 2753 
L 1863 2753 
Q 2328 2753 2575 2939 
Q 2822 3125 2822 3475 
Q 2822 3834 2567 4026 
Q 2313 4219 1838 4219 
Q 1578 4219 1281 4162 
Q 984 4106 628 3988 
L 628 4550 
Q 988 4650 1302 4700 
Q 1616 4750 1894 4750 
Q 2613 4750 3031 4423 
Q 3450 4097 3450 3541 
Q 3450 3153 3228 2886 
Q 3006 2619 2597 2516 
z
" transform="scale(0.015625)"/>
       </defs>
       <use xlink:href="#DejaVuSans-33"/>
       <use xlink:href="#DejaVuSans-30" x="63.623047"/>
       <use xlink:href="#DejaVuSans-30" x="127.246094"/>
       <use xlink:href="#DejaVuSans-30" x="190.869141"/>
       <use xlink:href="#DejaVuSans-30" x="254.492188"/>
      </g>
     </g>
    </g>
    <g id="xtick_5">
     <g id="line2d_9">
      <path d="M 661.333285 246.04 
L 661.333285 26.88 
" clip-path="url(#pff0f25e647)" style="fill: none; stroke: #b0b0b0; stroke-width: 0.8; stroke-linecap: square"/>
     </g>
     <g id="line2d_10">
      <g>
       <use xlink:href="#m11a471f9e0" x="661.333285" y="246.04" style="stroke: #000000; stroke-width: 0.8"/>
      </g>
     </g>
     <g id="text_5">
      <!-- 40000 -->
      <g transform="translate(645.427035 260.638438) scale(0.1 -0.1)">
       <defs>
        <path id="DejaVuSans-34" d="M 2419 4116 
L 825 1625 
L 2419 1625 
L 2419 4116 
z
M 2253 4666 
L 3047 4666 
L 3047 1625 
L 3713 1625 
L 3713 1100 
L 3047 1100 
L 3047 0 
L 2419 0 
L 2419 1100 
L 313 1100 
L 313 1709 
L 2253 4666 
z
" transform="scale(0.015625)"/>
       </defs>
       <use xlink:href="#DejaVuSans-34"/>
       <use xlink:href="#DejaVuSans-30" x="63.623047"/>
       <use xlink:href="#DejaVuSans-30" x="127.246094"/>
       <use xlink:href="#DejaVuSans-30" x="190.869141"/>
       <use xlink:href="#DejaVuSans-30" x="254.492188"/>
      </g>
     </g>
    </g>
    <g id="text_6">
     <!-- Time (s) -->
     <g transform="translate(361.281094 274.316562) scale(0.1 -0.1)">
      <defs>
       <path id="DejaVuSans-54" d="M -19 4666 
L 3928 4666 
L 3928 4134 
L 2272 4134 
L 2272 0 
L 1638 0 
L 1638 4134 
L -19 4134 
L -19 4666 
z
" transform="scale(0.015625)"/>
       <path id="DejaVuSans-69" d="M 603 3500 
L 1178 3500 
L 1178 0 
L 603 0 
L 603 3500 
z
M 603 4863 
L 1178 4863 
L 1178 4134 
L 603 4134 
L 603 4863 
z
" transform="scale(0.015625)"/>
       <path id="DejaVuSans-6d" d="M 3328 2828 
Q 3544 3216 3844 3400 
Q 4144 3584 4550 3584 
Q 5097 3584 5394 3201 
Q 5691 2819 5691 2113 
L 5691 0 
L 5113 0 
L 5113 2094 
Q 5113 2597 4934 2840 
Q 4756 3084 4391 3084 
Q 3944 3084 3684 2787 
Q 3425 2491 3425 1978 
L 3425 0 
L 2847 0 
L 2847 2094 
Q 2847 2600 2669 2842 
Q 2491 3084 2119 3084 
Q 1678 3084 1418 2786 
Q 1159 2488 1159 1978 
L 1159 0 
L 581 0 
L 581 3500 
L 1159 3500 
L 1159 2956 
Q 1356 3278 1631 3431 
Q 1906 3584 2284 3584 
Q 2666 3584 2933 3390 
Q 3200 3197 3328 2828 
z
" transform="scale(0.015625)"/>
       <path id="DejaVuSans-65" d="M 3597 1894 
L 3597 1613 
L 953 1613 
Q 991 1019 1311 708 
Q 1631 397 2203 397 
Q 2534 397 2845 478 
Q 3156 559 3463 722 
L 3463 178 
Q 3153 47 2828 -22 
Q 2503 -91 2169 -91 
Q 1331 -91 842 396 
Q 353 884 353 1716 
Q 353 2575 817 3079 
Q 1281 3584 2069 3584 
Q 2775 3584 3186 3129 
Q 3597 2675 3597 1894 
z
M 3022 2063 
Q 3016 2534 2758 2815 
Q 2500 3097 2075 3097 
Q 1594 3097 1305 2825 
Q 1016 2553 972 2059 
L 3022 2063 
z
" transform="scale(0.015625)"/>
       <path id="DejaVuSans-20" transform="scale(0.015625)"/>
       <path id="DejaVuSans-28" d="M 1984 4856 
Q 1566 4138 1362 3434 
Q 1159 2731 1159 2009 
Q 1159 1288 1364 580 
Q 1569 -128 1984 -844 
L 1484 -844 
Q 1016 -109 783 600 
Q 550 1309 550 2009 
Q 550 2706 781 3412 
Q 1013 4119 1484 4856 
L 1984 4856 
z
" transform="scale(0.015625)"/>
       <path id="DejaVuSans-73" d="M 2834 3397 
L 2834 2853 
Q 2591 2978 2328 3040 
Q 2066 3103 1784 3103 
Q 1356 3103 1142 2972 
Q 928 2841 928 2578 
Q 928 2378 1081 2264 
Q 1234 2150 1697 2047 
L 1894 2003 
Q 2506 1872 2764 1633 
Q 3022 1394 3022 966 
Q 3022 478 2636 193 
Q 2250 -91 1575 -91 
Q 1294 -91 989 -36 
Q 684 19 347 128 
L 347 722 
Q 666 556 975 473 
Q 1284 391 1588 391 
Q 1994 391 2212 530 
Q 2431 669 2431 922 
Q 2431 1156 2273 1281 
Q 2116 1406 1581 1522 
L 1381 1569 
Q 847 1681 609 1914 
Q 372 2147 372 2553 
Q 372 3047 722 3315 
Q 1072 3584 1716 3584 
Q 2034 3584 2315 3537 
Q 2597 3491 2834 3397 
z
" transform="scale(0.015625)"/>
       <path id="DejaVuSans-29" d="M 513 4856 
L 1013 4856 
Q 1481 4119 1714 3412 
Q 1947 2706 1947 2009 
Q 1947 1309 1714 600 
Q 1481 -109 1013 -844 
L 513 -844 
Q 928 -128 1133 580 
Q 1338 1288 1338 2009 
Q 1338 2731 1133 3434 
Q 928 4138 513 4856 
z
" transform="scale(0.015625)"/>
      </defs>
      <use xlink:href="#DejaVuSans-54"/>
      <use xlink:href="#DejaVuSans-69" x="57.958984"/>
      <use xlink:href="#DejaVuSans-6d" x="85.742188"/>
      <use xlink:href="#DejaVuSans-65" x="183.154297"/>
      <use xlink:href="#DejaVuSans-20" x="244.677734"/>
      <use xlink:href="#DejaVuSans-28" x="276.464844"/>
      <use xlink:href="#DejaVuSans-73" x="315.478516"/>
      <use xlink:href="#DejaVuSans-29" x="367.578125"/>
     </g>
    </g>
   </g>
   <g id="matplotlib.axis_2">
    <g id="ytick_1">
     <g id="line2d_11">
      <path d="M 54.02 236.098117 
L 709.2 236.098117 
" clip-path="url(#pff0f25e647)" style="fill: none; stroke: #b0b0b0; stroke-width: 0.8; stroke-linecap: square"/>
     </g>
     <g id="line2d_12">
      <defs>
       <path id="md860e102f3" d="M 0 0 
L -3.5 0 
" style="stroke: #000000; stroke-width: 0.8"/>
      </defs>
      <g>
       <use xlink:href="#md860e102f3" x="54.02" y="236.098117" style="stroke: #000000; stroke-width: 0.8"/>
      </g>
     </g>
     <g id="text_7">
      <!-- 0.00 -->
      <g transform="translate(24.754375 239.897335) scale(0.1 -0.1)">
       <defs>
        <path id="DejaVuSans-2e" d="M 684 794 
L 1344 794 
L 1344 0 
L 684 0 
L 684 794 
z
" transform="scale(0.015625)"/>
       </defs>
       <use xlink:href="#DejaVuSans-30"/>
       <use xlink:href="#DejaVuSans-2e" x="63.623047"/>
       <use xlink:href="#DejaVuSans-30" x="95.410156"/>
       <use xlink:href="#DejaVuSans-30" x="159.033203"/>
      </g>
     </g>
    </g>
    <g id="ytick_2">
     <g id="line2d_13">
      <path d="M 54.02 196.228517 
L 709.2 196.228517 
" clip-path="url(#pff0f25e647)" style="fill: none; stroke: #b0b0b0; stroke-width: 0.8; stroke-linecap: square"/>
     </g>
     <g id="line2d_14">
      <g>
       <use xlink:href="#md860e102f3" x="54.02" y="196.228517" style="stroke: #000000; stroke-width: 0.8"/>
      </g>
     </g>
     <g id="text_8">
      <!-- 0.02 -->
      <g transform="translate(24.754375 200.027736) scale(0.1 -0.1)">
       <use xlink:href="#DejaVuSans-30"/>
       <use xlink:href="#DejaVuSans-2e" x="63.623047"/>
       <use xlink:href="#DejaVuSans-30" x="95.410156"/>
       <use xlink:href="#DejaVuSans-32" x="159.033203"/>
      </g>
     </g>
    </g>
    <g id="ytick_3">
     <g id="line2d_15">
      <path d="M 54.02 156.358917 
L 709.2 156.358917 
" clip-path="url(#pff0f25e647)" style="fill: none; stroke: #b0b0b0; stroke-width: 0.8; stroke-linecap: square"/>
     </g>
     <g id="line2d_16">
      <g>
       <use xlink:href="#md860e102f3" x="54.02" y="156.358917" style="stroke: #000000; stroke-width: 0.8"/>
      </g>
     </g>
     <g id="text_9">
      <!-- 0.04 -->
      <g transform="translate(24.754375 160.158136) scale(0.1 -0.1)">
       <use xlink:href="#DejaVuSans-30"/>
       <use xlink:href="#DejaVuSans-2e" x="63.623047"/>
       <use xlink:href="#DejaVuSans-30" x="95.410156"/>
       <use xlink:href="#DejaVuSans-34" x="159.033203"/>
      </g>
     </g>
    </g>
    <g id="ytick_4">
     <g id="line2d_17">
      <path d="M 54.02 116.489318 
L 709.2 116.489318 
" clip-path="url(#pff0f25e647)" style="fill: none; stroke: #b0b0b0; stroke-width: 0.8; stroke-linecap: square"/>
     </g>
     <g id="line2d_18">
      <g>
       <use xlink:href="#md860e102f3" x="54.02" y="116.489318" style="stroke: #000000; stroke-width: 0.8"/>
      </g>
     </g>
     <g id="text_10">
      <!-- 0.06 -->
      <g transform="translate(24.754375 120.288536) scale(0.1 -0.1)">
       <defs>
        <path id="DejaVuSans-36" d="M 2113 2584 
Q 1688 2584 1439 2293 
Q 1191 2003 1191 1497 
Q 1191 994 1439 701 
Q 1688 409 2113 409 
Q 2538 409 2786 701 
Q 3034 994 3034 1497 
Q 3034 2003 2786 2293 
Q 2538 2584 2113 2584 
z
M 3366 4563 
L 3366 3988 
Q 3128 4100 2886 4159 
Q 2644 4219 2406 4219 
Q 1781 4219 1451 3797 
Q 1122 3375 1075 2522 
Q 1259 2794 1537 2939 
Q 1816 3084 2150 3084 
Q 2853 3084 3261 2657 
Q 3669 2231 3669 1497 
Q 3669 778 3244 343 
Q 2819 -91 2113 -91 
Q 1303 -91 875 529 
Q 447 1150 447 2328 
Q 447 3434 972 4092 
Q 1497 4750 2381 4750 
Q 2619 4750 2861 4703 
Q 3103 4656 3366 4563 
z
" transform="scale(0.015625)"/>
       </defs>
       <use xlink:href="#DejaVuSans-30"/>
       <use xlink:href="#DejaVuSans-2e" x="63.623047"/>
       <use xlink:href="#DejaVuSans-30" x="95.410156"/>
       <use xlink:href="#DejaVuSans-36" x="159.033203"/>
      </g>
     </g>
    </g>
    <g id="ytick_5">
     <g id="line2d_19">
      <path d="M 54.02 76.619718 
L 709.2 76.619718 
" clip-path="url(#pff0f25e647)" style="fill: none; stroke: #b0b0b0; stroke-width: 0.8; stroke-linecap: square"/>
     </g>
     <g id="line2d_20">
      <g>
       <use xlink:href="#md860e102f3" x="54.02" y="76.619718" style="stroke: #000000; stroke-width: 0.8"/>
      </g>
     </g>
     <g id="text_11">
      <!-- 0.08 -->
      <g transform="translate(24.754375 80.418937) scale(0.1 -0.1)">
       <defs>
        <path id="DejaVuSans-38" d="M 2034 2216 
Q 1584 2216 1326 1975 
Q 1069 1734 1069 1313 
Q 1069 891 1326 650 
Q 1584 409 2034 409 
Q 2484 409 2743 651 
Q 3003 894 3003 1313 
Q 3003 1734 2745 1975 
Q 2488 2216 2034 2216 
z
M 1403 2484 
Q 997 2584 770 2862 
Q 544 3141 544 3541 
Q 544 4100 942 4425 
Q 1341 4750 2034 4750 
Q 2731 4750 3128 4425 
Q 3525 4100 3525 3541 
Q 3525 3141 3298 2862 
Q 3072 2584 2669 2484 
Q 3125 2378 3379 2068 
Q 3634 1759 3634 1313 
Q 3634 634 3220 271 
Q 2806 -91 2034 -91 
Q 1263 -91 848 271 
Q 434 634 434 1313 
Q 434 1759 690 2068 
Q 947 2378 1403 2484 
z
M 1172 3481 
Q 1172 3119 1398 2916 
Q 1625 2713 2034 2713 
Q 2441 2713 2670 2916 
Q 2900 3119 2900 3481 
Q 2900 3844 2670 4047 
Q 2441 4250 2034 4250 
Q 1625 4250 1398 4047 
Q 1172 3844 1172 3481 
z
" transform="scale(0.015625)"/>
       </defs>
       <use xlink:href="#DejaVuSans-30"/>
       <use xlink:href="#DejaVuSans-2e" x="63.623047"/>
       <use xlink:href="#DejaVuSans-30" x="95.410156"/>
       <use xlink:href="#DejaVuSans-38" x="159.033203"/>
      </g>
     </g>
    </g>
    <g id="ytick_6">
     <g id="line2d_21">
      <path d="M 54.02 36.750118 
L 709.2 36.750118 
" clip-path="url(#pff0f25e647)" style="fill: none; stroke: #b0b0b0; stroke-width: 0.8; stroke-linecap: square"/>
     </g>
     <g id="line2d_22">
      <g>
       <use xlink:href="#md860e102f3" x="54.02" y="36.750118" style="stroke: #000000; stroke-width: 0.8"/>
      </g>
     </g>
     <g id="text_12">
      <!-- 0.10 -->
      <g transform="translate(24.754375 40.549337) scale(0.1 -0.1)">
       <use xlink:href="#DejaVuSans-30"/>
       <use xlink:href="#DejaVuSans-2e" x="63.623047"/>
       <use xlink:href="#DejaVuSans-31" x="95.410156"/>
       <use xlink:href="#DejaVuSans-30" x="159.033203"/>
      </g>
     </g>
    </g>
    <g id="text_13">
     <!-- Delta Value -->
     <g transform="translate(18.674688 165.120156) rotate(-90) scale(0.1 -0.1)">
      <defs>
       <path id="DejaVuSans-44" d="M 1259 4147 
L 1259 519 
L 2022 519 
Q 2988 519 3436 956 
Q 3884 1394 3884 2338 
Q 3884 3275 3436 3711 
Q 2988 4147 2022 4147 
L 1259 4147 
z
M 628 4666 
L 1925 4666 
Q 3281 4666 3915 4102 
Q 4550 3538 4550 2338 
Q 4550 1131 3912 565 
Q 3275 0 1925 0 
L 628 0 
L 628 4666 
z
" transform="scale(0.015625)"/>
       <path id="DejaVuSans-6c" d="M 603 4863 
L 1178 4863 
L 1178 0 
L 603 0 
L 603 4863 
z
" transform="scale(0.015625)"/>
       <path id="DejaVuSans-74" d="M 1172 4494 
L 1172 3500 
L 2356 3500 
L 2356 3053 
L 1172 3053 
L 1172 1153 
Q 1172 725 1289 603 
Q 1406 481 1766 481 
L 2356 481 
L 2356 0 
L 1766 0 
Q 1100 0 847 248 
Q 594 497 594 1153 
L 594 3053 
L 172 3053 
L 172 3500 
L 594 3500 
L 594 4494 
L 1172 4494 
z
" transform="scale(0.015625)"/>
       <path id="DejaVuSans-61" d="M 2194 1759 
Q 1497 1759 1228 1600 
Q 959 1441 959 1056 
Q 959 750 1161 570 
Q 1363 391 1709 391 
Q 2188 391 2477 730 
Q 2766 1069 2766 1631 
L 2766 1759 
L 2194 1759 
z
M 3341 1997 
L 3341 0 
L 2766 0 
L 2766 531 
Q 2569 213 2275 61 
Q 1981 -91 1556 -91 
Q 1019 -91 701 211 
Q 384 513 384 1019 
Q 384 1609 779 1909 
Q 1175 2209 1959 2209 
L 2766 2209 
L 2766 2266 
Q 2766 2663 2505 2880 
Q 2244 3097 1772 3097 
Q 1472 3097 1187 3025 
Q 903 2953 641 2809 
L 641 3341 
Q 956 3463 1253 3523 
Q 1550 3584 1831 3584 
Q 2591 3584 2966 3190 
Q 3341 2797 3341 1997 
z
" transform="scale(0.015625)"/>
       <path id="DejaVuSans-56" d="M 1831 0 
L 50 4666 
L 709 4666 
L 2188 738 
L 3669 4666 
L 4325 4666 
L 2547 0 
L 1831 0 
z
" transform="scale(0.015625)"/>
       <path id="DejaVuSans-75" d="M 544 1381 
L 544 3500 
L 1119 3500 
L 1119 1403 
Q 1119 906 1312 657 
Q 1506 409 1894 409 
Q 2359 409 2629 706 
Q 2900 1003 2900 1516 
L 2900 3500 
L 3475 3500 
L 3475 0 
L 2900 0 
L 2900 538 
Q 2691 219 2414 64 
Q 2138 -91 1772 -91 
Q 1169 -91 856 284 
Q 544 659 544 1381 
z
M 1991 3584 
L 1991 3584 
z
" transform="scale(0.015625)"/>
      </defs>
      <use xlink:href="#DejaVuSans-44"/>
      <use xlink:href="#DejaVuSans-65" x="77.001953"/>
      <use xlink:href="#DejaVuSans-6c" x="138.525391"/>
      <use xlink:href="#DejaVuSans-74" x="166.308594"/>
      <use xlink:href="#DejaVuSans-61" x="205.517578"/>
      <use xlink:href="#DejaVuSans-20" x="266.796875"/>
      <use xlink:href="#DejaVuSans-56" x="298.583984"/>
      <use xlink:href="#DejaVuSans-61" x="359.242188"/>
      <use xlink:href="#DejaVuSans-6c" x="420.521484"/>
      <use xlink:href="#DejaVuSans-75" x="448.304688"/>
      <use xlink:href="#DejaVuSans-65" x="511.683594"/>
     </g>
    </g>
   </g>
   <g id="line2d_23">
    <path d="M 83.800909 58.324954 
L 83.887582 236.006417 
L 84.364285 36.841818 
L 84.450958 236.006417 
L 85.245462 36.841818 
L 85.332135 236.006417 
L 85.779947 36.841818 
L 85.86662 236.006417 
L 86.646679 36.841818 
L 86.733352 236.006417 
L 87.108936 36.841818 
L 87.195609 236.006417 
L 87.643421 36.841818 
L 87.730094 236.006417 
L 88.365697 152.266031 
L 88.437925 236.022364 
L 88.553489 235.400399 
L 88.640162 236.006417 
L 88.856845 236.030338 
L 89.015746 121.627877 
L 89.102419 236.006417 
L 89.550231 36.841818 
L 89.636904 236.006417 
L 90.243616 36.841818 
L 90.33029 236.006417 
L 90.763656 36.841818 
L 90.850329 236.006417 
L 91.471487 36.841818 
L 91.55816 236.006417 
L 92.179318 36.841818 
L 92.265991 236.006417 
L 92.901594 36.841818 
L 92.988268 236.006417 
L 93.580534 36.841818 
L 93.667208 236.006417 
L 94.115019 152.266057 
L 94.288365 236.078182 
L 94.577276 236.01439 
L 94.808405 236.030338 
L 94.923969 234.802355 
L 95.097315 236.078182 
L 95.198434 236.030338 
L 95.299553 235.559877 
L 95.386226 236.01439 
L 95.675137 236.030338 
L 95.790701 235.28079 
L 95.964047 236.078182 
L 96.065166 236.030338 
L 96.166285 235.081442 
L 96.252958 236.01439 
L 96.484086 236.030338 
L 96.772997 125.592916 
L 96.85967 236.006417 
L 97.293036 36.841818 
L 97.379709 236.006417 
L 97.986422 36.841818 
L 98.073095 236.006417 
L 98.506461 36.841818 
L 98.593134 236.006417 
L 99.199846 36.841818 
L 99.28652 236.006417 
L 99.676549 36.841818 
L 99.763222 236.006417 
L 100.196588 36.841818 
L 100.283261 236.006417 
L 100.889974 36.841818 
L 100.976647 236.006417 
L 101.410013 36.841818 
L 101.496686 236.006417 
L 102.103398 36.841818 
L 102.190072 236.006417 
L 102.580101 36.841818 
L 102.666774 236.006417 
L 103.129031 36.841818 
L 103.215704 236.006417 
L 103.822417 36.841818 
L 103.90909 236.006417 
L 104.342456 36.841818 
L 104.429129 236.006417 
L 105.035841 36.841818 
L 105.122515 236.006417 
L 105.512544 36.841818 
L 105.599217 236.006417 
L 106.032583 36.841818 
L 106.119256 236.006417 
L 106.725969 36.841818 
L 106.812642 236.006417 
L 107.246008 36.841818 
L 107.332681 236.006417 
L 107.939393 36.841818 
L 108.026067 236.006417 
L 108.416096 36.841818 
L 108.502769 236.006417 
L 108.936135 36.841818 
L 109.022808 236.006417 
L 109.629521 36.841818 
L 109.716194 236.006417 
L 110.178451 36.841818 
L 110.265124 236.006417 
L 110.871836 36.841818 
L 110.95851 236.006417 
L 111.348539 36.841818 
L 111.435212 236.006417 
L 111.868578 36.841818 
L 111.955251 236.006417 
L 112.561964 36.841818 
L 112.648637 236.006417 
L 113.082003 36.841818 
L 113.168676 236.006417 
L 113.775388 36.841818 
L 113.862062 236.006417 
L 114.252091 36.841818 
L 114.338764 236.006417 
L 114.77213 36.841818 
L 114.858803 236.006417 
L 115.465516 36.841818 
L 115.552189 236.006417 
L 115.985555 36.841818 
L 116.072228 236.006417 
L 116.67894 36.841818 
L 116.765613 236.006417 
L 117.155643 36.841818 
L 117.242316 236.006417 
L 117.704573 36.841818 
L 117.791246 236.006417 
L 118.397959 36.841818 
L 118.484632 236.006417 
L 118.917998 36.841818 
L 119.004671 236.006417 
L 119.611383 36.841818 
L 119.698056 236.006417 
L 120.088086 36.841818 
L 120.174759 236.006417 
L 120.608125 36.841818 
L 120.694798 236.006417 
L 121.301511 36.841818 
L 121.388184 236.006417 
L 121.82155 36.841818 
L 121.908223 236.006417 
L 122.514935 36.841818 
L 122.601608 236.006417 
L 122.991638 36.841818 
L 123.078311 236.006417 
L 123.511677 36.841818 
L 123.59835 236.006417 
L 124.205063 36.841818 
L 124.291736 236.006417 
L 124.753993 36.841818 
L 124.840666 236.006417 
L 125.447378 36.841818 
L 125.534051 236.006417 
L 125.924081 36.841818 
L 126.010754 236.006417 
L 126.44412 36.841818 
L 126.530793 236.006417 
L 127.137506 36.841818 
L 127.224179 236.006417 
L 127.657545 36.841818 
L 127.744218 236.006417 
L 128.35093 36.841818 
L 128.437603 236.006417 
L 128.827633 36.841818 
L 128.914306 236.006417 
L 129.347672 36.841818 
L 129.434345 236.006417 
L 130.041058 36.841818 
L 130.127731 236.006417 
L 130.561097 36.841818 
L 130.64777 236.006417 
L 131.254482 36.841818 
L 131.341155 236.006417 
L 131.731185 36.841818 
L 131.817858 236.006417 
L 132.280115 36.841818 
L 132.366788 236.006417 
L 132.973501 36.841818 
L 133.060174 236.006417 
L 133.49354 36.841818 
L 133.580213 236.006417 
L 134.186925 36.841818 
L 134.273598 236.006417 
L 134.663628 36.841818 
L 134.750301 236.006417 
L 135.183667 36.841818 
L 135.27034 236.006417 
L 135.877053 36.841818 
L 135.963726 236.006417 
L 136.397092 36.841818 
L 136.483765 236.006417 
L 137.090477 36.841818 
L 137.17715 236.006417 
L 137.56718 36.841818 
L 137.653853 236.006417 
L 138.087219 36.841818 
L 138.173892 236.006417 
L 138.780604 36.841818 
L 138.867278 236.006417 
L 139.329535 36.841818 
L 139.416208 236.006417 
L 140.02292 36.841818 
L 140.109593 236.006417 
L 140.499623 36.841818 
L 140.586296 236.006417 
L 141.019662 36.841818 
L 141.106335 236.006417 
L 141.713048 36.841818 
L 141.799721 236.006417 
L 142.233087 36.841818 
L 142.31976 236.006417 
L 142.926472 36.841818 
L 143.013145 236.006417 
L 143.403175 36.841818 
L 143.489848 236.006417 
L 143.923214 36.841818 
L 144.009887 236.006417 
L 144.616599 36.841818 
L 144.703273 236.006417 
L 145.136639 36.841818 
L 145.223312 236.006417 
L 145.830024 36.841818 
L 145.916697 236.006417 
L 146.306727 36.841818 
L 146.3934 236.006417 
L 146.855657 36.841818 
L 146.94233 236.006417 
L 147.549042 36.841818 
L 147.635716 236.006417 
L 148.069082 36.841818 
L 148.155755 236.006417 
L 148.762467 36.841818 
L 148.84914 236.006417 
L 149.23917 36.841818 
L 149.325843 236.006417 
L 149.759209 36.841818 
L 149.845882 236.006417 
L 150.452594 36.841818 
L 150.539268 236.006417 
L 150.972634 36.841818 
L 151.059307 236.006417 
L 151.666019 36.841818 
L 151.752692 236.006417 
L 152.142722 36.841818 
L 152.229395 236.006417 
L 152.662761 36.841818 
L 152.749434 236.006417 
L 153.356146 36.841818 
L 153.44282 236.006417 
L 153.905077 36.841818 
L 153.99175 236.006417 
L 154.598462 36.841818 
L 154.685135 236.006417 
L 155.075165 36.841818 
L 155.161838 236.006417 
L 155.595204 36.841818 
L 155.681877 236.006417 
L 156.288589 36.841818 
L 156.375263 236.006417 
L 156.808629 36.841818 
L 156.895302 236.006417 
L 157.502014 36.841818 
L 157.588687 236.006417 
L 157.978717 36.841818 
L 158.06539 236.006417 
L 158.498756 36.841818 
L 158.585429 236.006417 
L 159.192141 36.841818 
L 159.278815 236.006417 
L 159.712181 36.841818 
L 159.798854 236.006417 
L 160.405566 36.841818 
L 160.492239 236.006417 
L 160.882269 36.841818 
L 160.968942 236.006417 
L 161.431199 36.841818 
L 161.517872 236.006417 
L 162.124584 36.841818 
L 162.211258 236.006417 
L 162.644624 36.841818 
L 162.731297 236.006417 
L 163.338009 36.841818 
L 163.424682 236.006417 
L 163.814712 36.841818 
L 163.901385 236.006417 
L 164.334751 36.841818 
L 164.421424 236.006417 
L 165.028136 36.841818 
L 165.11481 236.006417 
L 165.548176 36.841818 
L 165.634849 236.006417 
L 166.241561 36.841818 
L 166.328234 236.006417 
L 166.718264 36.841818 
L 166.804937 236.006417 
L 167.238303 36.841818 
L 167.324976 236.006417 
L 167.931688 36.841818 
L 168.018362 236.006417 
L 168.480619 36.841818 
L 168.567292 236.006417 
L 169.174004 36.841818 
L 169.260677 236.006417 
L 169.650707 36.841818 
L 169.73738 236.006417 
L 170.170746 36.841818 
L 170.257419 236.006417 
L 170.864131 36.841818 
L 170.950805 236.006417 
L 171.384171 36.841818 
L 171.470844 236.006417 
L 172.077556 36.841818 
L 172.164229 236.006417 
L 172.554259 36.841818 
L 172.640932 236.006417 
L 173.074298 36.841818 
L 173.160971 236.006417 
L 173.767683 36.841818 
L 173.854357 236.006417 
L 174.287723 36.841818 
L 174.374396 236.006417 
L 174.981108 36.841818 
L 175.067781 236.006417 
L 175.457811 36.841818 
L 175.544484 236.006417 
L 176.006741 36.841818 
L 176.093414 236.006417 
L 176.700126 36.841818 
L 176.7868 236.006417 
L 177.220166 36.841818 
L 177.306839 236.006417 
L 177.913551 36.841818 
L 178.000224 236.006417 
L 178.390254 36.841818 
L 178.476927 236.006417 
L 178.910293 36.841818 
L 178.996966 236.006417 
L 179.603678 36.841818 
L 179.690352 236.006417 
L 180.123718 36.841818 
L 180.210391 236.006417 
L 180.817103 36.841818 
L 180.903776 236.006417 
L 181.293806 36.841818 
L 181.380479 236.006417 
L 181.813845 36.841818 
L 181.900518 236.006417 
L 182.50723 36.841818 
L 182.593903 236.006417 
L 183.056161 36.841818 
L 183.142834 236.006417 
L 183.749546 36.841818 
L 183.836219 236.006417 
L 184.226249 36.841818 
L 184.312922 236.006417 
L 184.746288 36.841818 
L 184.832961 236.006417 
L 185.439673 36.841818 
L 185.526347 236.006417 
L 185.959712 36.841818 
L 186.046386 236.006417 
L 186.653098 36.841818 
L 186.739771 236.006417 
L 187.129801 36.841818 
L 187.216474 236.006417 
L 187.64984 36.841818 
L 187.736513 236.006417 
L 188.343225 36.841818 
L 188.429898 236.006417 
L 188.863264 36.841818 
L 188.949938 236.006417 
L 189.55665 36.841818 
L 189.643323 236.006417 
L 190.033353 36.841818 
L 190.120026 236.006417 
L 190.582283 36.841818 
L 190.668956 236.006417 
L 191.275668 36.841818 
L 191.362342 236.006417 
L 191.795707 36.841818 
L 191.882381 236.006417 
L 192.489093 36.841818 
L 192.575766 236.006417 
L 192.965796 36.841818 
L 193.052469 236.006417 
L 193.485835 36.841818 
L 193.572508 236.006417 
L 194.17922 36.841818 
L 194.265893 236.006417 
L 194.699259 36.841818 
L 194.785933 236.006417 
L 195.392645 36.841818 
L 195.479318 236.006417 
L 195.869348 36.841818 
L 195.956021 236.006417 
L 196.389387 36.841818 
L 196.47606 236.006417 
L 197.082772 36.841818 
L 197.169445 236.006417 
L 197.631702 36.841818 
L 197.718376 236.006417 
L 198.325088 36.841818 
L 198.411761 236.006417 
L 198.801791 36.841818 
L 198.888464 236.006417 
L 199.32183 36.841818 
L 199.408503 236.006417 
L 200.015215 36.841818 
L 200.101888 236.006417 
L 200.535254 36.841818 
L 200.621928 236.006417 
L 201.22864 36.841818 
L 201.315313 236.006417 
L 201.705343 36.841818 
L 201.792016 236.006417 
L 202.225382 36.841818 
L 202.312055 236.006417 
L 202.918767 36.841818 
L 203.00544 236.006417 
L 203.438806 36.841818 
L 203.52548 236.006417 
L 204.132192 36.841818 
L 204.218865 236.006417 
L 204.608895 36.841818 
L 204.695568 236.006417 
L 205.157825 36.841818 
L 205.244498 236.006417 
L 205.85121 36.841818 
L 205.937883 236.006417 
L 206.371249 36.841818 
L 206.457923 236.006417 
L 207.064635 36.841818 
L 207.151308 236.006417 
L 207.541338 36.841818 
L 207.628011 236.006417 
L 208.061377 36.841818 
L 208.14805 236.006417 
L 208.754762 36.841818 
L 208.841435 236.006417 
L 209.274801 36.841818 
L 209.361475 236.006417 
L 209.968187 36.841818 
L 210.05486 236.006417 
L 210.444889 36.841818 
L 210.531563 236.006417 
L 210.964929 36.841818 
L 211.051602 236.006417 
L 211.658314 36.841818 
L 211.744987 236.006417 
L 212.207244 36.841818 
L 212.293918 236.006417 
L 212.90063 36.841818 
L 212.987303 236.006417 
L 213.377333 36.841818 
L 213.464006 236.006417 
L 213.897372 36.841818 
L 213.984045 236.006417 
L 214.590757 36.841818 
L 214.67743 236.006417 
L 215.110796 36.841818 
L 215.19747 236.006417 
L 215.804182 36.841818 
L 215.890855 236.006417 
L 216.280884 36.841818 
L 216.367558 236.006417 
L 216.800924 36.841818 
L 216.887597 236.006417 
L 217.494309 36.841818 
L 217.580982 236.006417 
L 218.014348 36.841818 
L 218.101022 236.006417 
L 218.707734 36.841818 
L 218.794407 236.006417 
L 219.184436 36.841818 
L 219.27111 236.006417 
L 219.733367 36.841818 
L 219.82004 236.006417 
L 220.426752 36.841818 
L 220.513425 236.006417 
L 220.946791 36.841818 
L 221.033465 236.006417 
L 221.640177 36.841818 
L 221.72685 236.006417 
L 222.116879 36.841818 
L 222.203553 236.006417 
L 222.636919 36.841818 
L 222.723592 236.006417 
L 223.330304 36.841818 
L 223.416977 236.006417 
L 223.850343 36.841818 
L 223.937017 236.006417 
L 224.543729 36.841818 
L 224.630402 236.006417 
L 225.020431 36.841818 
L 225.107105 236.006417 
L 225.540471 36.841818 
L 225.627144 236.006417 
L 226.233856 36.841818 
L 226.320529 236.006417 
L 226.782786 36.841818 
L 226.86946 236.006417 
L 227.476172 36.841818 
L 227.562845 236.006417 
L 227.952874 36.841818 
L 228.039548 236.006417 
L 228.472914 36.841818 
L 228.559587 236.006417 
L 229.166299 36.841818 
L 229.252972 236.006417 
L 229.686338 36.841818 
L 229.773012 236.006417 
L 230.379724 36.841818 
L 230.466397 236.006417 
L 230.856426 36.841818 
L 230.9431 236.006417 
L 231.376466 36.841818 
L 231.463139 236.006417 
L 232.069851 36.841818 
L 232.156524 236.006417 
L 232.58989 36.841818 
L 232.676563 236.006417 
L 233.283276 36.841818 
L 233.369949 236.006417 
L 233.759978 36.841818 
L 233.846652 236.006417 
L 234.308909 36.841818 
L 234.395582 236.006417 
L 235.002294 36.841818 
L 235.088967 236.006417 
L 235.522333 36.841818 
L 235.609007 236.006417 
L 236.215719 36.841818 
L 236.302392 236.006417 
L 236.692421 36.841818 
L 236.779095 236.006417 
L 237.212461 36.841818 
L 237.299134 236.006417 
L 237.905846 36.841818 
L 237.992519 236.006417 
L 238.425885 36.841818 
L 238.512558 236.006417 
L 239.119271 36.841818 
L 239.205944 236.006417 
L 239.595973 36.841818 
L 239.682647 236.006417 
L 240.116013 36.841818 
L 240.202686 236.006417 
L 240.809398 36.841818 
L 240.896071 236.006417 
L 241.358328 36.841818 
L 241.445001 236.006417 
L 242.051714 36.841818 
L 242.138387 236.006417 
L 242.528416 36.841818 
L 242.61509 236.006417 
L 243.048456 36.841818 
L 243.135129 236.006417 
L 243.741841 36.841818 
L 243.828514 236.006417 
L 244.26188 36.841818 
L 244.348553 236.006417 
L 244.955266 36.841818 
L 245.041939 236.006417 
L 245.431968 36.841818 
L 245.518642 236.006417 
L 245.952008 36.841818 
L 246.038681 236.006417 
L 246.645393 36.841818 
L 246.732066 236.006417 
L 247.165432 36.841818 
L 247.252105 236.006417 
L 247.858818 36.841818 
L 247.945491 236.006417 
L 248.33552 36.841818 
L 248.422194 236.006417 
L 248.884451 36.841818 
L 248.971124 236.006417 
L 249.577836 36.841818 
L 249.664509 236.006417 
L 250.097875 36.841818 
L 250.184548 236.006417 
L 250.791261 36.841818 
L 250.877934 236.006417 
L 251.267963 36.841818 
L 251.354637 236.006417 
L 251.788003 36.841818 
L 251.874676 236.006417 
L 252.481388 36.841818 
L 252.568061 236.006417 
L 253.001427 36.841818 
L 253.0881 236.006417 
L 253.694813 36.841818 
L 253.781486 236.006417 
L 254.171515 36.841818 
L 254.258189 236.006417 
L 254.691554 36.841818 
L 254.778228 236.006417 
L 255.38494 36.841818 
L 255.471613 236.006417 
L 255.904979 36.841818 
L 255.991652 236.006417 
L 256.569474 36.841818 
L 256.656147 236.006417 
L 257.075067 36.841818 
L 257.16174 236.006417 
L 257.782898 36.841818 
L 257.869572 236.006417 
L 258.447393 36.841818 
L 258.534066 236.006417 
L 258.981878 36.841818 
L 259.068551 236.006417 
L 259.863055 36.841818 
L 259.949728 236.006417 
L 260.354203 36.841818 
L 260.440876 236.006417 
L 261.062034 36.841818 
L 261.148707 236.006417 
L 261.726529 36.841818 
L 261.813202 236.006417 
L 262.289904 36.841818 
L 262.376578 236.006417 
L 263.66223 36.841818 
L 263.748903 236.006417 
L 264.153378 36.841818 
L 264.240051 236.006417 
L 264.702308 36.841818 
L 264.788981 236.006417 
L 265.410139 36.841818 
L 265.496813 236.006417 
L 266.11797 36.841818 
L 266.204644 236.006417 
L 269.527116 36.841818 
L 269.613789 236.006417 
L 270.003819 36.841818 
L 270.090492 236.006417 
L 270.523858 36.841818 
L 270.610531 236.006417 
L 271.217243 36.841818 
L 271.303916 236.006417 
L 271.737282 36.841818 
L 271.823956 236.006417 
L 272.430668 36.841818 
L 272.517341 236.006417 
L 272.907371 36.841818 
L 272.994044 236.006417 
L 273.42741 36.841818 
L 273.514083 236.006417 
L 274.120795 36.841818 
L 274.207468 236.006417 
L 274.669725 36.841818 
L 274.756399 236.006417 
L 275.363111 36.841818 
L 275.449784 236.006417 
L 275.839814 36.841818 
L 275.926487 236.006417 
L 276.359853 36.841818 
L 276.446526 236.006417 
L 277.053238 36.841818 
L 277.139911 236.006417 
L 277.573277 36.841818 
L 277.659951 236.006417 
L 278.266663 36.841818 
L 278.353336 236.006417 
L 278.743366 36.841818 
L 278.830039 236.006417 
L 279.263405 36.841818 
L 279.350078 236.006417 
L 279.95679 36.841818 
L 280.043463 236.006417 
L 280.476829 36.841818 
L 280.563503 236.006417 
L 281.170215 36.841818 
L 281.256888 236.006417 
L 281.646917 36.841818 
L 281.733591 236.006417 
L 282.195848 36.841818 
L 282.282521 236.006417 
L 282.889233 36.841818 
L 282.975906 236.006417 
L 283.409272 36.841818 
L 283.495946 236.006417 
L 284.102658 36.841818 
L 284.189331 236.006417 
L 284.579361 36.841818 
L 284.666034 236.006417 
L 285.0994 36.841818 
L 285.186073 236.006417 
L 285.792785 36.841818 
L 285.879458 236.006417 
L 286.312824 36.841818 
L 286.399498 236.006417 
L 287.00621 36.841818 
L 287.092883 236.006417 
L 287.482912 36.841818 
L 287.569586 236.006417 
L 288.002952 36.841818 
L 288.089625 236.006417 
L 288.696337 36.841818 
L 288.78301 236.006417 
L 289.245267 36.841818 
L 289.331941 236.006417 
L 289.938653 36.841818 
L 290.025326 236.006417 
L 290.415356 36.841818 
L 290.502029 236.006417 
L 290.935395 36.841818 
L 291.022068 236.006417 
L 291.62878 36.841818 
L 291.715453 236.006417 
L 292.148819 36.841818 
L 292.235493 236.006417 
L 292.842205 36.841818 
L 292.928878 236.006417 
L 293.318907 36.841818 
L 293.405581 236.006417 
L 293.838947 36.841818 
L 293.92562 236.006417 
L 294.532332 36.841818 
L 294.619005 236.006417 
L 295.052371 36.841818 
L 295.139045 236.006417 
L 295.745757 36.841818 
L 295.83243 236.006417 
L 296.222459 36.841818 
L 296.309133 236.006417 
L 296.77139 36.841818 
L 296.858063 236.006417 
L 297.464775 36.841818 
L 297.551448 236.006417 
L 297.984814 36.841818 
L 298.071488 236.006417 
L 298.6782 36.841818 
L 298.764873 236.006417 
L 299.154902 36.841818 
L 299.241576 236.006417 
L 299.674942 36.841818 
L 299.761615 236.006417 
L 300.368327 36.841818 
L 300.455 236.006417 
L 300.888366 36.841818 
L 300.97504 236.006417 
L 301.581752 36.841818 
L 301.668425 236.006417 
L 302.058454 36.841818 
L 302.145128 236.006417 
L 302.578494 36.841818 
L 302.665167 236.006417 
L 303.271879 36.841818 
L 303.358552 236.006417 
L 303.820809 36.841818 
L 303.907483 236.006417 
L 304.514195 36.841818 
L 304.600868 236.006417 
L 304.990897 36.841818 
L 305.077571 236.006417 
L 305.510937 36.841818 
L 305.59761 236.006417 
L 306.204322 36.841818 
L 306.290995 236.006417 
L 306.724361 36.841818 
L 306.811035 236.006417 
L 307.417747 36.841818 
L 307.50442 236.006417 
L 307.894449 36.841818 
L 307.981123 236.006417 
L 308.414489 36.841818 
L 308.501162 236.006417 
L 309.107874 36.841818 
L 309.194547 236.006417 
L 309.627913 36.841818 
L 309.714586 236.006417 
L 310.321299 36.841818 
L 310.407972 236.006417 
L 310.798001 36.841818 
L 310.884675 236.006417 
L 311.346932 36.841818 
L 311.433605 236.006417 
L 312.040317 36.841818 
L 312.12699 236.006417 
L 312.560356 36.841818 
L 312.647029 236.006417 
L 313.253742 36.841818 
L 313.340415 236.006417 
L 313.730444 36.841818 
L 313.817118 236.006417 
L 314.250484 36.841818 
L 314.337157 236.006417 
L 314.943869 36.841818 
L 315.030542 236.006417 
L 315.463908 36.841818 
L 315.550581 236.006417 
L 316.157294 36.841818 
L 316.243967 236.006417 
L 316.633996 36.841818 
L 316.72067 236.006417 
L 317.154036 36.841818 
L 317.240709 236.006417 
L 317.847421 36.841818 
L 317.934094 236.006417 
L 318.396351 36.841818 
L 318.483024 236.006417 
L 319.089737 36.841818 
L 319.17641 236.006417 
L 319.566439 36.841818 
L 319.653113 236.006417 
L 320.086479 36.841818 
L 320.173152 236.006417 
L 320.779864 36.841818 
L 320.866537 236.006417 
L 321.299903 36.841818 
L 321.386576 236.006417 
L 321.993289 36.841818 
L 322.079962 236.006417 
L 322.469991 36.841818 
L 322.556665 236.006417 
L 322.990031 36.841818 
L 323.076704 236.006417 
L 323.683416 36.841818 
L 323.770089 236.006417 
L 324.203455 36.841818 
L 324.290128 236.006417 
L 324.896841 36.841818 
L 324.983514 236.006417 
L 325.373543 36.841818 
L 325.460217 236.006417 
L 325.922474 36.841818 
L 326.009147 236.006417 
L 326.615859 36.841818 
L 326.702532 236.006417 
L 327.135898 36.841818 
L 327.222571 236.006417 
L 327.829284 36.841818 
L 327.915957 236.006417 
L 328.305986 36.841818 
L 328.39266 236.006417 
L 328.826026 36.841818 
L 328.912699 236.006417 
L 329.519411 36.841818 
L 329.606084 236.006417 
L 330.03945 36.841818 
L 330.126123 236.006417 
L 330.732836 36.841818 
L 330.819509 236.006417 
L 331.209538 36.841818 
L 331.296212 236.006417 
L 331.729577 36.841818 
L 331.816251 236.006417 
L 332.422963 36.841818 
L 332.509636 236.006417 
L 332.971893 36.841818 
L 333.058566 236.006417 
L 333.665279 36.841818 
L 333.751952 236.006417 
L 334.141981 36.841818 
L 334.228655 236.006417 
L 334.66202 36.841818 
L 334.748694 236.006417 
L 335.355406 36.841818 
L 335.442079 236.006417 
L 335.875445 36.841818 
L 335.962118 236.006417 
L 336.568831 36.841818 
L 336.655504 236.006417 
L 337.045533 36.841818 
L 337.132206 236.006417 
L 337.565572 36.841818 
L 337.652246 236.006417 
L 338.258958 36.841818 
L 338.345631 236.006417 
L 338.778997 36.841818 
L 338.86567 236.006417 
L 339.472383 36.841818 
L 339.559056 236.006417 
L 339.949085 36.841818 
L 340.035758 236.006417 
L 340.498015 36.841818 
L 340.584689 236.006417 
L 341.191401 36.841818 
L 341.278074 236.006417 
L 341.71144 36.841818 
L 341.798113 236.006417 
L 342.404826 36.841818 
L 342.491499 236.006417 
L 342.881528 36.841818 
L 342.968201 236.006417 
L 343.401567 36.841818 
L 343.488241 236.006417 
L 344.094953 36.841818 
L 344.181626 236.006417 
L 344.614992 36.841818 
L 344.701665 236.006417 
L 345.308378 36.841818 
L 345.395051 236.006417 
L 345.78508 36.841818 
L 345.871753 236.006417 
L 346.305119 36.841818 
L 346.391793 236.006417 
L 346.998505 36.841818 
L 347.085178 236.006417 
L 347.547435 36.841818 
L 347.634108 236.006417 
L 348.240821 36.841818 
L 348.327494 236.006417 
L 348.717523 36.841818 
L 348.804196 236.006417 
L 349.237562 36.841818 
L 349.324236 236.006417 
L 349.930948 36.841818 
L 350.017621 236.006417 
L 350.450987 36.841818 
L 350.53766 236.006417 
L 351.144373 36.841818 
L 351.231046 236.006417 
L 351.621075 36.841818 
L 351.707748 236.006417 
L 352.141114 36.841818 
L 352.227788 236.006417 
L 352.8345 36.841818 
L 352.921173 236.006417 
L 353.354539 36.841818 
L 353.441212 236.006417 
L 354.047925 36.841818 
L 354.134598 236.006417 
L 354.524627 36.841818 
L 354.6113 236.006417 
L 355.073557 36.841818 
L 355.160231 236.006417 
L 355.766943 36.841818 
L 355.853616 236.006417 
L 356.286982 36.841818 
L 356.373655 236.006417 
L 356.980368 36.841818 
L 357.067041 236.006417 
L 357.45707 36.841818 
L 357.543743 236.006417 
L 357.977109 36.841818 
L 358.063783 236.006417 
L 358.670495 36.841818 
L 358.757168 236.006417 
L 359.190534 36.841818 
L 359.277207 236.006417 
L 359.912811 36.841818 
L 359.999484 236.006417 
L 360.389513 36.841818 
L 360.476186 236.006417 
L 360.909552 36.841818 
L 360.996226 236.006417 
L 361.602938 36.841818 
L 361.689611 236.006417 
L 362.151868 36.841818 
L 362.238541 236.006417 
L 362.845254 36.841818 
L 362.931927 236.006417 
L 363.321956 36.841818 
L 363.408629 236.006417 
L 363.841995 36.841818 
L 363.928669 236.006417 
L 364.535381 36.841818 
L 364.622054 236.006417 
L 365.05542 36.841818 
L 365.142093 236.006417 
L 365.748806 36.841818 
L 365.835479 236.006417 
L 366.225508 36.841818 
L 366.312181 236.006417 
L 366.745547 36.841818 
L 366.832221 236.006417 
L 367.467824 36.841818 
L 367.554497 236.006417 
L 367.987863 36.841818 
L 368.074536 236.006417 
L 368.681249 36.841818 
L 368.767922 236.006417 
L 369.157951 36.841818 
L 369.244624 236.006417 
L 369.706882 36.841818 
L 369.793555 236.006417 
L 370.400267 36.841818 
L 370.48694 236.006417 
L 370.920306 36.841818 
L 371.006979 236.006417 
L 371.613692 36.841818 
L 371.700365 236.006417 
L 372.090394 36.841818 
L 372.177068 236.006417 
L 372.610433 36.841818 
L 372.697107 236.006417 
L 373.303819 36.841818 
L 373.390492 236.006417 
L 373.823858 36.841818 
L 373.910531 236.006417 
L 374.546135 36.841818 
L 374.632808 236.006417 
L 375.022837 36.841818 
L 375.109511 236.006417 
L 375.542876 36.841818 
L 375.62955 236.006417 
L 376.236262 36.841818 
L 376.322935 236.006417 
L 376.785192 36.841818 
L 376.871865 236.006417 
L 377.478578 36.841818 
L 377.565251 236.006417 
L 377.95528 36.841818 
L 378.041954 236.006417 
L 378.47532 36.841818 
L 378.561993 236.006417 
L 379.168705 36.841818 
L 379.255378 236.006417 
L 379.688744 36.841818 
L 379.775417 236.006417 
L 380.38213 36.841818 
L 380.468803 236.006417 
L 380.858832 36.841818 
L 380.945506 236.006417 
L 381.378871 36.841818 
L 381.465545 236.006417 
L 382.101148 36.841818 
L 382.187821 236.006417 
L 382.621187 36.841818 
L 382.70786 236.006417 
L 383.314573 36.841818 
L 383.401246 236.006417 
L 383.791275 36.841818 
L 383.877949 236.006417 
L 384.340206 36.841818 
L 384.426879 236.006417 
L 385.033591 36.841818 
L 385.120264 236.006417 
L 385.55363 36.841818 
L 385.640303 236.006417 
L 386.247016 36.841818 
L 386.333689 236.006417 
L 386.723718 36.841818 
L 386.810392 236.006417 
L 387.243758 36.841818 
L 387.330431 236.006417 
L 387.937143 36.841818 
L 388.023816 236.006417 
L 388.457182 36.841818 
L 388.543855 236.006417 
L 389.179459 36.841818 
L 389.266132 236.006417 
L 389.656161 36.841818 
L 389.742835 236.006417 
L 390.176201 36.841818 
L 390.262874 236.006417 
L 390.869586 36.841818 
L 390.956259 236.006417 
L 391.418516 36.841818 
L 391.50519 236.006417 
L 392.111902 36.841818 
L 392.198575 236.006417 
L 392.588604 36.841818 
L 392.675278 236.006417 
L 393.108644 36.841818 
L 393.195317 236.006417 
L 393.802029 36.841818 
L 393.888702 236.006417 
L 394.322068 36.841818 
L 394.408741 236.006417 
L 395.015454 36.841818 
L 395.102127 236.006417 
L 395.492156 36.841818 
L 395.57883 236.006417 
L 396.012196 36.841818 
L 396.098869 236.006417 
L 396.734472 36.841818 
L 396.821145 236.006417 
L 397.254511 36.841818 
L 397.341185 236.006417 
L 397.947897 36.841818 
L 398.03457 236.006417 
L 398.424599 36.841818 
L 398.511273 236.006417 
L 398.97353 36.841818 
L 399.060203 236.006417 
L 399.666915 36.841818 
L 399.753588 236.006417 
L 400.186954 36.841818 
L 400.273628 236.006417 
L 400.88034 36.841818 
L 400.967013 236.006417 
L 401.357042 36.841818 
L 401.443716 236.006417 
L 401.877082 36.841818 
L 401.963755 236.006417 
L 402.570467 36.841818 
L 402.65714 236.006417 
L 403.090506 36.841818 
L 403.17718 236.006417 
L 403.812783 36.841818 
L 403.899456 236.006417 
L 404.289485 36.841818 
L 404.376159 236.006417 
L 404.809525 36.841818 
L 404.896198 236.006417 
L 405.50291 36.841818 
L 405.589583 236.006417 
L 406.05184 36.841818 
L 406.138514 236.006417 
L 406.745226 36.841818 
L 406.831899 236.006417 
L 407.221929 36.841818 
L 407.308602 236.006417 
L 407.741968 36.841818 
L 407.828641 236.006417 
L 408.435353 36.841818 
L 408.522026 236.006417 
L 408.955392 36.841818 
L 409.042066 236.006417 
L 409.648778 36.841818 
L 409.735451 236.006417 
L 410.12548 36.841818 
L 410.212154 236.006417 
L 410.64552 36.841818 
L 410.732193 236.006417 
L 411.367796 36.841818 
L 411.454469 236.006417 
L 411.887835 36.841818 
L 411.974509 236.006417 
L 412.581221 36.841818 
L 412.667894 236.006417 
L 413.057924 36.841818 
L 413.144597 236.006417 
L 413.606854 36.841818 
L 413.693527 236.006417 
L 414.300239 36.841818 
L 414.386912 236.006417 
L 414.820278 36.841818 
L 414.906952 236.006417 
L 415.513664 36.841818 
L 415.600337 236.006417 
L 415.990367 36.841818 
L 416.07704 236.006417 
L 416.510406 36.841818 
L 416.597079 236.006417 
L 417.203791 36.841818 
L 417.290464 236.006417 
L 417.72383 36.841818 
L 417.810504 236.006417 
L 418.446107 36.841818 
L 418.53278 236.006417 
L 418.92281 36.841818 
L 419.009483 236.006417 
L 419.442849 36.841818 
L 419.529522 236.006417 
L 420.136234 36.841818 
L 420.222907 236.006417 
L 420.685164 36.841818 
L 420.771838 236.006417 
L 421.37855 36.841818 
L 421.465223 236.006417 
L 421.855253 36.841818 
L 421.941926 236.006417 
L 422.375292 36.841818 
L 422.461965 236.006417 
L 423.068677 36.841818 
L 423.15535 236.006417 
L 423.588716 36.841818 
L 423.67539 236.006417 
L 424.282102 36.841818 
L 424.368775 236.006417 
L 424.758805 36.841818 
L 424.845478 236.006417 
L 425.278844 36.841818 
L 425.365517 236.006417 
L 426.00112 36.841818 
L 426.087794 236.006417 
L 426.521159 36.841818 
L 426.607833 236.006417 
L 427.214545 36.841818 
L 427.301218 236.006417 
L 427.691248 36.841818 
L 427.777921 236.006417 
L 428.240178 36.841818 
L 428.326851 236.006417 
L 428.933563 36.841818 
L 429.020237 236.006417 
L 429.453602 36.841818 
L 429.540276 236.006417 
L 430.146988 36.841818 
L 430.233661 236.006417 
L 430.623691 36.841818 
L 430.710364 236.006417 
L 431.14373 36.841818 
L 431.230403 236.006417 
L 431.837115 36.841818 
L 431.923788 236.006417 
L 432.357154 36.841818 
L 432.443828 236.006417 
L 433.079431 36.841818 
L 433.166104 236.006417 
L 433.556134 36.841818 
L 433.642807 236.006417 
L 434.076173 36.841818 
L 434.162846 236.006417 
L 434.769558 36.841818 
L 434.856232 236.006417 
L 435.318489 36.841818 
L 435.405162 236.006417 
L 436.011874 36.841818 
L 436.098547 236.006417 
L 436.488577 36.841818 
L 436.57525 236.006417 
L 437.008616 36.841818 
L 437.095289 236.006417 
L 437.702001 36.841818 
L 437.788675 236.006417 
L 438.222041 36.841818 
L 438.308714 236.006417 
L 438.915426 36.841818 
L 439.002099 236.006417 
L 439.392129 36.841818 
L 439.478802 236.006417 
L 439.912168 36.841818 
L 439.998841 236.006417 
L 440.634444 36.841818 
L 440.721118 236.006417 
L 441.154484 36.841818 
L 441.241157 236.006417 
L 441.847869 36.841818 
L 441.934542 236.006417 
L 442.324572 36.841818 
L 442.411245 236.006417 
L 442.873502 36.841818 
L 442.960175 236.006417 
L 443.566887 36.841818 
L 443.653561 236.006417 
L 444.086927 36.841818 
L 444.1736 236.006417 
L 444.780312 36.841818 
L 444.866985 236.006417 
L 445.257015 36.841818 
L 445.343688 236.006417 
L 445.777054 36.841818 
L 445.863727 236.006417 
L 446.470439 36.841818 
L 446.557113 236.006417 
L 446.990479 36.841818 
L 447.077152 236.006417 
L 447.712755 36.841818 
L 447.799428 236.006417 
L 448.189458 36.841818 
L 448.276131 236.006417 
L 448.709497 36.841818 
L 448.79617 236.006417 
L 449.402882 36.841818 
L 449.489556 236.006417 
L 449.951813 36.841818 
L 450.038486 236.006417 
L 450.645198 36.841818 
L 450.731871 236.006417 
L 451.121901 36.841818 
L 451.208574 236.006417 
L 451.64194 36.841818 
L 451.728613 236.006417 
L 452.335325 36.841818 
L 452.421999 236.006417 
L 452.855365 36.841818 
L 452.942038 236.006417 
L 453.54875 36.841818 
L 453.635423 236.006417 
L 454.025453 36.841818 
L 454.112126 236.006417 
L 454.545492 36.841818 
L 454.632165 236.006417 
L 455.267768 36.841818 
L 455.354442 236.006417 
L 455.787808 36.841818 
L 455.874481 236.006417 
L 456.481193 36.841818 
L 456.567866 236.006417 
L 456.957896 36.841818 
L 457.044569 236.006417 
L 457.506826 36.841818 
L 457.593499 236.006417 
L 458.200211 36.841818 
L 458.286885 236.006417 
L 458.720251 36.841818 
L 458.806924 236.006417 
L 459.413636 36.841818 
L 459.500309 236.006417 
L 459.890339 36.841818 
L 459.977012 236.006417 
L 460.410378 36.841818 
L 460.497051 236.006417 
L 461.103763 36.841818 
L 461.190437 236.006417 
L 461.623803 36.841818 
L 461.710476 236.006417 
L 462.346079 36.841818 
L 462.432752 236.006417 
L 462.822782 36.841818 
L 462.909455 236.006417 
L 463.342821 36.841818 
L 463.429494 236.006417 
L 464.036206 36.841818 
L 464.12288 236.006417 
L 464.585137 36.841818 
L 464.67181 236.006417 
L 465.278522 36.841818 
L 465.365195 236.006417 
L 465.755225 36.841818 
L 465.841898 236.006417 
L 466.275264 36.841818 
L 466.361937 236.006417 
L 466.96865 36.841818 
L 467.055323 236.006417 
L 467.488689 36.841818 
L 467.575362 236.006417 
L 468.182074 36.841818 
L 468.268747 236.006417 
L 468.658777 36.841818 
L 468.74545 236.006417 
L 469.178816 36.841818 
L 469.265489 236.006417 
L 469.901093 36.841818 
L 469.987766 236.006417 
L 470.421132 36.841818 
L 470.507805 236.006417 
L 471.114517 36.841818 
L 471.20119 236.006417 
L 471.59122 36.841818 
L 471.677893 236.006417 
L 472.14015 36.841818 
L 472.226823 236.006417 
L 472.833536 36.841818 
L 472.920209 236.006417 
L 473.353575 36.841818 
L 473.440248 236.006417 
L 474.04696 36.841818 
L 474.133633 236.006417 
L 474.523663 36.841818 
L 474.610336 236.006417 
L 475.043702 36.841818 
L 475.130375 236.006417 
L 475.737088 36.841818 
L 475.823761 236.006417 
L 476.257127 36.841818 
L 476.3438 236.006417 
L 476.950512 36.841818 
L 477.037185 236.006417 
L 477.427215 36.841818 
L 477.513888 236.006417 
L 477.947254 36.841818 
L 478.033927 236.006417 
L 478.640639 36.841818 
L 478.727313 236.006417 
L 479.18957 36.841818 
L 479.276243 236.006417 
L 479.882955 36.841818 
L 479.969628 236.006417 
L 480.359658 36.841818 
L 480.446331 236.006417 
L 480.879697 36.841818 
L 480.96637 236.006417 
L 481.573083 36.841818 
L 481.659756 236.006417 
L 482.093122 36.841818 
L 482.179795 236.006417 
L 482.786507 36.841818 
L 482.87318 236.006417 
L 483.26321 36.841818 
L 483.349883 236.006417 
L 483.783249 36.841818 
L 483.869922 236.006417 
L 484.476634 36.841818 
L 484.563308 236.006417 
L 484.996674 36.841818 
L 485.083347 236.006417 
L 485.690059 36.841818 
L 485.776732 236.006417 
L 486.166762 36.841818 
L 486.253435 236.006417 
L 486.715692 36.841818 
L 486.802365 236.006417 
L 487.409078 36.841818 
L 487.495751 236.006417 
L 487.929117 36.841818 
L 488.01579 236.006417 
L 488.622502 36.841818 
L 488.709175 236.006417 
L 489.099205 36.841818 
L 489.185878 236.006417 
L 489.619244 36.841818 
L 489.705917 236.006417 
L 490.312629 36.841818 
L 490.399303 236.006417 
L 490.832669 36.841818 
L 490.919342 236.006417 
L 491.526054 36.841818 
L 491.612727 236.006417 
L 492.002757 36.841818 
L 492.08943 236.006417 
L 492.522796 36.841818 
L 492.609469 236.006417 
L 493.216181 36.841818 
L 493.302855 236.006417 
L 493.765112 36.841818 
L 493.851785 236.006417 
L 494.458497 36.841818 
L 494.54517 236.006417 
L 494.9352 36.841818 
L 495.021873 236.006417 
L 495.455239 36.841818 
L 495.541912 236.006417 
L 496.148624 36.841818 
L 496.235298 236.006417 
L 496.668664 36.841818 
L 496.755337 236.006417 
L 497.362049 36.841818 
L 497.448722 236.006417 
L 497.838752 36.841818 
L 497.925425 236.006417 
L 498.358791 36.841818 
L 498.445464 236.006417 
L 499.052176 36.841818 
L 499.13885 236.006417 
L 499.572216 36.841818 
L 499.658889 236.006417 
L 500.265601 36.841818 
L 500.352274 236.006417 
L 500.742304 36.841818 
L 500.828977 236.006417 
L 501.291234 36.841818 
L 501.377907 236.006417 
L 501.984619 36.841818 
L 502.071293 236.006417 
L 502.504659 36.841818 
L 502.591332 236.006417 
L 503.198044 36.841818 
L 503.284717 236.006417 
L 503.674747 36.841818 
L 503.76142 236.006417 
L 504.194786 36.841818 
L 504.281459 236.006417 
L 504.888171 36.841818 
L 504.974845 236.006417 
L 505.408211 36.841818 
L 505.494884 236.006417 
L 506.101596 36.841818 
L 506.188269 236.006417 
L 506.578299 36.841818 
L 506.664972 236.006417 
L 507.098338 36.841818 
L 507.185011 236.006417 
L 507.791723 36.841818 
L 507.878397 236.006417 
L 508.340654 36.841818 
L 508.427327 236.006417 
L 509.034039 36.841818 
L 509.120712 236.006417 
L 509.510742 36.841818 
L 509.597415 236.006417 
L 510.030781 36.841818 
L 510.117454 236.006417 
L 510.724166 36.841818 
L 510.81084 236.006417 
L 511.244206 36.841818 
L 511.330879 236.006417 
L 511.937591 36.841818 
L 512.024264 236.006417 
L 512.414294 36.841818 
L 512.500967 236.006417 
L 512.934333 36.841818 
L 513.021006 236.006417 
L 513.627718 36.841818 
L 513.714392 236.006417 
L 514.147758 36.841818 
L 514.234431 236.006417 
L 514.841143 36.841818 
L 514.927816 236.006417 
L 515.317846 36.841818 
L 515.404519 236.006417 
L 515.866776 36.841818 
L 515.953449 236.006417 
L 516.560161 36.841818 
L 516.646835 236.006417 
L 517.080201 36.841818 
L 517.166874 236.006417 
L 517.773586 36.841818 
L 517.860259 236.006417 
L 518.250289 36.841818 
L 518.336962 236.006417 
L 518.770328 36.841818 
L 518.857001 236.006417 
L 519.463713 36.841818 
L 519.550387 236.006417 
L 519.983753 36.841818 
L 520.070426 236.006417 
L 520.677138 36.841818 
L 520.763811 236.006417 
L 521.153841 36.841818 
L 521.240514 236.006417 
L 521.67388 36.841818 
L 521.760553 236.006417 
L 522.367265 36.841818 
L 522.453939 236.006417 
L 522.916196 36.841818 
L 523.002869 236.006417 
L 523.609581 36.841818 
L 523.696254 236.006417 
L 524.086284 36.841818 
L 524.172957 236.006417 
L 524.606323 36.841818 
L 524.692996 236.006417 
L 525.299708 36.841818 
L 525.386382 236.006417 
L 525.819748 36.841818 
L 525.906421 236.006417 
L 526.513133 36.841818 
L 526.599806 236.006417 
L 526.989836 36.841818 
L 527.076509 236.006417 
L 527.509875 36.841818 
L 527.596548 236.006417 
L 528.20326 36.841818 
L 528.289934 236.006417 
L 528.723299 36.841818 
L 528.809973 236.006417 
L 529.416685 36.841818 
L 529.503358 236.006417 
L 529.893388 36.841818 
L 529.980061 236.006417 
L 530.442318 36.841818 
L 530.528991 236.006417 
L 531.135703 36.841818 
L 531.222377 236.006417 
L 531.655742 36.841818 
L 531.742416 236.006417 
L 532.349128 36.841818 
L 532.435801 236.006417 
L 532.825831 36.841818 
L 532.912504 236.006417 
L 533.34587 36.841818 
L 533.432543 236.006417 
L 534.039255 36.841818 
L 534.125928 236.006417 
L 534.559294 36.841818 
L 534.645968 236.006417 
L 535.25268 36.841818 
L 535.339353 236.006417 
L 535.729383 36.841818 
L 535.816056 236.006417 
L 536.249422 36.841818 
L 536.336095 236.006417 
L 536.942807 36.841818 
L 537.02948 236.006417 
L 537.491737 36.841818 
L 537.578411 236.006417 
L 538.185123 36.841818 
L 538.271796 236.006417 
L 538.661826 36.841818 
L 538.748499 236.006417 
L 539.181865 36.841818 
L 539.268538 236.006417 
L 539.87525 36.841818 
L 539.961923 236.006417 
L 540.395289 36.841818 
L 540.481963 236.006417 
L 541.088675 36.841818 
L 541.175348 236.006417 
L 541.565378 36.841818 
L 541.652051 236.006417 
L 542.085417 36.841818 
L 542.17209 236.006417 
L 542.778802 36.841818 
L 542.865475 236.006417 
L 543.298841 36.841818 
L 543.385515 236.006417 
L 543.992227 36.841818 
L 544.0789 236.006417 
L 544.46893 36.841818 
L 544.555603 236.006417 
L 545.01786 36.841818 
L 545.104533 236.006417 
L 545.711245 36.841818 
L 545.797918 236.006417 
L 546.231284 36.841818 
L 546.317958 236.006417 
L 546.92467 36.841818 
L 547.011343 236.006417 
L 547.401373 36.841818 
L 547.488046 236.006417 
L 547.921412 36.841818 
L 548.008085 236.006417 
L 548.614797 36.841818 
L 548.70147 236.006417 
L 549.134836 36.841818 
L 549.22151 236.006417 
L 549.828222 36.841818 
L 549.914895 236.006417 
L 550.304925 36.841818 
L 550.391598 236.006417 
L 550.824964 36.841818 
L 550.911637 236.006417 
L 551.518349 36.841818 
L 551.605022 236.006417 
L 552.067279 36.841818 
L 552.153953 236.006417 
L 552.760665 36.841818 
L 552.847338 236.006417 
L 553.237368 36.841818 
L 553.324041 236.006417 
L 553.757407 36.841818 
L 553.84408 236.006417 
L 554.450792 36.841818 
L 554.537465 236.006417 
L 554.970831 36.841818 
L 555.057505 236.006417 
L 555.664217 36.841818 
L 555.75089 236.006417 
L 556.140919 36.841818 
L 556.227593 236.006417 
L 556.660959 36.841818 
L 556.747632 236.006417 
L 557.354344 36.841818 
L 557.441017 236.006417 
L 557.874383 36.841818 
L 557.961057 236.006417 
L 558.567769 36.841818 
L 558.654442 236.006417 
L 559.044471 36.841818 
L 559.131145 236.006417 
L 559.593402 36.841818 
L 559.680075 236.006417 
L 560.286787 36.841818 
L 560.37346 236.006417 
L 560.806826 36.841818 
L 560.8935 236.006417 
L 561.500212 36.841818 
L 561.586885 236.006417 
L 561.976914 36.841818 
L 562.063588 236.006417 
L 562.496954 36.841818 
L 562.583627 236.006417 
L 563.190339 36.841818 
L 563.277012 236.006417 
L 563.710378 36.841818 
L 563.797052 236.006417 
L 564.403764 36.841818 
L 564.490437 236.006417 
L 564.880466 36.841818 
L 564.96714 236.006417 
L 565.400506 36.841818 
L 565.487179 236.006417 
L 566.093891 36.841818 
L 566.180564 236.006417 
L 566.642821 36.841818 
L 566.729495 236.006417 
L 567.336207 36.841818 
L 567.42288 236.006417 
L 567.812909 36.841818 
L 567.899583 236.006417 
L 568.332949 36.841818 
L 568.419622 236.006417 
L 569.026334 36.841818 
L 569.113007 236.006417 
L 569.546373 36.841818 
L 569.633047 236.006417 
L 570.239759 36.841818 
L 570.326432 236.006417 
L 570.716461 36.841818 
L 570.803135 236.006417 
L 571.236501 36.841818 
L 571.323174 236.006417 
L 571.929886 36.841818 
L 572.016559 236.006417 
L 572.449925 36.841818 
L 572.536598 236.006417 
L 573.143311 36.841818 
L 573.229984 236.006417 
L 573.620013 36.841818 
L 573.706687 236.006417 
L 574.168944 36.841818 
L 574.255617 236.006417 
L 574.862329 36.841818 
L 574.949002 236.006417 
L 575.382368 36.841818 
L 575.469042 236.006417 
L 576.075754 36.841818 
L 576.162427 236.006417 
L 576.552456 36.841818 
L 576.63913 236.006417 
L 577.072496 36.841818 
L 577.159169 236.006417 
L 577.765881 36.841818 
L 577.852554 236.006417 
L 578.28592 36.841818 
L 578.372593 236.006417 
L 578.979306 36.841818 
L 579.065979 236.006417 
L 579.456008 36.841818 
L 579.542682 236.006417 
L 579.976048 36.841818 
L 580.062721 236.006417 
L 580.669433 36.841818 
L 580.756106 236.006417 
L 581.218363 36.841818 
L 581.305037 236.006417 
L 581.911749 36.841818 
L 581.998422 236.006417 
L 582.388451 36.841818 
L 582.475125 236.006417 
L 582.908491 36.841818 
L 582.995164 236.006417 
L 583.601876 36.841818 
L 583.688549 236.006417 
L 584.121915 36.841818 
L 584.208588 236.006417 
L 584.815301 36.841818 
L 584.901974 236.006417 
L 585.292003 36.841818 
L 585.378677 236.006417 
L 585.812043 36.841818 
L 585.898716 236.006417 
L 586.505428 36.841818 
L 586.592101 236.006417 
L 587.025467 36.841818 
L 587.11214 236.006417 
L 587.718853 36.841818 
L 587.805526 236.006417 
L 588.195555 36.841818 
L 588.282229 236.006417 
L 588.744486 36.841818 
L 588.831159 236.006417 
L 589.437871 36.841818 
L 589.524544 236.006417 
L 589.95791 36.841818 
L 590.044583 236.006417 
L 590.651296 36.841818 
L 590.737969 236.006417 
L 591.127998 36.841818 
L 591.214672 236.006417 
L 591.648038 36.841818 
L 591.734711 236.006417 
L 592.341423 36.841818 
L 592.428096 236.006417 
L 592.861462 36.841818 
L 592.948135 236.006417 
L 593.554848 36.841818 
L 593.641521 236.006417 
L 594.03155 36.841818 
L 594.118224 236.006417 
L 594.551589 36.841818 
L 594.638263 236.006417 
L 595.244975 36.841818 
L 595.331648 236.006417 
L 595.793905 36.841818 
L 595.880578 236.006417 
L 596.487291 36.841818 
L 596.573964 236.006417 
L 596.963993 36.841818 
L 597.050667 236.006417 
L 597.484033 36.841818 
L 597.570706 236.006417 
L 598.177418 36.841818 
L 598.264091 236.006417 
L 598.697457 36.841818 
L 598.78413 236.006417 
L 599.390843 36.841818 
L 599.477516 236.006417 
L 599.867545 36.841818 
L 599.954219 236.006417 
L 600.387584 36.841818 
L 600.474258 236.006417 
L 601.08097 36.841818 
L 601.167643 236.006417 
L 601.601009 36.841818 
L 601.687682 236.006417 
L 602.294395 36.841818 
L 602.381068 236.006417 
L 602.771097 36.841818 
L 602.85777 236.006417 
L 603.320028 36.841818 
L 603.406701 236.006417 
L 604.013413 36.841818 
L 604.100086 236.006417 
L 604.533452 36.841818 
L 604.620125 236.006417 
L 605.226838 36.841818 
L 605.313511 236.006417 
L 605.70354 36.841818 
L 605.790214 236.006417 
L 606.223579 36.841818 
L 606.310253 236.006417 
L 606.916965 36.841818 
L 607.003638 236.006417 
L 607.437004 36.841818 
L 607.523677 236.006417 
L 608.13039 36.841818 
L 608.217063 236.006417 
L 608.607092 36.841818 
L 608.693765 236.006417 
L 609.127131 36.841818 
L 609.213805 236.006417 
L 609.820517 36.841818 
L 609.90719 236.006417 
L 610.340556 36.841818 
L 610.427229 236.006417 
L 611.005051 36.841818 
L 611.091724 236.006417 
L 611.510644 36.841818 
L 611.597317 236.006417 
L 612.218475 36.841818 
L 612.305149 236.006417 
L 612.88297 36.841818 
L 612.969643 236.006417 
L 613.417454 36.841818 
L 613.504128 236.006417 
L 614.298632 36.841818 
L 614.385305 236.006417 
L 614.78978 36.841818 
L 614.876453 236.006417 
L 615.33871 103.540899 
L 615.410938 236.022364 
L 615.526502 234.921963 
L 615.613175 236.006417 
L 615.829858 236.030338 
L 615.988759 170.832598 
L 616.075432 236.006417 
L 616.682145 36.841818 
L 616.768818 236.006417 
L 617.216629 36.841818 
L 617.303303 236.006417 
L 617.953352 36.841818 
L 618.040025 236.006417 
L 618.617846 36.841818 
L 618.704519 236.006417 
L 619.137885 36.841818 
L 619.224558 236.006417 
L 619.845716 36.841818 
L 619.932389 236.006417 
L 620.553547 36.841818 
L 620.640221 236.006417 
L 621.304715 103.540947 
L 621.478061 236.078182 
L 621.57918 236.030338 
L 621.680299 235.320659 
L 621.766972 236.01439 
L 621.998101 236.030338 
L 622.113665 235.121311 
L 622.287011 236.078182 
L 622.38813 236.030338 
L 622.489249 235.719355 
L 622.575922 236.01439 
L 622.864833 236.030338 
L 622.980397 234.802355 
L 623.153743 236.078182 
L 623.254862 236.030338 
L 623.355981 234.882094 
L 623.442654 236.01439 
L 623.673782 236.030338 
L 623.962693 175.078871 
L 624.049366 236.006417 
L 624.439396 36.841818 
L 624.526069 236.006417 
L 624.959435 36.841818 
L 625.046108 236.006417 
L 625.65282 36.841818 
L 625.739493 236.006417 
L 626.172859 36.841818 
L 626.259533 236.006417 
L 626.866245 36.841818 
L 626.952918 236.006417 
L 627.342947 36.841818 
L 627.429621 236.006417 
L 627.862987 36.841818 
L 627.94966 236.006417 
L 628.556372 36.841818 
L 628.643045 236.006417 
L 629.105302 36.841818 
L 629.191976 236.006417 
L 629.798688 36.841818 
L 629.885361 236.006417 
L 630.275391 36.841818 
L 630.362064 236.006417 
L 630.79543 36.841818 
L 630.882103 236.006417 
L 631.488815 36.841818 
L 631.575488 236.006417 
L 632.008854 36.841818 
L 632.095528 236.006417 
L 632.70224 36.841818 
L 632.788913 236.006417 
L 633.178942 36.841818 
L 633.265616 236.006417 
L 633.698982 36.841818 
L 633.785655 236.006417 
L 634.392367 36.841818 
L 634.47904 236.006417 
L 634.912406 36.841818 
L 634.99908 236.006417 
L 635.605792 36.841818 
L 635.692465 236.006417 
L 636.082494 36.841818 
L 636.169168 236.006417 
L 636.631425 36.841818 
L 636.718098 236.006417 
L 637.32481 36.841818 
L 637.411483 236.006417 
L 637.844849 36.841818 
L 637.931523 236.006417 
L 638.538235 36.841818 
L 638.624908 236.006417 
L 639.014937 36.841818 
L 639.101611 236.006417 
L 639.534977 36.841818 
L 639.62165 236.006417 
L 640.228362 36.841818 
L 640.315035 236.006417 
L 640.748401 36.841818 
L 640.835075 236.006417 
L 641.441787 36.841818 
L 641.52846 236.006417 
L 641.918489 36.841818 
L 642.005163 236.006417 
L 642.438529 36.841818 
L 642.525202 236.006417 
L 643.131914 36.841818 
L 643.218587 236.006417 
L 643.680844 36.841818 
L 643.767518 236.006417 
L 644.37423 36.841818 
L 644.460903 236.006417 
L 644.850932 36.841818 
L 644.937606 236.006417 
L 645.370972 36.841818 
L 645.457645 236.006417 
L 646.064357 36.841818 
L 646.15103 236.006417 
L 646.584396 36.841818 
L 646.67107 236.006417 
L 647.277782 36.841818 
L 647.364455 236.006417 
L 647.754484 36.841818 
L 647.841158 236.006417 
L 648.274524 36.841818 
L 648.361197 236.006417 
L 648.967909 36.841818 
L 649.054582 236.006417 
L 649.487948 36.841818 
L 649.574621 236.006417 
L 650.181334 36.841818 
L 650.268007 236.006417 
L 650.658036 36.841818 
L 650.74471 236.006417 
L 651.206967 36.841818 
L 651.29364 236.006417 
L 651.900352 36.841818 
L 651.987025 236.006417 
L 652.420391 36.841818 
L 652.507065 236.006417 
L 653.113777 36.841818 
L 653.20045 236.006417 
L 653.590479 36.841818 
L 653.677153 236.006417 
L 654.110519 36.841818 
L 654.197192 236.006417 
L 654.803904 36.841818 
L 654.890577 236.006417 
L 655.323943 36.841818 
L 655.410616 236.006417 
L 656.017329 36.841818 
L 656.104002 236.006417 
L 656.494031 36.841818 
L 656.580705 236.006417 
L 657.014071 36.841818 
L 657.100744 236.006417 
L 657.707456 36.841818 
L 657.794129 236.006417 
L 658.256386 36.841818 
L 658.343059 236.006417 
L 658.949772 36.841818 
L 659.036445 236.006417 
L 659.426474 36.841818 
L 659.513148 236.006417 
L 659.946514 36.841818 
L 660.033187 236.006417 
L 660.639899 36.841818 
L 660.726572 236.006417 
L 661.159938 36.841818 
L 661.246611 236.006417 
L 661.853324 36.841818 
L 661.939997 236.006417 
L 662.330026 36.841818 
L 662.4167 236.006417 
L 662.850066 36.841818 
L 662.936739 236.006417 
L 663.543451 36.841818 
L 663.630124 236.006417 
L 664.06349 36.841818 
L 664.150163 236.006417 
L 664.756876 36.841818 
L 664.843549 236.006417 
L 665.233578 36.841818 
L 665.320252 236.006417 
L 665.782509 36.841818 
L 665.869182 236.006417 
L 666.475894 36.841818 
L 666.562567 236.006417 
L 666.995933 36.841818 
L 667.082606 236.006417 
L 667.689319 36.841818 
L 667.775992 236.006417 
L 668.166021 36.841818 
L 668.252695 236.006417 
L 668.686061 36.841818 
L 668.772734 236.006417 
L 669.379446 36.841818 
L 669.466119 236.006417 
L 669.899485 36.841818 
L 669.986158 236.006417 
L 670.592871 36.841818 
L 670.679544 236.006417 
L 671.069573 36.841818 
L 671.156247 236.006417 
L 671.589612 36.841818 
L 671.676286 236.006417 
L 672.282998 36.841818 
L 672.369671 236.006417 
L 672.831928 36.841818 
L 672.918601 236.006417 
L 673.525314 36.841818 
L 673.611987 236.006417 
L 674.002016 36.841818 
L 674.08869 236.006417 
L 674.522056 36.841818 
L 674.608729 236.006417 
L 675.215441 36.841818 
L 675.302114 236.006417 
L 675.73548 36.841818 
L 675.822153 236.006417 
L 676.428866 36.841818 
L 676.515539 236.006417 
L 676.905568 36.841818 
L 676.992242 236.006417 
L 677.425607 36.841818 
L 677.512281 236.006417 
L 678.118993 36.841818 
L 678.205666 236.006417 
L 678.639032 36.841818 
L 678.725705 236.006417 
L 679.332418 36.841818 
L 679.419091 236.006417 
L 679.419091 236.006417 
" clip-path="url(#pff0f25e647)" style="fill: none; stroke: #1f77b4; stroke-width: 1.5; stroke-linecap: square"/>
   </g>
   <g id="patch_3">
    <path d="M 54.02 246.04 
L 54.02 26.88 
" style="fill: none; stroke: #000000; stroke-width: 0.8; stroke-linejoin: miter; stroke-linecap: square"/>
   </g>
   <g id="patch_4">
    <path d="M 709.2 246.04 
L 709.2 26.88 
" style="fill: none; stroke: #000000; stroke-width: 0.8; stroke-linejoin: miter; stroke-linecap: square"/>
   </g>
   <g id="patch_5">
    <path d="M 54.02 246.04 
L 709.2 246.04 
" style="fill: none; stroke: #000000; stroke-width: 0.8; stroke-linejoin: miter; stroke-linecap: square"/>
   </g>
   <g id="patch_6">
    <path d="M 54.02 26.88 
L 709.2 26.88 
" style="fill: none; stroke: #000000; stroke-width: 0.8; stroke-linejoin: miter; stroke-linecap: square"/>
   </g>
   <g id="text_14">
    <!-- receptionState:vector (HandoverShowcase.ap1.wlan[0].radio) -->
    <g transform="translate(195.7375 20.88) scale(0.12 -0.12)">
     <defs>
      <path id="DejaVuSans-72" d="M 2631 2963 
Q 2534 3019 2420 3045 
Q 2306 3072 2169 3072 
Q 1681 3072 1420 2755 
Q 1159 2438 1159 1844 
L 1159 0 
L 581 0 
L 581 3500 
L 1159 3500 
L 1159 2956 
Q 1341 3275 1631 3429 
Q 1922 3584 2338 3584 
Q 2397 3584 2469 3576 
Q 2541 3569 2628 3553 
L 2631 2963 
z
" transform="scale(0.015625)"/>
      <path id="DejaVuSans-63" d="M 3122 3366 
L 3122 2828 
Q 2878 2963 2633 3030 
Q 2388 3097 2138 3097 
Q 1578 3097 1268 2742 
Q 959 2388 959 1747 
Q 959 1106 1268 751 
Q 1578 397 2138 397 
Q 2388 397 2633 464 
Q 2878 531 3122 666 
L 3122 134 
Q 2881 22 2623 -34 
Q 2366 -91 2075 -91 
Q 1284 -91 818 406 
Q 353 903 353 1747 
Q 353 2603 823 3093 
Q 1294 3584 2113 3584 
Q 2378 3584 2631 3529 
Q 2884 3475 3122 3366 
z
" transform="scale(0.015625)"/>
      <path id="DejaVuSans-70" d="M 1159 525 
L 1159 -1331 
L 581 -1331 
L 581 3500 
L 1159 3500 
L 1159 2969 
Q 1341 3281 1617 3432 
Q 1894 3584 2278 3584 
Q 2916 3584 3314 3078 
Q 3713 2572 3713 1747 
Q 3713 922 3314 415 
Q 2916 -91 2278 -91 
Q 1894 -91 1617 61 
Q 1341 213 1159 525 
z
M 3116 1747 
Q 3116 2381 2855 2742 
Q 2594 3103 2138 3103 
Q 1681 3103 1420 2742 
Q 1159 2381 1159 1747 
Q 1159 1113 1420 752 
Q 1681 391 2138 391 
Q 2594 391 2855 752 
Q 3116 1113 3116 1747 
z
" transform="scale(0.015625)"/>
      <path id="DejaVuSans-6f" d="M 1959 3097 
Q 1497 3097 1228 2736 
Q 959 2375 959 1747 
Q 959 1119 1226 758 
Q 1494 397 1959 397 
Q 2419 397 2687 759 
Q 2956 1122 2956 1747 
Q 2956 2369 2687 2733 
Q 2419 3097 1959 3097 
z
M 1959 3584 
Q 2709 3584 3137 3096 
Q 3566 2609 3566 1747 
Q 3566 888 3137 398 
Q 2709 -91 1959 -91 
Q 1206 -91 779 398 
Q 353 888 353 1747 
Q 353 2609 779 3096 
Q 1206 3584 1959 3584 
z
" transform="scale(0.015625)"/>
      <path id="DejaVuSans-6e" d="M 3513 2113 
L 3513 0 
L 2938 0 
L 2938 2094 
Q 2938 2591 2744 2837 
Q 2550 3084 2163 3084 
Q 1697 3084 1428 2787 
Q 1159 2491 1159 1978 
L 1159 0 
L 581 0 
L 581 3500 
L 1159 3500 
L 1159 2956 
Q 1366 3272 1645 3428 
Q 1925 3584 2291 3584 
Q 2894 3584 3203 3211 
Q 3513 2838 3513 2113 
z
" transform="scale(0.015625)"/>
      <path id="DejaVuSans-53" d="M 3425 4513 
L 3425 3897 
Q 3066 4069 2747 4153 
Q 2428 4238 2131 4238 
Q 1616 4238 1336 4038 
Q 1056 3838 1056 3469 
Q 1056 3159 1242 3001 
Q 1428 2844 1947 2747 
L 2328 2669 
Q 3034 2534 3370 2195 
Q 3706 1856 3706 1288 
Q 3706 609 3251 259 
Q 2797 -91 1919 -91 
Q 1588 -91 1214 -16 
Q 841 59 441 206 
L 441 856 
Q 825 641 1194 531 
Q 1563 422 1919 422 
Q 2459 422 2753 634 
Q 3047 847 3047 1241 
Q 3047 1584 2836 1778 
Q 2625 1972 2144 2069 
L 1759 2144 
Q 1053 2284 737 2584 
Q 422 2884 422 3419 
Q 422 4038 858 4394 
Q 1294 4750 2059 4750 
Q 2388 4750 2728 4690 
Q 3069 4631 3425 4513 
z
" transform="scale(0.015625)"/>
      <path id="DejaVuSans-3a" d="M 750 794 
L 1409 794 
L 1409 0 
L 750 0 
L 750 794 
z
M 750 3309 
L 1409 3309 
L 1409 2516 
L 750 2516 
L 750 3309 
z
" transform="scale(0.015625)"/>
      <path id="DejaVuSans-76" d="M 191 3500 
L 800 3500 
L 1894 563 
L 2988 3500 
L 3597 3500 
L 2284 0 
L 1503 0 
L 191 3500 
z
" transform="scale(0.015625)"/>
      <path id="DejaVuSans-48" d="M 628 4666 
L 1259 4666 
L 1259 2753 
L 3553 2753 
L 3553 4666 
L 4184 4666 
L 4184 0 
L 3553 0 
L 3553 2222 
L 1259 2222 
L 1259 0 
L 628 0 
L 628 4666 
z
" transform="scale(0.015625)"/>
      <path id="DejaVuSans-64" d="M 2906 2969 
L 2906 4863 
L 3481 4863 
L 3481 0 
L 2906 0 
L 2906 525 
Q 2725 213 2448 61 
Q 2172 -91 1784 -91 
Q 1150 -91 751 415 
Q 353 922 353 1747 
Q 353 2572 751 3078 
Q 1150 3584 1784 3584 
Q 2172 3584 2448 3432 
Q 2725 3281 2906 2969 
z
M 947 1747 
Q 947 1113 1208 752 
Q 1469 391 1925 391 
Q 2381 391 2643 752 
Q 2906 1113 2906 1747 
Q 2906 2381 2643 2742 
Q 2381 3103 1925 3103 
Q 1469 3103 1208 2742 
Q 947 2381 947 1747 
z
" transform="scale(0.015625)"/>
      <path id="DejaVuSans-68" d="M 3513 2113 
L 3513 0 
L 2938 0 
L 2938 2094 
Q 2938 2591 2744 2837 
Q 2550 3084 2163 3084 
Q 1697 3084 1428 2787 
Q 1159 2491 1159 1978 
L 1159 0 
L 581 0 
L 581 4863 
L 1159 4863 
L 1159 2956 
Q 1366 3272 1645 3428 
Q 1925 3584 2291 3584 
Q 2894 3584 3203 3211 
Q 3513 2838 3513 2113 
z
" transform="scale(0.015625)"/>
      <path id="DejaVuSans-77" d="M 269 3500 
L 844 3500 
L 1563 769 
L 2278 3500 
L 2956 3500 
L 3675 769 
L 4391 3500 
L 4966 3500 
L 4050 0 
L 3372 0 
L 2619 2869 
L 1863 0 
L 1184 0 
L 269 3500 
z
" transform="scale(0.015625)"/>
      <path id="DejaVuSans-5b" d="M 550 4863 
L 1875 4863 
L 1875 4416 
L 1125 4416 
L 1125 -397 
L 1875 -397 
L 1875 -844 
L 550 -844 
L 550 4863 
z
" transform="scale(0.015625)"/>
      <path id="DejaVuSans-5d" d="M 1947 4863 
L 1947 -844 
L 622 -844 
L 622 -397 
L 1369 -397 
L 1369 4416 
L 622 4416 
L 622 4863 
L 1947 4863 
z
" transform="scale(0.015625)"/>
     </defs>
     <use xlink:href="#DejaVuSans-72"/>
     <use xlink:href="#DejaVuSans-65" x="38.863281"/>
     <use xlink:href="#DejaVuSans-63" x="100.386719"/>
     <use xlink:href="#DejaVuSans-65" x="155.367188"/>
     <use xlink:href="#DejaVuSans-70" x="216.890625"/>
     <use xlink:href="#DejaVuSans-74" x="280.367188"/>
     <use xlink:href="#DejaVuSans-69" x="319.576172"/>
     <use xlink:href="#DejaVuSans-6f" x="347.359375"/>
     <use xlink:href="#DejaVuSans-6e" x="408.541016"/>
     <use xlink:href="#DejaVuSans-53" x="471.919922"/>
     <use xlink:href="#DejaVuSans-74" x="535.396484"/>
     <use xlink:href="#DejaVuSans-61" x="574.605469"/>
     <use xlink:href="#DejaVuSans-74" x="635.884766"/>
     <use xlink:href="#DejaVuSans-65" x="675.09375"/>
     <use xlink:href="#DejaVuSans-3a" x="736.617188"/>
     <use xlink:href="#DejaVuSans-76" x="770.308594"/>
     <use xlink:href="#DejaVuSans-65" x="829.488281"/>
     <use xlink:href="#DejaVuSans-63" x="891.011719"/>
     <use xlink:href="#DejaVuSans-74" x="945.992188"/>
     <use xlink:href="#DejaVuSans-6f" x="985.201172"/>
     <use xlink:href="#DejaVuSans-72" x="1046.382812"/>
     <use xlink:href="#DejaVuSans-20" x="1087.496094"/>
     <use xlink:href="#DejaVuSans-28" x="1119.283203"/>
     <use xlink:href="#DejaVuSans-48" x="1158.296875"/>
     <use xlink:href="#DejaVuSans-61" x="1233.492188"/>
     <use xlink:href="#DejaVuSans-6e" x="1294.771484"/>
     <use xlink:href="#DejaVuSans-64" x="1358.150391"/>
     <use xlink:href="#DejaVuSans-6f" x="1421.626953"/>
     <use xlink:href="#DejaVuSans-76" x="1482.808594"/>
     <use xlink:href="#DejaVuSans-65" x="1541.988281"/>
     <use xlink:href="#DejaVuSans-72" x="1603.511719"/>
     <use xlink:href="#DejaVuSans-53" x="1644.625"/>
     <use xlink:href="#DejaVuSans-68" x="1708.101562"/>
     <use xlink:href="#DejaVuSans-6f" x="1771.480469"/>
     <use xlink:href="#DejaVuSans-77" x="1832.662109"/>
     <use xlink:href="#DejaVuSans-63" x="1914.449219"/>
     <use xlink:href="#DejaVuSans-61" x="1969.429688"/>
     <use xlink:href="#DejaVuSans-73" x="2030.708984"/>
     <use xlink:href="#DejaVuSans-65" x="2082.808594"/>
     <use xlink:href="#DejaVuSans-2e" x="2144.332031"/>
     <use xlink:href="#DejaVuSans-61" x="2176.119141"/>
     <use xlink:href="#DejaVuSans-70" x="2237.398438"/>
     <use xlink:href="#DejaVuSans-31" x="2300.875"/>
     <use xlink:href="#DejaVuSans-2e" x="2364.498047"/>
     <use xlink:href="#DejaVuSans-77" x="2396.285156"/>
     <use xlink:href="#DejaVuSans-6c" x="2478.072266"/>
     <use xlink:href="#DejaVuSans-61" x="2505.855469"/>
     <use xlink:href="#DejaVuSans-6e" x="2567.134766"/>
     <use xlink:href="#DejaVuSans-5b" x="2630.513672"/>
     <use xlink:href="#DejaVuSans-30" x="2669.527344"/>
     <use xlink:href="#DejaVuSans-5d" x="2733.150391"/>
     <use xlink:href="#DejaVuSans-2e" x="2772.164062"/>
     <use xlink:href="#DejaVuSans-72" x="2803.951172"/>
     <use xlink:href="#DejaVuSans-61" x="2845.064453"/>
     <use xlink:href="#DejaVuSans-64" x="2906.34375"/>
     <use xlink:href="#DejaVuSans-69" x="2969.820312"/>
     <use xlink:href="#DejaVuSans-6f" x="2997.603516"/>
     <use xlink:href="#DejaVuSans-29" x="3058.785156"/>
    </g>
   </g>
   <g id="legend_1">
    <g id="patch_7">
     <path d="M 576.717187 145.299062 
L 702.2 145.299062 
Q 704.2 145.299062 704.2 143.299062 
L 704.2 129.620937 
Q 704.2 127.620937 702.2 127.620937 
L 576.717187 127.620937 
Q 574.717187 127.620937 574.717187 129.620937 
L 574.717187 143.299062 
Q 574.717187 145.299062 576.717187 145.299062 
z
" style="fill: #ffffff; opacity: 0.8; stroke: #cccccc; stroke-linejoin: miter"/>
    </g>
    <g id="line2d_24">
     <path d="M 578.717187 135.719375 
L 588.717187 135.719375 
L 598.717187 135.719375 
" style="fill: none; stroke: #1f77b4; stroke-width: 1.5; stroke-linecap: square"/>
    </g>
    <g id="text_15">
     <!-- value per sample -->
     <g transform="translate(606.717187 139.219375) scale(0.1 -0.1)">
      <defs>
       <path id="DejaVuSans-394" d="M 2188 4044 
L 906 525 
L 3472 525 
L 2188 4044 
z
M 50 0 
L 1831 4666 
L 2547 4666 
L 4325 0 
L 50 0 
z
" transform="scale(0.015625)"/>
      </defs>
      <use xlink:href="#DejaVuSans-394"/>
      <use xlink:href="#DejaVuSans-76" x="68.408203"/>
      <use xlink:href="#DejaVuSans-61" x="127.587891"/>
      <use xlink:href="#DejaVuSans-6c" x="188.867188"/>
      <use xlink:href="#DejaVuSans-75" x="216.650391"/>
      <use xlink:href="#DejaVuSans-65" x="280.029297"/>
      <use xlink:href="#DejaVuSans-20" x="341.552734"/>
      <use xlink:href="#DejaVuSans-70" x="373.339844"/>
      <use xlink:href="#DejaVuSans-65" x="436.816406"/>
      <use xlink:href="#DejaVuSans-72" x="498.339844"/>
      <use xlink:href="#DejaVuSans-20" x="539.453125"/>
      <use xlink:href="#DejaVuSans-73" x="571.240234"/>
      <use xlink:href="#DejaVuSans-61" x="623.339844"/>
      <use xlink:href="#DejaVuSans-6d" x="684.619141"/>
      <use xlink:href="#DejaVuSans-70" x="782.03125"/>
      <use xlink:href="#DejaVuSans-6c" x="845.507812"/>
      <use xlink:href="#DejaVuSans-65" x="873.291016"/>
     </g>
    </g>
   </g>
  </g>
 </g>
 <defs>
  <clipPath id="pff0f25e647">
   <rect x="54.02" y="26.88" width="655.18" height="219.16"/>
  </clipPath>
 </defs>
</svg>
