<?xml version="1.0" encoding="utf-8" standalone="no"?>
<!DOCTYPE svg PUBLIC "-//W3C//DTD SVG 1.1//EN"
  "http://www.w3.org/Graphics/SVG/1.1/DTD/svg11.dtd">
<svg xmlns:xlink="http://www.w3.org/1999/xlink" width="720pt" height="288pt" viewBox="0 0 720 288" xmlns="http://www.w3.org/2000/svg" version="1.1">
 <metadata>
  <rdf:RDF xmlns:dc="http://purl.org/dc/elements/1.1/" xmlns:cc="http://creativecommons.org/ns#" xmlns:rdf="http://www.w3.org/1999/02/22-rdf-syntax-ns#">
   <cc:Work>
    <dc:type rdf:resource="http://purl.org/dc/dcmitype/StillImage"/>
    <dc:date>2025-07-27T15:08:43.069112</dc:date>
    <dc:format>image/svg+xml</dc:format>
    <dc:creator>
     <cc:Agent>
      <dc:title>Matplotlib v3.9.2, https://matplotlib.org/</dc:title>
     </cc:Agent>
    </dc:creator>
   </cc:Work>
  </rdf:RDF>
 </metadata>
 <defs>
  <style type="text/css">*{stroke-linejoin: round; stroke-linecap: butt}</style>
 </defs>
 <g id="figure_1">
  <g id="patch_1">
   <path d="M 0 288 
L 720 288 
L 720 0 
L 0 0 
z
" style="fill: #ffffff"/>
  </g>
  <g id="axes_1">
   <g id="patch_2">
    <path d="M 54.02 246.04 
L 709.2 246.04 
L 709.2 26.88 
L 54.02 26.88 
z
" style="fill: #ffffff"/>
   </g>
   <g id="matplotlib.axis_1">
    <g id="xtick_1">
     <g id="line2d_1">
      <path d="M 83.800909 246.04 
L 83.800909 26.88 
" clip-path="url(#p4a5f78b0ed)" style="fill: none; stroke: #b0b0b0; stroke-width: 0.8; stroke-linecap: square"/>
     </g>
     <g id="line2d_2">
      <defs>
       <path id="mcc23b161fb" d="M 0 0 
L 0 3.5 
" style="stroke: #000000; stroke-width: 0.8"/>
      </defs>
      <g>
       <use xlink:href="#mcc23b161fb" x="83.800909" y="246.04" style="stroke: #000000; stroke-width: 0.8"/>
      </g>
     </g>
     <g id="text_1">
      <!-- 0 -->
      <g transform="translate(80.619659 260.638438) scale(0.1 -0.1)">
       <defs>
        <path id="DejaVuSans-30" d="M 2034 4250 
Q 1547 4250 1301 3770 
Q 1056 3291 1056 2328 
Q 1056 1369 1301 889 
Q 1547 409 2034 409 
Q 2525 409 2770 889 
Q 3016 1369 3016 2328 
Q 3016 3291 2770 3770 
Q 2525 4250 2034 4250 
z
M 2034 4750 
Q 2819 4750 3233 4129 
Q 3647 3509 3647 2328 
Q 3647 1150 3233 529 
Q 2819 -91 2034 -91 
Q 1250 -91 836 529 
Q 422 1150 422 2328 
Q 422 3509 836 4129 
Q 1250 4750 2034 4750 
z
" transform="scale(0.015625)"/>
       </defs>
       <use xlink:href="#DejaVuSans-30"/>
      </g>
     </g>
    </g>
    <g id="xtick_2">
     <g id="line2d_3">
      <path d="M 228.238715 246.04 
L 228.238715 26.88 
" clip-path="url(#p4a5f78b0ed)" style="fill: none; stroke: #b0b0b0; stroke-width: 0.8; stroke-linecap: square"/>
     </g>
     <g id="line2d_4">
      <g>
       <use xlink:href="#mcc23b161fb" x="228.238715" y="246.04" style="stroke: #000000; stroke-width: 0.8"/>
      </g>
     </g>
     <g id="text_2">
      <!-- 10000 -->
      <g transform="translate(212.332465 260.638438) scale(0.1 -0.1)">
       <defs>
        <path id="DejaVuSans-31" d="M 794 531 
L 1825 531 
L 1825 4091 
L 703 3866 
L 703 4441 
L 1819 4666 
L 2450 4666 
L 2450 531 
L 3481 531 
L 3481 0 
L 794 0 
L 794 531 
z
" transform="scale(0.015625)"/>
       </defs>
       <use xlink:href="#DejaVuSans-31"/>
       <use xlink:href="#DejaVuSans-30" x="63.623047"/>
       <use xlink:href="#DejaVuSans-30" x="127.246094"/>
       <use xlink:href="#DejaVuSans-30" x="190.869141"/>
       <use xlink:href="#DejaVuSans-30" x="254.492188"/>
      </g>
     </g>
    </g>
    <g id="xtick_3">
     <g id="line2d_5">
      <path d="M 372.676522 246.04 
L 372.676522 26.88 
" clip-path="url(#p4a5f78b0ed)" style="fill: none; stroke: #b0b0b0; stroke-width: 0.8; stroke-linecap: square"/>
     </g>
     <g id="line2d_6">
      <g>
       <use xlink:href="#mcc23b161fb" x="372.676522" y="246.04" style="stroke: #000000; stroke-width: 0.8"/>
      </g>
     </g>
     <g id="text_3">
      <!-- 20000 -->
      <g transform="translate(356.770272 260.638438) scale(0.1 -0.1)">
       <defs>
        <path id="DejaVuSans-32" d="M 1228 531 
L 3431 531 
L 3431 0 
L 469 0 
L 469 531 
Q 828 903 1448 1529 
Q 2069 2156 2228 2338 
Q 2531 2678 2651 2914 
Q 2772 3150 2772 3378 
Q 2772 3750 2511 3984 
Q 2250 4219 1831 4219 
Q 1534 4219 1204 4116 
Q 875 4013 500 3803 
L 500 4441 
Q 881 4594 1212 4672 
Q 1544 4750 1819 4750 
Q 2544 4750 2975 4387 
Q 3406 4025 3406 3419 
Q 3406 3131 3298 2873 
Q 3191 2616 2906 2266 
Q 2828 2175 2409 1742 
Q 1991 1309 1228 531 
z
" transform="scale(0.015625)"/>
       </defs>
       <use xlink:href="#DejaVuSans-32"/>
       <use xlink:href="#DejaVuSans-30" x="63.623047"/>
       <use xlink:href="#DejaVuSans-30" x="127.246094"/>
       <use xlink:href="#DejaVuSans-30" x="190.869141"/>
       <use xlink:href="#DejaVuSans-30" x="254.492188"/>
      </g>
     </g>
    </g>
    <g id="xtick_4">
     <g id="line2d_7">
      <path d="M 517.114328 246.04 
L 517.114328 26.88 
" clip-path="url(#p4a5f78b0ed)" style="fill: none; stroke: #b0b0b0; stroke-width: 0.8; stroke-linecap: square"/>
     </g>
     <g id="line2d_8">
      <g>
       <use xlink:href="#mcc23b161fb" x="517.114328" y="246.04" style="stroke: #000000; stroke-width: 0.8"/>
      </g>
     </g>
     <g id="text_4">
      <!-- 30000 -->
      <g transform="translate(501.208078 260.638438) scale(0.1 -0.1)">
       <defs>
        <path id="DejaVuSans-33" d="M 2597 2516 
Q 3050 2419 3304 2112 
Q 3559 1806 3559 1356 
Q 3559 666 3084 287 
Q 2609 -91 1734 -91 
Q 1441 -91 1130 -33 
Q 819 25 488 141 
L 488 750 
Q 750 597 1062 519 
Q 1375 441 1716 441 
Q 2309 441 2620 675 
Q 2931 909 2931 1356 
Q 2931 1769 2642 2001 
Q 2353 2234 1838 2234 
L 1294 2234 
L 1294 2753 
L 1863 2753 
Q 2328 2753 2575 2939 
Q 2822 3125 2822 3475 
Q 2822 3834 2567 4026 
Q 2313 4219 1838 4219 
Q 1578 4219 1281 4162 
Q 984 4106 628 3988 
L 628 4550 
Q 988 4650 1302 4700 
Q 1616 4750 1894 4750 
Q 2613 4750 3031 4423 
Q 3450 4097 3450 3541 
Q 3450 3153 3228 2886 
Q 3006 2619 2597 2516 
z
" transform="scale(0.015625)"/>
       </defs>
       <use xlink:href="#DejaVuSans-33"/>
       <use xlink:href="#DejaVuSans-30" x="63.623047"/>
       <use xlink:href="#DejaVuSans-30" x="127.246094"/>
       <use xlink:href="#DejaVuSans-30" x="190.869141"/>
       <use xlink:href="#DejaVuSans-30" x="254.492188"/>
      </g>
     </g>
    </g>
    <g id="xtick_5">
     <g id="line2d_9">
      <path d="M 661.552134 246.04 
L 661.552134 26.88 
" clip-path="url(#p4a5f78b0ed)" style="fill: none; stroke: #b0b0b0; stroke-width: 0.8; stroke-linecap: square"/>
     </g>
     <g id="line2d_10">
      <g>
       <use xlink:href="#mcc23b161fb" x="661.552134" y="246.04" style="stroke: #000000; stroke-width: 0.8"/>
      </g>
     </g>
     <g id="text_5">
      <!-- 40000 -->
      <g transform="translate(645.645884 260.638438) scale(0.1 -0.1)">
       <defs>
        <path id="DejaVuSans-34" d="M 2419 4116 
L 825 1625 
L 2419 1625 
L 2419 4116 
z
M 2253 4666 
L 3047 4666 
L 3047 1625 
L 3713 1625 
L 3713 1100 
L 3047 1100 
L 3047 0 
L 2419 0 
L 2419 1100 
L 313 1100 
L 313 1709 
L 2253 4666 
z
" transform="scale(0.015625)"/>
       </defs>
       <use xlink:href="#DejaVuSans-34"/>
       <use xlink:href="#DejaVuSans-30" x="63.623047"/>
       <use xlink:href="#DejaVuSans-30" x="127.246094"/>
       <use xlink:href="#DejaVuSans-30" x="190.869141"/>
       <use xlink:href="#DejaVuSans-30" x="254.492188"/>
      </g>
     </g>
    </g>
    <g id="text_6">
     <!-- Time (s) -->
     <g transform="translate(361.281094 274.316562) scale(0.1 -0.1)">
      <defs>
       <path id="DejaVuSans-54" d="M -19 4666 
L 3928 4666 
L 3928 4134 
L 2272 4134 
L 2272 0 
L 1638 0 
L 1638 4134 
L -19 4134 
L -19 4666 
z
" transform="scale(0.015625)"/>
       <path id="DejaVuSans-69" d="M 603 3500 
L 1178 3500 
L 1178 0 
L 603 0 
L 603 3500 
z
M 603 4863 
L 1178 4863 
L 1178 4134 
L 603 4134 
L 603 4863 
z
" transform="scale(0.015625)"/>
       <path id="DejaVuSans-6d" d="M 3328 2828 
Q 3544 3216 3844 3400 
Q 4144 3584 4550 3584 
Q 5097 3584 5394 3201 
Q 5691 2819 5691 2113 
L 5691 0 
L 5113 0 
L 5113 2094 
Q 5113 2597 4934 2840 
Q 4756 3084 4391 3084 
Q 3944 3084 3684 2787 
Q 3425 2491 3425 1978 
L 3425 0 
L 2847 0 
L 2847 2094 
Q 2847 2600 2669 2842 
Q 2491 3084 2119 3084 
Q 1678 3084 1418 2786 
Q 1159 2488 1159 1978 
L 1159 0 
L 581 0 
L 581 3500 
L 1159 3500 
L 1159 2956 
Q 1356 3278 1631 3431 
Q 1906 3584 2284 3584 
Q 2666 3584 2933 3390 
Q 3200 3197 3328 2828 
z
" transform="scale(0.015625)"/>
       <path id="DejaVuSans-65" d="M 3597 1894 
L 3597 1613 
L 953 1613 
Q 991 1019 1311 708 
Q 1631 397 2203 397 
Q 2534 397 2845 478 
Q 3156 559 3463 722 
L 3463 178 
Q 3153 47 2828 -22 
Q 2503 -91 2169 -91 
Q 1331 -91 842 396 
Q 353 884 353 1716 
Q 353 2575 817 3079 
Q 1281 3584 2069 3584 
Q 2775 3584 3186 3129 
Q 3597 2675 3597 1894 
z
M 3022 2063 
Q 3016 2534 2758 2815 
Q 2500 3097 2075 3097 
Q 1594 3097 1305 2825 
Q 1016 2553 972 2059 
L 3022 2063 
z
" transform="scale(0.015625)"/>
       <path id="DejaVuSans-20" transform="scale(0.015625)"/>
       <path id="DejaVuSans-28" d="M 1984 4856 
Q 1566 4138 1362 3434 
Q 1159 2731 1159 2009 
Q 1159 1288 1364 580 
Q 1569 -128 1984 -844 
L 1484 -844 
Q 1016 -109 783 600 
Q 550 1309 550 2009 
Q 550 2706 781 3412 
Q 1013 4119 1484 4856 
L 1984 4856 
z
" transform="scale(0.015625)"/>
       <path id="DejaVuSans-73" d="M 2834 3397 
L 2834 2853 
Q 2591 2978 2328 3040 
Q 2066 3103 1784 3103 
Q 1356 3103 1142 2972 
Q 928 2841 928 2578 
Q 928 2378 1081 2264 
Q 1234 2150 1697 2047 
L 1894 2003 
Q 2506 1872 2764 1633 
Q 3022 1394 3022 966 
Q 3022 478 2636 193 
Q 2250 -91 1575 -91 
Q 1294 -91 989 -36 
Q 684 19 347 128 
L 347 722 
Q 666 556 975 473 
Q 1284 391 1588 391 
Q 1994 391 2212 530 
Q 2431 669 2431 922 
Q 2431 1156 2273 1281 
Q 2116 1406 1581 1522 
L 1381 1569 
Q 847 1681 609 1914 
Q 372 2147 372 2553 
Q 372 3047 722 3315 
Q 1072 3584 1716 3584 
Q 2034 3584 2315 3537 
Q 2597 3491 2834 3397 
z
" transform="scale(0.015625)"/>
       <path id="DejaVuSans-29" d="M 513 4856 
L 1013 4856 
Q 1481 4119 1714 3412 
Q 1947 2706 1947 2009 
Q 1947 1309 1714 600 
Q 1481 -109 1013 -844 
L 513 -844 
Q 928 -128 1133 580 
Q 1338 1288 1338 2009 
Q 1338 2731 1133 3434 
Q 928 4138 513 4856 
z
" transform="scale(0.015625)"/>
      </defs>
      <use xlink:href="#DejaVuSans-54"/>
      <use xlink:href="#DejaVuSans-69" x="57.958984"/>
      <use xlink:href="#DejaVuSans-6d" x="85.742188"/>
      <use xlink:href="#DejaVuSans-65" x="183.154297"/>
      <use xlink:href="#DejaVuSans-20" x="244.677734"/>
      <use xlink:href="#DejaVuSans-28" x="276.464844"/>
      <use xlink:href="#DejaVuSans-73" x="315.478516"/>
      <use xlink:href="#DejaVuSans-29" x="367.578125"/>
     </g>
    </g>
   </g>
   <g id="matplotlib.axis_2">
    <g id="ytick_1">
     <g id="line2d_11">
      <path d="M 54.02 236.078182 
L 709.2 236.078182 
" clip-path="url(#p4a5f78b0ed)" style="fill: none; stroke: #b0b0b0; stroke-width: 0.8; stroke-linecap: square"/>
     </g>
     <g id="line2d_12">
      <defs>
       <path id="m94edfd3e48" d="M 0 0 
L -3.5 0 
" style="stroke: #000000; stroke-width: 0.8"/>
      </defs>
      <g>
       <use xlink:href="#m94edfd3e48" x="54.02" y="236.078182" style="stroke: #000000; stroke-width: 0.8"/>
      </g>
     </g>
     <g id="text_7">
      <!-- 0.00 -->
      <g transform="translate(24.754375 239.877401) scale(0.1 -0.1)">
       <defs>
        <path id="DejaVuSans-2e" d="M 684 794 
L 1344 794 
L 1344 0 
L 684 0 
L 684 794 
z
" transform="scale(0.015625)"/>
       </defs>
       <use xlink:href="#DejaVuSans-30"/>
       <use xlink:href="#DejaVuSans-2e" x="63.623047"/>
       <use xlink:href="#DejaVuSans-30" x="95.410156"/>
       <use xlink:href="#DejaVuSans-30" x="159.033203"/>
      </g>
     </g>
    </g>
    <g id="ytick_2">
     <g id="line2d_13">
      <path d="M 54.02 196.224851 
L 709.2 196.224851 
" clip-path="url(#p4a5f78b0ed)" style="fill: none; stroke: #b0b0b0; stroke-width: 0.8; stroke-linecap: square"/>
     </g>
     <g id="line2d_14">
      <g>
       <use xlink:href="#m94edfd3e48" x="54.02" y="196.224851" style="stroke: #000000; stroke-width: 0.8"/>
      </g>
     </g>
     <g id="text_8">
      <!-- 0.05 -->
      <g transform="translate(24.754375 200.02407) scale(0.1 -0.1)">
       <defs>
        <path id="DejaVuSans-35" d="M 691 4666 
L 3169 4666 
L 3169 4134 
L 1269 4134 
L 1269 2991 
Q 1406 3038 1543 3061 
Q 1681 3084 1819 3084 
Q 2600 3084 3056 2656 
Q 3513 2228 3513 1497 
Q 3513 744 3044 326 
Q 2575 -91 1722 -91 
Q 1428 -91 1123 -41 
Q 819 9 494 109 
L 494 744 
Q 775 591 1075 516 
Q 1375 441 1709 441 
Q 2250 441 2565 725 
Q 2881 1009 2881 1497 
Q 2881 1984 2565 2268 
Q 2250 2553 1709 2553 
Q 1456 2553 1204 2497 
Q 953 2441 691 2322 
L 691 4666 
z
" transform="scale(0.015625)"/>
       </defs>
       <use xlink:href="#DejaVuSans-30"/>
       <use xlink:href="#DejaVuSans-2e" x="63.623047"/>
       <use xlink:href="#DejaVuSans-30" x="95.410156"/>
       <use xlink:href="#DejaVuSans-35" x="159.033203"/>
      </g>
     </g>
    </g>
    <g id="ytick_3">
     <g id="line2d_15">
      <path d="M 54.02 156.371521 
L 709.2 156.371521 
" clip-path="url(#p4a5f78b0ed)" style="fill: none; stroke: #b0b0b0; stroke-width: 0.8; stroke-linecap: square"/>
     </g>
     <g id="line2d_16">
      <g>
       <use xlink:href="#m94edfd3e48" x="54.02" y="156.371521" style="stroke: #000000; stroke-width: 0.8"/>
      </g>
     </g>
     <g id="text_9">
      <!-- 0.10 -->
      <g transform="translate(24.754375 160.17074) scale(0.1 -0.1)">
       <use xlink:href="#DejaVuSans-30"/>
       <use xlink:href="#DejaVuSans-2e" x="63.623047"/>
       <use xlink:href="#DejaVuSans-31" x="95.410156"/>
       <use xlink:href="#DejaVuSans-30" x="159.033203"/>
      </g>
     </g>
    </g>
    <g id="ytick_4">
     <g id="line2d_17">
      <path d="M 54.02 116.518191 
L 709.2 116.518191 
" clip-path="url(#p4a5f78b0ed)" style="fill: none; stroke: #b0b0b0; stroke-width: 0.8; stroke-linecap: square"/>
     </g>
     <g id="line2d_18">
      <g>
       <use xlink:href="#m94edfd3e48" x="54.02" y="116.518191" style="stroke: #000000; stroke-width: 0.8"/>
      </g>
     </g>
     <g id="text_10">
      <!-- 0.15 -->
      <g transform="translate(24.754375 120.317409) scale(0.1 -0.1)">
       <use xlink:href="#DejaVuSans-30"/>
       <use xlink:href="#DejaVuSans-2e" x="63.623047"/>
       <use xlink:href="#DejaVuSans-31" x="95.410156"/>
       <use xlink:href="#DejaVuSans-35" x="159.033203"/>
      </g>
     </g>
    </g>
    <g id="ytick_5">
     <g id="line2d_19">
      <path d="M 54.02 76.66486 
L 709.2 76.66486 
" clip-path="url(#p4a5f78b0ed)" style="fill: none; stroke: #b0b0b0; stroke-width: 0.8; stroke-linecap: square"/>
     </g>
     <g id="line2d_20">
      <g>
       <use xlink:href="#m94edfd3e48" x="54.02" y="76.66486" style="stroke: #000000; stroke-width: 0.8"/>
      </g>
     </g>
     <g id="text_11">
      <!-- 0.20 -->
      <g transform="translate(24.754375 80.464079) scale(0.1 -0.1)">
       <use xlink:href="#DejaVuSans-30"/>
       <use xlink:href="#DejaVuSans-2e" x="63.623047"/>
       <use xlink:href="#DejaVuSans-32" x="95.410156"/>
       <use xlink:href="#DejaVuSans-30" x="159.033203"/>
      </g>
     </g>
    </g>
    <g id="ytick_6">
     <g id="line2d_21">
      <path d="M 54.02 36.81153 
L 709.2 36.81153 
" clip-path="url(#p4a5f78b0ed)" style="fill: none; stroke: #b0b0b0; stroke-width: 0.8; stroke-linecap: square"/>
     </g>
     <g id="line2d_22">
      <g>
       <use xlink:href="#m94edfd3e48" x="54.02" y="36.81153" style="stroke: #000000; stroke-width: 0.8"/>
      </g>
     </g>
     <g id="text_12">
      <!-- 0.25 -->
      <g transform="translate(24.754375 40.610748) scale(0.1 -0.1)">
       <use xlink:href="#DejaVuSans-30"/>
       <use xlink:href="#DejaVuSans-2e" x="63.623047"/>
       <use xlink:href="#DejaVuSans-32" x="95.410156"/>
       <use xlink:href="#DejaVuSans-35" x="159.033203"/>
      </g>
     </g>
    </g>
    <g id="text_13">
     <!-- Delta Value -->
     <g transform="translate(18.674688 165.120156) rotate(-90) scale(0.1 -0.1)">
      <defs>
       <path id="DejaVuSans-44" d="M 1259 4147 
L 1259 519 
L 2022 519 
Q 2988 519 3436 956 
Q 3884 1394 3884 2338 
Q 3884 3275 3436 3711 
Q 2988 4147 2022 4147 
L 1259 4147 
z
M 628 4666 
L 1925 4666 
Q 3281 4666 3915 4102 
Q 4550 3538 4550 2338 
Q 4550 1131 3912 565 
Q 3275 0 1925 0 
L 628 0 
L 628 4666 
z
" transform="scale(0.015625)"/>
       <path id="DejaVuSans-6c" d="M 603 4863 
L 1178 4863 
L 1178 0 
L 603 0 
L 603 4863 
z
" transform="scale(0.015625)"/>
       <path id="DejaVuSans-74" d="M 1172 4494 
L 1172 3500 
L 2356 3500 
L 2356 3053 
L 1172 3053 
L 1172 1153 
Q 1172 725 1289 603 
Q 1406 481 1766 481 
L 2356 481 
L 2356 0 
L 1766 0 
Q 1100 0 847 248 
Q 594 497 594 1153 
L 594 3053 
L 172 3053 
L 172 3500 
L 594 3500 
L 594 4494 
L 1172 4494 
z
" transform="scale(0.015625)"/>
       <path id="DejaVuSans-61" d="M 2194 1759 
Q 1497 1759 1228 1600 
Q 959 1441 959 1056 
Q 959 750 1161 570 
Q 1363 391 1709 391 
Q 2188 391 2477 730 
Q 2766 1069 2766 1631 
L 2766 1759 
L 2194 1759 
z
M 3341 1997 
L 3341 0 
L 2766 0 
L 2766 531 
Q 2569 213 2275 61 
Q 1981 -91 1556 -91 
Q 1019 -91 701 211 
Q 384 513 384 1019 
Q 384 1609 779 1909 
Q 1175 2209 1959 2209 
L 2766 2209 
L 2766 2266 
Q 2766 2663 2505 2880 
Q 2244 3097 1772 3097 
Q 1472 3097 1187 3025 
Q 903 2953 641 2809 
L 641 3341 
Q 956 3463 1253 3523 
Q 1550 3584 1831 3584 
Q 2591 3584 2966 3190 
Q 3341 2797 3341 1997 
z
" transform="scale(0.015625)"/>
       <path id="DejaVuSans-56" d="M 1831 0 
L 50 4666 
L 709 4666 
L 2188 738 
L 3669 4666 
L 4325 4666 
L 2547 0 
L 1831 0 
z
" transform="scale(0.015625)"/>
       <path id="DejaVuSans-75" d="M 544 1381 
L 544 3500 
L 1119 3500 
L 1119 1403 
Q 1119 906 1312 657 
Q 1506 409 1894 409 
Q 2359 409 2629 706 
Q 2900 1003 2900 1516 
L 2900 3500 
L 3475 3500 
L 3475 0 
L 2900 0 
L 2900 538 
Q 2691 219 2414 64 
Q 2138 -91 1772 -91 
Q 1169 -91 856 284 
Q 544 659 544 1381 
z
M 1991 3584 
L 1991 3584 
z
" transform="scale(0.015625)"/>
      </defs>
      <use xlink:href="#DejaVuSans-44"/>
      <use xlink:href="#DejaVuSans-65" x="77.001953"/>
      <use xlink:href="#DejaVuSans-6c" x="138.525391"/>
      <use xlink:href="#DejaVuSans-74" x="166.308594"/>
      <use xlink:href="#DejaVuSans-61" x="205.517578"/>
      <use xlink:href="#DejaVuSans-20" x="266.796875"/>
      <use xlink:href="#DejaVuSans-56" x="298.583984"/>
      <use xlink:href="#DejaVuSans-61" x="359.242188"/>
      <use xlink:href="#DejaVuSans-6c" x="420.521484"/>
      <use xlink:href="#DejaVuSans-75" x="448.304688"/>
      <use xlink:href="#DejaVuSans-65" x="511.683594"/>
     </g>
    </g>
   </g>
   <g id="line2d_23">
    <path d="M 83.800909 236.078182 
L 84.811974 85.225051 
L 84.811974 236.078182 
L 84.855305 236.078182 
L 84.941968 236.047893 
L 84.941968 236.078182 
L 86.473009 36.841818 
L 86.473009 236.078182 
L 86.51634 236.078182 
L 86.603003 236.047893 
L 86.603003 236.078182 
L 88.119599 36.841818 
L 88.119599 236.078182 
L 88.162931 236.078182 
L 88.249594 236.047893 
L 88.249594 236.078182 
L 90.271723 36.841818 
L 90.271723 236.078182 
L 90.315054 236.078182 
L 90.401717 236.047893 
L 90.401717 236.078182 
L 91.918314 36.841818 
L 91.918314 236.078182 
L 91.961645 236.078182 
L 92.048308 236.047893 
L 92.048308 236.078182 
L 93.608236 36.841818 
L 93.608236 236.078182 
L 93.651567 236.078182 
L 93.73823 236.047893 
L 93.73823 236.078182 
L 97.768045 36.841818 
L 97.768045 236.078182 
L 97.811376 236.078182 
L 97.898039 236.047893 
L 97.898039 236.078182 
L 99.226867 36.841818 
L 99.226867 236.078182 
L 99.270198 236.078182 
L 99.356861 236.047893 
L 99.356861 236.078182 
L 100.671245 36.841818 
L 100.671245 236.078182 
L 100.714576 236.078182 
L 100.801239 236.047893 
L 100.801239 236.078182 
L 102.130067 36.841818 
L 102.130067 236.078182 
L 102.173398 236.078182 
L 102.260061 236.047893 
L 102.260061 236.078182 
L 103.603332 36.841818 
L 103.603332 236.078182 
L 103.646664 236.078182 
L 103.733326 236.047893 
L 103.733326 236.078182 
L 105.062154 36.841818 
L 105.062154 236.078182 
L 105.105486 236.078182 
L 105.192148 236.047893 
L 105.192148 236.078182 
L 106.506532 36.841818 
L 106.506532 236.078182 
L 106.549864 236.078182 
L 106.636526 236.047893 
L 106.636526 236.078182 
L 107.965354 36.841818 
L 107.965354 236.078182 
L 108.008685 236.078182 
L 108.095348 236.047893 
L 108.095348 236.078182 
L 109.409732 36.841818 
L 109.409732 236.078182 
L 109.453063 236.078182 
L 109.539726 236.047893 
L 109.539726 236.078182 
L 110.897442 36.841818 
L 110.897442 236.078182 
L 110.940773 236.078182 
L 111.027436 236.047893 
L 111.027436 236.078182 
L 112.34182 36.841818 
L 112.34182 236.078182 
L 112.385151 236.078182 
L 112.471814 236.047893 
L 112.471814 236.078182 
L 113.800641 36.841818 
L 113.800641 236.078182 
L 113.843973 236.078182 
L 113.930635 236.047893 
L 113.930635 236.078182 
L 115.24502 36.841818 
L 115.24502 236.078182 
L 115.288351 236.078182 
L 115.375014 236.047893 
L 115.375014 236.078182 
L 116.703841 36.841818 
L 116.703841 236.078182 
L 116.747173 236.078182 
L 116.833835 236.047893 
L 116.833835 236.078182 
L 118.177107 36.841818 
L 118.177107 236.078182 
L 118.220438 236.078182 
L 118.307101 236.047893 
L 118.307101 236.078182 
L 119.635929 36.841818 
L 119.635929 236.078182 
L 119.67926 236.078182 
L 119.765923 236.047893 
L 119.765923 236.078182 
L 121.080307 36.841818 
L 121.080307 236.078182 
L 121.123638 236.078182 
L 121.210301 236.047893 
L 121.210301 236.078182 
L 122.539129 36.841818 
L 122.539129 236.078182 
L 122.58246 236.078182 
L 122.669123 236.047893 
L 122.669123 236.078182 
L 123.983507 36.841818 
L 123.983507 236.078182 
L 124.026838 236.078182 
L 124.113501 236.047893 
L 124.113501 236.078182 
L 125.471216 36.841818 
L 125.471216 236.078182 
L 125.514548 236.078182 
L 125.60121 236.047893 
L 125.60121 236.078182 
L 126.915594 36.841818 
L 126.915594 236.078182 
L 126.958926 236.078182 
L 127.045588 236.047893 
L 127.045588 236.078182 
L 128.374416 36.841818 
L 128.374416 236.078182 
L 128.417747 236.078182 
L 128.50441 236.047893 
L 128.50441 236.078182 
L 129.818794 36.841818 
L 129.818794 236.078182 
L 129.862126 236.078182 
L 129.948788 236.047893 
L 129.948788 236.078182 
L 131.277616 36.841818 
L 131.277616 236.078182 
L 131.320947 236.078182 
L 131.40761 236.047893 
L 131.40761 236.078182 
L 132.750882 36.841818 
L 132.750882 236.078182 
L 132.794213 236.078182 
L 132.880876 236.047893 
L 132.880876 236.078182 
L 134.209703 36.841818 
L 134.209703 236.078182 
L 134.253035 236.078182 
L 134.339698 236.047893 
L 134.339698 236.078182 
L 135.654082 36.841818 
L 135.654082 236.078182 
L 135.697413 236.078182 
L 135.784076 236.047893 
L 135.784076 236.078182 
L 137.112903 36.841818 
L 137.112903 236.078182 
L 137.156235 236.078182 
L 137.242897 236.047893 
L 137.242897 236.078182 
L 138.557281 36.841818 
L 138.557281 236.078182 
L 138.600613 236.078182 
L 138.687275 236.047893 
L 138.687275 236.078182 
L 140.044991 36.841818 
L 140.044991 236.078182 
L 140.088322 236.078182 
L 140.174985 236.047893 
L 140.174985 236.078182 
L 141.489369 36.841818 
L 141.489369 236.078182 
L 141.5327 236.078182 
L 141.619363 236.047893 
L 141.619363 236.078182 
L 142.948191 36.841818 
L 142.948191 236.078182 
L 142.991522 236.078182 
L 143.078185 236.047893 
L 143.078185 236.078182 
L 144.392569 36.841818 
L 144.392569 236.078182 
L 144.4359 236.078182 
L 144.522563 236.047893 
L 144.522563 236.078182 
L 145.851391 36.841818 
L 145.851391 236.078182 
L 145.894722 236.078182 
L 145.981385 236.047893 
L 145.981385 236.078182 
L 147.324656 36.841818 
L 147.324656 236.078182 
L 147.367988 236.078182 
L 147.45465 236.047893 
L 147.45465 236.078182 
L 148.783478 36.841818 
L 148.783478 236.078182 
L 148.826809 236.078182 
L 148.913472 236.047893 
L 148.913472 236.078182 
L 150.227856 36.841818 
L 150.227856 236.078182 
L 150.271188 236.078182 
L 150.35785 236.047893 
L 150.35785 236.078182 
L 151.686678 36.841818 
L 151.686678 236.078182 
L 151.730009 236.078182 
L 151.816672 236.047893 
L 151.816672 236.078182 
L 153.131056 36.841818 
L 153.131056 236.078182 
L 153.174387 236.078182 
L 153.26105 236.047893 
L 153.26105 236.078182 
L 154.618766 36.841818 
L 154.618766 236.078182 
L 154.662097 236.078182 
L 154.74876 236.047893 
L 154.74876 236.078182 
L 156.063144 36.841818 
L 156.063144 236.078182 
L 156.106475 236.078182 
L 156.193138 236.047893 
L 156.193138 236.078182 
L 157.521965 36.841818 
L 157.521965 236.078182 
L 157.565297 236.078182 
L 157.651959 236.047893 
L 157.651959 236.078182 
L 158.966343 36.841818 
L 158.966343 236.078182 
L 159.009675 236.078182 
L 159.096338 236.047893 
L 159.096338 236.078182 
L 160.425165 36.841818 
L 160.425165 236.078182 
L 160.468497 236.078182 
L 160.555159 236.047893 
L 160.555159 236.078182 
L 161.898431 36.841818 
L 161.898431 236.078182 
L 161.941762 236.078182 
L 162.028425 236.047893 
L 162.028425 236.078182 
L 163.357253 36.841818 
L 163.357253 236.078182 
L 163.400584 236.078182 
L 163.487247 236.047893 
L 163.487247 236.078182 
L 164.801631 36.841818 
L 164.801631 236.078182 
L 164.844962 236.078182 
L 164.931625 236.047893 
L 164.931625 236.078182 
L 166.260453 36.841818 
L 166.260453 236.078182 
L 166.303784 236.078182 
L 166.390447 236.047893 
L 166.390447 236.078182 
L 167.704831 36.841818 
L 167.704831 236.078182 
L 167.748162 236.078182 
L 167.834825 236.047893 
L 167.834825 236.078182 
L 169.19254 36.841818 
L 169.19254 236.078182 
L 169.235872 236.078182 
L 169.322534 236.047893 
L 169.322534 236.078182 
L 170.636918 36.841818 
L 170.636918 236.078182 
L 170.68025 236.078182 
L 170.766912 236.047893 
L 170.766912 236.078182 
L 172.09574 36.841818 
L 172.09574 236.078182 
L 172.139071 236.078182 
L 172.225734 236.047893 
L 172.225734 236.078182 
L 173.540118 36.841818 
L 173.540118 236.078182 
L 173.583449 236.078182 
L 173.670112 236.047893 
L 173.670112 236.078182 
L 174.99894 36.841818 
L 174.99894 236.078182 
L 175.042271 236.078182 
L 175.128934 236.047893 
L 175.128934 236.078182 
L 176.472206 36.841818 
L 176.472206 236.078182 
L 176.515537 236.078182 
L 176.6022 236.047893 
L 176.6022 236.078182 
L 177.931027 36.841818 
L 177.931027 236.078182 
L 177.974359 236.078182 
L 178.061021 236.047893 
L 178.061021 236.078182 
L 179.375406 36.841818 
L 179.375406 236.078182 
L 179.418737 236.078182 
L 179.5054 236.047893 
L 179.5054 236.078182 
L 180.834227 36.841818 
L 180.834227 236.078182 
L 180.877559 236.078182 
L 180.964221 236.047893 
L 180.964221 236.078182 
L 182.278605 36.841818 
L 182.278605 236.078182 
L 182.321937 236.078182 
L 182.408599 236.047893 
L 182.408599 236.078182 
L 183.766315 36.841818 
L 183.766315 236.078182 
L 183.809646 236.078182 
L 183.896309 236.047893 
L 183.896309 236.078182 
L 185.210693 36.841818 
L 185.210693 236.078182 
L 185.254024 236.078182 
L 185.340687 236.047893 
L 185.340687 236.078182 
L 186.669515 36.841818 
L 186.669515 236.078182 
L 186.712846 236.078182 
L 186.799509 236.047893 
L 186.799509 236.078182 
L 188.113893 36.841818 
L 188.113893 236.078182 
L 188.157224 236.078182 
L 188.243887 236.047893 
L 188.243887 236.078182 
L 189.572715 36.841818 
L 189.572715 236.078182 
L 189.616046 236.078182 
L 189.702709 236.047893 
L 189.702709 236.078182 
L 191.04598 36.841818 
L 191.04598 236.078182 
L 191.089312 236.078182 
L 191.175974 236.047893 
L 191.175974 236.078182 
L 192.504802 36.841818 
L 192.504802 236.078182 
L 192.548133 236.078182 
L 192.634796 236.047893 
L 192.634796 236.078182 
L 193.94918 36.841818 
L 193.94918 236.078182 
L 193.992512 236.078182 
L 194.079174 236.047893 
L 194.079174 236.078182 
L 195.408002 36.841818 
L 195.408002 236.078182 
L 195.451333 236.078182 
L 195.537996 236.047893 
L 195.537996 236.078182 
L 196.85238 36.841818 
L 196.85238 236.078182 
L 196.895711 236.078182 
L 196.982374 236.047893 
L 196.982374 236.078182 
L 198.340089 36.841818 
L 198.340089 236.078182 
L 198.383421 236.078182 
L 198.470084 236.047893 
L 198.470084 236.078182 
L 199.784468 36.841818 
L 199.784468 236.078182 
L 199.827799 236.078182 
L 199.914462 236.047893 
L 199.914462 236.078182 
L 201.243289 36.841818 
L 201.243289 236.078182 
L 201.286621 236.078182 
L 201.373283 236.047893 
L 201.373283 236.078182 
L 202.687667 36.841818 
L 202.687667 236.078182 
L 202.730999 236.078182 
L 202.817661 236.047893 
L 202.817661 236.078182 
L 204.146489 36.841818 
L 204.146489 236.078182 
L 204.189821 236.078182 
L 204.276483 236.047893 
L 204.276483 236.078182 
L 205.619755 36.841818 
L 205.619755 236.078182 
L 205.663086 236.078182 
L 205.749749 236.047893 
L 205.749749 236.078182 
L 207.078577 36.841818 
L 207.078577 236.078182 
L 207.121908 236.078182 
L 207.208571 236.047893 
L 207.208571 236.078182 
L 208.522955 36.841818 
L 208.522955 236.078182 
L 208.566286 236.078182 
L 208.652949 236.047893 
L 208.652949 236.078182 
L 209.981777 36.841818 
L 209.981777 236.078182 
L 210.025108 236.078182 
L 210.111771 236.047893 
L 210.111771 236.078182 
L 211.426155 36.841818 
L 211.426155 236.078182 
L 211.469486 236.078182 
L 211.556149 236.047893 
L 211.556149 236.078182 
L 212.913864 36.841818 
L 212.913864 236.078182 
L 212.957195 236.078182 
L 213.043858 236.047893 
L 213.043858 236.078182 
L 214.358242 36.841818 
L 214.358242 236.078182 
L 214.401574 236.078182 
L 214.488236 236.047893 
L 214.488236 236.078182 
L 215.817064 36.841818 
L 215.817064 236.078182 
L 215.860395 236.078182 
L 215.947058 236.047893 
L 215.947058 236.078182 
L 217.261442 36.841818 
L 217.261442 236.078182 
L 217.304773 236.078182 
L 217.391436 236.047893 
L 217.391436 236.078182 
L 218.720264 36.841818 
L 218.720264 236.078182 
L 218.763595 236.078182 
L 218.850258 236.047893 
L 218.850258 236.078182 
L 220.19353 36.841818 
L 220.19353 236.078182 
L 220.236861 236.078182 
L 220.323524 236.047893 
L 220.323524 236.078182 
L 221.652351 36.841818 
L 221.652351 236.078182 
L 221.695683 236.078182 
L 221.782345 236.047893 
L 221.782345 236.078182 
L 223.096729 36.841818 
L 223.096729 236.078182 
L 223.140061 236.078182 
L 223.226724 236.047893 
L 223.226724 236.078182 
L 224.555551 36.841818 
L 224.555551 236.078182 
L 224.598883 236.078182 
L 224.685545 236.047893 
L 224.685545 236.078182 
L 225.999929 36.841818 
L 225.999929 236.078182 
L 226.043261 236.078182 
L 226.129923 236.047893 
L 226.129923 236.078182 
L 227.487639 36.841818 
L 227.487639 236.078182 
L 227.53097 236.078182 
L 227.617633 236.047893 
L 227.617633 236.078182 
L 228.932017 36.841818 
L 228.932017 236.078182 
L 228.975348 236.078182 
L 229.062011 236.047893 
L 229.062011 236.078182 
L 230.390839 36.841818 
L 230.390839 236.078182 
L 230.43417 236.078182 
L 230.520833 236.047893 
L 230.520833 236.078182 
L 231.835217 36.841818 
L 231.835217 236.078182 
L 231.878548 236.078182 
L 231.965211 236.047893 
L 231.965211 236.078182 
L 233.294039 36.841818 
L 233.294039 236.078182 
L 233.33737 236.078182 
L 233.424033 236.047893 
L 233.424033 236.078182 
L 234.767304 36.841818 
L 234.767304 236.078182 
L 234.810636 236.078182 
L 234.897298 236.047893 
L 234.897298 236.078182 
L 236.226126 36.841818 
L 236.226126 236.078182 
L 236.269457 236.078182 
L 236.35612 236.047893 
L 236.35612 236.078182 
L 237.670504 36.841818 
L 237.670504 236.078182 
L 237.713835 236.078182 
L 237.800498 236.047893 
L 237.800498 236.078182 
L 239.129326 36.841818 
L 239.129326 236.078182 
L 239.172657 236.078182 
L 239.25932 236.047893 
L 239.25932 236.078182 
L 240.573704 36.841818 
L 240.573704 236.078182 
L 240.617035 236.078182 
L 240.703698 236.047893 
L 240.703698 236.078182 
L 242.061413 36.841818 
L 242.061413 236.078182 
L 242.104745 236.078182 
L 242.191407 236.047893 
L 242.191407 236.078182 
L 243.505792 36.841818 
L 243.505792 236.078182 
L 243.549123 236.078182 
L 243.635786 236.047893 
L 243.635786 236.078182 
L 244.964613 36.841818 
L 244.964613 236.078182 
L 245.007945 236.078182 
L 245.094607 236.047893 
L 245.094607 236.078182 
L 246.408991 36.841818 
L 246.408991 236.078182 
L 246.452323 236.078182 
L 246.538985 236.047893 
L 246.538985 236.078182 
L 247.867813 36.841818 
L 247.867813 236.078182 
L 247.911145 236.078182 
L 247.997807 236.047893 
L 247.997807 236.078182 
L 249.341079 36.841818 
L 249.341079 236.078182 
L 249.38441 236.078182 
L 249.471073 236.047893 
L 249.471073 236.078182 
L 250.799901 36.841818 
L 250.799901 236.078182 
L 250.843232 236.078182 
L 250.929895 236.047893 
L 250.929895 236.078182 
L 252.244279 36.841818 
L 252.244279 236.078182 
L 252.28761 236.078182 
L 252.374273 236.047893 
L 252.374273 236.078182 
L 253.703101 36.841818 
L 253.703101 236.078182 
L 253.746432 236.078182 
L 253.833095 236.047893 
L 253.833095 236.078182 
L 255.147479 36.841818 
L 255.147479 236.078182 
L 255.19081 236.078182 
L 255.277473 236.047893 
L 255.277473 236.078182 
L 256.577413 36.841818 
L 256.577413 236.078182 
L 256.620744 236.078182 
L 256.707407 236.047893 
L 256.707407 236.078182 
L 258.20956 36.841818 
L 258.20956 236.078182 
L 258.252892 236.078182 
L 258.339554 236.047893 
L 258.339554 236.078182 
L 259.870595 36.841818 
L 259.870595 236.078182 
L 259.913926 236.078182 
L 260.000589 236.047893 
L 260.000589 236.078182 
L 261.488298 36.841818 
L 261.488298 236.078182 
L 261.53163 236.078182 
L 261.618292 236.047893 
L 261.618292 236.078182 
L 263.669309 36.841818 
L 263.669309 236.078182 
L 263.712641 236.078182 
L 263.799303 236.047893 
L 263.799303 236.078182 
L 265.171462 36.841818 
L 265.171462 236.078182 
L 265.214794 236.078182 
L 265.301456 236.047893 
L 265.301456 236.078182 
L 266.976935 36.841818 
L 266.976935 236.078182 
L 267.020266 236.078182 
L 267.309142 236.047893 
L 267.309142 236.078182 
L 270.948975 36.841818 
L 270.948975 236.078182 
L 270.992306 236.078182 
L 271.078969 236.047893 
L 271.078969 236.078182 
L 272.436684 36.841818 
L 272.436684 236.078182 
L 272.480015 236.078182 
L 272.566678 236.047893 
L 272.566678 236.078182 
L 273.852175 36.841818 
L 273.852175 236.078182 
L 273.895506 236.078182 
L 273.982169 236.047893 
L 273.982169 236.078182 
L 275.368772 36.841818 
L 275.368772 236.078182 
L 275.412103 236.078182 
L 275.498766 236.047893 
L 275.498766 236.078182 
L 276.784262 36.841818 
L 276.784262 236.078182 
L 276.827593 236.078182 
L 276.914256 236.047893 
L 276.914256 236.078182 
L 278.271971 36.841818 
L 278.271971 236.078182 
L 278.315303 236.078182 
L 278.401966 236.047893 
L 278.401966 236.078182 
L 279.687462 36.841818 
L 279.687462 236.078182 
L 279.730793 236.078182 
L 279.817456 236.047893 
L 279.817456 236.078182 
L 281.175171 36.841818 
L 281.175171 236.078182 
L 281.218503 236.078182 
L 281.305165 236.047893 
L 281.305165 236.078182 
L 282.619549 36.841818 
L 282.619549 236.078182 
L 282.662881 236.078182 
L 282.749543 236.047893 
L 282.749543 236.078182 
L 284.107259 36.841818 
L 284.107259 236.078182 
L 284.15059 236.078182 
L 284.237253 236.047893 
L 284.237253 236.078182 
L 285.522749 36.841818 
L 285.522749 236.078182 
L 285.566081 236.078182 
L 285.652743 236.047893 
L 285.652743 236.078182 
L 287.010459 36.841818 
L 287.010459 236.078182 
L 287.05379 236.078182 
L 287.140453 236.047893 
L 287.140453 236.078182 
L 288.425949 36.841818 
L 288.425949 236.078182 
L 288.469281 236.078182 
L 288.555943 236.047893 
L 288.555943 236.078182 
L 289.942546 36.841818 
L 289.942546 236.078182 
L 289.985878 236.078182 
L 290.07254 236.047893 
L 290.07254 236.078182 
L 291.358037 36.841818 
L 291.358037 236.078182 
L 291.401368 236.078182 
L 291.488031 236.047893 
L 291.488031 236.078182 
L 292.845746 36.841818 
L 292.845746 236.078182 
L 292.889077 236.078182 
L 292.97574 236.047893 
L 292.97574 236.078182 
L 294.261237 36.841818 
L 294.261237 236.078182 
L 294.304568 236.078182 
L 294.391231 236.047893 
L 294.391231 236.078182 
L 295.748946 36.841818 
L 295.748946 236.078182 
L 295.792277 236.078182 
L 295.87894 236.047893 
L 295.87894 236.078182 
L 297.193324 36.841818 
L 297.193324 236.078182 
L 297.236655 236.078182 
L 297.323318 236.047893 
L 297.323318 236.078182 
L 298.681034 36.841818 
L 298.681034 236.078182 
L 298.724365 236.078182 
L 298.811028 236.047893 
L 298.811028 236.078182 
L 300.096524 36.841818 
L 300.096524 236.078182 
L 300.139855 236.078182 
L 300.226518 236.047893 
L 300.226518 236.078182 
L 301.584233 36.841818 
L 301.584233 236.078182 
L 301.627565 236.078182 
L 301.714227 236.047893 
L 301.714227 236.078182 
L 302.999724 36.841818 
L 302.999724 236.078182 
L 303.043055 236.078182 
L 303.129718 236.047893 
L 303.129718 236.078182 
L 304.516321 36.841818 
L 304.516321 236.078182 
L 304.559652 236.078182 
L 304.646315 236.047893 
L 304.646315 236.078182 
L 305.931811 36.841818 
L 305.931811 236.078182 
L 305.975143 236.078182 
L 306.061805 236.047893 
L 306.061805 236.078182 
L 307.419521 36.841818 
L 307.419521 236.078182 
L 307.462852 236.078182 
L 307.549515 236.047893 
L 307.549515 236.078182 
L 308.835011 36.841818 
L 308.835011 236.078182 
L 308.878343 236.078182 
L 308.965005 236.047893 
L 308.965005 236.078182 
L 310.322721 36.841818 
L 310.322721 236.078182 
L 310.366052 236.078182 
L 310.452715 236.047893 
L 310.452715 236.078182 
L 311.767099 36.841818 
L 311.767099 236.078182 
L 311.81043 236.078182 
L 311.897093 236.047893 
L 311.897093 236.078182 
L 313.254808 36.841818 
L 313.254808 236.078182 
L 313.29814 236.078182 
L 313.384802 236.047893 
L 313.384802 236.078182 
L 314.670299 36.841818 
L 314.670299 236.078182 
L 314.71363 236.078182 
L 314.800293 236.047893 
L 314.800293 236.078182 
L 316.158008 36.841818 
L 316.158008 236.078182 
L 316.201339 236.078182 
L 316.288002 236.047893 
L 316.288002 236.078182 
L 317.573499 36.841818 
L 317.573499 236.078182 
L 317.61683 236.078182 
L 317.703493 236.047893 
L 317.703493 236.078182 
L 319.090096 36.841818 
L 319.090096 236.078182 
L 319.133427 236.078182 
L 319.22009 236.047893 
L 319.22009 236.078182 
L 320.505586 36.841818 
L 320.505586 236.078182 
L 320.548917 236.078182 
L 320.63558 236.047893 
L 320.63558 236.078182 
L 321.993295 36.841818 
L 321.993295 236.078182 
L 322.036627 236.078182 
L 322.123289 236.047893 
L 322.123289 236.078182 
L 323.408786 36.841818 
L 323.408786 236.078182 
L 323.452117 236.078182 
L 323.53878 236.047893 
L 323.53878 236.078182 
L 324.896495 36.841818 
L 324.896495 236.078182 
L 324.939827 236.078182 
L 325.026489 236.047893 
L 325.026489 236.078182 
L 326.340873 36.841818 
L 326.340873 236.078182 
L 326.384205 236.078182 
L 326.470867 236.047893 
L 326.470867 236.078182 
L 327.828583 36.841818 
L 327.828583 236.078182 
L 327.871914 236.078182 
L 327.958577 236.047893 
L 327.958577 236.078182 
L 329.244073 36.841818 
L 329.244073 236.078182 
L 329.287405 236.078182 
L 329.374067 236.047893 
L 329.374067 236.078182 
L 330.731783 36.841818 
L 330.731783 236.078182 
L 330.775114 236.078182 
L 330.861777 236.047893 
L 330.861777 236.078182 
L 332.147273 36.841818 
L 332.147273 236.078182 
L 332.190605 236.078182 
L 332.277267 236.047893 
L 332.277267 236.078182 
L 333.66387 36.841818 
L 333.66387 236.078182 
L 333.707202 236.078182 
L 333.793864 236.047893 
L 333.793864 236.078182 
L 335.079361 36.841818 
L 335.079361 236.078182 
L 335.122692 236.078182 
L 335.209355 236.047893 
L 335.209355 236.078182 
L 336.56707 36.841818 
L 336.56707 236.078182 
L 336.610401 236.078182 
L 336.697064 236.047893 
L 336.697064 236.078182 
L 337.982561 36.841818 
L 337.982561 236.078182 
L 338.025892 236.078182 
L 338.112555 236.047893 
L 338.112555 236.078182 
L 339.47027 36.841818 
L 339.47027 236.078182 
L 339.513601 236.078182 
L 339.600264 236.047893 
L 339.600264 236.078182 
L 340.914648 36.841818 
L 340.914648 236.078182 
L 340.957979 236.078182 
L 341.044642 236.047893 
L 341.044642 236.078182 
L 342.402357 36.841818 
L 342.402357 236.078182 
L 342.445689 236.078182 
L 342.532352 236.047893 
L 342.532352 236.078182 
L 343.817848 36.841818 
L 343.817848 236.078182 
L 343.861179 236.078182 
L 343.947842 236.047893 
L 343.947842 236.078182 
L 345.305557 36.841818 
L 345.305557 236.078182 
L 345.348889 236.078182 
L 345.435551 236.047893 
L 345.435551 236.078182 
L 346.721048 36.841818 
L 346.721048 236.078182 
L 346.764379 236.078182 
L 346.851042 236.047893 
L 346.851042 236.078182 
L 348.237645 36.841818 
L 348.237645 236.078182 
L 348.280976 236.078182 
L 348.367639 236.047893 
L 348.367639 236.078182 
L 349.653135 36.841818 
L 349.653135 236.078182 
L 349.696467 236.078182 
L 349.783129 236.047893 
L 349.783129 236.078182 
L 351.140845 36.841818 
L 351.140845 236.078182 
L 351.184176 236.078182 
L 351.270839 236.047893 
L 351.270839 236.078182 
L 352.556335 36.841818 
L 352.556335 236.078182 
L 352.599667 236.078182 
L 352.686329 236.047893 
L 352.686329 236.078182 
L 354.044045 36.841818 
L 354.044045 236.078182 
L 354.087376 236.078182 
L 354.174039 236.047893 
L 354.174039 236.078182 
L 355.488423 36.841818 
L 355.488423 236.078182 
L 355.531754 236.078182 
L 355.618417 236.047893 
L 355.618417 236.078182 
L 356.976132 36.841818 
L 356.976132 236.078182 
L 357.019463 236.078182 
L 357.106126 236.047893 
L 357.106126 236.078182 
L 358.391623 36.841818 
L 358.391623 236.078182 
L 358.434954 236.078182 
L 358.521617 236.047893 
L 358.521617 236.078182 
L 359.879332 36.841818 
L 359.879332 236.078182 
L 359.922663 236.078182 
L 360.009326 236.047893 
L 360.009326 236.078182 
L 361.32371 36.841818 
L 361.32371 236.078182 
L 361.367041 236.078182 
L 361.453704 236.047893 
L 361.453704 236.078182 
L 362.840307 36.841818 
L 362.840307 236.078182 
L 362.883638 236.078182 
L 362.970301 236.047893 
L 362.970301 236.078182 
L 364.255798 36.841818 
L 364.255798 236.078182 
L 364.299129 236.078182 
L 364.385792 236.047893 
L 364.385792 236.078182 
L 365.743507 36.841818 
L 365.743507 236.078182 
L 365.786838 236.078182 
L 365.873501 236.047893 
L 365.873501 236.078182 
L 367.158997 36.841818 
L 367.158997 236.078182 
L 367.202329 236.078182 
L 367.288992 236.047893 
L 367.288992 236.078182 
L 368.675594 36.841818 
L 368.675594 236.078182 
L 368.718926 236.078182 
L 368.805588 236.047893 
L 368.805588 236.078182 
L 370.119973 36.841818 
L 370.119973 236.078182 
L 370.163304 236.078182 
L 370.249967 236.047893 
L 370.249967 236.078182 
L 371.607682 36.841818 
L 371.607682 236.078182 
L 371.651013 236.078182 
L 371.737676 236.047893 
L 371.737676 236.078182 
L 373.023172 36.841818 
L 373.023172 236.078182 
L 373.066504 236.078182 
L 373.153166 236.047893 
L 373.153166 236.078182 
L 374.510882 36.841818 
L 374.510882 236.078182 
L 374.554213 236.078182 
L 374.640876 236.047893 
L 374.640876 236.078182 
L 375.95526 36.841818 
L 375.95526 236.078182 
L 375.998591 236.078182 
L 376.085254 236.047893 
L 376.085254 236.078182 
L 377.471857 36.841818 
L 377.471857 236.078182 
L 377.515188 236.078182 
L 377.601851 236.047893 
L 377.601851 236.078182 
L 378.887347 36.841818 
L 378.887347 236.078182 
L 378.930679 236.078182 
L 379.017341 236.047893 
L 379.017341 236.078182 
L 380.375057 36.841818 
L 380.375057 236.078182 
L 380.418388 236.078182 
L 380.505051 236.047893 
L 380.505051 236.078182 
L 381.790547 36.841818 
L 381.790547 236.078182 
L 381.833879 236.078182 
L 381.920541 236.047893 
L 381.920541 236.078182 
L 383.307144 36.841818 
L 383.307144 236.078182 
L 383.350476 236.078182 
L 383.437138 236.047893 
L 383.437138 236.078182 
L 384.751522 36.841818 
L 384.751522 236.078182 
L 384.794854 236.078182 
L 384.881516 236.047893 
L 384.881516 236.078182 
L 386.239232 36.841818 
L 386.239232 236.078182 
L 386.282563 236.078182 
L 386.369226 236.047893 
L 386.369226 236.078182 
L 387.654722 36.841818 
L 387.654722 236.078182 
L 387.698054 236.078182 
L 387.784716 236.047893 
L 387.784716 236.078182 
L 389.142432 36.841818 
L 389.142432 236.078182 
L 389.185763 236.078182 
L 389.272426 236.047893 
L 389.272426 236.078182 
L 390.58681 36.841818 
L 390.58681 236.078182 
L 390.630141 236.078182 
L 390.716804 236.047893 
L 390.716804 236.078182 
L 392.103407 36.841818 
L 392.103407 236.078182 
L 392.146738 236.078182 
L 392.233401 236.047893 
L 392.233401 236.078182 
L 393.518897 36.841818 
L 393.518897 236.078182 
L 393.562228 236.078182 
L 393.648891 236.047893 
L 393.648891 236.078182 
L 395.006607 36.841818 
L 395.006607 236.078182 
L 395.049938 236.078182 
L 395.136601 236.047893 
L 395.136601 236.078182 
L 396.422097 36.841818 
L 396.422097 236.078182 
L 396.465428 236.078182 
L 396.552091 236.047893 
L 396.552091 236.078182 
L 397.938694 36.841818 
L 397.938694 236.078182 
L 397.982025 236.078182 
L 398.068688 236.047893 
L 398.068688 236.078182 
L 399.383072 36.841818 
L 399.383072 236.078182 
L 399.426403 236.078182 
L 399.513066 236.047893 
L 399.513066 236.078182 
L 400.870781 36.841818 
L 400.870781 236.078182 
L 400.914113 236.078182 
L 401.000775 236.047893 
L 401.000775 236.078182 
L 402.286272 36.841818 
L 402.286272 236.078182 
L 402.329603 236.078182 
L 402.416266 236.047893 
L 402.416266 236.078182 
L 403.773981 36.841818 
L 403.773981 236.078182 
L 403.817313 236.078182 
L 403.903975 236.047893 
L 403.903975 236.078182 
L 405.218359 36.841818 
L 405.218359 236.078182 
L 405.261691 236.078182 
L 405.348353 236.047893 
L 405.348353 236.078182 
L 406.734956 36.841818 
L 406.734956 236.078182 
L 406.778288 236.078182 
L 406.86495 236.047893 
L 406.86495 236.078182 
L 408.150447 36.841818 
L 408.150447 236.078182 
L 408.193778 236.078182 
L 408.280441 236.047893 
L 408.280441 236.078182 
L 409.638156 36.841818 
L 409.638156 236.078182 
L 409.681488 236.078182 
L 409.76815 236.047893 
L 409.76815 236.078182 
L 411.053647 36.841818 
L 411.053647 236.078182 
L 411.096978 236.078182 
L 411.183641 236.047893 
L 411.183641 236.078182 
L 412.570244 36.841818 
L 412.570244 236.078182 
L 412.613575 236.078182 
L 412.700238 236.047893 
L 412.700238 236.078182 
L 414.014622 36.841818 
L 414.014622 236.078182 
L 414.057953 236.078182 
L 414.144616 236.047893 
L 414.144616 236.078182 
L 415.502331 36.841818 
L 415.502331 236.078182 
L 415.545663 236.078182 
L 415.632325 236.047893 
L 415.632325 236.078182 
L 416.917822 36.841818 
L 416.917822 236.078182 
L 416.961153 236.078182 
L 417.047816 236.047893 
L 417.047816 236.078182 
L 418.405531 36.841818 
L 418.405531 236.078182 
L 418.448862 236.078182 
L 418.535525 236.047893 
L 418.535525 236.078182 
L 419.849909 36.841818 
L 419.849909 236.078182 
L 419.893241 236.078182 
L 419.979903 236.047893 
L 419.979903 236.078182 
L 421.366506 36.841818 
L 421.366506 236.078182 
L 421.409838 236.078182 
L 421.4965 236.047893 
L 421.4965 236.078182 
L 422.781997 36.841818 
L 422.781997 236.078182 
L 422.825328 236.078182 
L 422.911991 236.047893 
L 422.911991 236.078182 
L 424.269706 36.841818 
L 424.269706 236.078182 
L 424.313037 236.078182 
L 424.3997 236.047893 
L 424.3997 236.078182 
L 425.685197 36.841818 
L 425.685197 236.078182 
L 425.728528 236.078182 
L 425.815191 236.047893 
L 425.815191 236.078182 
L 427.201794 36.841818 
L 427.201794 236.078182 
L 427.245125 236.078182 
L 427.331788 236.047893 
L 427.331788 236.078182 
L 428.646172 36.841818 
L 428.646172 236.078182 
L 428.689503 236.078182 
L 428.776166 236.047893 
L 428.776166 236.078182 
L 430.133881 36.841818 
L 430.133881 236.078182 
L 430.177212 236.078182 
L 430.263875 236.047893 
L 430.263875 236.078182 
L 431.549372 36.841818 
L 431.549372 236.078182 
L 431.592703 236.078182 
L 431.679366 236.047893 
L 431.679366 236.078182 
L 433.037081 36.841818 
L 433.037081 236.078182 
L 433.080412 236.078182 
L 433.167075 236.047893 
L 433.167075 236.078182 
L 434.481459 36.841818 
L 434.481459 236.078182 
L 434.52479 236.078182 
L 434.611453 236.047893 
L 434.611453 236.078182 
L 435.998056 36.841818 
L 435.998056 236.078182 
L 436.041387 236.078182 
L 436.12805 236.047893 
L 436.12805 236.078182 
L 437.413546 36.841818 
L 437.413546 236.078182 
L 437.456878 236.078182 
L 437.54354 236.047893 
L 437.54354 236.078182 
L 438.901256 36.841818 
L 438.901256 236.078182 
L 438.944587 236.078182 
L 439.03125 236.047893 
L 439.03125 236.078182 
L 440.316746 36.841818 
L 440.316746 236.078182 
L 440.360078 236.078182 
L 440.44674 236.047893 
L 440.44674 236.078182 
L 441.833343 36.841818 
L 441.833343 236.078182 
L 441.876675 236.078182 
L 441.963337 236.047893 
L 441.963337 236.078182 
L 443.277721 36.841818 
L 443.277721 236.078182 
L 443.321053 236.078182 
L 443.407715 236.047893 
L 443.407715 236.078182 
L 444.765431 36.841818 
L 444.765431 236.078182 
L 444.808762 236.078182 
L 444.895425 236.047893 
L 444.895425 236.078182 
L 446.180921 36.841818 
L 446.180921 236.078182 
L 446.224253 236.078182 
L 446.310915 236.047893 
L 446.310915 236.078182 
L 447.668631 36.841818 
L 447.668631 236.078182 
L 447.711962 236.078182 
L 447.798625 236.047893 
L 447.798625 236.078182 
L 449.113009 36.841818 
L 449.113009 236.078182 
L 449.15634 236.078182 
L 449.243003 236.047893 
L 449.243003 236.078182 
L 450.629606 36.841818 
L 450.629606 236.078182 
L 450.672937 236.078182 
L 450.7596 236.047893 
L 450.7596 236.078182 
L 452.045096 36.841818 
L 452.045096 236.078182 
L 452.088428 236.078182 
L 452.17509 236.047893 
L 452.17509 236.078182 
L 453.532806 36.841818 
L 453.532806 236.078182 
L 453.576137 236.078182 
L 453.6628 236.047893 
L 453.6628 236.078182 
L 454.948296 36.841818 
L 454.948296 236.078182 
L 454.991627 236.078182 
L 455.07829 236.047893 
L 455.07829 236.078182 
L 456.464893 36.841818 
L 456.464893 236.078182 
L 456.508224 236.078182 
L 456.594887 236.047893 
L 456.594887 236.078182 
L 457.909271 36.841818 
L 457.909271 236.078182 
L 457.952603 236.078182 
L 458.039265 236.047893 
L 458.039265 236.078182 
L 459.396981 36.841818 
L 459.396981 236.078182 
L 459.440312 236.078182 
L 459.526975 236.047893 
L 459.526975 236.078182 
L 460.812471 36.841818 
L 460.812471 236.078182 
L 460.855802 236.078182 
L 460.942465 236.047893 
L 460.942465 236.078182 
L 462.30018 36.841818 
L 462.30018 236.078182 
L 462.343512 236.078182 
L 462.430175 236.047893 
L 462.430175 236.078182 
L 463.744559 36.841818 
L 463.744559 236.078182 
L 463.78789 236.078182 
L 463.874553 236.047893 
L 463.874553 236.078182 
L 465.261156 36.841818 
L 465.261156 236.078182 
L 465.304487 236.078182 
L 465.39115 236.047893 
L 465.39115 236.078182 
L 466.676646 36.841818 
L 466.676646 236.078182 
L 466.719977 236.078182 
L 466.80664 236.047893 
L 466.80664 236.078182 
L 468.164355 36.841818 
L 468.164355 236.078182 
L 468.207687 236.078182 
L 468.294349 236.047893 
L 468.294349 236.078182 
L 469.579846 36.841818 
L 469.579846 236.078182 
L 469.623177 236.078182 
L 469.70984 236.047893 
L 469.70984 236.078182 
L 471.096443 36.841818 
L 471.096443 236.078182 
L 471.139774 236.078182 
L 471.226437 236.047893 
L 471.226437 236.078182 
L 472.540821 36.841818 
L 472.540821 236.078182 
L 472.584152 236.078182 
L 472.670815 236.047893 
L 472.670815 236.078182 
L 474.02853 36.841818 
L 474.02853 236.078182 
L 474.071862 236.078182 
L 474.158524 236.047893 
L 474.158524 236.078182 
L 475.444021 36.841818 
L 475.444021 236.078182 
L 475.487352 236.078182 
L 475.574015 236.047893 
L 475.574015 236.078182 
L 476.93173 36.841818 
L 476.93173 236.078182 
L 476.975062 236.078182 
L 477.061724 236.047893 
L 477.061724 236.078182 
L 478.347221 36.841818 
L 478.347221 236.078182 
L 478.390552 236.078182 
L 478.477215 236.047893 
L 478.477215 236.078182 
L 479.863818 36.841818 
L 479.863818 236.078182 
L 479.907149 236.078182 
L 479.993812 236.047893 
L 479.993812 236.078182 
L 481.279308 36.841818 
L 481.279308 236.078182 
L 481.32264 236.078182 
L 481.409302 236.047893 
L 481.409302 236.078182 
L 482.767018 36.841818 
L 482.767018 236.078182 
L 482.810349 236.078182 
L 482.897012 236.047893 
L 482.897012 236.078182 
L 484.182508 36.841818 
L 484.182508 236.078182 
L 484.225839 236.078182 
L 484.312502 236.047893 
L 484.312502 236.078182 
L 485.670218 36.841818 
L 485.670218 236.078182 
L 485.713549 236.078182 
L 485.800212 236.047893 
L 485.800212 236.078182 
L 487.114596 36.841818 
L 487.114596 236.078182 
L 487.157927 236.078182 
L 487.24459 236.047893 
L 487.24459 236.078182 
L 488.602305 36.841818 
L 488.602305 236.078182 
L 488.645636 236.078182 
L 488.732299 236.047893 
L 488.732299 236.078182 
L 490.017796 36.841818 
L 490.017796 236.078182 
L 490.061127 236.078182 
L 490.14779 236.047893 
L 490.14779 236.078182 
L 491.505505 36.841818 
L 491.505505 236.078182 
L 491.548836 236.078182 
L 491.635499 236.047893 
L 491.635499 236.078182 
L 492.920995 36.841818 
L 492.920995 236.078182 
L 492.964327 236.078182 
L 493.050989 236.047893 
L 493.050989 236.078182 
L 494.437592 36.841818 
L 494.437592 236.078182 
L 494.480924 236.078182 
L 494.567586 236.047893 
L 494.567586 236.078182 
L 495.853083 36.841818 
L 495.853083 236.078182 
L 495.896414 236.078182 
L 495.983077 236.047893 
L 495.983077 236.078182 
L 497.340792 36.841818 
L 497.340792 236.078182 
L 497.384124 236.078182 
L 497.470786 236.047893 
L 497.470786 236.078182 
L 498.756283 36.841818 
L 498.756283 236.078182 
L 498.799614 236.078182 
L 498.886277 236.047893 
L 498.886277 236.078182 
L 500.243992 36.841818 
L 500.243992 236.078182 
L 500.287324 236.078182 
L 500.373986 236.047893 
L 500.373986 236.078182 
L 501.68837 36.841818 
L 501.68837 236.078182 
L 501.731702 236.078182 
L 501.818364 236.047893 
L 501.818364 236.078182 
L 503.17608 36.841818 
L 503.17608 236.078182 
L 503.219411 236.078182 
L 503.306074 236.047893 
L 503.306074 236.078182 
L 504.59157 36.841818 
L 504.59157 236.078182 
L 504.634902 236.078182 
L 504.721564 236.047893 
L 504.721564 236.078182 
L 506.07928 36.841818 
L 506.07928 236.078182 
L 506.122611 236.078182 
L 506.209274 236.047893 
L 506.209274 236.078182 
L 507.49477 36.841818 
L 507.49477 236.078182 
L 507.538101 236.078182 
L 507.624764 236.047893 
L 507.624764 236.078182 
L 509.011367 36.841818 
L 509.011367 236.078182 
L 509.054698 236.078182 
L 509.141361 236.047893 
L 509.141361 236.078182 
L 510.426858 36.841818 
L 510.426858 236.078182 
L 510.470189 236.078182 
L 510.556852 236.047893 
L 510.556852 236.078182 
L 511.914567 36.841818 
L 511.914567 236.078182 
L 511.957898 236.078182 
L 512.044561 236.047893 
L 512.044561 236.078182 
L 513.330057 36.841818 
L 513.330057 236.078182 
L 513.373389 236.078182 
L 513.460051 236.047893 
L 513.460051 236.078182 
L 514.817767 36.841818 
L 514.817767 236.078182 
L 514.861098 236.078182 
L 514.947761 236.047893 
L 514.947761 236.078182 
L 516.262145 36.841818 
L 516.262145 236.078182 
L 516.305476 236.078182 
L 516.392139 236.047893 
L 516.392139 236.078182 
L 517.749854 36.841818 
L 517.749854 236.078182 
L 517.793186 236.078182 
L 517.879848 236.047893 
L 517.879848 236.078182 
L 519.165345 36.841818 
L 519.165345 236.078182 
L 519.208676 236.078182 
L 519.295339 236.047893 
L 519.295339 236.078182 
L 520.653054 36.841818 
L 520.653054 236.078182 
L 520.696386 236.078182 
L 520.783048 236.047893 
L 520.783048 236.078182 
L 522.068545 36.841818 
L 522.068545 236.078182 
L 522.111876 236.078182 
L 522.198539 236.047893 
L 522.198539 236.078182 
L 523.585142 36.841818 
L 523.585142 236.078182 
L 523.628473 236.078182 
L 523.715136 236.047893 
L 523.715136 236.078182 
L 525.000632 36.841818 
L 525.000632 236.078182 
L 525.043964 236.078182 
L 525.130626 236.047893 
L 525.130626 236.078182 
L 526.488342 36.841818 
L 526.488342 236.078182 
L 526.531673 236.078182 
L 526.618336 236.047893 
L 526.618336 236.078182 
L 527.903832 36.841818 
L 527.903832 236.078182 
L 527.947163 236.078182 
L 528.033826 236.047893 
L 528.033826 236.078182 
L 529.391542 36.841818 
L 529.391542 236.078182 
L 529.434873 236.078182 
L 529.521536 236.047893 
L 529.521536 236.078182 
L 530.83592 36.841818 
L 530.83592 236.078182 
L 530.879251 236.078182 
L 530.965914 236.047893 
L 530.965914 236.078182 
L 532.323629 36.841818 
L 532.323629 236.078182 
L 532.36696 236.078182 
L 532.453623 236.047893 
L 532.453623 236.078182 
L 533.739119 36.841818 
L 533.739119 236.078182 
L 533.782451 236.078182 
L 533.869114 236.047893 
L 533.869114 236.078182 
L 535.226829 36.841818 
L 535.226829 236.078182 
L 535.27016 236.078182 
L 535.356823 236.047893 
L 535.356823 236.078182 
L 536.642319 36.841818 
L 536.642319 236.078182 
L 536.685651 236.078182 
L 536.772313 236.047893 
L 536.772313 236.078182 
L 538.158916 36.841818 
L 538.158916 236.078182 
L 538.202248 236.078182 
L 538.28891 236.047893 
L 538.28891 236.078182 
L 539.574407 36.841818 
L 539.574407 236.078182 
L 539.617738 236.078182 
L 539.704401 236.047893 
L 539.704401 236.078182 
L 541.062116 36.841818 
L 541.062116 236.078182 
L 541.105448 236.078182 
L 541.19211 236.047893 
L 541.19211 236.078182 
L 542.477607 36.841818 
L 542.477607 236.078182 
L 542.520938 236.078182 
L 542.607601 236.047893 
L 542.607601 236.078182 
L 543.965316 36.841818 
L 543.965316 236.078182 
L 544.008648 236.078182 
L 544.09531 236.047893 
L 544.09531 236.078182 
L 545.409694 36.841818 
L 545.409694 236.078182 
L 545.453026 236.078182 
L 545.539688 236.047893 
L 545.539688 236.078182 
L 546.897404 36.841818 
L 546.897404 236.078182 
L 546.940735 236.078182 
L 547.027398 236.047893 
L 547.027398 236.078182 
L 548.312894 36.841818 
L 548.312894 236.078182 
L 548.356225 236.078182 
L 548.442888 236.047893 
L 548.442888 236.078182 
L 549.800604 36.841818 
L 549.800604 236.078182 
L 549.843935 236.078182 
L 549.930598 236.047893 
L 549.930598 236.078182 
L 551.216094 36.841818 
L 551.216094 236.078182 
L 551.259425 236.078182 
L 551.346088 236.047893 
L 551.346088 236.078182 
L 552.732691 36.841818 
L 552.732691 236.078182 
L 552.776022 236.078182 
L 552.862685 236.047893 
L 552.862685 236.078182 
L 554.148182 36.841818 
L 554.148182 236.078182 
L 554.191513 236.078182 
L 554.278176 236.047893 
L 554.278176 236.078182 
L 555.635891 36.841818 
L 555.635891 236.078182 
L 555.679222 236.078182 
L 555.765885 236.047893 
L 555.765885 236.078182 
L 557.051381 36.841818 
L 557.051381 236.078182 
L 557.094713 236.078182 
L 557.181375 236.047893 
L 557.181375 236.078182 
L 558.539091 36.841818 
L 558.539091 236.078182 
L 558.582422 236.078182 
L 558.669085 236.047893 
L 558.669085 236.078182 
L 559.983469 36.841818 
L 559.983469 236.078182 
L 560.0268 236.078182 
L 560.113463 236.047893 
L 560.113463 236.078182 
L 561.471178 36.841818 
L 561.471178 236.078182 
L 561.51451 236.078182 
L 561.601172 236.047893 
L 561.601172 236.078182 
L 562.886669 36.841818 
L 562.886669 236.078182 
L 562.93 236.078182 
L 563.016663 236.047893 
L 563.016663 236.078182 
L 564.374378 36.841818 
L 564.374378 236.078182 
L 564.41771 236.078182 
L 564.504372 236.047893 
L 564.504372 236.078182 
L 565.789869 36.841818 
L 565.789869 236.078182 
L 565.8332 236.078182 
L 565.919863 236.047893 
L 565.919863 236.078182 
L 567.306466 36.841818 
L 567.306466 236.078182 
L 567.349797 236.078182 
L 567.43646 236.047893 
L 567.43646 236.078182 
L 568.721956 36.841818 
L 568.721956 236.078182 
L 568.765288 236.078182 
L 568.85195 236.047893 
L 568.85195 236.078182 
L 570.209666 36.841818 
L 570.209666 236.078182 
L 570.252997 236.078182 
L 570.33966 236.047893 
L 570.33966 236.078182 
L 571.625156 36.841818 
L 571.625156 236.078182 
L 571.668487 236.078182 
L 571.75515 236.047893 
L 571.75515 236.078182 
L 573.112865 36.841818 
L 573.112865 236.078182 
L 573.156197 236.078182 
L 573.24286 236.047893 
L 573.24286 236.078182 
L 574.557244 36.841818 
L 574.557244 236.078182 
L 574.600575 236.078182 
L 574.687238 236.047893 
L 574.687238 236.078182 
L 576.044953 36.841818 
L 576.044953 236.078182 
L 576.088284 236.078182 
L 576.174947 236.047893 
L 576.174947 236.078182 
L 577.460443 36.841818 
L 577.460443 236.078182 
L 577.503775 236.078182 
L 577.590437 236.047893 
L 577.590437 236.078182 
L 578.948153 36.841818 
L 578.948153 236.078182 
L 578.991484 236.078182 
L 579.078147 236.047893 
L 579.078147 236.078182 
L 580.363643 36.841818 
L 580.363643 236.078182 
L 580.406975 236.078182 
L 580.493637 236.047893 
L 580.493637 236.078182 
L 581.88024 36.841818 
L 581.88024 236.078182 
L 581.923572 236.078182 
L 582.010234 236.047893 
L 582.010234 236.078182 
L 583.295731 36.841818 
L 583.295731 236.078182 
L 583.339062 236.078182 
L 583.425725 236.047893 
L 583.425725 236.078182 
L 584.78344 36.841818 
L 584.78344 236.078182 
L 584.826772 236.078182 
L 584.913434 236.047893 
L 584.913434 236.078182 
L 586.198931 36.841818 
L 586.198931 236.078182 
L 586.242262 236.078182 
L 586.328925 236.047893 
L 586.328925 236.078182 
L 587.68664 36.841818 
L 587.68664 236.078182 
L 587.729971 236.078182 
L 587.816634 236.047893 
L 587.816634 236.078182 
L 589.131018 36.841818 
L 589.131018 236.078182 
L 589.17435 236.078182 
L 589.261012 236.047893 
L 589.261012 236.078182 
L 590.618728 36.841818 
L 590.618728 236.078182 
L 590.662059 236.078182 
L 590.748722 236.047893 
L 590.748722 236.078182 
L 592.034218 36.841818 
L 592.034218 236.078182 
L 592.077549 236.078182 
L 592.164212 236.047893 
L 592.164212 236.078182 
L 593.521928 36.841818 
L 593.521928 236.078182 
L 593.565259 236.078182 
L 593.651922 236.047893 
L 593.651922 236.078182 
L 594.937418 36.841818 
L 594.937418 236.078182 
L 594.980749 236.078182 
L 595.067412 236.047893 
L 595.067412 236.078182 
L 596.454015 36.841818 
L 596.454015 236.078182 
L 596.497346 236.078182 
L 596.584009 236.047893 
L 596.584009 236.078182 
L 597.869505 36.841818 
L 597.869505 236.078182 
L 597.912837 236.078182 
L 597.9995 236.047893 
L 597.9995 236.078182 
L 599.357215 36.841818 
L 599.357215 236.078182 
L 599.400546 236.078182 
L 599.487209 236.047893 
L 599.487209 236.078182 
L 600.772705 36.841818 
L 600.772705 236.078182 
L 600.816037 236.078182 
L 600.902699 236.047893 
L 600.902699 236.078182 
L 602.260415 36.841818 
L 602.260415 236.078182 
L 602.303746 236.078182 
L 602.390409 236.047893 
L 602.390409 236.078182 
L 603.704793 36.841818 
L 603.704793 236.078182 
L 603.748124 236.078182 
L 603.834787 236.047893 
L 603.834787 236.078182 
L 605.192502 36.841818 
L 605.192502 236.078182 
L 605.235834 236.078182 
L 605.322496 236.047893 
L 605.322496 236.078182 
L 606.607993 36.841818 
L 606.607993 236.078182 
L 606.651324 236.078182 
L 606.737987 236.047893 
L 606.737987 236.078182 
L 608.095702 36.841818 
L 608.095702 236.078182 
L 608.139034 236.078182 
L 608.225696 236.047893 
L 608.225696 236.078182 
L 609.511193 36.841818 
L 609.511193 236.078182 
L 609.554524 236.078182 
L 609.641187 236.047893 
L 609.641187 236.078182 
L 610.970015 36.841818 
L 610.970015 236.078182 
L 611.013346 236.078182 
L 611.100009 236.047893 
L 611.100009 236.078182 
L 612.602162 36.841818 
L 612.602162 236.078182 
L 612.645493 236.078182 
L 612.732156 236.047893 
L 612.732156 236.078182 
L 614.263196 36.841818 
L 614.263196 236.078182 
L 614.306528 236.078182 
L 614.393191 236.047893 
L 614.393191 236.078182 
L 616.400876 36.841818 
L 616.400876 236.078182 
L 616.444207 236.078182 
L 616.53087 236.047893 
L 616.53087 236.078182 
L 617.874142 36.841818 
L 617.874142 236.078182 
L 617.917473 236.078182 
L 618.004136 236.047893 
L 618.004136 236.078182 
L 619.520733 36.841818 
L 619.520733 236.078182 
L 619.564064 236.078182 
L 619.650727 236.047893 
L 619.650727 236.078182 
L 621.181767 36.841818 
L 621.181767 236.078182 
L 621.225099 236.078182 
L 621.311761 236.047893 
L 621.311761 236.078182 
L 625.370464 36.841818 
L 625.370464 236.078182 
L 625.413795 236.078182 
L 625.500458 236.047893 
L 625.500458 236.078182 
L 626.829286 36.841818 
L 626.829286 236.078182 
L 626.872617 236.078182 
L 626.95928 236.047893 
L 626.95928 236.078182 
L 628.273664 36.841818 
L 628.273664 236.078182 
L 628.316995 236.078182 
L 628.403658 236.047893 
L 628.403658 236.078182 
L 629.761373 36.841818 
L 629.761373 236.078182 
L 629.804704 236.078182 
L 629.891367 236.047893 
L 629.891367 236.078182 
L 631.205751 36.841818 
L 631.205751 236.078182 
L 631.249083 236.078182 
L 631.335745 236.047893 
L 631.335745 236.078182 
L 632.664573 36.841818 
L 632.664573 236.078182 
L 632.707904 236.078182 
L 632.794567 236.047893 
L 632.794567 236.078182 
L 634.108951 36.841818 
L 634.108951 236.078182 
L 634.152282 236.078182 
L 634.238945 236.047893 
L 634.238945 236.078182 
L 635.567773 36.841818 
L 635.567773 236.078182 
L 635.611104 236.078182 
L 635.697767 236.047893 
L 635.697767 236.078182 
L 637.041039 36.841818 
L 637.041039 236.078182 
L 637.08437 236.078182 
L 637.171033 236.047893 
L 637.171033 236.078182 
L 638.49986 36.841818 
L 638.49986 236.078182 
L 638.543192 236.078182 
L 638.629854 236.047893 
L 638.629854 236.078182 
L 639.944238 36.841818 
L 639.944238 236.078182 
L 639.98757 236.078182 
L 640.074232 236.047893 
L 640.074232 236.078182 
L 641.40306 36.841818 
L 641.40306 236.078182 
L 641.446392 236.078182 
L 641.533054 236.047893 
L 641.533054 236.078182 
L 642.847438 36.841818 
L 642.847438 236.078182 
L 642.89077 236.078182 
L 642.977432 236.047893 
L 642.977432 236.078182 
L 644.335148 36.841818 
L 644.335148 236.078182 
L 644.378479 236.078182 
L 644.465142 236.047893 
L 644.465142 236.078182 
L 645.779526 36.841818 
L 645.779526 236.078182 
L 645.822857 236.078182 
L 645.90952 236.047893 
L 645.90952 236.078182 
L 647.238348 36.841818 
L 647.238348 236.078182 
L 647.281679 236.078182 
L 647.368342 236.047893 
L 647.368342 236.078182 
L 648.682726 36.841818 
L 648.682726 236.078182 
L 648.726057 236.078182 
L 648.81272 236.047893 
L 648.81272 236.078182 
L 650.141548 36.841818 
L 650.141548 236.078182 
L 650.184879 236.078182 
L 650.271542 236.047893 
L 650.271542 236.078182 
L 651.614813 36.841818 
L 651.614813 236.078182 
L 651.658145 236.078182 
L 651.744807 236.047893 
L 651.744807 236.078182 
L 653.073635 36.841818 
L 653.073635 236.078182 
L 653.116966 236.078182 
L 653.203629 236.047893 
L 653.203629 236.078182 
L 654.518013 36.841818 
L 654.518013 236.078182 
L 654.561344 236.078182 
L 654.648007 236.047893 
L 654.648007 236.078182 
L 655.976835 36.841818 
L 655.976835 236.078182 
L 656.020166 236.078182 
L 656.106829 236.047893 
L 656.106829 236.078182 
L 657.421213 36.841818 
L 657.421213 236.078182 
L 657.464544 236.078182 
L 657.551207 236.047893 
L 657.551207 236.078182 
L 658.908922 36.841818 
L 658.908922 236.078182 
L 658.952254 236.078182 
L 659.038916 236.047893 
L 659.038916 236.078182 
L 660.3533 36.841818 
L 660.3533 236.078182 
L 660.396632 236.078182 
L 660.483295 236.047893 
L 660.483295 236.078182 
L 661.812122 36.841818 
L 661.812122 236.078182 
L 661.855454 236.078182 
L 661.942116 236.047893 
L 661.942116 236.078182 
L 663.2565 36.841818 
L 663.2565 236.078182 
L 663.299832 236.078182 
L 663.386494 236.047893 
L 663.386494 236.078182 
L 664.715322 36.841818 
L 664.715322 236.078182 
L 664.758654 236.078182 
L 664.845316 236.047893 
L 664.845316 236.078182 
L 666.188588 36.841818 
L 666.188588 236.078182 
L 666.231919 236.078182 
L 666.318582 236.047893 
L 666.318582 236.078182 
L 667.64741 36.841818 
L 667.64741 236.078182 
L 667.690741 236.078182 
L 667.777404 236.047893 
L 667.777404 236.078182 
L 669.091788 36.841818 
L 669.091788 236.078182 
L 669.135119 236.078182 
L 669.221782 236.047893 
L 669.221782 236.078182 
L 670.55061 36.841818 
L 670.55061 236.078182 
L 670.593941 236.078182 
L 670.680604 236.047893 
L 670.680604 236.078182 
L 671.994988 36.841818 
L 671.994988 236.078182 
L 672.038319 236.078182 
L 672.124982 236.047893 
L 672.124982 236.078182 
L 673.482697 36.841818 
L 673.482697 236.078182 
L 673.526028 236.078182 
L 673.612691 236.047893 
L 673.612691 236.078182 
L 674.927075 36.841818 
L 674.927075 236.078182 
L 674.970406 236.078182 
L 675.057069 236.047893 
L 675.057069 236.078182 
L 676.385897 36.841818 
L 676.385897 236.078182 
L 676.429228 236.078182 
L 676.515891 236.047893 
L 676.515891 236.078182 
L 677.830275 36.841818 
L 677.830275 236.078182 
L 677.873606 236.078182 
L 677.960269 236.047893 
L 677.960269 236.078182 
L 679.289097 36.841818 
L 679.289097 236.078182 
L 679.332428 236.078182 
L 679.419091 236.047893 
L 679.419091 236.078182 
" clip-path="url(#p4a5f78b0ed)" style="fill: none; stroke: #1f77b4; stroke-width: 1.5; stroke-linecap: square"/>
   </g>
   <g id="patch_3">
    <path d="M 54.02 246.04 
L 54.02 26.88 
" style="fill: none; stroke: #000000; stroke-width: 0.8; stroke-linejoin: miter; stroke-linecap: square"/>
   </g>
   <g id="patch_4">
    <path d="M 709.2 246.04 
L 709.2 26.88 
" style="fill: none; stroke: #000000; stroke-width: 0.8; stroke-linejoin: miter; stroke-linecap: square"/>
   </g>
   <g id="patch_5">
    <path d="M 54.02 246.04 
L 709.2 246.04 
" style="fill: none; stroke: #000000; stroke-width: 0.8; stroke-linejoin: miter; stroke-linecap: square"/>
   </g>
   <g id="patch_6">
    <path d="M 54.02 26.88 
L 709.2 26.88 
" style="fill: none; stroke: #000000; stroke-width: 0.8; stroke-linejoin: miter; stroke-linecap: square"/>
   </g>
   <g id="text_14">
    <!-- stateChanged:vector (HandoverShowcase.host2.wlan[0].mac.dcf.channelAccess.contention) -->
    <g transform="translate(104.059375 20.88) scale(0.12 -0.12)">
     <defs>
      <path id="DejaVuSans-43" d="M 4122 4306 
L 4122 3641 
Q 3803 3938 3442 4084 
Q 3081 4231 2675 4231 
Q 1875 4231 1450 3742 
Q 1025 3253 1025 2328 
Q 1025 1406 1450 917 
Q 1875 428 2675 428 
Q 3081 428 3442 575 
Q 3803 722 4122 1019 
L 4122 359 
Q 3791 134 3420 21 
Q 3050 -91 2638 -91 
Q 1578 -91 968 557 
Q 359 1206 359 2328 
Q 359 3453 968 4101 
Q 1578 4750 2638 4750 
Q 3056 4750 3426 4639 
Q 3797 4528 4122 4306 
z
" transform="scale(0.015625)"/>
      <path id="DejaVuSans-68" d="M 3513 2113 
L 3513 0 
L 2938 0 
L 2938 2094 
Q 2938 2591 2744 2837 
Q 2550 3084 2163 3084 
Q 1697 3084 1428 2787 
Q 1159 2491 1159 1978 
L 1159 0 
L 581 0 
L 581 4863 
L 1159 4863 
L 1159 2956 
Q 1366 3272 1645 3428 
Q 1925 3584 2291 3584 
Q 2894 3584 3203 3211 
Q 3513 2838 3513 2113 
z
" transform="scale(0.015625)"/>
      <path id="DejaVuSans-6e" d="M 3513 2113 
L 3513 0 
L 2938 0 
L 2938 2094 
Q 2938 2591 2744 2837 
Q 2550 3084 2163 3084 
Q 1697 3084 1428 2787 
Q 1159 2491 1159 1978 
L 1159 0 
L 581 0 
L 581 3500 
L 1159 3500 
L 1159 2956 
Q 1366 3272 1645 3428 
Q 1925 3584 2291 3584 
Q 2894 3584 3203 3211 
Q 3513 2838 3513 2113 
z
" transform="scale(0.015625)"/>
      <path id="DejaVuSans-67" d="M 2906 1791 
Q 2906 2416 2648 2759 
Q 2391 3103 1925 3103 
Q 1463 3103 1205 2759 
Q 947 2416 947 1791 
Q 947 1169 1205 825 
Q 1463 481 1925 481 
Q 2391 481 2648 825 
Q 2906 1169 2906 1791 
z
M 3481 434 
Q 3481 -459 3084 -895 
Q 2688 -1331 1869 -1331 
Q 1566 -1331 1297 -1286 
Q 1028 -1241 775 -1147 
L 775 -588 
Q 1028 -725 1275 -790 
Q 1522 -856 1778 -856 
Q 2344 -856 2625 -561 
Q 2906 -266 2906 331 
L 2906 616 
Q 2728 306 2450 153 
Q 2172 0 1784 0 
Q 1141 0 747 490 
Q 353 981 353 1791 
Q 353 2603 747 3093 
Q 1141 3584 1784 3584 
Q 2172 3584 2450 3431 
Q 2728 3278 2906 2969 
L 2906 3500 
L 3481 3500 
L 3481 434 
z
" transform="scale(0.015625)"/>
      <path id="DejaVuSans-64" d="M 2906 2969 
L 2906 4863 
L 3481 4863 
L 3481 0 
L 2906 0 
L 2906 525 
Q 2725 213 2448 61 
Q 2172 -91 1784 -91 
Q 1150 -91 751 415 
Q 353 922 353 1747 
Q 353 2572 751 3078 
Q 1150 3584 1784 3584 
Q 2172 3584 2448 3432 
Q 2725 3281 2906 2969 
z
M 947 1747 
Q 947 1113 1208 752 
Q 1469 391 1925 391 
Q 2381 391 2643 752 
Q 2906 1113 2906 1747 
Q 2906 2381 2643 2742 
Q 2381 3103 1925 3103 
Q 1469 3103 1208 2742 
Q 947 2381 947 1747 
z
" transform="scale(0.015625)"/>
      <path id="DejaVuSans-3a" d="M 750 794 
L 1409 794 
L 1409 0 
L 750 0 
L 750 794 
z
M 750 3309 
L 1409 3309 
L 1409 2516 
L 750 2516 
L 750 3309 
z
" transform="scale(0.015625)"/>
      <path id="DejaVuSans-76" d="M 191 3500 
L 800 3500 
L 1894 563 
L 2988 3500 
L 3597 3500 
L 2284 0 
L 1503 0 
L 191 3500 
z
" transform="scale(0.015625)"/>
      <path id="DejaVuSans-63" d="M 3122 3366 
L 3122 2828 
Q 2878 2963 2633 3030 
Q 2388 3097 2138 3097 
Q 1578 3097 1268 2742 
Q 959 2388 959 1747 
Q 959 1106 1268 751 
Q 1578 397 2138 397 
Q 2388 397 2633 464 
Q 2878 531 3122 666 
L 3122 134 
Q 2881 22 2623 -34 
Q 2366 -91 2075 -91 
Q 1284 -91 818 406 
Q 353 903 353 1747 
Q 353 2603 823 3093 
Q 1294 3584 2113 3584 
Q 2378 3584 2631 3529 
Q 2884 3475 3122 3366 
z
" transform="scale(0.015625)"/>
      <path id="DejaVuSans-6f" d="M 1959 3097 
Q 1497 3097 1228 2736 
Q 959 2375 959 1747 
Q 959 1119 1226 758 
Q 1494 397 1959 397 
Q 2419 397 2687 759 
Q 2956 1122 2956 1747 
Q 2956 2369 2687 2733 
Q 2419 3097 1959 3097 
z
M 1959 3584 
Q 2709 3584 3137 3096 
Q 3566 2609 3566 1747 
Q 3566 888 3137 398 
Q 2709 -91 1959 -91 
Q 1206 -91 779 398 
Q 353 888 353 1747 
Q 353 2609 779 3096 
Q 1206 3584 1959 3584 
z
" transform="scale(0.015625)"/>
      <path id="DejaVuSans-72" d="M 2631 2963 
Q 2534 3019 2420 3045 
Q 2306 3072 2169 3072 
Q 1681 3072 1420 2755 
Q 1159 2438 1159 1844 
L 1159 0 
L 581 0 
L 581 3500 
L 1159 3500 
L 1159 2956 
Q 1341 3275 1631 3429 
Q 1922 3584 2338 3584 
Q 2397 3584 2469 3576 
Q 2541 3569 2628 3553 
L 2631 2963 
z
" transform="scale(0.015625)"/>
      <path id="DejaVuSans-48" d="M 628 4666 
L 1259 4666 
L 1259 2753 
L 3553 2753 
L 3553 4666 
L 4184 4666 
L 4184 0 
L 3553 0 
L 3553 2222 
L 1259 2222 
L 1259 0 
L 628 0 
L 628 4666 
z
" transform="scale(0.015625)"/>
      <path id="DejaVuSans-53" d="M 3425 4513 
L 3425 3897 
Q 3066 4069 2747 4153 
Q 2428 4238 2131 4238 
Q 1616 4238 1336 4038 
Q 1056 3838 1056 3469 
Q 1056 3159 1242 3001 
Q 1428 2844 1947 2747 
L 2328 2669 
Q 3034 2534 3370 2195 
Q 3706 1856 3706 1288 
Q 3706 609 3251 259 
Q 2797 -91 1919 -91 
Q 1588 -91 1214 -16 
Q 841 59 441 206 
L 441 856 
Q 825 641 1194 531 
Q 1563 422 1919 422 
Q 2459 422 2753 634 
Q 3047 847 3047 1241 
Q 3047 1584 2836 1778 
Q 2625 1972 2144 2069 
L 1759 2144 
Q 1053 2284 737 2584 
Q 422 2884 422 3419 
Q 422 4038 858 4394 
Q 1294 4750 2059 4750 
Q 2388 4750 2728 4690 
Q 3069 4631 3425 4513 
z
" transform="scale(0.015625)"/>
      <path id="DejaVuSans-77" d="M 269 3500 
L 844 3500 
L 1563 769 
L 2278 3500 
L 2956 3500 
L 3675 769 
L 4391 3500 
L 4966 3500 
L 4050 0 
L 3372 0 
L 2619 2869 
L 1863 0 
L 1184 0 
L 269 3500 
z
" transform="scale(0.015625)"/>
      <path id="DejaVuSans-5b" d="M 550 4863 
L 1875 4863 
L 1875 4416 
L 1125 4416 
L 1125 -397 
L 1875 -397 
L 1875 -844 
L 550 -844 
L 550 4863 
z
" transform="scale(0.015625)"/>
      <path id="DejaVuSans-5d" d="M 1947 4863 
L 1947 -844 
L 622 -844 
L 622 -397 
L 1369 -397 
L 1369 4416 
L 622 4416 
L 622 4863 
L 1947 4863 
z
" transform="scale(0.015625)"/>
      <path id="DejaVuSans-66" d="M 2375 4863 
L 2375 4384 
L 1825 4384 
Q 1516 4384 1395 4259 
Q 1275 4134 1275 3809 
L 1275 3500 
L 2222 3500 
L 2222 3053 
L 1275 3053 
L 1275 0 
L 697 0 
L 697 3053 
L 147 3053 
L 147 3500 
L 697 3500 
L 697 3744 
Q 697 4328 969 4595 
Q 1241 4863 1831 4863 
L 2375 4863 
z
" transform="scale(0.015625)"/>
      <path id="DejaVuSans-41" d="M 2188 4044 
L 1331 1722 
L 3047 1722 
L 2188 4044 
z
M 1831 4666 
L 2547 4666 
L 4325 0 
L 3669 0 
L 3244 1197 
L 1141 1197 
L 716 0 
L 50 0 
L 1831 4666 
z
" transform="scale(0.015625)"/>
     </defs>
     <use xlink:href="#DejaVuSans-73"/>
     <use xlink:href="#DejaVuSans-74" x="52.099609"/>
     <use xlink:href="#DejaVuSans-61" x="91.308594"/>
     <use xlink:href="#DejaVuSans-74" x="152.587891"/>
     <use xlink:href="#DejaVuSans-65" x="191.796875"/>
     <use xlink:href="#DejaVuSans-43" x="253.320312"/>
     <use xlink:href="#DejaVuSans-68" x="323.144531"/>
     <use xlink:href="#DejaVuSans-61" x="386.523438"/>
     <use xlink:href="#DejaVuSans-6e" x="447.802734"/>
     <use xlink:href="#DejaVuSans-67" x="511.181641"/>
     <use xlink:href="#DejaVuSans-65" x="574.658203"/>
     <use xlink:href="#DejaVuSans-64" x="636.181641"/>
     <use xlink:href="#DejaVuSans-3a" x="699.658203"/>
     <use xlink:href="#DejaVuSans-76" x="733.349609"/>
     <use xlink:href="#DejaVuSans-65" x="792.529297"/>
     <use xlink:href="#DejaVuSans-63" x="854.052734"/>
     <use xlink:href="#DejaVuSans-74" x="909.033203"/>
     <use xlink:href="#DejaVuSans-6f" x="948.242188"/>
     <use xlink:href="#DejaVuSans-72" x="1009.423828"/>
     <use xlink:href="#DejaVuSans-20" x="1050.537109"/>
     <use xlink:href="#DejaVuSans-28" x="1082.324219"/>
     <use xlink:href="#DejaVuSans-48" x="1121.337891"/>
     <use xlink:href="#DejaVuSans-61" x="1196.533203"/>
     <use xlink:href="#DejaVuSans-6e" x="1257.8125"/>
     <use xlink:href="#DejaVuSans-64" x="1321.191406"/>
     <use xlink:href="#DejaVuSans-6f" x="1384.667969"/>
     <use xlink:href="#DejaVuSans-76" x="1445.849609"/>
     <use xlink:href="#DejaVuSans-65" x="1505.029297"/>
     <use xlink:href="#DejaVuSans-72" x="1566.552734"/>
     <use xlink:href="#DejaVuSans-53" x="1607.666016"/>
     <use xlink:href="#DejaVuSans-68" x="1671.142578"/>
     <use xlink:href="#DejaVuSans-6f" x="1734.521484"/>
     <use xlink:href="#DejaVuSans-77" x="1795.703125"/>
     <use xlink:href="#DejaVuSans-63" x="1877.490234"/>
     <use xlink:href="#DejaVuSans-61" x="1932.470703"/>
     <use xlink:href="#DejaVuSans-73" x="1993.75"/>
     <use xlink:href="#DejaVuSans-65" x="2045.849609"/>
     <use xlink:href="#DejaVuSans-2e" x="2107.373047"/>
     <use xlink:href="#DejaVuSans-68" x="2139.160156"/>
     <use xlink:href="#DejaVuSans-6f" x="2202.539062"/>
     <use xlink:href="#DejaVuSans-73" x="2263.720703"/>
     <use xlink:href="#DejaVuSans-74" x="2315.820312"/>
     <use xlink:href="#DejaVuSans-32" x="2355.029297"/>
     <use xlink:href="#DejaVuSans-2e" x="2418.652344"/>
     <use xlink:href="#DejaVuSans-77" x="2450.439453"/>
     <use xlink:href="#DejaVuSans-6c" x="2532.226562"/>
     <use xlink:href="#DejaVuSans-61" x="2560.009766"/>
     <use xlink:href="#DejaVuSans-6e" x="2621.289062"/>
     <use xlink:href="#DejaVuSans-5b" x="2684.667969"/>
     <use xlink:href="#DejaVuSans-30" x="2723.681641"/>
     <use xlink:href="#DejaVuSans-5d" x="2787.304688"/>
     <use xlink:href="#DejaVuSans-2e" x="2826.318359"/>
     <use xlink:href="#DejaVuSans-6d" x="2858.105469"/>
     <use xlink:href="#DejaVuSans-61" x="2955.517578"/>
     <use xlink:href="#DejaVuSans-63" x="3016.796875"/>
     <use xlink:href="#DejaVuSans-2e" x="3071.777344"/>
     <use xlink:href="#DejaVuSans-64" x="3103.564453"/>
     <use xlink:href="#DejaVuSans-63" x="3167.041016"/>
     <use xlink:href="#DejaVuSans-66" x="3222.021484"/>
     <use xlink:href="#DejaVuSans-2e" x="3249.976562"/>
     <use xlink:href="#DejaVuSans-63" x="3281.763672"/>
     <use xlink:href="#DejaVuSans-68" x="3336.744141"/>
     <use xlink:href="#DejaVuSans-61" x="3400.123047"/>
     <use xlink:href="#DejaVuSans-6e" x="3461.402344"/>
     <use xlink:href="#DejaVuSans-6e" x="3524.78125"/>
     <use xlink:href="#DejaVuSans-65" x="3588.160156"/>
     <use xlink:href="#DejaVuSans-6c" x="3649.683594"/>
     <use xlink:href="#DejaVuSans-41" x="3677.466797"/>
     <use xlink:href="#DejaVuSans-63" x="3744.125"/>
     <use xlink:href="#DejaVuSans-63" x="3799.105469"/>
     <use xlink:href="#DejaVuSans-65" x="3854.085938"/>
     <use xlink:href="#DejaVuSans-73" x="3915.609375"/>
     <use xlink:href="#DejaVuSans-73" x="3967.708984"/>
     <use xlink:href="#DejaVuSans-2e" x="4019.808594"/>
     <use xlink:href="#DejaVuSans-63" x="4051.595703"/>
     <use xlink:href="#DejaVuSans-6f" x="4106.576172"/>
     <use xlink:href="#DejaVuSans-6e" x="4167.757812"/>
     <use xlink:href="#DejaVuSans-74" x="4231.136719"/>
     <use xlink:href="#DejaVuSans-65" x="4270.345703"/>
     <use xlink:href="#DejaVuSans-6e" x="4331.869141"/>
     <use xlink:href="#DejaVuSans-74" x="4395.248047"/>
     <use xlink:href="#DejaVuSans-69" x="4434.457031"/>
     <use xlink:href="#DejaVuSans-6f" x="4462.240234"/>
     <use xlink:href="#DejaVuSans-6e" x="4523.421875"/>
     <use xlink:href="#DejaVuSans-29" x="4586.800781"/>
    </g>
   </g>
   <g id="legend_1">
    <g id="patch_7">
     <path d="M 576.717187 145.299062 
L 702.2 145.299062 
Q 704.2 145.299062 704.2 143.299062 
L 704.2 129.620937 
Q 704.2 127.620937 702.2 127.620937 
L 576.717187 127.620937 
Q 574.717187 127.620937 574.717187 129.620937 
L 574.717187 143.299062 
Q 574.717187 145.299062 576.717187 145.299062 
z
" style="fill: #ffffff; opacity: 0.8; stroke: #cccccc; stroke-linejoin: miter"/>
    </g>
    <g id="line2d_24">
     <path d="M 578.717187 135.719375 
L 588.717187 135.719375 
L 598.717187 135.719375 
" style="fill: none; stroke: #1f77b4; stroke-width: 1.5; stroke-linecap: square"/>
    </g>
    <g id="text_15">
     <!-- value per sample -->
     <g transform="translate(606.717187 139.219375) scale(0.1 -0.1)">
      <defs>
       <path id="DejaVuSans-394" d="M 2188 4044 
L 906 525 
L 3472 525 
L 2188 4044 
z
M 50 0 
L 1831 4666 
L 2547 4666 
L 4325 0 
L 50 0 
z
" transform="scale(0.015625)"/>
       <path id="DejaVuSans-70" d="M 1159 525 
L 1159 -1331 
L 581 -1331 
L 581 3500 
L 1159 3500 
L 1159 2969 
Q 1341 3281 1617 3432 
Q 1894 3584 2278 3584 
Q 2916 3584 3314 3078 
Q 3713 2572 3713 1747 
Q 3713 922 3314 415 
Q 2916 -91 2278 -91 
Q 1894 -91 1617 61 
Q 1341 213 1159 525 
z
M 3116 1747 
Q 3116 2381 2855 2742 
Q 2594 3103 2138 3103 
Q 1681 3103 1420 2742 
Q 1159 2381 1159 1747 
Q 1159 1113 1420 752 
Q 1681 391 2138 391 
Q 2594 391 2855 752 
Q 3116 1113 3116 1747 
z
" transform="scale(0.015625)"/>
      </defs>
      <use xlink:href="#DejaVuSans-394"/>
      <use xlink:href="#DejaVuSans-76" x="68.408203"/>
      <use xlink:href="#DejaVuSans-61" x="127.587891"/>
      <use xlink:href="#DejaVuSans-6c" x="188.867188"/>
      <use xlink:href="#DejaVuSans-75" x="216.650391"/>
      <use xlink:href="#DejaVuSans-65" x="280.029297"/>
      <use xlink:href="#DejaVuSans-20" x="341.552734"/>
      <use xlink:href="#DejaVuSans-70" x="373.339844"/>
      <use xlink:href="#DejaVuSans-65" x="436.816406"/>
      <use xlink:href="#DejaVuSans-72" x="498.339844"/>
      <use xlink:href="#DejaVuSans-20" x="539.453125"/>
      <use xlink:href="#DejaVuSans-73" x="571.240234"/>
      <use xlink:href="#DejaVuSans-61" x="623.339844"/>
      <use xlink:href="#DejaVuSans-6d" x="684.619141"/>
      <use xlink:href="#DejaVuSans-70" x="782.03125"/>
      <use xlink:href="#DejaVuSans-6c" x="845.507812"/>
      <use xlink:href="#DejaVuSans-65" x="873.291016"/>
     </g>
    </g>
   </g>
  </g>
 </g>
 <defs>
  <clipPath id="p4a5f78b0ed">
   <rect x="54.02" y="26.88" width="655.18" height="219.16"/>
  </clipPath>
 </defs>
</svg>
