<?xml version="1.0" encoding="utf-8" standalone="no"?>
<!DOCTYPE svg PUBLIC "-//W3C//DTD SVG 1.1//EN"
  "http://www.w3.org/Graphics/SVG/1.1/DTD/svg11.dtd">
<svg xmlns:xlink="http://www.w3.org/1999/xlink" width="720pt" height="288pt" viewBox="0 0 720 288" xmlns="http://www.w3.org/2000/svg" version="1.1">
 <metadata>
  <rdf:RDF xmlns:dc="http://purl.org/dc/elements/1.1/" xmlns:cc="http://creativecommons.org/ns#" xmlns:rdf="http://www.w3.org/1999/02/22-rdf-syntax-ns#">
   <cc:Work>
    <dc:type rdf:resource="http://purl.org/dc/dcmitype/StillImage"/>
    <dc:date>2025-07-27T15:08:43.717983</dc:date>
    <dc:format>image/svg+xml</dc:format>
    <dc:creator>
     <cc:Agent>
      <dc:title>Matplotlib v3.9.2, https://matplotlib.org/</dc:title>
     </cc:Agent>
    </dc:creator>
   </cc:Work>
  </rdf:RDF>
 </metadata>
 <defs>
  <style type="text/css">*{stroke-linejoin: round; stroke-linecap: butt}</style>
 </defs>
 <g id="figure_1">
  <g id="patch_1">
   <path d="M 0 288 
L 720 288 
L 720 0 
L 0 0 
z
" style="fill: #ffffff"/>
  </g>
  <g id="axes_1">
   <g id="patch_2">
    <path d="M 54.02 246.04 
L 709.2 246.04 
L 709.2 26.88 
L 54.02 26.88 
z
" style="fill: #ffffff"/>
   </g>
   <g id="matplotlib.axis_1">
    <g id="xtick_1">
     <g id="line2d_1">
      <path d="M 83.800909 246.04 
L 83.800909 26.88 
" clip-path="url(#pe5a390fde0)" style="fill: none; stroke: #b0b0b0; stroke-width: 0.8; stroke-linecap: square"/>
     </g>
     <g id="line2d_2">
      <defs>
       <path id="mbdac4f24af" d="M 0 0 
L 0 3.5 
" style="stroke: #000000; stroke-width: 0.8"/>
      </defs>
      <g>
       <use xlink:href="#mbdac4f24af" x="83.800909" y="246.04" style="stroke: #000000; stroke-width: 0.8"/>
      </g>
     </g>
     <g id="text_1">
      <!-- 0 -->
      <g transform="translate(80.619659 260.638438) scale(0.1 -0.1)">
       <defs>
        <path id="DejaVuSans-30" d="M 2034 4250 
Q 1547 4250 1301 3770 
Q 1056 3291 1056 2328 
Q 1056 1369 1301 889 
Q 1547 409 2034 409 
Q 2525 409 2770 889 
Q 3016 1369 3016 2328 
Q 3016 3291 2770 3770 
Q 2525 4250 2034 4250 
z
M 2034 4750 
Q 2819 4750 3233 4129 
Q 3647 3509 3647 2328 
Q 3647 1150 3233 529 
Q 2819 -91 2034 -91 
Q 1250 -91 836 529 
Q 422 1150 422 2328 
Q 422 3509 836 4129 
Q 1250 4750 2034 4750 
z
" transform="scale(0.015625)"/>
       </defs>
       <use xlink:href="#DejaVuSans-30"/>
      </g>
     </g>
    </g>
    <g id="xtick_2">
     <g id="line2d_3">
      <path d="M 228.242218 246.04 
L 228.242218 26.88 
" clip-path="url(#pe5a390fde0)" style="fill: none; stroke: #b0b0b0; stroke-width: 0.8; stroke-linecap: square"/>
     </g>
     <g id="line2d_4">
      <g>
       <use xlink:href="#mbdac4f24af" x="228.242218" y="246.04" style="stroke: #000000; stroke-width: 0.8"/>
      </g>
     </g>
     <g id="text_2">
      <!-- 10000 -->
      <g transform="translate(212.335968 260.638438) scale(0.1 -0.1)">
       <defs>
        <path id="DejaVuSans-31" d="M 794 531 
L 1825 531 
L 1825 4091 
L 703 3866 
L 703 4441 
L 1819 4666 
L 2450 4666 
L 2450 531 
L 3481 531 
L 3481 0 
L 794 0 
L 794 531 
z
" transform="scale(0.015625)"/>
       </defs>
       <use xlink:href="#DejaVuSans-31"/>
       <use xlink:href="#DejaVuSans-30" x="63.623047"/>
       <use xlink:href="#DejaVuSans-30" x="127.246094"/>
       <use xlink:href="#DejaVuSans-30" x="190.869141"/>
       <use xlink:href="#DejaVuSans-30" x="254.492188"/>
      </g>
     </g>
    </g>
    <g id="xtick_3">
     <g id="line2d_5">
      <path d="M 372.683527 246.04 
L 372.683527 26.88 
" clip-path="url(#pe5a390fde0)" style="fill: none; stroke: #b0b0b0; stroke-width: 0.8; stroke-linecap: square"/>
     </g>
     <g id="line2d_6">
      <g>
       <use xlink:href="#mbdac4f24af" x="372.683527" y="246.04" style="stroke: #000000; stroke-width: 0.8"/>
      </g>
     </g>
     <g id="text_3">
      <!-- 20000 -->
      <g transform="translate(356.777277 260.638438) scale(0.1 -0.1)">
       <defs>
        <path id="DejaVuSans-32" d="M 1228 531 
L 3431 531 
L 3431 0 
L 469 0 
L 469 531 
Q 828 903 1448 1529 
Q 2069 2156 2228 2338 
Q 2531 2678 2651 2914 
Q 2772 3150 2772 3378 
Q 2772 3750 2511 3984 
Q 2250 4219 1831 4219 
Q 1534 4219 1204 4116 
Q 875 4013 500 3803 
L 500 4441 
Q 881 4594 1212 4672 
Q 1544 4750 1819 4750 
Q 2544 4750 2975 4387 
Q 3406 4025 3406 3419 
Q 3406 3131 3298 2873 
Q 3191 2616 2906 2266 
Q 2828 2175 2409 1742 
Q 1991 1309 1228 531 
z
" transform="scale(0.015625)"/>
       </defs>
       <use xlink:href="#DejaVuSans-32"/>
       <use xlink:href="#DejaVuSans-30" x="63.623047"/>
       <use xlink:href="#DejaVuSans-30" x="127.246094"/>
       <use xlink:href="#DejaVuSans-30" x="190.869141"/>
       <use xlink:href="#DejaVuSans-30" x="254.492188"/>
      </g>
     </g>
    </g>
    <g id="xtick_4">
     <g id="line2d_7">
      <path d="M 517.124836 246.04 
L 517.124836 26.88 
" clip-path="url(#pe5a390fde0)" style="fill: none; stroke: #b0b0b0; stroke-width: 0.8; stroke-linecap: square"/>
     </g>
     <g id="line2d_8">
      <g>
       <use xlink:href="#mbdac4f24af" x="517.124836" y="246.04" style="stroke: #000000; stroke-width: 0.8"/>
      </g>
     </g>
     <g id="text_4">
      <!-- 30000 -->
      <g transform="translate(501.218586 260.638438) scale(0.1 -0.1)">
       <defs>
        <path id="DejaVuSans-33" d="M 2597 2516 
Q 3050 2419 3304 2112 
Q 3559 1806 3559 1356 
Q 3559 666 3084 287 
Q 2609 -91 1734 -91 
Q 1441 -91 1130 -33 
Q 819 25 488 141 
L 488 750 
Q 750 597 1062 519 
Q 1375 441 1716 441 
Q 2309 441 2620 675 
Q 2931 909 2931 1356 
Q 2931 1769 2642 2001 
Q 2353 2234 1838 2234 
L 1294 2234 
L 1294 2753 
L 1863 2753 
Q 2328 2753 2575 2939 
Q 2822 3125 2822 3475 
Q 2822 3834 2567 4026 
Q 2313 4219 1838 4219 
Q 1578 4219 1281 4162 
Q 984 4106 628 3988 
L 628 4550 
Q 988 4650 1302 4700 
Q 1616 4750 1894 4750 
Q 2613 4750 3031 4423 
Q 3450 4097 3450 3541 
Q 3450 3153 3228 2886 
Q 3006 2619 2597 2516 
z
" transform="scale(0.015625)"/>
       </defs>
       <use xlink:href="#DejaVuSans-33"/>
       <use xlink:href="#DejaVuSans-30" x="63.623047"/>
       <use xlink:href="#DejaVuSans-30" x="127.246094"/>
       <use xlink:href="#DejaVuSans-30" x="190.869141"/>
       <use xlink:href="#DejaVuSans-30" x="254.492188"/>
      </g>
     </g>
    </g>
    <g id="xtick_5">
     <g id="line2d_9">
      <path d="M 661.566145 246.04 
L 661.566145 26.88 
" clip-path="url(#pe5a390fde0)" style="fill: none; stroke: #b0b0b0; stroke-width: 0.8; stroke-linecap: square"/>
     </g>
     <g id="line2d_10">
      <g>
       <use xlink:href="#mbdac4f24af" x="661.566145" y="246.04" style="stroke: #000000; stroke-width: 0.8"/>
      </g>
     </g>
     <g id="text_5">
      <!-- 40000 -->
      <g transform="translate(645.659895 260.638438) scale(0.1 -0.1)">
       <defs>
        <path id="DejaVuSans-34" d="M 2419 4116 
L 825 1625 
L 2419 1625 
L 2419 4116 
z
M 2253 4666 
L 3047 4666 
L 3047 1625 
L 3713 1625 
L 3713 1100 
L 3047 1100 
L 3047 0 
L 2419 0 
L 2419 1100 
L 313 1100 
L 313 1709 
L 2253 4666 
z
" transform="scale(0.015625)"/>
       </defs>
       <use xlink:href="#DejaVuSans-34"/>
       <use xlink:href="#DejaVuSans-30" x="63.623047"/>
       <use xlink:href="#DejaVuSans-30" x="127.246094"/>
       <use xlink:href="#DejaVuSans-30" x="190.869141"/>
       <use xlink:href="#DejaVuSans-30" x="254.492188"/>
      </g>
     </g>
    </g>
    <g id="text_6">
     <!-- Time (s) -->
     <g transform="translate(361.281094 274.316562) scale(0.1 -0.1)">
      <defs>
       <path id="DejaVuSans-54" d="M -19 4666 
L 3928 4666 
L 3928 4134 
L 2272 4134 
L 2272 0 
L 1638 0 
L 1638 4134 
L -19 4134 
L -19 4666 
z
" transform="scale(0.015625)"/>
       <path id="DejaVuSans-69" d="M 603 3500 
L 1178 3500 
L 1178 0 
L 603 0 
L 603 3500 
z
M 603 4863 
L 1178 4863 
L 1178 4134 
L 603 4134 
L 603 4863 
z
" transform="scale(0.015625)"/>
       <path id="DejaVuSans-6d" d="M 3328 2828 
Q 3544 3216 3844 3400 
Q 4144 3584 4550 3584 
Q 5097 3584 5394 3201 
Q 5691 2819 5691 2113 
L 5691 0 
L 5113 0 
L 5113 2094 
Q 5113 2597 4934 2840 
Q 4756 3084 4391 3084 
Q 3944 3084 3684 2787 
Q 3425 2491 3425 1978 
L 3425 0 
L 2847 0 
L 2847 2094 
Q 2847 2600 2669 2842 
Q 2491 3084 2119 3084 
Q 1678 3084 1418 2786 
Q 1159 2488 1159 1978 
L 1159 0 
L 581 0 
L 581 3500 
L 1159 3500 
L 1159 2956 
Q 1356 3278 1631 3431 
Q 1906 3584 2284 3584 
Q 2666 3584 2933 3390 
Q 3200 3197 3328 2828 
z
" transform="scale(0.015625)"/>
       <path id="DejaVuSans-65" d="M 3597 1894 
L 3597 1613 
L 953 1613 
Q 991 1019 1311 708 
Q 1631 397 2203 397 
Q 2534 397 2845 478 
Q 3156 559 3463 722 
L 3463 178 
Q 3153 47 2828 -22 
Q 2503 -91 2169 -91 
Q 1331 -91 842 396 
Q 353 884 353 1716 
Q 353 2575 817 3079 
Q 1281 3584 2069 3584 
Q 2775 3584 3186 3129 
Q 3597 2675 3597 1894 
z
M 3022 2063 
Q 3016 2534 2758 2815 
Q 2500 3097 2075 3097 
Q 1594 3097 1305 2825 
Q 1016 2553 972 2059 
L 3022 2063 
z
" transform="scale(0.015625)"/>
       <path id="DejaVuSans-20" transform="scale(0.015625)"/>
       <path id="DejaVuSans-28" d="M 1984 4856 
Q 1566 4138 1362 3434 
Q 1159 2731 1159 2009 
Q 1159 1288 1364 580 
Q 1569 -128 1984 -844 
L 1484 -844 
Q 1016 -109 783 600 
Q 550 1309 550 2009 
Q 550 2706 781 3412 
Q 1013 4119 1484 4856 
L 1984 4856 
z
" transform="scale(0.015625)"/>
       <path id="DejaVuSans-73" d="M 2834 3397 
L 2834 2853 
Q 2591 2978 2328 3040 
Q 2066 3103 1784 3103 
Q 1356 3103 1142 2972 
Q 928 2841 928 2578 
Q 928 2378 1081 2264 
Q 1234 2150 1697 2047 
L 1894 2003 
Q 2506 1872 2764 1633 
Q 3022 1394 3022 966 
Q 3022 478 2636 193 
Q 2250 -91 1575 -91 
Q 1294 -91 989 -36 
Q 684 19 347 128 
L 347 722 
Q 666 556 975 473 
Q 1284 391 1588 391 
Q 1994 391 2212 530 
Q 2431 669 2431 922 
Q 2431 1156 2273 1281 
Q 2116 1406 1581 1522 
L 1381 1569 
Q 847 1681 609 1914 
Q 372 2147 372 2553 
Q 372 3047 722 3315 
Q 1072 3584 1716 3584 
Q 2034 3584 2315 3537 
Q 2597 3491 2834 3397 
z
" transform="scale(0.015625)"/>
       <path id="DejaVuSans-29" d="M 513 4856 
L 1013 4856 
Q 1481 4119 1714 3412 
Q 1947 2706 1947 2009 
Q 1947 1309 1714 600 
Q 1481 -109 1013 -844 
L 513 -844 
Q 928 -128 1133 580 
Q 1338 1288 1338 2009 
Q 1338 2731 1133 3434 
Q 928 4138 513 4856 
z
" transform="scale(0.015625)"/>
      </defs>
      <use xlink:href="#DejaVuSans-54"/>
      <use xlink:href="#DejaVuSans-69" x="57.958984"/>
      <use xlink:href="#DejaVuSans-6d" x="85.742188"/>
      <use xlink:href="#DejaVuSans-65" x="183.154297"/>
      <use xlink:href="#DejaVuSans-20" x="244.677734"/>
      <use xlink:href="#DejaVuSans-28" x="276.464844"/>
      <use xlink:href="#DejaVuSans-73" x="315.478516"/>
      <use xlink:href="#DejaVuSans-29" x="367.578125"/>
     </g>
    </g>
   </g>
   <g id="matplotlib.axis_2">
    <g id="ytick_1">
     <g id="line2d_11">
      <path d="M 54.02 236.078182 
L 709.2 236.078182 
" clip-path="url(#pe5a390fde0)" style="fill: none; stroke: #b0b0b0; stroke-width: 0.8; stroke-linecap: square"/>
     </g>
     <g id="line2d_12">
      <defs>
       <path id="m370ee71f3f" d="M 0 0 
L -3.5 0 
" style="stroke: #000000; stroke-width: 0.8"/>
      </defs>
      <g>
       <use xlink:href="#m370ee71f3f" x="54.02" y="236.078182" style="stroke: #000000; stroke-width: 0.8"/>
      </g>
     </g>
     <g id="text_7">
      <!-- 0.00 -->
      <g transform="translate(24.754375 239.877401) scale(0.1 -0.1)">
       <defs>
        <path id="DejaVuSans-2e" d="M 684 794 
L 1344 794 
L 1344 0 
L 684 0 
L 684 794 
z
" transform="scale(0.015625)"/>
       </defs>
       <use xlink:href="#DejaVuSans-30"/>
       <use xlink:href="#DejaVuSans-2e" x="63.623047"/>
       <use xlink:href="#DejaVuSans-30" x="95.410156"/>
       <use xlink:href="#DejaVuSans-30" x="159.033203"/>
      </g>
     </g>
    </g>
    <g id="ytick_2">
     <g id="line2d_13">
      <path d="M 54.02 196.224851 
L 709.2 196.224851 
" clip-path="url(#pe5a390fde0)" style="fill: none; stroke: #b0b0b0; stroke-width: 0.8; stroke-linecap: square"/>
     </g>
     <g id="line2d_14">
      <g>
       <use xlink:href="#m370ee71f3f" x="54.02" y="196.224851" style="stroke: #000000; stroke-width: 0.8"/>
      </g>
     </g>
     <g id="text_8">
      <!-- 0.05 -->
      <g transform="translate(24.754375 200.02407) scale(0.1 -0.1)">
       <defs>
        <path id="DejaVuSans-35" d="M 691 4666 
L 3169 4666 
L 3169 4134 
L 1269 4134 
L 1269 2991 
Q 1406 3038 1543 3061 
Q 1681 3084 1819 3084 
Q 2600 3084 3056 2656 
Q 3513 2228 3513 1497 
Q 3513 744 3044 326 
Q 2575 -91 1722 -91 
Q 1428 -91 1123 -41 
Q 819 9 494 109 
L 494 744 
Q 775 591 1075 516 
Q 1375 441 1709 441 
Q 2250 441 2565 725 
Q 2881 1009 2881 1497 
Q 2881 1984 2565 2268 
Q 2250 2553 1709 2553 
Q 1456 2553 1204 2497 
Q 953 2441 691 2322 
L 691 4666 
z
" transform="scale(0.015625)"/>
       </defs>
       <use xlink:href="#DejaVuSans-30"/>
       <use xlink:href="#DejaVuSans-2e" x="63.623047"/>
       <use xlink:href="#DejaVuSans-30" x="95.410156"/>
       <use xlink:href="#DejaVuSans-35" x="159.033203"/>
      </g>
     </g>
    </g>
    <g id="ytick_3">
     <g id="line2d_15">
      <path d="M 54.02 156.371521 
L 709.2 156.371521 
" clip-path="url(#pe5a390fde0)" style="fill: none; stroke: #b0b0b0; stroke-width: 0.8; stroke-linecap: square"/>
     </g>
     <g id="line2d_16">
      <g>
       <use xlink:href="#m370ee71f3f" x="54.02" y="156.371521" style="stroke: #000000; stroke-width: 0.8"/>
      </g>
     </g>
     <g id="text_9">
      <!-- 0.10 -->
      <g transform="translate(24.754375 160.17074) scale(0.1 -0.1)">
       <use xlink:href="#DejaVuSans-30"/>
       <use xlink:href="#DejaVuSans-2e" x="63.623047"/>
       <use xlink:href="#DejaVuSans-31" x="95.410156"/>
       <use xlink:href="#DejaVuSans-30" x="159.033203"/>
      </g>
     </g>
    </g>
    <g id="ytick_4">
     <g id="line2d_17">
      <path d="M 54.02 116.518191 
L 709.2 116.518191 
" clip-path="url(#pe5a390fde0)" style="fill: none; stroke: #b0b0b0; stroke-width: 0.8; stroke-linecap: square"/>
     </g>
     <g id="line2d_18">
      <g>
       <use xlink:href="#m370ee71f3f" x="54.02" y="116.518191" style="stroke: #000000; stroke-width: 0.8"/>
      </g>
     </g>
     <g id="text_10">
      <!-- 0.15 -->
      <g transform="translate(24.754375 120.317409) scale(0.1 -0.1)">
       <use xlink:href="#DejaVuSans-30"/>
       <use xlink:href="#DejaVuSans-2e" x="63.623047"/>
       <use xlink:href="#DejaVuSans-31" x="95.410156"/>
       <use xlink:href="#DejaVuSans-35" x="159.033203"/>
      </g>
     </g>
    </g>
    <g id="ytick_5">
     <g id="line2d_19">
      <path d="M 54.02 76.66486 
L 709.2 76.66486 
" clip-path="url(#pe5a390fde0)" style="fill: none; stroke: #b0b0b0; stroke-width: 0.8; stroke-linecap: square"/>
     </g>
     <g id="line2d_20">
      <g>
       <use xlink:href="#m370ee71f3f" x="54.02" y="76.66486" style="stroke: #000000; stroke-width: 0.8"/>
      </g>
     </g>
     <g id="text_11">
      <!-- 0.20 -->
      <g transform="translate(24.754375 80.464079) scale(0.1 -0.1)">
       <use xlink:href="#DejaVuSans-30"/>
       <use xlink:href="#DejaVuSans-2e" x="63.623047"/>
       <use xlink:href="#DejaVuSans-32" x="95.410156"/>
       <use xlink:href="#DejaVuSans-30" x="159.033203"/>
      </g>
     </g>
    </g>
    <g id="ytick_6">
     <g id="line2d_21">
      <path d="M 54.02 36.81153 
L 709.2 36.81153 
" clip-path="url(#pe5a390fde0)" style="fill: none; stroke: #b0b0b0; stroke-width: 0.8; stroke-linecap: square"/>
     </g>
     <g id="line2d_22">
      <g>
       <use xlink:href="#m370ee71f3f" x="54.02" y="36.81153" style="stroke: #000000; stroke-width: 0.8"/>
      </g>
     </g>
     <g id="text_12">
      <!-- 0.25 -->
      <g transform="translate(24.754375 40.610748) scale(0.1 -0.1)">
       <use xlink:href="#DejaVuSans-30"/>
       <use xlink:href="#DejaVuSans-2e" x="63.623047"/>
       <use xlink:href="#DejaVuSans-32" x="95.410156"/>
       <use xlink:href="#DejaVuSans-35" x="159.033203"/>
      </g>
     </g>
    </g>
    <g id="text_13">
     <!-- Delta Value -->
     <g transform="translate(18.674688 165.120156) rotate(-90) scale(0.1 -0.1)">
      <defs>
       <path id="DejaVuSans-44" d="M 1259 4147 
L 1259 519 
L 2022 519 
Q 2988 519 3436 956 
Q 3884 1394 3884 2338 
Q 3884 3275 3436 3711 
Q 2988 4147 2022 4147 
L 1259 4147 
z
M 628 4666 
L 1925 4666 
Q 3281 4666 3915 4102 
Q 4550 3538 4550 2338 
Q 4550 1131 3912 565 
Q 3275 0 1925 0 
L 628 0 
L 628 4666 
z
" transform="scale(0.015625)"/>
       <path id="DejaVuSans-6c" d="M 603 4863 
L 1178 4863 
L 1178 0 
L 603 0 
L 603 4863 
z
" transform="scale(0.015625)"/>
       <path id="DejaVuSans-74" d="M 1172 4494 
L 1172 3500 
L 2356 3500 
L 2356 3053 
L 1172 3053 
L 1172 1153 
Q 1172 725 1289 603 
Q 1406 481 1766 481 
L 2356 481 
L 2356 0 
L 1766 0 
Q 1100 0 847 248 
Q 594 497 594 1153 
L 594 3053 
L 172 3053 
L 172 3500 
L 594 3500 
L 594 4494 
L 1172 4494 
z
" transform="scale(0.015625)"/>
       <path id="DejaVuSans-61" d="M 2194 1759 
Q 1497 1759 1228 1600 
Q 959 1441 959 1056 
Q 959 750 1161 570 
Q 1363 391 1709 391 
Q 2188 391 2477 730 
Q 2766 1069 2766 1631 
L 2766 1759 
L 2194 1759 
z
M 3341 1997 
L 3341 0 
L 2766 0 
L 2766 531 
Q 2569 213 2275 61 
Q 1981 -91 1556 -91 
Q 1019 -91 701 211 
Q 384 513 384 1019 
Q 384 1609 779 1909 
Q 1175 2209 1959 2209 
L 2766 2209 
L 2766 2266 
Q 2766 2663 2505 2880 
Q 2244 3097 1772 3097 
Q 1472 3097 1187 3025 
Q 903 2953 641 2809 
L 641 3341 
Q 956 3463 1253 3523 
Q 1550 3584 1831 3584 
Q 2591 3584 2966 3190 
Q 3341 2797 3341 1997 
z
" transform="scale(0.015625)"/>
       <path id="DejaVuSans-56" d="M 1831 0 
L 50 4666 
L 709 4666 
L 2188 738 
L 3669 4666 
L 4325 4666 
L 2547 0 
L 1831 0 
z
" transform="scale(0.015625)"/>
       <path id="DejaVuSans-75" d="M 544 1381 
L 544 3500 
L 1119 3500 
L 1119 1403 
Q 1119 906 1312 657 
Q 1506 409 1894 409 
Q 2359 409 2629 706 
Q 2900 1003 2900 1516 
L 2900 3500 
L 3475 3500 
L 3475 0 
L 2900 0 
L 2900 538 
Q 2691 219 2414 64 
Q 2138 -91 1772 -91 
Q 1169 -91 856 284 
Q 544 659 544 1381 
z
M 1991 3584 
L 1991 3584 
z
" transform="scale(0.015625)"/>
      </defs>
      <use xlink:href="#DejaVuSans-44"/>
      <use xlink:href="#DejaVuSans-65" x="77.001953"/>
      <use xlink:href="#DejaVuSans-6c" x="138.525391"/>
      <use xlink:href="#DejaVuSans-74" x="166.308594"/>
      <use xlink:href="#DejaVuSans-61" x="205.517578"/>
      <use xlink:href="#DejaVuSans-20" x="266.796875"/>
      <use xlink:href="#DejaVuSans-56" x="298.583984"/>
      <use xlink:href="#DejaVuSans-61" x="359.242188"/>
      <use xlink:href="#DejaVuSans-6c" x="420.521484"/>
      <use xlink:href="#DejaVuSans-75" x="448.304688"/>
      <use xlink:href="#DejaVuSans-65" x="511.683594"/>
     </g>
    </g>
   </g>
   <g id="line2d_23">
    <path d="M 83.800909 236.078182 
L 84.840887 85.225051 
L 84.927551 236.047893 
L 86.501962 36.841818 
L 86.588626 236.047893 
L 88.148592 36.841818 
L 88.235257 236.047893 
L 90.300768 36.841818 
L 90.387433 236.047893 
L 91.947399 36.841818 
L 92.034064 236.047893 
L 93.637362 36.841818 
L 93.724027 236.047893 
L 97.797272 36.841818 
L 97.883937 236.047893 
L 99.256129 36.841818 
L 99.342794 236.047893 
L 100.700542 36.841818 
L 100.787207 236.047893 
L 102.159399 36.841818 
L 102.246064 236.047893 
L 103.632701 36.841818 
L 103.719366 236.047893 
L 105.091558 36.841818 
L 105.178223 236.047893 
L 106.535971 36.841818 
L 106.622636 236.047893 
L 107.994828 36.841818 
L 108.081493 236.047893 
L 109.439241 36.841818 
L 109.525906 236.047893 
L 110.926987 36.841818 
L 111.013652 236.047893 
L 112.3714 36.841818 
L 112.458065 236.047893 
L 113.830257 36.841818 
L 113.916922 236.047893 
L 115.27467 36.841818 
L 115.361335 236.047893 
L 116.733528 36.841818 
L 116.820192 236.047893 
L 118.206829 36.841818 
L 118.293494 236.047893 
L 119.665686 36.841818 
L 119.752351 236.047893 
L 121.110099 36.841818 
L 121.196764 236.047893 
L 122.568956 36.841818 
L 122.655621 236.047893 
L 124.01337 36.841818 
L 124.100034 236.047893 
L 125.501115 36.841818 
L 125.58778 236.047893 
L 126.945528 36.841818 
L 127.032193 236.047893 
L 128.404385 36.841818 
L 128.49105 236.047893 
L 129.848798 36.841818 
L 129.935463 236.047893 
L 131.307656 36.841818 
L 131.39432 236.047893 
L 132.780957 36.841818 
L 132.867622 236.047893 
L 134.239814 36.841818 
L 134.326479 236.047893 
L 135.684227 36.841818 
L 135.770892 236.047893 
L 137.143085 36.841818 
L 137.229749 236.047893 
L 138.587498 36.841818 
L 138.674162 236.047893 
L 140.075243 36.841818 
L 140.161908 236.047893 
L 141.519656 36.841818 
L 141.606321 236.047893 
L 142.978513 36.841818 
L 143.065178 236.047893 
L 144.422926 36.841818 
L 144.509591 236.047893 
L 145.881784 36.841818 
L 145.968448 236.047893 
L 147.355085 36.841818 
L 147.44175 236.047893 
L 148.813942 36.841818 
L 148.900607 236.047893 
L 150.258355 36.841818 
L 150.34502 236.047893 
L 151.717213 36.841818 
L 151.803877 236.047893 
L 153.161626 36.841818 
L 153.24829 236.047893 
L 154.649371 36.841818 
L 154.736036 236.047893 
L 156.093784 36.841818 
L 156.180449 236.047893 
L 157.552641 36.841818 
L 157.639306 236.047893 
L 158.997055 36.841818 
L 159.083719 236.047893 
L 160.455912 36.841818 
L 160.542577 236.047893 
L 161.929213 36.841818 
L 162.015878 236.047893 
L 163.38807 36.841818 
L 163.474735 236.047893 
L 164.832483 36.841818 
L 164.919148 236.047893 
L 166.291341 36.841818 
L 166.378005 236.047893 
L 167.735754 36.841818 
L 167.822419 236.047893 
L 169.223499 36.841818 
L 169.310164 236.047893 
L 170.667912 36.841818 
L 170.754577 236.047893 
L 172.12677 36.841818 
L 172.213434 236.047893 
L 173.571183 36.841818 
L 173.657847 236.047893 
L 175.03004 36.841818 
L 175.116705 236.047893 
L 176.503341 36.841818 
L 176.590006 236.047893 
L 177.962198 36.841818 
L 178.048863 236.047893 
L 179.406612 36.841818 
L 179.493276 236.047893 
L 180.865469 36.841818 
L 180.952134 236.047893 
L 182.309882 36.841818 
L 182.396547 236.047893 
L 183.797627 36.841818 
L 183.884292 236.047893 
L 185.24204 36.841818 
L 185.328705 236.047893 
L 186.700898 36.841818 
L 186.787562 236.047893 
L 188.145311 36.841818 
L 188.231976 236.047893 
L 189.604168 36.841818 
L 189.690833 236.047893 
L 191.077469 36.841818 
L 191.164134 236.047893 
L 192.536327 36.841818 
L 192.622991 236.047893 
L 193.98074 36.841818 
L 194.067404 236.047893 
L 195.439597 36.841818 
L 195.526262 236.047893 
L 196.88401 36.841818 
L 196.970675 236.047893 
L 198.371755 36.841818 
L 198.45842 236.047893 
L 199.816168 36.841818 
L 199.902833 236.047893 
L 201.275026 36.841818 
L 201.36169 236.047893 
L 202.719439 36.841818 
L 202.806104 236.047893 
L 204.178296 36.841818 
L 204.264961 236.047893 
L 205.651597 36.841818 
L 205.738262 236.047893 
L 207.110455 36.841818 
L 207.197119 236.047893 
L 208.554868 36.841818 
L 208.641532 236.047893 
L 210.013725 36.841818 
L 210.10039 236.047893 
L 211.458138 36.841818 
L 211.544803 236.047893 
L 212.945883 36.841818 
L 213.032548 236.047893 
L 214.390297 36.841818 
L 214.476961 236.047893 
L 215.849154 36.841818 
L 215.935819 236.047893 
L 217.293567 36.841818 
L 217.380232 236.047893 
L 218.752424 36.841818 
L 218.839089 236.047893 
L 220.225725 36.841818 
L 220.31239 236.047893 
L 221.684583 36.841818 
L 221.771247 236.047893 
L 223.128996 36.841818 
L 223.215661 236.047893 
L 224.587853 36.841818 
L 224.674518 236.047893 
L 226.032266 36.841818 
L 226.118931 236.047893 
L 227.520012 36.841818 
L 227.606676 236.047893 
L 228.964425 36.841818 
L 229.051089 236.047893 
L 230.423282 36.841818 
L 230.509947 236.047893 
L 231.867695 36.841818 
L 231.95436 236.047893 
L 233.326552 36.841818 
L 233.413217 236.047893 
L 234.799854 36.841818 
L 234.886518 236.047893 
L 236.258711 36.841818 
L 236.345376 236.047893 
L 237.703124 36.841818 
L 237.789789 236.047893 
L 239.161981 36.841818 
L 239.248646 236.047893 
L 240.606394 36.841818 
L 240.693059 236.047893 
L 242.09414 36.841818 
L 242.180804 236.047893 
L 243.538553 36.841818 
L 243.625218 236.047893 
L 244.99741 36.841818 
L 245.084075 236.047893 
L 246.441823 36.841818 
L 246.528488 236.047893 
L 247.90068 36.841818 
L 247.987345 236.047893 
L 249.373982 36.841818 
L 249.460646 236.047893 
L 250.832839 36.841818 
L 250.919504 236.047893 
L 252.277252 36.841818 
L 252.363917 236.047893 
L 253.736109 36.841818 
L 253.822774 236.047893 
L 255.180522 36.841818 
L 255.267187 236.047893 
L 256.610491 36.841818 
L 256.697156 236.047893 
L 258.242678 36.841818 
L 258.329343 236.047893 
L 259.903753 36.841818 
L 259.990418 236.047893 
L 261.521496 36.841818 
L 261.60816 236.047893 
L 263.702559 36.841818 
L 263.789224 236.047893 
L 265.204749 36.841818 
L 265.291414 236.047893 
L 267.010265 36.841818 
L 267.299148 236.047893 
L 270.982401 36.841818 
L 271.069066 236.047893 
L 272.470147 36.841818 
L 272.556812 236.047893 
L 273.885672 36.841818 
L 273.972337 236.047893 
L 275.402305 36.841818 
L 275.48897 236.047893 
L 276.81783 36.841818 
L 276.904495 236.047893 
L 278.305576 36.841818 
L 278.392241 236.047893 
L 279.721101 36.841818 
L 279.807765 236.047893 
L 281.208846 36.841818 
L 281.295511 236.047893 
L 282.653259 36.841818 
L 282.739924 236.047893 
L 284.141005 36.841818 
L 284.227669 236.047893 
L 285.55653 36.841818 
L 285.643194 236.047893 
L 287.044275 36.841818 
L 287.13094 236.047893 
L 288.4598 36.841818 
L 288.546465 236.047893 
L 289.976434 36.841818 
L 290.063098 236.047893 
L 291.391958 36.841818 
L 291.478623 236.047893 
L 292.879704 36.841818 
L 292.966369 236.047893 
L 294.295229 36.841818 
L 294.381893 236.047893 
L 295.782974 36.841818 
L 295.869639 236.047893 
L 297.227387 36.841818 
L 297.314052 236.047893 
L 298.715133 36.841818 
L 298.801798 236.047893 
L 300.130658 36.841818 
L 300.217322 236.047893 
L 301.618403 36.841818 
L 301.705068 236.047893 
L 303.033928 36.841818 
L 303.120593 236.047893 
L 304.550562 36.841818 
L 304.637226 236.047893 
L 305.966086 36.841818 
L 306.052751 236.047893 
L 307.453832 36.841818 
L 307.540497 236.047893 
L 308.869357 36.841818 
L 308.956022 236.047893 
L 310.357102 36.841818 
L 310.443767 236.047893 
L 311.801515 36.841818 
L 311.88818 236.047893 
L 313.289261 36.841818 
L 313.375926 236.047893 
L 314.704786 36.841818 
L 314.79145 236.047893 
L 316.192531 36.841818 
L 316.279196 236.047893 
L 317.608056 36.841818 
L 317.694721 236.047893 
L 319.12469 36.841818 
L 319.211355 236.047893 
L 320.540215 36.841818 
L 320.626879 236.047893 
L 322.02796 36.841818 
L 322.114625 236.047893 
L 323.443485 36.841818 
L 323.53015 236.047893 
L 324.93123 36.841818 
L 325.017895 236.047893 
L 326.375643 36.841818 
L 326.462308 236.047893 
L 327.863389 36.841818 
L 327.950054 236.047893 
L 329.278914 36.841818 
L 329.365579 236.047893 
L 330.766659 36.841818 
L 330.853324 236.047893 
L 332.182184 36.841818 
L 332.268849 236.047893 
L 333.698818 36.841818 
L 333.785483 236.047893 
L 335.114343 36.841818 
L 335.201007 236.047893 
L 336.602088 36.841818 
L 336.688753 236.047893 
L 338.017613 36.841818 
L 338.104278 236.047893 
L 339.505358 36.841818 
L 339.592023 236.047893 
L 340.949772 36.841818 
L 341.036436 236.047893 
L 342.437517 36.841818 
L 342.524182 236.047893 
L 343.853042 36.841818 
L 343.939707 236.047893 
L 345.340787 36.841818 
L 345.427452 236.047893 
L 346.756312 36.841818 
L 346.842977 236.047893 
L 348.272946 36.841818 
L 348.359611 236.047893 
L 349.688471 36.841818 
L 349.775135 236.047893 
L 351.176216 36.841818 
L 351.262881 236.047893 
L 352.591741 36.841818 
L 352.678406 236.047893 
L 354.079487 36.841818 
L 354.166151 236.047893 
L 355.5239 36.841818 
L 355.610564 236.047893 
L 357.011645 36.841818 
L 357.09831 236.047893 
L 358.42717 36.841818 
L 358.513835 236.047893 
L 359.914915 36.841818 
L 360.00158 236.047893 
L 361.359328 36.841818 
L 361.445993 236.047893 
L 362.875962 36.841818 
L 362.962627 236.047893 
L 364.291487 36.841818 
L 364.378152 236.047893 
L 365.779233 36.841818 
L 365.865897 236.047893 
L 367.194757 36.841818 
L 367.281422 236.047893 
L 368.711391 36.841818 
L 368.798056 236.047893 
L 370.155804 36.841818 
L 370.242469 236.047893 
L 371.64355 36.841818 
L 371.730214 236.047893 
L 373.059075 36.841818 
L 373.145739 236.047893 
L 374.54682 36.841818 
L 374.633485 236.047893 
L 375.991233 36.841818 
L 376.077898 236.047893 
L 377.507867 36.841818 
L 377.594532 236.047893 
L 378.923392 36.841818 
L 379.010056 236.047893 
L 380.411137 36.841818 
L 380.497802 236.047893 
L 381.826662 36.841818 
L 381.913327 236.047893 
L 383.343296 36.841818 
L 383.42996 236.047893 
L 384.787709 36.841818 
L 384.874374 236.047893 
L 386.275454 36.841818 
L 386.362119 236.047893 
L 387.690979 36.841818 
L 387.777644 236.047893 
L 389.178725 36.841818 
L 389.265389 236.047893 
L 390.623138 36.841818 
L 390.709802 236.047893 
L 392.139771 36.841818 
L 392.226436 236.047893 
L 393.555296 36.841818 
L 393.641961 236.047893 
L 395.043042 36.841818 
L 395.129707 236.047893 
L 396.458567 36.841818 
L 396.545231 236.047893 
L 397.9752 36.841818 
L 398.061865 236.047893 
L 399.419613 36.841818 
L 399.506278 236.047893 
L 400.907359 36.841818 
L 400.994024 236.047893 
L 402.322884 36.841818 
L 402.409548 236.047893 
L 403.810629 36.841818 
L 403.897294 236.047893 
L 405.255042 36.841818 
L 405.341707 236.047893 
L 406.771676 36.841818 
L 406.858341 236.047893 
L 408.187201 36.841818 
L 408.273866 236.047893 
L 409.674946 36.841818 
L 409.761611 236.047893 
L 411.090471 36.841818 
L 411.177136 236.047893 
L 412.607105 36.841818 
L 412.69377 236.047893 
L 414.051518 36.841818 
L 414.138183 236.047893 
L 415.539263 36.841818 
L 415.625928 236.047893 
L 416.954788 36.841818 
L 417.041453 236.047893 
L 418.442534 36.841818 
L 418.529199 236.047893 
L 419.886947 36.841818 
L 419.973612 236.047893 
L 421.403581 36.841818 
L 421.490245 236.047893 
L 422.819105 36.841818 
L 422.90577 236.047893 
L 424.306851 36.841818 
L 424.393516 236.047893 
L 425.722376 36.841818 
L 425.809041 236.047893 
L 427.23901 36.841818 
L 427.325674 236.047893 
L 428.683423 36.841818 
L 428.770087 236.047893 
L 430.171168 36.841818 
L 430.257833 236.047893 
L 431.586693 36.841818 
L 431.673358 236.047893 
L 433.074438 36.841818 
L 433.161103 236.047893 
L 434.518851 36.841818 
L 434.605516 236.047893 
L 436.035485 36.841818 
L 436.12215 236.047893 
L 437.45101 36.841818 
L 437.537675 236.047893 
L 438.938756 36.841818 
L 439.02542 236.047893 
L 440.35428 36.841818 
L 440.440945 236.047893 
L 441.870914 36.841818 
L 441.957579 236.047893 
L 443.315327 36.841818 
L 443.401992 236.047893 
L 444.803073 36.841818 
L 444.889737 236.047893 
L 446.218598 36.841818 
L 446.305262 236.047893 
L 447.706343 36.841818 
L 447.793008 236.047893 
L 449.150756 36.841818 
L 449.237421 236.047893 
L 450.66739 36.841818 
L 450.754055 236.047893 
L 452.082915 36.841818 
L 452.169579 236.047893 
L 453.57066 36.841818 
L 453.657325 236.047893 
L 454.986185 36.841818 
L 455.07285 236.047893 
L 456.502819 36.841818 
L 456.589484 236.047893 
L 457.947232 36.841818 
L 458.033897 236.047893 
L 459.434977 36.841818 
L 459.521642 236.047893 
L 460.850502 36.841818 
L 460.937167 236.047893 
L 462.338248 36.841818 
L 462.424912 236.047893 
L 463.782661 36.841818 
L 463.869325 236.047893 
L 465.299294 36.841818 
L 465.385959 236.047893 
L 466.714819 36.841818 
L 466.801484 236.047893 
L 468.202565 36.841818 
L 468.28923 236.047893 
L 469.61809 36.841818 
L 469.704754 236.047893 
L 471.134723 36.841818 
L 471.221388 236.047893 
L 472.579136 36.841818 
L 472.665801 236.047893 
L 474.066882 36.841818 
L 474.153547 236.047893 
L 475.482407 36.841818 
L 475.569072 236.047893 
L 476.970152 36.841818 
L 477.056817 236.047893 
L 478.385677 36.841818 
L 478.472342 236.047893 
L 479.902311 36.841818 
L 479.988976 236.047893 
L 481.317836 36.841818 
L 481.4045 236.047893 
L 482.805581 36.841818 
L 482.892246 236.047893 
L 484.221106 36.841818 
L 484.307771 236.047893 
L 485.708851 36.841818 
L 485.795516 236.047893 
L 487.153264 36.841818 
L 487.239929 236.047893 
L 488.64101 36.841818 
L 488.727675 236.047893 
L 490.056535 36.841818 
L 490.1432 236.047893 
L 491.54428 36.841818 
L 491.630945 236.047893 
L 492.959805 36.841818 
L 493.04647 236.047893 
L 494.476439 36.841818 
L 494.563104 236.047893 
L 495.891964 36.841818 
L 495.978628 236.047893 
L 497.379709 36.841818 
L 497.466374 236.047893 
L 498.795234 36.841818 
L 498.881899 236.047893 
L 500.282979 36.841818 
L 500.369644 236.047893 
L 501.727393 36.841818 
L 501.814057 236.047893 
L 503.215138 36.841818 
L 503.301803 236.047893 
L 504.630663 36.841818 
L 504.717328 236.047893 
L 506.118408 36.841818 
L 506.205073 236.047893 
L 507.533933 36.841818 
L 507.620598 236.047893 
L 509.050567 36.841818 
L 509.137232 236.047893 
L 510.466092 36.841818 
L 510.552757 236.047893 
L 511.953837 36.841818 
L 512.040502 236.047893 
L 513.369362 36.841818 
L 513.456027 236.047893 
L 514.857108 36.841818 
L 514.943772 236.047893 
L 516.301521 36.841818 
L 516.388185 236.047893 
L 517.789266 36.841818 
L 517.875931 236.047893 
L 519.204791 36.841818 
L 519.291456 236.047893 
L 520.692536 36.841818 
L 520.779201 236.047893 
L 522.108061 36.841818 
L 522.194726 236.047893 
L 523.624695 36.841818 
L 523.71136 236.047893 
L 525.04022 36.841818 
L 525.126885 236.047893 
L 526.527965 36.841818 
L 526.61463 236.047893 
L 527.94349 36.841818 
L 528.030155 236.047893 
L 529.431236 36.841818 
L 529.5179 236.047893 
L 530.875649 36.841818 
L 530.962314 236.047893 
L 532.363394 36.841818 
L 532.450059 236.047893 
L 533.778919 36.841818 
L 533.865584 236.047893 
L 535.266665 36.841818 
L 535.353329 236.047893 
L 536.682189 36.841818 
L 536.768854 236.047893 
L 538.198823 36.841818 
L 538.285488 236.047893 
L 539.614348 36.841818 
L 539.701013 236.047893 
L 541.102093 36.841818 
L 541.188758 236.047893 
L 542.517618 36.841818 
L 542.604283 236.047893 
L 544.005364 36.841818 
L 544.092029 236.047893 
L 545.449777 36.841818 
L 545.536442 236.047893 
L 546.937522 36.841818 
L 547.024187 236.047893 
L 548.353047 36.841818 
L 548.439712 236.047893 
L 549.840793 36.841818 
L 549.927457 236.047893 
L 551.256317 36.841818 
L 551.342982 236.047893 
L 552.772951 36.841818 
L 552.859616 236.047893 
L 554.188476 36.841818 
L 554.275141 236.047893 
L 555.676221 36.841818 
L 555.762886 236.047893 
L 557.091746 36.841818 
L 557.178411 236.047893 
L 558.579492 36.841818 
L 558.666157 236.047893 
L 560.023905 36.841818 
L 560.11057 236.047893 
L 561.51165 36.841818 
L 561.598315 236.047893 
L 562.927175 36.841818 
L 563.01384 236.047893 
L 564.414921 36.841818 
L 564.501585 236.047893 
L 565.830446 36.841818 
L 565.91711 236.047893 
L 567.347079 36.841818 
L 567.433744 236.047893 
L 568.762604 36.841818 
L 568.849269 236.047893 
L 570.25035 36.841818 
L 570.337014 236.047893 
L 571.665874 36.841818 
L 571.752539 236.047893 
L 573.15362 36.841818 
L 573.240285 236.047893 
L 574.598033 36.841818 
L 574.684698 236.047893 
L 576.085778 36.841818 
L 576.172443 236.047893 
L 577.501303 36.841818 
L 577.587968 236.047893 
L 578.989049 36.841818 
L 579.075714 236.047893 
L 580.404574 36.841818 
L 580.491238 236.047893 
L 581.921207 36.841818 
L 582.007872 236.047893 
L 583.336732 36.841818 
L 583.423397 236.047893 
L 584.824478 36.841818 
L 584.911142 236.047893 
L 586.240002 36.841818 
L 586.326667 236.047893 
L 587.727748 36.841818 
L 587.814413 236.047893 
L 589.172161 36.841818 
L 589.258826 236.047893 
L 590.659907 36.841818 
L 590.746571 236.047893 
L 592.075431 36.841818 
L 592.162096 236.047893 
L 593.563177 36.841818 
L 593.649842 236.047893 
L 594.978702 36.841818 
L 595.065366 236.047893 
L 596.495335 36.841818 
L 596.582 236.047893 
L 597.91086 36.841818 
L 597.997525 236.047893 
L 599.398606 36.841818 
L 599.485271 236.047893 
L 600.814131 36.841818 
L 600.900795 236.047893 
L 602.301876 36.841818 
L 602.388541 236.047893 
L 603.746289 36.841818 
L 603.832954 236.047893 
L 605.234035 36.841818 
L 605.320699 236.047893 
L 606.649559 36.841818 
L 606.736224 236.047893 
L 608.137305 36.841818 
L 608.22397 236.047893 
L 609.55283 36.841818 
L 609.639495 236.047893 
L 611.011687 36.841818 
L 611.098352 236.047893 
L 612.643874 36.841818 
L 612.730539 236.047893 
L 614.304949 36.841818 
L 614.391614 236.047893 
L 616.44268 36.841818 
L 616.529345 236.047893 
L 617.915982 36.841818 
L 618.002646 236.047893 
L 619.562612 36.841818 
L 619.649277 236.047893 
L 621.223688 36.841818 
L 621.310352 236.047893 
L 625.412485 36.841818 
L 625.49915 236.047893 
L 626.871343 36.841818 
L 626.958007 236.047893 
L 628.315756 36.841818 
L 628.402421 236.047893 
L 629.803501 36.841818 
L 629.890166 236.047893 
L 631.247914 36.841818 
L 631.334579 236.047893 
L 632.706772 36.841818 
L 632.793436 236.047893 
L 634.151185 36.841818 
L 634.237849 236.047893 
L 635.610042 36.841818 
L 635.696707 236.047893 
L 637.083343 36.841818 
L 637.170008 236.047893 
L 638.5422 36.841818 
L 638.628865 236.047893 
L 639.986614 36.841818 
L 640.073278 236.047893 
L 641.445471 36.841818 
L 641.532136 236.047893 
L 642.889884 36.841818 
L 642.976549 236.047893 
L 644.377629 36.841818 
L 644.464294 236.047893 
L 645.822042 36.841818 
L 645.908707 236.047893 
L 647.2809 36.841818 
L 647.367564 236.047893 
L 648.725313 36.841818 
L 648.811978 236.047893 
L 650.18417 36.841818 
L 650.270835 236.047893 
L 651.657471 36.841818 
L 651.744136 236.047893 
L 653.116329 36.841818 
L 653.202993 236.047893 
L 654.560742 36.841818 
L 654.647406 236.047893 
L 656.019599 36.841818 
L 656.106264 236.047893 
L 657.464012 36.841818 
L 657.550677 236.047893 
L 658.951757 36.841818 
L 659.038422 236.047893 
L 660.396171 36.841818 
L 660.482835 236.047893 
L 661.855028 36.841818 
L 661.941693 236.047893 
L 663.299441 36.841818 
L 663.386106 236.047893 
L 664.758298 36.841818 
L 664.844963 236.047893 
L 666.231599 36.841818 
L 666.318264 236.047893 
L 667.690457 36.841818 
L 667.777121 236.047893 
L 669.13487 36.841818 
L 669.221534 236.047893 
L 670.593727 36.841818 
L 670.680392 236.047893 
L 672.03814 36.841818 
L 672.124805 236.047893 
L 673.525886 36.841818 
L 673.61255 236.047893 
L 674.970299 36.841818 
L 675.056963 236.047893 
L 676.429156 36.841818 
L 676.515821 236.047893 
L 677.873569 36.841818 
L 677.960234 236.047893 
L 679.332426 36.841818 
L 679.419091 236.047893 
L 679.419091 236.047893 
" clip-path="url(#pe5a390fde0)" style="fill: none; stroke: #1f77b4; stroke-width: 1.5; stroke-linecap: square"/>
   </g>
   <g id="patch_3">
    <path d="M 54.02 246.04 
L 54.02 26.88 
" style="fill: none; stroke: #000000; stroke-width: 0.8; stroke-linejoin: miter; stroke-linecap: square"/>
   </g>
   <g id="patch_4">
    <path d="M 709.2 246.04 
L 709.2 26.88 
" style="fill: none; stroke: #000000; stroke-width: 0.8; stroke-linejoin: miter; stroke-linecap: square"/>
   </g>
   <g id="patch_5">
    <path d="M 54.02 246.04 
L 709.2 246.04 
" style="fill: none; stroke: #000000; stroke-width: 0.8; stroke-linejoin: miter; stroke-linecap: square"/>
   </g>
   <g id="patch_6">
    <path d="M 54.02 26.88 
L 709.2 26.88 
" style="fill: none; stroke: #000000; stroke-width: 0.8; stroke-linejoin: miter; stroke-linecap: square"/>
   </g>
   <g id="text_14">
    <!-- frameSequenceActive:vector (HandoverShowcase.host2.wlan[0].mac.dcf) -->
    <g transform="translate(159.863125 20.88) scale(0.12 -0.12)">
     <defs>
      <path id="DejaVuSans-66" d="M 2375 4863 
L 2375 4384 
L 1825 4384 
Q 1516 4384 1395 4259 
Q 1275 4134 1275 3809 
L 1275 3500 
L 2222 3500 
L 2222 3053 
L 1275 3053 
L 1275 0 
L 697 0 
L 697 3053 
L 147 3053 
L 147 3500 
L 697 3500 
L 697 3744 
Q 697 4328 969 4595 
Q 1241 4863 1831 4863 
L 2375 4863 
z
" transform="scale(0.015625)"/>
      <path id="DejaVuSans-72" d="M 2631 2963 
Q 2534 3019 2420 3045 
Q 2306 3072 2169 3072 
Q 1681 3072 1420 2755 
Q 1159 2438 1159 1844 
L 1159 0 
L 581 0 
L 581 3500 
L 1159 3500 
L 1159 2956 
Q 1341 3275 1631 3429 
Q 1922 3584 2338 3584 
Q 2397 3584 2469 3576 
Q 2541 3569 2628 3553 
L 2631 2963 
z
" transform="scale(0.015625)"/>
      <path id="DejaVuSans-53" d="M 3425 4513 
L 3425 3897 
Q 3066 4069 2747 4153 
Q 2428 4238 2131 4238 
Q 1616 4238 1336 4038 
Q 1056 3838 1056 3469 
Q 1056 3159 1242 3001 
Q 1428 2844 1947 2747 
L 2328 2669 
Q 3034 2534 3370 2195 
Q 3706 1856 3706 1288 
Q 3706 609 3251 259 
Q 2797 -91 1919 -91 
Q 1588 -91 1214 -16 
Q 841 59 441 206 
L 441 856 
Q 825 641 1194 531 
Q 1563 422 1919 422 
Q 2459 422 2753 634 
Q 3047 847 3047 1241 
Q 3047 1584 2836 1778 
Q 2625 1972 2144 2069 
L 1759 2144 
Q 1053 2284 737 2584 
Q 422 2884 422 3419 
Q 422 4038 858 4394 
Q 1294 4750 2059 4750 
Q 2388 4750 2728 4690 
Q 3069 4631 3425 4513 
z
" transform="scale(0.015625)"/>
      <path id="DejaVuSans-71" d="M 947 1747 
Q 947 1113 1208 752 
Q 1469 391 1925 391 
Q 2381 391 2643 752 
Q 2906 1113 2906 1747 
Q 2906 2381 2643 2742 
Q 2381 3103 1925 3103 
Q 1469 3103 1208 2742 
Q 947 2381 947 1747 
z
M 2906 525 
Q 2725 213 2448 61 
Q 2172 -91 1784 -91 
Q 1150 -91 751 415 
Q 353 922 353 1747 
Q 353 2572 751 3078 
Q 1150 3584 1784 3584 
Q 2172 3584 2448 3432 
Q 2725 3281 2906 2969 
L 2906 3500 
L 3481 3500 
L 3481 -1331 
L 2906 -1331 
L 2906 525 
z
" transform="scale(0.015625)"/>
      <path id="DejaVuSans-6e" d="M 3513 2113 
L 3513 0 
L 2938 0 
L 2938 2094 
Q 2938 2591 2744 2837 
Q 2550 3084 2163 3084 
Q 1697 3084 1428 2787 
Q 1159 2491 1159 1978 
L 1159 0 
L 581 0 
L 581 3500 
L 1159 3500 
L 1159 2956 
Q 1366 3272 1645 3428 
Q 1925 3584 2291 3584 
Q 2894 3584 3203 3211 
Q 3513 2838 3513 2113 
z
" transform="scale(0.015625)"/>
      <path id="DejaVuSans-63" d="M 3122 3366 
L 3122 2828 
Q 2878 2963 2633 3030 
Q 2388 3097 2138 3097 
Q 1578 3097 1268 2742 
Q 959 2388 959 1747 
Q 959 1106 1268 751 
Q 1578 397 2138 397 
Q 2388 397 2633 464 
Q 2878 531 3122 666 
L 3122 134 
Q 2881 22 2623 -34 
Q 2366 -91 2075 -91 
Q 1284 -91 818 406 
Q 353 903 353 1747 
Q 353 2603 823 3093 
Q 1294 3584 2113 3584 
Q 2378 3584 2631 3529 
Q 2884 3475 3122 3366 
z
" transform="scale(0.015625)"/>
      <path id="DejaVuSans-41" d="M 2188 4044 
L 1331 1722 
L 3047 1722 
L 2188 4044 
z
M 1831 4666 
L 2547 4666 
L 4325 0 
L 3669 0 
L 3244 1197 
L 1141 1197 
L 716 0 
L 50 0 
L 1831 4666 
z
" transform="scale(0.015625)"/>
      <path id="DejaVuSans-76" d="M 191 3500 
L 800 3500 
L 1894 563 
L 2988 3500 
L 3597 3500 
L 2284 0 
L 1503 0 
L 191 3500 
z
" transform="scale(0.015625)"/>
      <path id="DejaVuSans-3a" d="M 750 794 
L 1409 794 
L 1409 0 
L 750 0 
L 750 794 
z
M 750 3309 
L 1409 3309 
L 1409 2516 
L 750 2516 
L 750 3309 
z
" transform="scale(0.015625)"/>
      <path id="DejaVuSans-6f" d="M 1959 3097 
Q 1497 3097 1228 2736 
Q 959 2375 959 1747 
Q 959 1119 1226 758 
Q 1494 397 1959 397 
Q 2419 397 2687 759 
Q 2956 1122 2956 1747 
Q 2956 2369 2687 2733 
Q 2419 3097 1959 3097 
z
M 1959 3584 
Q 2709 3584 3137 3096 
Q 3566 2609 3566 1747 
Q 3566 888 3137 398 
Q 2709 -91 1959 -91 
Q 1206 -91 779 398 
Q 353 888 353 1747 
Q 353 2609 779 3096 
Q 1206 3584 1959 3584 
z
" transform="scale(0.015625)"/>
      <path id="DejaVuSans-48" d="M 628 4666 
L 1259 4666 
L 1259 2753 
L 3553 2753 
L 3553 4666 
L 4184 4666 
L 4184 0 
L 3553 0 
L 3553 2222 
L 1259 2222 
L 1259 0 
L 628 0 
L 628 4666 
z
" transform="scale(0.015625)"/>
      <path id="DejaVuSans-64" d="M 2906 2969 
L 2906 4863 
L 3481 4863 
L 3481 0 
L 2906 0 
L 2906 525 
Q 2725 213 2448 61 
Q 2172 -91 1784 -91 
Q 1150 -91 751 415 
Q 353 922 353 1747 
Q 353 2572 751 3078 
Q 1150 3584 1784 3584 
Q 2172 3584 2448 3432 
Q 2725 3281 2906 2969 
z
M 947 1747 
Q 947 1113 1208 752 
Q 1469 391 1925 391 
Q 2381 391 2643 752 
Q 2906 1113 2906 1747 
Q 2906 2381 2643 2742 
Q 2381 3103 1925 3103 
Q 1469 3103 1208 2742 
Q 947 2381 947 1747 
z
" transform="scale(0.015625)"/>
      <path id="DejaVuSans-68" d="M 3513 2113 
L 3513 0 
L 2938 0 
L 2938 2094 
Q 2938 2591 2744 2837 
Q 2550 3084 2163 3084 
Q 1697 3084 1428 2787 
Q 1159 2491 1159 1978 
L 1159 0 
L 581 0 
L 581 4863 
L 1159 4863 
L 1159 2956 
Q 1366 3272 1645 3428 
Q 1925 3584 2291 3584 
Q 2894 3584 3203 3211 
Q 3513 2838 3513 2113 
z
" transform="scale(0.015625)"/>
      <path id="DejaVuSans-77" d="M 269 3500 
L 844 3500 
L 1563 769 
L 2278 3500 
L 2956 3500 
L 3675 769 
L 4391 3500 
L 4966 3500 
L 4050 0 
L 3372 0 
L 2619 2869 
L 1863 0 
L 1184 0 
L 269 3500 
z
" transform="scale(0.015625)"/>
      <path id="DejaVuSans-5b" d="M 550 4863 
L 1875 4863 
L 1875 4416 
L 1125 4416 
L 1125 -397 
L 1875 -397 
L 1875 -844 
L 550 -844 
L 550 4863 
z
" transform="scale(0.015625)"/>
      <path id="DejaVuSans-5d" d="M 1947 4863 
L 1947 -844 
L 622 -844 
L 622 -397 
L 1369 -397 
L 1369 4416 
L 622 4416 
L 622 4863 
L 1947 4863 
z
" transform="scale(0.015625)"/>
     </defs>
     <use xlink:href="#DejaVuSans-66"/>
     <use xlink:href="#DejaVuSans-72" x="35.205078"/>
     <use xlink:href="#DejaVuSans-61" x="76.318359"/>
     <use xlink:href="#DejaVuSans-6d" x="137.597656"/>
     <use xlink:href="#DejaVuSans-65" x="235.009766"/>
     <use xlink:href="#DejaVuSans-53" x="296.533203"/>
     <use xlink:href="#DejaVuSans-65" x="360.009766"/>
     <use xlink:href="#DejaVuSans-71" x="421.533203"/>
     <use xlink:href="#DejaVuSans-75" x="485.009766"/>
     <use xlink:href="#DejaVuSans-65" x="548.388672"/>
     <use xlink:href="#DejaVuSans-6e" x="609.912109"/>
     <use xlink:href="#DejaVuSans-63" x="673.291016"/>
     <use xlink:href="#DejaVuSans-65" x="728.271484"/>
     <use xlink:href="#DejaVuSans-41" x="789.794922"/>
     <use xlink:href="#DejaVuSans-63" x="856.453125"/>
     <use xlink:href="#DejaVuSans-74" x="911.433594"/>
     <use xlink:href="#DejaVuSans-69" x="950.642578"/>
     <use xlink:href="#DejaVuSans-76" x="978.425781"/>
     <use xlink:href="#DejaVuSans-65" x="1037.605469"/>
     <use xlink:href="#DejaVuSans-3a" x="1099.128906"/>
     <use xlink:href="#DejaVuSans-76" x="1132.820312"/>
     <use xlink:href="#DejaVuSans-65" x="1192"/>
     <use xlink:href="#DejaVuSans-63" x="1253.523438"/>
     <use xlink:href="#DejaVuSans-74" x="1308.503906"/>
     <use xlink:href="#DejaVuSans-6f" x="1347.712891"/>
     <use xlink:href="#DejaVuSans-72" x="1408.894531"/>
     <use xlink:href="#DejaVuSans-20" x="1450.007812"/>
     <use xlink:href="#DejaVuSans-28" x="1481.794922"/>
     <use xlink:href="#DejaVuSans-48" x="1520.808594"/>
     <use xlink:href="#DejaVuSans-61" x="1596.003906"/>
     <use xlink:href="#DejaVuSans-6e" x="1657.283203"/>
     <use xlink:href="#DejaVuSans-64" x="1720.662109"/>
     <use xlink:href="#DejaVuSans-6f" x="1784.138672"/>
     <use xlink:href="#DejaVuSans-76" x="1845.320312"/>
     <use xlink:href="#DejaVuSans-65" x="1904.5"/>
     <use xlink:href="#DejaVuSans-72" x="1966.023438"/>
     <use xlink:href="#DejaVuSans-53" x="2007.136719"/>
     <use xlink:href="#DejaVuSans-68" x="2070.613281"/>
     <use xlink:href="#DejaVuSans-6f" x="2133.992188"/>
     <use xlink:href="#DejaVuSans-77" x="2195.173828"/>
     <use xlink:href="#DejaVuSans-63" x="2276.960938"/>
     <use xlink:href="#DejaVuSans-61" x="2331.941406"/>
     <use xlink:href="#DejaVuSans-73" x="2393.220703"/>
     <use xlink:href="#DejaVuSans-65" x="2445.320312"/>
     <use xlink:href="#DejaVuSans-2e" x="2506.84375"/>
     <use xlink:href="#DejaVuSans-68" x="2538.630859"/>
     <use xlink:href="#DejaVuSans-6f" x="2602.009766"/>
     <use xlink:href="#DejaVuSans-73" x="2663.191406"/>
     <use xlink:href="#DejaVuSans-74" x="2715.291016"/>
     <use xlink:href="#DejaVuSans-32" x="2754.5"/>
     <use xlink:href="#DejaVuSans-2e" x="2818.123047"/>
     <use xlink:href="#DejaVuSans-77" x="2849.910156"/>
     <use xlink:href="#DejaVuSans-6c" x="2931.697266"/>
     <use xlink:href="#DejaVuSans-61" x="2959.480469"/>
     <use xlink:href="#DejaVuSans-6e" x="3020.759766"/>
     <use xlink:href="#DejaVuSans-5b" x="3084.138672"/>
     <use xlink:href="#DejaVuSans-30" x="3123.152344"/>
     <use xlink:href="#DejaVuSans-5d" x="3186.775391"/>
     <use xlink:href="#DejaVuSans-2e" x="3225.789062"/>
     <use xlink:href="#DejaVuSans-6d" x="3257.576172"/>
     <use xlink:href="#DejaVuSans-61" x="3354.988281"/>
     <use xlink:href="#DejaVuSans-63" x="3416.267578"/>
     <use xlink:href="#DejaVuSans-2e" x="3471.248047"/>
     <use xlink:href="#DejaVuSans-64" x="3503.035156"/>
     <use xlink:href="#DejaVuSans-63" x="3566.511719"/>
     <use xlink:href="#DejaVuSans-66" x="3621.492188"/>
     <use xlink:href="#DejaVuSans-29" x="3656.697266"/>
    </g>
   </g>
   <g id="legend_1">
    <g id="patch_7">
     <path d="M 576.717188 145.299062 
L 702.2 145.299062 
Q 704.2 145.299062 704.2 143.299062 
L 704.2 129.620937 
Q 704.2 127.620937 702.2 127.620937 
L 576.717188 127.620937 
Q 574.717188 127.620937 574.717188 129.620937 
L 574.717188 143.299062 
Q 574.717188 145.299062 576.717188 145.299062 
z
" style="fill: #ffffff; opacity: 0.8; stroke: #cccccc; stroke-linejoin: miter"/>
    </g>
    <g id="line2d_24">
     <path d="M 578.717188 135.719375 
L 588.717188 135.719375 
L 598.717188 135.719375 
" style="fill: none; stroke: #1f77b4; stroke-width: 1.5; stroke-linecap: square"/>
    </g>
    <g id="text_15">
     <!-- Δvalue per sample -->
     <g transform="translate(606.717188 139.219375) scale(0.1 -0.1)">
      <defs>
       <path id="DejaVuSans-394" d="M 2188 4044 
L 906 525 
L 3472 525 
L 2188 4044 
z
M 50 0 
L 1831 4666 
L 2547 4666 
L 4325 0 
L 50 0 
z
" transform="scale(0.015625)"/>
       <path id="DejaVuSans-70" d="M 1159 525 
L 1159 -1331 
L 581 -1331 
L 581 3500 
L 1159 3500 
L 1159 2969 
Q 1341 3281 1617 3432 
Q 1894 3584 2278 3584 
Q 2916 3584 3314 3078 
Q 3713 2572 3713 1747 
Q 3713 922 3314 415 
Q 2916 -91 2278 -91 
Q 1894 -91 1617 61 
Q 1341 213 1159 525 
z
M 3116 1747 
Q 3116 2381 2855 2742 
Q 2594 3103 2138 3103 
Q 1681 3103 1420 2742 
Q 1159 2381 1159 1747 
Q 1159 1113 1420 752 
Q 1681 391 2138 391 
Q 2594 391 2855 752 
Q 3116 1113 3116 1747 
z
" transform="scale(0.015625)"/>
      </defs>
      <use xlink:href="#DejaVuSans-394"/>
      <use xlink:href="#DejaVuSans-76" x="68.408203"/>
      <use xlink:href="#DejaVuSans-61" x="127.587891"/>
      <use xlink:href="#DejaVuSans-6c" x="188.867188"/>
      <use xlink:href="#DejaVuSans-75" x="216.650391"/>
      <use xlink:href="#DejaVuSans-65" x="280.029297"/>
      <use xlink:href="#DejaVuSans-20" x="341.552734"/>
      <use xlink:href="#DejaVuSans-70" x="373.339844"/>
      <use xlink:href="#DejaVuSans-65" x="436.816406"/>
      <use xlink:href="#DejaVuSans-72" x="498.339844"/>
      <use xlink:href="#DejaVuSans-20" x="539.453125"/>
      <use xlink:href="#DejaVuSans-73" x="571.240234"/>
      <use xlink:href="#DejaVuSans-61" x="623.339844"/>
      <use xlink:href="#DejaVuSans-6d" x="684.619141"/>
      <use xlink:href="#DejaVuSans-70" x="782.03125"/>
      <use xlink:href="#DejaVuSans-6c" x="845.507812"/>
      <use xlink:href="#DejaVuSans-65" x="873.291016"/>
     </g>
    </g>
   </g>
  </g>
 </g>
 <defs>
  <clipPath id="pe5a390fde0">
   <rect x="54.02" y="26.88" width="655.18" height="219.16"/>
  </clipPath>
 </defs>
</svg>
