<?xml version="1.0" encoding="utf-8" standalone="no"?>
<!DOCTYPE svg PUBLIC "-//W3C//DTD SVG 1.1//EN"
  "http://www.w3.org/Graphics/SVG/1.1/DTD/svg11.dtd">
<svg xmlns:xlink="http://www.w3.org/1999/xlink" width="720pt" height="288pt" viewBox="0 0 720 288" xmlns="http://www.w3.org/2000/svg" version="1.1">
 <metadata>
  <rdf:RDF xmlns:dc="http://purl.org/dc/elements/1.1/" xmlns:cc="http://creativecommons.org/ns#" xmlns:rdf="http://www.w3.org/1999/02/22-rdf-syntax-ns#">
   <cc:Work>
    <dc:type rdf:resource="http://purl.org/dc/dcmitype/StillImage"/>
    <dc:date>2025-07-27T15:08:44.746384</dc:date>
    <dc:format>image/svg+xml</dc:format>
    <dc:creator>
     <cc:Agent>
      <dc:title>Matplotlib v3.9.2, https://matplotlib.org/</dc:title>
     </cc:Agent>
    </dc:creator>
   </cc:Work>
  </rdf:RDF>
 </metadata>
 <defs>
  <style type="text/css">*{stroke-linejoin: round; stroke-linecap: butt}</style>
 </defs>
 <g id="figure_1">
  <g id="patch_1">
   <path d="M 0 288 
L 720 288 
L 720 0 
L 0 0 
z
" style="fill: #ffffff"/>
  </g>
  <g id="axes_1">
   <g id="patch_2">
    <path d="M 54.02 246.04 
L 709.2 246.04 
L 709.2 26.88 
L 54.02 26.88 
z
" style="fill: #ffffff"/>
   </g>
   <g id="matplotlib.axis_1">
    <g id="xtick_1">
     <g id="line2d_1">
      <path d="M 83.800909 246.04 
L 83.800909 26.88 
" clip-path="url(#p1e587fb768)" style="fill: none; stroke: #b0b0b0; stroke-width: 0.8; stroke-linecap: square"/>
     </g>
     <g id="line2d_2">
      <defs>
       <path id="mfef105d90e" d="M 0 0 
L 0 3.5 
" style="stroke: #000000; stroke-width: 0.8"/>
      </defs>
      <g>
       <use xlink:href="#mfef105d90e" x="83.800909" y="246.04" style="stroke: #000000; stroke-width: 0.8"/>
      </g>
     </g>
     <g id="text_1">
      <!-- 0 -->
      <g transform="translate(80.619659 260.638438) scale(0.1 -0.1)">
       <defs>
        <path id="DejaVuSans-30" d="M 2034 4250 
Q 1547 4250 1301 3770 
Q 1056 3291 1056 2328 
Q 1056 1369 1301 889 
Q 1547 409 2034 409 
Q 2525 409 2770 889 
Q 3016 1369 3016 2328 
Q 3016 3291 2770 3770 
Q 2525 4250 2034 4250 
z
M 2034 4750 
Q 2819 4750 3233 4129 
Q 3647 3509 3647 2328 
Q 3647 1150 3233 529 
Q 2819 -91 2034 -91 
Q 1250 -91 836 529 
Q 422 1150 422 2328 
Q 422 3509 836 4129 
Q 1250 4750 2034 4750 
z
" transform="scale(0.015625)"/>
       </defs>
       <use xlink:href="#DejaVuSans-30"/>
      </g>
     </g>
    </g>
    <g id="xtick_2">
     <g id="line2d_3">
      <path d="M 228.2107 246.04 
L 228.2107 26.88 
" clip-path="url(#p1e587fb768)" style="fill: none; stroke: #b0b0b0; stroke-width: 0.8; stroke-linecap: square"/>
     </g>
     <g id="line2d_4">
      <g>
       <use xlink:href="#mfef105d90e" x="228.2107" y="246.04" style="stroke: #000000; stroke-width: 0.8"/>
      </g>
     </g>
     <g id="text_2">
      <!-- 10000 -->
      <g transform="translate(212.30445 260.638438) scale(0.1 -0.1)">
       <defs>
        <path id="DejaVuSans-31" d="M 794 531 
L 1825 531 
L 1825 4091 
L 703 3866 
L 703 4441 
L 1819 4666 
L 2450 4666 
L 2450 531 
L 3481 531 
L 3481 0 
L 794 0 
L 794 531 
z
" transform="scale(0.015625)"/>
       </defs>
       <use xlink:href="#DejaVuSans-31"/>
       <use xlink:href="#DejaVuSans-30" x="63.623047"/>
       <use xlink:href="#DejaVuSans-30" x="127.246094"/>
       <use xlink:href="#DejaVuSans-30" x="190.869141"/>
       <use xlink:href="#DejaVuSans-30" x="254.492188"/>
      </g>
     </g>
    </g>
    <g id="xtick_3">
     <g id="line2d_5">
      <path d="M 372.620491 246.04 
L 372.620491 26.88 
" clip-path="url(#p1e587fb768)" style="fill: none; stroke: #b0b0b0; stroke-width: 0.8; stroke-linecap: square"/>
     </g>
     <g id="line2d_6">
      <g>
       <use xlink:href="#mfef105d90e" x="372.620491" y="246.04" style="stroke: #000000; stroke-width: 0.8"/>
      </g>
     </g>
     <g id="text_3">
      <!-- 20000 -->
      <g transform="translate(356.714241 260.638438) scale(0.1 -0.1)">
       <defs>
        <path id="DejaVuSans-32" d="M 1228 531 
L 3431 531 
L 3431 0 
L 469 0 
L 469 531 
Q 828 903 1448 1529 
Q 2069 2156 2228 2338 
Q 2531 2678 2651 2914 
Q 2772 3150 2772 3378 
Q 2772 3750 2511 3984 
Q 2250 4219 1831 4219 
Q 1534 4219 1204 4116 
Q 875 4013 500 3803 
L 500 4441 
Q 881 4594 1212 4672 
Q 1544 4750 1819 4750 
Q 2544 4750 2975 4387 
Q 3406 4025 3406 3419 
Q 3406 3131 3298 2873 
Q 3191 2616 2906 2266 
Q 2828 2175 2409 1742 
Q 1991 1309 1228 531 
z
" transform="scale(0.015625)"/>
       </defs>
       <use xlink:href="#DejaVuSans-32"/>
       <use xlink:href="#DejaVuSans-30" x="63.623047"/>
       <use xlink:href="#DejaVuSans-30" x="127.246094"/>
       <use xlink:href="#DejaVuSans-30" x="190.869141"/>
       <use xlink:href="#DejaVuSans-30" x="254.492188"/>
      </g>
     </g>
    </g>
    <g id="xtick_4">
     <g id="line2d_7">
      <path d="M 517.030281 246.04 
L 517.030281 26.88 
" clip-path="url(#p1e587fb768)" style="fill: none; stroke: #b0b0b0; stroke-width: 0.8; stroke-linecap: square"/>
     </g>
     <g id="line2d_8">
      <g>
       <use xlink:href="#mfef105d90e" x="517.030281" y="246.04" style="stroke: #000000; stroke-width: 0.8"/>
      </g>
     </g>
     <g id="text_4">
      <!-- 30000 -->
      <g transform="translate(501.124031 260.638438) scale(0.1 -0.1)">
       <defs>
        <path id="DejaVuSans-33" d="M 2597 2516 
Q 3050 2419 3304 2112 
Q 3559 1806 3559 1356 
Q 3559 666 3084 287 
Q 2609 -91 1734 -91 
Q 1441 -91 1130 -33 
Q 819 25 488 141 
L 488 750 
Q 750 597 1062 519 
Q 1375 441 1716 441 
Q 2309 441 2620 675 
Q 2931 909 2931 1356 
Q 2931 1769 2642 2001 
Q 2353 2234 1838 2234 
L 1294 2234 
L 1294 2753 
L 1863 2753 
Q 2328 2753 2575 2939 
Q 2822 3125 2822 3475 
Q 2822 3834 2567 4026 
Q 2313 4219 1838 4219 
Q 1578 4219 1281 4162 
Q 984 4106 628 3988 
L 628 4550 
Q 988 4650 1302 4700 
Q 1616 4750 1894 4750 
Q 2613 4750 3031 4423 
Q 3450 4097 3450 3541 
Q 3450 3153 3228 2886 
Q 3006 2619 2597 2516 
z
" transform="scale(0.015625)"/>
       </defs>
       <use xlink:href="#DejaVuSans-33"/>
       <use xlink:href="#DejaVuSans-30" x="63.623047"/>
       <use xlink:href="#DejaVuSans-30" x="127.246094"/>
       <use xlink:href="#DejaVuSans-30" x="190.869141"/>
       <use xlink:href="#DejaVuSans-30" x="254.492188"/>
      </g>
     </g>
    </g>
    <g id="xtick_5">
     <g id="line2d_9">
      <path d="M 661.440072 246.04 
L 661.440072 26.88 
" clip-path="url(#p1e587fb768)" style="fill: none; stroke: #b0b0b0; stroke-width: 0.8; stroke-linecap: square"/>
     </g>
     <g id="line2d_10">
      <g>
       <use xlink:href="#mfef105d90e" x="661.440072" y="246.04" style="stroke: #000000; stroke-width: 0.8"/>
      </g>
     </g>
     <g id="text_5">
      <!-- 40000 -->
      <g transform="translate(645.533822 260.638438) scale(0.1 -0.1)">
       <defs>
        <path id="DejaVuSans-34" d="M 2419 4116 
L 825 1625 
L 2419 1625 
L 2419 4116 
z
M 2253 4666 
L 3047 4666 
L 3047 1625 
L 3713 1625 
L 3713 1100 
L 3047 1100 
L 3047 0 
L 2419 0 
L 2419 1100 
L 313 1100 
L 313 1709 
L 2253 4666 
z
" transform="scale(0.015625)"/>
       </defs>
       <use xlink:href="#DejaVuSans-34"/>
       <use xlink:href="#DejaVuSans-30" x="63.623047"/>
       <use xlink:href="#DejaVuSans-30" x="127.246094"/>
       <use xlink:href="#DejaVuSans-30" x="190.869141"/>
       <use xlink:href="#DejaVuSans-30" x="254.492188"/>
      </g>
     </g>
    </g>
    <g id="text_6">
     <!-- Time (s) -->
     <g transform="translate(361.281094 274.316562) scale(0.1 -0.1)">
      <defs>
       <path id="DejaVuSans-54" d="M -19 4666 
L 3928 4666 
L 3928 4134 
L 2272 4134 
L 2272 0 
L 1638 0 
L 1638 4134 
L -19 4134 
L -19 4666 
z
" transform="scale(0.015625)"/>
       <path id="DejaVuSans-69" d="M 603 3500 
L 1178 3500 
L 1178 0 
L 603 0 
L 603 3500 
z
M 603 4863 
L 1178 4863 
L 1178 4134 
L 603 4134 
L 603 4863 
z
" transform="scale(0.015625)"/>
       <path id="DejaVuSans-6d" d="M 3328 2828 
Q 3544 3216 3844 3400 
Q 4144 3584 4550 3584 
Q 5097 3584 5394 3201 
Q 5691 2819 5691 2113 
L 5691 0 
L 5113 0 
L 5113 2094 
Q 5113 2597 4934 2840 
Q 4756 3084 4391 3084 
Q 3944 3084 3684 2787 
Q 3425 2491 3425 1978 
L 3425 0 
L 2847 0 
L 2847 2094 
Q 2847 2600 2669 2842 
Q 2491 3084 2119 3084 
Q 1678 3084 1418 2786 
Q 1159 2488 1159 1978 
L 1159 0 
L 581 0 
L 581 3500 
L 1159 3500 
L 1159 2956 
Q 1356 3278 1631 3431 
Q 1906 3584 2284 3584 
Q 2666 3584 2933 3390 
Q 3200 3197 3328 2828 
z
" transform="scale(0.015625)"/>
       <path id="DejaVuSans-65" d="M 3597 1894 
L 3597 1613 
L 953 1613 
Q 991 1019 1311 708 
Q 1631 397 2203 397 
Q 2534 397 2845 478 
Q 3156 559 3463 722 
L 3463 178 
Q 3153 47 2828 -22 
Q 2503 -91 2169 -91 
Q 1331 -91 842 396 
Q 353 884 353 1716 
Q 353 2575 817 3079 
Q 1281 3584 2069 3584 
Q 2775 3584 3186 3129 
Q 3597 2675 3597 1894 
z
M 3022 2063 
Q 3016 2534 2758 2815 
Q 2500 3097 2075 3097 
Q 1594 3097 1305 2825 
Q 1016 2553 972 2059 
L 3022 2063 
z
" transform="scale(0.015625)"/>
       <path id="DejaVuSans-20" transform="scale(0.015625)"/>
       <path id="DejaVuSans-28" d="M 1984 4856 
Q 1566 4138 1362 3434 
Q 1159 2731 1159 2009 
Q 1159 1288 1364 580 
Q 1569 -128 1984 -844 
L 1484 -844 
Q 1016 -109 783 600 
Q 550 1309 550 2009 
Q 550 2706 781 3412 
Q 1013 4119 1484 4856 
L 1984 4856 
z
" transform="scale(0.015625)"/>
       <path id="DejaVuSans-73" d="M 2834 3397 
L 2834 2853 
Q 2591 2978 2328 3040 
Q 2066 3103 1784 3103 
Q 1356 3103 1142 2972 
Q 928 2841 928 2578 
Q 928 2378 1081 2264 
Q 1234 2150 1697 2047 
L 1894 2003 
Q 2506 1872 2764 1633 
Q 3022 1394 3022 966 
Q 3022 478 2636 193 
Q 2250 -91 1575 -91 
Q 1294 -91 989 -36 
Q 684 19 347 128 
L 347 722 
Q 666 556 975 473 
Q 1284 391 1588 391 
Q 1994 391 2212 530 
Q 2431 669 2431 922 
Q 2431 1156 2273 1281 
Q 2116 1406 1581 1522 
L 1381 1569 
Q 847 1681 609 1914 
Q 372 2147 372 2553 
Q 372 3047 722 3315 
Q 1072 3584 1716 3584 
Q 2034 3584 2315 3537 
Q 2597 3491 2834 3397 
z
" transform="scale(0.015625)"/>
       <path id="DejaVuSans-29" d="M 513 4856 
L 1013 4856 
Q 1481 4119 1714 3412 
Q 1947 2706 1947 2009 
Q 1947 1309 1714 600 
Q 1481 -109 1013 -844 
L 513 -844 
Q 928 -128 1133 580 
Q 1338 1288 1338 2009 
Q 1338 2731 1133 3434 
Q 928 4138 513 4856 
z
" transform="scale(0.015625)"/>
      </defs>
      <use xlink:href="#DejaVuSans-54"/>
      <use xlink:href="#DejaVuSans-69" x="57.958984"/>
      <use xlink:href="#DejaVuSans-6d" x="85.742188"/>
      <use xlink:href="#DejaVuSans-65" x="183.154297"/>
      <use xlink:href="#DejaVuSans-20" x="244.677734"/>
      <use xlink:href="#DejaVuSans-28" x="276.464844"/>
      <use xlink:href="#DejaVuSans-73" x="315.478516"/>
      <use xlink:href="#DejaVuSans-29" x="367.578125"/>
     </g>
    </g>
   </g>
   <g id="matplotlib.axis_2">
    <g id="ytick_1">
     <g id="line2d_11">
      <path d="M 54.02 236.078182 
L 709.2 236.078182 
" clip-path="url(#p1e587fb768)" style="fill: none; stroke: #b0b0b0; stroke-width: 0.8; stroke-linecap: square"/>
     </g>
     <g id="line2d_12">
      <defs>
       <path id="m78f94eebc7" d="M 0 0 
L -3.5 0 
" style="stroke: #000000; stroke-width: 0.8"/>
      </defs>
      <g>
       <use xlink:href="#m78f94eebc7" x="54.02" y="236.078182" style="stroke: #000000; stroke-width: 0.8"/>
      </g>
     </g>
     <g id="text_7">
      <!-- 0.00 -->
      <g transform="translate(24.754375 239.877401) scale(0.1 -0.1)">
       <defs>
        <path id="DejaVuSans-2e" d="M 684 794 
L 1344 794 
L 1344 0 
L 684 0 
L 684 794 
z
" transform="scale(0.015625)"/>
       </defs>
       <use xlink:href="#DejaVuSans-30"/>
       <use xlink:href="#DejaVuSans-2e" x="63.623047"/>
       <use xlink:href="#DejaVuSans-30" x="95.410156"/>
       <use xlink:href="#DejaVuSans-30" x="159.033203"/>
      </g>
     </g>
    </g>
    <g id="ytick_2">
     <g id="line2d_13">
      <path d="M 54.02 196.230909 
L 709.2 196.230909 
" clip-path="url(#p1e587fb768)" style="fill: none; stroke: #b0b0b0; stroke-width: 0.8; stroke-linecap: square"/>
     </g>
     <g id="line2d_14">
      <g>
       <use xlink:href="#m78f94eebc7" x="54.02" y="196.230909" style="stroke: #000000; stroke-width: 0.8"/>
      </g>
     </g>
     <g id="text_8">
      <!-- 0.02 -->
      <g transform="translate(24.754375 200.030128) scale(0.1 -0.1)">
       <use xlink:href="#DejaVuSans-30"/>
       <use xlink:href="#DejaVuSans-2e" x="63.623047"/>
       <use xlink:href="#DejaVuSans-30" x="95.410156"/>
       <use xlink:href="#DejaVuSans-32" x="159.033203"/>
      </g>
     </g>
    </g>
    <g id="ytick_3">
     <g id="line2d_15">
      <path d="M 54.02 156.383636 
L 709.2 156.383636 
" clip-path="url(#p1e587fb768)" style="fill: none; stroke: #b0b0b0; stroke-width: 0.8; stroke-linecap: square"/>
     </g>
     <g id="line2d_16">
      <g>
       <use xlink:href="#m78f94eebc7" x="54.02" y="156.383636" style="stroke: #000000; stroke-width: 0.8"/>
      </g>
     </g>
     <g id="text_9">
      <!-- 0.04 -->
      <g transform="translate(24.754375 160.182855) scale(0.1 -0.1)">
       <use xlink:href="#DejaVuSans-30"/>
       <use xlink:href="#DejaVuSans-2e" x="63.623047"/>
       <use xlink:href="#DejaVuSans-30" x="95.410156"/>
       <use xlink:href="#DejaVuSans-34" x="159.033203"/>
      </g>
     </g>
    </g>
    <g id="ytick_4">
     <g id="line2d_17">
      <path d="M 54.02 116.536364 
L 709.2 116.536364 
" clip-path="url(#p1e587fb768)" style="fill: none; stroke: #b0b0b0; stroke-width: 0.8; stroke-linecap: square"/>
     </g>
     <g id="line2d_18">
      <g>
       <use xlink:href="#m78f94eebc7" x="54.02" y="116.536364" style="stroke: #000000; stroke-width: 0.8"/>
      </g>
     </g>
     <g id="text_10">
      <!-- 0.06 -->
      <g transform="translate(24.754375 120.335582) scale(0.1 -0.1)">
       <defs>
        <path id="DejaVuSans-36" d="M 2113 2584 
Q 1688 2584 1439 2293 
Q 1191 2003 1191 1497 
Q 1191 994 1439 701 
Q 1688 409 2113 409 
Q 2538 409 2786 701 
Q 3034 994 3034 1497 
Q 3034 2003 2786 2293 
Q 2538 2584 2113 2584 
z
M 3366 4563 
L 3366 3988 
Q 3128 4100 2886 4159 
Q 2644 4219 2406 4219 
Q 1781 4219 1451 3797 
Q 1122 3375 1075 2522 
Q 1259 2794 1537 2939 
Q 1816 3084 2150 3084 
Q 2853 3084 3261 2657 
Q 3669 2231 3669 1497 
Q 3669 778 3244 343 
Q 2819 -91 2113 -91 
Q 1303 -91 875 529 
Q 447 1150 447 2328 
Q 447 3434 972 4092 
Q 1497 4750 2381 4750 
Q 2619 4750 2861 4703 
Q 3103 4656 3366 4563 
z
" transform="scale(0.015625)"/>
       </defs>
       <use xlink:href="#DejaVuSans-30"/>
       <use xlink:href="#DejaVuSans-2e" x="63.623047"/>
       <use xlink:href="#DejaVuSans-30" x="95.410156"/>
       <use xlink:href="#DejaVuSans-36" x="159.033203"/>
      </g>
     </g>
    </g>
    <g id="ytick_5">
     <g id="line2d_19">
      <path d="M 54.02 76.689091 
L 709.2 76.689091 
" clip-path="url(#p1e587fb768)" style="fill: none; stroke: #b0b0b0; stroke-width: 0.8; stroke-linecap: square"/>
     </g>
     <g id="line2d_20">
      <g>
       <use xlink:href="#m78f94eebc7" x="54.02" y="76.689091" style="stroke: #000000; stroke-width: 0.8"/>
      </g>
     </g>
     <g id="text_11">
      <!-- 0.08 -->
      <g transform="translate(24.754375 80.48831) scale(0.1 -0.1)">
       <defs>
        <path id="DejaVuSans-38" d="M 2034 2216 
Q 1584 2216 1326 1975 
Q 1069 1734 1069 1313 
Q 1069 891 1326 650 
Q 1584 409 2034 409 
Q 2484 409 2743 651 
Q 3003 894 3003 1313 
Q 3003 1734 2745 1975 
Q 2488 2216 2034 2216 
z
M 1403 2484 
Q 997 2584 770 2862 
Q 544 3141 544 3541 
Q 544 4100 942 4425 
Q 1341 4750 2034 4750 
Q 2731 4750 3128 4425 
Q 3525 4100 3525 3541 
Q 3525 3141 3298 2862 
Q 3072 2584 2669 2484 
Q 3125 2378 3379 2068 
Q 3634 1759 3634 1313 
Q 3634 634 3220 271 
Q 2806 -91 2034 -91 
Q 1263 -91 848 271 
Q 434 634 434 1313 
Q 434 1759 690 2068 
Q 947 2378 1403 2484 
z
M 1172 3481 
Q 1172 3119 1398 2916 
Q 1625 2713 2034 2713 
Q 2441 2713 2670 2916 
Q 2900 3119 2900 3481 
Q 2900 3844 2670 4047 
Q 2441 4250 2034 4250 
Q 1625 4250 1398 4047 
Q 1172 3844 1172 3481 
z
" transform="scale(0.015625)"/>
       </defs>
       <use xlink:href="#DejaVuSans-30"/>
       <use xlink:href="#DejaVuSans-2e" x="63.623047"/>
       <use xlink:href="#DejaVuSans-30" x="95.410156"/>
       <use xlink:href="#DejaVuSans-38" x="159.033203"/>
      </g>
     </g>
    </g>
    <g id="ytick_6">
     <g id="line2d_21">
      <path d="M 54.02 36.841818 
L 709.2 36.841818 
" clip-path="url(#p1e587fb768)" style="fill: none; stroke: #b0b0b0; stroke-width: 0.8; stroke-linecap: square"/>
     </g>
     <g id="line2d_22">
      <g>
       <use xlink:href="#m78f94eebc7" x="54.02" y="36.841818" style="stroke: #000000; stroke-width: 0.8"/>
      </g>
     </g>
     <g id="text_12">
      <!-- 0.10 -->
      <g transform="translate(24.754375 40.641037) scale(0.1 -0.1)">
       <use xlink:href="#DejaVuSans-30"/>
       <use xlink:href="#DejaVuSans-2e" x="63.623047"/>
       <use xlink:href="#DejaVuSans-31" x="95.410156"/>
       <use xlink:href="#DejaVuSans-30" x="159.033203"/>
      </g>
     </g>
    </g>
    <g id="text_13">
     <!-- Delta Value -->
     <g transform="translate(18.674688 165.120156) rotate(-90) scale(0.1 -0.1)">
      <defs>
       <path id="DejaVuSans-44" d="M 1259 4147 
L 1259 519 
L 2022 519 
Q 2988 519 3436 956 
Q 3884 1394 3884 2338 
Q 3884 3275 3436 3711 
Q 2988 4147 2022 4147 
L 1259 4147 
z
M 628 4666 
L 1925 4666 
Q 3281 4666 3915 4102 
Q 4550 3538 4550 2338 
Q 4550 1131 3912 565 
Q 3275 0 1925 0 
L 628 0 
L 628 4666 
z
" transform="scale(0.015625)"/>
       <path id="DejaVuSans-6c" d="M 603 4863 
L 1178 4863 
L 1178 0 
L 603 0 
L 603 4863 
z
" transform="scale(0.015625)"/>
       <path id="DejaVuSans-74" d="M 1172 4494 
L 1172 3500 
L 2356 3500 
L 2356 3053 
L 1172 3053 
L 1172 1153 
Q 1172 725 1289 603 
Q 1406 481 1766 481 
L 2356 481 
L 2356 0 
L 1766 0 
Q 1100 0 847 248 
Q 594 497 594 1153 
L 594 3053 
L 172 3053 
L 172 3500 
L 594 3500 
L 594 4494 
L 1172 4494 
z
" transform="scale(0.015625)"/>
       <path id="DejaVuSans-61" d="M 2194 1759 
Q 1497 1759 1228 1600 
Q 959 1441 959 1056 
Q 959 750 1161 570 
Q 1363 391 1709 391 
Q 2188 391 2477 730 
Q 2766 1069 2766 1631 
L 2766 1759 
L 2194 1759 
z
M 3341 1997 
L 3341 0 
L 2766 0 
L 2766 531 
Q 2569 213 2275 61 
Q 1981 -91 1556 -91 
Q 1019 -91 701 211 
Q 384 513 384 1019 
Q 384 1609 779 1909 
Q 1175 2209 1959 2209 
L 2766 2209 
L 2766 2266 
Q 2766 2663 2505 2880 
Q 2244 3097 1772 3097 
Q 1472 3097 1187 3025 
Q 903 2953 641 2809 
L 641 3341 
Q 956 3463 1253 3523 
Q 1550 3584 1831 3584 
Q 2591 3584 2966 3190 
Q 3341 2797 3341 1997 
z
" transform="scale(0.015625)"/>
       <path id="DejaVuSans-56" d="M 1831 0 
L 50 4666 
L 709 4666 
L 2188 738 
L 3669 4666 
L 4325 4666 
L 2547 0 
L 1831 0 
z
" transform="scale(0.015625)"/>
       <path id="DejaVuSans-75" d="M 544 1381 
L 544 3500 
L 1119 3500 
L 1119 1403 
Q 1119 906 1312 657 
Q 1506 409 1894 409 
Q 2359 409 2629 706 
Q 2900 1003 2900 1516 
L 2900 3500 
L 3475 3500 
L 3475 0 
L 2900 0 
L 2900 538 
Q 2691 219 2414 64 
Q 2138 -91 1772 -91 
Q 1169 -91 856 284 
Q 544 659 544 1381 
z
M 1991 3584 
L 1991 3584 
z
" transform="scale(0.015625)"/>
      </defs>
      <use xlink:href="#DejaVuSans-44"/>
      <use xlink:href="#DejaVuSans-65" x="77.001953"/>
      <use xlink:href="#DejaVuSans-6c" x="138.525391"/>
      <use xlink:href="#DejaVuSans-74" x="166.308594"/>
      <use xlink:href="#DejaVuSans-61" x="205.517578"/>
      <use xlink:href="#DejaVuSans-20" x="266.796875"/>
      <use xlink:href="#DejaVuSans-56" x="298.583984"/>
      <use xlink:href="#DejaVuSans-61" x="359.242188"/>
      <use xlink:href="#DejaVuSans-6c" x="420.521484"/>
      <use xlink:href="#DejaVuSans-75" x="448.304688"/>
      <use xlink:href="#DejaVuSans-65" x="511.683594"/>
     </g>
    </g>
   </g>
   <g id="line2d_23">
    <path d="M 83.800909 236.078182 
L 84.046406 58.404572 
L 84.075288 236.078182 
L 84.609604 36.841818 
L 84.638486 236.078182 
L 85.490504 36.841818 
L 85.519386 236.078182 
L 86.02482 36.841818 
L 86.053702 236.078182 
L 86.891279 36.841818 
L 86.920161 236.078182 
L 87.35339 36.841818 
L 87.382272 236.078182 
L 87.887706 36.841818 
L 87.916588 236.078182 
L 88.768606 152.125684 
L 88.82637 235.380855 
L 89.259599 121.491644 
L 89.288481 236.078182 
L 89.793915 36.841818 
L 89.822797 236.078182 
L 90.487082 36.841818 
L 90.515964 236.078182 
L 91.006958 36.841818 
L 91.03584 236.078182 
L 91.714566 36.841818 
L 91.743448 236.078182 
L 92.422174 36.841818 
L 92.451056 236.078182 
L 93.144223 36.841818 
L 93.173105 236.078182 
L 93.822949 36.841818 
L 93.851831 236.078182 
L 94.516116 152.11774 
L 94.761612 235.771358 
L 95.32481 234.527085 
L 95.570307 235.45258 
L 96.191269 235.005252 
L 96.436766 234.974412 
L 97.014405 125.462483 
L 97.043287 236.078182 
L 97.53428 36.841818 
L 97.563162 236.078182 
L 98.227447 36.841818 
L 98.256329 236.078182 
L 98.747322 36.841818 
L 98.776204 236.078182 
L 99.440489 36.841818 
L 99.469371 236.078182 
L 99.917042 36.841818 
L 99.945924 236.078182 
L 100.436917 36.841818 
L 100.465799 236.078182 
L 101.130084 36.841818 
L 101.158966 236.078182 
L 101.649959 36.841818 
L 101.678841 236.078182 
L 102.343126 36.841818 
L 102.372008 236.078182 
L 102.819679 36.841818 
L 102.84856 236.078182 
L 103.368436 36.841818 
L 103.397318 236.078182 
L 104.061603 36.841818 
L 104.090485 236.078182 
L 104.581478 36.841818 
L 104.61036 236.078182 
L 105.274645 36.841818 
L 105.303527 236.078182 
L 105.751197 36.841818 
L 105.780079 236.078182 
L 106.271073 36.841818 
L 106.299954 236.078182 
L 106.96424 36.841818 
L 106.993121 236.078182 
L 107.484115 36.841818 
L 107.512997 236.078182 
L 108.177282 36.841818 
L 108.206164 236.078182 
L 108.653834 36.841818 
L 108.682716 236.078182 
L 109.173709 36.841818 
L 109.202591 236.078182 
L 109.866876 36.841818 
L 109.895758 236.078182 
L 110.415634 36.841818 
L 110.444515 236.078182 
L 111.108801 36.841818 
L 111.137682 236.078182 
L 111.585353 36.841818 
L 111.614235 236.078182 
L 112.105228 36.841818 
L 112.13411 236.078182 
L 112.798395 36.841818 
L 112.827277 236.078182 
L 113.31827 36.841818 
L 113.347152 236.078182 
L 114.011437 36.841818 
L 114.040319 236.078182 
L 114.48799 36.841818 
L 114.516872 236.078182 
L 115.007865 36.841818 
L 115.036747 236.078182 
L 115.701032 36.841818 
L 115.729914 236.078182 
L 116.220907 36.841818 
L 116.249789 236.078182 
L 116.914074 36.841818 
L 116.942956 236.078182 
L 117.390626 36.841818 
L 117.419508 236.078182 
L 117.939384 36.841818 
L 117.968266 236.078182 
L 118.632551 36.841818 
L 118.661433 236.078182 
L 119.152426 36.841818 
L 119.181308 236.078182 
L 119.845593 36.841818 
L 119.874475 236.078182 
L 120.322145 36.841818 
L 120.351027 236.078182 
L 120.84202 36.841818 
L 120.870902 236.078182 
L 121.535187 36.841818 
L 121.564069 236.078182 
L 122.055063 36.841818 
L 122.083945 236.078182 
L 122.74823 36.841818 
L 122.777112 236.078182 
L 123.224782 36.841818 
L 123.253664 236.078182 
L 123.744657 36.841818 
L 123.773539 236.078182 
L 124.437824 36.841818 
L 124.466706 236.078182 
L 124.986581 36.841818 
L 125.015463 236.078182 
L 125.679748 36.841818 
L 125.70863 236.078182 
L 126.156301 36.841818 
L 126.185183 236.078182 
L 126.676176 36.841818 
L 126.705058 236.078182 
L 127.369343 36.841818 
L 127.398225 236.078182 
L 127.889218 36.841818 
L 127.9181 236.078182 
L 128.582385 36.841818 
L 128.611267 236.078182 
L 129.058938 36.841818 
L 129.087819 236.078182 
L 129.578813 36.841818 
L 129.607695 236.078182 
L 130.27198 36.841818 
L 130.300862 236.078182 
L 130.791855 36.841818 
L 130.820737 236.078182 
L 131.485022 36.841818 
L 131.513904 236.078182 
L 131.961574 36.841818 
L 131.990456 236.078182 
L 132.510332 36.841818 
L 132.539213 236.078182 
L 133.203498 36.841818 
L 133.23238 236.078182 
L 133.723374 36.841818 
L 133.752256 236.078182 
L 134.416541 36.841818 
L 134.445423 236.078182 
L 134.893093 36.841818 
L 134.921975 236.078182 
L 135.412968 36.841818 
L 135.44185 236.078182 
L 136.106135 36.841818 
L 136.135017 236.078182 
L 136.626011 36.841818 
L 136.654892 236.078182 
L 137.319178 36.841818 
L 137.348059 236.078182 
L 137.79573 36.841818 
L 137.824612 236.078182 
L 138.315605 36.841818 
L 138.344487 236.078182 
L 139.008772 36.841818 
L 139.037654 236.078182 
L 139.557529 36.841818 
L 139.586411 236.078182 
L 140.250696 36.841818 
L 140.279578 236.078182 
L 140.727249 36.841818 
L 140.756131 236.078182 
L 141.247124 36.841818 
L 141.276006 236.078182 
L 141.940291 36.841818 
L 141.969173 236.078182 
L 142.460166 36.841818 
L 142.489048 236.078182 
L 143.153333 36.841818 
L 143.182215 236.078182 
L 143.629885 36.841818 
L 143.658767 236.078182 
L 144.149761 36.841818 
L 144.178643 236.078182 
L 144.842928 36.841818 
L 144.87181 236.078182 
L 145.362803 36.841818 
L 145.391685 236.078182 
L 146.05597 36.841818 
L 146.084852 236.078182 
L 146.532522 36.841818 
L 146.561404 236.078182 
L 147.081279 36.841818 
L 147.110161 236.078182 
L 147.774446 36.841818 
L 147.803328 236.078182 
L 148.294322 36.841818 
L 148.323204 236.078182 
L 148.987489 36.841818 
L 149.016371 236.078182 
L 149.464041 36.841818 
L 149.492923 236.078182 
L 149.983916 36.841818 
L 150.012798 236.078182 
L 150.677083 36.841818 
L 150.705965 236.078182 
L 151.196958 36.841818 
L 151.22584 236.078182 
L 151.890125 36.841818 
L 151.919007 236.078182 
L 152.366678 36.841818 
L 152.39556 236.078182 
L 152.886553 36.841818 
L 152.915435 236.078182 
L 153.57972 36.841818 
L 153.608602 236.078182 
L 154.128477 36.841818 
L 154.157359 236.078182 
L 154.821644 36.841818 
L 154.850526 236.078182 
L 155.298196 36.841818 
L 155.327078 236.078182 
L 155.818072 36.841818 
L 155.846954 236.078182 
L 156.511239 36.841818 
L 156.540121 236.078182 
L 157.031114 36.841818 
L 157.059996 236.078182 
L 157.724281 36.841818 
L 157.753163 236.078182 
L 158.200833 36.841818 
L 158.229715 236.078182 
L 158.720709 36.841818 
L 158.74959 236.078182 
L 159.413876 36.841818 
L 159.442757 236.078182 
L 159.933751 36.841818 
L 159.962633 236.078182 
L 160.626918 36.841818 
L 160.6558 236.078182 
L 161.10347 36.841818 
L 161.132352 236.078182 
L 161.652227 36.841818 
L 161.681109 236.078182 
L 162.345394 36.841818 
L 162.374276 236.078182 
L 162.86527 36.841818 
L 162.894151 236.078182 
L 163.558437 36.841818 
L 163.587318 236.078182 
L 164.034989 36.841818 
L 164.063871 236.078182 
L 164.554864 36.841818 
L 164.583746 236.078182 
L 165.248031 36.841818 
L 165.276913 236.078182 
L 165.767906 36.841818 
L 165.796788 236.078182 
L 166.461073 36.841818 
L 166.489955 236.078182 
L 166.937626 36.841818 
L 166.966508 236.078182 
L 167.457501 36.841818 
L 167.486383 236.078182 
L 168.150668 36.841818 
L 168.17955 236.078182 
L 168.699425 36.841818 
L 168.728307 236.078182 
L 169.392592 36.841818 
L 169.421474 236.078182 
L 169.869144 36.841818 
L 169.898026 236.078182 
L 170.38902 36.841818 
L 170.417902 236.078182 
L 171.082187 36.841818 
L 171.111069 236.078182 
L 171.602062 36.841818 
L 171.630944 236.078182 
L 172.295229 36.841818 
L 172.324111 236.078182 
L 172.771781 36.841818 
L 172.800663 236.078182 
L 173.291656 36.841818 
L 173.320538 236.078182 
L 173.984823 36.841818 
L 174.013705 236.078182 
L 174.504699 36.841818 
L 174.533581 236.078182 
L 175.197866 36.841818 
L 175.226748 236.078182 
L 175.674418 36.841818 
L 175.7033 236.078182 
L 176.223175 36.841818 
L 176.252057 236.078182 
L 176.916342 36.841818 
L 176.945224 236.078182 
L 177.436217 36.841818 
L 177.465099 236.078182 
L 178.129384 36.841818 
L 178.158266 236.078182 
L 178.605937 36.841818 
L 178.634819 236.078182 
L 179.125812 36.841818 
L 179.154694 236.078182 
L 179.818979 36.841818 
L 179.847861 236.078182 
L 180.338854 36.841818 
L 180.367736 236.078182 
L 181.032021 36.841818 
L 181.060903 236.078182 
L 181.508573 36.841818 
L 181.537455 236.078182 
L 182.028449 36.841818 
L 182.057331 236.078182 
L 182.721616 36.841818 
L 182.750498 236.078182 
L 183.270373 36.841818 
L 183.299255 236.078182 
L 183.96354 36.841818 
L 183.992422 236.078182 
L 184.440092 36.841818 
L 184.468974 236.078182 
L 184.959967 36.841818 
L 184.988849 236.078182 
L 185.653134 36.841818 
L 185.682016 236.078182 
L 186.17301 36.841818 
L 186.201892 236.078182 
L 186.866177 36.841818 
L 186.895059 236.078182 
L 187.342729 36.841818 
L 187.371611 236.078182 
L 187.862604 36.841818 
L 187.891486 236.078182 
L 188.555771 36.841818 
L 188.584653 236.078182 
L 189.075647 36.841818 
L 189.104528 236.078182 
L 189.768814 36.841818 
L 189.797695 236.078182 
L 190.245366 36.841818 
L 190.274248 236.078182 
L 190.794123 36.841818 
L 190.823005 236.078182 
L 191.48729 36.841818 
L 191.516172 236.078182 
L 192.007165 36.841818 
L 192.036047 236.078182 
L 192.700332 36.841818 
L 192.729214 236.078182 
L 193.176885 36.841818 
L 193.205767 236.078182 
L 193.69676 36.841818 
L 193.725642 236.078182 
L 194.389927 36.841818 
L 194.418809 236.078182 
L 194.909802 36.841818 
L 194.938684 236.078182 
L 195.602969 36.841818 
L 195.631851 236.078182 
L 196.079521 36.841818 
L 196.108403 236.078182 
L 196.599397 36.841818 
L 196.628279 236.078182 
L 197.292564 36.841818 
L 197.321446 236.078182 
L 197.841321 36.841818 
L 197.870203 236.078182 
L 198.534488 36.841818 
L 198.56337 236.078182 
L 199.01104 36.841818 
L 199.039922 236.078182 
L 199.530915 36.841818 
L 199.559797 236.078182 
L 200.224082 36.841818 
L 200.252964 236.078182 
L 200.743958 36.841818 
L 200.77284 236.078182 
L 201.437125 36.841818 
L 201.466007 236.078182 
L 201.913677 36.841818 
L 201.942559 236.078182 
L 202.433552 36.841818 
L 202.462434 236.078182 
L 203.126719 36.841818 
L 203.155601 236.078182 
L 203.646594 36.841818 
L 203.675476 236.078182 
L 204.339761 36.841818 
L 204.368643 236.078182 
L 204.816314 36.841818 
L 204.845196 236.078182 
L 205.365071 36.841818 
L 205.393953 236.078182 
L 206.058238 36.841818 
L 206.08712 236.078182 
L 206.578113 36.841818 
L 206.606995 236.078182 
L 207.27128 36.841818 
L 207.300162 236.078182 
L 207.747832 36.841818 
L 207.776714 236.078182 
L 208.267708 36.841818 
L 208.29659 236.078182 
L 208.960875 36.841818 
L 208.989757 236.078182 
L 209.48075 36.841818 
L 209.509632 236.078182 
L 210.173917 36.841818 
L 210.202799 236.078182 
L 210.650469 36.841818 
L 210.679351 236.078182 
L 211.170345 36.841818 
L 211.199226 236.078182 
L 211.863512 36.841818 
L 211.892393 236.078182 
L 212.412269 36.841818 
L 212.441151 236.078182 
L 213.105436 36.841818 
L 213.134318 236.078182 
L 213.581988 36.841818 
L 213.61087 236.078182 
L 214.101863 36.841818 
L 214.130745 236.078182 
L 214.79503 36.841818 
L 214.823912 236.078182 
L 215.314905 36.841818 
L 215.343787 236.078182 
L 216.008072 36.841818 
L 216.036954 236.078182 
L 216.484625 36.841818 
L 216.513507 236.078182 
L 217.0045 36.841818 
L 217.033382 236.078182 
L 217.697667 36.841818 
L 217.726549 236.078182 
L 218.217542 36.841818 
L 218.246424 236.078182 
L 218.910709 36.841818 
L 218.939591 236.078182 
L 219.387262 36.841818 
L 219.416144 236.078182 
L 219.936019 36.841818 
L 219.964901 236.078182 
L 220.629186 36.841818 
L 220.658068 236.078182 
L 221.149061 36.841818 
L 221.177943 236.078182 
L 221.842228 36.841818 
L 221.87111 236.078182 
L 222.31878 36.841818 
L 222.347662 236.078182 
L 222.838656 36.841818 
L 222.867538 236.078182 
L 223.531823 36.841818 
L 223.560705 236.078182 
L 224.051698 36.841818 
L 224.08058 236.078182 
L 224.744865 36.841818 
L 224.773747 236.078182 
L 225.221417 36.841818 
L 225.250299 236.078182 
L 225.741292 36.841818 
L 225.770174 236.078182 
L 226.434459 36.841818 
L 226.463341 236.078182 
L 226.983217 36.841818 
L 227.012099 236.078182 
L 227.676384 36.841818 
L 227.705266 236.078182 
L 228.152936 36.841818 
L 228.181818 236.078182 
L 228.672811 36.841818 
L 228.701693 236.078182 
L 229.365978 36.841818 
L 229.39486 236.078182 
L 229.885853 36.841818 
L 229.914735 236.078182 
L 230.57902 36.841818 
L 230.607902 236.078182 
L 231.055573 36.841818 
L 231.084455 236.078182 
L 231.575448 36.841818 
L 231.60433 236.078182 
L 232.268615 36.841818 
L 232.297497 236.078182 
L 232.78849 36.841818 
L 232.817372 236.078182 
L 233.481657 36.841818 
L 233.510539 236.078182 
L 233.958209 36.841818 
L 233.987091 236.078182 
L 234.506967 36.841818 
L 234.535849 236.078182 
L 235.200134 36.841818 
L 235.229016 236.078182 
L 235.720009 36.841818 
L 235.748891 236.078182 
L 236.413176 36.841818 
L 236.442058 236.078182 
L 236.889728 36.841818 
L 236.91861 236.078182 
L 237.409603 36.841818 
L 237.438485 236.078182 
L 238.10277 36.841818 
L 238.131652 236.078182 
L 238.622646 36.841818 
L 238.651528 236.078182 
L 239.315813 36.841818 
L 239.344695 236.078182 
L 239.792365 36.841818 
L 239.821247 236.078182 
L 240.31224 36.841818 
L 240.341122 236.078182 
L 241.005407 36.841818 
L 241.034289 236.078182 
L 241.554164 36.841818 
L 241.583046 236.078182 
L 242.247331 36.841818 
L 242.276213 236.078182 
L 242.723884 36.841818 
L 242.752766 236.078182 
L 243.243759 36.841818 
L 243.272641 236.078182 
L 243.936926 36.841818 
L 243.965808 236.078182 
L 244.456801 36.841818 
L 244.485683 236.078182 
L 245.149968 36.841818 
L 245.17885 236.078182 
L 245.626521 36.841818 
L 245.655403 236.078182 
L 246.146396 36.841818 
L 246.175278 236.078182 
L 246.839563 36.841818 
L 246.868445 236.078182 
L 247.359438 36.841818 
L 247.38832 236.078182 
L 248.052605 36.841818 
L 248.081487 236.078182 
L 248.529157 36.841818 
L 248.558039 236.078182 
L 249.077915 36.841818 
L 249.106797 236.078182 
L 249.771082 36.841818 
L 249.799964 236.078182 
L 250.290957 36.841818 
L 250.319839 236.078182 
L 250.984124 36.841818 
L 251.013006 236.078182 
L 251.460676 36.841818 
L 251.489558 236.078182 
L 251.980551 36.841818 
L 252.009433 236.078182 
L 252.673718 36.841818 
L 252.7026 236.078182 
L 253.193594 36.841818 
L 253.222476 236.078182 
L 253.886761 36.841818 
L 253.915643 236.078182 
L 254.363313 36.841818 
L 254.392195 236.078182 
L 254.883188 36.841818 
L 254.91207 236.078182 
L 255.576355 36.841818 
L 255.605237 236.078182 
L 256.09623 36.841818 
L 256.125112 236.078182 
L 256.760515 36.841818 
L 256.789397 236.078182 
L 257.26595 36.841818 
L 257.294832 236.078182 
L 257.973558 36.841818 
L 258.00244 236.078182 
L 258.637843 36.841818 
L 258.666725 236.078182 
L 259.172159 36.841818 
L 259.201041 236.078182 
L 260.053059 36.841818 
L 260.081941 236.078182 
L 260.544052 36.841818 
L 260.572934 236.078182 
L 261.25166 36.841818 
L 261.280542 236.078182 
L 261.915945 36.841818 
L 261.944827 236.078182 
L 262.479143 36.841818 
L 262.508025 236.078182 
L 263.851036 36.841818 
L 263.879918 236.078182 
L 264.342029 36.841818 
L 264.370911 236.078182 
L 264.890787 36.841818 
L 264.919669 236.078182 
L 265.598395 36.841818 
L 265.627277 236.078182 
L 266.306003 36.841818 
L 266.334885 236.078182 
L 269.714074 36.841818 
L 269.742956 236.078182 
L 270.190626 36.841818 
L 270.219508 236.078182 
L 270.710501 36.841818 
L 270.739383 236.078182 
L 271.403668 36.841818 
L 271.43255 236.078182 
L 271.923543 36.841818 
L 271.952425 236.078182 
L 272.61671 36.841818 
L 272.645592 236.078182 
L 273.093263 36.841818 
L 273.122145 236.078182 
L 273.613138 36.841818 
L 273.64202 236.078182 
L 274.306305 36.841818 
L 274.335187 236.078182 
L 274.855062 36.841818 
L 274.883944 236.078182 
L 275.548229 36.841818 
L 275.577111 236.078182 
L 276.024782 36.841818 
L 276.053663 236.078182 
L 276.544657 36.841818 
L 276.573539 236.078182 
L 277.237824 36.841818 
L 277.266706 236.078182 
L 277.757699 36.841818 
L 277.786581 236.078182 
L 278.450866 36.841818 
L 278.479748 236.078182 
L 278.927418 36.841818 
L 278.9563 236.078182 
L 279.447294 36.841818 
L 279.476176 236.078182 
L 280.140461 36.841818 
L 280.169343 236.078182 
L 280.660336 36.841818 
L 280.689218 236.078182 
L 281.353503 36.841818 
L 281.382385 236.078182 
L 281.830055 36.841818 
L 281.858937 236.078182 
L 282.378812 36.841818 
L 282.407694 236.078182 
L 283.071979 36.841818 
L 283.100861 236.078182 
L 283.591855 36.841818 
L 283.620737 236.078182 
L 284.285022 36.841818 
L 284.313904 236.078182 
L 284.761574 36.841818 
L 284.790456 236.078182 
L 285.281449 36.841818 
L 285.310331 236.078182 
L 285.974616 36.841818 
L 286.003498 236.078182 
L 286.494491 36.841818 
L 286.523373 236.078182 
L 287.187658 36.841818 
L 287.21654 236.078182 
L 287.664211 36.841818 
L 287.693093 236.078182 
L 288.184086 36.841818 
L 288.212968 236.078182 
L 288.877253 36.841818 
L 288.906135 236.078182 
L 289.42601 36.841818 
L 289.454892 236.078182 
L 290.119177 36.841818 
L 290.148059 236.078182 
L 290.595729 36.841818 
L 290.624611 236.078182 
L 291.115605 36.841818 
L 291.144487 236.078182 
L 291.808772 36.841818 
L 291.837654 236.078182 
L 292.328647 36.841818 
L 292.357529 236.078182 
L 293.021814 36.841818 
L 293.050696 236.078182 
L 293.498366 36.841818 
L 293.527248 236.078182 
L 294.018241 36.841818 
L 294.047123 236.078182 
L 294.711408 36.841818 
L 294.74029 236.078182 
L 295.231284 36.841818 
L 295.260166 236.078182 
L 295.924451 36.841818 
L 295.953333 236.078182 
L 296.401003 36.841818 
L 296.429885 236.078182 
L 296.94976 36.841818 
L 296.978642 236.078182 
L 297.642927 36.841818 
L 297.671809 236.078182 
L 298.162802 36.841818 
L 298.191684 236.078182 
L 298.855969 36.841818 
L 298.884851 236.078182 
L 299.332522 36.841818 
L 299.361404 236.078182 
L 299.852397 36.841818 
L 299.881279 236.078182 
L 300.545564 36.841818 
L 300.574446 236.078182 
L 301.065439 36.841818 
L 301.094321 236.078182 
L 301.758606 36.841818 
L 301.787488 236.078182 
L 302.235159 36.841818 
L 302.26404 236.078182 
L 302.755034 36.841818 
L 302.783916 236.078182 
L 303.448201 36.841818 
L 303.477083 236.078182 
L 303.996958 36.841818 
L 304.02584 236.078182 
L 304.690125 36.841818 
L 304.719007 236.078182 
L 305.166677 36.841818 
L 305.195559 236.078182 
L 305.686553 36.841818 
L 305.715434 236.078182 
L 306.37972 36.841818 
L 306.408601 236.078182 
L 306.899595 36.841818 
L 306.928477 236.078182 
L 307.592762 36.841818 
L 307.621644 236.078182 
L 308.069314 36.841818 
L 308.098196 236.078182 
L 308.589189 36.841818 
L 308.618071 236.078182 
L 309.282356 36.841818 
L 309.311238 236.078182 
L 309.802232 36.841818 
L 309.831114 236.078182 
L 310.495399 36.841818 
L 310.524281 236.078182 
L 310.971951 36.841818 
L 311.000833 236.078182 
L 311.520708 36.841818 
L 311.54959 236.078182 
L 312.213875 36.841818 
L 312.242757 236.078182 
L 312.73375 36.841818 
L 312.762632 236.078182 
L 313.426917 36.841818 
L 313.455799 236.078182 
L 313.90347 36.841818 
L 313.932352 236.078182 
L 314.423345 36.841818 
L 314.452227 236.078182 
L 315.116512 36.841818 
L 315.145394 236.078182 
L 315.636387 36.841818 
L 315.665269 236.078182 
L 316.329554 36.841818 
L 316.358436 236.078182 
L 316.806106 36.841818 
L 316.834988 236.078182 
L 317.325982 36.841818 
L 317.354864 236.078182 
L 318.019149 36.841818 
L 318.048031 236.078182 
L 318.567906 36.841818 
L 318.596788 236.078182 
L 319.261073 36.841818 
L 319.289955 236.078182 
L 319.737625 36.841818 
L 319.766507 236.078182 
L 320.2575 36.841818 
L 320.286382 236.078182 
L 320.950667 36.841818 
L 320.979549 236.078182 
L 321.470543 36.841818 
L 321.499425 236.078182 
L 322.16371 36.841818 
L 322.192592 236.078182 
L 322.640262 36.841818 
L 322.669144 236.078182 
L 323.160137 36.841818 
L 323.189019 236.078182 
L 323.853304 36.841818 
L 323.882186 236.078182 
L 324.373179 36.841818 
L 324.402061 236.078182 
L 325.066346 36.841818 
L 325.095228 236.078182 
L 325.542899 36.841818 
L 325.571781 236.078182 
L 326.091656 36.841818 
L 326.120538 236.078182 
L 326.784823 36.841818 
L 326.813705 236.078182 
L 327.304698 36.841818 
L 327.33358 236.078182 
L 327.997865 36.841818 
L 328.026747 236.078182 
L 328.474418 36.841818 
L 328.503299 236.078182 
L 328.994293 36.841818 
L 329.023175 236.078182 
L 329.68746 36.841818 
L 329.716342 236.078182 
L 330.207335 36.841818 
L 330.236217 236.078182 
L 330.900502 36.841818 
L 330.929384 236.078182 
L 331.377054 36.841818 
L 331.405936 236.078182 
L 331.89693 36.841818 
L 331.925812 236.078182 
L 332.590097 36.841818 
L 332.618978 236.078182 
L 333.138854 36.841818 
L 333.167736 236.078182 
L 333.832021 36.841818 
L 333.860903 236.078182 
L 334.308573 36.841818 
L 334.337455 236.078182 
L 334.828448 36.841818 
L 334.85733 236.078182 
L 335.521615 36.841818 
L 335.550497 236.078182 
L 336.041491 36.841818 
L 336.070372 236.078182 
L 336.734658 36.841818 
L 336.763539 236.078182 
L 337.21121 36.841818 
L 337.240092 236.078182 
L 337.731085 36.841818 
L 337.759967 236.078182 
L 338.424252 36.841818 
L 338.453134 236.078182 
L 338.944127 36.841818 
L 338.973009 236.078182 
L 339.637294 36.841818 
L 339.666176 236.078182 
L 340.113847 36.841818 
L 340.142729 236.078182 
L 340.662604 36.841818 
L 340.691486 236.078182 
L 341.355771 36.841818 
L 341.384653 236.078182 
L 341.875646 36.841818 
L 341.904528 236.078182 
L 342.568813 36.841818 
L 342.597695 236.078182 
L 343.045365 36.841818 
L 343.074247 236.078182 
L 343.565241 36.841818 
L 343.594123 236.078182 
L 344.258408 36.841818 
L 344.28729 236.078182 
L 344.778283 36.841818 
L 344.807165 236.078182 
L 345.47145 36.841818 
L 345.500332 236.078182 
L 345.948002 36.841818 
L 345.976884 236.078182 
L 346.467877 36.841818 
L 346.496759 236.078182 
L 347.161044 36.841818 
L 347.189926 236.078182 
L 347.709802 36.841818 
L 347.738684 236.078182 
L 348.402969 36.841818 
L 348.431851 236.078182 
L 348.879521 36.841818 
L 348.908403 236.078182 
L 349.399396 36.841818 
L 349.428278 236.078182 
L 350.092563 36.841818 
L 350.121445 236.078182 
L 350.612438 36.841818 
L 350.64132 236.078182 
L 351.305605 36.841818 
L 351.334487 236.078182 
L 351.782158 36.841818 
L 351.81104 236.078182 
L 352.302033 36.841818 
L 352.330915 236.078182 
L 352.9952 36.841818 
L 353.024082 236.078182 
L 353.515075 36.841818 
L 353.543957 236.078182 
L 354.208242 36.841818 
L 354.237124 236.078182 
L 354.684795 36.841818 
L 354.713676 236.078182 
L 355.233552 36.841818 
L 355.262434 236.078182 
L 355.926719 36.841818 
L 355.955601 236.078182 
L 356.446594 36.841818 
L 356.475476 236.078182 
L 357.139761 36.841818 
L 357.168643 236.078182 
L 357.616313 36.841818 
L 357.645195 236.078182 
L 358.136189 36.841818 
L 358.16507 236.078182 
L 358.829356 36.841818 
L 358.858237 236.078182 
L 359.349231 36.841818 
L 359.378113 236.078182 
L 360.07128 36.841818 
L 360.100162 236.078182 
L 360.547832 36.841818 
L 360.576714 236.078182 
L 361.067707 36.841818 
L 361.096589 236.078182 
L 361.760874 36.841818 
L 361.789756 236.078182 
L 362.309631 36.841818 
L 362.338513 236.078182 
L 363.002798 36.841818 
L 363.03168 236.078182 
L 363.479351 36.841818 
L 363.508233 236.078182 
L 363.999226 36.841818 
L 364.028108 236.078182 
L 364.692393 36.841818 
L 364.721275 236.078182 
L 365.212268 36.841818 
L 365.24115 236.078182 
L 365.905435 36.841818 
L 365.934317 236.078182 
L 366.381988 36.841818 
L 366.41087 236.078182 
L 366.901863 36.841818 
L 366.930745 236.078182 
L 367.623912 36.841818 
L 367.652794 236.078182 
L 368.143787 36.841818 
L 368.172669 236.078182 
L 368.836954 36.841818 
L 368.865836 236.078182 
L 369.313506 36.841818 
L 369.342388 236.078182 
L 369.862264 36.841818 
L 369.891145 236.078182 
L 370.555431 36.841818 
L 370.584312 236.078182 
L 371.075306 36.841818 
L 371.104188 236.078182 
L 371.768473 36.841818 
L 371.797355 236.078182 
L 372.245025 36.841818 
L 372.273907 236.078182 
L 372.7649 36.841818 
L 372.793782 236.078182 
L 373.458067 36.841818 
L 373.486949 236.078182 
L 373.977943 36.841818 
L 374.006825 236.078182 
L 374.699992 36.841818 
L 374.728873 236.078182 
L 375.176544 36.841818 
L 375.205426 236.078182 
L 375.696419 36.841818 
L 375.725301 236.078182 
L 376.389586 36.841818 
L 376.418468 236.078182 
L 376.938343 36.841818 
L 376.967225 236.078182 
L 377.63151 36.841818 
L 377.660392 236.078182 
L 378.108063 36.841818 
L 378.136945 236.078182 
L 378.627938 36.841818 
L 378.65682 236.078182 
L 379.321105 36.841818 
L 379.349987 236.078182 
L 379.84098 36.841818 
L 379.869862 236.078182 
L 380.534147 36.841818 
L 380.563029 236.078182 
L 381.010699 36.841818 
L 381.039581 236.078182 
L 381.530575 36.841818 
L 381.559457 236.078182 
L 382.252624 36.841818 
L 382.281506 236.078182 
L 382.772499 36.841818 
L 382.801381 236.078182 
L 383.465666 36.841818 
L 383.494548 236.078182 
L 383.942218 36.841818 
L 383.9711 236.078182 
L 384.490975 36.841818 
L 384.519857 236.078182 
L 385.184142 36.841818 
L 385.213024 236.078182 
L 385.704018 36.841818 
L 385.7329 236.078182 
L 386.397185 36.841818 
L 386.426067 236.078182 
L 386.873737 36.841818 
L 386.902619 236.078182 
L 387.393612 36.841818 
L 387.422494 236.078182 
L 388.086779 36.841818 
L 388.115661 236.078182 
L 388.606654 36.841818 
L 388.635536 236.078182 
L 389.328703 36.841818 
L 389.357585 236.078182 
L 389.805256 36.841818 
L 389.834138 236.078182 
L 390.325131 36.841818 
L 390.354013 236.078182 
L 391.018298 36.841818 
L 391.04718 236.078182 
L 391.567055 36.841818 
L 391.595937 236.078182 
L 392.260222 36.841818 
L 392.289104 236.078182 
L 392.736774 36.841818 
L 392.765656 236.078182 
L 393.25665 36.841818 
L 393.285532 236.078182 
L 393.949817 36.841818 
L 393.978699 236.078182 
L 394.469692 36.841818 
L 394.498574 236.078182 
L 395.162859 36.841818 
L 395.191741 236.078182 
L 395.639411 36.841818 
L 395.668293 236.078182 
L 396.159286 36.841818 
L 396.188168 236.078182 
L 396.881335 36.841818 
L 396.910217 236.078182 
L 397.401211 36.841818 
L 397.430093 236.078182 
L 398.094378 36.841818 
L 398.12326 236.078182 
L 398.57093 36.841818 
L 398.599812 236.078182 
L 399.119687 36.841818 
L 399.148569 236.078182 
L 399.812854 36.841818 
L 399.841736 236.078182 
L 400.332729 36.841818 
L 400.361611 236.078182 
L 401.025896 36.841818 
L 401.054778 236.078182 
L 401.502449 36.841818 
L 401.531331 236.078182 
L 402.022324 36.841818 
L 402.051206 236.078182 
L 402.715491 36.841818 
L 402.744373 236.078182 
L 403.235366 36.841818 
L 403.264248 236.078182 
L 403.957415 36.841818 
L 403.986297 236.078182 
L 404.433967 36.841818 
L 404.462849 236.078182 
L 404.953843 36.841818 
L 404.982725 236.078182 
L 405.64701 36.841818 
L 405.675892 236.078182 
L 406.195767 36.841818 
L 406.224649 236.078182 
L 406.888934 36.841818 
L 406.917816 236.078182 
L 407.365486 36.841818 
L 407.394368 236.078182 
L 407.885361 36.841818 
L 407.914243 236.078182 
L 408.578528 36.841818 
L 408.60741 236.078182 
L 409.098404 36.841818 
L 409.127286 236.078182 
L 409.791571 36.841818 
L 409.820453 236.078182 
L 410.268123 36.841818 
L 410.297005 236.078182 
L 410.787998 36.841818 
L 410.81688 236.078182 
L 411.510047 36.841818 
L 411.538929 236.078182 
L 412.029922 36.841818 
L 412.058804 236.078182 
L 412.723089 36.841818 
L 412.751971 236.078182 
L 413.199642 36.841818 
L 413.228524 236.078182 
L 413.748399 36.841818 
L 413.777281 236.078182 
L 414.441566 36.841818 
L 414.470448 236.078182 
L 414.961441 36.841818 
L 414.990323 236.078182 
L 415.654608 36.841818 
L 415.68349 236.078182 
L 416.13116 36.841818 
L 416.160042 236.078182 
L 416.651036 36.841818 
L 416.679918 236.078182 
L 417.344203 36.841818 
L 417.373085 236.078182 
L 417.864078 36.841818 
L 417.89296 236.078182 
L 418.586127 36.841818 
L 418.615009 236.078182 
L 419.062679 36.841818 
L 419.091561 236.078182 
L 419.582554 36.841818 
L 419.611436 236.078182 
L 420.275721 36.841818 
L 420.304603 236.078182 
L 420.824479 36.841818 
L 420.853361 236.078182 
L 421.517646 36.841818 
L 421.546528 236.078182 
L 421.994198 36.841818 
L 422.02308 236.078182 
L 422.514073 36.841818 
L 422.542955 236.078182 
L 423.20724 36.841818 
L 423.236122 236.078182 
L 423.727115 36.841818 
L 423.755997 236.078182 
L 424.420282 36.841818 
L 424.449164 236.078182 
L 424.896835 36.841818 
L 424.925717 236.078182 
L 425.41671 36.841818 
L 425.445592 236.078182 
L 426.138759 36.841818 
L 426.167641 236.078182 
L 426.658634 36.841818 
L 426.687516 236.078182 
L 427.351801 36.841818 
L 427.380683 236.078182 
L 427.828354 36.841818 
L 427.857235 236.078182 
L 428.377111 36.841818 
L 428.405993 236.078182 
L 429.070278 36.841818 
L 429.09916 236.078182 
L 429.590153 36.841818 
L 429.619035 236.078182 
L 430.28332 36.841818 
L 430.312202 236.078182 
L 430.759872 36.841818 
L 430.788754 236.078182 
L 431.279748 36.841818 
L 431.308629 236.078182 
L 431.972915 36.841818 
L 432.001796 236.078182 
L 432.49279 36.841818 
L 432.521672 236.078182 
L 433.214839 36.841818 
L 433.243721 236.078182 
L 433.691391 36.841818 
L 433.720273 236.078182 
L 434.211266 36.841818 
L 434.240148 236.078182 
L 434.904433 36.841818 
L 434.933315 236.078182 
L 435.45319 36.841818 
L 435.482072 236.078182 
L 436.146357 36.841818 
L 436.175239 236.078182 
L 436.62291 36.841818 
L 436.651792 236.078182 
L 437.142785 36.841818 
L 437.171667 236.078182 
L 437.835952 36.841818 
L 437.864834 236.078182 
L 438.355827 36.841818 
L 438.384709 236.078182 
L 439.048994 36.841818 
L 439.077876 236.078182 
L 439.525547 36.841818 
L 439.554429 236.078182 
L 440.045422 36.841818 
L 440.074304 236.078182 
L 440.767471 36.841818 
L 440.796353 236.078182 
L 441.287346 36.841818 
L 441.316228 236.078182 
L 441.980513 36.841818 
L 442.009395 236.078182 
L 442.457065 36.841818 
L 442.485947 236.078182 
L 443.005823 36.841818 
L 443.034704 236.078182 
L 443.69899 36.841818 
L 443.727871 236.078182 
L 444.218865 36.841818 
L 444.247747 236.078182 
L 444.912032 36.841818 
L 444.940914 236.078182 
L 445.388584 36.841818 
L 445.417466 236.078182 
L 445.908459 36.841818 
L 445.937341 236.078182 
L 446.601626 36.841818 
L 446.630508 236.078182 
L 447.121502 36.841818 
L 447.150384 236.078182 
L 447.843551 36.841818 
L 447.872432 236.078182 
L 448.320103 36.841818 
L 448.348985 236.078182 
L 448.839978 36.841818 
L 448.86886 236.078182 
L 449.533145 36.841818 
L 449.562027 236.078182 
L 450.081902 36.841818 
L 450.110784 236.078182 
L 450.775069 36.841818 
L 450.803951 236.078182 
L 451.251622 36.841818 
L 451.280504 236.078182 
L 451.771497 36.841818 
L 451.800379 236.078182 
L 452.464664 36.841818 
L 452.493546 236.078182 
L 452.984539 36.841818 
L 453.013421 236.078182 
L 453.677706 36.841818 
L 453.706588 236.078182 
L 454.154258 36.841818 
L 454.18314 236.078182 
L 454.674134 36.841818 
L 454.703016 236.078182 
L 455.396183 36.841818 
L 455.425065 236.078182 
L 455.916058 36.841818 
L 455.94494 236.078182 
L 456.609225 36.841818 
L 456.638107 236.078182 
L 457.085777 36.841818 
L 457.114659 236.078182 
L 457.634534 36.841818 
L 457.663416 236.078182 
L 458.327701 36.841818 
L 458.356583 236.078182 
L 458.847577 36.841818 
L 458.876459 236.078182 
L 459.540744 36.841818 
L 459.569626 236.078182 
L 460.017296 36.841818 
L 460.046178 236.078182 
L 460.537171 36.841818 
L 460.566053 236.078182 
L 461.230338 36.841818 
L 461.25922 236.078182 
L 461.750213 36.841818 
L 461.779095 236.078182 
L 462.472262 36.841818 
L 462.501144 236.078182 
L 462.948815 36.841818 
L 462.977697 236.078182 
L 463.46869 36.841818 
L 463.497572 236.078182 
L 464.161857 36.841818 
L 464.190739 236.078182 
L 464.710614 36.841818 
L 464.739496 236.078182 
L 465.403781 36.841818 
L 465.432663 236.078182 
L 465.880333 36.841818 
L 465.909215 236.078182 
L 466.400209 36.841818 
L 466.429091 236.078182 
L 467.093376 36.841818 
L 467.122258 236.078182 
L 467.613251 36.841818 
L 467.642133 236.078182 
L 468.306418 36.841818 
L 468.3353 236.078182 
L 468.78297 36.841818 
L 468.811852 236.078182 
L 469.302845 36.841818 
L 469.331727 236.078182 
L 470.024894 36.841818 
L 470.053776 236.078182 
L 470.54477 36.841818 
L 470.573652 236.078182 
L 471.237937 36.841818 
L 471.266819 236.078182 
L 471.714489 36.841818 
L 471.743371 236.078182 
L 472.263246 36.841818 
L 472.292128 236.078182 
L 472.956413 36.841818 
L 472.985295 236.078182 
L 473.476288 36.841818 
L 473.50517 236.078182 
L 474.169455 36.841818 
L 474.198337 236.078182 
L 474.646008 36.841818 
L 474.67489 236.078182 
L 475.165883 36.841818 
L 475.194765 236.078182 
L 475.85905 36.841818 
L 475.887932 236.078182 
L 476.378925 36.841818 
L 476.407807 236.078182 
L 477.072092 36.841818 
L 477.100974 236.078182 
L 477.548644 36.841818 
L 477.577526 236.078182 
L 478.06852 36.841818 
L 478.097402 236.078182 
L 478.761687 36.841818 
L 478.790569 236.078182 
L 479.310444 36.841818 
L 479.339326 236.078182 
L 480.003611 36.841818 
L 480.032493 236.078182 
L 480.480163 36.841818 
L 480.509045 236.078182 
L 481.000038 36.841818 
L 481.02892 236.078182 
L 481.693205 36.841818 
L 481.722087 236.078182 
L 482.213081 36.841818 
L 482.241963 236.078182 
L 482.906248 36.841818 
L 482.93513 236.078182 
L 483.3828 36.841818 
L 483.411682 236.078182 
L 483.902675 36.841818 
L 483.931557 236.078182 
L 484.595842 36.841818 
L 484.624724 236.078182 
L 485.115717 36.841818 
L 485.144599 236.078182 
L 485.808884 36.841818 
L 485.837766 236.078182 
L 486.285437 36.841818 
L 486.314319 236.078182 
L 486.834194 36.841818 
L 486.863076 236.078182 
L 487.527361 36.841818 
L 487.556243 236.078182 
L 488.047236 36.841818 
L 488.076118 236.078182 
L 488.740403 36.841818 
L 488.769285 236.078182 
L 489.216956 36.841818 
L 489.245838 236.078182 
L 489.736831 36.841818 
L 489.765713 236.078182 
L 490.429998 36.841818 
L 490.45888 236.078182 
L 490.949873 36.841818 
L 490.978755 236.078182 
L 491.64304 36.841818 
L 491.671922 236.078182 
L 492.119592 36.841818 
L 492.148474 236.078182 
L 492.639468 36.841818 
L 492.66835 236.078182 
L 493.332635 36.841818 
L 493.361517 236.078182 
L 493.881392 36.841818 
L 493.910274 236.078182 
L 494.574559 36.841818 
L 494.603441 236.078182 
L 495.051111 36.841818 
L 495.079993 236.078182 
L 495.570986 36.841818 
L 495.599868 236.078182 
L 496.264153 36.841818 
L 496.293035 236.078182 
L 496.784029 36.841818 
L 496.812911 236.078182 
L 497.477196 36.841818 
L 497.506078 236.078182 
L 497.953748 36.841818 
L 497.98263 236.078182 
L 498.473623 36.841818 
L 498.502505 236.078182 
L 499.16679 36.841818 
L 499.195672 236.078182 
L 499.686665 36.841818 
L 499.715547 236.078182 
L 500.379832 36.841818 
L 500.408714 236.078182 
L 500.856385 36.841818 
L 500.885267 236.078182 
L 501.405142 36.841818 
L 501.434024 236.078182 
L 502.098309 36.841818 
L 502.127191 236.078182 
L 502.618184 36.841818 
L 502.647066 236.078182 
L 503.311351 36.841818 
L 503.340233 236.078182 
L 503.787903 36.841818 
L 503.816785 236.078182 
L 504.307779 36.841818 
L 504.336661 236.078182 
L 505.000946 36.841818 
L 505.029828 236.078182 
L 505.520821 36.841818 
L 505.549703 236.078182 
L 506.213988 36.841818 
L 506.24287 236.078182 
L 506.69054 36.841818 
L 506.719422 236.078182 
L 507.210415 36.841818 
L 507.239297 236.078182 
L 507.903582 36.841818 
L 507.932464 236.078182 
L 508.45234 36.841818 
L 508.481222 236.078182 
L 509.145507 36.841818 
L 509.174389 236.078182 
L 509.622059 36.841818 
L 509.650941 236.078182 
L 510.141934 36.841818 
L 510.170816 236.078182 
L 510.835101 36.841818 
L 510.863983 236.078182 
L 511.354976 36.841818 
L 511.383858 236.078182 
L 512.048143 36.841818 
L 512.077025 236.078182 
L 512.524696 36.841818 
L 512.553578 236.078182 
L 513.044571 36.841818 
L 513.073453 236.078182 
L 513.737738 36.841818 
L 513.76662 236.078182 
L 514.257613 36.841818 
L 514.286495 236.078182 
L 514.95078 36.841818 
L 514.979662 236.078182 
L 515.427333 36.841818 
L 515.456215 236.078182 
L 515.97609 36.841818 
L 516.004972 236.078182 
L 516.669257 36.841818 
L 516.698139 236.078182 
L 517.189132 36.841818 
L 517.218014 236.078182 
L 517.882299 36.841818 
L 517.911181 236.078182 
L 518.358851 36.841818 
L 518.387733 236.078182 
L 518.878727 36.841818 
L 518.907609 236.078182 
L 519.571894 36.841818 
L 519.600776 236.078182 
L 520.091769 36.841818 
L 520.120651 236.078182 
L 520.784936 36.841818 
L 520.813818 236.078182 
L 521.261488 36.841818 
L 521.29037 236.078182 
L 521.781363 36.841818 
L 521.810245 236.078182 
L 522.47453 36.841818 
L 522.503412 236.078182 
L 523.023288 36.841818 
L 523.05217 236.078182 
L 523.716455 36.841818 
L 523.745337 236.078182 
L 524.193007 36.841818 
L 524.221889 236.078182 
L 524.712882 36.841818 
L 524.741764 236.078182 
L 525.406049 36.841818 
L 525.434931 236.078182 
L 525.925924 36.841818 
L 525.954806 236.078182 
L 526.619091 36.841818 
L 526.647973 236.078182 
L 527.095644 36.841818 
L 527.124526 236.078182 
L 527.615519 36.841818 
L 527.644401 236.078182 
L 528.308686 36.841818 
L 528.337568 236.078182 
L 528.828561 36.841818 
L 528.857443 236.078182 
L 529.521728 36.841818 
L 529.55061 236.078182 
L 529.99828 36.841818 
L 530.027162 236.078182 
L 530.547038 36.841818 
L 530.57592 236.078182 
L 531.240205 36.841818 
L 531.269087 236.078182 
L 531.76008 36.841818 
L 531.788962 236.078182 
L 532.453247 36.841818 
L 532.482129 236.078182 
L 532.929799 36.841818 
L 532.958681 236.078182 
L 533.449674 36.841818 
L 533.478556 236.078182 
L 534.142841 36.841818 
L 534.171723 236.078182 
L 534.662717 36.841818 
L 534.691599 236.078182 
L 535.355884 36.841818 
L 535.384766 236.078182 
L 535.832436 36.841818 
L 535.861318 236.078182 
L 536.352311 36.841818 
L 536.381193 236.078182 
L 537.045478 36.841818 
L 537.07436 236.078182 
L 537.594235 36.841818 
L 537.623117 236.078182 
L 538.287402 36.841818 
L 538.316284 236.078182 
L 538.763955 36.841818 
L 538.792837 236.078182 
L 539.28383 36.841818 
L 539.312712 236.078182 
L 539.976997 36.841818 
L 540.005879 236.078182 
L 540.496872 36.841818 
L 540.525754 236.078182 
L 541.190039 36.841818 
L 541.218921 236.078182 
L 541.666592 36.841818 
L 541.695474 236.078182 
L 542.186467 36.841818 
L 542.215349 236.078182 
L 542.879634 36.841818 
L 542.908516 236.078182 
L 543.399509 36.841818 
L 543.428391 236.078182 
L 544.092676 36.841818 
L 544.121558 236.078182 
L 544.569228 36.841818 
L 544.59811 236.078182 
L 545.117986 36.841818 
L 545.146867 236.078182 
L 545.811153 36.841818 
L 545.840034 236.078182 
L 546.331028 36.841818 
L 546.35991 236.078182 
L 547.024195 36.841818 
L 547.053077 236.078182 
L 547.500747 36.841818 
L 547.529629 236.078182 
L 548.020622 36.841818 
L 548.049504 236.078182 
L 548.713789 36.841818 
L 548.742671 236.078182 
L 549.233665 36.841818 
L 549.262547 236.078182 
L 549.926832 36.841818 
L 549.955714 236.078182 
L 550.403384 36.841818 
L 550.432266 236.078182 
L 550.923259 36.841818 
L 550.952141 236.078182 
L 551.616426 36.841818 
L 551.645308 236.078182 
L 552.165183 36.841818 
L 552.194065 236.078182 
L 552.85835 36.841818 
L 552.887232 236.078182 
L 553.334903 36.841818 
L 553.363785 236.078182 
L 553.854778 36.841818 
L 553.88366 236.078182 
L 554.547945 36.841818 
L 554.576827 236.078182 
L 555.06782 36.841818 
L 555.096702 236.078182 
L 555.760987 36.841818 
L 555.789869 236.078182 
L 556.237539 36.841818 
L 556.266421 236.078182 
L 556.757415 36.841818 
L 556.786297 236.078182 
L 557.450582 36.841818 
L 557.479464 236.078182 
L 557.970457 36.841818 
L 557.999339 236.078182 
L 558.663624 36.841818 
L 558.692506 236.078182 
L 559.140176 36.841818 
L 559.169058 236.078182 
L 559.688933 36.841818 
L 559.717815 236.078182 
L 560.3821 36.841818 
L 560.410982 236.078182 
L 560.901976 36.841818 
L 560.930858 236.078182 
L 561.595143 36.841818 
L 561.624025 236.078182 
L 562.071695 36.841818 
L 562.100577 236.078182 
L 562.59157 36.841818 
L 562.620452 236.078182 
L 563.284737 36.841818 
L 563.313619 236.078182 
L 563.804612 36.841818 
L 563.833494 236.078182 
L 564.497779 36.841818 
L 564.526661 236.078182 
L 564.974332 36.841818 
L 565.003214 236.078182 
L 565.494207 36.841818 
L 565.523089 236.078182 
L 566.187374 36.841818 
L 566.216256 236.078182 
L 566.736131 36.841818 
L 566.765013 236.078182 
L 567.429298 36.841818 
L 567.45818 236.078182 
L 567.905851 36.841818 
L 567.934732 236.078182 
L 568.425726 36.841818 
L 568.454608 236.078182 
L 569.118893 36.841818 
L 569.147775 236.078182 
L 569.638768 36.841818 
L 569.66765 236.078182 
L 570.331935 36.841818 
L 570.360817 236.078182 
L 570.808487 36.841818 
L 570.837369 236.078182 
L 571.328363 36.841818 
L 571.357245 236.078182 
L 572.02153 36.841818 
L 572.050412 236.078182 
L 572.541405 36.841818 
L 572.570287 236.078182 
L 573.234572 36.841818 
L 573.263454 236.078182 
L 573.711124 36.841818 
L 573.740006 236.078182 
L 574.259881 36.841818 
L 574.288763 236.078182 
L 574.953048 36.841818 
L 574.98193 236.078182 
L 575.472924 36.841818 
L 575.501806 236.078182 
L 576.166091 36.841818 
L 576.194973 236.078182 
L 576.642643 36.841818 
L 576.671525 236.078182 
L 577.162518 36.841818 
L 577.1914 236.078182 
L 577.855685 36.841818 
L 577.884567 236.078182 
L 578.37556 36.841818 
L 578.404442 236.078182 
L 579.068727 36.841818 
L 579.097609 236.078182 
L 579.54528 36.841818 
L 579.574162 236.078182 
L 580.065155 36.841818 
L 580.094037 236.078182 
L 580.758322 36.841818 
L 580.787204 236.078182 
L 581.307079 36.841818 
L 581.335961 236.078182 
L 582.000246 36.841818 
L 582.029128 236.078182 
L 582.476798 36.841818 
L 582.50568 236.078182 
L 582.996674 36.841818 
L 583.025556 236.078182 
L 583.689841 36.841818 
L 583.718723 236.078182 
L 584.209716 36.841818 
L 584.238598 236.078182 
L 584.902883 36.841818 
L 584.931765 236.078182 
L 585.379435 36.841818 
L 585.408317 236.078182 
L 585.89931 36.841818 
L 585.928192 236.078182 
L 586.592477 36.841818 
L 586.621359 236.078182 
L 587.112353 36.841818 
L 587.141235 236.078182 
L 587.80552 36.841818 
L 587.834402 236.078182 
L 588.282072 36.841818 
L 588.310954 236.078182 
L 588.830829 36.841818 
L 588.859711 236.078182 
L 589.523996 36.841818 
L 589.552878 236.078182 
L 590.043871 36.841818 
L 590.072753 236.078182 
L 590.737038 36.841818 
L 590.76592 236.078182 
L 591.213591 36.841818 
L 591.242473 236.078182 
L 591.733466 36.841818 
L 591.762348 236.078182 
L 592.426633 36.841818 
L 592.455515 236.078182 
L 592.946508 36.841818 
L 592.97539 236.078182 
L 593.639675 36.841818 
L 593.668557 236.078182 
L 594.116228 36.841818 
L 594.145109 236.078182 
L 594.636103 36.841818 
L 594.664985 236.078182 
L 595.32927 36.841818 
L 595.358152 236.078182 
L 595.878027 36.841818 
L 595.906909 236.078182 
L 596.571194 36.841818 
L 596.600076 236.078182 
L 597.047746 36.841818 
L 597.076628 236.078182 
L 597.567622 36.841818 
L 597.596503 236.078182 
L 598.260789 36.841818 
L 598.28967 236.078182 
L 598.780664 36.841818 
L 598.809546 236.078182 
L 599.473831 36.841818 
L 599.502713 236.078182 
L 599.950383 36.841818 
L 599.979265 236.078182 
L 600.470258 36.841818 
L 600.49914 236.078182 
L 601.163425 36.841818 
L 601.192307 236.078182 
L 601.683301 36.841818 
L 601.712183 236.078182 
L 602.376468 36.841818 
L 602.40535 236.078182 
L 602.85302 36.841818 
L 602.881902 236.078182 
L 603.401777 36.841818 
L 603.430659 236.078182 
L 604.094944 36.841818 
L 604.123826 236.078182 
L 604.614819 36.841818 
L 604.643701 236.078182 
L 605.307986 36.841818 
L 605.336868 236.078182 
L 605.784539 36.841818 
L 605.813421 236.078182 
L 606.304414 36.841818 
L 606.333296 236.078182 
L 606.997581 36.841818 
L 607.026463 236.078182 
L 607.517456 36.841818 
L 607.546338 236.078182 
L 608.210623 36.841818 
L 608.239505 236.078182 
L 608.687175 36.841818 
L 608.716057 236.078182 
L 609.207051 36.841818 
L 609.235933 236.078182 
L 609.900218 36.841818 
L 609.9291 236.078182 
L 610.420093 36.841818 
L 610.448975 236.078182 
L 611.084378 36.841818 
L 611.11326 236.078182 
L 611.589812 36.841818 
L 611.618694 236.078182 
L 612.29742 36.841818 
L 612.326302 236.078182 
L 612.961705 36.841818 
L 612.990587 236.078182 
L 613.496021 36.841818 
L 613.524903 236.078182 
L 614.376921 36.841818 
L 614.405803 236.078182 
L 614.867914 36.841818 
L 614.896796 236.078182 
L 615.575522 103.427837 
L 615.633286 234.902687 
L 616.066516 170.667657 
L 616.095398 236.078182 
L 616.759683 36.841818 
L 616.788565 236.078182 
L 617.293999 36.841818 
L 617.322881 236.078182 
L 618.030489 36.841818 
L 618.059371 236.078182 
L 618.694774 36.841818 
L 618.723656 236.078182 
L 619.214649 36.841818 
L 619.243531 236.078182 
L 619.922257 36.841818 
L 619.951139 236.078182 
L 620.629865 36.841818 
L 620.658747 236.078182 
L 621.539647 103.419916 
L 621.785143 235.213496 
L 622.348342 234.844756 
L 622.593838 235.611969 
L 623.2148 234.525978 
L 623.460297 234.775176 
L 624.037936 174.919619 
L 624.066818 236.078182 
L 624.514488 36.841818 
L 624.54337 236.078182 
L 625.034364 36.841818 
L 625.063246 236.078182 
L 625.727531 36.841818 
L 625.756413 236.078182 
L 626.247406 36.841818 
L 626.276288 236.078182 
L 626.940573 36.841818 
L 626.969455 236.078182 
L 627.417125 36.841818 
L 627.446007 236.078182 
L 627.937001 36.841818 
L 627.965882 236.078182 
L 628.630168 36.841818 
L 628.659049 236.078182 
L 629.178925 36.841818 
L 629.207807 236.078182 
L 629.872092 36.841818 
L 629.900974 236.078182 
L 630.348644 36.841818 
L 630.377526 236.078182 
L 630.868519 36.841818 
L 630.897401 236.078182 
L 631.561686 36.841818 
L 631.590568 236.078182 
L 632.081562 36.841818 
L 632.110443 236.078182 
L 632.774729 36.841818 
L 632.80361 236.078182 
L 633.251281 36.841818 
L 633.280163 236.078182 
L 633.771156 36.841818 
L 633.800038 236.078182 
L 634.464323 36.841818 
L 634.493205 236.078182 
L 634.984198 36.841818 
L 635.01308 236.078182 
L 635.677365 36.841818 
L 635.706247 236.078182 
L 636.153918 36.841818 
L 636.1828 236.078182 
L 636.702675 36.841818 
L 636.731557 236.078182 
L 637.395842 36.841818 
L 637.424724 236.078182 
L 637.915717 36.841818 
L 637.944599 236.078182 
L 638.608884 36.841818 
L 638.637766 236.078182 
L 639.085436 36.841818 
L 639.114318 236.078182 
L 639.605312 36.841818 
L 639.634194 236.078182 
L 640.298479 36.841818 
L 640.327361 236.078182 
L 640.818354 36.841818 
L 640.847236 236.078182 
L 641.511521 36.841818 
L 641.540403 236.078182 
L 641.988073 36.841818 
L 642.016955 236.078182 
L 642.507948 36.841818 
L 642.53683 236.078182 
L 643.201115 36.841818 
L 643.229997 236.078182 
L 643.749873 36.841818 
L 643.778755 236.078182 
L 644.44304 36.841818 
L 644.471922 236.078182 
L 644.919592 36.841818 
L 644.948474 236.078182 
L 645.439467 36.841818 
L 645.468349 236.078182 
L 646.132634 36.841818 
L 646.161516 236.078182 
L 646.652509 36.841818 
L 646.681391 236.078182 
L 647.345676 36.841818 
L 647.374558 236.078182 
L 647.822229 36.841818 
L 647.851111 236.078182 
L 648.342104 36.841818 
L 648.370986 236.078182 
L 649.035271 36.841818 
L 649.064153 236.078182 
L 649.555146 36.841818 
L 649.584028 236.078182 
L 650.248313 36.841818 
L 650.277195 236.078182 
L 650.724865 36.841818 
L 650.753747 236.078182 
L 651.273623 36.841818 
L 651.302505 236.078182 
L 651.96679 36.841818 
L 651.995672 236.078182 
L 652.486665 36.841818 
L 652.515547 236.078182 
L 653.179832 36.841818 
L 653.208714 236.078182 
L 653.656384 36.841818 
L 653.685266 236.078182 
L 654.176259 36.841818 
L 654.205141 236.078182 
L 654.869426 36.841818 
L 654.898308 236.078182 
L 655.389302 36.841818 
L 655.418184 236.078182 
L 656.082469 36.841818 
L 656.111351 236.078182 
L 656.559021 36.841818 
L 656.587903 236.078182 
L 657.078896 36.841818 
L 657.107778 236.078182 
L 657.772063 36.841818 
L 657.800945 236.078182 
L 658.32082 36.841818 
L 658.349702 236.078182 
L 659.013987 36.841818 
L 659.042869 236.078182 
L 659.49054 36.841818 
L 659.519422 236.078182 
L 660.010415 36.841818 
L 660.039297 236.078182 
L 660.703582 36.841818 
L 660.732464 236.078182 
L 661.223457 36.841818 
L 661.252339 236.078182 
L 661.916624 36.841818 
L 661.945506 236.078182 
L 662.393177 36.841818 
L 662.422059 236.078182 
L 662.913052 36.841818 
L 662.941934 236.078182 
L 663.606219 36.841818 
L 663.635101 236.078182 
L 664.126094 36.841818 
L 664.154976 236.078182 
L 664.819261 36.841818 
L 664.848143 236.078182 
L 665.295813 36.841818 
L 665.324695 236.078182 
L 665.844571 36.841818 
L 665.873453 236.078182 
L 666.537738 36.841818 
L 666.56662 236.078182 
L 667.057613 36.841818 
L 667.086495 236.078182 
L 667.75078 36.841818 
L 667.779662 236.078182 
L 668.227332 36.841818 
L 668.256214 236.078182 
L 668.747207 36.841818 
L 668.776089 236.078182 
L 669.440374 36.841818 
L 669.469256 236.078182 
L 669.96025 36.841818 
L 669.989132 236.078182 
L 670.653417 36.841818 
L 670.682299 236.078182 
L 671.129969 36.841818 
L 671.158851 236.078182 
L 671.649844 36.841818 
L 671.678726 236.078182 
L 672.343011 36.841818 
L 672.371893 236.078182 
L 672.891768 36.841818 
L 672.92065 236.078182 
L 673.584935 36.841818 
L 673.613817 236.078182 
L 674.061488 36.841818 
L 674.09037 236.078182 
L 674.581363 36.841818 
L 674.610245 236.078182 
L 675.27453 36.841818 
L 675.303412 236.078182 
L 675.794405 36.841818 
L 675.823287 236.078182 
L 676.487572 36.841818 
L 676.516454 236.078182 
L 676.964124 36.841818 
L 676.993006 236.078182 
L 677.484 36.841818 
L 677.512882 236.078182 
L 678.177167 36.841818 
L 678.206049 236.078182 
L 678.697042 36.841818 
L 678.725924 236.078182 
L 679.390209 36.841818 
L 679.419091 236.078182 
L 679.419091 236.078182 
" clip-path="url(#p1e587fb768)" style="fill: none; stroke: #1f77b4; stroke-width: 1.5; stroke-linecap: square"/>
   </g>
   <g id="patch_3">
    <path d="M 54.02 246.04 
L 54.02 26.88 
" style="fill: none; stroke: #000000; stroke-width: 0.8; stroke-linejoin: miter; stroke-linecap: square"/>
   </g>
   <g id="patch_4">
    <path d="M 709.2 246.04 
L 709.2 26.88 
" style="fill: none; stroke: #000000; stroke-width: 0.8; stroke-linejoin: miter; stroke-linecap: square"/>
   </g>
   <g id="patch_5">
    <path d="M 54.02 246.04 
L 709.2 246.04 
" style="fill: none; stroke: #000000; stroke-width: 0.8; stroke-linejoin: miter; stroke-linecap: square"/>
   </g>
   <g id="patch_6">
    <path d="M 54.02 26.88 
L 709.2 26.88 
" style="fill: none; stroke: #000000; stroke-width: 0.8; stroke-linejoin: miter; stroke-linecap: square"/>
   </g>
   <g id="text_14">
    <!-- queueBitLength:vector (HandoverShowcase.ap1.wlan[0].mac.dcf.channelAccess.pendingQueue) -->
    <g transform="translate(91.885 20.88) scale(0.12 -0.12)">
     <defs>
      <path id="DejaVuSans-71" d="M 947 1747 
Q 947 1113 1208 752 
Q 1469 391 1925 391 
Q 2381 391 2643 752 
Q 2906 1113 2906 1747 
Q 2906 2381 2643 2742 
Q 2381 3103 1925 3103 
Q 1469 3103 1208 2742 
Q 947 2381 947 1747 
z
M 2906 525 
Q 2725 213 2448 61 
Q 2172 -91 1784 -91 
Q 1150 -91 751 415 
Q 353 922 353 1747 
Q 353 2572 751 3078 
Q 1150 3584 1784 3584 
Q 2172 3584 2448 3432 
Q 2725 3281 2906 2969 
L 2906 3500 
L 3481 3500 
L 3481 -1331 
L 2906 -1331 
L 2906 525 
z
" transform="scale(0.015625)"/>
      <path id="DejaVuSans-42" d="M 1259 2228 
L 1259 519 
L 2272 519 
Q 2781 519 3026 730 
Q 3272 941 3272 1375 
Q 3272 1813 3026 2020 
Q 2781 2228 2272 2228 
L 1259 2228 
z
M 1259 4147 
L 1259 2741 
L 2194 2741 
Q 2656 2741 2882 2914 
Q 3109 3088 3109 3444 
Q 3109 3797 2882 3972 
Q 2656 4147 2194 4147 
L 1259 4147 
z
M 628 4666 
L 2241 4666 
Q 2963 4666 3353 4366 
Q 3744 4066 3744 3513 
Q 3744 3084 3544 2831 
Q 3344 2578 2956 2516 
Q 3422 2416 3680 2098 
Q 3938 1781 3938 1306 
Q 3938 681 3513 340 
Q 3088 0 2303 0 
L 628 0 
L 628 4666 
z
" transform="scale(0.015625)"/>
      <path id="DejaVuSans-4c" d="M 628 4666 
L 1259 4666 
L 1259 531 
L 3531 531 
L 3531 0 
L 628 0 
L 628 4666 
z
" transform="scale(0.015625)"/>
      <path id="DejaVuSans-6e" d="M 3513 2113 
L 3513 0 
L 2938 0 
L 2938 2094 
Q 2938 2591 2744 2837 
Q 2550 3084 2163 3084 
Q 1697 3084 1428 2787 
Q 1159 2491 1159 1978 
L 1159 0 
L 581 0 
L 581 3500 
L 1159 3500 
L 1159 2956 
Q 1366 3272 1645 3428 
Q 1925 3584 2291 3584 
Q 2894 3584 3203 3211 
Q 3513 2838 3513 2113 
z
" transform="scale(0.015625)"/>
      <path id="DejaVuSans-67" d="M 2906 1791 
Q 2906 2416 2648 2759 
Q 2391 3103 1925 3103 
Q 1463 3103 1205 2759 
Q 947 2416 947 1791 
Q 947 1169 1205 825 
Q 1463 481 1925 481 
Q 2391 481 2648 825 
Q 2906 1169 2906 1791 
z
M 3481 434 
Q 3481 -459 3084 -895 
Q 2688 -1331 1869 -1331 
Q 1566 -1331 1297 -1286 
Q 1028 -1241 775 -1147 
L 775 -588 
Q 1028 -725 1275 -790 
Q 1522 -856 1778 -856 
Q 2344 -856 2625 -561 
Q 2906 -266 2906 331 
L 2906 616 
Q 2728 306 2450 153 
Q 2172 0 1784 0 
Q 1141 0 747 490 
Q 353 981 353 1791 
Q 353 2603 747 3093 
Q 1141 3584 1784 3584 
Q 2172 3584 2450 3431 
Q 2728 3278 2906 2969 
L 2906 3500 
L 3481 3500 
L 3481 434 
z
" transform="scale(0.015625)"/>
      <path id="DejaVuSans-68" d="M 3513 2113 
L 3513 0 
L 2938 0 
L 2938 2094 
Q 2938 2591 2744 2837 
Q 2550 3084 2163 3084 
Q 1697 3084 1428 2787 
Q 1159 2491 1159 1978 
L 1159 0 
L 581 0 
L 581 4863 
L 1159 4863 
L 1159 2956 
Q 1366 3272 1645 3428 
Q 1925 3584 2291 3584 
Q 2894 3584 3203 3211 
Q 3513 2838 3513 2113 
z
" transform="scale(0.015625)"/>
      <path id="DejaVuSans-3a" d="M 750 794 
L 1409 794 
L 1409 0 
L 750 0 
L 750 794 
z
M 750 3309 
L 1409 3309 
L 1409 2516 
L 750 2516 
L 750 3309 
z
" transform="scale(0.015625)"/>
      <path id="DejaVuSans-76" d="M 191 3500 
L 800 3500 
L 1894 563 
L 2988 3500 
L 3597 3500 
L 2284 0 
L 1503 0 
L 191 3500 
z
" transform="scale(0.015625)"/>
      <path id="DejaVuSans-63" d="M 3122 3366 
L 3122 2828 
Q 2878 2963 2633 3030 
Q 2388 3097 2138 3097 
Q 1578 3097 1268 2742 
Q 959 2388 959 1747 
Q 959 1106 1268 751 
Q 1578 397 2138 397 
Q 2388 397 2633 464 
Q 2878 531 3122 666 
L 3122 134 
Q 2881 22 2623 -34 
Q 2366 -91 2075 -91 
Q 1284 -91 818 406 
Q 353 903 353 1747 
Q 353 2603 823 3093 
Q 1294 3584 2113 3584 
Q 2378 3584 2631 3529 
Q 2884 3475 3122 3366 
z
" transform="scale(0.015625)"/>
      <path id="DejaVuSans-6f" d="M 1959 3097 
Q 1497 3097 1228 2736 
Q 959 2375 959 1747 
Q 959 1119 1226 758 
Q 1494 397 1959 397 
Q 2419 397 2687 759 
Q 2956 1122 2956 1747 
Q 2956 2369 2687 2733 
Q 2419 3097 1959 3097 
z
M 1959 3584 
Q 2709 3584 3137 3096 
Q 3566 2609 3566 1747 
Q 3566 888 3137 398 
Q 2709 -91 1959 -91 
Q 1206 -91 779 398 
Q 353 888 353 1747 
Q 353 2609 779 3096 
Q 1206 3584 1959 3584 
z
" transform="scale(0.015625)"/>
      <path id="DejaVuSans-72" d="M 2631 2963 
Q 2534 3019 2420 3045 
Q 2306 3072 2169 3072 
Q 1681 3072 1420 2755 
Q 1159 2438 1159 1844 
L 1159 0 
L 581 0 
L 581 3500 
L 1159 3500 
L 1159 2956 
Q 1341 3275 1631 3429 
Q 1922 3584 2338 3584 
Q 2397 3584 2469 3576 
Q 2541 3569 2628 3553 
L 2631 2963 
z
" transform="scale(0.015625)"/>
      <path id="DejaVuSans-48" d="M 628 4666 
L 1259 4666 
L 1259 2753 
L 3553 2753 
L 3553 4666 
L 4184 4666 
L 4184 0 
L 3553 0 
L 3553 2222 
L 1259 2222 
L 1259 0 
L 628 0 
L 628 4666 
z
" transform="scale(0.015625)"/>
      <path id="DejaVuSans-64" d="M 2906 2969 
L 2906 4863 
L 3481 4863 
L 3481 0 
L 2906 0 
L 2906 525 
Q 2725 213 2448 61 
Q 2172 -91 1784 -91 
Q 1150 -91 751 415 
Q 353 922 353 1747 
Q 353 2572 751 3078 
Q 1150 3584 1784 3584 
Q 2172 3584 2448 3432 
Q 2725 3281 2906 2969 
z
M 947 1747 
Q 947 1113 1208 752 
Q 1469 391 1925 391 
Q 2381 391 2643 752 
Q 2906 1113 2906 1747 
Q 2906 2381 2643 2742 
Q 2381 3103 1925 3103 
Q 1469 3103 1208 2742 
Q 947 2381 947 1747 
z
" transform="scale(0.015625)"/>
      <path id="DejaVuSans-53" d="M 3425 4513 
L 3425 3897 
Q 3066 4069 2747 4153 
Q 2428 4238 2131 4238 
Q 1616 4238 1336 4038 
Q 1056 3838 1056 3469 
Q 1056 3159 1242 3001 
Q 1428 2844 1947 2747 
L 2328 2669 
Q 3034 2534 3370 2195 
Q 3706 1856 3706 1288 
Q 3706 609 3251 259 
Q 2797 -91 1919 -91 
Q 1588 -91 1214 -16 
Q 841 59 441 206 
L 441 856 
Q 825 641 1194 531 
Q 1563 422 1919 422 
Q 2459 422 2753 634 
Q 3047 847 3047 1241 
Q 3047 1584 2836 1778 
Q 2625 1972 2144 2069 
L 1759 2144 
Q 1053 2284 737 2584 
Q 422 2884 422 3419 
Q 422 4038 858 4394 
Q 1294 4750 2059 4750 
Q 2388 4750 2728 4690 
Q 3069 4631 3425 4513 
z
" transform="scale(0.015625)"/>
      <path id="DejaVuSans-77" d="M 269 3500 
L 844 3500 
L 1563 769 
L 2278 3500 
L 2956 3500 
L 3675 769 
L 4391 3500 
L 4966 3500 
L 4050 0 
L 3372 0 
L 2619 2869 
L 1863 0 
L 1184 0 
L 269 3500 
z
" transform="scale(0.015625)"/>
      <path id="DejaVuSans-70" d="M 1159 525 
L 1159 -1331 
L 581 -1331 
L 581 3500 
L 1159 3500 
L 1159 2969 
Q 1341 3281 1617 3432 
Q 1894 3584 2278 3584 
Q 2916 3584 3314 3078 
Q 3713 2572 3713 1747 
Q 3713 922 3314 415 
Q 2916 -91 2278 -91 
Q 1894 -91 1617 61 
Q 1341 213 1159 525 
z
M 3116 1747 
Q 3116 2381 2855 2742 
Q 2594 3103 2138 3103 
Q 1681 3103 1420 2742 
Q 1159 2381 1159 1747 
Q 1159 1113 1420 752 
Q 1681 391 2138 391 
Q 2594 391 2855 752 
Q 3116 1113 3116 1747 
z
" transform="scale(0.015625)"/>
      <path id="DejaVuSans-5b" d="M 550 4863 
L 1875 4863 
L 1875 4416 
L 1125 4416 
L 1125 -397 
L 1875 -397 
L 1875 -844 
L 550 -844 
L 550 4863 
z
" transform="scale(0.015625)"/>
      <path id="DejaVuSans-5d" d="M 1947 4863 
L 1947 -844 
L 622 -844 
L 622 -397 
L 1369 -397 
L 1369 4416 
L 622 4416 
L 622 4863 
L 1947 4863 
z
" transform="scale(0.015625)"/>
      <path id="DejaVuSans-66" d="M 2375 4863 
L 2375 4384 
L 1825 4384 
Q 1516 4384 1395 4259 
Q 1275 4134 1275 3809 
L 1275 3500 
L 2222 3500 
L 2222 3053 
L 1275 3053 
L 1275 0 
L 697 0 
L 697 3053 
L 147 3053 
L 147 3500 
L 697 3500 
L 697 3744 
Q 697 4328 969 4595 
Q 1241 4863 1831 4863 
L 2375 4863 
z
" transform="scale(0.015625)"/>
      <path id="DejaVuSans-41" d="M 2188 4044 
L 1331 1722 
L 3047 1722 
L 2188 4044 
z
M 1831 4666 
L 2547 4666 
L 4325 0 
L 3669 0 
L 3244 1197 
L 1141 1197 
L 716 0 
L 50 0 
L 1831 4666 
z
" transform="scale(0.015625)"/>
      <path id="DejaVuSans-51" d="M 2522 4238 
Q 1834 4238 1429 3725 
Q 1025 3213 1025 2328 
Q 1025 1447 1429 934 
Q 1834 422 2522 422 
Q 3209 422 3611 934 
Q 4013 1447 4013 2328 
Q 4013 3213 3611 3725 
Q 3209 4238 2522 4238 
z
M 3406 84 
L 4238 -825 
L 3475 -825 
L 2784 -78 
Q 2681 -84 2626 -87 
Q 2572 -91 2522 -91 
Q 1538 -91 948 567 
Q 359 1225 359 2328 
Q 359 3434 948 4092 
Q 1538 4750 2522 4750 
Q 3503 4750 4090 4092 
Q 4678 3434 4678 2328 
Q 4678 1516 4351 937 
Q 4025 359 3406 84 
z
" transform="scale(0.015625)"/>
     </defs>
     <use xlink:href="#DejaVuSans-71"/>
     <use xlink:href="#DejaVuSans-75" x="63.476562"/>
     <use xlink:href="#DejaVuSans-65" x="126.855469"/>
     <use xlink:href="#DejaVuSans-75" x="188.378906"/>
     <use xlink:href="#DejaVuSans-65" x="251.757812"/>
     <use xlink:href="#DejaVuSans-42" x="313.28125"/>
     <use xlink:href="#DejaVuSans-69" x="381.884766"/>
     <use xlink:href="#DejaVuSans-74" x="409.667969"/>
     <use xlink:href="#DejaVuSans-4c" x="448.876953"/>
     <use xlink:href="#DejaVuSans-65" x="502.839844"/>
     <use xlink:href="#DejaVuSans-6e" x="564.363281"/>
     <use xlink:href="#DejaVuSans-67" x="627.742188"/>
     <use xlink:href="#DejaVuSans-74" x="691.21875"/>
     <use xlink:href="#DejaVuSans-68" x="730.427734"/>
     <use xlink:href="#DejaVuSans-3a" x="793.806641"/>
     <use xlink:href="#DejaVuSans-76" x="827.498047"/>
     <use xlink:href="#DejaVuSans-65" x="886.677734"/>
     <use xlink:href="#DejaVuSans-63" x="948.201172"/>
     <use xlink:href="#DejaVuSans-74" x="1003.181641"/>
     <use xlink:href="#DejaVuSans-6f" x="1042.390625"/>
     <use xlink:href="#DejaVuSans-72" x="1103.572266"/>
     <use xlink:href="#DejaVuSans-20" x="1144.685547"/>
     <use xlink:href="#DejaVuSans-28" x="1176.472656"/>
     <use xlink:href="#DejaVuSans-48" x="1215.486328"/>
     <use xlink:href="#DejaVuSans-61" x="1290.681641"/>
     <use xlink:href="#DejaVuSans-6e" x="1351.960938"/>
     <use xlink:href="#DejaVuSans-64" x="1415.339844"/>
     <use xlink:href="#DejaVuSans-6f" x="1478.816406"/>
     <use xlink:href="#DejaVuSans-76" x="1539.998047"/>
     <use xlink:href="#DejaVuSans-65" x="1599.177734"/>
     <use xlink:href="#DejaVuSans-72" x="1660.701172"/>
     <use xlink:href="#DejaVuSans-53" x="1701.814453"/>
     <use xlink:href="#DejaVuSans-68" x="1765.291016"/>
     <use xlink:href="#DejaVuSans-6f" x="1828.669922"/>
     <use xlink:href="#DejaVuSans-77" x="1889.851562"/>
     <use xlink:href="#DejaVuSans-63" x="1971.638672"/>
     <use xlink:href="#DejaVuSans-61" x="2026.619141"/>
     <use xlink:href="#DejaVuSans-73" x="2087.898438"/>
     <use xlink:href="#DejaVuSans-65" x="2139.998047"/>
     <use xlink:href="#DejaVuSans-2e" x="2201.521484"/>
     <use xlink:href="#DejaVuSans-61" x="2233.308594"/>
     <use xlink:href="#DejaVuSans-70" x="2294.587891"/>
     <use xlink:href="#DejaVuSans-31" x="2358.064453"/>
     <use xlink:href="#DejaVuSans-2e" x="2421.6875"/>
     <use xlink:href="#DejaVuSans-77" x="2453.474609"/>
     <use xlink:href="#DejaVuSans-6c" x="2535.261719"/>
     <use xlink:href="#DejaVuSans-61" x="2563.044922"/>
     <use xlink:href="#DejaVuSans-6e" x="2624.324219"/>
     <use xlink:href="#DejaVuSans-5b" x="2687.703125"/>
     <use xlink:href="#DejaVuSans-30" x="2726.716797"/>
     <use xlink:href="#DejaVuSans-5d" x="2790.339844"/>
     <use xlink:href="#DejaVuSans-2e" x="2829.353516"/>
     <use xlink:href="#DejaVuSans-6d" x="2861.140625"/>
     <use xlink:href="#DejaVuSans-61" x="2958.552734"/>
     <use xlink:href="#DejaVuSans-63" x="3019.832031"/>
     <use xlink:href="#DejaVuSans-2e" x="3074.8125"/>
     <use xlink:href="#DejaVuSans-64" x="3106.599609"/>
     <use xlink:href="#DejaVuSans-63" x="3170.076172"/>
     <use xlink:href="#DejaVuSans-66" x="3225.056641"/>
     <use xlink:href="#DejaVuSans-2e" x="3253.011719"/>
     <use xlink:href="#DejaVuSans-63" x="3284.798828"/>
     <use xlink:href="#DejaVuSans-68" x="3339.779297"/>
     <use xlink:href="#DejaVuSans-61" x="3403.158203"/>
     <use xlink:href="#DejaVuSans-6e" x="3464.4375"/>
     <use xlink:href="#DejaVuSans-6e" x="3527.816406"/>
     <use xlink:href="#DejaVuSans-65" x="3591.195312"/>
     <use xlink:href="#DejaVuSans-6c" x="3652.71875"/>
     <use xlink:href="#DejaVuSans-41" x="3680.501953"/>
     <use xlink:href="#DejaVuSans-63" x="3747.160156"/>
     <use xlink:href="#DejaVuSans-63" x="3802.140625"/>
     <use xlink:href="#DejaVuSans-65" x="3857.121094"/>
     <use xlink:href="#DejaVuSans-73" x="3918.644531"/>
     <use xlink:href="#DejaVuSans-73" x="3970.744141"/>
     <use xlink:href="#DejaVuSans-2e" x="4022.84375"/>
     <use xlink:href="#DejaVuSans-70" x="4054.630859"/>
     <use xlink:href="#DejaVuSans-65" x="4118.107422"/>
     <use xlink:href="#DejaVuSans-6e" x="4179.630859"/>
     <use xlink:href="#DejaVuSans-64" x="4243.009766"/>
     <use xlink:href="#DejaVuSans-69" x="4306.486328"/>
     <use xlink:href="#DejaVuSans-6e" x="4334.269531"/>
     <use xlink:href="#DejaVuSans-67" x="4397.648438"/>
     <use xlink:href="#DejaVuSans-51" x="4461.125"/>
     <use xlink:href="#DejaVuSans-75" x="4539.835938"/>
     <use xlink:href="#DejaVuSans-65" x="4603.214844"/>
     <use xlink:href="#DejaVuSans-75" x="4664.738281"/>
     <use xlink:href="#DejaVuSans-65" x="4728.117188"/>
     <use xlink:href="#DejaVuSans-29" x="4789.640625"/>
    </g>
   </g>
   <g id="legend_1">
    <g id="patch_7">
     <path d="M 576.717187 145.299062 
L 702.2 145.299062 
Q 704.2 145.299062 704.2 143.299062 
L 704.2 129.620937 
Q 704.2 127.620937 702.2 127.620937 
L 576.717187 127.620937 
Q 574.717187 127.620937 574.717187 129.620937 
L 574.717187 143.299062 
Q 574.717187 145.299062 576.717187 145.299062 
z
" style="fill: #ffffff; opacity: 0.8; stroke: #cccccc; stroke-linejoin: miter"/>
    </g>
    <g id="line2d_24">
     <path d="M 578.717187 135.719375 
L 588.717187 135.719375 
L 598.717187 135.719375 
" style="fill: none; stroke: #1f77b4; stroke-width: 1.5; stroke-linecap: square"/>
    </g>
    <g id="text_15">
     <!-- value per sample -->
     <g transform="translate(606.717187 139.219375) scale(0.1 -0.1)">
      <defs>
       <path id="DejaVuSans-394" d="M 2188 4044 
L 906 525 
L 3472 525 
L 2188 4044 
z
M 50 0 
L 1831 4666 
L 2547 4666 
L 4325 0 
L 50 0 
z
" transform="scale(0.015625)"/>
      </defs>
      <use xlink:href="#DejaVuSans-394"/>
      <use xlink:href="#DejaVuSans-76" x="68.408203"/>
      <use xlink:href="#DejaVuSans-61" x="127.587891"/>
      <use xlink:href="#DejaVuSans-6c" x="188.867188"/>
      <use xlink:href="#DejaVuSans-75" x="216.650391"/>
      <use xlink:href="#DejaVuSans-65" x="280.029297"/>
      <use xlink:href="#DejaVuSans-20" x="341.552734"/>
      <use xlink:href="#DejaVuSans-70" x="373.339844"/>
      <use xlink:href="#DejaVuSans-65" x="436.816406"/>
      <use xlink:href="#DejaVuSans-72" x="498.339844"/>
      <use xlink:href="#DejaVuSans-20" x="539.453125"/>
      <use xlink:href="#DejaVuSans-73" x="571.240234"/>
      <use xlink:href="#DejaVuSans-61" x="623.339844"/>
      <use xlink:href="#DejaVuSans-6d" x="684.619141"/>
      <use xlink:href="#DejaVuSans-70" x="782.03125"/>
      <use xlink:href="#DejaVuSans-6c" x="845.507812"/>
      <use xlink:href="#DejaVuSans-65" x="873.291016"/>
     </g>
    </g>
   </g>
  </g>
 </g>
 <defs>
  <clipPath id="p1e587fb768">
   <rect x="54.02" y="26.88" width="655.18" height="219.16"/>
  </clipPath>
 </defs>
</svg>
