<?xml version="1.0" encoding="utf-8" standalone="no"?>
<!DOCTYPE svg PUBLIC "-//W3C//DTD SVG 1.1//EN"
  "http://www.w3.org/Graphics/SVG/1.1/DTD/svg11.dtd">
<svg xmlns:xlink="http://www.w3.org/1999/xlink" width="720pt" height="288pt" viewBox="0 0 720 288" xmlns="http://www.w3.org/2000/svg" version="1.1">
 <metadata>
  <rdf:RDF xmlns:dc="http://purl.org/dc/elements/1.1/" xmlns:cc="http://creativecommons.org/ns#" xmlns:rdf="http://www.w3.org/1999/02/22-rdf-syntax-ns#">
   <cc:Work>
    <dc:type rdf:resource="http://purl.org/dc/dcmitype/StillImage"/>
    <dc:date>2025-07-27T15:08:49.217771</dc:date>
    <dc:format>image/svg+xml</dc:format>
    <dc:creator>
     <cc:Agent>
      <dc:title>Matplotlib v3.9.2, https://matplotlib.org/</dc:title>
     </cc:Agent>
    </dc:creator>
   </cc:Work>
  </rdf:RDF>
 </metadata>
 <defs>
  <style type="text/css">*{stroke-linejoin: round; stroke-linecap: butt}</style>
 </defs>
 <g id="figure_1">
  <g id="patch_1">
   <path d="M 0 288 
L 720 288 
L 720 0 
L 0 0 
z
" style="fill: #ffffff"/>
  </g>
  <g id="axes_1">
   <g id="patch_2">
    <path d="M 56.09 246.04 
L 709.2 246.04 
L 709.2 37.8 
L 56.09 37.8 
z
" style="fill: #ffffff"/>
   </g>
   <g id="matplotlib.axis_1">
    <g id="xtick_1">
     <g id="line2d_1">
      <path d="M 85.055792 246.04 
L 85.055792 37.8 
" clip-path="url(#pf95d7822a6)" style="fill: none; stroke: #b0b0b0; stroke-width: 0.8; stroke-linecap: square"/>
     </g>
     <g id="line2d_2">
      <defs>
       <path id="m7209071983" d="M 0 0 
L 0 3.5 
" style="stroke: #000000; stroke-width: 0.8"/>
      </defs>
      <g>
       <use xlink:href="#m7209071983" x="85.055792" y="246.04" style="stroke: #000000; stroke-width: 0.8"/>
      </g>
     </g>
     <g id="text_1">
      <!-- 0 -->
      <g transform="translate(81.874542 260.638438) scale(0.1 -0.1)">
       <defs>
        <path id="DejaVuSans-30" d="M 2034 4250 
Q 1547 4250 1301 3770 
Q 1056 3291 1056 2328 
Q 1056 1369 1301 889 
Q 1547 409 2034 409 
Q 2525 409 2770 889 
Q 3016 1369 3016 2328 
Q 3016 3291 2770 3770 
Q 2525 4250 2034 4250 
z
M 2034 4750 
Q 2819 4750 3233 4129 
Q 3647 3509 3647 2328 
Q 3647 1150 3233 529 
Q 2819 -91 2034 -91 
Q 1250 -91 836 529 
Q 422 1150 422 2328 
Q 422 3509 836 4129 
Q 1250 4750 2034 4750 
z
" transform="scale(0.015625)"/>
       </defs>
       <use xlink:href="#DejaVuSans-30"/>
      </g>
     </g>
    </g>
    <g id="xtick_2">
     <g id="line2d_3">
      <path d="M 229.261063 246.04 
L 229.261063 37.8 
" clip-path="url(#pf95d7822a6)" style="fill: none; stroke: #b0b0b0; stroke-width: 0.8; stroke-linecap: square"/>
     </g>
     <g id="line2d_4">
      <g>
       <use xlink:href="#m7209071983" x="229.261063" y="246.04" style="stroke: #000000; stroke-width: 0.8"/>
      </g>
     </g>
     <g id="text_2">
      <!-- 10000 -->
      <g transform="translate(213.354813 260.638438) scale(0.1 -0.1)">
       <defs>
        <path id="DejaVuSans-31" d="M 794 531 
L 1825 531 
L 1825 4091 
L 703 3866 
L 703 4441 
L 1819 4666 
L 2450 4666 
L 2450 531 
L 3481 531 
L 3481 0 
L 794 0 
L 794 531 
z
" transform="scale(0.015625)"/>
       </defs>
       <use xlink:href="#DejaVuSans-31"/>
       <use xlink:href="#DejaVuSans-30" x="63.623047"/>
       <use xlink:href="#DejaVuSans-30" x="127.246094"/>
       <use xlink:href="#DejaVuSans-30" x="190.869141"/>
       <use xlink:href="#DejaVuSans-30" x="254.492188"/>
      </g>
     </g>
    </g>
    <g id="xtick_3">
     <g id="line2d_5">
      <path d="M 373.466334 246.04 
L 373.466334 37.8 
" clip-path="url(#pf95d7822a6)" style="fill: none; stroke: #b0b0b0; stroke-width: 0.8; stroke-linecap: square"/>
     </g>
     <g id="line2d_6">
      <g>
       <use xlink:href="#m7209071983" x="373.466334" y="246.04" style="stroke: #000000; stroke-width: 0.8"/>
      </g>
     </g>
     <g id="text_3">
      <!-- 20000 -->
      <g transform="translate(357.560084 260.638438) scale(0.1 -0.1)">
       <defs>
        <path id="DejaVuSans-32" d="M 1228 531 
L 3431 531 
L 3431 0 
L 469 0 
L 469 531 
Q 828 903 1448 1529 
Q 2069 2156 2228 2338 
Q 2531 2678 2651 2914 
Q 2772 3150 2772 3378 
Q 2772 3750 2511 3984 
Q 2250 4219 1831 4219 
Q 1534 4219 1204 4116 
Q 875 4013 500 3803 
L 500 4441 
Q 881 4594 1212 4672 
Q 1544 4750 1819 4750 
Q 2544 4750 2975 4387 
Q 3406 4025 3406 3419 
Q 3406 3131 3298 2873 
Q 3191 2616 2906 2266 
Q 2828 2175 2409 1742 
Q 1991 1309 1228 531 
z
" transform="scale(0.015625)"/>
       </defs>
       <use xlink:href="#DejaVuSans-32"/>
       <use xlink:href="#DejaVuSans-30" x="63.623047"/>
       <use xlink:href="#DejaVuSans-30" x="127.246094"/>
       <use xlink:href="#DejaVuSans-30" x="190.869141"/>
       <use xlink:href="#DejaVuSans-30" x="254.492188"/>
      </g>
     </g>
    </g>
    <g id="xtick_4">
     <g id="line2d_7">
      <path d="M 517.671606 246.04 
L 517.671606 37.8 
" clip-path="url(#pf95d7822a6)" style="fill: none; stroke: #b0b0b0; stroke-width: 0.8; stroke-linecap: square"/>
     </g>
     <g id="line2d_8">
      <g>
       <use xlink:href="#m7209071983" x="517.671606" y="246.04" style="stroke: #000000; stroke-width: 0.8"/>
      </g>
     </g>
     <g id="text_4">
      <!-- 30000 -->
      <g transform="translate(501.765356 260.638438) scale(0.1 -0.1)">
       <defs>
        <path id="DejaVuSans-33" d="M 2597 2516 
Q 3050 2419 3304 2112 
Q 3559 1806 3559 1356 
Q 3559 666 3084 287 
Q 2609 -91 1734 -91 
Q 1441 -91 1130 -33 
Q 819 25 488 141 
L 488 750 
Q 750 597 1062 519 
Q 1375 441 1716 441 
Q 2309 441 2620 675 
Q 2931 909 2931 1356 
Q 2931 1769 2642 2001 
Q 2353 2234 1838 2234 
L 1294 2234 
L 1294 2753 
L 1863 2753 
Q 2328 2753 2575 2939 
Q 2822 3125 2822 3475 
Q 2822 3834 2567 4026 
Q 2313 4219 1838 4219 
Q 1578 4219 1281 4162 
Q 984 4106 628 3988 
L 628 4550 
Q 988 4650 1302 4700 
Q 1616 4750 1894 4750 
Q 2613 4750 3031 4423 
Q 3450 4097 3450 3541 
Q 3450 3153 3228 2886 
Q 3006 2619 2597 2516 
z
" transform="scale(0.015625)"/>
       </defs>
       <use xlink:href="#DejaVuSans-33"/>
       <use xlink:href="#DejaVuSans-30" x="63.623047"/>
       <use xlink:href="#DejaVuSans-30" x="127.246094"/>
       <use xlink:href="#DejaVuSans-30" x="190.869141"/>
       <use xlink:href="#DejaVuSans-30" x="254.492188"/>
      </g>
     </g>
    </g>
    <g id="xtick_5">
     <g id="line2d_9">
      <path d="M 661.876877 246.04 
L 661.876877 37.8 
" clip-path="url(#pf95d7822a6)" style="fill: none; stroke: #b0b0b0; stroke-width: 0.8; stroke-linecap: square"/>
     </g>
     <g id="line2d_10">
      <g>
       <use xlink:href="#m7209071983" x="661.876877" y="246.04" style="stroke: #000000; stroke-width: 0.8"/>
      </g>
     </g>
     <g id="text_5">
      <!-- 40000 -->
      <g transform="translate(645.970627 260.638438) scale(0.1 -0.1)">
       <defs>
        <path id="DejaVuSans-34" d="M 2419 4116 
L 825 1625 
L 2419 1625 
L 2419 4116 
z
M 2253 4666 
L 3047 4666 
L 3047 1625 
L 3713 1625 
L 3713 1100 
L 3047 1100 
L 3047 0 
L 2419 0 
L 2419 1100 
L 313 1100 
L 313 1709 
L 2253 4666 
z
" transform="scale(0.015625)"/>
       </defs>
       <use xlink:href="#DejaVuSans-34"/>
       <use xlink:href="#DejaVuSans-30" x="63.623047"/>
       <use xlink:href="#DejaVuSans-30" x="127.246094"/>
       <use xlink:href="#DejaVuSans-30" x="190.869141"/>
       <use xlink:href="#DejaVuSans-30" x="254.492188"/>
      </g>
     </g>
    </g>
    <g id="text_6">
     <!-- Time (s) -->
     <g transform="translate(362.316094 274.316562) scale(0.1 -0.1)">
      <defs>
       <path id="DejaVuSans-54" d="M -19 4666 
L 3928 4666 
L 3928 4134 
L 2272 4134 
L 2272 0 
L 1638 0 
L 1638 4134 
L -19 4134 
L -19 4666 
z
" transform="scale(0.015625)"/>
       <path id="DejaVuSans-69" d="M 603 3500 
L 1178 3500 
L 1178 0 
L 603 0 
L 603 3500 
z
M 603 4863 
L 1178 4863 
L 1178 4134 
L 603 4134 
L 603 4863 
z
" transform="scale(0.015625)"/>
       <path id="DejaVuSans-6d" d="M 3328 2828 
Q 3544 3216 3844 3400 
Q 4144 3584 4550 3584 
Q 5097 3584 5394 3201 
Q 5691 2819 5691 2113 
L 5691 0 
L 5113 0 
L 5113 2094 
Q 5113 2597 4934 2840 
Q 4756 3084 4391 3084 
Q 3944 3084 3684 2787 
Q 3425 2491 3425 1978 
L 3425 0 
L 2847 0 
L 2847 2094 
Q 2847 2600 2669 2842 
Q 2491 3084 2119 3084 
Q 1678 3084 1418 2786 
Q 1159 2488 1159 1978 
L 1159 0 
L 581 0 
L 581 3500 
L 1159 3500 
L 1159 2956 
Q 1356 3278 1631 3431 
Q 1906 3584 2284 3584 
Q 2666 3584 2933 3390 
Q 3200 3197 3328 2828 
z
" transform="scale(0.015625)"/>
       <path id="DejaVuSans-65" d="M 3597 1894 
L 3597 1613 
L 953 1613 
Q 991 1019 1311 708 
Q 1631 397 2203 397 
Q 2534 397 2845 478 
Q 3156 559 3463 722 
L 3463 178 
Q 3153 47 2828 -22 
Q 2503 -91 2169 -91 
Q 1331 -91 842 396 
Q 353 884 353 1716 
Q 353 2575 817 3079 
Q 1281 3584 2069 3584 
Q 2775 3584 3186 3129 
Q 3597 2675 3597 1894 
z
M 3022 2063 
Q 3016 2534 2758 2815 
Q 2500 3097 2075 3097 
Q 1594 3097 1305 2825 
Q 1016 2553 972 2059 
L 3022 2063 
z
" transform="scale(0.015625)"/>
       <path id="DejaVuSans-20" transform="scale(0.015625)"/>
       <path id="DejaVuSans-28" d="M 1984 4856 
Q 1566 4138 1362 3434 
Q 1159 2731 1159 2009 
Q 1159 1288 1364 580 
Q 1569 -128 1984 -844 
L 1484 -844 
Q 1016 -109 783 600 
Q 550 1309 550 2009 
Q 550 2706 781 3412 
Q 1013 4119 1484 4856 
L 1984 4856 
z
" transform="scale(0.015625)"/>
       <path id="DejaVuSans-73" d="M 2834 3397 
L 2834 2853 
Q 2591 2978 2328 3040 
Q 2066 3103 1784 3103 
Q 1356 3103 1142 2972 
Q 928 2841 928 2578 
Q 928 2378 1081 2264 
Q 1234 2150 1697 2047 
L 1894 2003 
Q 2506 1872 2764 1633 
Q 3022 1394 3022 966 
Q 3022 478 2636 193 
Q 2250 -91 1575 -91 
Q 1294 -91 989 -36 
Q 684 19 347 128 
L 347 722 
Q 666 556 975 473 
Q 1284 391 1588 391 
Q 1994 391 2212 530 
Q 2431 669 2431 922 
Q 2431 1156 2273 1281 
Q 2116 1406 1581 1522 
L 1381 1569 
Q 847 1681 609 1914 
Q 372 2147 372 2553 
Q 372 3047 722 3315 
Q 1072 3584 1716 3584 
Q 2034 3584 2315 3537 
Q 2597 3491 2834 3397 
z
" transform="scale(0.015625)"/>
       <path id="DejaVuSans-29" d="M 513 4856 
L 1013 4856 
Q 1481 4119 1714 3412 
Q 1947 2706 1947 2009 
Q 1947 1309 1714 600 
Q 1481 -109 1013 -844 
L 513 -844 
Q 928 -128 1133 580 
Q 1338 1288 1338 2009 
Q 1338 2731 1133 3434 
Q 928 4138 513 4856 
z
" transform="scale(0.015625)"/>
      </defs>
      <use xlink:href="#DejaVuSans-54"/>
      <use xlink:href="#DejaVuSans-69" x="57.958984"/>
      <use xlink:href="#DejaVuSans-6d" x="85.742188"/>
      <use xlink:href="#DejaVuSans-65" x="183.154297"/>
      <use xlink:href="#DejaVuSans-20" x="244.677734"/>
      <use xlink:href="#DejaVuSans-28" x="276.464844"/>
      <use xlink:href="#DejaVuSans-73" x="315.478516"/>
      <use xlink:href="#DejaVuSans-29" x="367.578125"/>
     </g>
    </g>
   </g>
   <g id="matplotlib.axis_2">
    <g id="ytick_1">
     <g id="line2d_11">
      <path d="M 56.09 240.75 
L 709.2 240.75 
" clip-path="url(#pf95d7822a6)" style="fill: none; stroke: #b0b0b0; stroke-width: 0.8; stroke-linecap: square"/>
     </g>
     <g id="line2d_12">
      <defs>
       <path id="m16fce2a30b" d="M 0 0 
L -3.5 0 
" style="stroke: #000000; stroke-width: 0.8"/>
      </defs>
      <g>
       <use xlink:href="#m16fce2a30b" x="56.09" y="240.75" style="stroke: #000000; stroke-width: 0.8"/>
      </g>
     </g>
     <g id="text_7">
      <!-- −0.6 -->
      <g transform="translate(24.807188 244.549219) scale(0.1 -0.1)">
       <defs>
        <path id="DejaVuSans-2212" d="M 678 2272 
L 4684 2272 
L 4684 1741 
L 678 1741 
L 678 2272 
z
" transform="scale(0.015625)"/>
        <path id="DejaVuSans-2e" d="M 684 794 
L 1344 794 
L 1344 0 
L 684 0 
L 684 794 
z
" transform="scale(0.015625)"/>
        <path id="DejaVuSans-36" d="M 2113 2584 
Q 1688 2584 1439 2293 
Q 1191 2003 1191 1497 
Q 1191 994 1439 701 
Q 1688 409 2113 409 
Q 2538 409 2786 701 
Q 3034 994 3034 1497 
Q 3034 2003 2786 2293 
Q 2538 2584 2113 2584 
z
M 3366 4563 
L 3366 3988 
Q 3128 4100 2886 4159 
Q 2644 4219 2406 4219 
Q 1781 4219 1451 3797 
Q 1122 3375 1075 2522 
Q 1259 2794 1537 2939 
Q 1816 3084 2150 3084 
Q 2853 3084 3261 2657 
Q 3669 2231 3669 1497 
Q 3669 778 3244 343 
Q 2819 -91 2113 -91 
Q 1303 -91 875 529 
Q 447 1150 447 2328 
Q 447 3434 972 4092 
Q 1497 4750 2381 4750 
Q 2619 4750 2861 4703 
Q 3103 4656 3366 4563 
z
" transform="scale(0.015625)"/>
       </defs>
       <use xlink:href="#DejaVuSans-2212"/>
       <use xlink:href="#DejaVuSans-30" x="83.789062"/>
       <use xlink:href="#DejaVuSans-2e" x="147.412109"/>
       <use xlink:href="#DejaVuSans-36" x="179.199219"/>
      </g>
     </g>
    </g>
    <g id="ytick_2">
     <g id="line2d_13">
      <path d="M 56.09 214.25 
L 709.2 214.25 
" clip-path="url(#pf95d7822a6)" style="fill: none; stroke: #b0b0b0; stroke-width: 0.8; stroke-linecap: square"/>
     </g>
     <g id="line2d_14">
      <g>
       <use xlink:href="#m16fce2a30b" x="56.09" y="214.25" style="stroke: #000000; stroke-width: 0.8"/>
      </g>
     </g>
     <g id="text_8">
      <!-- −0.4 -->
      <g transform="translate(24.807188 218.049219) scale(0.1 -0.1)">
       <use xlink:href="#DejaVuSans-2212"/>
       <use xlink:href="#DejaVuSans-30" x="83.789062"/>
       <use xlink:href="#DejaVuSans-2e" x="147.412109"/>
       <use xlink:href="#DejaVuSans-34" x="179.199219"/>
      </g>
     </g>
    </g>
    <g id="ytick_3">
     <g id="line2d_15">
      <path d="M 56.09 187.5 
L 709.2 187.5 
" clip-path="url(#pf95d7822a6)" style="fill: none; stroke: #b0b0b0; stroke-width: 0.8; stroke-linecap: square"/>
     </g>
     <g id="line2d_16">
      <g>
       <use xlink:href="#m16fce2a30b" x="56.09" y="187.5" style="stroke: #000000; stroke-width: 0.8"/>
      </g>
     </g>
     <g id="text_9">
      <!-- −0.2 -->
      <g transform="translate(24.807188 191.299219) scale(0.1 -0.1)">
       <use xlink:href="#DejaVuSans-2212"/>
       <use xlink:href="#DejaVuSans-30" x="83.789062"/>
       <use xlink:href="#DejaVuSans-2e" x="147.412109"/>
       <use xlink:href="#DejaVuSans-32" x="179.199219"/>
      </g>
     </g>
    </g>
    <g id="ytick_4">
     <g id="line2d_17">
      <path d="M 56.09 161 
L 709.2 161 
" clip-path="url(#pf95d7822a6)" style="fill: none; stroke: #b0b0b0; stroke-width: 0.8; stroke-linecap: square"/>
     </g>
     <g id="line2d_18">
      <g>
       <use xlink:href="#m16fce2a30b" x="56.09" y="161" style="stroke: #000000; stroke-width: 0.8"/>
      </g>
     </g>
     <g id="text_10">
      <!-- 0.0 -->
      <g transform="translate(33.186875 164.799219) scale(0.1 -0.1)">
       <use xlink:href="#DejaVuSans-30"/>
       <use xlink:href="#DejaVuSans-2e" x="63.623047"/>
       <use xlink:href="#DejaVuSans-30" x="95.410156"/>
      </g>
     </g>
    </g>
    <g id="ytick_5">
     <g id="line2d_19">
      <path d="M 56.09 134.25 
L 709.2 134.25 
" clip-path="url(#pf95d7822a6)" style="fill: none; stroke: #b0b0b0; stroke-width: 0.8; stroke-linecap: square"/>
     </g>
     <g id="line2d_20">
      <g>
       <use xlink:href="#m16fce2a30b" x="56.09" y="134.25" style="stroke: #000000; stroke-width: 0.8"/>
      </g>
     </g>
     <g id="text_11">
      <!-- 0.2 -->
      <g transform="translate(33.186875 138.049219) scale(0.1 -0.1)">
       <use xlink:href="#DejaVuSans-30"/>
       <use xlink:href="#DejaVuSans-2e" x="63.623047"/>
       <use xlink:href="#DejaVuSans-32" x="95.410156"/>
      </g>
     </g>
    </g>
    <g id="ytick_6">
     <g id="line2d_21">
      <path d="M 56.09 107.75 
L 709.2 107.75 
" clip-path="url(#pf95d7822a6)" style="fill: none; stroke: #b0b0b0; stroke-width: 0.8; stroke-linecap: square"/>
     </g>
     <g id="line2d_22">
      <g>
       <use xlink:href="#m16fce2a30b" x="56.09" y="107.75" style="stroke: #000000; stroke-width: 0.8"/>
      </g>
     </g>
     <g id="text_12">
      <!-- 0.4 -->
      <g transform="translate(33.186875 111.549219) scale(0.1 -0.1)">
       <use xlink:href="#DejaVuSans-30"/>
       <use xlink:href="#DejaVuSans-2e" x="63.623047"/>
       <use xlink:href="#DejaVuSans-34" x="95.410156"/>
      </g>
     </g>
    </g>
    <g id="ytick_7">
     <g id="line2d_23">
      <path d="M 56.09 81 
L 709.2 81 
" clip-path="url(#pf95d7822a6)" style="fill: none; stroke: #b0b0b0; stroke-width: 0.8; stroke-linecap: square"/>
     </g>
     <g id="line2d_24">
      <g>
       <use xlink:href="#m16fce2a30b" x="56.09" y="81" style="stroke: #000000; stroke-width: 0.8"/>
      </g>
     </g>
     <g id="text_13">
      <!-- 0.6 -->
      <g transform="translate(33.186875 84.799219) scale(0.1 -0.1)">
       <use xlink:href="#DejaVuSans-30"/>
       <use xlink:href="#DejaVuSans-2e" x="63.623047"/>
       <use xlink:href="#DejaVuSans-36" x="95.410156"/>
      </g>
     </g>
    </g>
    <g id="ytick_8">
     <g id="line2d_25">
      <path d="M 56.09 54.5 
L 709.2 54.5 
" clip-path="url(#pf95d7822a6)" style="fill: none; stroke: #b0b0b0; stroke-width: 0.8; stroke-linecap: square"/>
     </g>
     <g id="line2d_26">
      <g>
       <use xlink:href="#m16fce2a30b" x="56.09" y="54.5" style="stroke: #000000; stroke-width: 0.8"/>
      </g>
     </g>
     <g id="text_14">
      <!-- 0.8 -->
      <g transform="translate(33.186875 58.299219) scale(0.1 -0.1)">
       <defs>
        <path id="DejaVuSans-38" d="M 2034 2216 
Q 1584 2216 1326 1975 
Q 1069 1734 1069 1313 
Q 1069 891 1326 650 
Q 1584 409 2034 409 
Q 2484 409 2743 651 
Q 3003 894 3003 1313 
Q 3003 1734 2745 1975 
Q 2488 2216 2034 2216 
z
M 1403 2484 
Q 997 2584 770 2862 
Q 544 3141 544 3541 
Q 544 4100 942 4425 
Q 1341 4750 2034 4750 
Q 2731 4750 3128 4425 
Q 3525 4100 3525 3541 
Q 3525 3141 3298 2862 
Q 3072 2584 2669 2484 
Q 3125 2378 3379 2068 
Q 3634 1759 3634 1313 
Q 3634 634 3220 271 
Q 2806 -91 2034 -91 
Q 1263 -91 848 271 
Q 434 634 434 1313 
Q 434 1759 690 2068 
Q 947 2378 1403 2484 
z
M 1172 3481 
Q 1172 3119 1398 2916 
Q 1625 2713 2034 2713 
Q 2441 2713 2670 2916 
Q 2900 3119 2900 3481 
Q 2900 3844 2670 4047 
Q 2441 4250 2034 4250 
Q 1625 4250 1398 4047 
Q 1172 3844 1172 3481 
z
" transform="scale(0.015625)"/>
       </defs>
       <use xlink:href="#DejaVuSans-30"/>
       <use xlink:href="#DejaVuSans-2e" x="63.623047"/>
       <use xlink:href="#DejaVuSans-38" x="95.410156"/>
      </g>
     </g>
    </g>
    <g id="text_15">
     <!-- Delta Value -->
     <g transform="translate(18.7275 170.580156) rotate(-90) scale(0.1 -0.1)">
      <defs>
       <path id="DejaVuSans-44" d="M 1259 4147 
L 1259 519 
L 2022 519 
Q 2988 519 3436 956 
Q 3884 1394 3884 2338 
Q 3884 3275 3436 3711 
Q 2988 4147 2022 4147 
L 1259 4147 
z
M 628 4666 
L 1925 4666 
Q 3281 4666 3915 4102 
Q 4550 3538 4550 2338 
Q 4550 1131 3912 565 
Q 3275 0 1925 0 
L 628 0 
L 628 4666 
z
" transform="scale(0.015625)"/>
       <path id="DejaVuSans-6c" d="M 603 4863 
L 1178 4863 
L 1178 0 
L 603 0 
L 603 4863 
z
" transform="scale(0.015625)"/>
       <path id="DejaVuSans-74" d="M 1172 4494 
L 1172 3500 
L 2356 3500 
L 2356 3053 
L 1172 3053 
L 1172 1153 
Q 1172 725 1289 603 
Q 1406 481 1766 481 
L 2356 481 
L 2356 0 
L 1766 0 
Q 1100 0 847 248 
Q 594 497 594 1153 
L 594 3053 
L 172 3053 
L 172 3500 
L 594 3500 
L 594 4494 
L 1172 4494 
z
" transform="scale(0.015625)"/>
       <path id="DejaVuSans-61" d="M 2194 1759 
Q 1497 1759 1228 1600 
Q 959 1441 959 1056 
Q 959 750 1161 570 
Q 1363 391 1709 391 
Q 2188 391 2477 730 
Q 2766 1069 2766 1631 
L 2766 1759 
L 2194 1759 
z
M 3341 1997 
L 3341 0 
L 2766 0 
L 2766 531 
Q 2569 213 2275 61 
Q 1981 -91 1556 -91 
Q 1019 -91 701 211 
Q 384 513 384 1019 
Q 384 1609 779 1909 
Q 1175 2209 1959 2209 
L 2766 2209 
L 2766 2266 
Q 2766 2663 2505 2880 
Q 2244 3097 1772 3097 
Q 1472 3097 1187 3025 
Q 903 2953 641 2809 
L 641 3341 
Q 956 3463 1253 3523 
Q 1550 3584 1831 3584 
Q 2591 3584 2966 3190 
Q 3341 2797 3341 1997 
z
" transform="scale(0.015625)"/>
       <path id="DejaVuSans-56" d="M 1831 0 
L 50 4666 
L 709 4666 
L 2188 738 
L 3669 4666 
L 4325 4666 
L 2547 0 
L 1831 0 
z
" transform="scale(0.015625)"/>
       <path id="DejaVuSans-75" d="M 544 1381 
L 544 3500 
L 1119 3500 
L 1119 1403 
Q 1119 906 1312 657 
Q 1506 409 1894 409 
Q 2359 409 2629 706 
Q 2900 1003 2900 1516 
L 2900 3500 
L 3475 3500 
L 3475 0 
L 2900 0 
L 2900 538 
Q 2691 219 2414 64 
Q 2138 -91 1772 -91 
Q 1169 -91 856 284 
Q 544 659 544 1381 
z
M 1991 3584 
L 1991 3584 
z
" transform="scale(0.015625)"/>
      </defs>
      <use xlink:href="#DejaVuSans-44"/>
      <use xlink:href="#DejaVuSans-65" x="77.001953"/>
      <use xlink:href="#DejaVuSans-6c" x="138.525391"/>
      <use xlink:href="#DejaVuSans-74" x="166.308594"/>
      <use xlink:href="#DejaVuSans-61" x="205.517578"/>
      <use xlink:href="#DejaVuSans-20" x="266.796875"/>
      <use xlink:href="#DejaVuSans-56" x="298.583984"/>
      <use xlink:href="#DejaVuSans-61" x="359.242188"/>
      <use xlink:href="#DejaVuSans-6c" x="420.521484"/>
      <use xlink:href="#DejaVuSans-75" x="448.304688"/>
      <use xlink:href="#DejaVuSans-65" x="511.683594"/>
     </g>
    </g>
    <g id="text_16">
     <!-- 1e−14+1e−1 -->
     <g transform="translate(56.09 34.8) scale(0.1 -0.1)">
      <defs>
       <path id="DejaVuSans-2b" d="M 2944 4013 
L 2944 2272 
L 4684 2272 
L 4684 1741 
L 2944 1741 
L 2944 0 
L 2419 0 
L 2419 1741 
L 678 1741 
L 678 2272 
L 2419 2272 
L 2419 4013 
L 2944 4013 
z
" transform="scale(0.015625)"/>
      </defs>
      <use xlink:href="#DejaVuSans-31"/>
      <use xlink:href="#DejaVuSans-65" x="63.623047"/>
      <use xlink:href="#DejaVuSans-2212" x="125.146484"/>
      <use xlink:href="#DejaVuSans-31" x="208.935547"/>
      <use xlink:href="#DejaVuSans-34" x="272.558594"/>
      <use xlink:href="#DejaVuSans-2b" x="336.181641"/>
      <use xlink:href="#DejaVuSans-31" x="419.970703"/>
      <use xlink:href="#DejaVuSans-65" x="483.59375"/>
      <use xlink:href="#DejaVuSans-2212" x="545.117188"/>
      <use xlink:href="#DejaVuSans-31" x="628.90625"/>
     </g>
    </g>
   </g>
   <g id="line2d_27">
    <path d="M 85.776818 161 
L 86.440162 161.25 
L 86.973722 160.5 
L 87.853374 161.25 
L 89.079119 161.25 
L 90.232761 159.75 
L 90.766321 161.25 
L 91.458506 161.25 
L 91.992065 159.75 
L 92.871718 162.75 
L 93.362015 159.75 
L 94.097462 162.75 
L 94.760807 159.75 
L 98.019846 159.75 
L 98.712031 162.75 
L 99.187908 159.75 
L 99.707047 162.75 
L 100.399233 159.75 
L 101.610557 159.75 
L 102.086434 165.75 
L 102.605573 159.75 
L 104.537924 159.75 
L 105.013801 165.75 
L 105.53294 159.75 
L 107.43645 159.75 
L 107.912327 165.75 
L 108.431466 159.75 
L 110.334976 159.75 
L 110.810853 165.75 
L 111.358833 159.75 
L 112.051019 159.75 
L 112.570158 165.75 
L 113.262343 154 
L 113.73822 165.75 
L 114.257359 154 
L 114.949545 165.75 
L 115.468684 165.75 
L 116.160869 154 
L 116.636746 165.75 
L 117.155885 154 
L 117.848071 165.75 
L 118.396051 165.75 
L 119.088236 154 
L 119.564113 165.75 
L 120.083252 154 
L 120.775438 165.75 
L 121.294577 165.75 
L 121.986762 154 
L 122.462639 165.75 
L 122.981778 154 
L 123.673963 165.75 
L 124.193102 165.75 
L 124.885288 154 
L 125.361165 165.75 
L 125.909145 154 
L 126.60133 165.75 
L 127.120469 165.75 
L 127.812655 154 
L 128.288532 165.75 
L 128.807671 154 
L 129.499856 165.75 
L 130.018995 165.75 
L 130.711181 154 
L 131.187058 165.75 
L 131.706197 154 
L 132.398382 165.75 
L 132.946362 165.75 
L 133.638548 154 
L 134.114425 165.75 
L 134.633564 154 
L 135.325749 165.75 
L 136.537074 165.75 
L 137.012951 142 
L 137.53209 165.75 
L 139.4356 165.75 
L 139.911477 142 
L 140.459457 165.75 
L 142.362967 165.75 
L 142.838844 142 
L 143.357983 165.75 
L 145.261493 165.75 
L 145.73737 142 
L 146.256509 165.75 
L 148.18886 165.75 
L 148.664737 142 
L 149.183876 165.75 
L 151.087386 165.75 
L 151.563263 142 
L 152.082402 165.75 
L 153.985912 165.75 
L 154.461789 142 
L 155.009769 165.75 
L 156.913279 165.75 
L 157.389156 142 
L 157.908295 165.75 
L 159.811804 165.75 
L 160.287682 142 
L 160.806821 165.75 
L 162.739171 165.75 
L 163.215049 142 
L 163.734188 165.75 
L 165.637697 165.75 
L 166.113575 142 
L 166.632714 165.75 
L 168.536223 165.75 
L 169.012101 142 
L 169.560081 165.75 
L 171.46359 165.75 
L 171.939468 142 
L 172.458607 165.75 
L 174.362116 165.75 
L 174.837994 142 
L 175.357133 165.75 
L 177.289483 165.75 
L 177.765361 142 
L 178.2845 165.75 
L 180.188009 165.75 
L 180.663887 142 
L 181.183026 165.75 
L 181.875211 165.75 
L 182.39435 142 
L 183.086535 189.5 
L 183.562413 142 
L 184.110393 189.5 
L 184.802578 142 
L 185.321717 142 
L 186.013902 189.5 
L 186.48978 142 
L 187.008919 189.5 
L 187.701104 142 
L 188.220243 142 
L 188.912428 189.5 
L 189.388306 142 
L 189.907445 189.5 
L 190.59963 142 
L 191.14761 142 
L 191.839795 189.5 
L 192.315673 142 
L 192.834812 189.5 
L 193.526997 142 
L 194.046136 142 
L 194.738321 189.5 
L 195.214199 142 
L 195.733338 189.5 
L 196.425523 142 
L 196.944662 142 
L 197.636847 189.5 
L 198.112725 142 
L 198.660705 189.5 
L 199.35289 142 
L 199.872029 142 
L 200.564214 189.5 
L 201.040092 142 
L 201.559231 189.5 
L 202.251416 142 
L 202.770555 142 
L 203.46274 189.5 
L 203.938618 142 
L 204.457756 189.5 
L 205.149942 142 
L 205.697922 142 
L 206.390107 189.5 
L 206.865985 142 
L 207.385123 189.5 
L 208.077309 142 
L 208.596448 142 
L 209.288633 189.5 
L 209.76451 142 
L 210.283649 189.5 
L 210.975835 142 
L 211.494974 142 
L 212.187159 189.5 
L 212.663036 142 
L 213.211016 189.5 
L 213.903202 142 
L 214.422341 142 
L 215.114526 189.5 
L 215.590403 142 
L 216.109542 189.5 
L 216.801728 142 
L 217.320867 142 
L 218.013052 189.5 
L 218.488929 142 
L 219.008068 189.5 
L 219.700254 142 
L 220.248234 142 
L 220.940419 189.5 
L 221.416296 142 
L 221.935435 189.5 
L 222.627621 142 
L 223.14676 142 
L 223.838945 189.5 
L 224.314822 142 
L 224.833961 189.5 
L 225.526147 142 
L 226.045286 142 
L 226.737471 189.5 
L 227.213348 142 
L 227.761328 189.5 
L 228.453514 142 
L 228.972653 142 
L 229.664838 189.5 
L 230.140715 142 
L 230.659854 189.5 
L 231.35204 142 
L 231.871179 142 
L 232.563364 189.5 
L 233.039241 142 
L 233.55838 189.5 
L 234.250566 142 
L 234.798546 142 
L 235.490731 189.5 
L 235.966608 142 
L 236.485747 189.5 
L 237.177933 142 
L 237.697072 142 
L 238.389257 189.5 
L 238.865134 142 
L 239.384273 189.5 
L 240.076459 142 
L 240.595597 142 
L 241.287783 189.5 
L 241.76366 142 
L 242.31164 189.5 
L 243.003826 142 
L 243.522964 142 
L 244.21515 189.5 
L 244.691027 142 
L 245.210166 189.5 
L 245.902351 142 
L 246.42149 142 
L 247.113676 189.5 
L 247.589553 142 
L 248.108692 189.5 
L 248.800877 142 
L 249.348857 142 
L 250.041043 189.5 
L 250.51692 142 
L 251.036059 189.5 
L 251.728244 142 
L 252.247383 142 
L 252.939569 189.5 
L 253.415446 142 
L 253.934585 189.5 
L 254.62677 142 
L 255.145909 142 
L 255.838095 189.5 
L 256.285131 142 
L 256.80427 189.5 
L 257.467614 142 
L 258.015594 142 
L 258.895246 189.5 
L 259.385544 142 
L 260.09215 189.5 
L 260.755494 142 
L 261.289054 142 
L 262.168706 189.5 
L 262.659004 142 
L 263.855908 189.5 
L 264.548093 142 
L 265.110494 142 
L 265.84594 189.5 
L 266.509285 142 
L 266.999583 189.5 
L 270.402827 142 
L 270.921966 142 
L 271.614151 189.5 
L 272.090029 142 
L 272.609168 189.5 
L 273.301353 142 
L 273.820492 142 
L 274.512677 189.5 
L 274.988555 142 
L 275.536535 189.5 
L 276.22872 142 
L 276.747859 142 
L 277.440044 189.5 
L 277.915922 142 
L 278.435061 189.5 
L 279.127246 142 
L 280.33857 142 
L 280.814448 236.75 
L 281.333587 142 
L 283.265937 142 
L 283.741815 236.75 
L 284.260954 142 
L 286.164463 142 
L 286.640341 236.75 
L 287.15948 142 
L 289.062989 142 
L 289.538867 236.75 
L 290.086847 142 
L 291.990356 142 
L 292.466234 236.75 
L 292.985373 142 
L 294.888882 142 
L 295.36476 236.75 
L 295.883899 142 
L 297.816249 142 
L 298.292127 236.75 
L 298.811266 142 
L 300.714775 142 
L 301.190652 236.75 
L 301.709791 142 
L 303.613301 142 
L 304.089178 236.75 
L 304.637158 142 
L 306.540668 142 
L 307.016545 236.75 
L 307.535684 142 
L 309.439194 142 
L 309.915071 236.75 
L 310.43421 142 
L 312.366561 142 
L 312.842438 236.75 
L 313.361577 142 
L 315.265087 142 
L 315.740964 236.75 
L 316.260103 142 
L 318.163613 142 
L 318.63949 236.75 
L 319.18747 142 
L 321.09098 142 
L 321.566857 236.75 
L 322.085996 142 
L 323.989506 142 
L 324.465383 236.75 
L 324.984522 142 
L 326.916873 142 
L 327.39275 236.75 
L 327.911889 142 
L 329.815399 142 
L 330.291276 236.75 
L 330.810415 142 
L 332.713925 142 
L 333.189802 236.75 
L 333.737782 142 
L 335.641292 142 
L 336.117169 236.75 
L 336.636308 142 
L 338.539818 142 
L 339.015695 236.75 
L 339.534834 142 
L 341.467185 142 
L 341.943062 236.75 
L 342.462201 142 
L 344.365711 142 
L 344.841588 236.75 
L 345.360727 142 
L 347.264237 142 
L 347.740114 236.75 
L 348.288094 142 
L 350.191604 142 
L 350.667481 236.75 
L 351.18662 142 
L 353.09013 142 
L 353.566007 236.75 
L 354.085146 142 
L 356.017497 142 
L 356.493374 236.75 
L 357.012513 142 
L 358.916023 142 
L 359.3919 236.75 
L 359.911039 142 
L 361.84339 142 
L 362.319267 236.75 
L 362.867247 142 
L 364.770757 142 
L 365.246634 236.75 
L 365.765773 142 
L 367.698124 142 
L 368.174001 236.75 
L 368.69314 142 
L 370.625491 142 
L 371.101368 236.75 
L 371.620507 142 
L 373.524017 142 
L 373.999894 236.75 
L 374.519033 142 
L 376.451384 142 
L 376.927261 236.75 
L 377.475241 142 
L 379.378751 142 
L 379.854628 236.75 
L 380.373767 142 
L 382.306118 142 
L 382.781995 236.75 
L 383.301134 142 
L 385.233485 142 
L 385.709362 236.75 
L 386.228501 142 
L 388.132011 142 
L 388.607888 236.75 
L 389.127027 142 
L 391.059378 142 
L 391.535255 236.75 
L 392.083235 142 
L 393.986745 142 
L 394.462622 236.75 
L 394.981761 142 
L 396.914112 142 
L 397.389989 236.75 
L 397.909128 142 
L 399.841479 142 
L 400.317356 236.75 
L 400.836495 142 
L 402.740005 142 
L 403.215882 236.75 
L 403.735021 142 
L 405.667372 142 
L 406.143249 236.75 
L 406.691229 142 
L 408.594739 142 
L 409.070616 236.75 
L 409.589755 142 
L 411.522106 142 
L 411.997983 236.75 
L 412.517122 142 
L 414.449473 142 
L 414.92535 236.75 
L 415.444489 142 
L 417.347999 142 
L 417.823876 236.75 
L 418.343015 142 
L 420.275366 142 
L 420.751243 236.75 
L 421.299223 142 
L 423.202733 142 
L 423.67861 236.75 
L 424.197749 142 
L 426.1301 142 
L 426.605977 236.75 
L 427.125116 142 
L 429.057467 142 
L 429.533344 236.75 
L 430.052483 142 
L 431.955993 142 
L 432.43187 236.75 
L 432.951009 142 
L 434.88336 142 
L 435.359237 236.75 
L 435.907217 142 
L 437.810727 142 
L 438.286604 236.75 
L 438.805743 142 
L 440.738094 142 
L 441.213971 236.75 
L 441.73311 142 
L 443.665461 142 
L 444.141338 236.75 
L 444.660477 142 
L 446.563987 142 
L 447.039864 236.75 
L 447.559003 142 
L 449.491354 142 
L 449.967231 236.75 
L 450.515211 142 
L 452.418721 142 
L 452.894598 236.75 
L 453.413737 142 
L 455.346088 142 
L 455.821965 236.75 
L 456.341104 142 
L 458.273455 142 
L 458.749332 236.75 
L 459.268471 142 
L 461.171981 142 
L 461.647858 236.75 
L 462.166997 142 
L 464.099348 142 
L 464.575225 236.75 
L 465.123205 142 
L 465.81539 142 
L 466.334529 236.75 
L 467.026715 47.5 
L 467.502592 236.75 
L 468.021731 47.5 
L 468.713916 236.75 
L 469.233055 236.75 
L 469.954082 47.5 
L 470.429959 236.75 
L 470.949098 47.5 
L 471.641283 236.75 
L 472.189263 236.75 
L 472.881449 47.5 
L 473.357326 236.75 
L 473.876465 47.5 
L 474.56865 236.75 
L 475.087789 236.75 
L 475.779974 47.5 
L 476.255852 236.75 
L 476.774991 47.5 
L 477.467176 236.75 
L 477.986315 236.75 
L 478.6785 47.5 
L 479.154378 236.75 
L 479.702358 47.5 
L 480.394543 236.75 
L 480.913682 236.75 
L 481.605867 47.5 
L 482.081745 236.75 
L 482.600884 47.5 
L 483.293069 236.75 
L 483.812208 236.75 
L 484.504393 47.5 
L 484.980271 236.75 
L 485.49941 47.5 
L 486.191595 236.75 
L 486.739575 236.75 
L 487.43176 47.5 
L 487.907638 236.75 
L 488.426777 47.5 
L 489.118962 236.75 
L 489.638101 236.75 
L 490.330286 47.5 
L 490.806164 236.75 
L 491.325303 47.5 
L 492.017488 236.75 
L 492.536627 236.75 
L 493.228812 47.5 
L 493.70469 236.75 
L 494.25267 47.5 
L 494.944855 236.75 
L 495.463994 236.75 
L 496.156179 47.5 
L 496.632057 236.75 
L 497.151196 47.5 
L 497.843381 236.75 
L 498.36252 236.75 
L 499.054705 47.5 
L 499.530583 236.75 
L 500.049722 47.5 
L 500.741907 236.75 
L 501.289887 236.75 
L 501.982072 47.5 
L 502.45795 236.75 
L 502.977089 47.5 
L 503.669274 236.75 
L 504.188413 236.75 
L 504.880598 47.5 
L 505.356476 236.75 
L 505.875615 47.5 
L 506.5678 236.75 
L 507.086939 236.75 
L 507.779124 47.5 
L 508.255002 236.75 
L 508.802982 47.5 
L 509.495167 236.75 
L 510.014306 236.75 
L 510.706491 47.5 
L 511.182369 236.75 
L 511.701508 47.5 
L 512.393693 236.75 
L 512.912832 236.75 
L 513.605017 47.5 
L 514.080895 236.75 
L 514.600034 47.5 
L 515.292219 236.75 
L 515.840199 236.75 
L 516.532384 47.5 
L 517.008262 236.75 
L 517.527401 47.5 
L 518.219586 236.75 
L 518.738725 236.75 
L 519.43091 47.5 
L 519.906788 236.75 
L 520.425926 47.5 
L 521.118112 236.75 
L 521.637251 236.75 
L 522.329436 47.5 
L 522.805313 236.75 
L 523.353293 47.5 
L 524.045479 236.75 
L 524.564618 236.75 
L 525.256803 47.5 
L 525.73268 236.75 
L 526.251819 47.5 
L 526.944005 236.75 
L 527.463144 236.75 
L 528.155329 47.5 
L 528.631206 236.75 
L 529.150345 47.5 
L 529.842531 236.75 
L 530.390511 236.75 
L 531.082696 47.5 
L 531.558573 236.75 
L 532.077712 47.5 
L 532.769898 236.75 
L 533.289037 236.75 
L 533.981222 47.5 
L 534.457099 236.75 
L 534.976238 47.5 
L 535.668424 236.75 
L 536.187563 236.75 
L 536.879748 47.5 
L 537.355625 236.75 
L 537.903605 47.5 
L 538.595791 236.75 
L 539.11493 236.75 
L 539.807115 47.5 
L 540.282992 236.75 
L 540.802131 47.5 
L 541.494317 236.75 
L 542.013456 236.75 
L 542.705641 47.5 
L 543.181518 236.75 
L 543.700657 47.5 
L 544.392843 236.75 
L 544.940823 236.75 
L 545.633008 47.5 
L 546.108885 236.75 
L 546.628024 47.5 
L 547.32021 236.75 
L 547.839349 236.75 
L 548.531534 47.5 
L 549.007411 236.75 
L 549.52655 47.5 
L 550.218736 236.75 
L 550.737875 236.75 
L 551.43006 47.5 
L 551.905937 236.75 
L 552.453917 47.5 
L 553.146103 236.75 
L 553.665242 236.75 
L 554.357427 47.5 
L 554.833304 236.75 
L 555.352443 47.5 
L 556.044629 236.75 
L 556.563767 236.75 
L 557.255953 47.5 
L 557.73183 236.75 
L 558.250969 47.5 
L 558.943154 236.75 
L 559.491134 236.75 
L 560.18332 47.5 
L 560.659197 236.75 
L 561.178336 47.5 
L 561.870521 236.75 
L 562.38966 236.75 
L 563.081846 47.5 
L 563.557723 236.75 
L 564.076862 47.5 
L 564.769047 236.75 
L 565.288186 236.75 
L 565.980372 47.5 
L 566.456249 236.75 
L 567.004229 47.5 
L 567.696414 236.75 
L 568.215553 236.75 
L 568.907739 47.5 
L 569.383616 236.75 
L 569.902755 47.5 
L 570.59494 236.75 
L 571.114079 236.75 
L 571.806265 47.5 
L 572.282142 236.75 
L 572.801281 47.5 
L 573.493466 236.75 
L 574.041446 236.75 
L 574.733632 47.5 
L 575.209509 236.75 
L 575.728648 47.5 
L 576.420833 236.75 
L 576.939972 236.75 
L 577.632158 47.5 
L 578.108035 236.75 
L 578.627174 47.5 
L 579.319359 236.75 
L 579.838498 236.75 
L 580.530684 47.5 
L 581.006561 236.75 
L 581.554541 47.5 
L 582.246726 236.75 
L 582.765865 236.75 
L 583.458051 47.5 
L 583.933928 236.75 
L 584.453067 47.5 
L 585.145252 236.75 
L 585.664391 236.75 
L 586.356577 47.5 
L 586.832454 236.75 
L 587.351593 47.5 
L 588.043778 236.75 
L 588.591758 236.75 
L 589.283944 47.5 
L 589.759821 236.75 
L 590.27896 47.5 
L 590.971145 236.75 
L 591.490284 236.75 
L 592.18247 47.5 
L 592.658347 236.75 
L 593.177486 47.5 
L 593.869671 236.75 
L 594.38881 236.75 
L 595.080995 47.5 
L 595.556873 236.75 
L 596.104853 47.5 
L 596.797038 236.75 
L 597.316177 236.75 
L 598.008362 47.5 
L 598.48424 236.75 
L 599.003379 47.5 
L 599.695564 236.75 
L 600.214703 236.75 
L 600.906888 47.5 
L 601.382766 236.75 
L 601.901905 47.5 
L 602.59409 236.75 
L 603.14207 236.75 
L 603.834255 47.5 
L 604.310133 236.75 
L 604.829272 47.5 
L 605.521457 236.75 
L 606.040596 236.75 
L 606.732781 47.5 
L 607.208659 236.75 
L 607.727798 47.5 
L 608.419983 236.75 
L 608.939122 236.75 
L 609.631307 47.5 
L 610.107185 236.75 
L 610.626324 47.5 
L 611.289668 236.75 
L 611.837648 236.75 
L 612.7173 47.5 
L 613.164336 236.75 
L 613.697896 47.5 
L 614.577548 236.75 
L 615.139949 236.75 
L 616.509899 47.5 
L 616.985776 236.75 
L 617.519336 47.5 
L 618.225942 236.75 
L 618.961388 236.75 
L 619.624733 47.5 
L 620.115031 236.75 
L 620.821636 47.5 
L 624.253722 236.75 
L 624.772861 236.75 
L 625.465046 47.5 
L 625.940924 236.75 
L 626.460062 47.5 
L 627.152248 236.75 
L 627.671387 236.75 
L 628.363572 47.5 
L 628.839449 236.75 
L 629.38743 47.5 
L 630.079615 236.75 
L 630.598754 236.75 
L 631.290939 47.5 
L 631.766816 236.75 
L 632.285955 47.5 
L 632.978141 236.75 
L 633.49728 236.75 
L 634.189465 47.5 
L 634.665342 236.75 
L 635.184481 47.5 
L 635.876667 236.75 
L 636.424647 236.75 
L 637.116832 47.5 
L 637.592709 236.75 
L 638.111848 47.5 
L 638.804034 236.75 
L 639.323173 236.75 
L 640.015358 47.5 
L 640.491235 236.75 
L 641.010374 47.5 
L 641.70256 236.75 
L 642.221699 236.75 
L 642.913884 47.5 
L 643.389761 236.75 
L 643.937741 47.5 
L 644.629927 236.75 
L 645.149066 236.75 
L 645.841251 47.5 
L 646.317128 236.75 
L 646.836267 47.5 
L 647.528453 236.75 
L 648.047592 236.75 
L 648.739777 47.5 
L 649.215654 236.75 
L 649.734793 47.5 
L 650.426979 236.75 
L 650.974959 236.75 
L 651.667144 47.5 
L 652.143021 236.75 
L 652.66216 47.5 
L 653.354346 236.75 
L 653.873485 236.75 
L 654.56567 47.5 
L 655.041547 236.75 
L 655.560686 47.5 
L 656.252872 236.75 
L 656.772011 236.75 
L 657.464196 47.5 
L 657.940073 236.75 
L 658.488053 47.5 
L 659.180239 236.75 
L 659.699378 236.75 
L 660.391563 47.5 
L 660.86744 236.75 
L 661.386579 47.5 
L 662.078765 236.75 
L 662.597903 236.75 
L 663.290089 47.5 
L 663.765966 236.75 
L 664.285105 47.5 
L 664.97729 236.75 
L 665.52527 236.75 
L 666.217456 47.5 
L 666.693333 236.75 
L 667.212472 47.5 
L 667.904657 236.75 
L 668.423796 236.75 
L 669.115982 47.5 
L 669.591859 236.75 
L 670.110998 47.5 
L 670.803183 236.75 
L 671.322322 236.75 
L 672.014508 47.5 
L 672.490385 236.75 
L 673.038365 47.5 
L 673.73055 236.75 
L 674.249689 236.75 
L 674.941875 47.5 
L 675.417752 236.75 
L 675.936891 47.5 
L 676.629076 236.75 
L 677.148215 236.75 
L 677.840401 47.5 
L 678.316278 236.75 
L 678.835417 47.5 
L 679.513182 236.75 
L 679.513182 236.75 
" clip-path="url(#pf95d7822a6)" style="fill: none; stroke: #1f77b4; stroke-width: 1.5; stroke-linecap: square"/>
   </g>
   <g id="patch_3">
    <path d="M 56.09 246.25 
L 56.09 38 
" style="fill: none; stroke: #000000; stroke-width: 0.8; stroke-linejoin: miter; stroke-linecap: square"/>
   </g>
   <g id="patch_4">
    <path d="M 709.2 246.25 
L 709.2 38 
" style="fill: none; stroke: #000000; stroke-width: 0.8; stroke-linejoin: miter; stroke-linecap: square"/>
   </g>
   <g id="patch_5">
    <path d="M 56.09 246.04 
L 709.2 246.04 
" style="fill: none; stroke: #000000; stroke-width: 0.8; stroke-linejoin: miter; stroke-linecap: square"/>
   </g>
   <g id="patch_6">
    <path d="M 56.09 37.8 
L 709.2 37.8 
" style="fill: none; stroke: #000000; stroke-width: 0.8; stroke-linejoin: miter; stroke-linecap: square"/>
   </g>
   <g id="text_17">
    <!-- incomingDataRate:vector (HandoverShowcase.ap2.wlan[0].mac.dcf.channelAccess.pendingQueue) -->
    <g transform="translate(84.90625 21.201563) scale(0.12 -0.12)">
     <defs>
      <path id="DejaVuSans-6e" d="M 3513 2113 
L 3513 0 
L 2938 0 
L 2938 2094 
Q 2938 2591 2744 2837 
Q 2550 3084 2163 3084 
Q 1697 3084 1428 2787 
Q 1159 2491 1159 1978 
L 1159 0 
L 581 0 
L 581 3500 
L 1159 3500 
L 1159 2956 
Q 1366 3272 1645 3428 
Q 1925 3584 2291 3584 
Q 2894 3584 3203 3211 
Q 3513 2838 3513 2113 
z
" transform="scale(0.015625)"/>
      <path id="DejaVuSans-63" d="M 3122 3366 
L 3122 2828 
Q 2878 2963 2633 3030 
Q 2388 3097 2138 3097 
Q 1578 3097 1268 2742 
Q 959 2388 959 1747 
Q 959 1106 1268 751 
Q 1578 397 2138 397 
Q 2388 397 2633 464 
Q 2878 531 3122 666 
L 3122 134 
Q 2881 22 2623 -34 
Q 2366 -91 2075 -91 
Q 1284 -91 818 406 
Q 353 903 353 1747 
Q 353 2603 823 3093 
Q 1294 3584 2113 3584 
Q 2378 3584 2631 3529 
Q 2884 3475 3122 3366 
z
" transform="scale(0.015625)"/>
      <path id="DejaVuSans-6f" d="M 1959 3097 
Q 1497 3097 1228 2736 
Q 959 2375 959 1747 
Q 959 1119 1226 758 
Q 1494 397 1959 397 
Q 2419 397 2687 759 
Q 2956 1122 2956 1747 
Q 2956 2369 2687 2733 
Q 2419 3097 1959 3097 
z
M 1959 3584 
Q 2709 3584 3137 3096 
Q 3566 2609 3566 1747 
Q 3566 888 3137 398 
Q 2709 -91 1959 -91 
Q 1206 -91 779 398 
Q 353 888 353 1747 
Q 353 2609 779 3096 
Q 1206 3584 1959 3584 
z
" transform="scale(0.015625)"/>
      <path id="DejaVuSans-67" d="M 2906 1791 
Q 2906 2416 2648 2759 
Q 2391 3103 1925 3103 
Q 1463 3103 1205 2759 
Q 947 2416 947 1791 
Q 947 1169 1205 825 
Q 1463 481 1925 481 
Q 2391 481 2648 825 
Q 2906 1169 2906 1791 
z
M 3481 434 
Q 3481 -459 3084 -895 
Q 2688 -1331 1869 -1331 
Q 1566 -1331 1297 -1286 
Q 1028 -1241 775 -1147 
L 775 -588 
Q 1028 -725 1275 -790 
Q 1522 -856 1778 -856 
Q 2344 -856 2625 -561 
Q 2906 -266 2906 331 
L 2906 616 
Q 2728 306 2450 153 
Q 2172 0 1784 0 
Q 1141 0 747 490 
Q 353 981 353 1791 
Q 353 2603 747 3093 
Q 1141 3584 1784 3584 
Q 2172 3584 2450 3431 
Q 2728 3278 2906 2969 
L 2906 3500 
L 3481 3500 
L 3481 434 
z
" transform="scale(0.015625)"/>
      <path id="DejaVuSans-52" d="M 2841 2188 
Q 3044 2119 3236 1894 
Q 3428 1669 3622 1275 
L 4263 0 
L 3584 0 
L 2988 1197 
Q 2756 1666 2539 1819 
Q 2322 1972 1947 1972 
L 1259 1972 
L 1259 0 
L 628 0 
L 628 4666 
L 2053 4666 
Q 2853 4666 3247 4331 
Q 3641 3997 3641 3322 
Q 3641 2881 3436 2590 
Q 3231 2300 2841 2188 
z
M 1259 4147 
L 1259 2491 
L 2053 2491 
Q 2509 2491 2742 2702 
Q 2975 2913 2975 3322 
Q 2975 3731 2742 3939 
Q 2509 4147 2053 4147 
L 1259 4147 
z
" transform="scale(0.015625)"/>
      <path id="DejaVuSans-3a" d="M 750 794 
L 1409 794 
L 1409 0 
L 750 0 
L 750 794 
z
M 750 3309 
L 1409 3309 
L 1409 2516 
L 750 2516 
L 750 3309 
z
" transform="scale(0.015625)"/>
      <path id="DejaVuSans-76" d="M 191 3500 
L 800 3500 
L 1894 563 
L 2988 3500 
L 3597 3500 
L 2284 0 
L 1503 0 
L 191 3500 
z
" transform="scale(0.015625)"/>
      <path id="DejaVuSans-72" d="M 2631 2963 
Q 2534 3019 2420 3045 
Q 2306 3072 2169 3072 
Q 1681 3072 1420 2755 
Q 1159 2438 1159 1844 
L 1159 0 
L 581 0 
L 581 3500 
L 1159 3500 
L 1159 2956 
Q 1341 3275 1631 3429 
Q 1922 3584 2338 3584 
Q 2397 3584 2469 3576 
Q 2541 3569 2628 3553 
L 2631 2963 
z
" transform="scale(0.015625)"/>
      <path id="DejaVuSans-48" d="M 628 4666 
L 1259 4666 
L 1259 2753 
L 3553 2753 
L 3553 4666 
L 4184 4666 
L 4184 0 
L 3553 0 
L 3553 2222 
L 1259 2222 
L 1259 0 
L 628 0 
L 628 4666 
z
" transform="scale(0.015625)"/>
      <path id="DejaVuSans-64" d="M 2906 2969 
L 2906 4863 
L 3481 4863 
L 3481 0 
L 2906 0 
L 2906 525 
Q 2725 213 2448 61 
Q 2172 -91 1784 -91 
Q 1150 -91 751 415 
Q 353 922 353 1747 
Q 353 2572 751 3078 
Q 1150 3584 1784 3584 
Q 2172 3584 2448 3432 
Q 2725 3281 2906 2969 
z
M 947 1747 
Q 947 1113 1208 752 
Q 1469 391 1925 391 
Q 2381 391 2643 752 
Q 2906 1113 2906 1747 
Q 2906 2381 2643 2742 
Q 2381 3103 1925 3103 
Q 1469 3103 1208 2742 
Q 947 2381 947 1747 
z
" transform="scale(0.015625)"/>
      <path id="DejaVuSans-53" d="M 3425 4513 
L 3425 3897 
Q 3066 4069 2747 4153 
Q 2428 4238 2131 4238 
Q 1616 4238 1336 4038 
Q 1056 3838 1056 3469 
Q 1056 3159 1242 3001 
Q 1428 2844 1947 2747 
L 2328 2669 
Q 3034 2534 3370 2195 
Q 3706 1856 3706 1288 
Q 3706 609 3251 259 
Q 2797 -91 1919 -91 
Q 1588 -91 1214 -16 
Q 841 59 441 206 
L 441 856 
Q 825 641 1194 531 
Q 1563 422 1919 422 
Q 2459 422 2753 634 
Q 3047 847 3047 1241 
Q 3047 1584 2836 1778 
Q 2625 1972 2144 2069 
L 1759 2144 
Q 1053 2284 737 2584 
Q 422 2884 422 3419 
Q 422 4038 858 4394 
Q 1294 4750 2059 4750 
Q 2388 4750 2728 4690 
Q 3069 4631 3425 4513 
z
" transform="scale(0.015625)"/>
      <path id="DejaVuSans-68" d="M 3513 2113 
L 3513 0 
L 2938 0 
L 2938 2094 
Q 2938 2591 2744 2837 
Q 2550 3084 2163 3084 
Q 1697 3084 1428 2787 
Q 1159 2491 1159 1978 
L 1159 0 
L 581 0 
L 581 4863 
L 1159 4863 
L 1159 2956 
Q 1366 3272 1645 3428 
Q 1925 3584 2291 3584 
Q 2894 3584 3203 3211 
Q 3513 2838 3513 2113 
z
" transform="scale(0.015625)"/>
      <path id="DejaVuSans-77" d="M 269 3500 
L 844 3500 
L 1563 769 
L 2278 3500 
L 2956 3500 
L 3675 769 
L 4391 3500 
L 4966 3500 
L 4050 0 
L 3372 0 
L 2619 2869 
L 1863 0 
L 1184 0 
L 269 3500 
z
" transform="scale(0.015625)"/>
      <path id="DejaVuSans-70" d="M 1159 525 
L 1159 -1331 
L 581 -1331 
L 581 3500 
L 1159 3500 
L 1159 2969 
Q 1341 3281 1617 3432 
Q 1894 3584 2278 3584 
Q 2916 3584 3314 3078 
Q 3713 2572 3713 1747 
Q 3713 922 3314 415 
Q 2916 -91 2278 -91 
Q 1894 -91 1617 61 
Q 1341 213 1159 525 
z
M 3116 1747 
Q 3116 2381 2855 2742 
Q 2594 3103 2138 3103 
Q 1681 3103 1420 2742 
Q 1159 2381 1159 1747 
Q 1159 1113 1420 752 
Q 1681 391 2138 391 
Q 2594 391 2855 752 
Q 3116 1113 3116 1747 
z
" transform="scale(0.015625)"/>
      <path id="DejaVuSans-5b" d="M 550 4863 
L 1875 4863 
L 1875 4416 
L 1125 4416 
L 1125 -397 
L 1875 -397 
L 1875 -844 
L 550 -844 
L 550 4863 
z
" transform="scale(0.015625)"/>
      <path id="DejaVuSans-5d" d="M 1947 4863 
L 1947 -844 
L 622 -844 
L 622 -397 
L 1369 -397 
L 1369 4416 
L 622 4416 
L 622 4863 
L 1947 4863 
z
" transform="scale(0.015625)"/>
      <path id="DejaVuSans-66" d="M 2375 4863 
L 2375 4384 
L 1825 4384 
Q 1516 4384 1395 4259 
Q 1275 4134 1275 3809 
L 1275 3500 
L 2222 3500 
L 2222 3053 
L 1275 3053 
L 1275 0 
L 697 0 
L 697 3053 
L 147 3053 
L 147 3500 
L 697 3500 
L 697 3744 
Q 697 4328 969 4595 
Q 1241 4863 1831 4863 
L 2375 4863 
z
" transform="scale(0.015625)"/>
      <path id="DejaVuSans-41" d="M 2188 4044 
L 1331 1722 
L 3047 1722 
L 2188 4044 
z
M 1831 4666 
L 2547 4666 
L 4325 0 
L 3669 0 
L 3244 1197 
L 1141 1197 
L 716 0 
L 50 0 
L 1831 4666 
z
" transform="scale(0.015625)"/>
      <path id="DejaVuSans-51" d="M 2522 4238 
Q 1834 4238 1429 3725 
Q 1025 3213 1025 2328 
Q 1025 1447 1429 934 
Q 1834 422 2522 422 
Q 3209 422 3611 934 
Q 4013 1447 4013 2328 
Q 4013 3213 3611 3725 
Q 3209 4238 2522 4238 
z
M 3406 84 
L 4238 -825 
L 3475 -825 
L 2784 -78 
Q 2681 -84 2626 -87 
Q 2572 -91 2522 -91 
Q 1538 -91 948 567 
Q 359 1225 359 2328 
Q 359 3434 948 4092 
Q 1538 4750 2522 4750 
Q 3503 4750 4090 4092 
Q 4678 3434 4678 2328 
Q 4678 1516 4351 937 
Q 4025 359 3406 84 
z
" transform="scale(0.015625)"/>
     </defs>
     <use xlink:href="#DejaVuSans-69"/>
     <use xlink:href="#DejaVuSans-6e" x="27.783203"/>
     <use xlink:href="#DejaVuSans-63" x="91.162109"/>
     <use xlink:href="#DejaVuSans-6f" x="146.142578"/>
     <use xlink:href="#DejaVuSans-6d" x="207.324219"/>
     <use xlink:href="#DejaVuSans-69" x="304.736328"/>
     <use xlink:href="#DejaVuSans-6e" x="332.519531"/>
     <use xlink:href="#DejaVuSans-67" x="395.898438"/>
     <use xlink:href="#DejaVuSans-44" x="459.375"/>
     <use xlink:href="#DejaVuSans-61" x="536.376953"/>
     <use xlink:href="#DejaVuSans-74" x="597.65625"/>
     <use xlink:href="#DejaVuSans-61" x="636.865234"/>
     <use xlink:href="#DejaVuSans-52" x="698.144531"/>
     <use xlink:href="#DejaVuSans-61" x="765.376953"/>
     <use xlink:href="#DejaVuSans-74" x="826.65625"/>
     <use xlink:href="#DejaVuSans-65" x="865.865234"/>
     <use xlink:href="#DejaVuSans-3a" x="927.388672"/>
     <use xlink:href="#DejaVuSans-76" x="961.080078"/>
     <use xlink:href="#DejaVuSans-65" x="1020.259766"/>
     <use xlink:href="#DejaVuSans-63" x="1081.783203"/>
     <use xlink:href="#DejaVuSans-74" x="1136.763672"/>
     <use xlink:href="#DejaVuSans-6f" x="1175.972656"/>
     <use xlink:href="#DejaVuSans-72" x="1237.154297"/>
     <use xlink:href="#DejaVuSans-20" x="1278.267578"/>
     <use xlink:href="#DejaVuSans-28" x="1310.054688"/>
     <use xlink:href="#DejaVuSans-48" x="1349.068359"/>
     <use xlink:href="#DejaVuSans-61" x="1424.263672"/>
     <use xlink:href="#DejaVuSans-6e" x="1485.542969"/>
     <use xlink:href="#DejaVuSans-64" x="1548.921875"/>
     <use xlink:href="#DejaVuSans-6f" x="1612.398438"/>
     <use xlink:href="#DejaVuSans-76" x="1673.580078"/>
     <use xlink:href="#DejaVuSans-65" x="1732.759766"/>
     <use xlink:href="#DejaVuSans-72" x="1794.283203"/>
     <use xlink:href="#DejaVuSans-53" x="1835.396484"/>
     <use xlink:href="#DejaVuSans-68" x="1898.873047"/>
     <use xlink:href="#DejaVuSans-6f" x="1962.251953"/>
     <use xlink:href="#DejaVuSans-77" x="2023.433594"/>
     <use xlink:href="#DejaVuSans-63" x="2105.220703"/>
     <use xlink:href="#DejaVuSans-61" x="2160.201172"/>
     <use xlink:href="#DejaVuSans-73" x="2221.480469"/>
     <use xlink:href="#DejaVuSans-65" x="2273.580078"/>
     <use xlink:href="#DejaVuSans-2e" x="2335.103516"/>
     <use xlink:href="#DejaVuSans-61" x="2366.890625"/>
     <use xlink:href="#DejaVuSans-70" x="2428.169922"/>
     <use xlink:href="#DejaVuSans-32" x="2491.646484"/>
     <use xlink:href="#DejaVuSans-2e" x="2555.269531"/>
     <use xlink:href="#DejaVuSans-77" x="2587.056641"/>
     <use xlink:href="#DejaVuSans-6c" x="2668.84375"/>
     <use xlink:href="#DejaVuSans-61" x="2696.626953"/>
     <use xlink:href="#DejaVuSans-6e" x="2757.90625"/>
     <use xlink:href="#DejaVuSans-5b" x="2821.285156"/>
     <use xlink:href="#DejaVuSans-30" x="2860.298828"/>
     <use xlink:href="#DejaVuSans-5d" x="2923.921875"/>
     <use xlink:href="#DejaVuSans-2e" x="2962.935547"/>
     <use xlink:href="#DejaVuSans-6d" x="2994.722656"/>
     <use xlink:href="#DejaVuSans-61" x="3092.134766"/>
     <use xlink:href="#DejaVuSans-63" x="3153.414062"/>
     <use xlink:href="#DejaVuSans-2e" x="3208.394531"/>
     <use xlink:href="#DejaVuSans-64" x="3240.181641"/>
     <use xlink:href="#DejaVuSans-63" x="3303.658203"/>
     <use xlink:href="#DejaVuSans-66" x="3358.638672"/>
     <use xlink:href="#DejaVuSans-2e" x="3386.59375"/>
     <use xlink:href="#DejaVuSans-63" x="3418.380859"/>
     <use xlink:href="#DejaVuSans-68" x="3473.361328"/>
     <use xlink:href="#DejaVuSans-61" x="3536.740234"/>
     <use xlink:href="#DejaVuSans-6e" x="3598.019531"/>
     <use xlink:href="#DejaVuSans-6e" x="3661.398438"/>
     <use xlink:href="#DejaVuSans-65" x="3724.777344"/>
     <use xlink:href="#DejaVuSans-6c" x="3786.300781"/>
     <use xlink:href="#DejaVuSans-41" x="3814.083984"/>
     <use xlink:href="#DejaVuSans-63" x="3880.742188"/>
     <use xlink:href="#DejaVuSans-63" x="3935.722656"/>
     <use xlink:href="#DejaVuSans-65" x="3990.703125"/>
     <use xlink:href="#DejaVuSans-73" x="4052.226562"/>
     <use xlink:href="#DejaVuSans-73" x="4104.326172"/>
     <use xlink:href="#DejaVuSans-2e" x="4156.425781"/>
     <use xlink:href="#DejaVuSans-70" x="4188.212891"/>
     <use xlink:href="#DejaVuSans-65" x="4251.689453"/>
     <use xlink:href="#DejaVuSans-6e" x="4313.212891"/>
     <use xlink:href="#DejaVuSans-64" x="4376.591797"/>
     <use xlink:href="#DejaVuSans-69" x="4440.068359"/>
     <use xlink:href="#DejaVuSans-6e" x="4467.851562"/>
     <use xlink:href="#DejaVuSans-67" x="4531.230469"/>
     <use xlink:href="#DejaVuSans-51" x="4594.707031"/>
     <use xlink:href="#DejaVuSans-75" x="4673.417969"/>
     <use xlink:href="#DejaVuSans-65" x="4736.796875"/>
     <use xlink:href="#DejaVuSans-75" x="4798.320312"/>
     <use xlink:href="#DejaVuSans-65" x="4861.699219"/>
     <use xlink:href="#DejaVuSans-29" x="4923.222656"/>
    </g>
   </g>
   <g id="legend_1">
    <g id="patch_7">
     <path d="M 63.09 60.478125 
L 188.572813 60.478125 
Q 190.572813 60.478125 190.572813 58.478125 
L 190.572813 44.8 
Q 190.572813 42.8 188.572813 42.8 
L 63.09 42.8 
Q 61.09 42.8 61.09 44.8 
L 61.09 58.478125 
Q 61.09 60.478125 63.09 60.478125 
z
" style="fill: #ffffff; opacity: 0.8; stroke: #cccccc; stroke-linejoin: miter"/>
    </g>
    <g id="line2d_28">
     <path d="M 65.09 50.898438 
L 75.09 50.898438 
L 85.09 50.898438 
" style="fill: none; stroke: #1f77b4; stroke-width: 1.5; stroke-linecap: square"/>
    </g>
    <g id="text_18">
     <!-- Δvalue per sample -->
     <g transform="translate(93.09 54.398438) scale(0.1 -0.1)">
      <defs>
       <path id="DejaVuSans-394" d="M 2188 4044 
L 906 525 
L 3472 525 
L 2188 4044 
z
M 50 0 
L 1831 4666 
L 2547 4666 
L 4325 0 
L 50 0 
z
" transform="scale(0.015625)"/>
      </defs>
      <use xlink:href="#DejaVuSans-394"/>
      <use xlink:href="#DejaVuSans-76" x="68.408203"/>
      <use xlink:href="#DejaVuSans-61" x="127.587891"/>
      <use xlink:href="#DejaVuSans-6c" x="188.867188"/>
      <use xlink:href="#DejaVuSans-75" x="216.650391"/>
      <use xlink:href="#DejaVuSans-65" x="280.029297"/>
      <use xlink:href="#DejaVuSans-20" x="341.552734"/>
      <use xlink:href="#DejaVuSans-70" x="373.339844"/>
      <use xlink:href="#DejaVuSans-65" x="436.816406"/>
      <use xlink:href="#DejaVuSans-72" x="498.339844"/>
      <use xlink:href="#DejaVuSans-20" x="539.453125"/>
      <use xlink:href="#DejaVuSans-73" x="571.240234"/>
      <use xlink:href="#DejaVuSans-61" x="623.339844"/>
      <use xlink:href="#DejaVuSans-6d" x="684.619141"/>
      <use xlink:href="#DejaVuSans-70" x="782.03125"/>
      <use xlink:href="#DejaVuSans-6c" x="845.507812"/>
      <use xlink:href="#DejaVuSans-65" x="873.291016"/>
     </g>
    </g>
   </g>
  </g>
 </g>
 <defs>
  <clipPath id="pf95d7822a6">
   <rect x="56.09" y="37.8" width="653.11" height="208.24"/>
  </clipPath>
 </defs>
</svg>
