<?xml version="1.0" encoding="utf-8" standalone="no"?>
<!DOCTYPE svg PUBLIC "-//W3C//DTD SVG 1.1//EN"
  "http://www.w3.org/Graphics/SVG/1.1/DTD/svg11.dtd">
<svg xmlns:xlink="http://www.w3.org/1999/xlink" width="720pt" height="288pt" viewBox="0 0 720 288" xmlns="http://www.w3.org/2000/svg" version="1.1">
 <metadata>
  <rdf:RDF xmlns:dc="http://purl.org/dc/elements/1.1/" xmlns:cc="http://creativecommons.org/ns#" xmlns:rdf="http://www.w3.org/1999/02/22-rdf-syntax-ns#">
   <cc:Work>
    <dc:type rdf:resource="http://purl.org/dc/dcmitype/StillImage"/>
    <dc:date>2025-07-27T15:08:49.780975</dc:date>
    <dc:format>image/svg+xml</dc:format>
    <dc:creator>
     <cc:Agent>
      <dc:title>Matplotlib v3.9.2, https://matplotlib.org/</dc:title>
     </cc:Agent>
    </dc:creator>
   </cc:Work>
  </rdf:RDF>
 </metadata>
 <defs>
  <style type="text/css">*{stroke-linejoin: round; stroke-linecap: butt}</style>
 </defs>
 <g id="figure_1">
  <g id="patch_1">
   <path d="M 0 288 
L 720 288 
L 720 0 
L 0 0 
z
" style="fill: #ffffff"/>
  </g>
  <g id="axes_1">
   <g id="patch_2">
    <path d="M 54.02 246.04 
L 709.2 246.04 
L 709.2 26.88 
L 54.02 26.88 
z
" style="fill: #ffffff"/>
   </g>
   <g id="matplotlib.axis_1">
    <g id="xtick_1">
     <g id="line2d_1">
      <path d="M 83.800909 246.04 
L 83.800909 26.88 
" clip-path="url(#pcfb14cbe06)" style="fill: none; stroke: #b0b0b0; stroke-width: 0.8; stroke-linecap: square"/>
     </g>
     <g id="line2d_2">
      <defs>
       <path id="m5e909f21e7" d="M 0 0 
L 0 3.5 
" style="stroke: #000000; stroke-width: 0.8"/>
      </defs>
      <g>
       <use xlink:href="#m5e909f21e7" x="83.800909" y="246.04" style="stroke: #000000; stroke-width: 0.8"/>
      </g>
     </g>
     <g id="text_1">
      <!-- 0 -->
      <g transform="translate(80.619659 260.638438) scale(0.1 -0.1)">
       <defs>
        <path id="DejaVuSans-30" d="M 2034 4250 
Q 1547 4250 1301 3770 
Q 1056 3291 1056 2328 
Q 1056 1369 1301 889 
Q 1547 409 2034 409 
Q 2525 409 2770 889 
Q 3016 1369 3016 2328 
Q 3016 3291 2770 3770 
Q 2525 4250 2034 4250 
z
M 2034 4750 
Q 2819 4750 3233 4129 
Q 3647 3509 3647 2328 
Q 3647 1150 3233 529 
Q 2819 -91 2034 -91 
Q 1250 -91 836 529 
Q 422 1150 422 2328 
Q 422 3509 836 4129 
Q 1250 4750 2034 4750 
z
" transform="scale(0.015625)"/>
       </defs>
       <use xlink:href="#DejaVuSans-30"/>
      </g>
     </g>
    </g>
    <g id="xtick_2">
     <g id="line2d_3">
      <path d="M 228.294779 246.04 
L 228.294779 26.88 
" clip-path="url(#pcfb14cbe06)" style="fill: none; stroke: #b0b0b0; stroke-width: 0.8; stroke-linecap: square"/>
     </g>
     <g id="line2d_4">
      <g>
       <use xlink:href="#m5e909f21e7" x="228.294779" y="246.04" style="stroke: #000000; stroke-width: 0.8"/>
      </g>
     </g>
     <g id="text_2">
      <!-- 10000 -->
      <g transform="translate(212.388529 260.638438) scale(0.1 -0.1)">
       <defs>
        <path id="DejaVuSans-31" d="M 794 531 
L 1825 531 
L 1825 4091 
L 703 3866 
L 703 4441 
L 1819 4666 
L 2450 4666 
L 2450 531 
L 3481 531 
L 3481 0 
L 794 0 
L 794 531 
z
" transform="scale(0.015625)"/>
       </defs>
       <use xlink:href="#DejaVuSans-31"/>
       <use xlink:href="#DejaVuSans-30" x="63.623047"/>
       <use xlink:href="#DejaVuSans-30" x="127.246094"/>
       <use xlink:href="#DejaVuSans-30" x="190.869141"/>
       <use xlink:href="#DejaVuSans-30" x="254.492188"/>
      </g>
     </g>
    </g>
    <g id="xtick_3">
     <g id="line2d_5">
      <path d="M 372.788649 246.04 
L 372.788649 26.88 
" clip-path="url(#pcfb14cbe06)" style="fill: none; stroke: #b0b0b0; stroke-width: 0.8; stroke-linecap: square"/>
     </g>
     <g id="line2d_6">
      <g>
       <use xlink:href="#m5e909f21e7" x="372.788649" y="246.04" style="stroke: #000000; stroke-width: 0.8"/>
      </g>
     </g>
     <g id="text_3">
      <!-- 20000 -->
      <g transform="translate(356.882399 260.638438) scale(0.1 -0.1)">
       <defs>
        <path id="DejaVuSans-32" d="M 1228 531 
L 3431 531 
L 3431 0 
L 469 0 
L 469 531 
Q 828 903 1448 1529 
Q 2069 2156 2228 2338 
Q 2531 2678 2651 2914 
Q 2772 3150 2772 3378 
Q 2772 3750 2511 3984 
Q 2250 4219 1831 4219 
Q 1534 4219 1204 4116 
Q 875 4013 500 3803 
L 500 4441 
Q 881 4594 1212 4672 
Q 1544 4750 1819 4750 
Q 2544 4750 2975 4387 
Q 3406 4025 3406 3419 
Q 3406 3131 3298 2873 
Q 3191 2616 2906 2266 
Q 2828 2175 2409 1742 
Q 1991 1309 1228 531 
z
" transform="scale(0.015625)"/>
       </defs>
       <use xlink:href="#DejaVuSans-32"/>
       <use xlink:href="#DejaVuSans-30" x="63.623047"/>
       <use xlink:href="#DejaVuSans-30" x="127.246094"/>
       <use xlink:href="#DejaVuSans-30" x="190.869141"/>
       <use xlink:href="#DejaVuSans-30" x="254.492188"/>
      </g>
     </g>
    </g>
    <g id="xtick_4">
     <g id="line2d_7">
      <path d="M 517.282519 246.04 
L 517.282519 26.88 
" clip-path="url(#pcfb14cbe06)" style="fill: none; stroke: #b0b0b0; stroke-width: 0.8; stroke-linecap: square"/>
     </g>
     <g id="line2d_8">
      <g>
       <use xlink:href="#m5e909f21e7" x="517.282519" y="246.04" style="stroke: #000000; stroke-width: 0.8"/>
      </g>
     </g>
     <g id="text_4">
      <!-- 30000 -->
      <g transform="translate(501.376269 260.638438) scale(0.1 -0.1)">
       <defs>
        <path id="DejaVuSans-33" d="M 2597 2516 
Q 3050 2419 3304 2112 
Q 3559 1806 3559 1356 
Q 3559 666 3084 287 
Q 2609 -91 1734 -91 
Q 1441 -91 1130 -33 
Q 819 25 488 141 
L 488 750 
Q 750 597 1062 519 
Q 1375 441 1716 441 
Q 2309 441 2620 675 
Q 2931 909 2931 1356 
Q 2931 1769 2642 2001 
Q 2353 2234 1838 2234 
L 1294 2234 
L 1294 2753 
L 1863 2753 
Q 2328 2753 2575 2939 
Q 2822 3125 2822 3475 
Q 2822 3834 2567 4026 
Q 2313 4219 1838 4219 
Q 1578 4219 1281 4162 
Q 984 4106 628 3988 
L 628 4550 
Q 988 4650 1302 4700 
Q 1616 4750 1894 4750 
Q 2613 4750 3031 4423 
Q 3450 4097 3450 3541 
Q 3450 3153 3228 2886 
Q 3006 2619 2597 2516 
z
" transform="scale(0.015625)"/>
       </defs>
       <use xlink:href="#DejaVuSans-33"/>
       <use xlink:href="#DejaVuSans-30" x="63.623047"/>
       <use xlink:href="#DejaVuSans-30" x="127.246094"/>
       <use xlink:href="#DejaVuSans-30" x="190.869141"/>
       <use xlink:href="#DejaVuSans-30" x="254.492188"/>
      </g>
     </g>
    </g>
    <g id="xtick_5">
     <g id="line2d_9">
      <path d="M 661.776389 246.04 
L 661.776389 26.88 
" clip-path="url(#pcfb14cbe06)" style="fill: none; stroke: #b0b0b0; stroke-width: 0.8; stroke-linecap: square"/>
     </g>
     <g id="line2d_10">
      <g>
       <use xlink:href="#m5e909f21e7" x="661.776389" y="246.04" style="stroke: #000000; stroke-width: 0.8"/>
      </g>
     </g>
     <g id="text_5">
      <!-- 40000 -->
      <g transform="translate(645.870139 260.638438) scale(0.1 -0.1)">
       <defs>
        <path id="DejaVuSans-34" d="M 2419 4116 
L 825 1625 
L 2419 1625 
L 2419 4116 
z
M 2253 4666 
L 3047 4666 
L 3047 1625 
L 3713 1625 
L 3713 1100 
L 3047 1100 
L 3047 0 
L 2419 0 
L 2419 1100 
L 313 1100 
L 313 1709 
L 2253 4666 
z
" transform="scale(0.015625)"/>
       </defs>
       <use xlink:href="#DejaVuSans-34"/>
       <use xlink:href="#DejaVuSans-30" x="63.623047"/>
       <use xlink:href="#DejaVuSans-30" x="127.246094"/>
       <use xlink:href="#DejaVuSans-30" x="190.869141"/>
       <use xlink:href="#DejaVuSans-30" x="254.492188"/>
      </g>
     </g>
    </g>
    <g id="text_6">
     <!-- Time (s) -->
     <g transform="translate(361.281094 274.316562) scale(0.1 -0.1)">
      <defs>
       <path id="DejaVuSans-54" d="M -19 4666 
L 3928 4666 
L 3928 4134 
L 2272 4134 
L 2272 0 
L 1638 0 
L 1638 4134 
L -19 4134 
L -19 4666 
z
" transform="scale(0.015625)"/>
       <path id="DejaVuSans-69" d="M 603 3500 
L 1178 3500 
L 1178 0 
L 603 0 
L 603 3500 
z
M 603 4863 
L 1178 4863 
L 1178 4134 
L 603 4134 
L 603 4863 
z
" transform="scale(0.015625)"/>
       <path id="DejaVuSans-6d" d="M 3328 2828 
Q 3544 3216 3844 3400 
Q 4144 3584 4550 3584 
Q 5097 3584 5394 3201 
Q 5691 2819 5691 2113 
L 5691 0 
L 5113 0 
L 5113 2094 
Q 5113 2597 4934 2840 
Q 4756 3084 4391 3084 
Q 3944 3084 3684 2787 
Q 3425 2491 3425 1978 
L 3425 0 
L 2847 0 
L 2847 2094 
Q 2847 2600 2669 2842 
Q 2491 3084 2119 3084 
Q 1678 3084 1418 2786 
Q 1159 2488 1159 1978 
L 1159 0 
L 581 0 
L 581 3500 
L 1159 3500 
L 1159 2956 
Q 1356 3278 1631 3431 
Q 1906 3584 2284 3584 
Q 2666 3584 2933 3390 
Q 3200 3197 3328 2828 
z
" transform="scale(0.015625)"/>
       <path id="DejaVuSans-65" d="M 3597 1894 
L 3597 1613 
L 953 1613 
Q 991 1019 1311 708 
Q 1631 397 2203 397 
Q 2534 397 2845 478 
Q 3156 559 3463 722 
L 3463 178 
Q 3153 47 2828 -22 
Q 2503 -91 2169 -91 
Q 1331 -91 842 396 
Q 353 884 353 1716 
Q 353 2575 817 3079 
Q 1281 3584 2069 3584 
Q 2775 3584 3186 3129 
Q 3597 2675 3597 1894 
z
M 3022 2063 
Q 3016 2534 2758 2815 
Q 2500 3097 2075 3097 
Q 1594 3097 1305 2825 
Q 1016 2553 972 2059 
L 3022 2063 
z
" transform="scale(0.015625)"/>
       <path id="DejaVuSans-20" transform="scale(0.015625)"/>
       <path id="DejaVuSans-28" d="M 1984 4856 
Q 1566 4138 1362 3434 
Q 1159 2731 1159 2009 
Q 1159 1288 1364 580 
Q 1569 -128 1984 -844 
L 1484 -844 
Q 1016 -109 783 600 
Q 550 1309 550 2009 
Q 550 2706 781 3412 
Q 1013 4119 1484 4856 
L 1984 4856 
z
" transform="scale(0.015625)"/>
       <path id="DejaVuSans-73" d="M 2834 3397 
L 2834 2853 
Q 2591 2978 2328 3040 
Q 2066 3103 1784 3103 
Q 1356 3103 1142 2972 
Q 928 2841 928 2578 
Q 928 2378 1081 2264 
Q 1234 2150 1697 2047 
L 1894 2003 
Q 2506 1872 2764 1633 
Q 3022 1394 3022 966 
Q 3022 478 2636 193 
Q 2250 -91 1575 -91 
Q 1294 -91 989 -36 
Q 684 19 347 128 
L 347 722 
Q 666 556 975 473 
Q 1284 391 1588 391 
Q 1994 391 2212 530 
Q 2431 669 2431 922 
Q 2431 1156 2273 1281 
Q 2116 1406 1581 1522 
L 1381 1569 
Q 847 1681 609 1914 
Q 372 2147 372 2553 
Q 372 3047 722 3315 
Q 1072 3584 1716 3584 
Q 2034 3584 2315 3537 
Q 2597 3491 2834 3397 
z
" transform="scale(0.015625)"/>
       <path id="DejaVuSans-29" d="M 513 4856 
L 1013 4856 
Q 1481 4119 1714 3412 
Q 1947 2706 1947 2009 
Q 1947 1309 1714 600 
Q 1481 -109 1013 -844 
L 513 -844 
Q 928 -128 1133 580 
Q 1338 1288 1338 2009 
Q 1338 2731 1133 3434 
Q 928 4138 513 4856 
z
" transform="scale(0.015625)"/>
      </defs>
      <use xlink:href="#DejaVuSans-54"/>
      <use xlink:href="#DejaVuSans-69" x="57.958984"/>
      <use xlink:href="#DejaVuSans-6d" x="85.742188"/>
      <use xlink:href="#DejaVuSans-65" x="183.154297"/>
      <use xlink:href="#DejaVuSans-20" x="244.677734"/>
      <use xlink:href="#DejaVuSans-28" x="276.464844"/>
      <use xlink:href="#DejaVuSans-73" x="315.478516"/>
      <use xlink:href="#DejaVuSans-29" x="367.578125"/>
     </g>
    </g>
   </g>
   <g id="matplotlib.axis_2">
    <g id="ytick_1">
     <g id="line2d_11">
      <path d="M 54.02 236.078182 
L 709.2 236.078182 
" clip-path="url(#pcfb14cbe06)" style="fill: none; stroke: #b0b0b0; stroke-width: 0.8; stroke-linecap: square"/>
     </g>
     <g id="line2d_12">
      <defs>
       <path id="m96b625d6db" d="M 0 0 
L -3.5 0 
" style="stroke: #000000; stroke-width: 0.8"/>
      </defs>
      <g>
       <use xlink:href="#m96b625d6db" x="54.02" y="236.078182" style="stroke: #000000; stroke-width: 0.8"/>
      </g>
     </g>
     <g id="text_7">
      <!-- 0.00 -->
      <g transform="translate(24.754375 239.877401) scale(0.1 -0.1)">
       <defs>
        <path id="DejaVuSans-2e" d="M 684 794 
L 1344 794 
L 1344 0 
L 684 0 
L 684 794 
z
" transform="scale(0.015625)"/>
       </defs>
       <use xlink:href="#DejaVuSans-30"/>
       <use xlink:href="#DejaVuSans-2e" x="63.623047"/>
       <use xlink:href="#DejaVuSans-30" x="95.410156"/>
       <use xlink:href="#DejaVuSans-30" x="159.033203"/>
      </g>
     </g>
    </g>
    <g id="ytick_2">
     <g id="line2d_13">
      <path d="M 54.02 196.212571 
L 709.2 196.212571 
" clip-path="url(#pcfb14cbe06)" style="fill: none; stroke: #b0b0b0; stroke-width: 0.8; stroke-linecap: square"/>
     </g>
     <g id="line2d_14">
      <g>
       <use xlink:href="#m96b625d6db" x="54.02" y="196.212571" style="stroke: #000000; stroke-width: 0.8"/>
      </g>
     </g>
     <g id="text_8">
      <!-- 0.02 -->
      <g transform="translate(24.754375 200.01179) scale(0.1 -0.1)">
       <use xlink:href="#DejaVuSans-30"/>
       <use xlink:href="#DejaVuSans-2e" x="63.623047"/>
       <use xlink:href="#DejaVuSans-30" x="95.410156"/>
       <use xlink:href="#DejaVuSans-32" x="159.033203"/>
      </g>
     </g>
    </g>
    <g id="ytick_3">
     <g id="line2d_15">
      <path d="M 54.02 156.34696 
L 709.2 156.34696 
" clip-path="url(#pcfb14cbe06)" style="fill: none; stroke: #b0b0b0; stroke-width: 0.8; stroke-linecap: square"/>
     </g>
     <g id="line2d_16">
      <g>
       <use xlink:href="#m96b625d6db" x="54.02" y="156.34696" style="stroke: #000000; stroke-width: 0.8"/>
      </g>
     </g>
     <g id="text_9">
      <!-- 0.04 -->
      <g transform="translate(24.754375 160.146179) scale(0.1 -0.1)">
       <use xlink:href="#DejaVuSans-30"/>
       <use xlink:href="#DejaVuSans-2e" x="63.623047"/>
       <use xlink:href="#DejaVuSans-30" x="95.410156"/>
       <use xlink:href="#DejaVuSans-34" x="159.033203"/>
      </g>
     </g>
    </g>
    <g id="ytick_4">
     <g id="line2d_17">
      <path d="M 54.02 116.481349 
L 709.2 116.481349 
" clip-path="url(#pcfb14cbe06)" style="fill: none; stroke: #b0b0b0; stroke-width: 0.8; stroke-linecap: square"/>
     </g>
     <g id="line2d_18">
      <g>
       <use xlink:href="#m96b625d6db" x="54.02" y="116.481349" style="stroke: #000000; stroke-width: 0.8"/>
      </g>
     </g>
     <g id="text_10">
      <!-- 0.06 -->
      <g transform="translate(24.754375 120.280568) scale(0.1 -0.1)">
       <defs>
        <path id="DejaVuSans-36" d="M 2113 2584 
Q 1688 2584 1439 2293 
Q 1191 2003 1191 1497 
Q 1191 994 1439 701 
Q 1688 409 2113 409 
Q 2538 409 2786 701 
Q 3034 994 3034 1497 
Q 3034 2003 2786 2293 
Q 2538 2584 2113 2584 
z
M 3366 4563 
L 3366 3988 
Q 3128 4100 2886 4159 
Q 2644 4219 2406 4219 
Q 1781 4219 1451 3797 
Q 1122 3375 1075 2522 
Q 1259 2794 1537 2939 
Q 1816 3084 2150 3084 
Q 2853 3084 3261 2657 
Q 3669 2231 3669 1497 
Q 3669 778 3244 343 
Q 2819 -91 2113 -91 
Q 1303 -91 875 529 
Q 447 1150 447 2328 
Q 447 3434 972 4092 
Q 1497 4750 2381 4750 
Q 2619 4750 2861 4703 
Q 3103 4656 3366 4563 
z
" transform="scale(0.015625)"/>
       </defs>
       <use xlink:href="#DejaVuSans-30"/>
       <use xlink:href="#DejaVuSans-2e" x="63.623047"/>
       <use xlink:href="#DejaVuSans-30" x="95.410156"/>
       <use xlink:href="#DejaVuSans-36" x="159.033203"/>
      </g>
     </g>
    </g>
    <g id="ytick_5">
     <g id="line2d_19">
      <path d="M 54.02 76.615738 
L 709.2 76.615738 
" clip-path="url(#pcfb14cbe06)" style="fill: none; stroke: #b0b0b0; stroke-width: 0.8; stroke-linecap: square"/>
     </g>
     <g id="line2d_20">
      <g>
       <use xlink:href="#m96b625d6db" x="54.02" y="76.615738" style="stroke: #000000; stroke-width: 0.8"/>
      </g>
     </g>
     <g id="text_11">
      <!-- 0.08 -->
      <g transform="translate(24.754375 80.414957) scale(0.1 -0.1)">
       <defs>
        <path id="DejaVuSans-38" d="M 2034 2216 
Q 1584 2216 1326 1975 
Q 1069 1734 1069 1313 
Q 1069 891 1326 650 
Q 1584 409 2034 409 
Q 2484 409 2743 651 
Q 3003 894 3003 1313 
Q 3003 1734 2745 1975 
Q 2488 2216 2034 2216 
z
M 1403 2484 
Q 997 2584 770 2862 
Q 544 3141 544 3541 
Q 544 4100 942 4425 
Q 1341 4750 2034 4750 
Q 2731 4750 3128 4425 
Q 3525 4100 3525 3541 
Q 3525 3141 3298 2862 
Q 3072 2584 2669 2484 
Q 3125 2378 3379 2068 
Q 3634 1759 3634 1313 
Q 3634 634 3220 271 
Q 2806 -91 2034 -91 
Q 1263 -91 848 271 
Q 434 634 434 1313 
Q 434 1759 690 2068 
Q 947 2378 1403 2484 
z
M 1172 3481 
Q 1172 3119 1398 2916 
Q 1625 2713 2034 2713 
Q 2441 2713 2670 2916 
Q 2900 3119 2900 3481 
Q 2900 3844 2670 4047 
Q 2441 4250 2034 4250 
Q 1625 4250 1398 4047 
Q 1172 3844 1172 3481 
z
" transform="scale(0.015625)"/>
       </defs>
       <use xlink:href="#DejaVuSans-30"/>
       <use xlink:href="#DejaVuSans-2e" x="63.623047"/>
       <use xlink:href="#DejaVuSans-30" x="95.410156"/>
       <use xlink:href="#DejaVuSans-38" x="159.033203"/>
      </g>
     </g>
    </g>
    <g id="ytick_6">
     <g id="line2d_21">
      <path d="M 54.02 36.750127 
L 709.2 36.750127 
" clip-path="url(#pcfb14cbe06)" style="fill: none; stroke: #b0b0b0; stroke-width: 0.8; stroke-linecap: square"/>
     </g>
     <g id="line2d_22">
      <g>
       <use xlink:href="#m96b625d6db" x="54.02" y="36.750127" style="stroke: #000000; stroke-width: 0.8"/>
      </g>
     </g>
     <g id="text_12">
      <!-- 0.10 -->
      <g transform="translate(24.754375 40.549346) scale(0.1 -0.1)">
       <use xlink:href="#DejaVuSans-30"/>
       <use xlink:href="#DejaVuSans-2e" x="63.623047"/>
       <use xlink:href="#DejaVuSans-31" x="95.410156"/>
       <use xlink:href="#DejaVuSans-30" x="159.033203"/>
      </g>
     </g>
    </g>
    <g id="text_13">
     <!-- Delta Value -->
     <g transform="translate(18.674688 165.120156) rotate(-90) scale(0.1 -0.1)">
      <defs>
       <path id="DejaVuSans-44" d="M 1259 4147 
L 1259 519 
L 2022 519 
Q 2988 519 3436 956 
Q 3884 1394 3884 2338 
Q 3884 3275 3436 3711 
Q 2988 4147 2022 4147 
L 1259 4147 
z
M 628 4666 
L 1925 4666 
Q 3281 4666 3915 4102 
Q 4550 3538 4550 2338 
Q 4550 1131 3912 565 
Q 3275 0 1925 0 
L 628 0 
L 628 4666 
z
" transform="scale(0.015625)"/>
       <path id="DejaVuSans-6c" d="M 603 4863 
L 1178 4863 
L 1178 0 
L 603 0 
L 603 4863 
z
" transform="scale(0.015625)"/>
       <path id="DejaVuSans-74" d="M 1172 4494 
L 1172 3500 
L 2356 3500 
L 2356 3053 
L 1172 3053 
L 1172 1153 
Q 1172 725 1289 603 
Q 1406 481 1766 481 
L 2356 481 
L 2356 0 
L 1766 0 
Q 1100 0 847 248 
Q 594 497 594 1153 
L 594 3053 
L 172 3053 
L 172 3500 
L 594 3500 
L 594 4494 
L 1172 4494 
z
" transform="scale(0.015625)"/>
       <path id="DejaVuSans-61" d="M 2194 1759 
Q 1497 1759 1228 1600 
Q 959 1441 959 1056 
Q 959 750 1161 570 
Q 1363 391 1709 391 
Q 2188 391 2477 730 
Q 2766 1069 2766 1631 
L 2766 1759 
L 2194 1759 
z
M 3341 1997 
L 3341 0 
L 2766 0 
L 2766 531 
Q 2569 213 2275 61 
Q 1981 -91 1556 -91 
Q 1019 -91 701 211 
Q 384 513 384 1019 
Q 384 1609 779 1909 
Q 1175 2209 1959 2209 
L 2766 2209 
L 2766 2266 
Q 2766 2663 2505 2880 
Q 2244 3097 1772 3097 
Q 1472 3097 1187 3025 
Q 903 2953 641 2809 
L 641 3341 
Q 956 3463 1253 3523 
Q 1550 3584 1831 3584 
Q 2591 3584 2966 3190 
Q 3341 2797 3341 1997 
z
" transform="scale(0.015625)"/>
       <path id="DejaVuSans-56" d="M 1831 0 
L 50 4666 
L 709 4666 
L 2188 738 
L 3669 4666 
L 4325 4666 
L 2547 0 
L 1831 0 
z
" transform="scale(0.015625)"/>
       <path id="DejaVuSans-75" d="M 544 1381 
L 544 3500 
L 1119 3500 
L 1119 1403 
Q 1119 906 1312 657 
Q 1506 409 1894 409 
Q 2359 409 2629 706 
Q 2900 1003 2900 1516 
L 2900 3500 
L 3475 3500 
L 3475 0 
L 2900 0 
L 2900 538 
Q 2691 219 2414 64 
Q 2138 -91 1772 -91 
Q 1169 -91 856 284 
Q 544 659 544 1381 
z
M 1991 3584 
L 1991 3584 
z
" transform="scale(0.015625)"/>
      </defs>
      <use xlink:href="#DejaVuSans-44"/>
      <use xlink:href="#DejaVuSans-65" x="77.001953"/>
      <use xlink:href="#DejaVuSans-6c" x="138.525391"/>
      <use xlink:href="#DejaVuSans-74" x="166.308594"/>
      <use xlink:href="#DejaVuSans-61" x="205.517578"/>
      <use xlink:href="#DejaVuSans-20" x="266.796875"/>
      <use xlink:href="#DejaVuSans-56" x="298.583984"/>
      <use xlink:href="#DejaVuSans-61" x="359.242188"/>
      <use xlink:href="#DejaVuSans-6c" x="420.521484"/>
      <use xlink:href="#DejaVuSans-75" x="448.304688"/>
      <use xlink:href="#DejaVuSans-65" x="511.683594"/>
     </g>
    </g>
   </g>
   <g id="line2d_23">
    <path d="M 83.800909 236.078182 
L 83.858707 224.773695 
L 83.945403 235.986491 
L 84.364435 36.841818 
L 84.451132 235.986491 
L 85.086905 36.841818 
L 85.173601 235.986491 
L 85.751576 36.841818 
L 85.838273 235.986491 
L 86.286204 36.841818 
L 86.3729 235.986491 
L 87.167616 36.841818 
L 87.254313 235.986491 
L 87.658895 36.841818 
L 87.745592 235.986491 
L 88.395814 36.841818 
L 88.48251 235.986491 
L 89.551765 36.841818 
L 89.638461 235.986491 
L 90.086392 36.841818 
L 90.173089 235.986491 
L 90.779963 36.841818 
L 90.866659 235.986491 
L 91.31459 36.841818 
L 91.401287 235.986491 
L 92.196003 36.841818 
L 92.282699 235.986491 
L 92.687282 36.841818 
L 92.773978 235.986491 
L 93.424201 36.841818 
L 93.510897 235.986491 
L 94.088873 36.841818 
L 94.175569 235.986491 
L 97.354434 36.841818 
L 97.44113 235.986491 
L 98.048005 36.841818 
L 98.134701 235.986491 
L 98.524834 36.841818 
L 98.611531 235.986491 
L 99.045012 36.841818 
L 99.131709 235.986491 
L 99.738583 36.841818 
L 99.825279 235.986491 
L 100.258761 36.841818 
L 100.345457 235.986491 
L 100.952331 36.841818 
L 101.039028 235.986491 
L 101.429161 36.841818 
L 101.515858 235.986491 
L 101.949339 36.841818 
L 102.036035 235.986491 
L 102.64291 36.841818 
L 102.729606 235.986491 
L 103.191986 36.841818 
L 103.278683 235.986491 
L 103.885557 36.841818 
L 103.972253 235.986491 
L 104.362387 36.841818 
L 104.449083 235.986491 
L 104.882565 36.841818 
L 104.969261 235.986491 
L 105.576135 36.841818 
L 105.662832 235.986491 
L 106.096313 36.841818 
L 106.18301 235.986491 
L 106.789884 36.841818 
L 106.87658 235.986491 
L 107.266714 36.841818 
L 107.35341 235.986491 
L 107.786892 36.841818 
L 107.873588 235.986491 
L 108.480462 36.841818 
L 108.567158 235.986491 
L 109.00064 36.841818 
L 109.087336 235.986491 
L 109.694211 36.841818 
L 109.780907 235.986491 
L 110.17104 36.841818 
L 110.257737 235.986491 
L 110.720117 36.841818 
L 110.806813 235.986491 
L 111.413688 36.841818 
L 111.500384 235.986491 
L 111.933866 36.841818 
L 112.020562 235.986491 
L 112.627436 36.841818 
L 112.714132 235.986491 
L 113.104266 36.841818 
L 113.190962 235.986491 
L 113.624444 36.841818 
L 113.71114 235.986491 
L 114.318014 36.841818 
L 114.404711 235.986491 
L 114.838192 36.841818 
L 114.924889 235.986491 
L 115.531763 36.841818 
L 115.618459 235.986491 
L 116.008593 36.841818 
L 116.095289 235.986491 
L 116.528771 36.841818 
L 116.615467 235.986491 
L 117.222341 36.841818 
L 117.309038 235.986491 
L 117.771418 36.841818 
L 117.858114 235.986491 
L 118.464989 36.841818 
L 118.551685 235.986491 
L 118.941818 36.841818 
L 119.028515 235.986491 
L 119.461996 36.841818 
L 119.548693 235.986491 
L 120.155567 36.841818 
L 120.242263 235.986491 
L 120.675745 36.841818 
L 120.762441 235.986491 
L 121.369315 36.841818 
L 121.456012 235.986491 
L 121.846145 36.841818 
L 121.932841 235.986491 
L 122.366323 36.841818 
L 122.453019 235.986491 
L 123.059894 36.841818 
L 123.14659 235.986491 
L 123.580072 36.841818 
L 123.666768 235.986491 
L 124.273642 36.841818 
L 124.360338 235.986491 
L 124.750472 36.841818 
L 124.837168 235.986491 
L 125.299549 36.841818 
L 125.386245 235.986491 
L 125.993119 36.841818 
L 126.079815 235.986491 
L 126.513297 36.841818 
L 126.599993 235.986491 
L 127.206868 36.841818 
L 127.293564 235.986491 
L 127.683697 36.841818 
L 127.770394 235.986491 
L 128.203875 36.841818 
L 128.290572 235.986491 
L 128.897446 36.841818 
L 128.984142 235.986491 
L 129.417624 36.841818 
L 129.50432 235.986491 
L 130.111194 36.841818 
L 130.197891 235.986491 
L 130.588024 36.841818 
L 130.674721 235.986491 
L 131.108202 36.841818 
L 131.194898 235.986491 
L 131.801773 36.841818 
L 131.888469 235.986491 
L 132.350849 36.841818 
L 132.437546 235.986491 
L 133.04442 36.841818 
L 133.131116 235.986491 
L 133.52125 36.841818 
L 133.607946 235.986491 
L 134.041428 36.841818 
L 134.128124 235.986491 
L 134.734998 36.841818 
L 134.821695 235.986491 
L 135.255176 36.841818 
L 135.341873 235.986491 
L 135.948747 36.841818 
L 136.035443 235.986491 
L 136.425577 36.841818 
L 136.512273 235.986491 
L 136.945755 36.841818 
L 137.032451 235.986491 
L 137.639325 36.841818 
L 137.726021 235.986491 
L 138.159503 36.841818 
L 138.246199 235.986491 
L 138.853074 36.841818 
L 138.93977 235.986491 
L 139.329903 36.841818 
L 139.4166 235.986491 
L 139.87898 36.841818 
L 139.965676 235.986491 
L 140.572551 36.841818 
L 140.659247 235.986491 
L 141.092729 36.841818 
L 141.179425 235.986491 
L 141.786299 36.841818 
L 141.872995 235.986491 
L 142.263129 36.841818 
L 142.349825 235.986491 
L 142.783307 36.841818 
L 142.870003 235.986491 
L 143.476877 36.841818 
L 143.563574 235.986491 
L 143.997055 36.841818 
L 144.083752 235.986491 
L 144.690626 36.841818 
L 144.777322 235.986491 
L 145.167456 36.841818 
L 145.254152 235.986491 
L 145.687634 36.841818 
L 145.77433 235.986491 
L 146.381204 36.841818 
L 146.467901 235.986491 
L 146.930281 36.841818 
L 147.016977 235.986491 
L 147.623852 36.841818 
L 147.710548 235.986491 
L 148.100681 36.841818 
L 148.187378 235.986491 
L 148.620859 36.841818 
L 148.707556 235.986491 
L 149.31443 36.841818 
L 149.401126 235.986491 
L 149.834608 36.841818 
L 149.921304 235.986491 
L 150.528178 36.841818 
L 150.614875 235.986491 
L 151.005008 36.841818 
L 151.091704 235.986491 
L 151.525186 36.841818 
L 151.611882 235.986491 
L 152.218757 36.841818 
L 152.305453 235.986491 
L 152.738935 36.841818 
L 152.825631 235.986491 
L 153.432505 36.841818 
L 153.519201 235.986491 
L 153.909335 36.841818 
L 153.996031 235.986491 
L 154.458412 36.841818 
L 154.545108 235.986491 
L 155.151982 36.841818 
L 155.238678 235.986491 
L 155.67216 36.841818 
L 155.758856 235.986491 
L 156.365731 36.841818 
L 156.452427 235.986491 
L 156.84256 36.841818 
L 156.929257 235.986491 
L 157.362738 36.841818 
L 157.449435 235.986491 
L 158.056309 36.841818 
L 158.143005 235.986491 
L 158.576487 36.841818 
L 158.663183 235.986491 
L 159.270057 36.841818 
L 159.356754 235.986491 
L 159.746887 36.841818 
L 159.833584 235.986491 
L 160.267065 36.841818 
L 160.353761 235.986491 
L 160.960636 36.841818 
L 161.047332 235.986491 
L 161.509712 36.841818 
L 161.596409 235.986491 
L 162.203283 36.841818 
L 162.289979 235.986491 
L 162.680113 36.841818 
L 162.766809 235.986491 
L 163.200291 36.841818 
L 163.286987 235.986491 
L 163.893861 36.841818 
L 163.980558 235.986491 
L 164.414039 36.841818 
L 164.500736 235.986491 
L 165.10761 36.841818 
L 165.194306 235.986491 
L 165.58444 36.841818 
L 165.671136 235.986491 
L 166.104617 36.841818 
L 166.191314 235.986491 
L 166.798188 36.841818 
L 166.884884 235.986491 
L 167.318366 36.841818 
L 167.405062 235.986491 
L 168.011937 36.841818 
L 168.098633 235.986491 
L 168.488766 36.841818 
L 168.575463 235.986491 
L 169.037843 36.841818 
L 169.124539 235.986491 
L 169.731414 36.841818 
L 169.81811 235.986491 
L 170.251592 36.841818 
L 170.338288 235.986491 
L 170.945162 36.841818 
L 171.031858 235.986491 
L 171.421992 36.841818 
L 171.508688 235.986491 
L 171.94217 36.841818 
L 172.028866 235.986491 
L 172.63574 36.841818 
L 172.722437 235.986491 
L 173.155918 36.841818 
L 173.242615 235.986491 
L 173.849489 36.841818 
L 173.936185 235.986491 
L 174.326319 36.841818 
L 174.413015 235.986491 
L 174.846497 36.841818 
L 174.933193 235.986491 
L 175.540067 36.841818 
L 175.626764 235.986491 
L 176.089144 36.841818 
L 176.17584 235.986491 
L 176.782714 36.841818 
L 176.869411 235.986491 
L 177.259544 36.841818 
L 177.346241 235.986491 
L 177.779722 36.841818 
L 177.866419 235.986491 
L 178.473293 36.841818 
L 178.559989 235.986491 
L 178.993471 36.841818 
L 179.080167 235.986491 
L 179.687041 36.841818 
L 179.773738 235.986491 
L 180.163871 36.841818 
L 180.250567 235.986491 
L 180.684049 36.841818 
L 180.770745 235.986491 
L 181.37762 36.841818 
L 181.464316 235.986491 
L 181.897797 36.841818 
L 181.984494 235.986491 
L 182.591368 36.841818 
L 182.678064 235.986491 
L 183.068198 36.841818 
L 183.154894 235.986491 
L 183.617275 36.841818 
L 183.703971 235.986491 
L 184.310845 36.841818 
L 184.397541 235.986491 
L 184.831023 36.841818 
L 184.917719 235.986491 
L 185.524594 36.841818 
L 185.61129 235.986491 
L 186.001423 36.841818 
L 186.08812 235.986491 
L 186.521601 36.841818 
L 186.608298 235.986491 
L 187.215172 36.841818 
L 187.301868 235.986491 
L 187.73535 36.841818 
L 187.822046 235.986491 
L 188.42892 36.841818 
L 188.515617 235.986491 
L 188.90575 36.841818 
L 188.992447 235.986491 
L 189.425928 36.841818 
L 189.512624 235.986491 
L 190.119499 36.841818 
L 190.206195 235.986491 
L 190.668575 36.841818 
L 190.755272 235.986491 
L 191.362146 36.841818 
L 191.448842 235.986491 
L 191.838976 36.841818 
L 191.925672 235.986491 
L 192.359154 36.841818 
L 192.44585 235.986491 
L 193.052724 36.841818 
L 193.139421 235.986491 
L 193.572902 36.841818 
L 193.659599 235.986491 
L 194.266473 36.841818 
L 194.353169 235.986491 
L 194.743303 36.841818 
L 194.829999 235.986491 
L 195.26348 36.841818 
L 195.350177 235.986491 
L 195.957051 36.841818 
L 196.043747 235.986491 
L 196.477229 36.841818 
L 196.563925 235.986491 
L 197.1708 36.841818 
L 197.257496 235.986491 
L 197.647629 36.841818 
L 197.734326 235.986491 
L 198.196706 36.841818 
L 198.283402 235.986491 
L 198.890277 36.841818 
L 198.976973 235.986491 
L 199.410455 36.841818 
L 199.497151 235.986491 
L 200.104025 36.841818 
L 200.190721 235.986491 
L 200.580855 36.841818 
L 200.667551 235.986491 
L 201.101033 36.841818 
L 201.187729 235.986491 
L 201.794603 36.841818 
L 201.8813 235.986491 
L 202.314781 36.841818 
L 202.401478 235.986491 
L 203.008352 36.841818 
L 203.095048 235.986491 
L 203.485182 36.841818 
L 203.571878 235.986491 
L 204.00536 36.841818 
L 204.092056 235.986491 
L 204.69893 36.841818 
L 204.785627 235.986491 
L 205.248007 36.841818 
L 205.334703 235.986491 
L 205.941577 36.841818 
L 206.028274 235.986491 
L 206.418407 36.841818 
L 206.505104 235.986491 
L 206.938585 36.841818 
L 207.025281 235.986491 
L 207.632156 36.841818 
L 207.718852 235.986491 
L 208.152334 36.841818 
L 208.23903 235.986491 
L 208.845904 36.841818 
L 208.932601 235.986491 
L 209.322734 36.841818 
L 209.40943 235.986491 
L 209.842912 36.841818 
L 209.929608 235.986491 
L 210.536483 36.841818 
L 210.623179 235.986491 
L 211.05666 36.841818 
L 211.143357 235.986491 
L 211.750231 36.841818 
L 211.836927 235.986491 
L 212.227061 36.841818 
L 212.313757 235.986491 
L 212.776138 36.841818 
L 212.862834 235.986491 
L 213.469708 36.841818 
L 213.556404 235.986491 
L 213.989886 36.841818 
L 214.076582 235.986491 
L 214.683457 36.841818 
L 214.770153 235.986491 
L 215.160286 36.841818 
L 215.246983 235.986491 
L 215.680464 36.841818 
L 215.767161 235.986491 
L 216.374035 36.841818 
L 216.460731 235.986491 
L 216.894213 36.841818 
L 216.980909 235.986491 
L 217.587783 36.841818 
L 217.67448 235.986491 
L 218.064613 36.841818 
L 218.151309 235.986491 
L 218.584791 36.841818 
L 218.671487 235.986491 
L 219.278362 36.841818 
L 219.365058 235.986491 
L 219.827438 36.841818 
L 219.914135 235.986491 
L 220.521009 36.841818 
L 220.607705 235.986491 
L 220.997839 36.841818 
L 221.084535 235.986491 
L 221.518017 36.841818 
L 221.604713 235.986491 
L 222.211587 36.841818 
L 222.298284 235.986491 
L 222.731765 36.841818 
L 222.818461 235.986491 
L 223.425336 36.841818 
L 223.512032 235.986491 
L 223.902166 36.841818 
L 223.988862 235.986491 
L 224.422343 36.841818 
L 224.50904 235.986491 
L 225.115914 36.841818 
L 225.20261 235.986491 
L 225.636092 36.841818 
L 225.722788 235.986491 
L 226.329663 36.841818 
L 226.416359 235.986491 
L 226.806492 36.841818 
L 226.893189 235.986491 
L 227.355569 36.841818 
L 227.442265 235.986491 
L 228.04914 36.841818 
L 228.135836 235.986491 
L 228.569318 36.841818 
L 228.656014 235.986491 
L 229.262888 36.841818 
L 229.349584 235.986491 
L 229.739718 36.841818 
L 229.826414 235.986491 
L 230.259896 36.841818 
L 230.346592 235.986491 
L 230.953466 36.841818 
L 231.040163 235.986491 
L 231.473644 36.841818 
L 231.560341 235.986491 
L 232.167215 36.841818 
L 232.253911 235.986491 
L 232.644045 36.841818 
L 232.730741 235.986491 
L 233.164223 36.841818 
L 233.250919 235.986491 
L 233.857793 36.841818 
L 233.944489 235.986491 
L 234.40687 36.841818 
L 234.493566 235.986491 
L 235.10044 36.841818 
L 235.187137 235.986491 
L 235.57727 36.841818 
L 235.663967 235.986491 
L 236.097448 36.841818 
L 236.184144 235.986491 
L 236.791019 36.841818 
L 236.877715 235.986491 
L 237.311197 36.841818 
L 237.397893 235.986491 
L 238.004767 36.841818 
L 238.091464 235.986491 
L 238.481597 36.841818 
L 238.568293 235.986491 
L 239.001775 36.841818 
L 239.088471 235.986491 
L 239.695346 36.841818 
L 239.782042 235.986491 
L 240.215523 36.841818 
L 240.30222 235.986491 
L 240.909094 36.841818 
L 240.99579 235.986491 
L 241.385924 36.841818 
L 241.47262 235.986491 
L 241.935 36.841818 
L 242.021697 235.986491 
L 242.628571 36.841818 
L 242.715267 235.986491 
L 243.148749 36.841818 
L 243.235445 235.986491 
L 243.84232 36.841818 
L 243.929016 235.986491 
L 244.319149 36.841818 
L 244.405846 235.986491 
L 244.839327 36.841818 
L 244.926024 235.986491 
L 245.532898 36.841818 
L 245.619594 235.986491 
L 246.053076 36.841818 
L 246.139772 235.986491 
L 246.746646 36.841818 
L 246.833343 235.986491 
L 247.223476 36.841818 
L 247.310172 235.986491 
L 247.743654 36.841818 
L 247.83035 235.986491 
L 248.437225 36.841818 
L 248.523921 235.986491 
L 248.986301 36.841818 
L 249.072998 235.986491 
L 249.679872 36.841818 
L 249.766568 235.986491 
L 250.156702 36.841818 
L 250.243398 235.986491 
L 250.67688 36.841818 
L 250.763576 235.986491 
L 251.37045 36.841818 
L 251.457147 235.986491 
L 251.890628 36.841818 
L 251.977324 235.986491 
L 252.584199 36.841818 
L 252.670895 235.986491 
L 253.061028 36.841818 
L 253.147725 235.986491 
L 253.581206 36.841818 
L 253.667903 235.986491 
L 254.274777 36.841818 
L 254.361473 235.986491 
L 254.794955 36.841818 
L 254.881651 235.986491 
L 255.488526 36.841818 
L 255.575222 235.986491 
L 255.936457 36.841818 
L 256.023153 235.986491 
L 256.456634 36.841818 
L 256.543331 235.986491 
L 257.121306 36.841818 
L 257.208003 235.986491 
L 257.670383 36.841818 
L 257.757079 235.986491 
L 258.551796 36.841818 
L 258.638492 235.986491 
L 259.043075 36.841818 
L 259.129771 235.986491 
L 259.751095 36.841818 
L 259.837791 235.986491 
L 260.415766 36.841818 
L 260.502463 235.986491 
L 260.950394 36.841818 
L 261.03709 235.986491 
L 261.831806 36.841818 
L 261.918503 235.986491 
L 262.323086 36.841818 
L 262.409782 235.986491 
L 263.031106 69.130208 
L 263.363441 235.896572 
L 263.522385 203.971402 
L 263.609081 235.986491 
L 264.215955 36.841818 
L 264.302652 235.986491 
L 264.779481 36.841818 
L 264.866178 235.986491 
L 265.5164 36.841818 
L 265.603096 235.986491 
L 266.181072 36.841818 
L 266.267768 235.986491 
L 266.672351 36.841818 
L 266.759047 235.986491 
L 267.553764 168.738457 
L 267.900549 235.904611 
L 268.362929 234.551329 
L 268.767512 235.904611 
L 269.229893 235.26891 
L 269.576678 235.904612 
L 270.082406 107.038379 
L 270.169103 235.986491 
L 270.602584 36.841818 
L 270.689281 235.986491 
L 271.296155 36.841818 
L 271.382851 235.986491 
L 271.772985 36.841818 
L 271.859681 235.986491 
L 272.293163 36.841818 
L 272.379859 235.986491 
L 272.986733 36.841818 
L 273.073429 235.986491 
L 273.506911 36.841818 
L 273.593607 235.986491 
L 274.200482 36.841818 
L 274.287178 235.986491 
L 274.677311 36.841818 
L 274.764008 235.986491 
L 275.226388 36.841818 
L 275.313084 235.986491 
L 275.919959 36.841818 
L 276.006655 235.986491 
L 276.440137 36.841818 
L 276.526833 235.986491 
L 277.133707 36.841818 
L 277.220404 235.986491 
L 277.610537 36.841818 
L 277.697233 235.986491 
L 278.130715 36.841818 
L 278.217411 235.986491 
L 278.824286 36.841818 
L 278.910982 235.986491 
L 279.344463 36.841818 
L 279.43116 235.986491 
L 280.038034 36.841818 
L 280.12473 235.986491 
L 280.514864 36.841818 
L 280.60156 235.986491 
L 281.035042 36.841818 
L 281.121738 235.986491 
L 281.728612 36.841818 
L 281.815309 235.986491 
L 282.277689 36.841818 
L 282.364385 235.986491 
L 282.97126 36.841818 
L 283.057956 235.986491 
L 283.448089 36.841818 
L 283.534786 235.986491 
L 283.968267 36.841818 
L 284.054964 235.986491 
L 284.661838 36.841818 
L 284.748534 235.986491 
L 285.182016 36.841818 
L 285.268712 235.986491 
L 285.875586 36.841818 
L 285.962283 235.986491 
L 286.352416 36.841818 
L 286.439112 235.986491 
L 286.872594 36.841818 
L 286.95929 235.986491 
L 287.566165 36.841818 
L 287.652861 235.986491 
L 288.086343 36.841818 
L 288.173039 235.986491 
L 288.779913 36.841818 
L 288.866609 235.986491 
L 289.256743 36.841818 
L 289.343439 235.986491 
L 289.80582 36.841818 
L 289.892516 235.986491 
L 290.49939 36.841818 
L 290.586087 235.986491 
L 291.019568 36.841818 
L 291.106264 235.986491 
L 291.713139 36.841818 
L 291.799835 235.986491 
L 292.189969 36.841818 
L 292.276665 235.986491 
L 292.710146 36.841818 
L 292.796843 235.986491 
L 293.403717 36.841818 
L 293.490413 235.986491 
L 293.923895 36.841818 
L 294.010591 235.986491 
L 294.617466 36.841818 
L 294.704162 235.986491 
L 295.094295 36.841818 
L 295.180992 235.986491 
L 295.614473 36.841818 
L 295.70117 235.986491 
L 296.308044 36.841818 
L 296.39474 235.986491 
L 296.857121 36.841818 
L 296.943817 235.986491 
L 297.550691 36.841818 
L 297.637387 235.986491 
L 298.027521 36.841818 
L 298.114217 235.986491 
L 298.547699 36.841818 
L 298.634395 235.986491 
L 299.241269 36.841818 
L 299.327966 235.986491 
L 299.761447 36.841818 
L 299.848144 235.986491 
L 300.455018 36.841818 
L 300.541714 235.986491 
L 300.931848 36.841818 
L 301.018544 235.986491 
L 301.452026 36.841818 
L 301.538722 235.986491 
L 302.145596 36.841818 
L 302.232292 235.986491 
L 302.665774 36.841818 
L 302.75247 235.986491 
L 303.359345 36.841818 
L 303.446041 235.986491 
L 303.836174 36.841818 
L 303.922871 235.986491 
L 304.385251 36.841818 
L 304.471947 235.986491 
L 305.078822 36.841818 
L 305.165518 235.986491 
L 305.599 36.841818 
L 305.685696 235.986491 
L 306.29257 36.841818 
L 306.379267 235.986491 
L 306.7694 36.841818 
L 306.856096 235.986491 
L 307.289578 36.841818 
L 307.376274 235.986491 
L 307.983149 36.841818 
L 308.069845 235.986491 
L 308.503326 36.841818 
L 308.590023 235.986491 
L 309.196897 36.841818 
L 309.283593 235.986491 
L 309.673727 36.841818 
L 309.760423 235.986491 
L 310.193905 36.841818 
L 310.280601 235.986491 
L 310.887475 36.841818 
L 310.974172 235.986491 
L 311.436552 36.841818 
L 311.523248 235.986491 
L 312.130123 36.841818 
L 312.216819 235.986491 
L 312.606952 36.841818 
L 312.693649 235.986491 
L 313.12713 36.841818 
L 313.213827 235.986491 
L 313.820701 36.841818 
L 313.907397 235.986491 
L 314.340879 36.841818 
L 314.427575 235.986491 
L 315.034449 36.841818 
L 315.121146 235.986491 
L 315.511279 36.841818 
L 315.597975 235.986491 
L 316.031457 36.841818 
L 316.118153 235.986491 
L 316.725028 36.841818 
L 316.811724 235.986491 
L 317.245206 36.841818 
L 317.331902 235.986491 
L 317.938776 36.841818 
L 318.025472 235.986491 
L 318.415606 36.841818 
L 318.502302 235.986491 
L 318.964683 36.841818 
L 319.051379 235.986491 
L 319.658253 36.841818 
L 319.74495 235.986491 
L 320.178431 36.841818 
L 320.265127 235.986491 
L 320.872002 36.841818 
L 320.958698 235.986491 
L 321.348831 36.841818 
L 321.435528 235.986491 
L 321.869009 36.841818 
L 321.955706 235.986491 
L 322.56258 36.841818 
L 322.649276 235.986491 
L 323.082758 36.841818 
L 323.169454 235.986491 
L 323.776329 36.841818 
L 323.863025 235.986491 
L 324.253158 36.841818 
L 324.339855 235.986491 
L 324.773336 36.841818 
L 324.860033 235.986491 
L 325.466907 36.841818 
L 325.553603 235.986491 
L 326.015983 36.841818 
L 326.10268 235.986491 
L 326.709554 36.841818 
L 326.79625 235.986491 
L 327.186384 36.841818 
L 327.27308 235.986491 
L 327.706562 36.841818 
L 327.793258 235.986491 
L 328.400132 36.841818 
L 328.486829 235.986491 
L 328.92031 36.841818 
L 329.007007 235.986491 
L 329.613881 36.841818 
L 329.700577 235.986491 
L 330.090711 36.841818 
L 330.177407 235.986491 
L 330.610889 36.841818 
L 330.697585 235.986491 
L 331.304459 36.841818 
L 331.391155 235.986491 
L 331.824637 36.841818 
L 331.911333 235.986491 
L 332.518208 36.841818 
L 332.604904 235.986491 
L 332.995037 36.841818 
L 333.081734 235.986491 
L 333.544114 36.841818 
L 333.63081 235.986491 
L 334.237685 36.841818 
L 334.324381 235.986491 
L 334.757863 36.841818 
L 334.844559 235.986491 
L 335.451433 36.841818 
L 335.53813 235.986491 
L 335.928263 36.841818 
L 336.014959 235.986491 
L 336.448441 36.841818 
L 336.535137 235.986491 
L 337.142011 36.841818 
L 337.228708 235.986491 
L 337.662189 36.841818 
L 337.748886 235.986491 
L 338.35576 36.841818 
L 338.442456 235.986491 
L 338.83259 36.841818 
L 338.919286 235.986491 
L 339.352768 36.841818 
L 339.439464 235.986491 
L 340.046338 36.841818 
L 340.133035 235.986491 
L 340.595415 36.841818 
L 340.682111 235.986491 
L 341.288986 36.841818 
L 341.375682 235.986491 
L 341.765815 36.841818 
L 341.852512 235.986491 
L 342.285993 36.841818 
L 342.37269 235.986491 
L 342.979564 36.841818 
L 343.06626 235.986491 
L 343.499742 36.841818 
L 343.586438 235.986491 
L 344.193312 36.841818 
L 344.280009 235.986491 
L 344.670142 36.841818 
L 344.756838 235.986491 
L 345.19032 36.841818 
L 345.277016 235.986491 
L 345.883891 36.841818 
L 345.970587 235.986491 
L 346.404069 36.841818 
L 346.490765 235.986491 
L 347.097639 36.841818 
L 347.184335 235.986491 
L 347.574469 36.841818 
L 347.661165 235.986491 
L 348.123546 36.841818 
L 348.210242 235.986491 
L 348.817116 36.841818 
L 348.903813 235.986491 
L 349.337294 36.841818 
L 349.42399 235.986491 
L 350.030865 36.841818 
L 350.117561 235.986491 
L 350.507694 36.841818 
L 350.594391 235.986491 
L 351.027872 36.841818 
L 351.114569 235.986491 
L 351.721443 36.841818 
L 351.808139 235.986491 
L 352.241621 36.841818 
L 352.328317 235.986491 
L 352.935191 36.841818 
L 353.021888 235.986491 
L 353.412021 36.841818 
L 353.498718 235.986491 
L 353.932199 36.841818 
L 354.018896 235.986491 
L 354.62577 36.841818 
L 354.712466 235.986491 
L 355.174846 36.841818 
L 355.261543 235.986491 
L 355.868417 36.841818 
L 355.955113 235.986491 
L 356.345247 36.841818 
L 356.431943 235.986491 
L 356.865425 36.841818 
L 356.952121 235.986491 
L 357.558995 36.841818 
L 357.645692 235.986491 
L 358.079173 36.841818 
L 358.16587 235.986491 
L 358.772744 36.841818 
L 358.85944 235.986491 
L 359.249574 36.841818 
L 359.33627 235.986491 
L 359.769752 36.841818 
L 359.856448 235.986491 
L 360.492221 36.841818 
L 360.578917 235.986491 
L 361.012399 36.841818 
L 361.099095 235.986491 
L 361.705969 36.841818 
L 361.792666 235.986491 
L 362.182799 36.841818 
L 362.269495 235.986491 
L 362.731876 36.841818 
L 362.818572 235.986491 
L 363.425446 36.841818 
L 363.512143 235.986491 
L 363.945624 36.841818 
L 364.032321 235.986491 
L 364.639195 36.841818 
L 364.725891 235.986491 
L 365.116025 36.841818 
L 365.202721 235.986491 
L 365.636203 36.841818 
L 365.722899 235.986491 
L 366.329773 36.841818 
L 366.41647 235.986491 
L 366.849951 36.841818 
L 366.936647 235.986491 
L 367.572421 36.841818 
L 367.659117 235.986491 
L 368.04925 36.841818 
L 368.135947 235.986491 
L 368.569428 36.841818 
L 368.656125 235.986491 
L 369.262999 36.841818 
L 369.349695 235.986491 
L 369.812076 36.841818 
L 369.898772 235.986491 
L 370.505646 36.841818 
L 370.592342 235.986491 
L 370.982476 36.841818 
L 371.069172 235.986491 
L 371.502654 36.841818 
L 371.58935 235.986491 
L 372.196224 36.841818 
L 372.282921 235.986491 
L 372.716402 36.841818 
L 372.803099 235.986491 
L 373.409973 36.841818 
L 373.496669 235.986491 
L 373.886803 36.841818 
L 373.973499 235.986491 
L 374.406981 36.841818 
L 374.493677 235.986491 
L 375.12945 36.841818 
L 375.216146 235.986491 
L 375.649628 36.841818 
L 375.736324 235.986491 
L 376.343198 36.841818 
L 376.429895 235.986491 
L 376.820028 36.841818 
L 376.906725 235.986491 
L 377.369105 36.841818 
L 377.455801 235.986491 
L 378.062675 36.841818 
L 378.149372 235.986491 
L 378.582853 36.841818 
L 378.66955 235.986491 
L 379.276424 36.841818 
L 379.36312 235.986491 
L 379.753254 36.841818 
L 379.83995 235.986491 
L 380.273432 36.841818 
L 380.360128 235.986491 
L 380.967002 36.841818 
L 381.053699 235.986491 
L 381.48718 36.841818 
L 381.573877 235.986491 
L 382.20965 36.841818 
L 382.296346 235.986491 
L 382.686479 36.841818 
L 382.773176 235.986491 
L 383.206657 36.841818 
L 383.293354 235.986491 
L 383.900228 36.841818 
L 383.986924 235.986491 
L 384.449305 36.841818 
L 384.536001 235.986491 
L 385.142875 36.841818 
L 385.229571 235.986491 
L 385.619705 36.841818 
L 385.706401 235.986491 
L 386.139883 36.841818 
L 386.226579 235.986491 
L 386.833453 36.841818 
L 386.92015 235.986491 
L 387.353631 36.841818 
L 387.440328 235.986491 
L 388.047202 36.841818 
L 388.133898 235.986491 
L 388.524032 36.841818 
L 388.610728 235.986491 
L 389.04421 36.841818 
L 389.130906 235.986491 
L 389.766679 36.841818 
L 389.853375 235.986491 
L 390.286857 36.841818 
L 390.373553 235.986491 
L 390.980427 36.841818 
L 391.067124 235.986491 
L 391.457257 36.841818 
L 391.543954 235.986491 
L 392.006334 36.841818 
L 392.09303 235.986491 
L 392.699905 36.841818 
L 392.786601 235.986491 
L 393.220082 36.841818 
L 393.306779 235.986491 
L 393.913653 36.841818 
L 394.000349 235.986491 
L 394.390483 36.841818 
L 394.477179 235.986491 
L 394.910661 36.841818 
L 394.997357 235.986491 
L 395.604231 36.841818 
L 395.690928 235.986491 
L 396.124409 36.841818 
L 396.211106 235.986491 
L 396.846879 36.841818 
L 396.933575 235.986491 
L 397.323708 36.841818 
L 397.410405 235.986491 
L 397.843886 36.841818 
L 397.930583 235.986491 
L 398.537457 36.841818 
L 398.624153 235.986491 
L 399.086534 36.841818 
L 399.17323 235.986491 
L 399.780104 36.841818 
L 399.8668 235.986491 
L 400.256934 36.841818 
L 400.34363 235.986491 
L 400.777112 36.841818 
L 400.863808 235.986491 
L 401.470682 36.841818 
L 401.557379 235.986491 
L 401.99086 36.841818 
L 402.077557 235.986491 
L 402.684431 36.841818 
L 402.771127 235.986491 
L 403.161261 36.841818 
L 403.247957 235.986491 
L 403.681439 36.841818 
L 403.768135 235.986491 
L 404.403908 36.841818 
L 404.490604 235.986491 
L 404.924086 36.841818 
L 405.010782 235.986491 
L 405.617657 36.841818 
L 405.704353 235.986491 
L 406.094486 36.841818 
L 406.181183 235.986491 
L 406.643563 36.841818 
L 406.730259 235.986491 
L 407.337134 36.841818 
L 407.42383 235.986491 
L 407.857311 36.841818 
L 407.944008 235.986491 
L 408.550882 36.841818 
L 408.637578 235.986491 
L 409.027712 36.841818 
L 409.114408 235.986491 
L 409.54789 36.841818 
L 409.634586 235.986491 
L 410.24146 36.841818 
L 410.328157 235.986491 
L 410.761638 36.841818 
L 410.848335 235.986491 
L 411.484108 36.841818 
L 411.570804 235.986491 
L 411.960937 36.841818 
L 412.047634 235.986491 
L 412.481115 36.841818 
L 412.567812 235.986491 
L 413.174686 36.841818 
L 413.261382 235.986491 
L 413.723763 36.841818 
L 413.810459 235.986491 
L 414.417333 36.841818 
L 414.50403 235.986491 
L 414.894163 36.841818 
L 414.980859 235.986491 
L 415.414341 36.841818 
L 415.501037 235.986491 
L 416.107911 36.841818 
L 416.194608 235.986491 
L 416.628089 36.841818 
L 416.714786 235.986491 
L 417.32166 36.841818 
L 417.408356 235.986491 
L 417.79849 36.841818 
L 417.885186 235.986491 
L 418.318668 36.841818 
L 418.405364 235.986491 
L 419.041137 36.841818 
L 419.127833 235.986491 
L 419.561315 36.841818 
L 419.648011 235.986491 
L 420.254886 36.841818 
L 420.341582 235.986491 
L 420.731715 36.841818 
L 420.818412 235.986491 
L 421.280792 36.841818 
L 421.367488 235.986491 
L 421.974363 36.841818 
L 422.061059 235.986491 
L 422.494541 36.841818 
L 422.581237 235.986491 
L 423.188111 36.841818 
L 423.274807 235.986491 
L 423.664941 36.841818 
L 423.751637 235.986491 
L 424.185119 36.841818 
L 424.271815 235.986491 
L 424.878689 36.841818 
L 424.965386 235.986491 
L 425.398867 36.841818 
L 425.485564 235.986491 
L 426.121337 36.841818 
L 426.208033 235.986491 
L 426.598166 36.841818 
L 426.684863 235.986491 
L 427.118344 36.841818 
L 427.205041 235.986491 
L 427.811915 36.841818 
L 427.898611 235.986491 
L 428.360992 36.841818 
L 428.447688 235.986491 
L 429.054562 36.841818 
L 429.141259 235.986491 
L 429.531392 36.841818 
L 429.618088 235.986491 
L 430.05157 36.841818 
L 430.138266 235.986491 
L 430.745141 36.841818 
L 430.831837 235.986491 
L 431.265318 36.841818 
L 431.352015 235.986491 
L 431.958889 36.841818 
L 432.045585 235.986491 
L 432.435719 36.841818 
L 432.522415 235.986491 
L 432.955897 36.841818 
L 433.042593 235.986491 
L 433.678366 36.841818 
L 433.765062 235.986491 
L 434.198544 36.841818 
L 434.28524 235.986491 
L 434.892115 36.841818 
L 434.978811 235.986491 
L 435.368944 36.841818 
L 435.455641 235.986491 
L 435.918021 36.841818 
L 436.004717 235.986491 
L 436.611592 36.841818 
L 436.698288 235.986491 
L 437.13177 36.841818 
L 437.218466 235.986491 
L 437.82534 36.841818 
L 437.912036 235.986491 
L 438.30217 36.841818 
L 438.388866 235.986491 
L 438.822348 36.841818 
L 438.909044 235.986491 
L 439.515918 36.841818 
L 439.602615 235.986491 
L 440.036096 36.841818 
L 440.122793 235.986491 
L 440.758566 36.841818 
L 440.845262 235.986491 
L 441.235395 36.841818 
L 441.322092 235.986491 
L 441.755573 36.841818 
L 441.84227 235.986491 
L 442.449144 36.841818 
L 442.53584 235.986491 
L 442.998221 36.841818 
L 443.084917 235.986491 
L 443.691791 36.841818 
L 443.778488 235.986491 
L 444.168621 36.841818 
L 444.255317 235.986491 
L 444.688799 36.841818 
L 444.775495 235.986491 
L 445.38237 36.841818 
L 445.469066 235.986491 
L 445.902547 36.841818 
L 445.989244 235.986491 
L 446.596118 36.841818 
L 446.682814 235.986491 
L 447.072948 36.841818 
L 447.159644 235.986491 
L 447.593126 36.841818 
L 447.679822 235.986491 
L 448.315595 36.841818 
L 448.402291 235.986491 
L 448.835773 36.841818 
L 448.922469 235.986491 
L 449.529344 36.841818 
L 449.61604 235.986491 
L 450.006173 36.841818 
L 450.09287 235.986491 
L 450.55525 36.841818 
L 450.641946 235.986491 
L 451.248821 36.841818 
L 451.335517 235.986491 
L 451.768999 36.841818 
L 451.855695 235.986491 
L 452.462569 36.841818 
L 452.549266 235.986491 
L 452.939399 36.841818 
L 453.026095 235.986491 
L 453.459577 36.841818 
L 453.546273 235.986491 
L 454.153147 36.841818 
L 454.239844 235.986491 
L 454.673325 36.841818 
L 454.760022 235.986491 
L 455.395795 36.841818 
L 455.482491 235.986491 
L 455.872625 36.841818 
L 455.959321 235.986491 
L 456.392802 36.841818 
L 456.479499 235.986491 
L 457.086373 36.841818 
L 457.173069 235.986491 
L 457.63545 36.841818 
L 457.722146 235.986491 
L 458.32902 36.841818 
L 458.415717 235.986491 
L 458.80585 36.841818 
L 458.892546 235.986491 
L 459.326028 36.841818 
L 459.412724 235.986491 
L 460.019599 36.841818 
L 460.106295 235.986491 
L 460.539777 36.841818 
L 460.626473 235.986491 
L 461.233347 36.841818 
L 461.320043 235.986491 
L 461.710177 36.841818 
L 461.796873 235.986491 
L 462.230355 36.841818 
L 462.317051 235.986491 
L 462.952824 36.841818 
L 463.03952 235.986491 
L 463.473002 36.841818 
L 463.559698 235.986491 
L 464.166573 36.841818 
L 464.253269 235.986491 
L 464.643402 36.841818 
L 464.730099 235.986491 
L 465.192479 36.841818 
L 465.279175 235.986491 
L 465.88605 36.841818 
L 465.972746 235.986491 
L 466.406228 36.841818 
L 466.492924 235.986491 
L 467.099798 36.841818 
L 467.186495 235.986491 
L 467.576628 36.841818 
L 467.663324 235.986491 
L 468.096806 36.841818 
L 468.183502 235.986491 
L 468.790377 36.841818 
L 468.877073 235.986491 
L 469.310554 36.841818 
L 469.397251 235.986491 
L 470.033024 36.841818 
L 470.11972 235.986491 
L 470.509854 36.841818 
L 470.59655 235.986491 
L 471.030031 36.841818 
L 471.116728 235.986491 
L 471.723602 36.841818 
L 471.810298 235.986491 
L 472.272679 36.841818 
L 472.359375 235.986491 
L 472.966249 36.841818 
L 473.052946 235.986491 
L 473.443079 36.841818 
L 473.529775 235.986491 
L 473.963257 36.841818 
L 474.049953 235.986491 
L 474.656828 36.841818 
L 474.743524 235.986491 
L 475.177006 36.841818 
L 475.263702 235.986491 
L 475.870576 36.841818 
L 475.957272 235.986491 
L 476.347406 36.841818 
L 476.434102 235.986491 
L 476.867584 36.841818 
L 476.95428 235.986491 
L 477.561154 36.841818 
L 477.647851 235.986491 
L 478.081332 36.841818 
L 478.168029 235.986491 
L 478.774903 36.841818 
L 478.861599 235.986491 
L 479.251733 36.841818 
L 479.338429 235.986491 
L 479.800809 36.841818 
L 479.887506 235.986491 
L 480.49438 36.841818 
L 480.581076 235.986491 
L 481.014558 36.841818 
L 481.101254 235.986491 
L 481.708128 36.841818 
L 481.794825 235.986491 
L 482.184958 36.841818 
L 482.271655 235.986491 
L 482.705136 36.841818 
L 482.791833 235.986491 
L 483.398707 36.841818 
L 483.485403 235.986491 
L 483.918885 36.841818 
L 484.005581 235.986491 
L 484.612455 36.841818 
L 484.699152 235.986491 
L 485.089285 36.841818 
L 485.175981 235.986491 
L 485.609463 36.841818 
L 485.696159 235.986491 
L 486.303034 36.841818 
L 486.38973 235.986491 
L 486.85211 36.841818 
L 486.938807 235.986491 
L 487.545681 36.841818 
L 487.632377 235.986491 
L 488.022511 36.841818 
L 488.109207 235.986491 
L 488.542689 36.841818 
L 488.629385 235.986491 
L 489.236259 36.841818 
L 489.322955 235.986491 
L 489.756437 36.841818 
L 489.843133 235.986491 
L 490.450008 36.841818 
L 490.536704 235.986491 
L 490.926837 36.841818 
L 491.013534 235.986491 
L 491.447015 36.841818 
L 491.533712 235.986491 
L 492.140586 36.841818 
L 492.227282 235.986491 
L 492.660764 36.841818 
L 492.74746 235.986491 
L 493.354334 36.841818 
L 493.441031 235.986491 
L 493.831164 36.841818 
L 493.917861 235.986491 
L 494.380241 36.841818 
L 494.466937 235.986491 
L 495.073811 36.841818 
L 495.160508 235.986491 
L 495.593989 36.841818 
L 495.680686 235.986491 
L 496.28756 36.841818 
L 496.374256 235.986491 
L 496.76439 36.841818 
L 496.851086 235.986491 
L 497.284568 36.841818 
L 497.371264 235.986491 
L 497.978138 36.841818 
L 498.064835 235.986491 
L 498.498316 36.841818 
L 498.585013 235.986491 
L 499.191887 36.841818 
L 499.278583 235.986491 
L 499.668717 36.841818 
L 499.755413 235.986491 
L 500.188894 36.841818 
L 500.275591 235.986491 
L 500.882465 36.841818 
L 500.969161 235.986491 
L 501.431542 36.841818 
L 501.518238 235.986491 
L 502.125112 36.841818 
L 502.211809 235.986491 
L 502.601942 36.841818 
L 502.688638 235.986491 
L 503.12212 36.841818 
L 503.208816 235.986491 
L 503.815691 36.841818 
L 503.902387 235.986491 
L 504.335869 36.841818 
L 504.422565 235.986491 
L 505.029439 36.841818 
L 505.116135 235.986491 
L 505.506269 36.841818 
L 505.592965 235.986491 
L 506.026447 36.841818 
L 506.113143 235.986491 
L 506.720017 36.841818 
L 506.806714 235.986491 
L 507.240195 36.841818 
L 507.326892 235.986491 
L 507.933766 36.841818 
L 508.020462 235.986491 
L 508.410596 36.841818 
L 508.497292 235.986491 
L 508.959672 36.841818 
L 509.046369 235.986491 
L 509.653243 36.841818 
L 509.739939 235.986491 
L 510.173421 36.841818 
L 510.260117 235.986491 
L 510.866991 36.841818 
L 510.953688 235.986491 
L 511.343821 36.841818 
L 511.430518 235.986491 
L 511.863999 36.841818 
L 511.950695 235.986491 
L 512.55757 36.841818 
L 512.644266 235.986491 
L 513.077748 36.841818 
L 513.164444 235.986491 
L 513.771318 36.841818 
L 513.858015 235.986491 
L 514.248148 36.841818 
L 514.334844 235.986491 
L 514.768326 36.841818 
L 514.855022 235.986491 
L 515.461897 36.841818 
L 515.548593 235.986491 
L 516.010973 36.841818 
L 516.09767 235.986491 
L 516.704544 36.841818 
L 516.79124 235.986491 
L 517.181374 36.841818 
L 517.26807 235.986491 
L 517.701552 36.841818 
L 517.788248 235.986491 
L 518.395122 36.841818 
L 518.481818 235.986491 
L 518.9153 36.841818 
L 519.001996 235.986491 
L 519.608871 36.841818 
L 519.695567 235.986491 
L 520.0857 36.841818 
L 520.172397 235.986491 
L 520.605878 36.841818 
L 520.692575 235.986491 
L 521.299449 36.841818 
L 521.386145 235.986491 
L 521.819627 36.841818 
L 521.906323 235.986491 
L 522.513197 36.841818 
L 522.599894 235.986491 
L 522.990027 36.841818 
L 523.076723 235.986491 
L 523.539104 36.841818 
L 523.6258 235.986491 
L 524.232674 36.841818 
L 524.319371 235.986491 
L 524.752852 36.841818 
L 524.839549 235.986491 
L 525.446423 36.841818 
L 525.533119 235.986491 
L 525.923253 36.841818 
L 526.009949 235.986491 
L 526.443431 36.841818 
L 526.530127 235.986491 
L 527.137001 36.841818 
L 527.223698 235.986491 
L 527.657179 36.841818 
L 527.743875 235.986491 
L 528.35075 36.841818 
L 528.437446 235.986491 
L 528.82758 36.841818 
L 528.914276 235.986491 
L 529.347757 36.841818 
L 529.434454 235.986491 
L 530.041328 36.841818 
L 530.128024 235.986491 
L 530.590405 36.841818 
L 530.677101 235.986491 
L 531.283975 36.841818 
L 531.370672 235.986491 
L 531.760805 36.841818 
L 531.847501 235.986491 
L 532.280983 36.841818 
L 532.367679 235.986491 
L 532.974554 36.841818 
L 533.06125 235.986491 
L 533.494732 36.841818 
L 533.581428 235.986491 
L 534.188302 36.841818 
L 534.274998 235.986491 
L 534.665132 36.841818 
L 534.751828 235.986491 
L 535.18531 36.841818 
L 535.272006 235.986491 
L 535.87888 36.841818 
L 535.965577 235.986491 
L 536.399058 36.841818 
L 536.485755 235.986491 
L 537.092629 36.841818 
L 537.179325 235.986491 
L 537.569459 36.841818 
L 537.656155 235.986491 
L 538.118535 36.841818 
L 538.205232 235.986491 
L 538.812106 36.841818 
L 538.898802 235.986491 
L 539.332284 36.841818 
L 539.41898 235.986491 
L 540.025854 36.841818 
L 540.112551 235.986491 
L 540.502684 36.841818 
L 540.589381 235.986491 
L 541.022862 36.841818 
L 541.109558 235.986491 
L 541.716433 36.841818 
L 541.803129 235.986491 
L 542.236611 36.841818 
L 542.323307 235.986491 
L 542.930181 36.841818 
L 543.016878 235.986491 
L 543.407011 36.841818 
L 543.493707 235.986491 
L 543.927189 36.841818 
L 544.013885 235.986491 
L 544.62076 36.841818 
L 544.707456 235.986491 
L 545.169836 36.841818 
L 545.256533 235.986491 
L 545.863407 36.841818 
L 545.950103 235.986491 
L 546.340237 36.841818 
L 546.426933 235.986491 
L 546.860415 36.841818 
L 546.947111 235.986491 
L 547.553985 36.841818 
L 547.640681 235.986491 
L 548.074163 36.841818 
L 548.160859 235.986491 
L 548.767734 36.841818 
L 548.85443 235.986491 
L 549.244563 36.841818 
L 549.33126 235.986491 
L 549.764741 36.841818 
L 549.851438 235.986491 
L 550.458312 36.841818 
L 550.545008 235.986491 
L 550.97849 36.841818 
L 551.065186 235.986491 
L 551.67206 36.841818 
L 551.758757 235.986491 
L 552.14889 36.841818 
L 552.235586 235.986491 
L 552.697967 36.841818 
L 552.784663 235.986491 
L 553.391537 36.841818 
L 553.478234 235.986491 
L 553.911715 36.841818 
L 553.998412 235.986491 
L 554.605286 36.841818 
L 554.691982 235.986491 
L 555.082116 36.841818 
L 555.168812 235.986491 
L 555.602294 36.841818 
L 555.68899 235.986491 
L 556.295864 36.841818 
L 556.382561 235.986491 
L 556.816042 36.841818 
L 556.902738 235.986491 
L 557.509613 36.841818 
L 557.596309 235.986491 
L 557.986443 36.841818 
L 558.073139 235.986491 
L 558.50662 36.841818 
L 558.593317 235.986491 
L 559.200191 36.841818 
L 559.286887 235.986491 
L 559.749268 36.841818 
L 559.835964 235.986491 
L 560.442838 36.841818 
L 560.529535 235.986491 
L 560.919668 36.841818 
L 561.006364 235.986491 
L 561.439846 36.841818 
L 561.526542 235.986491 
L 562.133417 36.841818 
L 562.220113 235.986491 
L 562.653595 36.841818 
L 562.740291 235.986491 
L 563.347165 36.841818 
L 563.433861 235.986491 
L 563.823995 36.841818 
L 563.910691 235.986491 
L 564.344173 36.841818 
L 564.430869 235.986491 
L 565.037743 36.841818 
L 565.12444 235.986491 
L 565.557921 36.841818 
L 565.644618 235.986491 
L 566.251492 36.841818 
L 566.338188 235.986491 
L 566.728322 36.841818 
L 566.815018 235.986491 
L 567.277398 36.841818 
L 567.364095 235.986491 
L 567.970969 36.841818 
L 568.057665 235.986491 
L 568.491147 36.841818 
L 568.577843 235.986491 
L 569.184717 36.841818 
L 569.271414 235.986491 
L 569.661547 36.841818 
L 569.748244 235.986491 
L 570.181725 36.841818 
L 570.268421 235.986491 
L 570.875296 36.841818 
L 570.961992 235.986491 
L 571.395474 36.841818 
L 571.48217 235.986491 
L 572.089044 36.841818 
L 572.175741 235.986491 
L 572.565874 36.841818 
L 572.65257 235.986491 
L 573.086052 36.841818 
L 573.172748 235.986491 
L 573.779623 36.841818 
L 573.866319 235.986491 
L 574.328699 36.841818 
L 574.415396 235.986491 
L 575.02227 36.841818 
L 575.108966 235.986491 
L 575.4991 36.841818 
L 575.585796 235.986491 
L 576.019277 36.841818 
L 576.105974 235.986491 
L 576.712848 36.841818 
L 576.799544 235.986491 
L 577.233026 36.841818 
L 577.319722 235.986491 
L 577.926597 36.841818 
L 578.013293 235.986491 
L 578.403426 36.841818 
L 578.490123 235.986491 
L 578.923604 36.841818 
L 579.010301 235.986491 
L 579.617175 36.841818 
L 579.703871 235.986491 
L 580.137353 36.841818 
L 580.224049 235.986491 
L 580.830923 36.841818 
L 580.91762 235.986491 
L 581.307753 36.841818 
L 581.394449 235.986491 
L 581.85683 36.841818 
L 581.943526 235.986491 
L 582.5504 36.841818 
L 582.637097 235.986491 
L 583.070578 36.841818 
L 583.157275 235.986491 
L 583.764149 36.841818 
L 583.850845 235.986491 
L 584.240979 36.841818 
L 584.327675 235.986491 
L 584.761157 36.841818 
L 584.847853 235.986491 
L 585.454727 36.841818 
L 585.541424 235.986491 
L 585.974905 36.841818 
L 586.061601 235.986491 
L 586.668476 36.841818 
L 586.755172 235.986491 
L 587.145305 36.841818 
L 587.232002 235.986491 
L 587.665483 36.841818 
L 587.75218 235.986491 
L 588.359054 36.841818 
L 588.44575 235.986491 
L 588.908131 36.841818 
L 588.994827 235.986491 
L 589.601701 36.841818 
L 589.688398 235.986491 
L 590.078531 36.841818 
L 590.165227 235.986491 
L 590.598709 36.841818 
L 590.685405 235.986491 
L 591.29228 36.841818 
L 591.378976 235.986491 
L 591.812457 36.841818 
L 591.899154 235.986491 
L 592.506028 36.841818 
L 592.592724 235.986491 
L 592.982858 36.841818 
L 593.069554 235.986491 
L 593.503036 36.841818 
L 593.589732 235.986491 
L 594.196606 36.841818 
L 594.283303 235.986491 
L 594.716784 36.841818 
L 594.803481 235.986491 
L 595.410355 36.841818 
L 595.497051 235.986491 
L 595.887185 36.841818 
L 595.973881 235.986491 
L 596.436261 36.841818 
L 596.522958 235.986491 
L 597.129832 36.841818 
L 597.216528 235.986491 
L 597.65001 36.841818 
L 597.736706 235.986491 
L 598.34358 36.841818 
L 598.430277 235.986491 
L 598.82041 36.841818 
L 598.907107 235.986491 
L 599.340588 36.841818 
L 599.427284 235.986491 
L 600.034159 36.841818 
L 600.120855 235.986491 
L 600.554337 36.841818 
L 600.641033 235.986491 
L 601.247907 36.841818 
L 601.334604 235.986491 
L 601.724737 36.841818 
L 601.811433 235.986491 
L 602.244915 36.841818 
L 602.331611 235.986491 
L 602.938485 36.841818 
L 603.025182 235.986491 
L 603.487562 36.841818 
L 603.574259 235.986491 
L 604.181133 36.841818 
L 604.267829 235.986491 
L 604.657963 36.841818 
L 604.744659 235.986491 
L 605.17814 36.841818 
L 605.264837 235.986491 
L 605.871711 36.841818 
L 605.958407 235.986491 
L 606.391889 36.841818 
L 606.478585 235.986491 
L 607.08546 36.841818 
L 607.172156 235.986491 
L 607.562289 36.841818 
L 607.648986 235.986491 
L 608.082467 36.841818 
L 608.169164 235.986491 
L 608.776038 36.841818 
L 608.862734 235.986491 
L 609.296216 36.841818 
L 609.382912 235.986491 
L 609.989786 36.841818 
L 610.076483 235.986491 
L 610.466616 36.841818 
L 610.553312 235.986491 
L 610.986794 36.841818 
L 611.07349 235.986491 
L 611.651466 36.841818 
L 611.738162 235.986491 
L 612.200543 36.841818 
L 612.287239 235.986491 
L 613.081955 36.841818 
L 613.168651 235.986491 
L 613.529886 36.841818 
L 613.616582 235.986491 
L 614.064513 36.841818 
L 614.15121 235.986491 
L 614.945926 36.841818 
L 615.032622 235.986491 
L 615.509452 36.841818 
L 615.596148 235.986491 
L 616.882144 36.841818 
L 616.96884 235.986491 
L 617.358974 36.841818 
L 617.44567 235.986491 
L 617.893601 36.841818 
L 617.980297 235.986491 
L 618.601621 36.841818 
L 618.688317 235.986491 
L 619.33854 36.841818 
L 619.425236 235.986491 
L 620.003212 36.841818 
L 620.089908 235.986491 
L 620.494491 36.841818 
L 620.581187 235.986491 
L 621.202511 36.841818 
L 621.289207 235.986491 
L 624.641465 36.841818 
L 624.728161 235.986491 
L 625.161643 36.841818 
L 625.248339 235.986491 
L 625.855213 36.841818 
L 625.94191 235.986491 
L 626.332043 36.841818 
L 626.418739 235.986491 
L 626.852221 36.841818 
L 626.938917 235.986491 
L 627.545792 36.841818 
L 627.632488 235.986491 
L 628.065969 36.841818 
L 628.152666 235.986491 
L 628.75954 36.841818 
L 628.846236 235.986491 
L 629.23637 36.841818 
L 629.323066 235.986491 
L 629.785447 36.841818 
L 629.872143 235.986491 
L 630.479017 36.841818 
L 630.565713 235.986491 
L 630.999195 36.841818 
L 631.085891 235.986491 
L 631.692766 36.841818 
L 631.779462 235.986491 
L 632.169595 36.841818 
L 632.256292 235.986491 
L 632.689773 36.841818 
L 632.77647 235.986491 
L 633.383344 36.841818 
L 633.47004 235.986491 
L 633.903522 36.841818 
L 633.990218 235.986491 
L 634.597092 36.841818 
L 634.683789 235.986491 
L 635.073922 36.841818 
L 635.160619 235.986491 
L 635.5941 36.841818 
L 635.680796 235.986491 
L 636.287671 36.841818 
L 636.374367 235.986491 
L 636.836747 36.841818 
L 636.923444 235.986491 
L 637.530318 36.841818 
L 637.617014 235.986491 
L 638.007148 36.841818 
L 638.093844 235.986491 
L 638.527326 36.841818 
L 638.614022 235.986491 
L 639.220896 36.841818 
L 639.307593 235.986491 
L 639.741074 36.841818 
L 639.827771 235.986491 
L 640.434645 36.841818 
L 640.521341 235.986491 
L 640.911475 36.841818 
L 640.998171 235.986491 
L 641.431652 36.841818 
L 641.518349 235.986491 
L 642.125223 36.841818 
L 642.211919 235.986491 
L 642.645401 36.841818 
L 642.732097 235.986491 
L 643.338972 36.841818 
L 643.425668 235.986491 
L 643.815801 36.841818 
L 643.902498 235.986491 
L 644.364878 36.841818 
L 644.451574 235.986491 
L 645.058449 36.841818 
L 645.145145 235.986491 
L 645.578627 36.841818 
L 645.665323 235.986491 
L 646.272197 36.841818 
L 646.358893 235.986491 
L 646.749027 36.841818 
L 646.835723 235.986491 
L 647.269205 36.841818 
L 647.355901 235.986491 
L 647.962775 36.841818 
L 648.049472 235.986491 
L 648.482953 36.841818 
L 648.56965 235.986491 
L 649.176524 36.841818 
L 649.26322 235.986491 
L 649.653354 36.841818 
L 649.74005 235.986491 
L 650.173532 36.841818 
L 650.260228 235.986491 
L 650.867102 36.841818 
L 650.953799 235.986491 
L 651.416179 36.841818 
L 651.502875 235.986491 
L 652.109749 36.841818 
L 652.196446 235.986491 
L 652.586579 36.841818 
L 652.673276 235.986491 
L 653.106757 36.841818 
L 653.193453 235.986491 
L 653.800328 36.841818 
L 653.887024 235.986491 
L 654.320506 36.841818 
L 654.407202 235.986491 
L 655.014076 36.841818 
L 655.100773 235.986491 
L 655.490906 36.841818 
L 655.577602 235.986491 
L 656.011084 36.841818 
L 656.09778 235.986491 
L 656.704655 36.841818 
L 656.791351 235.986491 
L 657.224832 36.841818 
L 657.311529 235.986491 
L 657.918403 36.841818 
L 658.005099 235.986491 
L 658.395233 36.841818 
L 658.481929 235.986491 
L 658.94431 36.841818 
L 659.031006 235.986491 
L 659.63788 36.841818 
L 659.724576 235.986491 
L 660.158058 36.841818 
L 660.244754 235.986491 
L 660.851629 36.841818 
L 660.938325 235.986491 
L 661.328458 36.841818 
L 661.415155 235.986491 
L 661.848636 36.841818 
L 661.935333 235.986491 
L 662.542207 36.841818 
L 662.628903 235.986491 
L 663.062385 36.841818 
L 663.149081 235.986491 
L 663.755955 36.841818 
L 663.842652 235.986491 
L 664.232785 36.841818 
L 664.319481 235.986491 
L 664.752963 36.841818 
L 664.839659 235.986491 
L 665.446534 36.841818 
L 665.53323 235.986491 
L 665.99561 36.841818 
L 666.082307 235.986491 
L 666.689181 36.841818 
L 666.775877 235.986491 
L 667.166011 36.841818 
L 667.252707 235.986491 
L 667.686189 36.841818 
L 667.772885 235.986491 
L 668.379759 36.841818 
L 668.466456 235.986491 
L 668.899937 36.841818 
L 668.986633 235.986491 
L 669.593508 36.841818 
L 669.680204 235.986491 
L 670.070338 36.841818 
L 670.157034 235.986491 
L 670.590515 36.841818 
L 670.677212 235.986491 
L 671.284086 36.841818 
L 671.370782 235.986491 
L 671.804264 36.841818 
L 671.89096 235.986491 
L 672.497835 36.841818 
L 672.584531 235.986491 
L 672.974664 36.841818 
L 673.061361 235.986491 
L 673.523741 36.841818 
L 673.610437 235.986491 
L 674.217312 36.841818 
L 674.304008 235.986491 
L 674.73749 36.841818 
L 674.824186 235.986491 
L 675.43106 36.841818 
L 675.517756 235.986491 
L 675.90789 36.841818 
L 675.994586 235.986491 
L 676.428068 36.841818 
L 676.514764 235.986491 
L 677.121638 36.841818 
L 677.208335 235.986491 
L 677.641816 36.841818 
L 677.728513 235.986491 
L 678.335387 36.841818 
L 678.422083 235.986491 
L 678.812217 36.841818 
L 678.898913 235.986491 
L 679.332395 36.841818 
L 679.419091 235.986491 
L 679.419091 235.986491 
" clip-path="url(#pcfb14cbe06)" style="fill: none; stroke: #1f77b4; stroke-width: 1.5; stroke-linecap: square"/>
   </g>
   <g id="patch_3">
    <path d="M 54.02 246.04 
L 54.02 26.88 
" style="fill: none; stroke: #000000; stroke-width: 0.8; stroke-linejoin: miter; stroke-linecap: square"/>
   </g>
   <g id="patch_4">
    <path d="M 709.2 246.04 
L 709.2 26.88 
" style="fill: none; stroke: #000000; stroke-width: 0.8; stroke-linejoin: miter; stroke-linecap: square"/>
   </g>
   <g id="patch_5">
    <path d="M 54.02 246.04 
L 709.2 246.04 
" style="fill: none; stroke: #000000; stroke-width: 0.8; stroke-linejoin: miter; stroke-linecap: square"/>
   </g>
   <g id="patch_6">
    <path d="M 54.02 26.88 
L 709.2 26.88 
" style="fill: none; stroke: #000000; stroke-width: 0.8; stroke-linejoin: miter; stroke-linecap: square"/>
   </g>
   <g id="text_14">
    <!-- queueLength:vector (HandoverShowcase.ap2.wlan[0].mac.dcf.channelAccess.inProgressFrames) -->
    <g transform="translate(91.233438 20.88) scale(0.12 -0.12)">
     <defs>
      <path id="DejaVuSans-71" d="M 947 1747 
Q 947 1113 1208 752 
Q 1469 391 1925 391 
Q 2381 391 2643 752 
Q 2906 1113 2906 1747 
Q 2906 2381 2643 2742 
Q 2381 3103 1925 3103 
Q 1469 3103 1208 2742 
Q 947 2381 947 1747 
z
M 2906 525 
Q 2725 213 2448 61 
Q 2172 -91 1784 -91 
Q 1150 -91 751 415 
Q 353 922 353 1747 
Q 353 2572 751 3078 
Q 1150 3584 1784 3584 
Q 2172 3584 2448 3432 
Q 2725 3281 2906 2969 
L 2906 3500 
L 3481 3500 
L 3481 -1331 
L 2906 -1331 
L 2906 525 
z
" transform="scale(0.015625)"/>
      <path id="DejaVuSans-4c" d="M 628 4666 
L 1259 4666 
L 1259 531 
L 3531 531 
L 3531 0 
L 628 0 
L 628 4666 
z
" transform="scale(0.015625)"/>
      <path id="DejaVuSans-6e" d="M 3513 2113 
L 3513 0 
L 2938 0 
L 2938 2094 
Q 2938 2591 2744 2837 
Q 2550 3084 2163 3084 
Q 1697 3084 1428 2787 
Q 1159 2491 1159 1978 
L 1159 0 
L 581 0 
L 581 3500 
L 1159 3500 
L 1159 2956 
Q 1366 3272 1645 3428 
Q 1925 3584 2291 3584 
Q 2894 3584 3203 3211 
Q 3513 2838 3513 2113 
z
" transform="scale(0.015625)"/>
      <path id="DejaVuSans-67" d="M 2906 1791 
Q 2906 2416 2648 2759 
Q 2391 3103 1925 3103 
Q 1463 3103 1205 2759 
Q 947 2416 947 1791 
Q 947 1169 1205 825 
Q 1463 481 1925 481 
Q 2391 481 2648 825 
Q 2906 1169 2906 1791 
z
M 3481 434 
Q 3481 -459 3084 -895 
Q 2688 -1331 1869 -1331 
Q 1566 -1331 1297 -1286 
Q 1028 -1241 775 -1147 
L 775 -588 
Q 1028 -725 1275 -790 
Q 1522 -856 1778 -856 
Q 2344 -856 2625 -561 
Q 2906 -266 2906 331 
L 2906 616 
Q 2728 306 2450 153 
Q 2172 0 1784 0 
Q 1141 0 747 490 
Q 353 981 353 1791 
Q 353 2603 747 3093 
Q 1141 3584 1784 3584 
Q 2172 3584 2450 3431 
Q 2728 3278 2906 2969 
L 2906 3500 
L 3481 3500 
L 3481 434 
z
" transform="scale(0.015625)"/>
      <path id="DejaVuSans-68" d="M 3513 2113 
L 3513 0 
L 2938 0 
L 2938 2094 
Q 2938 2591 2744 2837 
Q 2550 3084 2163 3084 
Q 1697 3084 1428 2787 
Q 1159 2491 1159 1978 
L 1159 0 
L 581 0 
L 581 4863 
L 1159 4863 
L 1159 2956 
Q 1366 3272 1645 3428 
Q 1925 3584 2291 3584 
Q 2894 3584 3203 3211 
Q 3513 2838 3513 2113 
z
" transform="scale(0.015625)"/>
      <path id="DejaVuSans-3a" d="M 750 794 
L 1409 794 
L 1409 0 
L 750 0 
L 750 794 
z
M 750 3309 
L 1409 3309 
L 1409 2516 
L 750 2516 
L 750 3309 
z
" transform="scale(0.015625)"/>
      <path id="DejaVuSans-76" d="M 191 3500 
L 800 3500 
L 1894 563 
L 2988 3500 
L 3597 3500 
L 2284 0 
L 1503 0 
L 191 3500 
z
" transform="scale(0.015625)"/>
      <path id="DejaVuSans-63" d="M 3122 3366 
L 3122 2828 
Q 2878 2963 2633 3030 
Q 2388 3097 2138 3097 
Q 1578 3097 1268 2742 
Q 959 2388 959 1747 
Q 959 1106 1268 751 
Q 1578 397 2138 397 
Q 2388 397 2633 464 
Q 2878 531 3122 666 
L 3122 134 
Q 2881 22 2623 -34 
Q 2366 -91 2075 -91 
Q 1284 -91 818 406 
Q 353 903 353 1747 
Q 353 2603 823 3093 
Q 1294 3584 2113 3584 
Q 2378 3584 2631 3529 
Q 2884 3475 3122 3366 
z
" transform="scale(0.015625)"/>
      <path id="DejaVuSans-6f" d="M 1959 3097 
Q 1497 3097 1228 2736 
Q 959 2375 959 1747 
Q 959 1119 1226 758 
Q 1494 397 1959 397 
Q 2419 397 2687 759 
Q 2956 1122 2956 1747 
Q 2956 2369 2687 2733 
Q 2419 3097 1959 3097 
z
M 1959 3584 
Q 2709 3584 3137 3096 
Q 3566 2609 3566 1747 
Q 3566 888 3137 398 
Q 2709 -91 1959 -91 
Q 1206 -91 779 398 
Q 353 888 353 1747 
Q 353 2609 779 3096 
Q 1206 3584 1959 3584 
z
" transform="scale(0.015625)"/>
      <path id="DejaVuSans-72" d="M 2631 2963 
Q 2534 3019 2420 3045 
Q 2306 3072 2169 3072 
Q 1681 3072 1420 2755 
Q 1159 2438 1159 1844 
L 1159 0 
L 581 0 
L 581 3500 
L 1159 3500 
L 1159 2956 
Q 1341 3275 1631 3429 
Q 1922 3584 2338 3584 
Q 2397 3584 2469 3576 
Q 2541 3569 2628 3553 
L 2631 2963 
z
" transform="scale(0.015625)"/>
      <path id="DejaVuSans-48" d="M 628 4666 
L 1259 4666 
L 1259 2753 
L 3553 2753 
L 3553 4666 
L 4184 4666 
L 4184 0 
L 3553 0 
L 3553 2222 
L 1259 2222 
L 1259 0 
L 628 0 
L 628 4666 
z
" transform="scale(0.015625)"/>
      <path id="DejaVuSans-64" d="M 2906 2969 
L 2906 4863 
L 3481 4863 
L 3481 0 
L 2906 0 
L 2906 525 
Q 2725 213 2448 61 
Q 2172 -91 1784 -91 
Q 1150 -91 751 415 
Q 353 922 353 1747 
Q 353 2572 751 3078 
Q 1150 3584 1784 3584 
Q 2172 3584 2448 3432 
Q 2725 3281 2906 2969 
z
M 947 1747 
Q 947 1113 1208 752 
Q 1469 391 1925 391 
Q 2381 391 2643 752 
Q 2906 1113 2906 1747 
Q 2906 2381 2643 2742 
Q 2381 3103 1925 3103 
Q 1469 3103 1208 2742 
Q 947 2381 947 1747 
z
" transform="scale(0.015625)"/>
      <path id="DejaVuSans-53" d="M 3425 4513 
L 3425 3897 
Q 3066 4069 2747 4153 
Q 2428 4238 2131 4238 
Q 1616 4238 1336 4038 
Q 1056 3838 1056 3469 
Q 1056 3159 1242 3001 
Q 1428 2844 1947 2747 
L 2328 2669 
Q 3034 2534 3370 2195 
Q 3706 1856 3706 1288 
Q 3706 609 3251 259 
Q 2797 -91 1919 -91 
Q 1588 -91 1214 -16 
Q 841 59 441 206 
L 441 856 
Q 825 641 1194 531 
Q 1563 422 1919 422 
Q 2459 422 2753 634 
Q 3047 847 3047 1241 
Q 3047 1584 2836 1778 
Q 2625 1972 2144 2069 
L 1759 2144 
Q 1053 2284 737 2584 
Q 422 2884 422 3419 
Q 422 4038 858 4394 
Q 1294 4750 2059 4750 
Q 2388 4750 2728 4690 
Q 3069 4631 3425 4513 
z
" transform="scale(0.015625)"/>
      <path id="DejaVuSans-77" d="M 269 3500 
L 844 3500 
L 1563 769 
L 2278 3500 
L 2956 3500 
L 3675 769 
L 4391 3500 
L 4966 3500 
L 4050 0 
L 3372 0 
L 2619 2869 
L 1863 0 
L 1184 0 
L 269 3500 
z
" transform="scale(0.015625)"/>
      <path id="DejaVuSans-70" d="M 1159 525 
L 1159 -1331 
L 581 -1331 
L 581 3500 
L 1159 3500 
L 1159 2969 
Q 1341 3281 1617 3432 
Q 1894 3584 2278 3584 
Q 2916 3584 3314 3078 
Q 3713 2572 3713 1747 
Q 3713 922 3314 415 
Q 2916 -91 2278 -91 
Q 1894 -91 1617 61 
Q 1341 213 1159 525 
z
M 3116 1747 
Q 3116 2381 2855 2742 
Q 2594 3103 2138 3103 
Q 1681 3103 1420 2742 
Q 1159 2381 1159 1747 
Q 1159 1113 1420 752 
Q 1681 391 2138 391 
Q 2594 391 2855 752 
Q 3116 1113 3116 1747 
z
" transform="scale(0.015625)"/>
      <path id="DejaVuSans-5b" d="M 550 4863 
L 1875 4863 
L 1875 4416 
L 1125 4416 
L 1125 -397 
L 1875 -397 
L 1875 -844 
L 550 -844 
L 550 4863 
z
" transform="scale(0.015625)"/>
      <path id="DejaVuSans-5d" d="M 1947 4863 
L 1947 -844 
L 622 -844 
L 622 -397 
L 1369 -397 
L 1369 4416 
L 622 4416 
L 622 4863 
L 1947 4863 
z
" transform="scale(0.015625)"/>
      <path id="DejaVuSans-66" d="M 2375 4863 
L 2375 4384 
L 1825 4384 
Q 1516 4384 1395 4259 
Q 1275 4134 1275 3809 
L 1275 3500 
L 2222 3500 
L 2222 3053 
L 1275 3053 
L 1275 0 
L 697 0 
L 697 3053 
L 147 3053 
L 147 3500 
L 697 3500 
L 697 3744 
Q 697 4328 969 4595 
Q 1241 4863 1831 4863 
L 2375 4863 
z
" transform="scale(0.015625)"/>
      <path id="DejaVuSans-41" d="M 2188 4044 
L 1331 1722 
L 3047 1722 
L 2188 4044 
z
M 1831 4666 
L 2547 4666 
L 4325 0 
L 3669 0 
L 3244 1197 
L 1141 1197 
L 716 0 
L 50 0 
L 1831 4666 
z
" transform="scale(0.015625)"/>
      <path id="DejaVuSans-50" d="M 1259 4147 
L 1259 2394 
L 2053 2394 
Q 2494 2394 2734 2622 
Q 2975 2850 2975 3272 
Q 2975 3691 2734 3919 
Q 2494 4147 2053 4147 
L 1259 4147 
z
M 628 4666 
L 2053 4666 
Q 2838 4666 3239 4311 
Q 3641 3956 3641 3272 
Q 3641 2581 3239 2228 
Q 2838 1875 2053 1875 
L 1259 1875 
L 1259 0 
L 628 0 
L 628 4666 
z
" transform="scale(0.015625)"/>
      <path id="DejaVuSans-46" d="M 628 4666 
L 3309 4666 
L 3309 4134 
L 1259 4134 
L 1259 2759 
L 3109 2759 
L 3109 2228 
L 1259 2228 
L 1259 0 
L 628 0 
L 628 4666 
z
" transform="scale(0.015625)"/>
     </defs>
     <use xlink:href="#DejaVuSans-71"/>
     <use xlink:href="#DejaVuSans-75" x="63.476562"/>
     <use xlink:href="#DejaVuSans-65" x="126.855469"/>
     <use xlink:href="#DejaVuSans-75" x="188.378906"/>
     <use xlink:href="#DejaVuSans-65" x="251.757812"/>
     <use xlink:href="#DejaVuSans-4c" x="313.28125"/>
     <use xlink:href="#DejaVuSans-65" x="367.244141"/>
     <use xlink:href="#DejaVuSans-6e" x="428.767578"/>
     <use xlink:href="#DejaVuSans-67" x="492.146484"/>
     <use xlink:href="#DejaVuSans-74" x="555.623047"/>
     <use xlink:href="#DejaVuSans-68" x="594.832031"/>
     <use xlink:href="#DejaVuSans-3a" x="658.210938"/>
     <use xlink:href="#DejaVuSans-76" x="691.902344"/>
     <use xlink:href="#DejaVuSans-65" x="751.082031"/>
     <use xlink:href="#DejaVuSans-63" x="812.605469"/>
     <use xlink:href="#DejaVuSans-74" x="867.585938"/>
     <use xlink:href="#DejaVuSans-6f" x="906.794922"/>
     <use xlink:href="#DejaVuSans-72" x="967.976562"/>
     <use xlink:href="#DejaVuSans-20" x="1009.089844"/>
     <use xlink:href="#DejaVuSans-28" x="1040.876953"/>
     <use xlink:href="#DejaVuSans-48" x="1079.890625"/>
     <use xlink:href="#DejaVuSans-61" x="1155.085938"/>
     <use xlink:href="#DejaVuSans-6e" x="1216.365234"/>
     <use xlink:href="#DejaVuSans-64" x="1279.744141"/>
     <use xlink:href="#DejaVuSans-6f" x="1343.220703"/>
     <use xlink:href="#DejaVuSans-76" x="1404.402344"/>
     <use xlink:href="#DejaVuSans-65" x="1463.582031"/>
     <use xlink:href="#DejaVuSans-72" x="1525.105469"/>
     <use xlink:href="#DejaVuSans-53" x="1566.21875"/>
     <use xlink:href="#DejaVuSans-68" x="1629.695312"/>
     <use xlink:href="#DejaVuSans-6f" x="1693.074219"/>
     <use xlink:href="#DejaVuSans-77" x="1754.255859"/>
     <use xlink:href="#DejaVuSans-63" x="1836.042969"/>
     <use xlink:href="#DejaVuSans-61" x="1891.023438"/>
     <use xlink:href="#DejaVuSans-73" x="1952.302734"/>
     <use xlink:href="#DejaVuSans-65" x="2004.402344"/>
     <use xlink:href="#DejaVuSans-2e" x="2065.925781"/>
     <use xlink:href="#DejaVuSans-61" x="2097.712891"/>
     <use xlink:href="#DejaVuSans-70" x="2158.992188"/>
     <use xlink:href="#DejaVuSans-32" x="2222.46875"/>
     <use xlink:href="#DejaVuSans-2e" x="2286.091797"/>
     <use xlink:href="#DejaVuSans-77" x="2317.878906"/>
     <use xlink:href="#DejaVuSans-6c" x="2399.666016"/>
     <use xlink:href="#DejaVuSans-61" x="2427.449219"/>
     <use xlink:href="#DejaVuSans-6e" x="2488.728516"/>
     <use xlink:href="#DejaVuSans-5b" x="2552.107422"/>
     <use xlink:href="#DejaVuSans-30" x="2591.121094"/>
     <use xlink:href="#DejaVuSans-5d" x="2654.744141"/>
     <use xlink:href="#DejaVuSans-2e" x="2693.757812"/>
     <use xlink:href="#DejaVuSans-6d" x="2725.544922"/>
     <use xlink:href="#DejaVuSans-61" x="2822.957031"/>
     <use xlink:href="#DejaVuSans-63" x="2884.236328"/>
     <use xlink:href="#DejaVuSans-2e" x="2939.216797"/>
     <use xlink:href="#DejaVuSans-64" x="2971.003906"/>
     <use xlink:href="#DejaVuSans-63" x="3034.480469"/>
     <use xlink:href="#DejaVuSans-66" x="3089.460938"/>
     <use xlink:href="#DejaVuSans-2e" x="3117.416016"/>
     <use xlink:href="#DejaVuSans-63" x="3149.203125"/>
     <use xlink:href="#DejaVuSans-68" x="3204.183594"/>
     <use xlink:href="#DejaVuSans-61" x="3267.5625"/>
     <use xlink:href="#DejaVuSans-6e" x="3328.841797"/>
     <use xlink:href="#DejaVuSans-6e" x="3392.220703"/>
     <use xlink:href="#DejaVuSans-65" x="3455.599609"/>
     <use xlink:href="#DejaVuSans-6c" x="3517.123047"/>
     <use xlink:href="#DejaVuSans-41" x="3544.90625"/>
     <use xlink:href="#DejaVuSans-63" x="3611.564453"/>
     <use xlink:href="#DejaVuSans-63" x="3666.544922"/>
     <use xlink:href="#DejaVuSans-65" x="3721.525391"/>
     <use xlink:href="#DejaVuSans-73" x="3783.048828"/>
     <use xlink:href="#DejaVuSans-73" x="3835.148438"/>
     <use xlink:href="#DejaVuSans-2e" x="3887.248047"/>
     <use xlink:href="#DejaVuSans-69" x="3919.035156"/>
     <use xlink:href="#DejaVuSans-6e" x="3946.818359"/>
     <use xlink:href="#DejaVuSans-50" x="4010.197266"/>
     <use xlink:href="#DejaVuSans-72" x="4068.75"/>
     <use xlink:href="#DejaVuSans-6f" x="4107.613281"/>
     <use xlink:href="#DejaVuSans-67" x="4168.794922"/>
     <use xlink:href="#DejaVuSans-72" x="4232.271484"/>
     <use xlink:href="#DejaVuSans-65" x="4271.134766"/>
     <use xlink:href="#DejaVuSans-73" x="4332.658203"/>
     <use xlink:href="#DejaVuSans-73" x="4384.757812"/>
     <use xlink:href="#DejaVuSans-46" x="4436.857422"/>
     <use xlink:href="#DejaVuSans-72" x="4487.126953"/>
     <use xlink:href="#DejaVuSans-61" x="4528.240234"/>
     <use xlink:href="#DejaVuSans-6d" x="4589.519531"/>
     <use xlink:href="#DejaVuSans-65" x="4686.931641"/>
     <use xlink:href="#DejaVuSans-73" x="4748.455078"/>
     <use xlink:href="#DejaVuSans-29" x="4800.554688"/>
    </g>
   </g>
   <g id="legend_1">
    <g id="patch_7">
     <path d="M 576.717188 145.299062 
L 702.2 145.299062 
Q 704.2 145.299062 704.2 143.299062 
L 704.2 129.620937 
Q 704.2 127.620937 702.2 127.620937 
L 576.717188 127.620937 
Q 574.717188 127.620937 574.717188 129.620937 
L 574.717188 143.299062 
Q 574.717188 145.299062 576.717188 145.299062 
z
" style="fill: #ffffff; opacity: 0.8; stroke: #cccccc; stroke-linejoin: miter"/>
    </g>
    <g id="line2d_24">
     <path d="M 578.717188 135.719375 
L 588.717188 135.719375 
L 598.717188 135.719375 
" style="fill: none; stroke: #1f77b4; stroke-width: 1.5; stroke-linecap: square"/>
    </g>
    <g id="text_15">
     <!-- value per sample -->
     <g transform="translate(606.717188 139.219375) scale(0.1 -0.1)">
      <defs>
       <path id="DejaVuSans-394" d="M 2188 4044 
L 906 525 
L 3472 525 
L 2188 4044 
z
M 50 0 
L 1831 4666 
L 2547 4666 
L 4325 0 
L 50 0 
z
" transform="scale(0.015625)"/>
      </defs>
      <use xlink:href="#DejaVuSans-394"/>
      <use xlink:href="#DejaVuSans-76" x="68.408203"/>
      <use xlink:href="#DejaVuSans-61" x="127.587891"/>
      <use xlink:href="#DejaVuSans-6c" x="188.867188"/>
      <use xlink:href="#DejaVuSans-75" x="216.650391"/>
      <use xlink:href="#DejaVuSans-65" x="280.029297"/>
      <use xlink:href="#DejaVuSans-20" x="341.552734"/>
      <use xlink:href="#DejaVuSans-70" x="373.339844"/>
      <use xlink:href="#DejaVuSans-65" x="436.816406"/>
      <use xlink:href="#DejaVuSans-72" x="498.339844"/>
      <use xlink:href="#DejaVuSans-20" x="539.453125"/>
      <use xlink:href="#DejaVuSans-73" x="571.240234"/>
      <use xlink:href="#DejaVuSans-61" x="623.339844"/>
      <use xlink:href="#DejaVuSans-6d" x="684.619141"/>
      <use xlink:href="#DejaVuSans-70" x="782.03125"/>
      <use xlink:href="#DejaVuSans-6c" x="845.507812"/>
      <use xlink:href="#DejaVuSans-65" x="873.291016"/>
     </g>
    </g>
   </g>
  </g>
 </g>
 <defs>
  <clipPath id="pcfb14cbe06">
   <rect x="54.02" y="26.88" width="655.18" height="219.16"/>
  </clipPath>
 </defs>
</svg>
