<?xml version="1.0" encoding="utf-8" standalone="no"?>
<!DOCTYPE svg PUBLIC "-//W3C//DTD SVG 1.1//EN"
  "http://www.w3.org/Graphics/SVG/1.1/DTD/svg11.dtd">
<svg xmlns:xlink="http://www.w3.org/1999/xlink" width="720pt" height="288pt" viewBox="0 0 720 288" xmlns="http://www.w3.org/2000/svg" version="1.1">
 <metadata>
  <rdf:RDF xmlns:dc="http://purl.org/dc/elements/1.1/" xmlns:cc="http://creativecommons.org/ns#" xmlns:rdf="http://www.w3.org/1999/02/22-rdf-syntax-ns#">
   <cc:Work>
    <dc:type rdf:resource="http://purl.org/dc/dcmitype/StillImage"/>
    <dc:date>2025-07-27T15:08:52.133474</dc:date>
    <dc:format>image/svg+xml</dc:format>
    <dc:creator>
     <cc:Agent>
      <dc:title>Matplotlib v3.9.2, https://matplotlib.org/</dc:title>
     </cc:Agent>
    </dc:creator>
   </cc:Work>
  </rdf:RDF>
 </metadata>
 <defs>
  <style type="text/css">*{stroke-linejoin: round; stroke-linecap: butt}</style>
 </defs>
 <g id="figure_1">
  <g id="patch_1">
   <path d="M 0 288 
L 720 288 
L 720 0 
L 0 0 
z
" style="fill: #ffffff"/>
  </g>
  <g id="axes_1">
   <g id="patch_2">
    <path d="M 54.02 246.04 
L 709.2 246.04 
L 709.2 26.88 
L 54.02 26.88 
z
" style="fill: #ffffff"/>
   </g>
   <g id="matplotlib.axis_1">
    <g id="xtick_1">
     <g id="line2d_1">
      <path d="M 83.728655 246.04 
L 83.728655 26.88 
" clip-path="url(#pd5f375b7c3)" style="fill: none; stroke: #b0b0b0; stroke-width: 0.8; stroke-linecap: square"/>
     </g>
     <g id="line2d_2">
      <defs>
       <path id="m6e155b5ba3" d="M 0 0 
L 0 3.5 
" style="stroke: #000000; stroke-width: 0.8"/>
      </defs>
      <g>
       <use xlink:href="#m6e155b5ba3" x="83.728655" y="246.04" style="stroke: #000000; stroke-width: 0.8"/>
      </g>
     </g>
     <g id="text_1">
      <!-- 0 -->
      <g transform="translate(80.547405 260.638438) scale(0.1 -0.1)">
       <defs>
        <path id="DejaVuSans-30" d="M 2034 4250 
Q 1547 4250 1301 3770 
Q 1056 3291 1056 2328 
Q 1056 1369 1301 889 
Q 1547 409 2034 409 
Q 2525 409 2770 889 
Q 3016 1369 3016 2328 
Q 3016 3291 2770 3770 
Q 2525 4250 2034 4250 
z
M 2034 4750 
Q 2819 4750 3233 4129 
Q 3647 3509 3647 2328 
Q 3647 1150 3233 529 
Q 2819 -91 2034 -91 
Q 1250 -91 836 529 
Q 422 1150 422 2328 
Q 422 3509 836 4129 
Q 1250 4750 2034 4750 
z
" transform="scale(0.015625)"/>
       </defs>
       <use xlink:href="#DejaVuSans-30"/>
      </g>
     </g>
    </g>
    <g id="xtick_2">
     <g id="line2d_3">
      <path d="M 228.236548 246.04 
L 228.236548 26.88 
" clip-path="url(#pd5f375b7c3)" style="fill: none; stroke: #b0b0b0; stroke-width: 0.8; stroke-linecap: square"/>
     </g>
     <g id="line2d_4">
      <g>
       <use xlink:href="#m6e155b5ba3" x="228.236548" y="246.04" style="stroke: #000000; stroke-width: 0.8"/>
      </g>
     </g>
     <g id="text_2">
      <!-- 10000 -->
      <g transform="translate(212.330298 260.638438) scale(0.1 -0.1)">
       <defs>
        <path id="DejaVuSans-31" d="M 794 531 
L 1825 531 
L 1825 4091 
L 703 3866 
L 703 4441 
L 1819 4666 
L 2450 4666 
L 2450 531 
L 3481 531 
L 3481 0 
L 794 0 
L 794 531 
z
" transform="scale(0.015625)"/>
       </defs>
       <use xlink:href="#DejaVuSans-31"/>
       <use xlink:href="#DejaVuSans-30" x="63.623047"/>
       <use xlink:href="#DejaVuSans-30" x="127.246094"/>
       <use xlink:href="#DejaVuSans-30" x="190.869141"/>
       <use xlink:href="#DejaVuSans-30" x="254.492188"/>
      </g>
     </g>
    </g>
    <g id="xtick_3">
     <g id="line2d_5">
      <path d="M 372.744441 246.04 
L 372.744441 26.88 
" clip-path="url(#pd5f375b7c3)" style="fill: none; stroke: #b0b0b0; stroke-width: 0.8; stroke-linecap: square"/>
     </g>
     <g id="line2d_6">
      <g>
       <use xlink:href="#m6e155b5ba3" x="372.744441" y="246.04" style="stroke: #000000; stroke-width: 0.8"/>
      </g>
     </g>
     <g id="text_3">
      <!-- 20000 -->
      <g transform="translate(356.838191 260.638438) scale(0.1 -0.1)">
       <defs>
        <path id="DejaVuSans-32" d="M 1228 531 
L 3431 531 
L 3431 0 
L 469 0 
L 469 531 
Q 828 903 1448 1529 
Q 2069 2156 2228 2338 
Q 2531 2678 2651 2914 
Q 2772 3150 2772 3378 
Q 2772 3750 2511 3984 
Q 2250 4219 1831 4219 
Q 1534 4219 1204 4116 
Q 875 4013 500 3803 
L 500 4441 
Q 881 4594 1212 4672 
Q 1544 4750 1819 4750 
Q 2544 4750 2975 4387 
Q 3406 4025 3406 3419 
Q 3406 3131 3298 2873 
Q 3191 2616 2906 2266 
Q 2828 2175 2409 1742 
Q 1991 1309 1228 531 
z
" transform="scale(0.015625)"/>
       </defs>
       <use xlink:href="#DejaVuSans-32"/>
       <use xlink:href="#DejaVuSans-30" x="63.623047"/>
       <use xlink:href="#DejaVuSans-30" x="127.246094"/>
       <use xlink:href="#DejaVuSans-30" x="190.869141"/>
       <use xlink:href="#DejaVuSans-30" x="254.492188"/>
      </g>
     </g>
    </g>
    <g id="xtick_4">
     <g id="line2d_7">
      <path d="M 517.252334 246.04 
L 517.252334 26.88 
" clip-path="url(#pd5f375b7c3)" style="fill: none; stroke: #b0b0b0; stroke-width: 0.8; stroke-linecap: square"/>
     </g>
     <g id="line2d_8">
      <g>
       <use xlink:href="#m6e155b5ba3" x="517.252334" y="246.04" style="stroke: #000000; stroke-width: 0.8"/>
      </g>
     </g>
     <g id="text_4">
      <!-- 30000 -->
      <g transform="translate(501.346084 260.638438) scale(0.1 -0.1)">
       <defs>
        <path id="DejaVuSans-33" d="M 2597 2516 
Q 3050 2419 3304 2112 
Q 3559 1806 3559 1356 
Q 3559 666 3084 287 
Q 2609 -91 1734 -91 
Q 1441 -91 1130 -33 
Q 819 25 488 141 
L 488 750 
Q 750 597 1062 519 
Q 1375 441 1716 441 
Q 2309 441 2620 675 
Q 2931 909 2931 1356 
Q 2931 1769 2642 2001 
Q 2353 2234 1838 2234 
L 1294 2234 
L 1294 2753 
L 1863 2753 
Q 2328 2753 2575 2939 
Q 2822 3125 2822 3475 
Q 2822 3834 2567 4026 
Q 2313 4219 1838 4219 
Q 1578 4219 1281 4162 
Q 984 4106 628 3988 
L 628 4550 
Q 988 4650 1302 4700 
Q 1616 4750 1894 4750 
Q 2613 4750 3031 4423 
Q 3450 4097 3450 3541 
Q 3450 3153 3228 2886 
Q 3006 2619 2597 2516 
z
" transform="scale(0.015625)"/>
       </defs>
       <use xlink:href="#DejaVuSans-33"/>
       <use xlink:href="#DejaVuSans-30" x="63.623047"/>
       <use xlink:href="#DejaVuSans-30" x="127.246094"/>
       <use xlink:href="#DejaVuSans-30" x="190.869141"/>
       <use xlink:href="#DejaVuSans-30" x="254.492188"/>
      </g>
     </g>
    </g>
    <g id="xtick_5">
     <g id="line2d_9">
      <path d="M 661.760226 246.04 
L 661.760226 26.88 
" clip-path="url(#pd5f375b7c3)" style="fill: none; stroke: #b0b0b0; stroke-width: 0.8; stroke-linecap: square"/>
     </g>
     <g id="line2d_10">
      <g>
       <use xlink:href="#m6e155b5ba3" x="661.760226" y="246.04" style="stroke: #000000; stroke-width: 0.8"/>
      </g>
     </g>
     <g id="text_5">
      <!-- 40000 -->
      <g transform="translate(645.853976 260.638438) scale(0.1 -0.1)">
       <defs>
        <path id="DejaVuSans-34" d="M 2419 4116 
L 825 1625 
L 2419 1625 
L 2419 4116 
z
M 2253 4666 
L 3047 4666 
L 3047 1625 
L 3713 1625 
L 3713 1100 
L 3047 1100 
L 3047 0 
L 2419 0 
L 2419 1100 
L 313 1100 
L 313 1709 
L 2253 4666 
z
" transform="scale(0.015625)"/>
       </defs>
       <use xlink:href="#DejaVuSans-34"/>
       <use xlink:href="#DejaVuSans-30" x="63.623047"/>
       <use xlink:href="#DejaVuSans-30" x="127.246094"/>
       <use xlink:href="#DejaVuSans-30" x="190.869141"/>
       <use xlink:href="#DejaVuSans-30" x="254.492188"/>
      </g>
     </g>
    </g>
    <g id="text_6">
     <!-- Time (s) -->
     <g transform="translate(361.281094 274.316562) scale(0.1 -0.1)">
      <defs>
       <path id="DejaVuSans-54" d="M -19 4666 
L 3928 4666 
L 3928 4134 
L 2272 4134 
L 2272 0 
L 1638 0 
L 1638 4134 
L -19 4134 
L -19 4666 
z
" transform="scale(0.015625)"/>
       <path id="DejaVuSans-69" d="M 603 3500 
L 1178 3500 
L 1178 0 
L 603 0 
L 603 3500 
z
M 603 4863 
L 1178 4863 
L 1178 4134 
L 603 4134 
L 603 4863 
z
" transform="scale(0.015625)"/>
       <path id="DejaVuSans-6d" d="M 3328 2828 
Q 3544 3216 3844 3400 
Q 4144 3584 4550 3584 
Q 5097 3584 5394 3201 
Q 5691 2819 5691 2113 
L 5691 0 
L 5113 0 
L 5113 2094 
Q 5113 2597 4934 2840 
Q 4756 3084 4391 3084 
Q 3944 3084 3684 2787 
Q 3425 2491 3425 1978 
L 3425 0 
L 2847 0 
L 2847 2094 
Q 2847 2600 2669 2842 
Q 2491 3084 2119 3084 
Q 1678 3084 1418 2786 
Q 1159 2488 1159 1978 
L 1159 0 
L 581 0 
L 581 3500 
L 1159 3500 
L 1159 2956 
Q 1356 3278 1631 3431 
Q 1906 3584 2284 3584 
Q 2666 3584 2933 3390 
Q 3200 3197 3328 2828 
z
" transform="scale(0.015625)"/>
       <path id="DejaVuSans-65" d="M 3597 1894 
L 3597 1613 
L 953 1613 
Q 991 1019 1311 708 
Q 1631 397 2203 397 
Q 2534 397 2845 478 
Q 3156 559 3463 722 
L 3463 178 
Q 3153 47 2828 -22 
Q 2503 -91 2169 -91 
Q 1331 -91 842 396 
Q 353 884 353 1716 
Q 353 2575 817 3079 
Q 1281 3584 2069 3584 
Q 2775 3584 3186 3129 
Q 3597 2675 3597 1894 
z
M 3022 2063 
Q 3016 2534 2758 2815 
Q 2500 3097 2075 3097 
Q 1594 3097 1305 2825 
Q 1016 2553 972 2059 
L 3022 2063 
z
" transform="scale(0.015625)"/>
       <path id="DejaVuSans-20" transform="scale(0.015625)"/>
       <path id="DejaVuSans-28" d="M 1984 4856 
Q 1566 4138 1362 3434 
Q 1159 2731 1159 2009 
Q 1159 1288 1364 580 
Q 1569 -128 1984 -844 
L 1484 -844 
Q 1016 -109 783 600 
Q 550 1309 550 2009 
Q 550 2706 781 3412 
Q 1013 4119 1484 4856 
L 1984 4856 
z
" transform="scale(0.015625)"/>
       <path id="DejaVuSans-73" d="M 2834 3397 
L 2834 2853 
Q 2591 2978 2328 3040 
Q 2066 3103 1784 3103 
Q 1356 3103 1142 2972 
Q 928 2841 928 2578 
Q 928 2378 1081 2264 
Q 1234 2150 1697 2047 
L 1894 2003 
Q 2506 1872 2764 1633 
Q 3022 1394 3022 966 
Q 3022 478 2636 193 
Q 2250 -91 1575 -91 
Q 1294 -91 989 -36 
Q 684 19 347 128 
L 347 722 
Q 666 556 975 473 
Q 1284 391 1588 391 
Q 1994 391 2212 530 
Q 2431 669 2431 922 
Q 2431 1156 2273 1281 
Q 2116 1406 1581 1522 
L 1381 1569 
Q 847 1681 609 1914 
Q 372 2147 372 2553 
Q 372 3047 722 3315 
Q 1072 3584 1716 3584 
Q 2034 3584 2315 3537 
Q 2597 3491 2834 3397 
z
" transform="scale(0.015625)"/>
       <path id="DejaVuSans-29" d="M 513 4856 
L 1013 4856 
Q 1481 4119 1714 3412 
Q 1947 2706 1947 2009 
Q 1947 1309 1714 600 
Q 1481 -109 1013 -844 
L 513 -844 
Q 928 -128 1133 580 
Q 1338 1288 1338 2009 
Q 1338 2731 1133 3434 
Q 928 4138 513 4856 
z
" transform="scale(0.015625)"/>
      </defs>
      <use xlink:href="#DejaVuSans-54"/>
      <use xlink:href="#DejaVuSans-69" x="57.958984"/>
      <use xlink:href="#DejaVuSans-6d" x="85.742188"/>
      <use xlink:href="#DejaVuSans-65" x="183.154297"/>
      <use xlink:href="#DejaVuSans-20" x="244.677734"/>
      <use xlink:href="#DejaVuSans-28" x="276.464844"/>
      <use xlink:href="#DejaVuSans-73" x="315.478516"/>
      <use xlink:href="#DejaVuSans-29" x="367.578125"/>
     </g>
    </g>
   </g>
   <g id="matplotlib.axis_2">
    <g id="ytick_1">
     <g id="line2d_11">
      <path d="M 54.02 236.098117 
L 709.2 236.098117 
" clip-path="url(#pd5f375b7c3)" style="fill: none; stroke: #b0b0b0; stroke-width: 0.8; stroke-linecap: square"/>
     </g>
     <g id="line2d_12">
      <defs>
       <path id="mea0f0d29c7" d="M 0 0 
L -3.5 0 
" style="stroke: #000000; stroke-width: 0.8"/>
      </defs>
      <g>
       <use xlink:href="#mea0f0d29c7" x="54.02" y="236.098117" style="stroke: #000000; stroke-width: 0.8"/>
      </g>
     </g>
     <g id="text_7">
      <!-- 0.00 -->
      <g transform="translate(24.754375 239.897335) scale(0.1 -0.1)">
       <defs>
        <path id="DejaVuSans-2e" d="M 684 794 
L 1344 794 
L 1344 0 
L 684 0 
L 684 794 
z
" transform="scale(0.015625)"/>
       </defs>
       <use xlink:href="#DejaVuSans-30"/>
       <use xlink:href="#DejaVuSans-2e" x="63.623047"/>
       <use xlink:href="#DejaVuSans-30" x="95.410156"/>
       <use xlink:href="#DejaVuSans-30" x="159.033203"/>
      </g>
     </g>
    </g>
    <g id="ytick_2">
     <g id="line2d_13">
      <path d="M 54.02 196.228517 
L 709.2 196.228517 
" clip-path="url(#pd5f375b7c3)" style="fill: none; stroke: #b0b0b0; stroke-width: 0.8; stroke-linecap: square"/>
     </g>
     <g id="line2d_14">
      <g>
       <use xlink:href="#mea0f0d29c7" x="54.02" y="196.228517" style="stroke: #000000; stroke-width: 0.8"/>
      </g>
     </g>
     <g id="text_8">
      <!-- 0.02 -->
      <g transform="translate(24.754375 200.027736) scale(0.1 -0.1)">
       <use xlink:href="#DejaVuSans-30"/>
       <use xlink:href="#DejaVuSans-2e" x="63.623047"/>
       <use xlink:href="#DejaVuSans-30" x="95.410156"/>
       <use xlink:href="#DejaVuSans-32" x="159.033203"/>
      </g>
     </g>
    </g>
    <g id="ytick_3">
     <g id="line2d_15">
      <path d="M 54.02 156.358917 
L 709.2 156.358917 
" clip-path="url(#pd5f375b7c3)" style="fill: none; stroke: #b0b0b0; stroke-width: 0.8; stroke-linecap: square"/>
     </g>
     <g id="line2d_16">
      <g>
       <use xlink:href="#mea0f0d29c7" x="54.02" y="156.358917" style="stroke: #000000; stroke-width: 0.8"/>
      </g>
     </g>
     <g id="text_9">
      <!-- 0.04 -->
      <g transform="translate(24.754375 160.158136) scale(0.1 -0.1)">
       <use xlink:href="#DejaVuSans-30"/>
       <use xlink:href="#DejaVuSans-2e" x="63.623047"/>
       <use xlink:href="#DejaVuSans-30" x="95.410156"/>
       <use xlink:href="#DejaVuSans-34" x="159.033203"/>
      </g>
     </g>
    </g>
    <g id="ytick_4">
     <g id="line2d_17">
      <path d="M 54.02 116.489318 
L 709.2 116.489318 
" clip-path="url(#pd5f375b7c3)" style="fill: none; stroke: #b0b0b0; stroke-width: 0.8; stroke-linecap: square"/>
     </g>
     <g id="line2d_18">
      <g>
       <use xlink:href="#mea0f0d29c7" x="54.02" y="116.489318" style="stroke: #000000; stroke-width: 0.8"/>
      </g>
     </g>
     <g id="text_10">
      <!-- 0.06 -->
      <g transform="translate(24.754375 120.288536) scale(0.1 -0.1)">
       <defs>
        <path id="DejaVuSans-36" d="M 2113 2584 
Q 1688 2584 1439 2293 
Q 1191 2003 1191 1497 
Q 1191 994 1439 701 
Q 1688 409 2113 409 
Q 2538 409 2786 701 
Q 3034 994 3034 1497 
Q 3034 2003 2786 2293 
Q 2538 2584 2113 2584 
z
M 3366 4563 
L 3366 3988 
Q 3128 4100 2886 4159 
Q 2644 4219 2406 4219 
Q 1781 4219 1451 3797 
Q 1122 3375 1075 2522 
Q 1259 2794 1537 2939 
Q 1816 3084 2150 3084 
Q 2853 3084 3261 2657 
Q 3669 2231 3669 1497 
Q 3669 778 3244 343 
Q 2819 -91 2113 -91 
Q 1303 -91 875 529 
Q 447 1150 447 2328 
Q 447 3434 972 4092 
Q 1497 4750 2381 4750 
Q 2619 4750 2861 4703 
Q 3103 4656 3366 4563 
z
" transform="scale(0.015625)"/>
       </defs>
       <use xlink:href="#DejaVuSans-30"/>
       <use xlink:href="#DejaVuSans-2e" x="63.623047"/>
       <use xlink:href="#DejaVuSans-30" x="95.410156"/>
       <use xlink:href="#DejaVuSans-36" x="159.033203"/>
      </g>
     </g>
    </g>
    <g id="ytick_5">
     <g id="line2d_19">
      <path d="M 54.02 76.619718 
L 709.2 76.619718 
" clip-path="url(#pd5f375b7c3)" style="fill: none; stroke: #b0b0b0; stroke-width: 0.8; stroke-linecap: square"/>
     </g>
     <g id="line2d_20">
      <g>
       <use xlink:href="#mea0f0d29c7" x="54.02" y="76.619718" style="stroke: #000000; stroke-width: 0.8"/>
      </g>
     </g>
     <g id="text_11">
      <!-- 0.08 -->
      <g transform="translate(24.754375 80.418937) scale(0.1 -0.1)">
       <defs>
        <path id="DejaVuSans-38" d="M 2034 2216 
Q 1584 2216 1326 1975 
Q 1069 1734 1069 1313 
Q 1069 891 1326 650 
Q 1584 409 2034 409 
Q 2484 409 2743 651 
Q 3003 894 3003 1313 
Q 3003 1734 2745 1975 
Q 2488 2216 2034 2216 
z
M 1403 2484 
Q 997 2584 770 2862 
Q 544 3141 544 3541 
Q 544 4100 942 4425 
Q 1341 4750 2034 4750 
Q 2731 4750 3128 4425 
Q 3525 4100 3525 3541 
Q 3525 3141 3298 2862 
Q 3072 2584 2669 2484 
Q 3125 2378 3379 2068 
Q 3634 1759 3634 1313 
Q 3634 634 3220 271 
Q 2806 -91 2034 -91 
Q 1263 -91 848 271 
Q 434 634 434 1313 
Q 434 1759 690 2068 
Q 947 2378 1403 2484 
z
M 1172 3481 
Q 1172 3119 1398 2916 
Q 1625 2713 2034 2713 
Q 2441 2713 2670 2916 
Q 2900 3119 2900 3481 
Q 2900 3844 2670 4047 
Q 2441 4250 2034 4250 
Q 1625 4250 1398 4047 
Q 1172 3844 1172 3481 
z
" transform="scale(0.015625)"/>
       </defs>
       <use xlink:href="#DejaVuSans-30"/>
       <use xlink:href="#DejaVuSans-2e" x="63.623047"/>
       <use xlink:href="#DejaVuSans-30" x="95.410156"/>
       <use xlink:href="#DejaVuSans-38" x="159.033203"/>
      </g>
     </g>
    </g>
    <g id="ytick_6">
     <g id="line2d_21">
      <path d="M 54.02 36.750118 
L 709.2 36.750118 
" clip-path="url(#pd5f375b7c3)" style="fill: none; stroke: #b0b0b0; stroke-width: 0.8; stroke-linecap: square"/>
     </g>
     <g id="line2d_22">
      <g>
       <use xlink:href="#mea0f0d29c7" x="54.02" y="36.750118" style="stroke: #000000; stroke-width: 0.8"/>
      </g>
     </g>
     <g id="text_12">
      <!-- 0.10 -->
      <g transform="translate(24.754375 40.549337) scale(0.1 -0.1)">
       <use xlink:href="#DejaVuSans-30"/>
       <use xlink:href="#DejaVuSans-2e" x="63.623047"/>
       <use xlink:href="#DejaVuSans-31" x="95.410156"/>
       <use xlink:href="#DejaVuSans-30" x="159.033203"/>
      </g>
     </g>
    </g>
    <g id="text_13">
     <!-- Delta Value -->
     <g transform="translate(18.674688 165.120156) rotate(-90) scale(0.1 -0.1)">
      <defs>
       <path id="DejaVuSans-44" d="M 1259 4147 
L 1259 519 
L 2022 519 
Q 2988 519 3436 956 
Q 3884 1394 3884 2338 
Q 3884 3275 3436 3711 
Q 2988 4147 2022 4147 
L 1259 4147 
z
M 628 4666 
L 1925 4666 
Q 3281 4666 3915 4102 
Q 4550 3538 4550 2338 
Q 4550 1131 3912 565 
Q 3275 0 1925 0 
L 628 0 
L 628 4666 
z
" transform="scale(0.015625)"/>
       <path id="DejaVuSans-6c" d="M 603 4863 
L 1178 4863 
L 1178 0 
L 603 0 
L 603 4863 
z
" transform="scale(0.015625)"/>
       <path id="DejaVuSans-74" d="M 1172 4494 
L 1172 3500 
L 2356 3500 
L 2356 3053 
L 1172 3053 
L 1172 1153 
Q 1172 725 1289 603 
Q 1406 481 1766 481 
L 2356 481 
L 2356 0 
L 1766 0 
Q 1100 0 847 248 
Q 594 497 594 1153 
L 594 3053 
L 172 3053 
L 172 3500 
L 594 3500 
L 594 4494 
L 1172 4494 
z
" transform="scale(0.015625)"/>
       <path id="DejaVuSans-61" d="M 2194 1759 
Q 1497 1759 1228 1600 
Q 959 1441 959 1056 
Q 959 750 1161 570 
Q 1363 391 1709 391 
Q 2188 391 2477 730 
Q 2766 1069 2766 1631 
L 2766 1759 
L 2194 1759 
z
M 3341 1997 
L 3341 0 
L 2766 0 
L 2766 531 
Q 2569 213 2275 61 
Q 1981 -91 1556 -91 
Q 1019 -91 701 211 
Q 384 513 384 1019 
Q 384 1609 779 1909 
Q 1175 2209 1959 2209 
L 2766 2209 
L 2766 2266 
Q 2766 2663 2505 2880 
Q 2244 3097 1772 3097 
Q 1472 3097 1187 3025 
Q 903 2953 641 2809 
L 641 3341 
Q 956 3463 1253 3523 
Q 1550 3584 1831 3584 
Q 2591 3584 2966 3190 
Q 3341 2797 3341 1997 
z
" transform="scale(0.015625)"/>
       <path id="DejaVuSans-56" d="M 1831 0 
L 50 4666 
L 709 4666 
L 2188 738 
L 3669 4666 
L 4325 4666 
L 2547 0 
L 1831 0 
z
" transform="scale(0.015625)"/>
       <path id="DejaVuSans-75" d="M 544 1381 
L 544 3500 
L 1119 3500 
L 1119 1403 
Q 1119 906 1312 657 
Q 1506 409 1894 409 
Q 2359 409 2629 706 
Q 2900 1003 2900 1516 
L 2900 3500 
L 3475 3500 
L 3475 0 
L 2900 0 
L 2900 538 
Q 2691 219 2414 64 
Q 2138 -91 1772 -91 
Q 1169 -91 856 284 
Q 544 659 544 1381 
z
M 1991 3584 
L 1991 3584 
z
" transform="scale(0.015625)"/>
      </defs>
      <use xlink:href="#DejaVuSans-44"/>
      <use xlink:href="#DejaVuSans-65" x="77.001953"/>
      <use xlink:href="#DejaVuSans-6c" x="138.525391"/>
      <use xlink:href="#DejaVuSans-74" x="166.308594"/>
      <use xlink:href="#DejaVuSans-61" x="205.517578"/>
      <use xlink:href="#DejaVuSans-20" x="266.796875"/>
      <use xlink:href="#DejaVuSans-56" x="298.583984"/>
      <use xlink:href="#DejaVuSans-61" x="359.242188"/>
      <use xlink:href="#DejaVuSans-6c" x="420.521484"/>
      <use xlink:href="#DejaVuSans-75" x="448.304688"/>
      <use xlink:href="#DejaVuSans-65" x="511.683594"/>
     </g>
    </g>
   </g>
   <g id="line2d_23">
    <path d="M 83.800909 224.792498 
L 83.887614 236.006417 
L 84.306687 36.841818 
L 84.393391 236.006417 
L 85.029226 36.841818 
L 85.115931 236.006417 
L 85.693962 36.841818 
L 85.780667 236.006417 
L 86.228642 36.841818 
L 86.315346 236.006417 
L 87.11014 36.841818 
L 87.196845 236.006417 
L 87.601467 36.841818 
L 87.688171 236.006417 
L 88.338457 36.841818 
L 88.425162 236.006417 
L 89.49452 36.841818 
L 89.581225 236.006417 
L 90.029199 36.841818 
L 90.115904 236.006417 
L 90.722837 36.841818 
L 90.809542 236.006417 
L 91.257516 36.841818 
L 91.344221 236.006417 
L 92.139015 36.841818 
L 92.225719 236.006417 
L 92.630341 36.841818 
L 92.717046 236.006417 
L 93.367332 36.841818 
L 93.454036 236.006417 
L 94.032068 36.841818 
L 94.118773 236.006417 
L 97.297946 36.841818 
L 97.384651 236.006417 
L 97.991584 36.841818 
L 98.078289 236.006417 
L 98.46846 36.841818 
L 98.555165 236.006417 
L 98.988689 36.841818 
L 99.075393 236.006417 
L 99.682327 36.841818 
L 99.769031 236.006417 
L 100.202555 36.841818 
L 100.28926 236.006417 
L 100.896193 36.841818 
L 100.982898 236.006417 
L 101.373069 36.841818 
L 101.459774 236.006417 
L 101.893297 36.841818 
L 101.980002 236.006417 
L 102.586935 36.841818 
L 102.67364 236.006417 
L 103.136065 36.841818 
L 103.22277 236.006417 
L 103.829703 36.841818 
L 103.916408 236.006417 
L 104.306579 36.841818 
L 104.393284 236.006417 
L 104.826807 36.841818 
L 104.913512 236.006417 
L 105.520445 36.841818 
L 105.60715 236.006417 
L 106.040674 36.841818 
L 106.127379 236.006417 
L 106.734312 36.841818 
L 106.821016 236.006417 
L 107.211188 36.841818 
L 107.297892 236.006417 
L 107.731416 36.841818 
L 107.818121 236.006417 
L 108.425054 36.841818 
L 108.511759 236.006417 
L 108.945282 36.841818 
L 109.031987 236.006417 
L 109.63892 36.841818 
L 109.725625 236.006417 
L 110.115796 36.841818 
L 110.202501 236.006417 
L 110.664926 36.841818 
L 110.751631 236.006417 
L 111.358564 36.841818 
L 111.445269 236.006417 
L 111.878793 36.841818 
L 111.965497 236.006417 
L 112.572431 36.841818 
L 112.659135 236.006417 
L 113.049307 36.841818 
L 113.136011 236.006417 
L 113.569535 36.841818 
L 113.65624 236.006417 
L 114.263173 36.841818 
L 114.349878 236.006417 
L 114.783401 36.841818 
L 114.870106 236.006417 
L 115.477039 36.841818 
L 115.563744 236.006417 
L 115.953915 36.841818 
L 116.04062 236.006417 
L 116.474144 36.841818 
L 116.560848 236.006417 
L 117.167782 36.841818 
L 117.254486 236.006417 
L 117.716912 36.841818 
L 117.803616 236.006417 
L 118.410549 36.841818 
L 118.497254 236.006417 
L 118.887425 36.841818 
L 118.97413 236.006417 
L 119.407654 36.841818 
L 119.494359 236.006417 
L 120.101292 36.841818 
L 120.187997 236.006417 
L 120.62152 36.841818 
L 120.708225 236.006417 
L 121.315158 36.841818 
L 121.401863 236.006417 
L 121.792034 36.841818 
L 121.878739 236.006417 
L 122.312263 36.841818 
L 122.398967 236.006417 
L 123.0059 36.841818 
L 123.092605 236.006417 
L 123.526129 36.841818 
L 123.612834 236.006417 
L 124.219767 36.841818 
L 124.306471 236.006417 
L 124.696643 36.841818 
L 124.783347 236.006417 
L 125.245773 36.841818 
L 125.332477 236.006417 
L 125.939411 36.841818 
L 126.026115 236.006417 
L 126.459639 36.841818 
L 126.546344 236.006417 
L 127.153277 36.841818 
L 127.239982 236.006417 
L 127.630153 36.841818 
L 127.716858 236.006417 
L 128.150381 36.841818 
L 128.237086 236.006417 
L 128.844019 36.841818 
L 128.930724 236.006417 
L 129.364248 36.841818 
L 129.450952 236.006417 
L 130.057886 36.841818 
L 130.14459 236.006417 
L 130.534762 36.841818 
L 130.621466 236.006417 
L 131.05499 36.841818 
L 131.141695 236.006417 
L 131.748628 36.841818 
L 131.835333 236.006417 
L 132.297758 36.841818 
L 132.384463 236.006417 
L 132.991396 36.841818 
L 133.078101 236.006417 
L 133.468272 36.841818 
L 133.554977 236.006417 
L 133.9885 36.841818 
L 134.075205 236.006417 
L 134.682138 36.841818 
L 134.768843 236.006417 
L 135.202367 36.841818 
L 135.289071 236.006417 
L 135.896004 36.841818 
L 135.982709 236.006417 
L 136.37288 36.841818 
L 136.459585 236.006417 
L 136.893109 36.841818 
L 136.979814 236.006417 
L 137.586747 36.841818 
L 137.673452 236.006417 
L 138.106975 36.841818 
L 138.19368 236.006417 
L 138.800613 36.841818 
L 138.887318 236.006417 
L 139.277489 36.841818 
L 139.364194 236.006417 
L 139.826619 36.841818 
L 139.913324 236.006417 
L 140.520257 36.841818 
L 140.606962 236.006417 
L 141.040485 36.841818 
L 141.12719 236.006417 
L 141.734123 36.841818 
L 141.820828 236.006417 
L 142.210999 36.841818 
L 142.297704 236.006417 
L 142.731228 36.841818 
L 142.817933 236.006417 
L 143.424866 36.841818 
L 143.51157 236.006417 
L 143.945094 36.841818 
L 144.031799 236.006417 
L 144.638732 36.841818 
L 144.725437 236.006417 
L 145.115608 36.841818 
L 145.202313 236.006417 
L 145.635836 36.841818 
L 145.722541 236.006417 
L 146.329474 36.841818 
L 146.416179 236.006417 
L 146.878604 36.841818 
L 146.965309 236.006417 
L 147.572242 36.841818 
L 147.658947 236.006417 
L 148.049118 36.841818 
L 148.135823 236.006417 
L 148.569347 36.841818 
L 148.656051 236.006417 
L 149.262985 36.841818 
L 149.349689 236.006417 
L 149.783213 36.841818 
L 149.869918 236.006417 
L 150.476851 36.841818 
L 150.563556 236.006417 
L 150.953727 36.841818 
L 151.040432 236.006417 
L 151.473955 36.841818 
L 151.56066 236.006417 
L 152.167593 36.841818 
L 152.254298 236.006417 
L 152.687822 36.841818 
L 152.774526 236.006417 
L 153.381459 36.841818 
L 153.468164 236.006417 
L 153.858336 36.841818 
L 153.94504 236.006417 
L 154.407466 36.841818 
L 154.49417 236.006417 
L 155.101103 36.841818 
L 155.187808 236.006417 
L 155.621332 36.841818 
L 155.708037 236.006417 
L 156.31497 36.841818 
L 156.401674 236.006417 
L 156.791846 36.841818 
L 156.87855 236.006417 
L 157.312074 36.841818 
L 157.398779 236.006417 
L 158.005712 36.841818 
L 158.092417 236.006417 
L 158.52594 36.841818 
L 158.612645 236.006417 
L 159.219578 36.841818 
L 159.306283 236.006417 
L 159.696454 36.841818 
L 159.783159 236.006417 
L 160.216683 36.841818 
L 160.303388 236.006417 
L 160.910321 36.841818 
L 160.997025 236.006417 
L 161.459451 36.841818 
L 161.546155 236.006417 
L 162.153089 36.841818 
L 162.239793 236.006417 
L 162.629965 36.841818 
L 162.716669 236.006417 
L 163.150193 36.841818 
L 163.236898 236.006417 
L 163.843831 36.841818 
L 163.930536 236.006417 
L 164.364059 36.841818 
L 164.450764 236.006417 
L 165.057697 36.841818 
L 165.144402 236.006417 
L 165.534573 36.841818 
L 165.621278 236.006417 
L 166.054802 36.841818 
L 166.141506 236.006417 
L 166.74844 36.841818 
L 166.835144 236.006417 
L 167.268668 36.841818 
L 167.355373 236.006417 
L 167.962306 36.841818 
L 168.049011 236.006417 
L 168.439182 36.841818 
L 168.525887 236.006417 
L 168.988312 36.841818 
L 169.075017 236.006417 
L 169.68195 36.841818 
L 169.768655 236.006417 
L 170.202178 36.841818 
L 170.288883 236.006417 
L 170.895816 36.841818 
L 170.982521 236.006417 
L 171.372692 36.841818 
L 171.459397 236.006417 
L 171.892921 36.841818 
L 171.979625 236.006417 
L 172.586558 36.841818 
L 172.673263 236.006417 
L 173.106787 36.841818 
L 173.193492 236.006417 
L 173.800425 36.841818 
L 173.887129 236.006417 
L 174.277301 36.841818 
L 174.364006 236.006417 
L 174.797529 36.841818 
L 174.884234 236.006417 
L 175.491167 36.841818 
L 175.577872 236.006417 
L 176.040297 36.841818 
L 176.127002 236.006417 
L 176.733935 36.841818 
L 176.82064 236.006417 
L 177.210811 36.841818 
L 177.297516 236.006417 
L 177.731039 36.841818 
L 177.817744 236.006417 
L 178.424677 36.841818 
L 178.511382 236.006417 
L 178.944906 36.841818 
L 179.03161 236.006417 
L 179.638544 36.841818 
L 179.725248 236.006417 
L 180.11542 36.841818 
L 180.202124 236.006417 
L 180.635648 36.841818 
L 180.722353 236.006417 
L 181.329286 36.841818 
L 181.415991 236.006417 
L 181.849514 36.841818 
L 181.936219 236.006417 
L 182.543152 36.841818 
L 182.629857 236.006417 
L 183.020028 36.841818 
L 183.106733 236.006417 
L 183.569158 36.841818 
L 183.655863 236.006417 
L 184.262796 36.841818 
L 184.349501 236.006417 
L 184.783025 36.841818 
L 184.869729 236.006417 
L 185.476662 36.841818 
L 185.563367 236.006417 
L 185.953539 36.841818 
L 186.040243 236.006417 
L 186.473767 36.841818 
L 186.560472 236.006417 
L 187.167405 36.841818 
L 187.25411 236.006417 
L 187.687633 36.841818 
L 187.774338 236.006417 
L 188.381271 36.841818 
L 188.467976 236.006417 
L 188.858147 36.841818 
L 188.944852 236.006417 
L 189.378376 36.841818 
L 189.46508 236.006417 
L 190.072013 36.841818 
L 190.158718 236.006417 
L 190.621143 36.841818 
L 190.707848 236.006417 
L 191.314781 36.841818 
L 191.401486 236.006417 
L 191.791657 36.841818 
L 191.878362 236.006417 
L 192.311886 36.841818 
L 192.398591 236.006417 
L 193.005524 36.841818 
L 193.092228 236.006417 
L 193.525752 36.841818 
L 193.612457 236.006417 
L 194.21939 36.841818 
L 194.306095 236.006417 
L 194.696266 36.841818 
L 194.782971 236.006417 
L 195.216494 36.841818 
L 195.303199 236.006417 
L 195.910132 36.841818 
L 195.996837 236.006417 
L 196.430361 36.841818 
L 196.517065 236.006417 
L 197.123999 36.841818 
L 197.210703 236.006417 
L 197.600875 36.841818 
L 197.687579 236.006417 
L 198.150005 36.841818 
L 198.236709 236.006417 
L 198.843643 36.841818 
L 198.930347 236.006417 
L 199.363871 36.841818 
L 199.450576 236.006417 
L 200.057509 36.841818 
L 200.144214 236.006417 
L 200.534385 36.841818 
L 200.62109 236.006417 
L 201.054613 36.841818 
L 201.141318 236.006417 
L 201.748251 36.841818 
L 201.834956 236.006417 
L 202.26848 36.841818 
L 202.355184 236.006417 
L 202.962118 36.841818 
L 203.048822 236.006417 
L 203.438994 36.841818 
L 203.525698 236.006417 
L 203.959222 36.841818 
L 204.045927 236.006417 
L 204.65286 36.841818 
L 204.739565 236.006417 
L 205.20199 36.841818 
L 205.288695 236.006417 
L 205.895628 36.841818 
L 205.982332 236.006417 
L 206.372504 36.841818 
L 206.459209 236.006417 
L 206.892732 36.841818 
L 206.979437 236.006417 
L 207.58637 36.841818 
L 207.673075 236.006417 
L 208.106598 36.841818 
L 208.193303 236.006417 
L 208.800236 36.841818 
L 208.886941 236.006417 
L 209.277112 36.841818 
L 209.363817 236.006417 
L 209.797341 36.841818 
L 209.884046 236.006417 
L 210.490979 36.841818 
L 210.577683 236.006417 
L 211.011207 36.841818 
L 211.097912 236.006417 
L 211.704845 36.841818 
L 211.79155 236.006417 
L 212.181721 36.841818 
L 212.268426 236.006417 
L 212.730851 36.841818 
L 212.817556 236.006417 
L 213.424489 36.841818 
L 213.511194 236.006417 
L 213.944717 36.841818 
L 214.031422 236.006417 
L 214.638355 36.841818 
L 214.72506 236.006417 
L 215.115231 36.841818 
L 215.201936 236.006417 
L 215.63546 36.841818 
L 215.722164 236.006417 
L 216.329098 36.841818 
L 216.415802 236.006417 
L 216.849326 36.841818 
L 216.936031 236.006417 
L 217.542964 36.841818 
L 217.629669 236.006417 
L 218.01984 36.841818 
L 218.106545 236.006417 
L 218.540068 36.841818 
L 218.626773 236.006417 
L 219.233706 36.841818 
L 219.320411 236.006417 
L 219.782836 36.841818 
L 219.869541 236.006417 
L 220.476474 36.841818 
L 220.563179 236.006417 
L 220.95335 36.841818 
L 221.040055 236.006417 
L 221.473579 36.841818 
L 221.560283 236.006417 
L 222.167216 36.841818 
L 222.253921 236.006417 
L 222.687445 36.841818 
L 222.77415 236.006417 
L 223.381083 36.841818 
L 223.467787 236.006417 
L 223.857959 36.841818 
L 223.944664 236.006417 
L 224.378187 36.841818 
L 224.464892 236.006417 
L 225.071825 36.841818 
L 225.15853 236.006417 
L 225.592054 36.841818 
L 225.678758 236.006417 
L 226.285691 36.841818 
L 226.372396 236.006417 
L 226.762567 36.841818 
L 226.849272 236.006417 
L 227.311697 36.841818 
L 227.398402 236.006417 
L 228.005335 36.841818 
L 228.09204 236.006417 
L 228.525564 36.841818 
L 228.612268 236.006417 
L 229.219202 36.841818 
L 229.305906 236.006417 
L 229.696078 36.841818 
L 229.782782 236.006417 
L 230.216306 36.841818 
L 230.303011 236.006417 
L 230.909944 36.841818 
L 230.996649 236.006417 
L 231.430172 36.841818 
L 231.516877 236.006417 
L 232.12381 36.841818 
L 232.210515 236.006417 
L 232.600686 36.841818 
L 232.687391 236.006417 
L 233.120915 36.841818 
L 233.207619 236.006417 
L 233.814553 36.841818 
L 233.901257 236.006417 
L 234.363683 36.841818 
L 234.450387 236.006417 
L 235.057321 36.841818 
L 235.144025 236.006417 
L 235.534197 36.841818 
L 235.620901 236.006417 
L 236.054425 36.841818 
L 236.14113 236.006417 
L 236.748063 36.841818 
L 236.834768 236.006417 
L 237.268291 36.841818 
L 237.354996 236.006417 
L 237.961929 36.841818 
L 238.048634 236.006417 
L 238.438805 36.841818 
L 238.52551 236.006417 
L 238.959034 36.841818 
L 239.045738 236.006417 
L 239.652671 36.841818 
L 239.739376 236.006417 
L 240.1729 36.841818 
L 240.259605 236.006417 
L 240.866538 36.841818 
L 240.953243 236.006417 
L 241.343414 36.841818 
L 241.430119 236.006417 
L 241.892544 36.841818 
L 241.979249 236.006417 
L 242.586182 36.841818 
L 242.672886 236.006417 
L 243.10641 36.841818 
L 243.193115 236.006417 
L 243.800048 36.841818 
L 243.886753 236.006417 
L 244.276924 36.841818 
L 244.363629 236.006417 
L 244.797152 36.841818 
L 244.883857 236.006417 
L 245.49079 36.841818 
L 245.577495 236.006417 
L 246.011019 36.841818 
L 246.097724 236.006417 
L 246.704657 36.841818 
L 246.791361 236.006417 
L 247.181533 36.841818 
L 247.268237 236.006417 
L 247.701761 36.841818 
L 247.788466 236.006417 
L 248.395399 36.841818 
L 248.482104 236.006417 
L 248.944529 36.841818 
L 249.031234 236.006417 
L 249.638167 36.841818 
L 249.724872 236.006417 
L 250.115043 36.841818 
L 250.201748 236.006417 
L 250.635271 36.841818 
L 250.721976 236.006417 
L 251.328909 36.841818 
L 251.415614 236.006417 
L 251.849138 36.841818 
L 251.935842 236.006417 
L 252.542776 36.841818 
L 252.62948 236.006417 
L 253.019652 36.841818 
L 253.106356 236.006417 
L 253.53988 36.841818 
L 253.626585 236.006417 
L 254.233518 36.841818 
L 254.320223 236.006417 
L 254.753746 36.841818 
L 254.840451 236.006417 
L 255.447384 36.841818 
L 255.534089 236.006417 
L 255.895359 36.841818 
L 255.982063 236.006417 
L 256.415587 36.841818 
L 256.502292 236.006417 
L 257.080323 36.841818 
L 257.167028 236.006417 
L 257.629453 36.841818 
L 257.716158 236.006417 
L 258.510952 36.841818 
L 258.597656 236.006417 
L 259.002278 36.841818 
L 259.088983 236.006417 
L 259.710367 36.841818 
L 259.797072 236.006417 
L 260.375103 36.841818 
L 260.461808 236.006417 
L 260.909783 36.841818 
L 260.996487 236.006417 
L 261.791281 36.841818 
L 261.877985 236.006417 
L 262.282608 36.841818 
L 262.369312 236.006417 
L 262.788385 69.627822 
L 262.87509 236.022364 
L 262.990696 235.679486 
L 263.207458 236.075967 
L 263.294163 236.030338 
L 263.482023 203.988124 
L 263.568728 236.006417 
L 264.175661 36.841818 
L 264.262366 236.006417 
L 264.739242 36.841818 
L 264.825946 236.006417 
L 265.476232 36.841818 
L 265.562937 236.006417 
L 266.140968 36.841818 
L 266.227673 236.006417 
L 266.632295 36.841818 
L 266.719 236.006417 
L 266.935762 169.301854 
L 267.239228 236.078182 
L 267.412638 236.030338 
L 267.513793 235.719355 
L 267.600498 236.01439 
L 267.831711 236.030338 
L 267.947317 234.882094 
L 268.120726 236.078182 
L 268.409742 236.01439 
L 268.698758 236.030338 
L 268.814364 235.639616 
L 268.987774 236.078182 
L 269.27679 236.01439 
L 269.508002 236.030338 
L 270.042681 107.045403 
L 270.129386 236.006417 
L 270.56291 36.841818 
L 270.649615 236.006417 
L 271.256548 36.841818 
L 271.343252 236.006417 
L 271.733424 36.841818 
L 271.820128 236.006417 
L 272.253652 36.841818 
L 272.340357 236.006417 
L 272.94729 36.841818 
L 273.033995 236.006417 
L 273.467518 36.841818 
L 273.554223 236.006417 
L 274.161156 36.841818 
L 274.247861 236.006417 
L 274.638032 36.841818 
L 274.724737 236.006417 
L 275.187162 36.841818 
L 275.273867 236.006417 
L 275.8808 36.841818 
L 275.967505 236.006417 
L 276.401029 36.841818 
L 276.487733 236.006417 
L 277.094667 36.841818 
L 277.181371 236.006417 
L 277.571543 36.841818 
L 277.658247 236.006417 
L 278.091771 36.841818 
L 278.178476 236.006417 
L 278.785409 36.841818 
L 278.872114 236.006417 
L 279.305637 36.841818 
L 279.392342 236.006417 
L 279.999275 36.841818 
L 280.08598 236.006417 
L 280.476151 36.841818 
L 280.562856 236.006417 
L 280.99638 36.841818 
L 281.083084 236.006417 
L 281.690018 36.841818 
L 281.776722 236.006417 
L 282.239148 36.841818 
L 282.325852 236.006417 
L 282.932785 36.841818 
L 283.01949 236.006417 
L 283.409661 36.841818 
L 283.496366 236.006417 
L 283.92989 36.841818 
L 284.016595 236.006417 
L 284.623528 36.841818 
L 284.710232 236.006417 
L 285.143756 36.841818 
L 285.230461 236.006417 
L 285.837394 36.841818 
L 285.924099 236.006417 
L 286.31427 36.841818 
L 286.400975 236.006417 
L 286.834498 36.841818 
L 286.921203 236.006417 
L 287.528136 36.841818 
L 287.614841 236.006417 
L 288.048365 36.841818 
L 288.13507 236.006417 
L 288.742003 36.841818 
L 288.828707 236.006417 
L 289.218879 36.841818 
L 289.305583 236.006417 
L 289.768009 36.841818 
L 289.854713 236.006417 
L 290.461647 36.841818 
L 290.548351 236.006417 
L 290.981875 36.841818 
L 291.06858 236.006417 
L 291.675513 36.841818 
L 291.762218 236.006417 
L 292.152389 36.841818 
L 292.239094 236.006417 
L 292.672617 36.841818 
L 292.759322 236.006417 
L 293.366255 36.841818 
L 293.45296 236.006417 
L 293.886484 36.841818 
L 293.973188 236.006417 
L 294.580122 36.841818 
L 294.666826 236.006417 
L 295.056998 36.841818 
L 295.143702 236.006417 
L 295.577226 36.841818 
L 295.663931 236.006417 
L 296.270864 36.841818 
L 296.357569 236.006417 
L 296.819994 36.841818 
L 296.906699 236.006417 
L 297.513632 36.841818 
L 297.600337 236.006417 
L 297.990508 36.841818 
L 298.077213 236.006417 
L 298.510736 36.841818 
L 298.597441 236.006417 
L 299.204374 36.841818 
L 299.291079 236.006417 
L 299.724603 36.841818 
L 299.811307 236.006417 
L 300.41824 36.841818 
L 300.504945 236.006417 
L 300.895116 36.841818 
L 300.981821 236.006417 
L 301.415345 36.841818 
L 301.50205 236.006417 
L 302.108983 36.841818 
L 302.195688 236.006417 
L 302.629211 36.841818 
L 302.715916 236.006417 
L 303.322849 36.841818 
L 303.409554 236.006417 
L 303.799725 36.841818 
L 303.88643 236.006417 
L 304.348855 36.841818 
L 304.43556 236.006417 
L 305.042493 36.841818 
L 305.129198 236.006417 
L 305.562721 36.841818 
L 305.649426 236.006417 
L 306.256359 36.841818 
L 306.343064 236.006417 
L 306.733235 36.841818 
L 306.81994 236.006417 
L 307.253464 36.841818 
L 307.340168 236.006417 
L 307.947102 36.841818 
L 308.033806 236.006417 
L 308.46733 36.841818 
L 308.554035 236.006417 
L 309.160968 36.841818 
L 309.247673 236.006417 
L 309.637844 36.841818 
L 309.724549 236.006417 
L 310.158072 36.841818 
L 310.244777 236.006417 
L 310.85171 36.841818 
L 310.938415 236.006417 
L 311.40084 36.841818 
L 311.487545 236.006417 
L 312.094478 36.841818 
L 312.181183 236.006417 
L 312.571354 36.841818 
L 312.658059 236.006417 
L 313.091583 36.841818 
L 313.178287 236.006417 
L 313.785221 36.841818 
L 313.871925 236.006417 
L 314.305449 36.841818 
L 314.392154 236.006417 
L 314.999087 36.841818 
L 315.085792 236.006417 
L 315.475963 36.841818 
L 315.562668 236.006417 
L 315.996191 36.841818 
L 316.082896 236.006417 
L 316.689829 36.841818 
L 316.776534 236.006417 
L 317.210058 36.841818 
L 317.296762 236.006417 
L 317.903695 36.841818 
L 317.9904 236.006417 
L 318.380571 36.841818 
L 318.467276 236.006417 
L 318.929701 36.841818 
L 319.016406 236.006417 
L 319.623339 36.841818 
L 319.710044 236.006417 
L 320.143568 36.841818 
L 320.230273 236.006417 
L 320.837206 36.841818 
L 320.92391 236.006417 
L 321.314082 36.841818 
L 321.400786 236.006417 
L 321.83431 36.841818 
L 321.921015 236.006417 
L 322.527948 36.841818 
L 322.614653 236.006417 
L 323.048176 36.841818 
L 323.134881 236.006417 
L 323.741814 36.841818 
L 323.828519 236.006417 
L 324.21869 36.841818 
L 324.305395 236.006417 
L 324.738919 36.841818 
L 324.825624 236.006417 
L 325.432557 36.841818 
L 325.519261 236.006417 
L 325.981687 36.841818 
L 326.068391 236.006417 
L 326.675325 36.841818 
L 326.762029 236.006417 
L 327.152201 36.841818 
L 327.238905 236.006417 
L 327.672429 36.841818 
L 327.759134 236.006417 
L 328.366067 36.841818 
L 328.452772 236.006417 
L 328.886295 36.841818 
L 328.973 236.006417 
L 329.579933 36.841818 
L 329.666638 236.006417 
L 330.056809 36.841818 
L 330.143514 236.006417 
L 330.577038 36.841818 
L 330.663742 236.006417 
L 331.270676 36.841818 
L 331.35738 236.006417 
L 331.790904 36.841818 
L 331.877609 236.006417 
L 332.484542 36.841818 
L 332.571247 236.006417 
L 332.961418 36.841818 
L 333.048123 236.006417 
L 333.510548 36.841818 
L 333.597253 236.006417 
L 334.204186 36.841818 
L 334.29089 236.006417 
L 334.724414 36.841818 
L 334.811119 236.006417 
L 335.418052 36.841818 
L 335.504757 236.006417 
L 335.894928 36.841818 
L 335.981633 236.006417 
L 336.415157 36.841818 
L 336.501861 236.006417 
L 337.108794 36.841818 
L 337.195499 236.006417 
L 337.629023 36.841818 
L 337.715728 236.006417 
L 338.322661 36.841818 
L 338.409365 236.006417 
L 338.799537 36.841818 
L 338.886241 236.006417 
L 339.319765 36.841818 
L 339.40647 236.006417 
L 340.013403 36.841818 
L 340.100108 236.006417 
L 340.562533 36.841818 
L 340.649238 236.006417 
L 341.256171 36.841818 
L 341.342876 236.006417 
L 341.733047 36.841818 
L 341.819752 236.006417 
L 342.253275 36.841818 
L 342.33998 236.006417 
L 342.946913 36.841818 
L 343.033618 236.006417 
L 343.467142 36.841818 
L 343.553846 236.006417 
L 344.16078 36.841818 
L 344.247484 236.006417 
L 344.637656 36.841818 
L 344.72436 236.006417 
L 345.157884 36.841818 
L 345.244589 236.006417 
L 345.851522 36.841818 
L 345.938227 236.006417 
L 346.37175 36.841818 
L 346.458455 236.006417 
L 347.065388 36.841818 
L 347.152093 236.006417 
L 347.542264 36.841818 
L 347.628969 236.006417 
L 348.091394 36.841818 
L 348.178099 236.006417 
L 348.785032 36.841818 
L 348.871737 236.006417 
L 349.305261 36.841818 
L 349.391965 236.006417 
L 349.998898 36.841818 
L 350.085603 236.006417 
L 350.475774 36.841818 
L 350.562479 236.006417 
L 350.996003 36.841818 
L 351.082708 236.006417 
L 351.689641 36.841818 
L 351.776346 236.006417 
L 352.209869 36.841818 
L 352.296574 236.006417 
L 352.903507 36.841818 
L 352.990212 236.006417 
L 353.380383 36.841818 
L 353.467088 236.006417 
L 353.900612 36.841818 
L 353.987316 236.006417 
L 354.594249 36.841818 
L 354.680954 236.006417 
L 355.143379 36.841818 
L 355.230084 236.006417 
L 355.837017 36.841818 
L 355.923722 236.006417 
L 356.313893 36.841818 
L 356.400598 236.006417 
L 356.834122 36.841818 
L 356.920827 236.006417 
L 357.52776 36.841818 
L 357.614464 236.006417 
L 358.047988 36.841818 
L 358.134693 236.006417 
L 358.741626 36.841818 
L 358.828331 236.006417 
L 359.218502 36.841818 
L 359.305207 236.006417 
L 359.73873 36.841818 
L 359.825435 236.006417 
L 360.46127 36.841818 
L 360.547975 236.006417 
L 360.981498 36.841818 
L 361.068203 236.006417 
L 361.675136 36.841818 
L 361.761841 236.006417 
L 362.152012 36.841818 
L 362.238717 236.006417 
L 362.701142 36.841818 
L 362.787847 236.006417 
L 363.39478 36.841818 
L 363.481485 236.006417 
L 363.915009 36.841818 
L 364.001713 236.006417 
L 364.608646 36.841818 
L 364.695351 236.006417 
L 365.085522 36.841818 
L 365.172227 236.006417 
L 365.605751 36.841818 
L 365.692456 236.006417 
L 366.299389 36.841818 
L 366.386093 236.006417 
L 366.819617 36.841818 
L 366.906322 236.006417 
L 367.542157 36.841818 
L 367.628861 236.006417 
L 368.019033 36.841818 
L 368.105737 236.006417 
L 368.539261 36.841818 
L 368.625966 236.006417 
L 369.232899 36.841818 
L 369.319604 236.006417 
L 369.782029 36.841818 
L 369.868734 236.006417 
L 370.475667 36.841818 
L 370.562372 236.006417 
L 370.952543 36.841818 
L 371.039248 236.006417 
L 371.472771 36.841818 
L 371.559476 236.006417 
L 372.166409 36.841818 
L 372.253114 236.006417 
L 372.686638 36.841818 
L 372.773342 236.006417 
L 373.380276 36.841818 
L 373.46698 236.006417 
L 373.857152 36.841818 
L 373.943856 236.006417 
L 374.37738 36.841818 
L 374.464085 236.006417 
L 375.099919 36.841818 
L 375.186624 236.006417 
L 375.620148 36.841818 
L 375.706853 236.006417 
L 376.313786 36.841818 
L 376.40049 236.006417 
L 376.790662 36.841818 
L 376.877367 236.006417 
L 377.339792 36.841818 
L 377.426497 236.006417 
L 378.03343 36.841818 
L 378.120134 236.006417 
L 378.553658 36.841818 
L 378.640363 236.006417 
L 379.247296 36.841818 
L 379.334001 236.006417 
L 379.724172 36.841818 
L 379.810877 236.006417 
L 380.2444 36.841818 
L 380.331105 236.006417 
L 380.938038 36.841818 
L 381.024743 236.006417 
L 381.458267 36.841818 
L 381.544971 236.006417 
L 382.180806 36.841818 
L 382.267511 236.006417 
L 382.657682 36.841818 
L 382.744387 236.006417 
L 383.177911 36.841818 
L 383.264615 236.006417 
L 383.871549 36.841818 
L 383.958253 236.006417 
L 384.420679 36.841818 
L 384.507383 236.006417 
L 385.114316 36.841818 
L 385.201021 236.006417 
L 385.591192 36.841818 
L 385.677897 236.006417 
L 386.111421 36.841818 
L 386.198126 236.006417 
L 386.805059 36.841818 
L 386.891763 236.006417 
L 387.325287 36.841818 
L 387.411992 236.006417 
L 388.018925 36.841818 
L 388.10563 236.006417 
L 388.495801 36.841818 
L 388.582506 236.006417 
L 389.01603 36.841818 
L 389.102734 236.006417 
L 389.738569 36.841818 
L 389.825274 236.006417 
L 390.258797 36.841818 
L 390.345502 236.006417 
L 390.952435 36.841818 
L 391.03914 236.006417 
L 391.429311 36.841818 
L 391.516016 236.006417 
L 391.978441 36.841818 
L 392.065146 236.006417 
L 392.672079 36.841818 
L 392.758784 236.006417 
L 393.192308 36.841818 
L 393.279012 236.006417 
L 393.885945 36.841818 
L 393.97265 236.006417 
L 394.362822 36.841818 
L 394.449526 236.006417 
L 394.88305 36.841818 
L 394.969755 236.006417 
L 395.576688 36.841818 
L 395.663393 236.006417 
L 396.096916 36.841818 
L 396.183621 236.006417 
L 396.819456 36.841818 
L 396.90616 236.006417 
L 397.296332 36.841818 
L 397.383037 236.006417 
L 397.81656 36.841818 
L 397.903265 236.006417 
L 398.510198 36.841818 
L 398.596903 236.006417 
L 399.059328 36.841818 
L 399.146033 236.006417 
L 399.752966 36.841818 
L 399.839671 236.006417 
L 400.229842 36.841818 
L 400.316547 236.006417 
L 400.75007 36.841818 
L 400.836775 236.006417 
L 401.443708 36.841818 
L 401.530413 236.006417 
L 401.963937 36.841818 
L 402.050641 236.006417 
L 402.657575 36.841818 
L 402.744279 236.006417 
L 403.134451 36.841818 
L 403.221155 236.006417 
L 403.654679 36.841818 
L 403.741384 236.006417 
L 404.377219 36.841818 
L 404.463923 236.006417 
L 404.897447 36.841818 
L 404.984152 236.006417 
L 405.591085 36.841818 
L 405.67779 236.006417 
L 406.067961 36.841818 
L 406.154666 236.006417 
L 406.617091 36.841818 
L 406.703796 236.006417 
L 407.310729 36.841818 
L 407.397433 236.006417 
L 407.830957 36.841818 
L 407.917662 236.006417 
L 408.524595 36.841818 
L 408.6113 236.006417 
L 409.001471 36.841818 
L 409.088176 236.006417 
L 409.521699 36.841818 
L 409.608404 236.006417 
L 410.215337 36.841818 
L 410.302042 236.006417 
L 410.735566 36.841818 
L 410.822271 236.006417 
L 411.458105 36.841818 
L 411.54481 236.006417 
L 411.934981 36.841818 
L 412.021686 236.006417 
L 412.45521 36.841818 
L 412.541914 236.006417 
L 413.148848 36.841818 
L 413.235552 236.006417 
L 413.697978 36.841818 
L 413.784682 236.006417 
L 414.391615 36.841818 
L 414.47832 236.006417 
L 414.868492 36.841818 
L 414.955196 236.006417 
L 415.38872 36.841818 
L 415.475425 236.006417 
L 416.082358 36.841818 
L 416.169063 236.006417 
L 416.602586 36.841818 
L 416.689291 236.006417 
L 417.296224 36.841818 
L 417.382929 236.006417 
L 417.7731 36.841818 
L 417.859805 236.006417 
L 418.293329 36.841818 
L 418.380033 236.006417 
L 419.015868 36.841818 
L 419.102573 236.006417 
L 419.536096 36.841818 
L 419.622801 236.006417 
L 420.229734 36.841818 
L 420.316439 236.006417 
L 420.70661 36.841818 
L 420.793315 236.006417 
L 421.25574 36.841818 
L 421.342445 236.006417 
L 421.949378 36.841818 
L 422.036083 236.006417 
L 422.469607 36.841818 
L 422.556311 236.006417 
L 423.163245 36.841818 
L 423.249949 236.006417 
L 423.640121 36.841818 
L 423.726825 236.006417 
L 424.160349 36.841818 
L 424.247054 236.006417 
L 424.853987 36.841818 
L 424.940692 236.006417 
L 425.374215 36.841818 
L 425.46092 236.006417 
L 426.096755 36.841818 
L 426.18346 236.006417 
L 426.573631 36.841818 
L 426.660336 236.006417 
L 427.093859 36.841818 
L 427.180564 236.006417 
L 427.787497 36.841818 
L 427.874202 236.006417 
L 428.336627 36.841818 
L 428.423332 236.006417 
L 429.030265 36.841818 
L 429.11697 236.006417 
L 429.507141 36.841818 
L 429.593846 236.006417 
L 430.027369 36.841818 
L 430.114074 236.006417 
L 430.721007 36.841818 
L 430.807712 236.006417 
L 431.241236 36.841818 
L 431.327941 236.006417 
L 431.934874 36.841818 
L 432.021578 236.006417 
L 432.41175 36.841818 
L 432.498454 236.006417 
L 432.931978 36.841818 
L 433.018683 236.006417 
L 433.654518 36.841818 
L 433.741222 236.006417 
L 434.174746 36.841818 
L 434.261451 236.006417 
L 434.868384 36.841818 
L 434.955089 236.006417 
L 435.34526 36.841818 
L 435.431965 236.006417 
L 435.89439 36.841818 
L 435.981095 236.006417 
L 436.588028 36.841818 
L 436.674733 236.006417 
L 437.108256 36.841818 
L 437.194961 236.006417 
L 437.801894 36.841818 
L 437.888599 236.006417 
L 438.27877 36.841818 
L 438.365475 236.006417 
L 438.798999 36.841818 
L 438.885703 236.006417 
L 439.492636 36.841818 
L 439.579341 236.006417 
L 440.012865 36.841818 
L 440.09957 236.006417 
L 440.735404 36.841818 
L 440.822109 236.006417 
L 441.21228 36.841818 
L 441.298985 236.006417 
L 441.732509 36.841818 
L 441.819214 236.006417 
L 442.426147 36.841818 
L 442.512851 236.006417 
L 442.975277 36.841818 
L 443.061981 236.006417 
L 443.668915 36.841818 
L 443.755619 236.006417 
L 444.145791 36.841818 
L 444.232495 236.006417 
L 444.666019 36.841818 
L 444.752724 236.006417 
L 445.359657 36.841818 
L 445.446362 236.006417 
L 445.879885 36.841818 
L 445.96659 236.006417 
L 446.573523 36.841818 
L 446.660228 236.006417 
L 447.050399 36.841818 
L 447.137104 236.006417 
L 447.570628 36.841818 
L 447.657332 236.006417 
L 448.293167 36.841818 
L 448.379872 236.006417 
L 448.813396 36.841818 
L 448.9001 236.006417 
L 449.507033 36.841818 
L 449.593738 236.006417 
L 449.983909 36.841818 
L 450.070614 236.006417 
L 450.533039 36.841818 
L 450.619744 236.006417 
L 451.226677 36.841818 
L 451.313382 236.006417 
L 451.746906 36.841818 
L 451.833611 236.006417 
L 452.440544 36.841818 
L 452.527248 236.006417 
L 452.91742 36.841818 
L 453.004124 236.006417 
L 453.437648 36.841818 
L 453.524353 236.006417 
L 454.131286 36.841818 
L 454.217991 236.006417 
L 454.651514 36.841818 
L 454.738219 236.006417 
L 455.374054 36.841818 
L 455.460759 236.006417 
L 455.85093 36.841818 
L 455.937635 236.006417 
L 456.371158 36.841818 
L 456.457863 236.006417 
L 457.064796 36.841818 
L 457.151501 236.006417 
L 457.613926 36.841818 
L 457.700631 236.006417 
L 458.307564 36.841818 
L 458.394269 236.006417 
L 458.78444 36.841818 
L 458.871145 236.006417 
L 459.304669 36.841818 
L 459.391373 236.006417 
L 459.998306 36.841818 
L 460.085011 236.006417 
L 460.518535 36.841818 
L 460.60524 236.006417 
L 461.212173 36.841818 
L 461.298877 236.006417 
L 461.689049 36.841818 
L 461.775754 236.006417 
L 462.209277 36.841818 
L 462.295982 236.006417 
L 462.931817 36.841818 
L 463.018521 236.006417 
L 463.452045 36.841818 
L 463.53875 236.006417 
L 464.145683 36.841818 
L 464.232388 236.006417 
L 464.622559 36.841818 
L 464.709264 236.006417 
L 465.171689 36.841818 
L 465.258394 236.006417 
L 465.865327 36.841818 
L 465.952032 236.006417 
L 466.385555 36.841818 
L 466.47226 236.006417 
L 467.079193 36.841818 
L 467.165898 236.006417 
L 467.556069 36.841818 
L 467.642774 236.006417 
L 468.076298 36.841818 
L 468.163002 236.006417 
L 468.769936 36.841818 
L 468.85664 236.006417 
L 469.290164 36.841818 
L 469.376869 236.006417 
L 470.012703 36.841818 
L 470.099408 236.006417 
L 470.489579 36.841818 
L 470.576284 236.006417 
L 471.009808 36.841818 
L 471.096513 236.006417 
L 471.703446 36.841818 
L 471.790151 236.006417 
L 472.252576 36.841818 
L 472.339281 236.006417 
L 472.946214 36.841818 
L 473.032918 236.006417 
L 473.42309 36.841818 
L 473.509794 236.006417 
L 473.943318 36.841818 
L 474.030023 236.006417 
L 474.636956 36.841818 
L 474.723661 236.006417 
L 475.157184 36.841818 
L 475.243889 236.006417 
L 475.850822 36.841818 
L 475.937527 236.006417 
L 476.327698 36.841818 
L 476.414403 236.006417 
L 476.847927 36.841818 
L 476.934631 236.006417 
L 477.541565 36.841818 
L 477.628269 236.006417 
L 478.061793 36.841818 
L 478.148498 236.006417 
L 478.755431 36.841818 
L 478.842136 236.006417 
L 479.232307 36.841818 
L 479.319012 236.006417 
L 479.781437 36.841818 
L 479.868142 236.006417 
L 480.475075 36.841818 
L 480.56178 236.006417 
L 480.995303 36.841818 
L 481.082008 236.006417 
L 481.688941 36.841818 
L 481.775646 236.006417 
L 482.165817 36.841818 
L 482.252522 236.006417 
L 482.686046 36.841818 
L 482.77275 236.006417 
L 483.379684 36.841818 
L 483.466388 236.006417 
L 483.899912 36.841818 
L 483.986617 236.006417 
L 484.59355 36.841818 
L 484.680255 236.006417 
L 485.070426 36.841818 
L 485.157131 236.006417 
L 485.590654 36.841818 
L 485.677359 236.006417 
L 486.284292 36.841818 
L 486.370997 236.006417 
L 486.833422 36.841818 
L 486.920127 236.006417 
L 487.52706 36.841818 
L 487.613765 236.006417 
L 488.003936 36.841818 
L 488.090641 236.006417 
L 488.524164 36.841818 
L 488.610869 236.006417 
L 489.217802 36.841818 
L 489.304507 236.006417 
L 489.738031 36.841818 
L 489.824736 236.006417 
L 490.431669 36.841818 
L 490.518373 236.006417 
L 490.908545 36.841818 
L 490.995249 236.006417 
L 491.428773 36.841818 
L 491.515478 236.006417 
L 492.122411 36.841818 
L 492.209116 236.006417 
L 492.642639 36.841818 
L 492.729344 236.006417 
L 493.336277 36.841818 
L 493.422982 236.006417 
L 493.813153 36.841818 
L 493.899858 236.006417 
L 494.362283 36.841818 
L 494.448988 236.006417 
L 495.055921 36.841818 
L 495.142626 236.006417 
L 495.57615 36.841818 
L 495.662854 236.006417 
L 496.269788 36.841818 
L 496.356492 236.006417 
L 496.746664 36.841818 
L 496.833368 236.006417 
L 497.266892 36.841818 
L 497.353597 236.006417 
L 497.96053 36.841818 
L 498.047235 236.006417 
L 498.480758 36.841818 
L 498.567463 236.006417 
L 499.174396 36.841818 
L 499.261101 236.006417 
L 499.651272 36.841818 
L 499.737977 236.006417 
L 500.171501 36.841818 
L 500.258205 236.006417 
L 500.865139 36.841818 
L 500.951843 236.006417 
L 501.414269 36.841818 
L 501.500973 236.006417 
L 502.107906 36.841818 
L 502.194611 236.006417 
L 502.584782 36.841818 
L 502.671487 236.006417 
L 503.105011 36.841818 
L 503.191716 236.006417 
L 503.798649 36.841818 
L 503.885354 236.006417 
L 504.318877 36.841818 
L 504.405582 236.006417 
L 505.012515 36.841818 
L 505.09922 236.006417 
L 505.489391 36.841818 
L 505.576096 236.006417 
L 506.00962 36.841818 
L 506.096324 236.006417 
L 506.703257 36.841818 
L 506.789962 236.006417 
L 507.223486 36.841818 
L 507.310191 236.006417 
L 507.917124 36.841818 
L 508.003828 236.006417 
L 508.394 36.841818 
L 508.480704 236.006417 
L 508.94313 36.841818 
L 509.029834 236.006417 
L 509.636768 36.841818 
L 509.723472 236.006417 
L 510.156996 36.841818 
L 510.243701 236.006417 
L 510.850634 36.841818 
L 510.937339 236.006417 
L 511.32751 36.841818 
L 511.414215 236.006417 
L 511.847738 36.841818 
L 511.934443 236.006417 
L 512.541376 36.841818 
L 512.628081 236.006417 
L 513.061605 36.841818 
L 513.148309 236.006417 
L 513.755243 36.841818 
L 513.841947 236.006417 
L 514.232119 36.841818 
L 514.318823 236.006417 
L 514.752347 36.841818 
L 514.839052 236.006417 
L 515.445985 36.841818 
L 515.53269 236.006417 
L 515.995115 36.841818 
L 516.08182 236.006417 
L 516.688753 36.841818 
L 516.775458 236.006417 
L 517.165629 36.841818 
L 517.252334 236.006417 
L 517.685857 36.841818 
L 517.772562 236.006417 
L 518.379495 36.841818 
L 518.4662 236.006417 
L 518.899724 36.841818 
L 518.986428 236.006417 
L 519.593361 36.841818 
L 519.680066 236.006417 
L 520.070238 36.841818 
L 520.156942 236.006417 
L 520.590466 36.841818 
L 520.677171 236.006417 
L 521.284104 36.841818 
L 521.370809 236.006417 
L 521.804332 36.841818 
L 521.891037 236.006417 
L 522.49797 36.841818 
L 522.584675 236.006417 
L 522.974846 36.841818 
L 523.061551 236.006417 
L 523.523976 36.841818 
L 523.610681 236.006417 
L 524.217614 36.841818 
L 524.304319 236.006417 
L 524.737842 36.841818 
L 524.824547 236.006417 
L 525.43148 36.841818 
L 525.518185 236.006417 
L 525.908356 36.841818 
L 525.995061 236.006417 
L 526.428585 36.841818 
L 526.51529 236.006417 
L 527.122223 36.841818 
L 527.208927 236.006417 
L 527.642451 36.841818 
L 527.729156 236.006417 
L 528.336089 36.841818 
L 528.422794 236.006417 
L 528.812965 36.841818 
L 528.89967 236.006417 
L 529.333193 36.841818 
L 529.419898 236.006417 
L 530.026831 36.841818 
L 530.113536 236.006417 
L 530.575961 36.841818 
L 530.662666 236.006417 
L 531.269599 36.841818 
L 531.356304 236.006417 
L 531.746475 36.841818 
L 531.83318 236.006417 
L 532.266704 36.841818 
L 532.353408 236.006417 
L 532.960342 36.841818 
L 533.047046 236.006417 
L 533.48057 36.841818 
L 533.567275 236.006417 
L 534.174208 36.841818 
L 534.260913 236.006417 
L 534.651084 36.841818 
L 534.737789 236.006417 
L 535.171312 36.841818 
L 535.258017 236.006417 
L 535.86495 36.841818 
L 535.951655 236.006417 
L 536.385179 36.841818 
L 536.471883 236.006417 
L 537.078816 36.841818 
L 537.165521 236.006417 
L 537.555693 36.841818 
L 537.642397 236.006417 
L 538.104823 36.841818 
L 538.191527 236.006417 
L 538.79846 36.841818 
L 538.885165 236.006417 
L 539.318689 36.841818 
L 539.405394 236.006417 
L 540.012327 36.841818 
L 540.099031 236.006417 
L 540.489203 36.841818 
L 540.575907 236.006417 
L 541.009431 36.841818 
L 541.096136 236.006417 
L 541.703069 36.841818 
L 541.789774 236.006417 
L 542.223297 36.841818 
L 542.310002 236.006417 
L 542.916935 36.841818 
L 543.00364 236.006417 
L 543.393811 36.841818 
L 543.480516 236.006417 
L 543.91404 36.841818 
L 544.000745 236.006417 
L 544.607678 36.841818 
L 544.694382 236.006417 
L 545.156808 36.841818 
L 545.243512 236.006417 
L 545.850446 36.841818 
L 545.93715 236.006417 
L 546.327322 36.841818 
L 546.414026 236.006417 
L 546.84755 36.841818 
L 546.934255 236.006417 
L 547.541188 36.841818 
L 547.627893 236.006417 
L 548.061416 36.841818 
L 548.148121 236.006417 
L 548.755054 36.841818 
L 548.841759 236.006417 
L 549.23193 36.841818 
L 549.318635 236.006417 
L 549.752159 36.841818 
L 549.838863 236.006417 
L 550.445797 36.841818 
L 550.532501 236.006417 
L 550.966025 36.841818 
L 551.05273 236.006417 
L 551.659663 36.841818 
L 551.746368 236.006417 
L 552.136539 36.841818 
L 552.223244 236.006417 
L 552.685669 36.841818 
L 552.772374 236.006417 
L 553.379307 36.841818 
L 553.466012 236.006417 
L 553.899535 36.841818 
L 553.98624 236.006417 
L 554.593173 36.841818 
L 554.679878 236.006417 
L 555.070049 36.841818 
L 555.156754 236.006417 
L 555.590278 36.841818 
L 555.676982 236.006417 
L 556.283915 36.841818 
L 556.37062 236.006417 
L 556.804144 36.841818 
L 556.890849 236.006417 
L 557.497782 36.841818 
L 557.584486 236.006417 
L 557.974658 36.841818 
L 558.061363 236.006417 
L 558.494886 36.841818 
L 558.581591 236.006417 
L 559.188524 36.841818 
L 559.275229 236.006417 
L 559.737654 36.841818 
L 559.824359 236.006417 
L 560.431292 36.841818 
L 560.517997 236.006417 
L 560.908168 36.841818 
L 560.994873 236.006417 
L 561.428396 36.841818 
L 561.515101 236.006417 
L 562.122034 36.841818 
L 562.208739 236.006417 
L 562.642263 36.841818 
L 562.728967 236.006417 
L 563.335901 36.841818 
L 563.422605 236.006417 
L 563.812777 36.841818 
L 563.899481 236.006417 
L 564.333005 36.841818 
L 564.41971 236.006417 
L 565.026643 36.841818 
L 565.113348 236.006417 
L 565.546871 36.841818 
L 565.633576 236.006417 
L 566.240509 36.841818 
L 566.327214 236.006417 
L 566.717385 36.841818 
L 566.80409 236.006417 
L 567.266515 36.841818 
L 567.35322 236.006417 
L 567.960153 36.841818 
L 568.046858 236.006417 
L 568.480382 36.841818 
L 568.567086 236.006417 
L 569.174019 36.841818 
L 569.260724 236.006417 
L 569.650896 36.841818 
L 569.7376 236.006417 
L 570.171124 36.841818 
L 570.257829 236.006417 
L 570.864762 36.841818 
L 570.951467 236.006417 
L 571.38499 36.841818 
L 571.471695 236.006417 
L 572.078628 36.841818 
L 572.165333 236.006417 
L 572.555504 36.841818 
L 572.642209 236.006417 
L 573.075733 36.841818 
L 573.162437 236.006417 
L 573.76937 36.841818 
L 573.856075 236.006417 
L 574.3185 36.841818 
L 574.405205 236.006417 
L 575.012138 36.841818 
L 575.098843 236.006417 
L 575.489014 36.841818 
L 575.575719 236.006417 
L 576.009243 36.841818 
L 576.095948 236.006417 
L 576.702881 36.841818 
L 576.789585 236.006417 
L 577.223109 36.841818 
L 577.309814 236.006417 
L 577.916747 36.841818 
L 578.003452 236.006417 
L 578.393623 36.841818 
L 578.480328 236.006417 
L 578.913851 36.841818 
L 579.000556 236.006417 
L 579.607489 36.841818 
L 579.694194 236.006417 
L 580.127718 36.841818 
L 580.214422 236.006417 
L 580.821356 36.841818 
L 580.90806 236.006417 
L 581.298232 36.841818 
L 581.384936 236.006417 
L 581.847362 36.841818 
L 581.934066 236.006417 
L 582.541 36.841818 
L 582.627704 236.006417 
L 583.061228 36.841818 
L 583.147933 236.006417 
L 583.754866 36.841818 
L 583.841571 236.006417 
L 584.231742 36.841818 
L 584.318447 236.006417 
L 584.75197 36.841818 
L 584.838675 236.006417 
L 585.445608 36.841818 
L 585.532313 236.006417 
L 585.965837 36.841818 
L 586.052541 236.006417 
L 586.659475 36.841818 
L 586.746179 236.006417 
L 587.136351 36.841818 
L 587.223055 236.006417 
L 587.656579 36.841818 
L 587.743284 236.006417 
L 588.350217 36.841818 
L 588.436922 236.006417 
L 588.899347 36.841818 
L 588.986052 236.006417 
L 589.592985 36.841818 
L 589.679689 236.006417 
L 590.069861 36.841818 
L 590.156566 236.006417 
L 590.590089 36.841818 
L 590.676794 236.006417 
L 591.283727 36.841818 
L 591.370432 236.006417 
L 591.803955 36.841818 
L 591.89066 236.006417 
L 592.497593 36.841818 
L 592.584298 236.006417 
L 592.974469 36.841818 
L 593.061174 236.006417 
L 593.494698 36.841818 
L 593.581403 236.006417 
L 594.188336 36.841818 
L 594.27504 236.006417 
L 594.708564 36.841818 
L 594.795269 236.006417 
L 595.402202 36.841818 
L 595.488907 236.006417 
L 595.879078 36.841818 
L 595.965783 236.006417 
L 596.428208 36.841818 
L 596.514913 236.006417 
L 597.121846 36.841818 
L 597.208551 236.006417 
L 597.642074 36.841818 
L 597.728779 236.006417 
L 598.335712 36.841818 
L 598.422417 236.006417 
L 598.812588 36.841818 
L 598.899293 236.006417 
L 599.332817 36.841818 
L 599.419521 236.006417 
L 600.026455 36.841818 
L 600.113159 236.006417 
L 600.546683 36.841818 
L 600.633388 236.006417 
L 601.240321 36.841818 
L 601.327026 236.006417 
L 601.717197 36.841818 
L 601.803902 236.006417 
L 602.237425 36.841818 
L 602.32413 236.006417 
L 602.931063 36.841818 
L 603.017768 236.006417 
L 603.480193 36.841818 
L 603.566898 236.006417 
L 604.173831 36.841818 
L 604.260536 236.006417 
L 604.650707 36.841818 
L 604.737412 236.006417 
L 605.170936 36.841818 
L 605.25764 236.006417 
L 605.864573 36.841818 
L 605.951278 236.006417 
L 606.384802 36.841818 
L 606.471507 236.006417 
L 607.07844 36.841818 
L 607.165145 236.006417 
L 607.555316 36.841818 
L 607.642021 236.006417 
L 608.075544 36.841818 
L 608.162249 236.006417 
L 608.769182 36.841818 
L 608.855887 236.006417 
L 609.289411 36.841818 
L 609.376115 236.006417 
L 609.983048 36.841818 
L 610.069753 236.006417 
L 610.459924 36.841818 
L 610.546629 236.006417 
L 610.980153 36.841818 
L 611.066858 236.006417 
L 611.644889 36.841818 
L 611.731594 236.006417 
L 612.194019 36.841818 
L 612.280724 236.006417 
L 613.075517 36.841818 
L 613.162222 236.006417 
L 613.523492 36.841818 
L 613.610197 236.006417 
L 614.058171 36.841818 
L 614.144876 236.006417 
L 614.939669 36.841818 
L 615.026374 236.006417 
L 615.50325 36.841818 
L 615.589955 236.006417 
L 616.876075 36.841818 
L 616.96278 236.006417 
L 617.352951 36.841818 
L 617.439656 236.006417 
L 617.88763 36.841818 
L 617.974335 236.006417 
L 618.595719 36.841818 
L 618.682424 236.006417 
L 619.332709 36.841818 
L 619.419414 236.006417 
L 619.997445 36.841818 
L 620.08415 236.006417 
L 620.488772 36.841818 
L 620.575477 236.006417 
L 621.196861 36.841818 
L 621.283566 236.006417 
L 624.636149 36.841818 
L 624.722853 236.006417 
L 625.156377 36.841818 
L 625.243082 236.006417 
L 625.850015 36.841818 
L 625.93672 236.006417 
L 626.326891 36.841818 
L 626.413596 236.006417 
L 626.84712 36.841818 
L 626.933824 236.006417 
L 627.540757 36.841818 
L 627.627462 236.006417 
L 628.060986 36.841818 
L 628.147691 236.006417 
L 628.754624 36.841818 
L 628.841328 236.006417 
L 629.2315 36.841818 
L 629.318204 236.006417 
L 629.78063 36.841818 
L 629.867334 236.006417 
L 630.474268 36.841818 
L 630.560972 236.006417 
L 630.994496 36.841818 
L 631.081201 236.006417 
L 631.688134 36.841818 
L 631.774839 236.006417 
L 632.16501 36.841818 
L 632.251715 236.006417 
L 632.685238 36.841818 
L 632.771943 236.006417 
L 633.378876 36.841818 
L 633.465581 236.006417 
L 633.899105 36.841818 
L 633.985809 236.006417 
L 634.592743 36.841818 
L 634.679447 236.006417 
L 635.069619 36.841818 
L 635.156323 236.006417 
L 635.589847 36.841818 
L 635.676552 236.006417 
L 636.283485 36.841818 
L 636.37019 236.006417 
L 636.832615 36.841818 
L 636.91932 236.006417 
L 637.526253 36.841818 
L 637.612958 236.006417 
L 638.003129 36.841818 
L 638.089834 236.006417 
L 638.523357 36.841818 
L 638.610062 236.006417 
L 639.216995 36.841818 
L 639.3037 236.006417 
L 639.737224 36.841818 
L 639.823928 236.006417 
L 640.430861 36.841818 
L 640.517566 236.006417 
L 640.907737 36.841818 
L 640.994442 236.006417 
L 641.427966 36.841818 
L 641.514671 236.006417 
L 642.121604 36.841818 
L 642.208309 236.006417 
L 642.641832 36.841818 
L 642.728537 236.006417 
L 643.33547 36.841818 
L 643.422175 236.006417 
L 643.812346 36.841818 
L 643.899051 236.006417 
L 644.361476 36.841818 
L 644.448181 236.006417 
L 645.055114 36.841818 
L 645.141819 236.006417 
L 645.575342 36.841818 
L 645.662047 236.006417 
L 646.26898 36.841818 
L 646.355685 236.006417 
L 646.745856 36.841818 
L 646.832561 236.006417 
L 647.266085 36.841818 
L 647.352789 236.006417 
L 647.959723 36.841818 
L 648.046427 236.006417 
L 648.479951 36.841818 
L 648.566656 236.006417 
L 649.173589 36.841818 
L 649.260294 236.006417 
L 649.650465 36.841818 
L 649.73717 236.006417 
L 650.170693 36.841818 
L 650.257398 236.006417 
L 650.864331 36.841818 
L 650.951036 236.006417 
L 651.413461 36.841818 
L 651.500166 236.006417 
L 652.107099 36.841818 
L 652.193804 236.006417 
L 652.583975 36.841818 
L 652.67068 236.006417 
L 653.104204 36.841818 
L 653.190908 236.006417 
L 653.797842 36.841818 
L 653.884546 236.006417 
L 654.31807 36.841818 
L 654.404775 236.006417 
L 655.011708 36.841818 
L 655.098413 236.006417 
L 655.488584 36.841818 
L 655.575289 236.006417 
L 656.008812 36.841818 
L 656.095517 236.006417 
L 656.70245 36.841818 
L 656.789155 236.006417 
L 657.222679 36.841818 
L 657.309383 236.006417 
L 657.916316 36.841818 
L 658.003021 236.006417 
L 658.393193 36.841818 
L 658.479897 236.006417 
L 658.942322 36.841818 
L 659.029027 236.006417 
L 659.63596 36.841818 
L 659.722665 236.006417 
L 660.156189 36.841818 
L 660.242894 236.006417 
L 660.849827 36.841818 
L 660.936531 236.006417 
L 661.326703 36.841818 
L 661.413407 236.006417 
L 661.846931 36.841818 
L 661.933636 236.006417 
L 662.540569 36.841818 
L 662.627274 236.006417 
L 663.060797 36.841818 
L 663.147502 236.006417 
L 663.754435 36.841818 
L 663.84114 236.006417 
L 664.231311 36.841818 
L 664.318016 236.006417 
L 664.75154 36.841818 
L 664.838245 236.006417 
L 665.445178 36.841818 
L 665.531882 236.006417 
L 665.994308 36.841818 
L 666.081012 236.006417 
L 666.687946 36.841818 
L 666.77465 236.006417 
L 667.164822 36.841818 
L 667.251526 236.006417 
L 667.68505 36.841818 
L 667.771755 236.006417 
L 668.378688 36.841818 
L 668.465393 236.006417 
L 668.898916 36.841818 
L 668.985621 236.006417 
L 669.592554 36.841818 
L 669.679259 236.006417 
L 670.06943 36.841818 
L 670.156135 236.006417 
L 670.589659 36.841818 
L 670.676363 236.006417 
L 671.283297 36.841818 
L 671.370001 236.006417 
L 671.803525 36.841818 
L 671.89023 236.006417 
L 672.497163 36.841818 
L 672.583868 236.006417 
L 672.974039 36.841818 
L 673.060744 236.006417 
L 673.523169 36.841818 
L 673.609874 236.006417 
L 674.216807 36.841818 
L 674.303512 236.006417 
L 674.737035 36.841818 
L 674.82374 236.006417 
L 675.430673 36.841818 
L 675.517378 236.006417 
L 675.907549 36.841818 
L 675.994254 236.006417 
L 676.427778 36.841818 
L 676.514482 236.006417 
L 677.121415 36.841818 
L 677.20812 236.006417 
L 677.641644 36.841818 
L 677.728349 236.006417 
L 678.335282 36.841818 
L 678.421986 236.006417 
L 678.812158 36.841818 
L 678.898862 236.006417 
L 679.332386 36.841818 
L 679.419091 236.006417 
L 679.419091 236.006417 
" clip-path="url(#pd5f375b7c3)" style="fill: none; stroke: #1f77b4; stroke-width: 1.5; stroke-linecap: square"/>
   </g>
   <g id="patch_3">
    <path d="M 54.02 246.04 
L 54.02 26.88 
" style="fill: none; stroke: #000000; stroke-width: 0.8; stroke-linejoin: miter; stroke-linecap: square"/>
   </g>
   <g id="patch_4">
    <path d="M 709.2 246.04 
L 709.2 26.88 
" style="fill: none; stroke: #000000; stroke-width: 0.8; stroke-linejoin: miter; stroke-linecap: square"/>
   </g>
   <g id="patch_5">
    <path d="M 54.02 246.04 
L 709.2 246.04 
" style="fill: none; stroke: #000000; stroke-width: 0.8; stroke-linejoin: miter; stroke-linecap: square"/>
   </g>
   <g id="patch_6">
    <path d="M 54.02 26.88 
L 709.2 26.88 
" style="fill: none; stroke: #000000; stroke-width: 0.8; stroke-linejoin: miter; stroke-linecap: square"/>
   </g>
   <g id="text_14">
    <!-- receptionState:vector (HandoverShowcase.ap2.wlan[0].radio) -->
    <g transform="translate(195.7375 20.88) scale(0.12 -0.12)">
     <defs>
      <path id="DejaVuSans-72" d="M 2631 2963 
Q 2534 3019 2420 3045 
Q 2306 3072 2169 3072 
Q 1681 3072 1420 2755 
Q 1159 2438 1159 1844 
L 1159 0 
L 581 0 
L 581 3500 
L 1159 3500 
L 1159 2956 
Q 1341 3275 1631 3429 
Q 1922 3584 2338 3584 
Q 2397 3584 2469 3576 
Q 2541 3569 2628 3553 
L 2631 2963 
z
" transform="scale(0.015625)"/>
      <path id="DejaVuSans-63" d="M 3122 3366 
L 3122 2828 
Q 2878 2963 2633 3030 
Q 2388 3097 2138 3097 
Q 1578 3097 1268 2742 
Q 959 2388 959 1747 
Q 959 1106 1268 751 
Q 1578 397 2138 397 
Q 2388 397 2633 464 
Q 2878 531 3122 666 
L 3122 134 
Q 2881 22 2623 -34 
Q 2366 -91 2075 -91 
Q 1284 -91 818 406 
Q 353 903 353 1747 
Q 353 2603 823 3093 
Q 1294 3584 2113 3584 
Q 2378 3584 2631 3529 
Q 2884 3475 3122 3366 
z
" transform="scale(0.015625)"/>
      <path id="DejaVuSans-70" d="M 1159 525 
L 1159 -1331 
L 581 -1331 
L 581 3500 
L 1159 3500 
L 1159 2969 
Q 1341 3281 1617 3432 
Q 1894 3584 2278 3584 
Q 2916 3584 3314 3078 
Q 3713 2572 3713 1747 
Q 3713 922 3314 415 
Q 2916 -91 2278 -91 
Q 1894 -91 1617 61 
Q 1341 213 1159 525 
z
M 3116 1747 
Q 3116 2381 2855 2742 
Q 2594 3103 2138 3103 
Q 1681 3103 1420 2742 
Q 1159 2381 1159 1747 
Q 1159 1113 1420 752 
Q 1681 391 2138 391 
Q 2594 391 2855 752 
Q 3116 1113 3116 1747 
z
" transform="scale(0.015625)"/>
      <path id="DejaVuSans-6f" d="M 1959 3097 
Q 1497 3097 1228 2736 
Q 959 2375 959 1747 
Q 959 1119 1226 758 
Q 1494 397 1959 397 
Q 2419 397 2687 759 
Q 2956 1122 2956 1747 
Q 2956 2369 2687 2733 
Q 2419 3097 1959 3097 
z
M 1959 3584 
Q 2709 3584 3137 3096 
Q 3566 2609 3566 1747 
Q 3566 888 3137 398 
Q 2709 -91 1959 -91 
Q 1206 -91 779 398 
Q 353 888 353 1747 
Q 353 2609 779 3096 
Q 1206 3584 1959 3584 
z
" transform="scale(0.015625)"/>
      <path id="DejaVuSans-6e" d="M 3513 2113 
L 3513 0 
L 2938 0 
L 2938 2094 
Q 2938 2591 2744 2837 
Q 2550 3084 2163 3084 
Q 1697 3084 1428 2787 
Q 1159 2491 1159 1978 
L 1159 0 
L 581 0 
L 581 3500 
L 1159 3500 
L 1159 2956 
Q 1366 3272 1645 3428 
Q 1925 3584 2291 3584 
Q 2894 3584 3203 3211 
Q 3513 2838 3513 2113 
z
" transform="scale(0.015625)"/>
      <path id="DejaVuSans-53" d="M 3425 4513 
L 3425 3897 
Q 3066 4069 2747 4153 
Q 2428 4238 2131 4238 
Q 1616 4238 1336 4038 
Q 1056 3838 1056 3469 
Q 1056 3159 1242 3001 
Q 1428 2844 1947 2747 
L 2328 2669 
Q 3034 2534 3370 2195 
Q 3706 1856 3706 1288 
Q 3706 609 3251 259 
Q 2797 -91 1919 -91 
Q 1588 -91 1214 -16 
Q 841 59 441 206 
L 441 856 
Q 825 641 1194 531 
Q 1563 422 1919 422 
Q 2459 422 2753 634 
Q 3047 847 3047 1241 
Q 3047 1584 2836 1778 
Q 2625 1972 2144 2069 
L 1759 2144 
Q 1053 2284 737 2584 
Q 422 2884 422 3419 
Q 422 4038 858 4394 
Q 1294 4750 2059 4750 
Q 2388 4750 2728 4690 
Q 3069 4631 3425 4513 
z
" transform="scale(0.015625)"/>
      <path id="DejaVuSans-3a" d="M 750 794 
L 1409 794 
L 1409 0 
L 750 0 
L 750 794 
z
M 750 3309 
L 1409 3309 
L 1409 2516 
L 750 2516 
L 750 3309 
z
" transform="scale(0.015625)"/>
      <path id="DejaVuSans-76" d="M 191 3500 
L 800 3500 
L 1894 563 
L 2988 3500 
L 3597 3500 
L 2284 0 
L 1503 0 
L 191 3500 
z
" transform="scale(0.015625)"/>
      <path id="DejaVuSans-48" d="M 628 4666 
L 1259 4666 
L 1259 2753 
L 3553 2753 
L 3553 4666 
L 4184 4666 
L 4184 0 
L 3553 0 
L 3553 2222 
L 1259 2222 
L 1259 0 
L 628 0 
L 628 4666 
z
" transform="scale(0.015625)"/>
      <path id="DejaVuSans-64" d="M 2906 2969 
L 2906 4863 
L 3481 4863 
L 3481 0 
L 2906 0 
L 2906 525 
Q 2725 213 2448 61 
Q 2172 -91 1784 -91 
Q 1150 -91 751 415 
Q 353 922 353 1747 
Q 353 2572 751 3078 
Q 1150 3584 1784 3584 
Q 2172 3584 2448 3432 
Q 2725 3281 2906 2969 
z
M 947 1747 
Q 947 1113 1208 752 
Q 1469 391 1925 391 
Q 2381 391 2643 752 
Q 2906 1113 2906 1747 
Q 2906 2381 2643 2742 
Q 2381 3103 1925 3103 
Q 1469 3103 1208 2742 
Q 947 2381 947 1747 
z
" transform="scale(0.015625)"/>
      <path id="DejaVuSans-68" d="M 3513 2113 
L 3513 0 
L 2938 0 
L 2938 2094 
Q 2938 2591 2744 2837 
Q 2550 3084 2163 3084 
Q 1697 3084 1428 2787 
Q 1159 2491 1159 1978 
L 1159 0 
L 581 0 
L 581 4863 
L 1159 4863 
L 1159 2956 
Q 1366 3272 1645 3428 
Q 1925 3584 2291 3584 
Q 2894 3584 3203 3211 
Q 3513 2838 3513 2113 
z
" transform="scale(0.015625)"/>
      <path id="DejaVuSans-77" d="M 269 3500 
L 844 3500 
L 1563 769 
L 2278 3500 
L 2956 3500 
L 3675 769 
L 4391 3500 
L 4966 3500 
L 4050 0 
L 3372 0 
L 2619 2869 
L 1863 0 
L 1184 0 
L 269 3500 
z
" transform="scale(0.015625)"/>
      <path id="DejaVuSans-5b" d="M 550 4863 
L 1875 4863 
L 1875 4416 
L 1125 4416 
L 1125 -397 
L 1875 -397 
L 1875 -844 
L 550 -844 
L 550 4863 
z
" transform="scale(0.015625)"/>
      <path id="DejaVuSans-5d" d="M 1947 4863 
L 1947 -844 
L 622 -844 
L 622 -397 
L 1369 -397 
L 1369 4416 
L 622 4416 
L 622 4863 
L 1947 4863 
z
" transform="scale(0.015625)"/>
     </defs>
     <use xlink:href="#DejaVuSans-72"/>
     <use xlink:href="#DejaVuSans-65" x="38.863281"/>
     <use xlink:href="#DejaVuSans-63" x="100.386719"/>
     <use xlink:href="#DejaVuSans-65" x="155.367188"/>
     <use xlink:href="#DejaVuSans-70" x="216.890625"/>
     <use xlink:href="#DejaVuSans-74" x="280.367188"/>
     <use xlink:href="#DejaVuSans-69" x="319.576172"/>
     <use xlink:href="#DejaVuSans-6f" x="347.359375"/>
     <use xlink:href="#DejaVuSans-6e" x="408.541016"/>
     <use xlink:href="#DejaVuSans-53" x="471.919922"/>
     <use xlink:href="#DejaVuSans-74" x="535.396484"/>
     <use xlink:href="#DejaVuSans-61" x="574.605469"/>
     <use xlink:href="#DejaVuSans-74" x="635.884766"/>
     <use xlink:href="#DejaVuSans-65" x="675.09375"/>
     <use xlink:href="#DejaVuSans-3a" x="736.617188"/>
     <use xlink:href="#DejaVuSans-76" x="770.308594"/>
     <use xlink:href="#DejaVuSans-65" x="829.488281"/>
     <use xlink:href="#DejaVuSans-63" x="891.011719"/>
     <use xlink:href="#DejaVuSans-74" x="945.992188"/>
     <use xlink:href="#DejaVuSans-6f" x="985.201172"/>
     <use xlink:href="#DejaVuSans-72" x="1046.382812"/>
     <use xlink:href="#DejaVuSans-20" x="1087.496094"/>
     <use xlink:href="#DejaVuSans-28" x="1119.283203"/>
     <use xlink:href="#DejaVuSans-48" x="1158.296875"/>
     <use xlink:href="#DejaVuSans-61" x="1233.492188"/>
     <use xlink:href="#DejaVuSans-6e" x="1294.771484"/>
     <use xlink:href="#DejaVuSans-64" x="1358.150391"/>
     <use xlink:href="#DejaVuSans-6f" x="1421.626953"/>
     <use xlink:href="#DejaVuSans-76" x="1482.808594"/>
     <use xlink:href="#DejaVuSans-65" x="1541.988281"/>
     <use xlink:href="#DejaVuSans-72" x="1603.511719"/>
     <use xlink:href="#DejaVuSans-53" x="1644.625"/>
     <use xlink:href="#DejaVuSans-68" x="1708.101562"/>
     <use xlink:href="#DejaVuSans-6f" x="1771.480469"/>
     <use xlink:href="#DejaVuSans-77" x="1832.662109"/>
     <use xlink:href="#DejaVuSans-63" x="1914.449219"/>
     <use xlink:href="#DejaVuSans-61" x="1969.429688"/>
     <use xlink:href="#DejaVuSans-73" x="2030.708984"/>
     <use xlink:href="#DejaVuSans-65" x="2082.808594"/>
     <use xlink:href="#DejaVuSans-2e" x="2144.332031"/>
     <use xlink:href="#DejaVuSans-61" x="2176.119141"/>
     <use xlink:href="#DejaVuSans-70" x="2237.398438"/>
     <use xlink:href="#DejaVuSans-32" x="2300.875"/>
     <use xlink:href="#DejaVuSans-2e" x="2364.498047"/>
     <use xlink:href="#DejaVuSans-77" x="2396.285156"/>
     <use xlink:href="#DejaVuSans-6c" x="2478.072266"/>
     <use xlink:href="#DejaVuSans-61" x="2505.855469"/>
     <use xlink:href="#DejaVuSans-6e" x="2567.134766"/>
     <use xlink:href="#DejaVuSans-5b" x="2630.513672"/>
     <use xlink:href="#DejaVuSans-30" x="2669.527344"/>
     <use xlink:href="#DejaVuSans-5d" x="2733.150391"/>
     <use xlink:href="#DejaVuSans-2e" x="2772.164062"/>
     <use xlink:href="#DejaVuSans-72" x="2803.951172"/>
     <use xlink:href="#DejaVuSans-61" x="2845.064453"/>
     <use xlink:href="#DejaVuSans-64" x="2906.34375"/>
     <use xlink:href="#DejaVuSans-69" x="2969.820312"/>
     <use xlink:href="#DejaVuSans-6f" x="2997.603516"/>
     <use xlink:href="#DejaVuSans-29" x="3058.785156"/>
    </g>
   </g>
   <g id="legend_1">
    <g id="patch_7">
     <path d="M 576.717188 145.299062 
L 702.2 145.299062 
Q 704.2 145.299062 704.2 143.299062 
L 704.2 129.620937 
Q 704.2 127.620937 702.2 127.620937 
L 576.717188 127.620937 
Q 574.717188 127.620937 574.717188 129.620937 
L 574.717188 143.299062 
Q 574.717188 145.299062 576.717188 145.299062 
z
" style="fill: #ffffff; opacity: 0.8; stroke: #cccccc; stroke-linejoin: miter"/>
    </g>
    <g id="line2d_24">
     <path d="M 578.717188 135.719375 
L 588.717188 135.719375 
L 598.717188 135.719375 
" style="fill: none; stroke: #1f77b4; stroke-width: 1.5; stroke-linecap: square"/>
    </g>
    <g id="text_15">
     <!-- value per sample -->
     <g transform="translate(606.717188 139.219375) scale(0.1 -0.1)">
      <defs>
       <path id="DejaVuSans-394" d="M 2188 4044 
L 906 525 
L 3472 525 
L 2188 4044 
z
M 50 0 
L 1831 4666 
L 2547 4666 
L 4325 0 
L 50 0 
z
" transform="scale(0.015625)"/>
      </defs>
      <use xlink:href="#DejaVuSans-394"/>
      <use xlink:href="#DejaVuSans-76" x="68.408203"/>
      <use xlink:href="#DejaVuSans-61" x="127.587891"/>
      <use xlink:href="#DejaVuSans-6c" x="188.867188"/>
      <use xlink:href="#DejaVuSans-75" x="216.650391"/>
      <use xlink:href="#DejaVuSans-65" x="280.029297"/>
      <use xlink:href="#DejaVuSans-20" x="341.552734"/>
      <use xlink:href="#DejaVuSans-70" x="373.339844"/>
      <use xlink:href="#DejaVuSans-65" x="436.816406"/>
      <use xlink:href="#DejaVuSans-72" x="498.339844"/>
      <use xlink:href="#DejaVuSans-20" x="539.453125"/>
      <use xlink:href="#DejaVuSans-73" x="571.240234"/>
      <use xlink:href="#DejaVuSans-61" x="623.339844"/>
      <use xlink:href="#DejaVuSans-6d" x="684.619141"/>
      <use xlink:href="#DejaVuSans-70" x="782.03125"/>
      <use xlink:href="#DejaVuSans-6c" x="845.507812"/>
      <use xlink:href="#DejaVuSans-65" x="873.291016"/>
     </g>
    </g>
   </g>
  </g>
 </g>
 <defs>
  <clipPath id="pd5f375b7c3">
   <rect x="54.02" y="26.88" width="655.18" height="219.16"/>
  </clipPath>
 </defs>
</svg>
