<?xml version="1.0" encoding="utf-8" standalone="no"?>
<!DOCTYPE svg PUBLIC "-//W3C//DTD SVG 1.1//EN"
  "http://www.w3.org/Graphics/SVG/1.1/DTD/svg11.dtd">
<svg xmlns:xlink="http://www.w3.org/1999/xlink" width="720pt" height="288pt" viewBox="0 0 720 288" xmlns="http://www.w3.org/2000/svg" version="1.1">
 <metadata>
  <rdf:RDF xmlns:dc="http://purl.org/dc/elements/1.1/" xmlns:cc="http://creativecommons.org/ns#" xmlns:rdf="http://www.w3.org/1999/02/22-rdf-syntax-ns#">
   <cc:Work>
    <dc:type rdf:resource="http://purl.org/dc/dcmitype/StillImage"/>
    <dc:date>2025-07-27T15:08:45.462461</dc:date>
    <dc:format>image/svg+xml</dc:format>
    <dc:creator>
     <cc:Agent>
      <dc:title>Matplotlib v3.9.2, https://matplotlib.org/</dc:title>
     </cc:Agent>
    </dc:creator>
   </cc:Work>
  </rdf:RDF>
 </metadata>
 <defs>
  <style type="text/css">*{stroke-linejoin: round; stroke-linecap: butt}</style>
 </defs>
 <g id="figure_1">
  <g id="patch_1">
   <path d="M 0 288 
L 720 288 
L 720 0 
L 0 0 
z
" style="fill: #ffffff"/>
  </g>
  <g id="axes_1">
   <g id="patch_2">
    <path d="M 56.09 246.04 
L 709.2 246.04 
L 709.2 37.8 
L 56.09 37.8 
z
" style="fill: #ffffff"/>
   </g>
   <g id="matplotlib.axis_1">
    <g id="xtick_1">
     <g id="line2d_1">
      <path d="M 84.896482 246.04 
L 84.896482 37.8 
" clip-path="url(#pa1d00609f9)" style="fill: none; stroke: #b0b0b0; stroke-width: 0.8; stroke-linecap: square"/>
     </g>
     <g id="line2d_2">
      <defs>
       <path id="mdc1937bb11" d="M 0 0 
L 0 3.5 
" style="stroke: #000000; stroke-width: 0.8"/>
      </defs>
      <g>
       <use xlink:href="#mdc1937bb11" x="84.896482" y="246.04" style="stroke: #000000; stroke-width: 0.8"/>
      </g>
     </g>
     <g id="text_1">
      <!-- 0 -->
      <g transform="translate(81.715232 260.638438) scale(0.1 -0.1)">
       <defs>
        <path id="DejaVuSans-30" d="M 2034 4250 
Q 1547 4250 1301 3770 
Q 1056 3291 1056 2328 
Q 1056 1369 1301 889 
Q 1547 409 2034 409 
Q 2525 409 2770 889 
Q 3016 1369 3016 2328 
Q 3016 3291 2770 3770 
Q 2525 4250 2034 4250 
z
M 2034 4750 
Q 2819 4750 3233 4129 
Q 3647 3509 3647 2328 
Q 3647 1150 3233 529 
Q 2819 -91 2034 -91 
Q 1250 -91 836 529 
Q 422 1150 422 2328 
Q 422 3509 836 4129 
Q 1250 4750 2034 4750 
z
" transform="scale(0.015625)"/>
       </defs>
       <use xlink:href="#DejaVuSans-30"/>
      </g>
     </g>
    </g>
    <g id="xtick_2">
     <g id="line2d_3">
      <path d="M 229.213918 246.04 
L 229.213918 37.8 
" clip-path="url(#pa1d00609f9)" style="fill: none; stroke: #b0b0b0; stroke-width: 0.8; stroke-linecap: square"/>
     </g>
     <g id="line2d_4">
      <g>
       <use xlink:href="#mdc1937bb11" x="229.213918" y="246.04" style="stroke: #000000; stroke-width: 0.8"/>
      </g>
     </g>
     <g id="text_2">
      <!-- 10000 -->
      <g transform="translate(213.307668 260.638438) scale(0.1 -0.1)">
       <defs>
        <path id="DejaVuSans-31" d="M 794 531 
L 1825 531 
L 1825 4091 
L 703 3866 
L 703 4441 
L 1819 4666 
L 2450 4666 
L 2450 531 
L 3481 531 
L 3481 0 
L 794 0 
L 794 531 
z
" transform="scale(0.015625)"/>
       </defs>
       <use xlink:href="#DejaVuSans-31"/>
       <use xlink:href="#DejaVuSans-30" x="63.623047"/>
       <use xlink:href="#DejaVuSans-30" x="127.246094"/>
       <use xlink:href="#DejaVuSans-30" x="190.869141"/>
       <use xlink:href="#DejaVuSans-30" x="254.492188"/>
      </g>
     </g>
    </g>
    <g id="xtick_3">
     <g id="line2d_5">
      <path d="M 373.531354 246.04 
L 373.531354 37.8 
" clip-path="url(#pa1d00609f9)" style="fill: none; stroke: #b0b0b0; stroke-width: 0.8; stroke-linecap: square"/>
     </g>
     <g id="line2d_6">
      <g>
       <use xlink:href="#mdc1937bb11" x="373.531354" y="246.04" style="stroke: #000000; stroke-width: 0.8"/>
      </g>
     </g>
     <g id="text_3">
      <!-- 20000 -->
      <g transform="translate(357.625104 260.638438) scale(0.1 -0.1)">
       <defs>
        <path id="DejaVuSans-32" d="M 1228 531 
L 3431 531 
L 3431 0 
L 469 0 
L 469 531 
Q 828 903 1448 1529 
Q 2069 2156 2228 2338 
Q 2531 2678 2651 2914 
Q 2772 3150 2772 3378 
Q 2772 3750 2511 3984 
Q 2250 4219 1831 4219 
Q 1534 4219 1204 4116 
Q 875 4013 500 3803 
L 500 4441 
Q 881 4594 1212 4672 
Q 1544 4750 1819 4750 
Q 2544 4750 2975 4387 
Q 3406 4025 3406 3419 
Q 3406 3131 3298 2873 
Q 3191 2616 2906 2266 
Q 2828 2175 2409 1742 
Q 1991 1309 1228 531 
z
" transform="scale(0.015625)"/>
       </defs>
       <use xlink:href="#DejaVuSans-32"/>
       <use xlink:href="#DejaVuSans-30" x="63.623047"/>
       <use xlink:href="#DejaVuSans-30" x="127.246094"/>
       <use xlink:href="#DejaVuSans-30" x="190.869141"/>
       <use xlink:href="#DejaVuSans-30" x="254.492188"/>
      </g>
     </g>
    </g>
    <g id="xtick_4">
     <g id="line2d_7">
      <path d="M 517.84879 246.04 
L 517.84879 37.8 
" clip-path="url(#pa1d00609f9)" style="fill: none; stroke: #b0b0b0; stroke-width: 0.8; stroke-linecap: square"/>
     </g>
     <g id="line2d_8">
      <g>
       <use xlink:href="#mdc1937bb11" x="517.84879" y="246.04" style="stroke: #000000; stroke-width: 0.8"/>
      </g>
     </g>
     <g id="text_4">
      <!-- 30000 -->
      <g transform="translate(501.94254 260.638438) scale(0.1 -0.1)">
       <defs>
        <path id="DejaVuSans-33" d="M 2597 2516 
Q 3050 2419 3304 2112 
Q 3559 1806 3559 1356 
Q 3559 666 3084 287 
Q 2609 -91 1734 -91 
Q 1441 -91 1130 -33 
Q 819 25 488 141 
L 488 750 
Q 750 597 1062 519 
Q 1375 441 1716 441 
Q 2309 441 2620 675 
Q 2931 909 2931 1356 
Q 2931 1769 2642 2001 
Q 2353 2234 1838 2234 
L 1294 2234 
L 1294 2753 
L 1863 2753 
Q 2328 2753 2575 2939 
Q 2822 3125 2822 3475 
Q 2822 3834 2567 4026 
Q 2313 4219 1838 4219 
Q 1578 4219 1281 4162 
Q 984 4106 628 3988 
L 628 4550 
Q 988 4650 1302 4700 
Q 1616 4750 1894 4750 
Q 2613 4750 3031 4423 
Q 3450 4097 3450 3541 
Q 3450 3153 3228 2886 
Q 3006 2619 2597 2516 
z
" transform="scale(0.015625)"/>
       </defs>
       <use xlink:href="#DejaVuSans-33"/>
       <use xlink:href="#DejaVuSans-30" x="63.623047"/>
       <use xlink:href="#DejaVuSans-30" x="127.246094"/>
       <use xlink:href="#DejaVuSans-30" x="190.869141"/>
       <use xlink:href="#DejaVuSans-30" x="254.492188"/>
      </g>
     </g>
    </g>
    <g id="xtick_5">
     <g id="line2d_9">
      <path d="M 662.166226 246.04 
L 662.166226 37.8 
" clip-path="url(#pa1d00609f9)" style="fill: none; stroke: #b0b0b0; stroke-width: 0.8; stroke-linecap: square"/>
     </g>
     <g id="line2d_10">
      <g>
       <use xlink:href="#mdc1937bb11" x="662.166226" y="246.04" style="stroke: #000000; stroke-width: 0.8"/>
      </g>
     </g>
     <g id="text_5">
      <!-- 40000 -->
      <g transform="translate(646.259976 260.638438) scale(0.1 -0.1)">
       <defs>
        <path id="DejaVuSans-34" d="M 2419 4116 
L 825 1625 
L 2419 1625 
L 2419 4116 
z
M 2253 4666 
L 3047 4666 
L 3047 1625 
L 3713 1625 
L 3713 1100 
L 3047 1100 
L 3047 0 
L 2419 0 
L 2419 1100 
L 313 1100 
L 313 1709 
L 2253 4666 
z
" transform="scale(0.015625)"/>
       </defs>
       <use xlink:href="#DejaVuSans-34"/>
       <use xlink:href="#DejaVuSans-30" x="63.623047"/>
       <use xlink:href="#DejaVuSans-30" x="127.246094"/>
       <use xlink:href="#DejaVuSans-30" x="190.869141"/>
       <use xlink:href="#DejaVuSans-30" x="254.492188"/>
      </g>
     </g>
    </g>
    <g id="text_6">
     <!-- Time (s) -->
     <g transform="translate(362.316094 274.316562) scale(0.1 -0.1)">
      <defs>
       <path id="DejaVuSans-54" d="M -19 4666 
L 3928 4666 
L 3928 4134 
L 2272 4134 
L 2272 0 
L 1638 0 
L 1638 4134 
L -19 4134 
L -19 4666 
z
" transform="scale(0.015625)"/>
       <path id="DejaVuSans-69" d="M 603 3500 
L 1178 3500 
L 1178 0 
L 603 0 
L 603 3500 
z
M 603 4863 
L 1178 4863 
L 1178 4134 
L 603 4134 
L 603 4863 
z
" transform="scale(0.015625)"/>
       <path id="DejaVuSans-6d" d="M 3328 2828 
Q 3544 3216 3844 3400 
Q 4144 3584 4550 3584 
Q 5097 3584 5394 3201 
Q 5691 2819 5691 2113 
L 5691 0 
L 5113 0 
L 5113 2094 
Q 5113 2597 4934 2840 
Q 4756 3084 4391 3084 
Q 3944 3084 3684 2787 
Q 3425 2491 3425 1978 
L 3425 0 
L 2847 0 
L 2847 2094 
Q 2847 2600 2669 2842 
Q 2491 3084 2119 3084 
Q 1678 3084 1418 2786 
Q 1159 2488 1159 1978 
L 1159 0 
L 581 0 
L 581 3500 
L 1159 3500 
L 1159 2956 
Q 1356 3278 1631 3431 
Q 1906 3584 2284 3584 
Q 2666 3584 2933 3390 
Q 3200 3197 3328 2828 
z
" transform="scale(0.015625)"/>
       <path id="DejaVuSans-65" d="M 3597 1894 
L 3597 1613 
L 953 1613 
Q 991 1019 1311 708 
Q 1631 397 2203 397 
Q 2534 397 2845 478 
Q 3156 559 3463 722 
L 3463 178 
Q 3153 47 2828 -22 
Q 2503 -91 2169 -91 
Q 1331 -91 842 396 
Q 353 884 353 1716 
Q 353 2575 817 3079 
Q 1281 3584 2069 3584 
Q 2775 3584 3186 3129 
Q 3597 2675 3597 1894 
z
M 3022 2063 
Q 3016 2534 2758 2815 
Q 2500 3097 2075 3097 
Q 1594 3097 1305 2825 
Q 1016 2553 972 2059 
L 3022 2063 
z
" transform="scale(0.015625)"/>
       <path id="DejaVuSans-20" transform="scale(0.015625)"/>
       <path id="DejaVuSans-28" d="M 1984 4856 
Q 1566 4138 1362 3434 
Q 1159 2731 1159 2009 
Q 1159 1288 1364 580 
Q 1569 -128 1984 -844 
L 1484 -844 
Q 1016 -109 783 600 
Q 550 1309 550 2009 
Q 550 2706 781 3412 
Q 1013 4119 1484 4856 
L 1984 4856 
z
" transform="scale(0.015625)"/>
       <path id="DejaVuSans-73" d="M 2834 3397 
L 2834 2853 
Q 2591 2978 2328 3040 
Q 2066 3103 1784 3103 
Q 1356 3103 1142 2972 
Q 928 2841 928 2578 
Q 928 2378 1081 2264 
Q 1234 2150 1697 2047 
L 1894 2003 
Q 2506 1872 2764 1633 
Q 3022 1394 3022 966 
Q 3022 478 2636 193 
Q 2250 -91 1575 -91 
Q 1294 -91 989 -36 
Q 684 19 347 128 
L 347 722 
Q 666 556 975 473 
Q 1284 391 1588 391 
Q 1994 391 2212 530 
Q 2431 669 2431 922 
Q 2431 1156 2273 1281 
Q 2116 1406 1581 1522 
L 1381 1569 
Q 847 1681 609 1914 
Q 372 2147 372 2553 
Q 372 3047 722 3315 
Q 1072 3584 1716 3584 
Q 2034 3584 2315 3537 
Q 2597 3491 2834 3397 
z
" transform="scale(0.015625)"/>
       <path id="DejaVuSans-29" d="M 513 4856 
L 1013 4856 
Q 1481 4119 1714 3412 
Q 1947 2706 1947 2009 
Q 1947 1309 1714 600 
Q 1481 -109 1013 -844 
L 513 -844 
Q 928 -128 1133 580 
Q 1338 1288 1338 2009 
Q 1338 2731 1133 3434 
Q 928 4138 513 4856 
z
" transform="scale(0.015625)"/>
      </defs>
      <use xlink:href="#DejaVuSans-54"/>
      <use xlink:href="#DejaVuSans-69" x="57.958984"/>
      <use xlink:href="#DejaVuSans-6d" x="85.742188"/>
      <use xlink:href="#DejaVuSans-65" x="183.154297"/>
      <use xlink:href="#DejaVuSans-20" x="244.677734"/>
      <use xlink:href="#DejaVuSans-28" x="276.464844"/>
      <use xlink:href="#DejaVuSans-73" x="315.478516"/>
      <use xlink:href="#DejaVuSans-29" x="367.578125"/>
     </g>
    </g>
   </g>
   <g id="matplotlib.axis_2">
    <g id="ytick_1">
     <g id="line2d_11">
      <path d="M 56.09 240.75 
L 709.2 240.75 
" clip-path="url(#pa1d00609f9)" style="fill: none; stroke: #b0b0b0; stroke-width: 0.8; stroke-linecap: square"/>
     </g>
     <g id="line2d_12">
      <defs>
       <path id="mc87b7be670" d="M 0 0 
L -3.5 0 
" style="stroke: #000000; stroke-width: 0.8"/>
      </defs>
      <g>
       <use xlink:href="#mc87b7be670" x="56.09" y="240.75" style="stroke: #000000; stroke-width: 0.8"/>
      </g>
     </g>
     <g id="text_7">
      <!-- −0.6 -->
      <g transform="translate(24.807188 244.549219) scale(0.1 -0.1)">
       <defs>
        <path id="DejaVuSans-2212" d="M 678 2272 
L 4684 2272 
L 4684 1741 
L 678 1741 
L 678 2272 
z
" transform="scale(0.015625)"/>
        <path id="DejaVuSans-2e" d="M 684 794 
L 1344 794 
L 1344 0 
L 684 0 
L 684 794 
z
" transform="scale(0.015625)"/>
        <path id="DejaVuSans-36" d="M 2113 2584 
Q 1688 2584 1439 2293 
Q 1191 2003 1191 1497 
Q 1191 994 1439 701 
Q 1688 409 2113 409 
Q 2538 409 2786 701 
Q 3034 994 3034 1497 
Q 3034 2003 2786 2293 
Q 2538 2584 2113 2584 
z
M 3366 4563 
L 3366 3988 
Q 3128 4100 2886 4159 
Q 2644 4219 2406 4219 
Q 1781 4219 1451 3797 
Q 1122 3375 1075 2522 
Q 1259 2794 1537 2939 
Q 1816 3084 2150 3084 
Q 2853 3084 3261 2657 
Q 3669 2231 3669 1497 
Q 3669 778 3244 343 
Q 2819 -91 2113 -91 
Q 1303 -91 875 529 
Q 447 1150 447 2328 
Q 447 3434 972 4092 
Q 1497 4750 2381 4750 
Q 2619 4750 2861 4703 
Q 3103 4656 3366 4563 
z
" transform="scale(0.015625)"/>
       </defs>
       <use xlink:href="#DejaVuSans-2212"/>
       <use xlink:href="#DejaVuSans-30" x="83.789062"/>
       <use xlink:href="#DejaVuSans-2e" x="147.412109"/>
       <use xlink:href="#DejaVuSans-36" x="179.199219"/>
      </g>
     </g>
    </g>
    <g id="ytick_2">
     <g id="line2d_13">
      <path d="M 56.09 214.25 
L 709.2 214.25 
" clip-path="url(#pa1d00609f9)" style="fill: none; stroke: #b0b0b0; stroke-width: 0.8; stroke-linecap: square"/>
     </g>
     <g id="line2d_14">
      <g>
       <use xlink:href="#mc87b7be670" x="56.09" y="214.25" style="stroke: #000000; stroke-width: 0.8"/>
      </g>
     </g>
     <g id="text_8">
      <!-- −0.4 -->
      <g transform="translate(24.807188 218.049219) scale(0.1 -0.1)">
       <use xlink:href="#DejaVuSans-2212"/>
       <use xlink:href="#DejaVuSans-30" x="83.789062"/>
       <use xlink:href="#DejaVuSans-2e" x="147.412109"/>
       <use xlink:href="#DejaVuSans-34" x="179.199219"/>
      </g>
     </g>
    </g>
    <g id="ytick_3">
     <g id="line2d_15">
      <path d="M 56.09 187.5 
L 709.2 187.5 
" clip-path="url(#pa1d00609f9)" style="fill: none; stroke: #b0b0b0; stroke-width: 0.8; stroke-linecap: square"/>
     </g>
     <g id="line2d_16">
      <g>
       <use xlink:href="#mc87b7be670" x="56.09" y="187.5" style="stroke: #000000; stroke-width: 0.8"/>
      </g>
     </g>
     <g id="text_9">
      <!-- −0.2 -->
      <g transform="translate(24.807188 191.299219) scale(0.1 -0.1)">
       <use xlink:href="#DejaVuSans-2212"/>
       <use xlink:href="#DejaVuSans-30" x="83.789062"/>
       <use xlink:href="#DejaVuSans-2e" x="147.412109"/>
       <use xlink:href="#DejaVuSans-32" x="179.199219"/>
      </g>
     </g>
    </g>
    <g id="ytick_4">
     <g id="line2d_17">
      <path d="M 56.09 161 
L 709.2 161 
" clip-path="url(#pa1d00609f9)" style="fill: none; stroke: #b0b0b0; stroke-width: 0.8; stroke-linecap: square"/>
     </g>
     <g id="line2d_18">
      <g>
       <use xlink:href="#mc87b7be670" x="56.09" y="161" style="stroke: #000000; stroke-width: 0.8"/>
      </g>
     </g>
     <g id="text_10">
      <!-- 0.0 -->
      <g transform="translate(33.186875 164.799219) scale(0.1 -0.1)">
       <use xlink:href="#DejaVuSans-30"/>
       <use xlink:href="#DejaVuSans-2e" x="63.623047"/>
       <use xlink:href="#DejaVuSans-30" x="95.410156"/>
      </g>
     </g>
    </g>
    <g id="ytick_5">
     <g id="line2d_19">
      <path d="M 56.09 134.25 
L 709.2 134.25 
" clip-path="url(#pa1d00609f9)" style="fill: none; stroke: #b0b0b0; stroke-width: 0.8; stroke-linecap: square"/>
     </g>
     <g id="line2d_20">
      <g>
       <use xlink:href="#mc87b7be670" x="56.09" y="134.25" style="stroke: #000000; stroke-width: 0.8"/>
      </g>
     </g>
     <g id="text_11">
      <!-- 0.2 -->
      <g transform="translate(33.186875 138.049219) scale(0.1 -0.1)">
       <use xlink:href="#DejaVuSans-30"/>
       <use xlink:href="#DejaVuSans-2e" x="63.623047"/>
       <use xlink:href="#DejaVuSans-32" x="95.410156"/>
      </g>
     </g>
    </g>
    <g id="ytick_6">
     <g id="line2d_21">
      <path d="M 56.09 107.75 
L 709.2 107.75 
" clip-path="url(#pa1d00609f9)" style="fill: none; stroke: #b0b0b0; stroke-width: 0.8; stroke-linecap: square"/>
     </g>
     <g id="line2d_22">
      <g>
       <use xlink:href="#mc87b7be670" x="56.09" y="107.75" style="stroke: #000000; stroke-width: 0.8"/>
      </g>
     </g>
     <g id="text_12">
      <!-- 0.4 -->
      <g transform="translate(33.186875 111.549219) scale(0.1 -0.1)">
       <use xlink:href="#DejaVuSans-30"/>
       <use xlink:href="#DejaVuSans-2e" x="63.623047"/>
       <use xlink:href="#DejaVuSans-34" x="95.410156"/>
      </g>
     </g>
    </g>
    <g id="ytick_7">
     <g id="line2d_23">
      <path d="M 56.09 81 
L 709.2 81 
" clip-path="url(#pa1d00609f9)" style="fill: none; stroke: #b0b0b0; stroke-width: 0.8; stroke-linecap: square"/>
     </g>
     <g id="line2d_24">
      <g>
       <use xlink:href="#mc87b7be670" x="56.09" y="81" style="stroke: #000000; stroke-width: 0.8"/>
      </g>
     </g>
     <g id="text_13">
      <!-- 0.6 -->
      <g transform="translate(33.186875 84.799219) scale(0.1 -0.1)">
       <use xlink:href="#DejaVuSans-30"/>
       <use xlink:href="#DejaVuSans-2e" x="63.623047"/>
       <use xlink:href="#DejaVuSans-36" x="95.410156"/>
      </g>
     </g>
    </g>
    <g id="ytick_8">
     <g id="line2d_25">
      <path d="M 56.09 54.5 
L 709.2 54.5 
" clip-path="url(#pa1d00609f9)" style="fill: none; stroke: #b0b0b0; stroke-width: 0.8; stroke-linecap: square"/>
     </g>
     <g id="line2d_26">
      <g>
       <use xlink:href="#mc87b7be670" x="56.09" y="54.5" style="stroke: #000000; stroke-width: 0.8"/>
      </g>
     </g>
     <g id="text_14">
      <!-- 0.8 -->
      <g transform="translate(33.186875 58.299219) scale(0.1 -0.1)">
       <defs>
        <path id="DejaVuSans-38" d="M 2034 2216 
Q 1584 2216 1326 1975 
Q 1069 1734 1069 1313 
Q 1069 891 1326 650 
Q 1584 409 2034 409 
Q 2484 409 2743 651 
Q 3003 894 3003 1313 
Q 3003 1734 2745 1975 
Q 2488 2216 2034 2216 
z
M 1403 2484 
Q 997 2584 770 2862 
Q 544 3141 544 3541 
Q 544 4100 942 4425 
Q 1341 4750 2034 4750 
Q 2731 4750 3128 4425 
Q 3525 4100 3525 3541 
Q 3525 3141 3298 2862 
Q 3072 2584 2669 2484 
Q 3125 2378 3379 2068 
Q 3634 1759 3634 1313 
Q 3634 634 3220 271 
Q 2806 -91 2034 -91 
Q 1263 -91 848 271 
Q 434 634 434 1313 
Q 434 1759 690 2068 
Q 947 2378 1403 2484 
z
M 1172 3481 
Q 1172 3119 1398 2916 
Q 1625 2713 2034 2713 
Q 2441 2713 2670 2916 
Q 2900 3119 2900 3481 
Q 2900 3844 2670 4047 
Q 2441 4250 2034 4250 
Q 1625 4250 1398 4047 
Q 1172 3844 1172 3481 
z
" transform="scale(0.015625)"/>
       </defs>
       <use xlink:href="#DejaVuSans-30"/>
       <use xlink:href="#DejaVuSans-2e" x="63.623047"/>
       <use xlink:href="#DejaVuSans-38" x="95.410156"/>
      </g>
     </g>
    </g>
    <g id="text_15">
     <!-- Delta Value -->
     <g transform="translate(18.7275 170.580156) rotate(-90) scale(0.1 -0.1)">
      <defs>
       <path id="DejaVuSans-44" d="M 1259 4147 
L 1259 519 
L 2022 519 
Q 2988 519 3436 956 
Q 3884 1394 3884 2338 
Q 3884 3275 3436 3711 
Q 2988 4147 2022 4147 
L 1259 4147 
z
M 628 4666 
L 1925 4666 
Q 3281 4666 3915 4102 
Q 4550 3538 4550 2338 
Q 4550 1131 3912 565 
Q 3275 0 1925 0 
L 628 0 
L 628 4666 
z
" transform="scale(0.015625)"/>
       <path id="DejaVuSans-6c" d="M 603 4863 
L 1178 4863 
L 1178 0 
L 603 0 
L 603 4863 
z
" transform="scale(0.015625)"/>
       <path id="DejaVuSans-74" d="M 1172 4494 
L 1172 3500 
L 2356 3500 
L 2356 3053 
L 1172 3053 
L 1172 1153 
Q 1172 725 1289 603 
Q 1406 481 1766 481 
L 2356 481 
L 2356 0 
L 1766 0 
Q 1100 0 847 248 
Q 594 497 594 1153 
L 594 3053 
L 172 3053 
L 172 3500 
L 594 3500 
L 594 4494 
L 1172 4494 
z
" transform="scale(0.015625)"/>
       <path id="DejaVuSans-61" d="M 2194 1759 
Q 1497 1759 1228 1600 
Q 959 1441 959 1056 
Q 959 750 1161 570 
Q 1363 391 1709 391 
Q 2188 391 2477 730 
Q 2766 1069 2766 1631 
L 2766 1759 
L 2194 1759 
z
M 3341 1997 
L 3341 0 
L 2766 0 
L 2766 531 
Q 2569 213 2275 61 
Q 1981 -91 1556 -91 
Q 1019 -91 701 211 
Q 384 513 384 1019 
Q 384 1609 779 1909 
Q 1175 2209 1959 2209 
L 2766 2209 
L 2766 2266 
Q 2766 2663 2505 2880 
Q 2244 3097 1772 3097 
Q 1472 3097 1187 3025 
Q 903 2953 641 2809 
L 641 3341 
Q 956 3463 1253 3523 
Q 1550 3584 1831 3584 
Q 2591 3584 2966 3190 
Q 3341 2797 3341 1997 
z
" transform="scale(0.015625)"/>
       <path id="DejaVuSans-56" d="M 1831 0 
L 50 4666 
L 709 4666 
L 2188 738 
L 3669 4666 
L 4325 4666 
L 2547 0 
L 1831 0 
z
" transform="scale(0.015625)"/>
       <path id="DejaVuSans-75" d="M 544 1381 
L 544 3500 
L 1119 3500 
L 1119 1403 
Q 1119 906 1312 657 
Q 1506 409 1894 409 
Q 2359 409 2629 706 
Q 2900 1003 2900 1516 
L 2900 3500 
L 3475 3500 
L 3475 0 
L 2900 0 
L 2900 538 
Q 2691 219 2414 64 
Q 2138 -91 1772 -91 
Q 1169 -91 856 284 
Q 544 659 544 1381 
z
M 1991 3584 
L 1991 3584 
z
" transform="scale(0.015625)"/>
      </defs>
      <use xlink:href="#DejaVuSans-44"/>
      <use xlink:href="#DejaVuSans-65" x="77.001953"/>
      <use xlink:href="#DejaVuSans-6c" x="138.525391"/>
      <use xlink:href="#DejaVuSans-74" x="166.308594"/>
      <use xlink:href="#DejaVuSans-61" x="205.517578"/>
      <use xlink:href="#DejaVuSans-20" x="266.796875"/>
      <use xlink:href="#DejaVuSans-56" x="298.583984"/>
      <use xlink:href="#DejaVuSans-61" x="359.242188"/>
      <use xlink:href="#DejaVuSans-6c" x="420.521484"/>
      <use xlink:href="#DejaVuSans-75" x="448.304688"/>
      <use xlink:href="#DejaVuSans-65" x="511.683594"/>
     </g>
    </g>
    <g id="text_16">
     <!-- 1e−14+1e−1 -->
     <g transform="translate(56.09 34.8) scale(0.1 -0.1)">
      <defs>
       <path id="DejaVuSans-2b" d="M 2944 4013 
L 2944 2272 
L 4684 2272 
L 4684 1741 
L 2944 1741 
L 2944 0 
L 2419 0 
L 2419 1741 
L 678 1741 
L 678 2272 
L 2419 2272 
L 2419 4013 
L 2944 4013 
z
" transform="scale(0.015625)"/>
      </defs>
      <use xlink:href="#DejaVuSans-31"/>
      <use xlink:href="#DejaVuSans-65" x="63.623047"/>
      <use xlink:href="#DejaVuSans-2212" x="125.146484"/>
      <use xlink:href="#DejaVuSans-31" x="208.935547"/>
      <use xlink:href="#DejaVuSans-34" x="272.558594"/>
      <use xlink:href="#DejaVuSans-2b" x="336.181641"/>
      <use xlink:href="#DejaVuSans-31" x="419.970703"/>
      <use xlink:href="#DejaVuSans-65" x="483.59375"/>
      <use xlink:href="#DejaVuSans-2212" x="545.117188"/>
      <use xlink:href="#DejaVuSans-31" x="628.90625"/>
     </g>
    </g>
   </g>
   <g id="line2d_27">
    <path d="M 85.776818 161 
L 86.310793 161.25 
L 87.176697 160.5 
L 87.638513 161.25 
L 89.081687 161.25 
L 90.077478 159.75 
L 90.770201 161.25 
L 91.289744 161.25 
L 91.9969 159.75 
L 92.704055 162.75 
L 93.425642 159.75 
L 94.103934 162.75 
L 95.013134 159.75 
L 97.812892 159.75 
L 98.505616 162.75 
L 99.025159 159.75 
L 99.717883 162.75 
L 100.19413 159.75 
L 101.406397 159.75 
L 101.925939 165.75 
L 102.618663 159.75 
L 104.33604 159.75 
L 104.855583 165.75 
L 105.548307 159.75 
L 107.236821 159.75 
L 107.756364 165.75 
L 108.449087 159.75 
L 110.137601 159.75 
L 110.686008 165.75 
L 111.378731 159.75 
L 111.854979 159.75 
L 112.374522 165.75 
L 113.067245 154 
L 113.586788 165.75 
L 114.279512 154 
L 114.755759 165.75 
L 115.275302 165.75 
L 115.968026 154 
L 116.487569 165.75 
L 117.180292 154 
L 117.65654 165.75 
L 118.204946 165.75 
L 118.89767 154 
L 119.417213 165.75 
L 120.109936 154 
L 120.586184 165.75 
L 121.105727 165.75 
L 121.79845 154 
L 122.317993 165.75 
L 123.010717 154 
L 123.486964 165.75 
L 124.006507 165.75 
L 124.699231 154 
L 125.247637 165.75 
L 125.940361 154 
L 126.416608 165.75 
L 126.936151 165.75 
L 127.628875 154 
L 128.148417 165.75 
L 128.841141 154 
L 129.317389 165.75 
L 129.836931 165.75 
L 130.529655 154 
L 131.049198 165.75 
L 131.741922 154 
L 132.218169 165.75 
L 132.766575 165.75 
L 133.459299 154 
L 133.978842 165.75 
L 134.671566 154 
L 135.147813 165.75 
L 136.36008 165.75 
L 136.879622 142 
L 137.572346 165.75 
L 139.26086 165.75 
L 139.809266 142 
L 140.50199 165.75 
L 142.190504 165.75 
L 142.710047 142 
L 143.40277 165.75 
L 145.091284 165.75 
L 145.610827 142 
L 146.303551 165.75 
L 148.020928 165.75 
L 148.540471 142 
L 149.233195 165.75 
L 150.921709 165.75 
L 151.441252 142 
L 152.133975 165.75 
L 153.822489 165.75 
L 154.370896 142 
L 155.063619 165.75 
L 156.752133 165.75 
L 157.271676 142 
L 157.9644 165.75 
L 159.652914 165.75 
L 160.172456 142 
L 160.86518 165.75 
L 162.582558 165.75 
L 163.1021 142 
L 163.794824 165.75 
L 165.483338 165.75 
L 166.002881 142 
L 166.695605 165.75 
L 168.384119 165.75 
L 168.932525 142 
L 169.625249 165.75 
L 171.313763 165.75 
L 171.833305 142 
L 172.526029 165.75 
L 174.214543 165.75 
L 174.734086 142 
L 175.426809 165.75 
L 177.144187 165.75 
L 177.66373 142 
L 178.356453 165.75 
L 180.044967 165.75 
L 180.56451 142 
L 181.257234 165.75 
L 181.733481 165.75 
L 182.253024 142 
L 182.945748 189.5 
L 183.494154 142 
L 184.186878 189.5 
L 184.663125 142 
L 185.182668 142 
L 185.875392 189.5 
L 186.394935 142 
L 187.087658 189.5 
L 187.563906 142 
L 188.083449 142 
L 188.776172 189.5 
L 189.295715 142 
L 189.988439 189.5 
L 190.464686 142 
L 191.013093 142 
L 191.705816 189.5 
L 192.225359 142 
L 192.918083 189.5 
L 193.39433 142 
L 193.913873 142 
L 194.606597 189.5 
L 195.126139 142 
L 195.818863 189.5 
L 196.295111 142 
L 196.814653 142 
L 197.507377 189.5 
L 198.055783 142 
L 198.748507 189.5 
L 199.224755 142 
L 199.744297 142 
L 200.437021 189.5 
L 200.956564 142 
L 201.649288 189.5 
L 202.125535 142 
L 202.645078 142 
L 203.337802 189.5 
L 203.857344 142 
L 204.550068 189.5 
L 205.026316 142 
L 205.574722 142 
L 206.267446 189.5 
L 206.786988 142 
L 207.479712 189.5 
L 207.95596 142 
L 208.475502 142 
L 209.168226 189.5 
L 209.687769 142 
L 210.380492 189.5 
L 210.85674 142 
L 211.376283 142 
L 212.069006 189.5 
L 212.617413 142 
L 213.310136 189.5 
L 213.786384 142 
L 214.305927 142 
L 214.99865 189.5 
L 215.518193 142 
L 216.210917 189.5 
L 216.687164 142 
L 217.206707 142 
L 217.899431 189.5 
L 218.418974 142 
L 219.111697 189.5 
L 219.587945 142 
L 220.136351 142 
L 220.829075 189.5 
L 221.348618 142 
L 222.041341 189.5 
L 222.517589 142 
L 223.037132 142 
L 223.729855 189.5 
L 224.249398 142 
L 224.942122 189.5 
L 225.418369 142 
L 225.937912 142 
L 226.630636 189.5 
L 227.179042 142 
L 227.871766 189.5 
L 228.348013 142 
L 228.867556 142 
L 229.56028 189.5 
L 230.079822 142 
L 230.772546 189.5 
L 231.248794 142 
L 231.768336 142 
L 232.46106 189.5 
L 232.980603 142 
L 233.673327 189.5 
L 234.149574 142 
L 234.69798 142 
L 235.390704 189.5 
L 235.910247 142 
L 236.602971 189.5 
L 237.079218 142 
L 237.598761 142 
L 238.291485 189.5 
L 238.811027 142 
L 239.503751 189.5 
L 239.979999 142 
L 240.499541 142 
L 241.192265 189.5 
L 241.740671 142 
L 242.433395 189.5 
L 242.909643 142 
L 243.429185 142 
L 244.121909 189.5 
L 244.641452 142 
L 245.334175 189.5 
L 245.810423 142 
L 246.329966 142 
L 247.022689 189.5 
L 247.542232 142 
L 248.234956 189.5 
L 248.711203 142 
L 249.25961 142 
L 249.952333 189.5 
L 250.471876 142 
L 251.1646 189.5 
L 251.640847 142 
L 252.16039 142 
L 252.853114 189.5 
L 253.372657 142 
L 254.06538 189.5 
L 254.541628 142 
L 255.061171 142 
L 255.753894 189.5 
L 256.273437 142 
L 256.937297 189.5 
L 257.442408 142 
L 258.149564 142 
L 258.813424 189.5 
L 259.347399 142 
L 260.227735 189.5 
L 260.718414 142 
L 261.42557 142 
L 262.08943 189.5 
L 262.652268 142 
L 264.023283 189.5 
L 264.513963 142 
L 265.062369 142 
L 265.769524 189.5 
L 266.47668 142 
L 269.882571 189.5 
L 270.358819 142 
L 270.878362 142 
L 271.571085 189.5 
L 272.090628 142 
L 272.783352 189.5 
L 273.259599 142 
L 273.779142 142 
L 274.471866 189.5 
L 275.020272 142 
L 275.712996 189.5 
L 276.189243 142 
L 276.708786 142 
L 277.40151 189.5 
L 277.921053 142 
L 278.613776 189.5 
L 279.090024 142 
L 280.30229 142 
L 280.821833 236.75 
L 281.514557 142 
L 283.231934 142 
L 283.751477 236.75 
L 284.444201 142 
L 286.132715 142 
L 286.652257 236.75 
L 287.344981 142 
L 289.033495 142 
L 289.581901 236.75 
L 290.274625 142 
L 291.963139 142 
L 292.482682 236.75 
L 293.175406 142 
L 294.86392 142 
L 295.383462 236.75 
L 296.076186 142 
L 297.793563 142 
L 298.313106 236.75 
L 299.00583 142 
L 300.694344 142 
L 301.213887 236.75 
L 301.90661 142 
L 303.595124 142 
L 304.143531 236.75 
L 304.836254 142 
L 306.524768 142 
L 307.044311 236.75 
L 307.737035 142 
L 309.425549 142 
L 309.945092 236.75 
L 310.637815 142 
L 312.355193 142 
L 312.874736 236.75 
L 313.567459 142 
L 315.255973 142 
L 315.775516 236.75 
L 316.46824 142 
L 318.156754 142 
L 318.70516 236.75 
L 319.397884 142 
L 321.086398 142 
L 321.60594 236.75 
L 322.298664 142 
L 323.987178 142 
L 324.506721 236.75 
L 325.199445 142 
L 326.916822 142 
L 327.436365 236.75 
L 328.129089 142 
L 329.817603 142 
L 330.337145 236.75 
L 331.029869 142 
L 332.718383 142 
L 333.266789 236.75 
L 333.959513 142 
L 335.648027 142 
L 336.16757 236.75 
L 336.860293 142 
L 338.548807 142 
L 339.06835 236.75 
L 339.761074 142 
L 341.478451 142 
L 341.997994 236.75 
L 342.690718 142 
L 344.379232 142 
L 344.898775 236.75 
L 345.591498 142 
L 347.280012 142 
L 347.828419 236.75 
L 348.521142 142 
L 350.209656 142 
L 350.729199 236.75 
L 351.421923 142 
L 353.110437 142 
L 353.629979 236.75 
L 354.322703 142 
L 356.040081 142 
L 356.559623 236.75 
L 357.252347 142 
L 358.940861 142 
L 359.460404 236.75 
L 360.181991 142 
L 361.870505 142 
L 362.418911 236.75 
L 363.111635 142 
L 364.800149 142 
L 365.319692 236.75 
L 366.012415 142 
L 367.729793 142 
L 368.249336 236.75 
L 368.942059 142 
L 370.659437 142 
L 371.17898 236.75 
L 371.871703 142 
L 373.560217 142 
L 374.07976 236.75 
L 374.801347 142 
L 376.489861 142 
L 377.038268 236.75 
L 377.730991 142 
L 379.419505 142 
L 379.939048 236.75 
L 380.631772 142 
L 382.349149 142 
L 382.868692 236.75 
L 383.561416 142 
L 385.278793 142 
L 385.798336 236.75 
L 386.49106 142 
L 388.179574 142 
L 388.699116 236.75 
L 389.420704 142 
L 391.109218 142 
L 391.657624 236.75 
L 392.350348 142 
L 394.038862 142 
L 394.558404 236.75 
L 395.251128 142 
L 396.968506 142 
L 397.488048 236.75 
L 398.180772 142 
L 399.898149 142 
L 400.417692 236.75 
L 401.110416 142 
L 402.79893 142 
L 403.318473 236.75 
L 404.04006 142 
L 405.728574 142 
L 406.27698 236.75 
L 406.969704 142 
L 408.658218 142 
L 409.177761 236.75 
L 409.870484 142 
L 411.587862 142 
L 412.107405 236.75 
L 412.800128 142 
L 414.517506 142 
L 415.037049 236.75 
L 415.729772 142 
L 417.418286 142 
L 417.937829 236.75 
L 418.659416 142 
L 420.34793 142 
L 420.896336 236.75 
L 421.58906 142 
L 423.277574 142 
L 423.797117 236.75 
L 424.489841 142 
L 426.207218 142 
L 426.726761 236.75 
L 427.419485 142 
L 429.136862 142 
L 429.656405 236.75 
L 430.349128 142 
L 432.037642 142 
L 432.557185 236.75 
L 433.278772 142 
L 434.967286 142 
L 435.515693 236.75 
L 436.208416 142 
L 437.89693 142 
L 438.416473 236.75 
L 439.109197 142 
L 440.826574 142 
L 441.346117 236.75 
L 442.038841 142 
L 443.756218 142 
L 444.275761 236.75 
L 444.968485 142 
L 446.656999 142 
L 447.176542 236.75 
L 447.898129 142 
L 449.586643 142 
L 450.135049 236.75 
L 450.827773 142 
L 452.516287 142 
L 453.035829 236.75 
L 453.728553 142 
L 455.445931 142 
L 455.965473 236.75 
L 456.658197 142 
L 458.375575 142 
L 458.895117 236.75 
L 459.587841 142 
L 461.276355 142 
L 461.795898 236.75 
L 462.517485 142 
L 464.205999 142 
L 464.754405 236.75 
L 465.447129 142 
L 465.923376 142 
L 466.442919 236.75 
L 467.135643 47.5 
L 467.655186 236.75 
L 468.347909 47.5 
L 468.824157 236.75 
L 469.3437 236.75 
L 470.065287 47.5 
L 470.58483 236.75 
L 471.277553 47.5 
L 471.753801 236.75 
L 472.302207 236.75 
L 472.994931 47.5 
L 473.514474 236.75 
L 474.207197 47.5 
L 474.683445 236.75 
L 475.202988 236.75 
L 475.895711 47.5 
L 476.415254 236.75 
L 477.107978 47.5 
L 477.584225 236.75 
L 478.103768 236.75 
L 478.796492 47.5 
L 479.344898 236.75 
L 480.037622 47.5 
L 480.513869 236.75 
L 481.033412 236.75 
L 481.726136 47.5 
L 482.245678 236.75 
L 482.938402 47.5 
L 483.41465 236.75 
L 483.934192 236.75 
L 484.626916 47.5 
L 485.146459 236.75 
L 485.839183 47.5 
L 486.31543 236.75 
L 486.863836 236.75 
L 487.55656 47.5 
L 488.076103 236.75 
L 488.768827 47.5 
L 489.245074 236.75 
L 489.764617 236.75 
L 490.457341 47.5 
L 490.976883 236.75 
L 491.669607 47.5 
L 492.145855 236.75 
L 492.665397 236.75 
L 493.358121 47.5 
L 493.906527 236.75 
L 494.599251 47.5 
L 495.075499 236.75 
L 495.595041 236.75 
L 496.287765 47.5 
L 496.807308 236.75 
L 497.500031 47.5 
L 497.976279 236.75 
L 498.495822 236.75 
L 499.188545 47.5 
L 499.708088 236.75 
L 500.400812 47.5 
L 500.877059 236.75 
L 501.425466 236.75 
L 502.118189 47.5 
L 502.637732 236.75 
L 503.330456 47.5 
L 503.806703 236.75 
L 504.326246 236.75 
L 505.01897 47.5 
L 505.538513 236.75 
L 506.231236 47.5 
L 506.707484 236.75 
L 507.227027 236.75 
L 507.91975 47.5 
L 508.468157 236.75 
L 509.16088 47.5 
L 509.637128 236.75 
L 510.156671 236.75 
L 510.849394 47.5 
L 511.368937 236.75 
L 512.061661 47.5 
L 512.537908 236.75 
L 513.057451 236.75 
L 513.750175 47.5 
L 514.269718 236.75 
L 514.962441 47.5 
L 515.438689 236.75 
L 515.987095 236.75 
L 516.679819 47.5 
L 517.199361 236.75 
L 517.892085 47.5 
L 518.368333 236.75 
L 518.887875 236.75 
L 519.580599 47.5 
L 520.100142 236.75 
L 520.792866 47.5 
L 521.269113 236.75 
L 521.788656 236.75 
L 522.48138 47.5 
L 523.029786 236.75 
L 523.72251 47.5 
L 524.198757 236.75 
L 524.7183 236.75 
L 525.411024 47.5 
L 525.930566 236.75 
L 526.62329 47.5 
L 527.099538 236.75 
L 527.61908 236.75 
L 528.311804 47.5 
L 528.831347 236.75 
L 529.524071 47.5 
L 530.000318 236.75 
L 530.548724 236.75 
L 531.241448 47.5 
L 531.760991 236.75 
L 532.453714 47.5 
L 532.929962 236.75 
L 533.449505 236.75 
L 534.142228 47.5 
L 534.661771 236.75 
L 535.354495 47.5 
L 535.830742 236.75 
L 536.350285 236.75 
L 537.043009 47.5 
L 537.591415 236.75 
L 538.284139 47.5 
L 538.760386 236.75 
L 539.279929 236.75 
L 539.972653 47.5 
L 540.492196 236.75 
L 541.184919 47.5 
L 541.661167 236.75 
L 542.18071 236.75 
L 542.873433 47.5 
L 543.392976 236.75 
L 544.0857 47.5 
L 544.561947 236.75 
L 545.110354 236.75 
L 545.803077 47.5 
L 546.32262 236.75 
L 547.015344 47.5 
L 547.491591 236.75 
L 548.011134 236.75 
L 548.703858 47.5 
L 549.223401 236.75 
L 549.916124 47.5 
L 550.392372 236.75 
L 550.911915 236.75 
L 551.604638 47.5 
L 552.153045 236.75 
L 552.845768 47.5 
L 553.322016 236.75 
L 553.841559 236.75 
L 554.534282 47.5 
L 555.053825 236.75 
L 555.746549 47.5 
L 556.222796 236.75 
L 556.742339 236.75 
L 557.435063 47.5 
L 557.954605 236.75 
L 558.647329 47.5 
L 559.123577 236.75 
L 559.671983 236.75 
L 560.364707 47.5 
L 560.884249 236.75 
L 561.576973 47.5 
L 562.053221 236.75 
L 562.572763 236.75 
L 563.265487 47.5 
L 563.78503 236.75 
L 564.477754 47.5 
L 564.954001 236.75 
L 565.473544 236.75 
L 566.166268 47.5 
L 566.714674 236.75 
L 567.407397 47.5 
L 567.883645 236.75 
L 568.403188 236.75 
L 569.095911 47.5 
L 569.615454 236.75 
L 570.308178 47.5 
L 570.784426 236.75 
L 571.303968 236.75 
L 571.996692 47.5 
L 572.516235 236.75 
L 573.208958 47.5 
L 573.685206 236.75 
L 574.233612 236.75 
L 574.926336 47.5 
L 575.445879 236.75 
L 576.138602 47.5 
L 576.61485 236.75 
L 577.134393 236.75 
L 577.827116 47.5 
L 578.346659 236.75 
L 579.039383 47.5 
L 579.51563 236.75 
L 580.035173 236.75 
L 580.727897 47.5 
L 581.276303 236.75 
L 581.969027 47.5 
L 582.445274 236.75 
L 582.964817 236.75 
L 583.657541 47.5 
L 584.177084 236.75 
L 584.869807 47.5 
L 585.346055 236.75 
L 585.865598 236.75 
L 586.558321 47.5 
L 587.077864 236.75 
L 587.770588 47.5 
L 588.246835 236.75 
L 588.795242 236.75 
L 589.487965 47.5 
L 590.007508 236.75 
L 590.700232 47.5 
L 591.176479 236.75 
L 591.696022 236.75 
L 592.388746 47.5 
L 592.908288 236.75 
L 593.601012 47.5 
L 594.07726 236.75 
L 594.596802 236.75 
L 595.289526 47.5 
L 595.837932 236.75 
L 596.530656 47.5 
L 597.006904 236.75 
L 597.526446 236.75 
L 598.21917 47.5 
L 598.738713 236.75 
L 599.431437 47.5 
L 599.907684 236.75 
L 600.427227 236.75 
L 601.119951 47.5 
L 601.639493 236.75 
L 602.332217 47.5 
L 602.808465 236.75 
L 603.356871 236.75 
L 604.049595 47.5 
L 604.569137 236.75 
L 605.261861 47.5 
L 605.738109 236.75 
L 606.257651 236.75 
L 606.950375 47.5 
L 607.469918 236.75 
L 608.162641 47.5 
L 608.638889 236.75 
L 609.158432 236.75 
L 609.851155 47.5 
L 610.370698 236.75 
L 611.034558 47.5 
L 611.539669 236.75 
L 612.246825 236.75 
L 612.910685 47.5 
L 613.44466 236.75 
L 614.324996 47.5 
L 614.815675 236.75 
L 615.551694 236.75 
L 616.706234 47.5 
L 617.240208 236.75 
L 617.976227 47.5 
L 618.640087 236.75 
L 619.15963 236.75 
L 619.866786 47.5 
L 620.573941 236.75 
L 621.699617 47.5 
L 624.45608 236.75 
L 624.975623 236.75 
L 625.668346 47.5 
L 626.187889 236.75 
L 626.880613 47.5 
L 627.35686 236.75 
L 627.876403 236.75 
L 628.569127 47.5 
L 629.117533 236.75 
L 629.810257 47.5 
L 630.286504 236.75 
L 630.806047 236.75 
L 631.498771 47.5 
L 632.018314 236.75 
L 632.711037 47.5 
L 633.187285 236.75 
L 633.706828 236.75 
L 634.399551 47.5 
L 634.919094 236.75 
L 635.611818 47.5 
L 636.088065 236.75 
L 636.636472 236.75 
L 637.329195 47.5 
L 637.848738 236.75 
L 638.541462 47.5 
L 639.017709 236.75 
L 639.537252 236.75 
L 640.229976 47.5 
L 640.749518 236.75 
L 641.442242 47.5 
L 641.91849 236.75 
L 642.438032 236.75 
L 643.130756 47.5 
L 643.679162 236.75 
L 644.371886 47.5 
L 644.848134 236.75 
L 645.367676 236.75 
L 646.0604 47.5 
L 646.579943 236.75 
L 647.272667 47.5 
L 647.748914 236.75 
L 648.268457 236.75 
L 648.961181 47.5 
L 649.480723 236.75 
L 650.173447 47.5 
L 650.649695 236.75 
L 651.198101 236.75 
L 651.890825 47.5 
L 652.410367 236.75 
L 653.103091 47.5 
L 653.579339 236.75 
L 654.098881 236.75 
L 654.791605 47.5 
L 655.311148 236.75 
L 656.003871 47.5 
L 656.480119 236.75 
L 656.999662 236.75 
L 657.692385 47.5 
L 658.240792 236.75 
L 658.933515 47.5 
L 659.409763 236.75 
L 659.929306 236.75 
L 660.622029 47.5 
L 661.141572 236.75 
L 661.834296 47.5 
L 662.310543 236.75 
L 662.830086 236.75 
L 663.52281 47.5 
L 664.042353 236.75 
L 664.735076 47.5 
L 665.211324 236.75 
L 665.75973 236.75 
L 666.452454 47.5 
L 666.971997 236.75 
L 667.66472 47.5 
L 668.140968 236.75 
L 668.660511 236.75 
L 669.353234 47.5 
L 669.872777 236.75 
L 670.565501 47.5 
L 671.041748 236.75 
L 671.561291 236.75 
L 672.254015 47.5 
L 672.802421 236.75 
L 673.495145 47.5 
L 673.971392 236.75 
L 674.490935 236.75 
L 675.183659 47.5 
L 675.703202 236.75 
L 676.395925 47.5 
L 676.872173 236.75 
L 677.391716 236.75 
L 678.084439 47.5 
L 678.603982 236.75 
L 679.296706 47.5 
L 679.513182 236.75 
L 679.513182 236.75 
" clip-path="url(#pa1d00609f9)" style="fill: none; stroke: #1f77b4; stroke-width: 1.5; stroke-linecap: square"/>
   </g>
   <g id="patch_3">
    <path d="M 56.09 246.25 
L 56.09 38 
" style="fill: none; stroke: #000000; stroke-width: 0.8; stroke-linejoin: miter; stroke-linecap: square"/>
   </g>
   <g id="patch_4">
    <path d="M 709.2 246.25 
L 709.2 38 
" style="fill: none; stroke: #000000; stroke-width: 0.8; stroke-linejoin: miter; stroke-linecap: square"/>
   </g>
   <g id="patch_5">
    <path d="M 56.09 246.04 
L 709.2 246.04 
" style="fill: none; stroke: #000000; stroke-width: 0.8; stroke-linejoin: miter; stroke-linecap: square"/>
   </g>
   <g id="patch_6">
    <path d="M 56.09 37.8 
L 709.2 37.8 
" style="fill: none; stroke: #000000; stroke-width: 0.8; stroke-linejoin: miter; stroke-linecap: square"/>
   </g>
   <g id="text_17">
    <!-- outgoingDataRate:vector (HandoverShowcase.ap1.wlan[0].mac.dcf.channelAccess.pendingQueue) -->
    <g transform="translate(85.884062 21.201563) scale(0.12 -0.12)">
     <defs>
      <path id="DejaVuSans-6f" d="M 1959 3097 
Q 1497 3097 1228 2736 
Q 959 2375 959 1747 
Q 959 1119 1226 758 
Q 1494 397 1959 397 
Q 2419 397 2687 759 
Q 2956 1122 2956 1747 
Q 2956 2369 2687 2733 
Q 2419 3097 1959 3097 
z
M 1959 3584 
Q 2709 3584 3137 3096 
Q 3566 2609 3566 1747 
Q 3566 888 3137 398 
Q 2709 -91 1959 -91 
Q 1206 -91 779 398 
Q 353 888 353 1747 
Q 353 2609 779 3096 
Q 1206 3584 1959 3584 
z
" transform="scale(0.015625)"/>
      <path id="DejaVuSans-67" d="M 2906 1791 
Q 2906 2416 2648 2759 
Q 2391 3103 1925 3103 
Q 1463 3103 1205 2759 
Q 947 2416 947 1791 
Q 947 1169 1205 825 
Q 1463 481 1925 481 
Q 2391 481 2648 825 
Q 2906 1169 2906 1791 
z
M 3481 434 
Q 3481 -459 3084 -895 
Q 2688 -1331 1869 -1331 
Q 1566 -1331 1297 -1286 
Q 1028 -1241 775 -1147 
L 775 -588 
Q 1028 -725 1275 -790 
Q 1522 -856 1778 -856 
Q 2344 -856 2625 -561 
Q 2906 -266 2906 331 
L 2906 616 
Q 2728 306 2450 153 
Q 2172 0 1784 0 
Q 1141 0 747 490 
Q 353 981 353 1791 
Q 353 2603 747 3093 
Q 1141 3584 1784 3584 
Q 2172 3584 2450 3431 
Q 2728 3278 2906 2969 
L 2906 3500 
L 3481 3500 
L 3481 434 
z
" transform="scale(0.015625)"/>
      <path id="DejaVuSans-6e" d="M 3513 2113 
L 3513 0 
L 2938 0 
L 2938 2094 
Q 2938 2591 2744 2837 
Q 2550 3084 2163 3084 
Q 1697 3084 1428 2787 
Q 1159 2491 1159 1978 
L 1159 0 
L 581 0 
L 581 3500 
L 1159 3500 
L 1159 2956 
Q 1366 3272 1645 3428 
Q 1925 3584 2291 3584 
Q 2894 3584 3203 3211 
Q 3513 2838 3513 2113 
z
" transform="scale(0.015625)"/>
      <path id="DejaVuSans-52" d="M 2841 2188 
Q 3044 2119 3236 1894 
Q 3428 1669 3622 1275 
L 4263 0 
L 3584 0 
L 2988 1197 
Q 2756 1666 2539 1819 
Q 2322 1972 1947 1972 
L 1259 1972 
L 1259 0 
L 628 0 
L 628 4666 
L 2053 4666 
Q 2853 4666 3247 4331 
Q 3641 3997 3641 3322 
Q 3641 2881 3436 2590 
Q 3231 2300 2841 2188 
z
M 1259 4147 
L 1259 2491 
L 2053 2491 
Q 2509 2491 2742 2702 
Q 2975 2913 2975 3322 
Q 2975 3731 2742 3939 
Q 2509 4147 2053 4147 
L 1259 4147 
z
" transform="scale(0.015625)"/>
      <path id="DejaVuSans-3a" d="M 750 794 
L 1409 794 
L 1409 0 
L 750 0 
L 750 794 
z
M 750 3309 
L 1409 3309 
L 1409 2516 
L 750 2516 
L 750 3309 
z
" transform="scale(0.015625)"/>
      <path id="DejaVuSans-76" d="M 191 3500 
L 800 3500 
L 1894 563 
L 2988 3500 
L 3597 3500 
L 2284 0 
L 1503 0 
L 191 3500 
z
" transform="scale(0.015625)"/>
      <path id="DejaVuSans-63" d="M 3122 3366 
L 3122 2828 
Q 2878 2963 2633 3030 
Q 2388 3097 2138 3097 
Q 1578 3097 1268 2742 
Q 959 2388 959 1747 
Q 959 1106 1268 751 
Q 1578 397 2138 397 
Q 2388 397 2633 464 
Q 2878 531 3122 666 
L 3122 134 
Q 2881 22 2623 -34 
Q 2366 -91 2075 -91 
Q 1284 -91 818 406 
Q 353 903 353 1747 
Q 353 2603 823 3093 
Q 1294 3584 2113 3584 
Q 2378 3584 2631 3529 
Q 2884 3475 3122 3366 
z
" transform="scale(0.015625)"/>
      <path id="DejaVuSans-72" d="M 2631 2963 
Q 2534 3019 2420 3045 
Q 2306 3072 2169 3072 
Q 1681 3072 1420 2755 
Q 1159 2438 1159 1844 
L 1159 0 
L 581 0 
L 581 3500 
L 1159 3500 
L 1159 2956 
Q 1341 3275 1631 3429 
Q 1922 3584 2338 3584 
Q 2397 3584 2469 3576 
Q 2541 3569 2628 3553 
L 2631 2963 
z
" transform="scale(0.015625)"/>
      <path id="DejaVuSans-48" d="M 628 4666 
L 1259 4666 
L 1259 2753 
L 3553 2753 
L 3553 4666 
L 4184 4666 
L 4184 0 
L 3553 0 
L 3553 2222 
L 1259 2222 
L 1259 0 
L 628 0 
L 628 4666 
z
" transform="scale(0.015625)"/>
      <path id="DejaVuSans-64" d="M 2906 2969 
L 2906 4863 
L 3481 4863 
L 3481 0 
L 2906 0 
L 2906 525 
Q 2725 213 2448 61 
Q 2172 -91 1784 -91 
Q 1150 -91 751 415 
Q 353 922 353 1747 
Q 353 2572 751 3078 
Q 1150 3584 1784 3584 
Q 2172 3584 2448 3432 
Q 2725 3281 2906 2969 
z
M 947 1747 
Q 947 1113 1208 752 
Q 1469 391 1925 391 
Q 2381 391 2643 752 
Q 2906 1113 2906 1747 
Q 2906 2381 2643 2742 
Q 2381 3103 1925 3103 
Q 1469 3103 1208 2742 
Q 947 2381 947 1747 
z
" transform="scale(0.015625)"/>
      <path id="DejaVuSans-53" d="M 3425 4513 
L 3425 3897 
Q 3066 4069 2747 4153 
Q 2428 4238 2131 4238 
Q 1616 4238 1336 4038 
Q 1056 3838 1056 3469 
Q 1056 3159 1242 3001 
Q 1428 2844 1947 2747 
L 2328 2669 
Q 3034 2534 3370 2195 
Q 3706 1856 3706 1288 
Q 3706 609 3251 259 
Q 2797 -91 1919 -91 
Q 1588 -91 1214 -16 
Q 841 59 441 206 
L 441 856 
Q 825 641 1194 531 
Q 1563 422 1919 422 
Q 2459 422 2753 634 
Q 3047 847 3047 1241 
Q 3047 1584 2836 1778 
Q 2625 1972 2144 2069 
L 1759 2144 
Q 1053 2284 737 2584 
Q 422 2884 422 3419 
Q 422 4038 858 4394 
Q 1294 4750 2059 4750 
Q 2388 4750 2728 4690 
Q 3069 4631 3425 4513 
z
" transform="scale(0.015625)"/>
      <path id="DejaVuSans-68" d="M 3513 2113 
L 3513 0 
L 2938 0 
L 2938 2094 
Q 2938 2591 2744 2837 
Q 2550 3084 2163 3084 
Q 1697 3084 1428 2787 
Q 1159 2491 1159 1978 
L 1159 0 
L 581 0 
L 581 4863 
L 1159 4863 
L 1159 2956 
Q 1366 3272 1645 3428 
Q 1925 3584 2291 3584 
Q 2894 3584 3203 3211 
Q 3513 2838 3513 2113 
z
" transform="scale(0.015625)"/>
      <path id="DejaVuSans-77" d="M 269 3500 
L 844 3500 
L 1563 769 
L 2278 3500 
L 2956 3500 
L 3675 769 
L 4391 3500 
L 4966 3500 
L 4050 0 
L 3372 0 
L 2619 2869 
L 1863 0 
L 1184 0 
L 269 3500 
z
" transform="scale(0.015625)"/>
      <path id="DejaVuSans-70" d="M 1159 525 
L 1159 -1331 
L 581 -1331 
L 581 3500 
L 1159 3500 
L 1159 2969 
Q 1341 3281 1617 3432 
Q 1894 3584 2278 3584 
Q 2916 3584 3314 3078 
Q 3713 2572 3713 1747 
Q 3713 922 3314 415 
Q 2916 -91 2278 -91 
Q 1894 -91 1617 61 
Q 1341 213 1159 525 
z
M 3116 1747 
Q 3116 2381 2855 2742 
Q 2594 3103 2138 3103 
Q 1681 3103 1420 2742 
Q 1159 2381 1159 1747 
Q 1159 1113 1420 752 
Q 1681 391 2138 391 
Q 2594 391 2855 752 
Q 3116 1113 3116 1747 
z
" transform="scale(0.015625)"/>
      <path id="DejaVuSans-5b" d="M 550 4863 
L 1875 4863 
L 1875 4416 
L 1125 4416 
L 1125 -397 
L 1875 -397 
L 1875 -844 
L 550 -844 
L 550 4863 
z
" transform="scale(0.015625)"/>
      <path id="DejaVuSans-5d" d="M 1947 4863 
L 1947 -844 
L 622 -844 
L 622 -397 
L 1369 -397 
L 1369 4416 
L 622 4416 
L 622 4863 
L 1947 4863 
z
" transform="scale(0.015625)"/>
      <path id="DejaVuSans-66" d="M 2375 4863 
L 2375 4384 
L 1825 4384 
Q 1516 4384 1395 4259 
Q 1275 4134 1275 3809 
L 1275 3500 
L 2222 3500 
L 2222 3053 
L 1275 3053 
L 1275 0 
L 697 0 
L 697 3053 
L 147 3053 
L 147 3500 
L 697 3500 
L 697 3744 
Q 697 4328 969 4595 
Q 1241 4863 1831 4863 
L 2375 4863 
z
" transform="scale(0.015625)"/>
      <path id="DejaVuSans-41" d="M 2188 4044 
L 1331 1722 
L 3047 1722 
L 2188 4044 
z
M 1831 4666 
L 2547 4666 
L 4325 0 
L 3669 0 
L 3244 1197 
L 1141 1197 
L 716 0 
L 50 0 
L 1831 4666 
z
" transform="scale(0.015625)"/>
      <path id="DejaVuSans-51" d="M 2522 4238 
Q 1834 4238 1429 3725 
Q 1025 3213 1025 2328 
Q 1025 1447 1429 934 
Q 1834 422 2522 422 
Q 3209 422 3611 934 
Q 4013 1447 4013 2328 
Q 4013 3213 3611 3725 
Q 3209 4238 2522 4238 
z
M 3406 84 
L 4238 -825 
L 3475 -825 
L 2784 -78 
Q 2681 -84 2626 -87 
Q 2572 -91 2522 -91 
Q 1538 -91 948 567 
Q 359 1225 359 2328 
Q 359 3434 948 4092 
Q 1538 4750 2522 4750 
Q 3503 4750 4090 4092 
Q 4678 3434 4678 2328 
Q 4678 1516 4351 937 
Q 4025 359 3406 84 
z
" transform="scale(0.015625)"/>
     </defs>
     <use xlink:href="#DejaVuSans-6f"/>
     <use xlink:href="#DejaVuSans-75" x="61.181641"/>
     <use xlink:href="#DejaVuSans-74" x="124.560547"/>
     <use xlink:href="#DejaVuSans-67" x="163.769531"/>
     <use xlink:href="#DejaVuSans-6f" x="227.246094"/>
     <use xlink:href="#DejaVuSans-69" x="288.427734"/>
     <use xlink:href="#DejaVuSans-6e" x="316.210938"/>
     <use xlink:href="#DejaVuSans-67" x="379.589844"/>
     <use xlink:href="#DejaVuSans-44" x="443.066406"/>
     <use xlink:href="#DejaVuSans-61" x="520.068359"/>
     <use xlink:href="#DejaVuSans-74" x="581.347656"/>
     <use xlink:href="#DejaVuSans-61" x="620.556641"/>
     <use xlink:href="#DejaVuSans-52" x="681.835938"/>
     <use xlink:href="#DejaVuSans-61" x="749.068359"/>
     <use xlink:href="#DejaVuSans-74" x="810.347656"/>
     <use xlink:href="#DejaVuSans-65" x="849.556641"/>
     <use xlink:href="#DejaVuSans-3a" x="911.080078"/>
     <use xlink:href="#DejaVuSans-76" x="944.771484"/>
     <use xlink:href="#DejaVuSans-65" x="1003.951172"/>
     <use xlink:href="#DejaVuSans-63" x="1065.474609"/>
     <use xlink:href="#DejaVuSans-74" x="1120.455078"/>
     <use xlink:href="#DejaVuSans-6f" x="1159.664062"/>
     <use xlink:href="#DejaVuSans-72" x="1220.845703"/>
     <use xlink:href="#DejaVuSans-20" x="1261.958984"/>
     <use xlink:href="#DejaVuSans-28" x="1293.746094"/>
     <use xlink:href="#DejaVuSans-48" x="1332.759766"/>
     <use xlink:href="#DejaVuSans-61" x="1407.955078"/>
     <use xlink:href="#DejaVuSans-6e" x="1469.234375"/>
     <use xlink:href="#DejaVuSans-64" x="1532.613281"/>
     <use xlink:href="#DejaVuSans-6f" x="1596.089844"/>
     <use xlink:href="#DejaVuSans-76" x="1657.271484"/>
     <use xlink:href="#DejaVuSans-65" x="1716.451172"/>
     <use xlink:href="#DejaVuSans-72" x="1777.974609"/>
     <use xlink:href="#DejaVuSans-53" x="1819.087891"/>
     <use xlink:href="#DejaVuSans-68" x="1882.564453"/>
     <use xlink:href="#DejaVuSans-6f" x="1945.943359"/>
     <use xlink:href="#DejaVuSans-77" x="2007.125"/>
     <use xlink:href="#DejaVuSans-63" x="2088.912109"/>
     <use xlink:href="#DejaVuSans-61" x="2143.892578"/>
     <use xlink:href="#DejaVuSans-73" x="2205.171875"/>
     <use xlink:href="#DejaVuSans-65" x="2257.271484"/>
     <use xlink:href="#DejaVuSans-2e" x="2318.794922"/>
     <use xlink:href="#DejaVuSans-61" x="2350.582031"/>
     <use xlink:href="#DejaVuSans-70" x="2411.861328"/>
     <use xlink:href="#DejaVuSans-31" x="2475.337891"/>
     <use xlink:href="#DejaVuSans-2e" x="2538.960938"/>
     <use xlink:href="#DejaVuSans-77" x="2570.748047"/>
     <use xlink:href="#DejaVuSans-6c" x="2652.535156"/>
     <use xlink:href="#DejaVuSans-61" x="2680.318359"/>
     <use xlink:href="#DejaVuSans-6e" x="2741.597656"/>
     <use xlink:href="#DejaVuSans-5b" x="2804.976562"/>
     <use xlink:href="#DejaVuSans-30" x="2843.990234"/>
     <use xlink:href="#DejaVuSans-5d" x="2907.613281"/>
     <use xlink:href="#DejaVuSans-2e" x="2946.626953"/>
     <use xlink:href="#DejaVuSans-6d" x="2978.414062"/>
     <use xlink:href="#DejaVuSans-61" x="3075.826172"/>
     <use xlink:href="#DejaVuSans-63" x="3137.105469"/>
     <use xlink:href="#DejaVuSans-2e" x="3192.085938"/>
     <use xlink:href="#DejaVuSans-64" x="3223.873047"/>
     <use xlink:href="#DejaVuSans-63" x="3287.349609"/>
     <use xlink:href="#DejaVuSans-66" x="3342.330078"/>
     <use xlink:href="#DejaVuSans-2e" x="3370.285156"/>
     <use xlink:href="#DejaVuSans-63" x="3402.072266"/>
     <use xlink:href="#DejaVuSans-68" x="3457.052734"/>
     <use xlink:href="#DejaVuSans-61" x="3520.431641"/>
     <use xlink:href="#DejaVuSans-6e" x="3581.710938"/>
     <use xlink:href="#DejaVuSans-6e" x="3645.089844"/>
     <use xlink:href="#DejaVuSans-65" x="3708.46875"/>
     <use xlink:href="#DejaVuSans-6c" x="3769.992188"/>
     <use xlink:href="#DejaVuSans-41" x="3797.775391"/>
     <use xlink:href="#DejaVuSans-63" x="3864.433594"/>
     <use xlink:href="#DejaVuSans-63" x="3919.414062"/>
     <use xlink:href="#DejaVuSans-65" x="3974.394531"/>
     <use xlink:href="#DejaVuSans-73" x="4035.917969"/>
     <use xlink:href="#DejaVuSans-73" x="4088.017578"/>
     <use xlink:href="#DejaVuSans-2e" x="4140.117188"/>
     <use xlink:href="#DejaVuSans-70" x="4171.904297"/>
     <use xlink:href="#DejaVuSans-65" x="4235.380859"/>
     <use xlink:href="#DejaVuSans-6e" x="4296.904297"/>
     <use xlink:href="#DejaVuSans-64" x="4360.283203"/>
     <use xlink:href="#DejaVuSans-69" x="4423.759766"/>
     <use xlink:href="#DejaVuSans-6e" x="4451.542969"/>
     <use xlink:href="#DejaVuSans-67" x="4514.921875"/>
     <use xlink:href="#DejaVuSans-51" x="4578.398438"/>
     <use xlink:href="#DejaVuSans-75" x="4657.109375"/>
     <use xlink:href="#DejaVuSans-65" x="4720.488281"/>
     <use xlink:href="#DejaVuSans-75" x="4782.011719"/>
     <use xlink:href="#DejaVuSans-65" x="4845.390625"/>
     <use xlink:href="#DejaVuSans-29" x="4906.914062"/>
    </g>
   </g>
   <g id="legend_1">
    <g id="patch_7">
     <path d="M 63.09 60.478125 
L 188.572813 60.478125 
Q 190.572813 60.478125 190.572813 58.478125 
L 190.572813 44.8 
Q 190.572813 42.8 188.572813 42.8 
L 63.09 42.8 
Q 61.09 42.8 61.09 44.8 
L 61.09 58.478125 
Q 61.09 60.478125 63.09 60.478125 
z
" style="fill: #ffffff; opacity: 0.8; stroke: #cccccc; stroke-linejoin: miter"/>
    </g>
    <g id="line2d_28">
     <path d="M 65.09 50.898438 
L 75.09 50.898438 
L 85.09 50.898438 
" style="fill: none; stroke: #1f77b4; stroke-width: 1.5; stroke-linecap: square"/>
    </g>
    <g id="text_18">
     <!-- Δvalue per sample -->
     <g transform="translate(93.09 54.398438) scale(0.1 -0.1)">
      <defs>
       <path id="DejaVuSans-394" d="M 2188 4044 
L 906 525 
L 3472 525 
L 2188 4044 
z
M 50 0 
L 1831 4666 
L 2547 4666 
L 4325 0 
L 50 0 
z
" transform="scale(0.015625)"/>
      </defs>
      <use xlink:href="#DejaVuSans-394"/>
      <use xlink:href="#DejaVuSans-76" x="68.408203"/>
      <use xlink:href="#DejaVuSans-61" x="127.587891"/>
      <use xlink:href="#DejaVuSans-6c" x="188.867188"/>
      <use xlink:href="#DejaVuSans-75" x="216.650391"/>
      <use xlink:href="#DejaVuSans-65" x="280.029297"/>
      <use xlink:href="#DejaVuSans-20" x="341.552734"/>
      <use xlink:href="#DejaVuSans-70" x="373.339844"/>
      <use xlink:href="#DejaVuSans-65" x="436.816406"/>
      <use xlink:href="#DejaVuSans-72" x="498.339844"/>
      <use xlink:href="#DejaVuSans-20" x="539.453125"/>
      <use xlink:href="#DejaVuSans-73" x="571.240234"/>
      <use xlink:href="#DejaVuSans-61" x="623.339844"/>
      <use xlink:href="#DejaVuSans-6d" x="684.619141"/>
      <use xlink:href="#DejaVuSans-70" x="782.03125"/>
      <use xlink:href="#DejaVuSans-6c" x="845.507812"/>
      <use xlink:href="#DejaVuSans-65" x="873.291016"/>
     </g>
    </g>
   </g>
  </g>
 </g>
 <defs>
  <clipPath id="pa1d00609f9">
   <rect x="56.09" y="37.8" width="653.11" height="208.24"/>
  </clipPath>
 </defs>
</svg>
