<?xml version="1.0" encoding="utf-8" standalone="no"?>
<!DOCTYPE svg PUBLIC "-//W3C//DTD SVG 1.1//EN"
  "http://www.w3.org/Graphics/SVG/1.1/DTD/svg11.dtd">
<svg xmlns:xlink="http://www.w3.org/1999/xlink" width="720pt" height="288pt" viewBox="0 0 720 288" xmlns="http://www.w3.org/2000/svg" version="1.1">
 <metadata>
  <rdf:RDF xmlns:dc="http://purl.org/dc/elements/1.1/" xmlns:cc="http://creativecommons.org/ns#" xmlns:rdf="http://www.w3.org/1999/02/22-rdf-syntax-ns#">
   <cc:Work>
    <dc:type rdf:resource="http://purl.org/dc/dcmitype/StillImage"/>
    <dc:date>2025-07-27T15:08:46.694519</dc:date>
    <dc:format>image/svg+xml</dc:format>
    <dc:creator>
     <cc:Agent>
      <dc:title>Matplotlib v3.9.2, https://matplotlib.org/</dc:title>
     </cc:Agent>
    </dc:creator>
   </cc:Work>
  </rdf:RDF>
 </metadata>
 <defs>
  <style type="text/css">*{stroke-linejoin: round; stroke-linecap: butt}</style>
 </defs>
 <g id="figure_1">
  <g id="patch_1">
   <path d="M 0 288 
L 720 288 
L 720 0 
L 0 0 
z
" style="fill: #ffffff"/>
  </g>
  <g id="axes_1">
   <g id="patch_2">
    <path d="M 56.09 246.04 
L 709.2 246.04 
L 709.2 37.8 
L 56.09 37.8 
z
" style="fill: #ffffff"/>
   </g>
   <g id="matplotlib.axis_1">
    <g id="xtick_1">
     <g id="line2d_1">
      <path d="M 85.214609 246.04 
L 85.214609 37.8 
" clip-path="url(#p6964368dbd)" style="fill: none; stroke: #b0b0b0; stroke-width: 0.8; stroke-linecap: square"/>
     </g>
     <g id="line2d_2">
      <defs>
       <path id="md451481dbc" d="M 0 0 
L 0 3.5 
" style="stroke: #000000; stroke-width: 0.8"/>
      </defs>
      <g>
       <use xlink:href="#md451481dbc" x="85.214609" y="246.04" style="stroke: #000000; stroke-width: 0.8"/>
      </g>
     </g>
     <g id="text_1">
      <!-- 0 -->
      <g transform="translate(82.033359 260.638438) scale(0.1 -0.1)">
       <defs>
        <path id="DejaVuSans-30" d="M 2034 4250 
Q 1547 4250 1301 3770 
Q 1056 3291 1056 2328 
Q 1056 1369 1301 889 
Q 1547 409 2034 409 
Q 2525 409 2770 889 
Q 3016 1369 3016 2328 
Q 3016 3291 2770 3770 
Q 2525 4250 2034 4250 
z
M 2034 4750 
Q 2819 4750 3233 4129 
Q 3647 3509 3647 2328 
Q 3647 1150 3233 529 
Q 2819 -91 2034 -91 
Q 1250 -91 836 529 
Q 422 1150 422 2328 
Q 422 3509 836 4129 
Q 1250 4750 2034 4750 
z
" transform="scale(0.015625)"/>
       </defs>
       <use xlink:href="#DejaVuSans-30"/>
      </g>
     </g>
    </g>
    <g id="xtick_2">
     <g id="line2d_3">
      <path d="M 229.370863 246.04 
L 229.370863 37.8 
" clip-path="url(#p6964368dbd)" style="fill: none; stroke: #b0b0b0; stroke-width: 0.8; stroke-linecap: square"/>
     </g>
     <g id="line2d_4">
      <g>
       <use xlink:href="#md451481dbc" x="229.370863" y="246.04" style="stroke: #000000; stroke-width: 0.8"/>
      </g>
     </g>
     <g id="text_2">
      <!-- 10000 -->
      <g transform="translate(213.464613 260.638438) scale(0.1 -0.1)">
       <defs>
        <path id="DejaVuSans-31" d="M 794 531 
L 1825 531 
L 1825 4091 
L 703 3866 
L 703 4441 
L 1819 4666 
L 2450 4666 
L 2450 531 
L 3481 531 
L 3481 0 
L 794 0 
L 794 531 
z
" transform="scale(0.015625)"/>
       </defs>
       <use xlink:href="#DejaVuSans-31"/>
       <use xlink:href="#DejaVuSans-30" x="63.623047"/>
       <use xlink:href="#DejaVuSans-30" x="127.246094"/>
       <use xlink:href="#DejaVuSans-30" x="190.869141"/>
       <use xlink:href="#DejaVuSans-30" x="254.492188"/>
      </g>
     </g>
    </g>
    <g id="xtick_3">
     <g id="line2d_5">
      <path d="M 373.527117 246.04 
L 373.527117 37.8 
" clip-path="url(#p6964368dbd)" style="fill: none; stroke: #b0b0b0; stroke-width: 0.8; stroke-linecap: square"/>
     </g>
     <g id="line2d_6">
      <g>
       <use xlink:href="#md451481dbc" x="373.527117" y="246.04" style="stroke: #000000; stroke-width: 0.8"/>
      </g>
     </g>
     <g id="text_3">
      <!-- 20000 -->
      <g transform="translate(357.620867 260.638438) scale(0.1 -0.1)">
       <defs>
        <path id="DejaVuSans-32" d="M 1228 531 
L 3431 531 
L 3431 0 
L 469 0 
L 469 531 
Q 828 903 1448 1529 
Q 2069 2156 2228 2338 
Q 2531 2678 2651 2914 
Q 2772 3150 2772 3378 
Q 2772 3750 2511 3984 
Q 2250 4219 1831 4219 
Q 1534 4219 1204 4116 
Q 875 4013 500 3803 
L 500 4441 
Q 881 4594 1212 4672 
Q 1544 4750 1819 4750 
Q 2544 4750 2975 4387 
Q 3406 4025 3406 3419 
Q 3406 3131 3298 2873 
Q 3191 2616 2906 2266 
Q 2828 2175 2409 1742 
Q 1991 1309 1228 531 
z
" transform="scale(0.015625)"/>
       </defs>
       <use xlink:href="#DejaVuSans-32"/>
       <use xlink:href="#DejaVuSans-30" x="63.623047"/>
       <use xlink:href="#DejaVuSans-30" x="127.246094"/>
       <use xlink:href="#DejaVuSans-30" x="190.869141"/>
       <use xlink:href="#DejaVuSans-30" x="254.492188"/>
      </g>
     </g>
    </g>
    <g id="xtick_4">
     <g id="line2d_7">
      <path d="M 517.683371 246.04 
L 517.683371 37.8 
" clip-path="url(#p6964368dbd)" style="fill: none; stroke: #b0b0b0; stroke-width: 0.8; stroke-linecap: square"/>
     </g>
     <g id="line2d_8">
      <g>
       <use xlink:href="#md451481dbc" x="517.683371" y="246.04" style="stroke: #000000; stroke-width: 0.8"/>
      </g>
     </g>
     <g id="text_4">
      <!-- 30000 -->
      <g transform="translate(501.777121 260.638438) scale(0.1 -0.1)">
       <defs>
        <path id="DejaVuSans-33" d="M 2597 2516 
Q 3050 2419 3304 2112 
Q 3559 1806 3559 1356 
Q 3559 666 3084 287 
Q 2609 -91 1734 -91 
Q 1441 -91 1130 -33 
Q 819 25 488 141 
L 488 750 
Q 750 597 1062 519 
Q 1375 441 1716 441 
Q 2309 441 2620 675 
Q 2931 909 2931 1356 
Q 2931 1769 2642 2001 
Q 2353 2234 1838 2234 
L 1294 2234 
L 1294 2753 
L 1863 2753 
Q 2328 2753 2575 2939 
Q 2822 3125 2822 3475 
Q 2822 3834 2567 4026 
Q 2313 4219 1838 4219 
Q 1578 4219 1281 4162 
Q 984 4106 628 3988 
L 628 4550 
Q 988 4650 1302 4700 
Q 1616 4750 1894 4750 
Q 2613 4750 3031 4423 
Q 3450 4097 3450 3541 
Q 3450 3153 3228 2886 
Q 3006 2619 2597 2516 
z
" transform="scale(0.015625)"/>
       </defs>
       <use xlink:href="#DejaVuSans-33"/>
       <use xlink:href="#DejaVuSans-30" x="63.623047"/>
       <use xlink:href="#DejaVuSans-30" x="127.246094"/>
       <use xlink:href="#DejaVuSans-30" x="190.869141"/>
       <use xlink:href="#DejaVuSans-30" x="254.492188"/>
      </g>
     </g>
    </g>
    <g id="xtick_5">
     <g id="line2d_9">
      <path d="M 661.839625 246.04 
L 661.839625 37.8 
" clip-path="url(#p6964368dbd)" style="fill: none; stroke: #b0b0b0; stroke-width: 0.8; stroke-linecap: square"/>
     </g>
     <g id="line2d_10">
      <g>
       <use xlink:href="#md451481dbc" x="661.839625" y="246.04" style="stroke: #000000; stroke-width: 0.8"/>
      </g>
     </g>
     <g id="text_5">
      <!-- 40000 -->
      <g transform="translate(645.933375 260.638438) scale(0.1 -0.1)">
       <defs>
        <path id="DejaVuSans-34" d="M 2419 4116 
L 825 1625 
L 2419 1625 
L 2419 4116 
z
M 2253 4666 
L 3047 4666 
L 3047 1625 
L 3713 1625 
L 3713 1100 
L 3047 1100 
L 3047 0 
L 2419 0 
L 2419 1100 
L 313 1100 
L 313 1709 
L 2253 4666 
z
" transform="scale(0.015625)"/>
       </defs>
       <use xlink:href="#DejaVuSans-34"/>
       <use xlink:href="#DejaVuSans-30" x="63.623047"/>
       <use xlink:href="#DejaVuSans-30" x="127.246094"/>
       <use xlink:href="#DejaVuSans-30" x="190.869141"/>
       <use xlink:href="#DejaVuSans-30" x="254.492188"/>
      </g>
     </g>
    </g>
    <g id="text_6">
     <!-- Time (s) -->
     <g transform="translate(362.316094 274.316562) scale(0.1 -0.1)">
      <defs>
       <path id="DejaVuSans-54" d="M -19 4666 
L 3928 4666 
L 3928 4134 
L 2272 4134 
L 2272 0 
L 1638 0 
L 1638 4134 
L -19 4134 
L -19 4666 
z
" transform="scale(0.015625)"/>
       <path id="DejaVuSans-69" d="M 603 3500 
L 1178 3500 
L 1178 0 
L 603 0 
L 603 3500 
z
M 603 4863 
L 1178 4863 
L 1178 4134 
L 603 4134 
L 603 4863 
z
" transform="scale(0.015625)"/>
       <path id="DejaVuSans-6d" d="M 3328 2828 
Q 3544 3216 3844 3400 
Q 4144 3584 4550 3584 
Q 5097 3584 5394 3201 
Q 5691 2819 5691 2113 
L 5691 0 
L 5113 0 
L 5113 2094 
Q 5113 2597 4934 2840 
Q 4756 3084 4391 3084 
Q 3944 3084 3684 2787 
Q 3425 2491 3425 1978 
L 3425 0 
L 2847 0 
L 2847 2094 
Q 2847 2600 2669 2842 
Q 2491 3084 2119 3084 
Q 1678 3084 1418 2786 
Q 1159 2488 1159 1978 
L 1159 0 
L 581 0 
L 581 3500 
L 1159 3500 
L 1159 2956 
Q 1356 3278 1631 3431 
Q 1906 3584 2284 3584 
Q 2666 3584 2933 3390 
Q 3200 3197 3328 2828 
z
" transform="scale(0.015625)"/>
       <path id="DejaVuSans-65" d="M 3597 1894 
L 3597 1613 
L 953 1613 
Q 991 1019 1311 708 
Q 1631 397 2203 397 
Q 2534 397 2845 478 
Q 3156 559 3463 722 
L 3463 178 
Q 3153 47 2828 -22 
Q 2503 -91 2169 -91 
Q 1331 -91 842 396 
Q 353 884 353 1716 
Q 353 2575 817 3079 
Q 1281 3584 2069 3584 
Q 2775 3584 3186 3129 
Q 3597 2675 3597 1894 
z
M 3022 2063 
Q 3016 2534 2758 2815 
Q 2500 3097 2075 3097 
Q 1594 3097 1305 2825 
Q 1016 2553 972 2059 
L 3022 2063 
z
" transform="scale(0.015625)"/>
       <path id="DejaVuSans-20" transform="scale(0.015625)"/>
       <path id="DejaVuSans-28" d="M 1984 4856 
Q 1566 4138 1362 3434 
Q 1159 2731 1159 2009 
Q 1159 1288 1364 580 
Q 1569 -128 1984 -844 
L 1484 -844 
Q 1016 -109 783 600 
Q 550 1309 550 2009 
Q 550 2706 781 3412 
Q 1013 4119 1484 4856 
L 1984 4856 
z
" transform="scale(0.015625)"/>
       <path id="DejaVuSans-73" d="M 2834 3397 
L 2834 2853 
Q 2591 2978 2328 3040 
Q 2066 3103 1784 3103 
Q 1356 3103 1142 2972 
Q 928 2841 928 2578 
Q 928 2378 1081 2264 
Q 1234 2150 1697 2047 
L 1894 2003 
Q 2506 1872 2764 1633 
Q 3022 1394 3022 966 
Q 3022 478 2636 193 
Q 2250 -91 1575 -91 
Q 1294 -91 989 -36 
Q 684 19 347 128 
L 347 722 
Q 666 556 975 473 
Q 1284 391 1588 391 
Q 1994 391 2212 530 
Q 2431 669 2431 922 
Q 2431 1156 2273 1281 
Q 2116 1406 1581 1522 
L 1381 1569 
Q 847 1681 609 1914 
Q 372 2147 372 2553 
Q 372 3047 722 3315 
Q 1072 3584 1716 3584 
Q 2034 3584 2315 3537 
Q 2597 3491 2834 3397 
z
" transform="scale(0.015625)"/>
       <path id="DejaVuSans-29" d="M 513 4856 
L 1013 4856 
Q 1481 4119 1714 3412 
Q 1947 2706 1947 2009 
Q 1947 1309 1714 600 
Q 1481 -109 1013 -844 
L 513 -844 
Q 928 -128 1133 580 
Q 1338 1288 1338 2009 
Q 1338 2731 1133 3434 
Q 928 4138 513 4856 
z
" transform="scale(0.015625)"/>
      </defs>
      <use xlink:href="#DejaVuSans-54"/>
      <use xlink:href="#DejaVuSans-69" x="57.958984"/>
      <use xlink:href="#DejaVuSans-6d" x="85.742188"/>
      <use xlink:href="#DejaVuSans-65" x="183.154297"/>
      <use xlink:href="#DejaVuSans-20" x="244.677734"/>
      <use xlink:href="#DejaVuSans-28" x="276.464844"/>
      <use xlink:href="#DejaVuSans-73" x="315.478516"/>
      <use xlink:href="#DejaVuSans-29" x="367.578125"/>
     </g>
    </g>
   </g>
   <g id="matplotlib.axis_2">
    <g id="ytick_1">
     <g id="line2d_11">
      <path d="M 56.09 240.75 
L 709.2 240.75 
" clip-path="url(#p6964368dbd)" style="fill: none; stroke: #b0b0b0; stroke-width: 0.8; stroke-linecap: square"/>
     </g>
     <g id="line2d_12">
      <defs>
       <path id="mf015e487ae" d="M 0 0 
L -3.5 0 
" style="stroke: #000000; stroke-width: 0.8"/>
      </defs>
      <g>
       <use xlink:href="#mf015e487ae" x="56.09" y="240.75" style="stroke: #000000; stroke-width: 0.8"/>
      </g>
     </g>
     <g id="text_7">
      <!-- −0.6 -->
      <g transform="translate(24.807188 244.549219) scale(0.1 -0.1)">
       <defs>
        <path id="DejaVuSans-2212" d="M 678 2272 
L 4684 2272 
L 4684 1741 
L 678 1741 
L 678 2272 
z
" transform="scale(0.015625)"/>
        <path id="DejaVuSans-2e" d="M 684 794 
L 1344 794 
L 1344 0 
L 684 0 
L 684 794 
z
" transform="scale(0.015625)"/>
        <path id="DejaVuSans-36" d="M 2113 2584 
Q 1688 2584 1439 2293 
Q 1191 2003 1191 1497 
Q 1191 994 1439 701 
Q 1688 409 2113 409 
Q 2538 409 2786 701 
Q 3034 994 3034 1497 
Q 3034 2003 2786 2293 
Q 2538 2584 2113 2584 
z
M 3366 4563 
L 3366 3988 
Q 3128 4100 2886 4159 
Q 2644 4219 2406 4219 
Q 1781 4219 1451 3797 
Q 1122 3375 1075 2522 
Q 1259 2794 1537 2939 
Q 1816 3084 2150 3084 
Q 2853 3084 3261 2657 
Q 3669 2231 3669 1497 
Q 3669 778 3244 343 
Q 2819 -91 2113 -91 
Q 1303 -91 875 529 
Q 447 1150 447 2328 
Q 447 3434 972 4092 
Q 1497 4750 2381 4750 
Q 2619 4750 2861 4703 
Q 3103 4656 3366 4563 
z
" transform="scale(0.015625)"/>
       </defs>
       <use xlink:href="#DejaVuSans-2212"/>
       <use xlink:href="#DejaVuSans-30" x="83.789062"/>
       <use xlink:href="#DejaVuSans-2e" x="147.412109"/>
       <use xlink:href="#DejaVuSans-36" x="179.199219"/>
      </g>
     </g>
    </g>
    <g id="ytick_2">
     <g id="line2d_13">
      <path d="M 56.09 214.25 
L 709.2 214.25 
" clip-path="url(#p6964368dbd)" style="fill: none; stroke: #b0b0b0; stroke-width: 0.8; stroke-linecap: square"/>
     </g>
     <g id="line2d_14">
      <g>
       <use xlink:href="#mf015e487ae" x="56.09" y="214.25" style="stroke: #000000; stroke-width: 0.8"/>
      </g>
     </g>
     <g id="text_8">
      <!-- −0.4 -->
      <g transform="translate(24.807188 218.049219) scale(0.1 -0.1)">
       <use xlink:href="#DejaVuSans-2212"/>
       <use xlink:href="#DejaVuSans-30" x="83.789062"/>
       <use xlink:href="#DejaVuSans-2e" x="147.412109"/>
       <use xlink:href="#DejaVuSans-34" x="179.199219"/>
      </g>
     </g>
    </g>
    <g id="ytick_3">
     <g id="line2d_15">
      <path d="M 56.09 187.5 
L 709.2 187.5 
" clip-path="url(#p6964368dbd)" style="fill: none; stroke: #b0b0b0; stroke-width: 0.8; stroke-linecap: square"/>
     </g>
     <g id="line2d_16">
      <g>
       <use xlink:href="#mf015e487ae" x="56.09" y="187.5" style="stroke: #000000; stroke-width: 0.8"/>
      </g>
     </g>
     <g id="text_9">
      <!-- −0.2 -->
      <g transform="translate(24.807188 191.299219) scale(0.1 -0.1)">
       <use xlink:href="#DejaVuSans-2212"/>
       <use xlink:href="#DejaVuSans-30" x="83.789062"/>
       <use xlink:href="#DejaVuSans-2e" x="147.412109"/>
       <use xlink:href="#DejaVuSans-32" x="179.199219"/>
      </g>
     </g>
    </g>
    <g id="ytick_4">
     <g id="line2d_17">
      <path d="M 56.09 161 
L 709.2 161 
" clip-path="url(#p6964368dbd)" style="fill: none; stroke: #b0b0b0; stroke-width: 0.8; stroke-linecap: square"/>
     </g>
     <g id="line2d_18">
      <g>
       <use xlink:href="#mf015e487ae" x="56.09" y="161" style="stroke: #000000; stroke-width: 0.8"/>
      </g>
     </g>
     <g id="text_10">
      <!-- 0.0 -->
      <g transform="translate(33.186875 164.799219) scale(0.1 -0.1)">
       <use xlink:href="#DejaVuSans-30"/>
       <use xlink:href="#DejaVuSans-2e" x="63.623047"/>
       <use xlink:href="#DejaVuSans-30" x="95.410156"/>
      </g>
     </g>
    </g>
    <g id="ytick_5">
     <g id="line2d_19">
      <path d="M 56.09 134.25 
L 709.2 134.25 
" clip-path="url(#p6964368dbd)" style="fill: none; stroke: #b0b0b0; stroke-width: 0.8; stroke-linecap: square"/>
     </g>
     <g id="line2d_20">
      <g>
       <use xlink:href="#mf015e487ae" x="56.09" y="134.25" style="stroke: #000000; stroke-width: 0.8"/>
      </g>
     </g>
     <g id="text_11">
      <!-- 0.2 -->
      <g transform="translate(33.186875 138.049219) scale(0.1 -0.1)">
       <use xlink:href="#DejaVuSans-30"/>
       <use xlink:href="#DejaVuSans-2e" x="63.623047"/>
       <use xlink:href="#DejaVuSans-32" x="95.410156"/>
      </g>
     </g>
    </g>
    <g id="ytick_6">
     <g id="line2d_21">
      <path d="M 56.09 107.75 
L 709.2 107.75 
" clip-path="url(#p6964368dbd)" style="fill: none; stroke: #b0b0b0; stroke-width: 0.8; stroke-linecap: square"/>
     </g>
     <g id="line2d_22">
      <g>
       <use xlink:href="#mf015e487ae" x="56.09" y="107.75" style="stroke: #000000; stroke-width: 0.8"/>
      </g>
     </g>
     <g id="text_12">
      <!-- 0.4 -->
      <g transform="translate(33.186875 111.549219) scale(0.1 -0.1)">
       <use xlink:href="#DejaVuSans-30"/>
       <use xlink:href="#DejaVuSans-2e" x="63.623047"/>
       <use xlink:href="#DejaVuSans-34" x="95.410156"/>
      </g>
     </g>
    </g>
    <g id="ytick_7">
     <g id="line2d_23">
      <path d="M 56.09 81 
L 709.2 81 
" clip-path="url(#p6964368dbd)" style="fill: none; stroke: #b0b0b0; stroke-width: 0.8; stroke-linecap: square"/>
     </g>
     <g id="line2d_24">
      <g>
       <use xlink:href="#mf015e487ae" x="56.09" y="81" style="stroke: #000000; stroke-width: 0.8"/>
      </g>
     </g>
     <g id="text_13">
      <!-- 0.6 -->
      <g transform="translate(33.186875 84.799219) scale(0.1 -0.1)">
       <use xlink:href="#DejaVuSans-30"/>
       <use xlink:href="#DejaVuSans-2e" x="63.623047"/>
       <use xlink:href="#DejaVuSans-36" x="95.410156"/>
      </g>
     </g>
    </g>
    <g id="ytick_8">
     <g id="line2d_25">
      <path d="M 56.09 54.5 
L 709.2 54.5 
" clip-path="url(#p6964368dbd)" style="fill: none; stroke: #b0b0b0; stroke-width: 0.8; stroke-linecap: square"/>
     </g>
     <g id="line2d_26">
      <g>
       <use xlink:href="#mf015e487ae" x="56.09" y="54.5" style="stroke: #000000; stroke-width: 0.8"/>
      </g>
     </g>
     <g id="text_14">
      <!-- 0.8 -->
      <g transform="translate(33.186875 58.299219) scale(0.1 -0.1)">
       <defs>
        <path id="DejaVuSans-38" d="M 2034 2216 
Q 1584 2216 1326 1975 
Q 1069 1734 1069 1313 
Q 1069 891 1326 650 
Q 1584 409 2034 409 
Q 2484 409 2743 651 
Q 3003 894 3003 1313 
Q 3003 1734 2745 1975 
Q 2488 2216 2034 2216 
z
M 1403 2484 
Q 997 2584 770 2862 
Q 544 3141 544 3541 
Q 544 4100 942 4425 
Q 1341 4750 2034 4750 
Q 2731 4750 3128 4425 
Q 3525 4100 3525 3541 
Q 3525 3141 3298 2862 
Q 3072 2584 2669 2484 
Q 3125 2378 3379 2068 
Q 3634 1759 3634 1313 
Q 3634 634 3220 271 
Q 2806 -91 2034 -91 
Q 1263 -91 848 271 
Q 434 634 434 1313 
Q 434 1759 690 2068 
Q 947 2378 1403 2484 
z
M 1172 3481 
Q 1172 3119 1398 2916 
Q 1625 2713 2034 2713 
Q 2441 2713 2670 2916 
Q 2900 3119 2900 3481 
Q 2900 3844 2670 4047 
Q 2441 4250 2034 4250 
Q 1625 4250 1398 4047 
Q 1172 3844 1172 3481 
z
" transform="scale(0.015625)"/>
       </defs>
       <use xlink:href="#DejaVuSans-30"/>
       <use xlink:href="#DejaVuSans-2e" x="63.623047"/>
       <use xlink:href="#DejaVuSans-38" x="95.410156"/>
      </g>
     </g>
    </g>
    <g id="text_15">
     <!-- Delta Value -->
     <g transform="translate(18.7275 170.580156) rotate(-90) scale(0.1 -0.1)">
      <defs>
       <path id="DejaVuSans-44" d="M 1259 4147 
L 1259 519 
L 2022 519 
Q 2988 519 3436 956 
Q 3884 1394 3884 2338 
Q 3884 3275 3436 3711 
Q 2988 4147 2022 4147 
L 1259 4147 
z
M 628 4666 
L 1925 4666 
Q 3281 4666 3915 4102 
Q 4550 3538 4550 2338 
Q 4550 1131 3912 565 
Q 3275 0 1925 0 
L 628 0 
L 628 4666 
z
" transform="scale(0.015625)"/>
       <path id="DejaVuSans-6c" d="M 603 4863 
L 1178 4863 
L 1178 0 
L 603 0 
L 603 4863 
z
" transform="scale(0.015625)"/>
       <path id="DejaVuSans-74" d="M 1172 4494 
L 1172 3500 
L 2356 3500 
L 2356 3053 
L 1172 3053 
L 1172 1153 
Q 1172 725 1289 603 
Q 1406 481 1766 481 
L 2356 481 
L 2356 0 
L 1766 0 
Q 1100 0 847 248 
Q 594 497 594 1153 
L 594 3053 
L 172 3053 
L 172 3500 
L 594 3500 
L 594 4494 
L 1172 4494 
z
" transform="scale(0.015625)"/>
       <path id="DejaVuSans-61" d="M 2194 1759 
Q 1497 1759 1228 1600 
Q 959 1441 959 1056 
Q 959 750 1161 570 
Q 1363 391 1709 391 
Q 2188 391 2477 730 
Q 2766 1069 2766 1631 
L 2766 1759 
L 2194 1759 
z
M 3341 1997 
L 3341 0 
L 2766 0 
L 2766 531 
Q 2569 213 2275 61 
Q 1981 -91 1556 -91 
Q 1019 -91 701 211 
Q 384 513 384 1019 
Q 384 1609 779 1909 
Q 1175 2209 1959 2209 
L 2766 2209 
L 2766 2266 
Q 2766 2663 2505 2880 
Q 2244 3097 1772 3097 
Q 1472 3097 1187 3025 
Q 903 2953 641 2809 
L 641 3341 
Q 956 3463 1253 3523 
Q 1550 3584 1831 3584 
Q 2591 3584 2966 3190 
Q 3341 2797 3341 1997 
z
" transform="scale(0.015625)"/>
       <path id="DejaVuSans-56" d="M 1831 0 
L 50 4666 
L 709 4666 
L 2188 738 
L 3669 4666 
L 4325 4666 
L 2547 0 
L 1831 0 
z
" transform="scale(0.015625)"/>
       <path id="DejaVuSans-75" d="M 544 1381 
L 544 3500 
L 1119 3500 
L 1119 1403 
Q 1119 906 1312 657 
Q 1506 409 1894 409 
Q 2359 409 2629 706 
Q 2900 1003 2900 1516 
L 2900 3500 
L 3475 3500 
L 3475 0 
L 2900 0 
L 2900 538 
Q 2691 219 2414 64 
Q 2138 -91 1772 -91 
Q 1169 -91 856 284 
Q 544 659 544 1381 
z
M 1991 3584 
L 1991 3584 
z
" transform="scale(0.015625)"/>
      </defs>
      <use xlink:href="#DejaVuSans-44"/>
      <use xlink:href="#DejaVuSans-65" x="77.001953"/>
      <use xlink:href="#DejaVuSans-6c" x="138.525391"/>
      <use xlink:href="#DejaVuSans-74" x="166.308594"/>
      <use xlink:href="#DejaVuSans-61" x="205.517578"/>
      <use xlink:href="#DejaVuSans-20" x="266.796875"/>
      <use xlink:href="#DejaVuSans-56" x="298.583984"/>
      <use xlink:href="#DejaVuSans-61" x="359.242188"/>
      <use xlink:href="#DejaVuSans-6c" x="420.521484"/>
      <use xlink:href="#DejaVuSans-75" x="448.304688"/>
      <use xlink:href="#DejaVuSans-65" x="511.683594"/>
     </g>
    </g>
    <g id="text_16">
     <!-- 1e−14+1e−1 -->
     <g transform="translate(56.09 34.8) scale(0.1 -0.1)">
      <defs>
       <path id="DejaVuSans-2b" d="M 2944 4013 
L 2944 2272 
L 4684 2272 
L 4684 1741 
L 2944 1741 
L 2944 0 
L 2419 0 
L 2419 1741 
L 678 1741 
L 678 2272 
L 2419 2272 
L 2419 4013 
L 2944 4013 
z
" transform="scale(0.015625)"/>
      </defs>
      <use xlink:href="#DejaVuSans-31"/>
      <use xlink:href="#DejaVuSans-65" x="63.623047"/>
      <use xlink:href="#DejaVuSans-2212" x="125.146484"/>
      <use xlink:href="#DejaVuSans-31" x="208.935547"/>
      <use xlink:href="#DejaVuSans-34" x="272.558594"/>
      <use xlink:href="#DejaVuSans-2b" x="336.181641"/>
      <use xlink:href="#DejaVuSans-31" x="419.970703"/>
      <use xlink:href="#DejaVuSans-65" x="483.59375"/>
      <use xlink:href="#DejaVuSans-2212" x="545.117188"/>
      <use xlink:href="#DejaVuSans-31" x="628.90625"/>
     </g>
    </g>
   </g>
   <g id="line2d_27">
    <path d="M 85.776818 161 
L 86.656171 161 
L 87.189549 161.25 
L 88.054487 160.5 
L 88.515787 161.25 
L 90.41865 161.25 
L 90.952028 159.75 
L 91.643978 161.25 
L 92.16294 159.75 
L 92.869306 162.75 
L 93.575672 159.75 
L 94.296453 162.75 
L 94.973987 159.75 
L 98.15984 159.75 
L 98.678803 162.75 
L 99.370753 159.75 
L 99.889715 162.75 
L 100.581665 159.75 
L 101.576344 159.75 
L 102.268294 165.75 
L 102.787256 159.75 
L 104.502716 159.75 
L 105.194666 165.75 
L 105.713628 159.75 
L 107.400256 159.75 
L 108.092206 165.75 
L 108.611169 159.75 
L 110.297797 159.75 
L 110.989747 165.75 
L 111.537541 159.75 
L 112.705206 159.75 
L 113.224169 165.75 
L 113.916119 154 
L 114.435081 165.75 
L 115.127032 165.75 
L 115.602747 154 
L 116.12171 165.75 
L 116.81366 154 
L 117.332622 165.75 
L 118.024572 165.75 
L 118.500288 154 
L 119.048082 165.75 
L 119.740032 154 
L 120.258994 165.75 
L 120.950944 165.75 
L 121.42666 154 
L 121.945622 165.75 
L 122.637572 154 
L 123.156535 165.75 
L 123.848485 165.75 
L 124.324201 154 
L 124.843163 165.75 
L 125.535113 154 
L 126.082907 165.75 
L 126.774857 165.75 
L 127.250572 154 
L 127.769535 165.75 
L 128.461485 154 
L 128.980448 165.75 
L 129.672398 165.75 
L 130.148113 154 
L 130.667076 165.75 
L 131.359026 154 
L 131.877988 165.75 
L 132.569938 165.75 
L 133.045654 154 
L 133.593448 165.75 
L 134.285398 154 
L 134.80436 165.75 
L 135.49631 165.75 
L 135.972026 154 
L 136.490988 165.75 
L 137.182938 165.75 
L 137.701901 142 
L 138.393851 165.75 
L 140.080479 165.75 
L 140.628273 142 
L 141.320223 165.75 
L 143.006851 165.75 
L 143.525814 142 
L 144.217764 165.75 
L 145.904392 165.75 
L 146.423354 142 
L 147.115304 165.75 
L 148.830764 165.75 
L 149.349726 142 
L 150.041676 165.75 
L 151.728304 165.75 
L 152.247267 142 
L 152.939217 165.75 
L 154.625845 165.75 
L 155.173639 142 
L 155.865589 165.75 
L 157.552217 165.75 
L 158.07118 142 
L 158.76313 165.75 
L 160.449758 165.75 
L 160.96872 142 
L 161.66067 165.75 
L 163.37613 165.75 
L 163.895092 142 
L 164.587042 165.75 
L 166.27367 165.75 
L 166.792633 142 
L 167.484583 165.75 
L 169.171211 165.75 
L 169.719005 142 
L 170.410955 165.75 
L 172.097583 165.75 
L 172.616546 142 
L 173.308496 165.75 
L 174.995124 165.75 
L 175.514086 142 
L 176.206036 165.75 
L 177.921496 165.75 
L 178.440458 142 
L 179.132408 165.75 
L 180.819036 165.75 
L 181.337999 142 
L 182.029949 165.75 
L 182.505665 189.5 
L 183.024627 142 
L 183.716577 142 
L 184.264371 189.5 
L 184.956321 142 
L 185.432037 189.5 
L 185.950999 142 
L 186.642949 142 
L 187.161912 189.5 
L 187.853862 142 
L 188.329577 189.5 
L 188.84854 142 
L 189.54049 142 
L 190.059452 189.5 
L 190.751402 142 
L 191.227118 189.5 
L 191.774912 142 
L 192.466862 142 
L 192.985824 189.5 
L 193.677774 142 
L 194.15349 189.5 
L 194.672453 142 
L 195.364403 142 
L 195.883365 189.5 
L 196.575315 142 
L 197.051031 189.5 
L 197.569993 142 
L 198.261943 142 
L 198.809737 189.5 
L 199.501687 142 
L 199.977403 189.5 
L 200.496365 142 
L 201.188315 142 
L 201.707278 189.5 
L 202.399228 142 
L 202.874943 189.5 
L 203.393906 142 
L 204.085856 142 
L 204.604818 189.5 
L 205.296768 142 
L 205.772484 189.5 
L 206.320278 142 
L 207.012228 142 
L 207.53119 189.5 
L 208.22314 142 
L 208.698856 189.5 
L 209.217819 142 
L 209.909769 142 
L 210.428731 189.5 
L 211.120681 142 
L 211.596397 189.5 
L 212.115359 142 
L 212.807309 142 
L 213.355103 189.5 
L 214.047053 142 
L 214.522769 189.5 
L 215.041731 142 
L 215.733681 142 
L 216.252644 189.5 
L 216.944594 142 
L 217.420309 189.5 
L 217.939272 142 
L 218.631222 142 
L 219.150184 189.5 
L 219.842134 142 
L 220.31785 189.5 
L 220.865644 142 
L 221.557594 142 
L 222.076556 189.5 
L 222.768506 142 
L 223.244222 189.5 
L 223.763185 142 
L 224.455135 142 
L 224.974097 189.5 
L 225.666047 142 
L 226.141763 189.5 
L 226.660725 142 
L 227.352675 142 
L 227.900469 189.5 
L 228.592419 142 
L 229.068135 189.5 
L 229.587097 142 
L 230.279047 142 
L 230.79801 189.5 
L 231.48996 142 
L 231.965675 189.5 
L 232.484638 142 
L 233.176588 142 
L 233.69555 189.5 
L 234.387501 142 
L 234.863216 189.5 
L 235.41101 142 
L 236.10296 142 
L 236.621922 189.5 
L 237.313872 142 
L 237.789588 189.5 
L 238.308551 142 
L 239.000501 142 
L 239.519463 189.5 
L 240.211413 142 
L 240.687129 189.5 
L 241.206091 142 
L 241.898041 142 
L 242.445835 189.5 
L 243.137785 142 
L 243.613501 189.5 
L 244.132463 142 
L 244.824413 142 
L 245.343376 189.5 
L 246.035326 142 
L 246.511041 189.5 
L 247.030004 142 
L 247.721954 142 
L 248.240917 189.5 
L 248.932867 142 
L 249.408582 189.5 
L 249.956376 142 
L 250.648326 142 
L 251.167288 189.5 
L 251.859238 142 
L 252.334954 189.5 
L 252.853917 142 
L 253.545867 142 
L 254.064829 189.5 
L 254.756779 142 
L 255.232495 189.5 
L 255.751457 142 
L 256.443407 142 
L 256.96237 189.5 
L 257.625489 142 
L 258.130036 189.5 
L 258.836401 142 
L 259.49952 142 
L 260.032898 189.5 
L 260.912251 142 
L 261.402383 189.5 
L 262.108748 142 
L 262.771867 142 
L 263.334076 189.5 
L 264.703561 142 
L 265.193692 189.5 
L 265.741486 142 
L 266.447851 142 
L 267.154217 189.5 
L 270.556305 142 
L 271.03202 189.5 
L 271.550983 142 
L 272.242933 142 
L 272.761895 189.5 
L 273.453845 142 
L 273.929561 189.5 
L 274.448524 142 
L 275.140474 142 
L 275.688267 189.5 
L 276.380217 142 
L 276.855933 189.5 
L 277.374895 142 
L 278.066845 142 
L 278.585808 189.5 
L 279.277758 142 
L 280.272436 142 
L 280.964386 236.75 
L 281.483349 142 
L 283.198808 142 
L 283.890758 236.75 
L 284.409721 142 
L 286.096349 142 
L 286.788299 236.75 
L 287.307261 142 
L 288.99389 142 
L 289.68584 236.75 
L 290.233633 142 
L 291.920262 142 
L 292.612212 236.75 
L 293.131174 142 
L 294.817802 142 
L 295.509752 236.75 
L 296.028715 142 
L 297.744174 142 
L 298.436124 236.75 
L 298.955087 142 
L 300.641715 142 
L 301.333665 236.75 
L 301.852627 142 
L 303.539256 142 
L 304.231206 236.75 
L 304.778999 142 
L 306.465628 142 
L 307.157578 236.75 
L 307.67654 142 
L 309.363168 142 
L 310.055118 236.75 
L 310.574081 142 
L 312.28954 142 
L 312.98149 236.75 
L 313.500453 142 
L 315.187081 142 
L 315.879031 236.75 
L 316.397993 142 
L 318.084622 142 
L 318.776572 236.75 
L 319.324365 142 
L 321.010994 142 
L 321.702944 236.75 
L 322.221906 142 
L 323.908534 142 
L 324.600484 236.75 
L 325.119447 142 
L 326.834906 142 
L 327.526856 236.75 
L 328.045819 142 
L 329.732447 142 
L 330.424397 236.75 
L 330.943359 142 
L 332.629988 142 
L 333.321938 236.75 
L 333.869731 142 
L 335.55636 142 
L 336.24831 236.75 
L 336.767272 142 
L 338.4539 142 
L 339.14585 236.75 
L 339.664813 142 
L 341.380272 142 
L 342.072222 236.75 
L 342.591185 142 
L 344.277813 142 
L 344.969763 236.75 
L 345.488726 142 
L 347.175354 142 
L 347.867304 236.75 
L 348.415097 142 
L 350.101726 142 
L 350.793676 236.75 
L 351.312638 142 
L 352.999266 142 
L 353.691216 236.75 
L 354.210179 142 
L 355.925638 142 
L 356.617588 236.75 
L 357.136551 142 
L 358.823179 142 
L 359.515129 236.75 
L 360.034092 142 
L 361.749551 142 
L 362.441501 236.75 
L 362.989295 142 
L 364.675923 142 
L 365.367873 236.75 
L 365.886835 142 
L 367.573464 142 
L 368.294245 236.75 
L 368.813207 142 
L 370.528667 142 
L 371.220617 236.75 
L 371.739579 142 
L 373.426208 142 
L 374.118158 236.75 
L 374.63712 142 
L 376.35258 142 
L 377.04453 236.75 
L 377.592323 142 
L 379.278951 142 
L 379.970901 236.75 
L 380.489864 142 
L 382.176492 142 
L 382.897273 236.75 
L 383.416236 142 
L 385.131695 142 
L 385.823645 236.75 
L 386.342608 142 
L 388.029236 142 
L 388.721186 236.75 
L 389.240149 142 
L 390.955608 142 
L 391.647558 236.75 
L 392.195352 142 
L 393.88198 142 
L 394.57393 236.75 
L 395.092893 142 
L 396.779521 142 
L 397.500302 236.75 
L 398.019264 142 
L 399.734724 142 
L 400.426674 236.75 
L 400.945636 142 
L 402.632265 142 
L 403.324215 236.75 
L 403.843177 142 
L 405.558637 142 
L 406.250587 236.75 
L 406.79838 142 
L 408.485009 142 
L 409.176959 236.75 
L 409.695921 142 
L 411.382549 142 
L 412.103331 236.75 
L 412.622293 142 
L 414.337752 142 
L 415.029702 236.75 
L 415.548665 142 
L 417.235293 142 
L 417.927243 236.75 
L 418.446206 142 
L 420.161665 142 
L 420.853615 236.75 
L 421.401409 142 
L 423.088037 142 
L 423.779987 236.75 
L 424.29895 142 
L 425.985578 142 
L 426.706359 236.75 
L 427.225322 142 
L 428.940781 142 
L 429.632731 236.75 
L 430.151694 142 
L 431.838322 142 
L 432.530272 236.75 
L 433.049234 142 
L 434.764694 142 
L 435.456644 236.75 
L 436.004437 142 
L 437.691066 142 
L 438.383016 236.75 
L 438.901978 142 
L 440.588606 142 
L 441.309388 236.75 
L 441.82835 142 
L 443.54381 142 
L 444.23576 236.75 
L 444.754722 142 
L 446.44135 142 
L 447.1333 236.75 
L 447.652263 142 
L 449.367722 142 
L 450.059672 236.75 
L 450.607466 142 
L 452.294094 142 
L 452.986044 236.75 
L 453.505007 142 
L 455.191635 142 
L 455.912416 236.75 
L 456.431379 142 
L 458.146838 142 
L 458.838788 236.75 
L 459.357751 142 
L 461.044379 142 
L 461.736329 236.75 
L 462.255291 142 
L 463.970751 142 
L 464.662701 236.75 
L 465.210495 142 
L 466.37816 142 
L 466.897123 236.75 
L 467.589073 47.5 
L 468.108035 236.75 
L 468.799985 236.75 
L 469.275701 47.5 
L 469.794663 236.75 
L 470.515445 47.5 
L 471.034407 236.75 
L 471.726357 236.75 
L 472.202073 47.5 
L 472.749867 236.75 
L 473.441817 47.5 
L 473.960779 236.75 
L 474.652729 236.75 
L 475.128445 47.5 
L 475.647407 236.75 
L 476.339357 47.5 
L 476.85832 236.75 
L 477.55027 236.75 
L 478.025986 47.5 
L 478.544948 236.75 
L 479.236898 47.5 
L 479.784692 236.75 
L 480.476642 236.75 
L 480.952357 47.5 
L 481.47132 236.75 
L 482.16327 47.5 
L 482.682233 236.75 
L 483.374183 236.75 
L 483.849898 47.5 
L 484.368861 236.75 
L 485.060811 47.5 
L 485.579773 236.75 
L 486.271723 236.75 
L 486.747439 47.5 
L 487.295233 236.75 
L 487.987183 47.5 
L 488.506145 236.75 
L 489.198095 236.75 
L 489.673811 47.5 
L 490.192773 236.75 
L 490.884723 47.5 
L 491.403686 236.75 
L 492.095636 236.75 
L 492.571352 47.5 
L 493.090314 236.75 
L 493.782264 47.5 
L 494.330058 236.75 
L 495.022008 236.75 
L 495.497723 47.5 
L 496.016686 236.75 
L 496.708636 47.5 
L 497.227599 236.75 
L 497.919549 236.75 
L 498.395264 47.5 
L 498.914227 236.75 
L 499.606177 47.5 
L 500.125139 236.75 
L 500.817089 236.75 
L 501.292805 47.5 
L 501.840599 236.75 
L 502.532549 47.5 
L 503.051511 236.75 
L 503.743461 236.75 
L 504.219177 47.5 
L 504.738139 236.75 
L 505.430089 47.5 
L 505.949052 236.75 
L 506.641002 236.75 
L 507.116718 47.5 
L 507.63568 236.75 
L 508.32763 47.5 
L 508.875424 236.75 
L 509.567374 236.75 
L 510.04309 47.5 
L 510.562052 236.75 
L 511.254002 47.5 
L 511.772965 236.75 
L 512.464915 236.75 
L 512.94063 47.5 
L 513.459593 236.75 
L 514.151543 47.5 
L 514.670505 236.75 
L 515.362455 236.75 
L 515.838171 47.5 
L 516.385965 236.75 
L 517.077915 47.5 
L 517.596877 236.75 
L 518.288827 236.75 
L 518.764543 47.5 
L 519.283505 236.75 
L 519.975455 47.5 
L 520.494418 236.75 
L 521.186368 236.75 
L 521.662084 47.5 
L 522.181046 236.75 
L 522.872996 47.5 
L 523.42079 236.75 
L 524.11274 236.75 
L 524.588456 47.5 
L 525.107418 236.75 
L 525.799368 47.5 
L 526.318331 236.75 
L 527.010281 236.75 
L 527.485996 47.5 
L 528.004959 236.75 
L 528.696909 47.5 
L 529.215871 236.75 
L 529.907821 236.75 
L 530.383537 47.5 
L 530.931331 236.75 
L 531.623281 47.5 
L 532.142243 236.75 
L 532.834193 236.75 
L 533.309909 47.5 
L 533.828871 236.75 
L 534.520821 47.5 
L 535.039784 236.75 
L 535.731734 236.75 
L 536.20745 47.5 
L 536.726412 236.75 
L 537.418362 47.5 
L 537.966156 236.75 
L 538.658106 236.75 
L 539.133822 47.5 
L 539.652784 236.75 
L 540.344734 47.5 
L 540.863697 236.75 
L 541.555647 236.75 
L 542.031362 47.5 
L 542.550325 236.75 
L 543.242275 47.5 
L 543.761237 236.75 
L 544.453187 236.75 
L 544.928903 47.5 
L 545.476697 236.75 
L 546.168647 47.5 
L 546.687609 236.75 
L 547.379559 236.75 
L 547.855275 47.5 
L 548.374237 236.75 
L 549.066188 47.5 
L 549.58515 236.75 
L 550.2771 236.75 
L 550.752816 47.5 
L 551.271778 236.75 
L 551.963728 47.5 
L 552.511522 236.75 
L 553.203472 236.75 
L 553.679188 47.5 
L 554.19815 236.75 
L 554.8901 47.5 
L 555.409063 236.75 
L 556.101013 236.75 
L 556.576728 47.5 
L 557.095691 236.75 
L 557.787641 47.5 
L 558.306603 236.75 
L 558.998553 236.75 
L 559.474269 47.5 
L 560.022063 236.75 
L 560.714013 47.5 
L 561.232975 236.75 
L 561.924925 236.75 
L 562.400641 47.5 
L 562.919604 236.75 
L 563.611554 47.5 
L 564.130516 236.75 
L 564.822466 236.75 
L 565.298182 47.5 
L 565.817144 236.75 
L 566.509094 47.5 
L 567.056888 236.75 
L 567.748838 236.75 
L 568.224554 47.5 
L 568.743516 236.75 
L 569.435466 47.5 
L 569.954429 236.75 
L 570.646379 236.75 
L 571.122094 47.5 
L 571.641057 236.75 
L 572.333007 47.5 
L 572.851969 236.75 
L 573.543919 236.75 
L 574.019635 47.5 
L 574.567429 236.75 
L 575.259379 47.5 
L 575.778341 236.75 
L 576.470291 236.75 
L 576.946007 47.5 
L 577.46497 236.75 
L 578.15692 47.5 
L 578.675882 236.75 
L 579.367832 236.75 
L 579.843548 47.5 
L 580.36251 236.75 
L 581.05446 47.5 
L 581.602254 236.75 
L 582.294204 236.75 
L 582.76992 47.5 
L 583.288882 236.75 
L 583.980832 47.5 
L 584.499795 236.75 
L 585.191745 236.75 
L 585.66746 47.5 
L 586.186423 236.75 
L 586.878373 47.5 
L 587.397335 236.75 
L 588.089285 236.75 
L 588.565001 47.5 
L 589.112795 236.75 
L 589.804745 47.5 
L 590.323707 236.75 
L 591.015657 236.75 
L 591.491373 47.5 
L 592.010336 236.75 
L 592.702286 47.5 
L 593.221248 236.75 
L 593.913198 236.75 
L 594.388914 47.5 
L 594.907876 236.75 
L 595.599826 47.5 
L 596.14762 236.75 
L 596.83957 236.75 
L 597.315286 47.5 
L 597.834248 236.75 
L 598.526198 47.5 
L 599.045161 236.75 
L 599.737111 236.75 
L 600.212826 47.5 
L 600.731789 236.75 
L 601.423739 47.5 
L 601.942702 236.75 
L 602.634652 236.75 
L 603.110367 47.5 
L 603.658161 236.75 
L 604.350111 47.5 
L 604.869073 236.75 
L 605.561023 236.75 
L 606.036739 47.5 
L 606.555702 236.75 
L 607.247652 47.5 
L 607.766614 236.75 
L 608.458564 236.75 
L 608.93428 47.5 
L 609.453242 236.75 
L 610.145192 47.5 
L 610.664155 236.75 
L 611.327274 236.75 
L 611.831821 47.5 
L 612.538186 236.75 
L 613.201305 47.5 
L 613.734683 236.75 
L 614.614036 236.75 
L 615.104167 47.5 
L 616.300664 236.75 
L 616.992614 47.5 
L 617.525993 236.75 
L 618.261189 236.75 
L 618.924308 47.5 
L 619.443271 236.75 
L 620.149636 47.5 
L 620.856002 236.75 
L 624.25809 236.75 
L 624.733805 47.5 
L 625.252768 236.75 
L 625.944718 47.5 
L 626.46368 236.75 
L 627.15563 236.75 
L 627.631346 47.5 
L 628.150308 236.75 
L 628.842259 47.5 
L 629.390052 236.75 
L 630.082002 236.75 
L 630.557718 47.5 
L 631.07668 236.75 
L 631.76863 47.5 
L 632.287593 236.75 
L 632.979543 236.75 
L 633.455259 47.5 
L 633.974221 236.75 
L 634.666171 47.5 
L 635.185134 236.75 
L 635.877084 236.75 
L 636.352799 47.5 
L 636.900593 236.75 
L 637.592543 47.5 
L 638.111506 236.75 
L 638.803456 236.75 
L 639.279171 47.5 
L 639.798134 236.75 
L 640.490084 47.5 
L 641.009046 236.75 
L 641.700996 236.75 
L 642.176712 47.5 
L 642.695675 236.75 
L 643.387625 47.5 
L 643.935418 236.75 
L 644.627368 236.75 
L 645.103084 47.5 
L 645.622046 236.75 
L 646.313997 47.5 
L 646.832959 236.75 
L 647.524909 236.75 
L 648.000625 47.5 
L 648.519587 236.75 
L 649.211537 47.5 
L 649.7305 236.75 
L 650.42245 236.75 
L 650.898165 47.5 
L 651.445959 236.75 
L 652.137909 47.5 
L 652.656872 236.75 
L 653.348822 236.75 
L 653.824537 47.5 
L 654.3435 236.75 
L 655.03545 47.5 
L 655.554412 236.75 
L 656.246362 236.75 
L 656.722078 47.5 
L 657.241041 236.75 
L 657.932991 47.5 
L 658.480784 236.75 
L 659.172734 236.75 
L 659.64845 47.5 
L 660.167413 236.75 
L 660.859363 47.5 
L 661.378325 236.75 
L 662.070275 236.75 
L 662.545991 47.5 
L 663.064953 236.75 
L 663.756903 47.5 
L 664.275866 236.75 
L 664.967816 236.75 
L 665.443531 47.5 
L 665.991325 236.75 
L 666.683275 47.5 
L 667.202238 236.75 
L 667.894188 236.75 
L 668.369903 47.5 
L 668.888866 236.75 
L 669.580816 47.5 
L 670.099778 236.75 
L 670.791728 236.75 
L 671.267444 47.5 
L 671.786407 236.75 
L 672.478357 47.5 
L 673.02615 236.75 
L 673.7181 236.75 
L 674.193816 47.5 
L 674.712779 236.75 
L 675.404729 47.5 
L 675.923691 236.75 
L 676.615641 236.75 
L 677.091357 47.5 
L 677.610319 236.75 
L 678.302269 47.5 
L 678.821232 236.75 
L 679.513182 236.75 
L 679.513182 236.75 
" clip-path="url(#p6964368dbd)" style="fill: none; stroke: #1f77b4; stroke-width: 1.5; stroke-linecap: square"/>
   </g>
   <g id="patch_3">
    <path d="M 56.09 246.25 
L 56.09 38 
" style="fill: none; stroke: #000000; stroke-width: 0.8; stroke-linejoin: miter; stroke-linecap: square"/>
   </g>
   <g id="patch_4">
    <path d="M 709.2 246.25 
L 709.2 38 
" style="fill: none; stroke: #000000; stroke-width: 0.8; stroke-linejoin: miter; stroke-linecap: square"/>
   </g>
   <g id="patch_5">
    <path d="M 56.09 246.04 
L 709.2 246.04 
" style="fill: none; stroke: #000000; stroke-width: 0.8; stroke-linejoin: miter; stroke-linecap: square"/>
   </g>
   <g id="patch_6">
    <path d="M 56.09 37.8 
L 709.2 37.8 
" style="fill: none; stroke: #000000; stroke-width: 0.8; stroke-linejoin: miter; stroke-linecap: square"/>
   </g>
   <g id="text_17">
    <!-- packetSentToPeerBroadcast:vector(packetBytes) (HandoverShowcase.ap1.wlan[0].mac.dcf) -->
    <g transform="translate(107.341563 21.201563) scale(0.12 -0.12)">
     <defs>
      <path id="DejaVuSans-70" d="M 1159 525 
L 1159 -1331 
L 581 -1331 
L 581 3500 
L 1159 3500 
L 1159 2969 
Q 1341 3281 1617 3432 
Q 1894 3584 2278 3584 
Q 2916 3584 3314 3078 
Q 3713 2572 3713 1747 
Q 3713 922 3314 415 
Q 2916 -91 2278 -91 
Q 1894 -91 1617 61 
Q 1341 213 1159 525 
z
M 3116 1747 
Q 3116 2381 2855 2742 
Q 2594 3103 2138 3103 
Q 1681 3103 1420 2742 
Q 1159 2381 1159 1747 
Q 1159 1113 1420 752 
Q 1681 391 2138 391 
Q 2594 391 2855 752 
Q 3116 1113 3116 1747 
z
" transform="scale(0.015625)"/>
      <path id="DejaVuSans-63" d="M 3122 3366 
L 3122 2828 
Q 2878 2963 2633 3030 
Q 2388 3097 2138 3097 
Q 1578 3097 1268 2742 
Q 959 2388 959 1747 
Q 959 1106 1268 751 
Q 1578 397 2138 397 
Q 2388 397 2633 464 
Q 2878 531 3122 666 
L 3122 134 
Q 2881 22 2623 -34 
Q 2366 -91 2075 -91 
Q 1284 -91 818 406 
Q 353 903 353 1747 
Q 353 2603 823 3093 
Q 1294 3584 2113 3584 
Q 2378 3584 2631 3529 
Q 2884 3475 3122 3366 
z
" transform="scale(0.015625)"/>
      <path id="DejaVuSans-6b" d="M 581 4863 
L 1159 4863 
L 1159 1991 
L 2875 3500 
L 3609 3500 
L 1753 1863 
L 3688 0 
L 2938 0 
L 1159 1709 
L 1159 0 
L 581 0 
L 581 4863 
z
" transform="scale(0.015625)"/>
      <path id="DejaVuSans-53" d="M 3425 4513 
L 3425 3897 
Q 3066 4069 2747 4153 
Q 2428 4238 2131 4238 
Q 1616 4238 1336 4038 
Q 1056 3838 1056 3469 
Q 1056 3159 1242 3001 
Q 1428 2844 1947 2747 
L 2328 2669 
Q 3034 2534 3370 2195 
Q 3706 1856 3706 1288 
Q 3706 609 3251 259 
Q 2797 -91 1919 -91 
Q 1588 -91 1214 -16 
Q 841 59 441 206 
L 441 856 
Q 825 641 1194 531 
Q 1563 422 1919 422 
Q 2459 422 2753 634 
Q 3047 847 3047 1241 
Q 3047 1584 2836 1778 
Q 2625 1972 2144 2069 
L 1759 2144 
Q 1053 2284 737 2584 
Q 422 2884 422 3419 
Q 422 4038 858 4394 
Q 1294 4750 2059 4750 
Q 2388 4750 2728 4690 
Q 3069 4631 3425 4513 
z
" transform="scale(0.015625)"/>
      <path id="DejaVuSans-6e" d="M 3513 2113 
L 3513 0 
L 2938 0 
L 2938 2094 
Q 2938 2591 2744 2837 
Q 2550 3084 2163 3084 
Q 1697 3084 1428 2787 
Q 1159 2491 1159 1978 
L 1159 0 
L 581 0 
L 581 3500 
L 1159 3500 
L 1159 2956 
Q 1366 3272 1645 3428 
Q 1925 3584 2291 3584 
Q 2894 3584 3203 3211 
Q 3513 2838 3513 2113 
z
" transform="scale(0.015625)"/>
      <path id="DejaVuSans-6f" d="M 1959 3097 
Q 1497 3097 1228 2736 
Q 959 2375 959 1747 
Q 959 1119 1226 758 
Q 1494 397 1959 397 
Q 2419 397 2687 759 
Q 2956 1122 2956 1747 
Q 2956 2369 2687 2733 
Q 2419 3097 1959 3097 
z
M 1959 3584 
Q 2709 3584 3137 3096 
Q 3566 2609 3566 1747 
Q 3566 888 3137 398 
Q 2709 -91 1959 -91 
Q 1206 -91 779 398 
Q 353 888 353 1747 
Q 353 2609 779 3096 
Q 1206 3584 1959 3584 
z
" transform="scale(0.015625)"/>
      <path id="DejaVuSans-50" d="M 1259 4147 
L 1259 2394 
L 2053 2394 
Q 2494 2394 2734 2622 
Q 2975 2850 2975 3272 
Q 2975 3691 2734 3919 
Q 2494 4147 2053 4147 
L 1259 4147 
z
M 628 4666 
L 2053 4666 
Q 2838 4666 3239 4311 
Q 3641 3956 3641 3272 
Q 3641 2581 3239 2228 
Q 2838 1875 2053 1875 
L 1259 1875 
L 1259 0 
L 628 0 
L 628 4666 
z
" transform="scale(0.015625)"/>
      <path id="DejaVuSans-72" d="M 2631 2963 
Q 2534 3019 2420 3045 
Q 2306 3072 2169 3072 
Q 1681 3072 1420 2755 
Q 1159 2438 1159 1844 
L 1159 0 
L 581 0 
L 581 3500 
L 1159 3500 
L 1159 2956 
Q 1341 3275 1631 3429 
Q 1922 3584 2338 3584 
Q 2397 3584 2469 3576 
Q 2541 3569 2628 3553 
L 2631 2963 
z
" transform="scale(0.015625)"/>
      <path id="DejaVuSans-42" d="M 1259 2228 
L 1259 519 
L 2272 519 
Q 2781 519 3026 730 
Q 3272 941 3272 1375 
Q 3272 1813 3026 2020 
Q 2781 2228 2272 2228 
L 1259 2228 
z
M 1259 4147 
L 1259 2741 
L 2194 2741 
Q 2656 2741 2882 2914 
Q 3109 3088 3109 3444 
Q 3109 3797 2882 3972 
Q 2656 4147 2194 4147 
L 1259 4147 
z
M 628 4666 
L 2241 4666 
Q 2963 4666 3353 4366 
Q 3744 4066 3744 3513 
Q 3744 3084 3544 2831 
Q 3344 2578 2956 2516 
Q 3422 2416 3680 2098 
Q 3938 1781 3938 1306 
Q 3938 681 3513 340 
Q 3088 0 2303 0 
L 628 0 
L 628 4666 
z
" transform="scale(0.015625)"/>
      <path id="DejaVuSans-64" d="M 2906 2969 
L 2906 4863 
L 3481 4863 
L 3481 0 
L 2906 0 
L 2906 525 
Q 2725 213 2448 61 
Q 2172 -91 1784 -91 
Q 1150 -91 751 415 
Q 353 922 353 1747 
Q 353 2572 751 3078 
Q 1150 3584 1784 3584 
Q 2172 3584 2448 3432 
Q 2725 3281 2906 2969 
z
M 947 1747 
Q 947 1113 1208 752 
Q 1469 391 1925 391 
Q 2381 391 2643 752 
Q 2906 1113 2906 1747 
Q 2906 2381 2643 2742 
Q 2381 3103 1925 3103 
Q 1469 3103 1208 2742 
Q 947 2381 947 1747 
z
" transform="scale(0.015625)"/>
      <path id="DejaVuSans-3a" d="M 750 794 
L 1409 794 
L 1409 0 
L 750 0 
L 750 794 
z
M 750 3309 
L 1409 3309 
L 1409 2516 
L 750 2516 
L 750 3309 
z
" transform="scale(0.015625)"/>
      <path id="DejaVuSans-76" d="M 191 3500 
L 800 3500 
L 1894 563 
L 2988 3500 
L 3597 3500 
L 2284 0 
L 1503 0 
L 191 3500 
z
" transform="scale(0.015625)"/>
      <path id="DejaVuSans-79" d="M 2059 -325 
Q 1816 -950 1584 -1140 
Q 1353 -1331 966 -1331 
L 506 -1331 
L 506 -850 
L 844 -850 
Q 1081 -850 1212 -737 
Q 1344 -625 1503 -206 
L 1606 56 
L 191 3500 
L 800 3500 
L 1894 763 
L 2988 3500 
L 3597 3500 
L 2059 -325 
z
" transform="scale(0.015625)"/>
      <path id="DejaVuSans-48" d="M 628 4666 
L 1259 4666 
L 1259 2753 
L 3553 2753 
L 3553 4666 
L 4184 4666 
L 4184 0 
L 3553 0 
L 3553 2222 
L 1259 2222 
L 1259 0 
L 628 0 
L 628 4666 
z
" transform="scale(0.015625)"/>
      <path id="DejaVuSans-68" d="M 3513 2113 
L 3513 0 
L 2938 0 
L 2938 2094 
Q 2938 2591 2744 2837 
Q 2550 3084 2163 3084 
Q 1697 3084 1428 2787 
Q 1159 2491 1159 1978 
L 1159 0 
L 581 0 
L 581 4863 
L 1159 4863 
L 1159 2956 
Q 1366 3272 1645 3428 
Q 1925 3584 2291 3584 
Q 2894 3584 3203 3211 
Q 3513 2838 3513 2113 
z
" transform="scale(0.015625)"/>
      <path id="DejaVuSans-77" d="M 269 3500 
L 844 3500 
L 1563 769 
L 2278 3500 
L 2956 3500 
L 3675 769 
L 4391 3500 
L 4966 3500 
L 4050 0 
L 3372 0 
L 2619 2869 
L 1863 0 
L 1184 0 
L 269 3500 
z
" transform="scale(0.015625)"/>
      <path id="DejaVuSans-5b" d="M 550 4863 
L 1875 4863 
L 1875 4416 
L 1125 4416 
L 1125 -397 
L 1875 -397 
L 1875 -844 
L 550 -844 
L 550 4863 
z
" transform="scale(0.015625)"/>
      <path id="DejaVuSans-5d" d="M 1947 4863 
L 1947 -844 
L 622 -844 
L 622 -397 
L 1369 -397 
L 1369 4416 
L 622 4416 
L 622 4863 
L 1947 4863 
z
" transform="scale(0.015625)"/>
      <path id="DejaVuSans-66" d="M 2375 4863 
L 2375 4384 
L 1825 4384 
Q 1516 4384 1395 4259 
Q 1275 4134 1275 3809 
L 1275 3500 
L 2222 3500 
L 2222 3053 
L 1275 3053 
L 1275 0 
L 697 0 
L 697 3053 
L 147 3053 
L 147 3500 
L 697 3500 
L 697 3744 
Q 697 4328 969 4595 
Q 1241 4863 1831 4863 
L 2375 4863 
z
" transform="scale(0.015625)"/>
     </defs>
     <use xlink:href="#DejaVuSans-70"/>
     <use xlink:href="#DejaVuSans-61" x="63.476562"/>
     <use xlink:href="#DejaVuSans-63" x="124.755859"/>
     <use xlink:href="#DejaVuSans-6b" x="179.736328"/>
     <use xlink:href="#DejaVuSans-65" x="234.021484"/>
     <use xlink:href="#DejaVuSans-74" x="295.544922"/>
     <use xlink:href="#DejaVuSans-53" x="334.753906"/>
     <use xlink:href="#DejaVuSans-65" x="398.230469"/>
     <use xlink:href="#DejaVuSans-6e" x="459.753906"/>
     <use xlink:href="#DejaVuSans-74" x="523.132812"/>
     <use xlink:href="#DejaVuSans-54" x="562.341797"/>
     <use xlink:href="#DejaVuSans-6f" x="606.425781"/>
     <use xlink:href="#DejaVuSans-50" x="667.607422"/>
     <use xlink:href="#DejaVuSans-65" x="724.285156"/>
     <use xlink:href="#DejaVuSans-65" x="785.808594"/>
     <use xlink:href="#DejaVuSans-72" x="847.332031"/>
     <use xlink:href="#DejaVuSans-42" x="888.445312"/>
     <use xlink:href="#DejaVuSans-72" x="957.048828"/>
     <use xlink:href="#DejaVuSans-6f" x="995.912109"/>
     <use xlink:href="#DejaVuSans-61" x="1057.09375"/>
     <use xlink:href="#DejaVuSans-64" x="1118.373047"/>
     <use xlink:href="#DejaVuSans-63" x="1181.849609"/>
     <use xlink:href="#DejaVuSans-61" x="1236.830078"/>
     <use xlink:href="#DejaVuSans-73" x="1298.109375"/>
     <use xlink:href="#DejaVuSans-74" x="1350.208984"/>
     <use xlink:href="#DejaVuSans-3a" x="1389.417969"/>
     <use xlink:href="#DejaVuSans-76" x="1423.109375"/>
     <use xlink:href="#DejaVuSans-65" x="1482.289062"/>
     <use xlink:href="#DejaVuSans-63" x="1543.8125"/>
     <use xlink:href="#DejaVuSans-74" x="1598.792969"/>
     <use xlink:href="#DejaVuSans-6f" x="1638.001953"/>
     <use xlink:href="#DejaVuSans-72" x="1699.183594"/>
     <use xlink:href="#DejaVuSans-28" x="1740.296875"/>
     <use xlink:href="#DejaVuSans-70" x="1779.310547"/>
     <use xlink:href="#DejaVuSans-61" x="1842.787109"/>
     <use xlink:href="#DejaVuSans-63" x="1904.066406"/>
     <use xlink:href="#DejaVuSans-6b" x="1959.046875"/>
     <use xlink:href="#DejaVuSans-65" x="2013.332031"/>
     <use xlink:href="#DejaVuSans-74" x="2074.855469"/>
     <use xlink:href="#DejaVuSans-42" x="2114.064453"/>
     <use xlink:href="#DejaVuSans-79" x="2182.667969"/>
     <use xlink:href="#DejaVuSans-74" x="2241.847656"/>
     <use xlink:href="#DejaVuSans-65" x="2281.056641"/>
     <use xlink:href="#DejaVuSans-73" x="2342.580078"/>
     <use xlink:href="#DejaVuSans-29" x="2394.679688"/>
     <use xlink:href="#DejaVuSans-20" x="2433.693359"/>
     <use xlink:href="#DejaVuSans-28" x="2465.480469"/>
     <use xlink:href="#DejaVuSans-48" x="2504.494141"/>
     <use xlink:href="#DejaVuSans-61" x="2579.689453"/>
     <use xlink:href="#DejaVuSans-6e" x="2640.96875"/>
     <use xlink:href="#DejaVuSans-64" x="2704.347656"/>
     <use xlink:href="#DejaVuSans-6f" x="2767.824219"/>
     <use xlink:href="#DejaVuSans-76" x="2829.005859"/>
     <use xlink:href="#DejaVuSans-65" x="2888.185547"/>
     <use xlink:href="#DejaVuSans-72" x="2949.708984"/>
     <use xlink:href="#DejaVuSans-53" x="2990.822266"/>
     <use xlink:href="#DejaVuSans-68" x="3054.298828"/>
     <use xlink:href="#DejaVuSans-6f" x="3117.677734"/>
     <use xlink:href="#DejaVuSans-77" x="3178.859375"/>
     <use xlink:href="#DejaVuSans-63" x="3260.646484"/>
     <use xlink:href="#DejaVuSans-61" x="3315.626953"/>
     <use xlink:href="#DejaVuSans-73" x="3376.90625"/>
     <use xlink:href="#DejaVuSans-65" x="3429.005859"/>
     <use xlink:href="#DejaVuSans-2e" x="3490.529297"/>
     <use xlink:href="#DejaVuSans-61" x="3522.316406"/>
     <use xlink:href="#DejaVuSans-70" x="3583.595703"/>
     <use xlink:href="#DejaVuSans-31" x="3647.072266"/>
     <use xlink:href="#DejaVuSans-2e" x="3710.695312"/>
     <use xlink:href="#DejaVuSans-77" x="3742.482422"/>
     <use xlink:href="#DejaVuSans-6c" x="3824.269531"/>
     <use xlink:href="#DejaVuSans-61" x="3852.052734"/>
     <use xlink:href="#DejaVuSans-6e" x="3913.332031"/>
     <use xlink:href="#DejaVuSans-5b" x="3976.710938"/>
     <use xlink:href="#DejaVuSans-30" x="4015.724609"/>
     <use xlink:href="#DejaVuSans-5d" x="4079.347656"/>
     <use xlink:href="#DejaVuSans-2e" x="4118.361328"/>
     <use xlink:href="#DejaVuSans-6d" x="4150.148438"/>
     <use xlink:href="#DejaVuSans-61" x="4247.560547"/>
     <use xlink:href="#DejaVuSans-63" x="4308.839844"/>
     <use xlink:href="#DejaVuSans-2e" x="4363.820312"/>
     <use xlink:href="#DejaVuSans-64" x="4395.607422"/>
     <use xlink:href="#DejaVuSans-63" x="4459.083984"/>
     <use xlink:href="#DejaVuSans-66" x="4514.064453"/>
     <use xlink:href="#DejaVuSans-29" x="4549.269531"/>
    </g>
   </g>
   <g id="legend_1">
    <g id="patch_7">
     <path d="M 63.09 60.478125 
L 188.572813 60.478125 
Q 190.572813 60.478125 190.572813 58.478125 
L 190.572813 44.8 
Q 190.572813 42.8 188.572813 42.8 
L 63.09 42.8 
Q 61.09 42.8 61.09 44.8 
L 61.09 58.478125 
Q 61.09 60.478125 63.09 60.478125 
z
" style="fill: #ffffff; opacity: 0.8; stroke: #cccccc; stroke-linejoin: miter"/>
    </g>
    <g id="line2d_28">
     <path d="M 65.09 50.898438 
L 75.09 50.898438 
L 85.09 50.898438 
" style="fill: none; stroke: #1f77b4; stroke-width: 1.5; stroke-linecap: square"/>
    </g>
    <g id="text_18">
     <!-- Δvalue per sample -->
     <g transform="translate(93.09 54.398438) scale(0.1 -0.1)">
      <defs>
       <path id="DejaVuSans-394" d="M 2188 4044 
L 906 525 
L 3472 525 
L 2188 4044 
z
M 50 0 
L 1831 4666 
L 2547 4666 
L 4325 0 
L 50 0 
z
" transform="scale(0.015625)"/>
      </defs>
      <use xlink:href="#DejaVuSans-394"/>
      <use xlink:href="#DejaVuSans-76" x="68.408203"/>
      <use xlink:href="#DejaVuSans-61" x="127.587891"/>
      <use xlink:href="#DejaVuSans-6c" x="188.867188"/>
      <use xlink:href="#DejaVuSans-75" x="216.650391"/>
      <use xlink:href="#DejaVuSans-65" x="280.029297"/>
      <use xlink:href="#DejaVuSans-20" x="341.552734"/>
      <use xlink:href="#DejaVuSans-70" x="373.339844"/>
      <use xlink:href="#DejaVuSans-65" x="436.816406"/>
      <use xlink:href="#DejaVuSans-72" x="498.339844"/>
      <use xlink:href="#DejaVuSans-20" x="539.453125"/>
      <use xlink:href="#DejaVuSans-73" x="571.240234"/>
      <use xlink:href="#DejaVuSans-61" x="623.339844"/>
      <use xlink:href="#DejaVuSans-6d" x="684.619141"/>
      <use xlink:href="#DejaVuSans-70" x="782.03125"/>
      <use xlink:href="#DejaVuSans-6c" x="845.507812"/>
      <use xlink:href="#DejaVuSans-65" x="873.291016"/>
     </g>
    </g>
   </g>
  </g>
 </g>
 <defs>
  <clipPath id="p6964368dbd">
   <rect x="56.09" y="37.8" width="653.11" height="208.24"/>
  </clipPath>
 </defs>
</svg>
