<?xml version="1.0" encoding="utf-8" standalone="no"?>
<!DOCTYPE svg PUBLIC "-//W3C//DTD SVG 1.1//EN"
  "http://www.w3.org/Graphics/SVG/1.1/DTD/svg11.dtd">
<svg xmlns:xlink="http://www.w3.org/1999/xlink" width="720pt" height="288pt" viewBox="0 0 720 288" xmlns="http://www.w3.org/2000/svg" version="1.1">
 <metadata>
  <rdf:RDF xmlns:dc="http://purl.org/dc/elements/1.1/" xmlns:cc="http://creativecommons.org/ns#" xmlns:rdf="http://www.w3.org/1999/02/22-rdf-syntax-ns#">
   <cc:Work>
    <dc:type rdf:resource="http://purl.org/dc/dcmitype/StillImage"/>
    <dc:date>2025-07-27T15:08:41.124132</dc:date>
    <dc:format>image/svg+xml</dc:format>
    <dc:creator>
     <cc:Agent>
      <dc:title>Matplotlib v3.9.2, https://matplotlib.org/</dc:title>
     </cc:Agent>
    </dc:creator>
   </cc:Work>
  </rdf:RDF>
 </metadata>
 <defs>
  <style type="text/css">*{stroke-linejoin: round; stroke-linecap: butt}</style>
 </defs>
 <g id="figure_1">
  <g id="patch_1">
   <path d="M 0 288 
L 720 288 
L 720 0 
L 0 0 
z
" style="fill: #ffffff"/>
  </g>
  <g id="axes_1">
   <g id="patch_2">
    <path d="M 47.72 246.04 
L 709.2 246.04 
L 709.2 26.88 
L 47.72 26.88 
z
" style="fill: #ffffff"/>
   </g>
   <g id="matplotlib.axis_1">
    <g id="xtick_1">
     <g id="line2d_1">
      <path d="M 76.252781 246.04 
L 76.252781 26.88 
" clip-path="url(#p8875a238b1)" style="fill: none; stroke: #b0b0b0; stroke-width: 0.8; stroke-linecap: square"/>
     </g>
     <g id="line2d_2">
      <defs>
       <path id="m708651894b" d="M 0 0 
L 0 3.5 
" style="stroke: #000000; stroke-width: 0.8"/>
      </defs>
      <g>
       <use xlink:href="#m708651894b" x="76.252781" y="246.04" style="stroke: #000000; stroke-width: 0.8"/>
      </g>
     </g>
     <g id="text_1">
      <!-- 0 -->
      <g transform="translate(73.071531 260.638438) scale(0.1 -0.1)">
       <defs>
        <path id="DejaVuSans-30" d="M 2034 4250 
Q 1547 4250 1301 3770 
Q 1056 3291 1056 2328 
Q 1056 1369 1301 889 
Q 1547 409 2034 409 
Q 2525 409 2770 889 
Q 3016 1369 3016 2328 
Q 3016 3291 2770 3770 
Q 2525 4250 2034 4250 
z
M 2034 4750 
Q 2819 4750 3233 4129 
Q 3647 3509 3647 2328 
Q 3647 1150 3233 529 
Q 2819 -91 2034 -91 
Q 1250 -91 836 529 
Q 422 1150 422 2328 
Q 422 3509 836 4129 
Q 1250 4750 2034 4750 
z
" transform="scale(0.015625)"/>
       </defs>
       <use xlink:href="#DejaVuSans-30"/>
      </g>
     </g>
    </g>
    <g id="xtick_2">
     <g id="line2d_3">
      <path d="M 222.394867 246.04 
L 222.394867 26.88 
" clip-path="url(#p8875a238b1)" style="fill: none; stroke: #b0b0b0; stroke-width: 0.8; stroke-linecap: square"/>
     </g>
     <g id="line2d_4">
      <g>
       <use xlink:href="#m708651894b" x="222.394867" y="246.04" style="stroke: #000000; stroke-width: 0.8"/>
      </g>
     </g>
     <g id="text_2">
      <!-- 10000 -->
      <g transform="translate(206.488617 260.638438) scale(0.1 -0.1)">
       <defs>
        <path id="DejaVuSans-31" d="M 794 531 
L 1825 531 
L 1825 4091 
L 703 3866 
L 703 4441 
L 1819 4666 
L 2450 4666 
L 2450 531 
L 3481 531 
L 3481 0 
L 794 0 
L 794 531 
z
" transform="scale(0.015625)"/>
       </defs>
       <use xlink:href="#DejaVuSans-31"/>
       <use xlink:href="#DejaVuSans-30" x="63.623047"/>
       <use xlink:href="#DejaVuSans-30" x="127.246094"/>
       <use xlink:href="#DejaVuSans-30" x="190.869141"/>
       <use xlink:href="#DejaVuSans-30" x="254.492188"/>
      </g>
     </g>
    </g>
    <g id="xtick_3">
     <g id="line2d_5">
      <path d="M 368.536952 246.04 
L 368.536952 26.88 
" clip-path="url(#p8875a238b1)" style="fill: none; stroke: #b0b0b0; stroke-width: 0.8; stroke-linecap: square"/>
     </g>
     <g id="line2d_6">
      <g>
       <use xlink:href="#m708651894b" x="368.536952" y="246.04" style="stroke: #000000; stroke-width: 0.8"/>
      </g>
     </g>
     <g id="text_3">
      <!-- 20000 -->
      <g transform="translate(352.630702 260.638438) scale(0.1 -0.1)">
       <defs>
        <path id="DejaVuSans-32" d="M 1228 531 
L 3431 531 
L 3431 0 
L 469 0 
L 469 531 
Q 828 903 1448 1529 
Q 2069 2156 2228 2338 
Q 2531 2678 2651 2914 
Q 2772 3150 2772 3378 
Q 2772 3750 2511 3984 
Q 2250 4219 1831 4219 
Q 1534 4219 1204 4116 
Q 875 4013 500 3803 
L 500 4441 
Q 881 4594 1212 4672 
Q 1544 4750 1819 4750 
Q 2544 4750 2975 4387 
Q 3406 4025 3406 3419 
Q 3406 3131 3298 2873 
Q 3191 2616 2906 2266 
Q 2828 2175 2409 1742 
Q 1991 1309 1228 531 
z
" transform="scale(0.015625)"/>
       </defs>
       <use xlink:href="#DejaVuSans-32"/>
       <use xlink:href="#DejaVuSans-30" x="63.623047"/>
       <use xlink:href="#DejaVuSans-30" x="127.246094"/>
       <use xlink:href="#DejaVuSans-30" x="190.869141"/>
       <use xlink:href="#DejaVuSans-30" x="254.492188"/>
      </g>
     </g>
    </g>
    <g id="xtick_4">
     <g id="line2d_7">
      <path d="M 514.679038 246.04 
L 514.679038 26.88 
" clip-path="url(#p8875a238b1)" style="fill: none; stroke: #b0b0b0; stroke-width: 0.8; stroke-linecap: square"/>
     </g>
     <g id="line2d_8">
      <g>
       <use xlink:href="#m708651894b" x="514.679038" y="246.04" style="stroke: #000000; stroke-width: 0.8"/>
      </g>
     </g>
     <g id="text_4">
      <!-- 30000 -->
      <g transform="translate(498.772788 260.638438) scale(0.1 -0.1)">
       <defs>
        <path id="DejaVuSans-33" d="M 2597 2516 
Q 3050 2419 3304 2112 
Q 3559 1806 3559 1356 
Q 3559 666 3084 287 
Q 2609 -91 1734 -91 
Q 1441 -91 1130 -33 
Q 819 25 488 141 
L 488 750 
Q 750 597 1062 519 
Q 1375 441 1716 441 
Q 2309 441 2620 675 
Q 2931 909 2931 1356 
Q 2931 1769 2642 2001 
Q 2353 2234 1838 2234 
L 1294 2234 
L 1294 2753 
L 1863 2753 
Q 2328 2753 2575 2939 
Q 2822 3125 2822 3475 
Q 2822 3834 2567 4026 
Q 2313 4219 1838 4219 
Q 1578 4219 1281 4162 
Q 984 4106 628 3988 
L 628 4550 
Q 988 4650 1302 4700 
Q 1616 4750 1894 4750 
Q 2613 4750 3031 4423 
Q 3450 4097 3450 3541 
Q 3450 3153 3228 2886 
Q 3006 2619 2597 2516 
z
" transform="scale(0.015625)"/>
       </defs>
       <use xlink:href="#DejaVuSans-33"/>
       <use xlink:href="#DejaVuSans-30" x="63.623047"/>
       <use xlink:href="#DejaVuSans-30" x="127.246094"/>
       <use xlink:href="#DejaVuSans-30" x="190.869141"/>
       <use xlink:href="#DejaVuSans-30" x="254.492188"/>
      </g>
     </g>
    </g>
    <g id="xtick_5">
     <g id="line2d_9">
      <path d="M 660.821124 246.04 
L 660.821124 26.88 
" clip-path="url(#p8875a238b1)" style="fill: none; stroke: #b0b0b0; stroke-width: 0.8; stroke-linecap: square"/>
     </g>
     <g id="line2d_10">
      <g>
       <use xlink:href="#m708651894b" x="660.821124" y="246.04" style="stroke: #000000; stroke-width: 0.8"/>
      </g>
     </g>
     <g id="text_5">
      <!-- 40000 -->
      <g transform="translate(644.914874 260.638438) scale(0.1 -0.1)">
       <defs>
        <path id="DejaVuSans-34" d="M 2419 4116 
L 825 1625 
L 2419 1625 
L 2419 4116 
z
M 2253 4666 
L 3047 4666 
L 3047 1625 
L 3713 1625 
L 3713 1100 
L 3047 1100 
L 3047 0 
L 2419 0 
L 2419 1100 
L 313 1100 
L 313 1709 
L 2253 4666 
z
" transform="scale(0.015625)"/>
       </defs>
       <use xlink:href="#DejaVuSans-34"/>
       <use xlink:href="#DejaVuSans-30" x="63.623047"/>
       <use xlink:href="#DejaVuSans-30" x="127.246094"/>
       <use xlink:href="#DejaVuSans-30" x="190.869141"/>
       <use xlink:href="#DejaVuSans-30" x="254.492188"/>
      </g>
     </g>
    </g>
    <g id="text_6">
     <!-- Time (s) -->
     <g transform="translate(358.131094 274.316562) scale(0.1 -0.1)">
      <defs>
       <path id="DejaVuSans-54" d="M -19 4666 
L 3928 4666 
L 3928 4134 
L 2272 4134 
L 2272 0 
L 1638 0 
L 1638 4134 
L -19 4134 
L -19 4666 
z
" transform="scale(0.015625)"/>
       <path id="DejaVuSans-69" d="M 603 3500 
L 1178 3500 
L 1178 0 
L 603 0 
L 603 3500 
z
M 603 4863 
L 1178 4863 
L 1178 4134 
L 603 4134 
L 603 4863 
z
" transform="scale(0.015625)"/>
       <path id="DejaVuSans-6d" d="M 3328 2828 
Q 3544 3216 3844 3400 
Q 4144 3584 4550 3584 
Q 5097 3584 5394 3201 
Q 5691 2819 5691 2113 
L 5691 0 
L 5113 0 
L 5113 2094 
Q 5113 2597 4934 2840 
Q 4756 3084 4391 3084 
Q 3944 3084 3684 2787 
Q 3425 2491 3425 1978 
L 3425 0 
L 2847 0 
L 2847 2094 
Q 2847 2600 2669 2842 
Q 2491 3084 2119 3084 
Q 1678 3084 1418 2786 
Q 1159 2488 1159 1978 
L 1159 0 
L 581 0 
L 581 3500 
L 1159 3500 
L 1159 2956 
Q 1356 3278 1631 3431 
Q 1906 3584 2284 3584 
Q 2666 3584 2933 3390 
Q 3200 3197 3328 2828 
z
" transform="scale(0.015625)"/>
       <path id="DejaVuSans-65" d="M 3597 1894 
L 3597 1613 
L 953 1613 
Q 991 1019 1311 708 
Q 1631 397 2203 397 
Q 2534 397 2845 478 
Q 3156 559 3463 722 
L 3463 178 
Q 3153 47 2828 -22 
Q 2503 -91 2169 -91 
Q 1331 -91 842 396 
Q 353 884 353 1716 
Q 353 2575 817 3079 
Q 1281 3584 2069 3584 
Q 2775 3584 3186 3129 
Q 3597 2675 3597 1894 
z
M 3022 2063 
Q 3016 2534 2758 2815 
Q 2500 3097 2075 3097 
Q 1594 3097 1305 2825 
Q 1016 2553 972 2059 
L 3022 2063 
z
" transform="scale(0.015625)"/>
       <path id="DejaVuSans-20" transform="scale(0.015625)"/>
       <path id="DejaVuSans-28" d="M 1984 4856 
Q 1566 4138 1362 3434 
Q 1159 2731 1159 2009 
Q 1159 1288 1364 580 
Q 1569 -128 1984 -844 
L 1484 -844 
Q 1016 -109 783 600 
Q 550 1309 550 2009 
Q 550 2706 781 3412 
Q 1013 4119 1484 4856 
L 1984 4856 
z
" transform="scale(0.015625)"/>
       <path id="DejaVuSans-73" d="M 2834 3397 
L 2834 2853 
Q 2591 2978 2328 3040 
Q 2066 3103 1784 3103 
Q 1356 3103 1142 2972 
Q 928 2841 928 2578 
Q 928 2378 1081 2264 
Q 1234 2150 1697 2047 
L 1894 2003 
Q 2506 1872 2764 1633 
Q 3022 1394 3022 966 
Q 3022 478 2636 193 
Q 2250 -91 1575 -91 
Q 1294 -91 989 -36 
Q 684 19 347 128 
L 347 722 
Q 666 556 975 473 
Q 1284 391 1588 391 
Q 1994 391 2212 530 
Q 2431 669 2431 922 
Q 2431 1156 2273 1281 
Q 2116 1406 1581 1522 
L 1381 1569 
Q 847 1681 609 1914 
Q 372 2147 372 2553 
Q 372 3047 722 3315 
Q 1072 3584 1716 3584 
Q 2034 3584 2315 3537 
Q 2597 3491 2834 3397 
z
" transform="scale(0.015625)"/>
       <path id="DejaVuSans-29" d="M 513 4856 
L 1013 4856 
Q 1481 4119 1714 3412 
Q 1947 2706 1947 2009 
Q 1947 1309 1714 600 
Q 1481 -109 1013 -844 
L 513 -844 
Q 928 -128 1133 580 
Q 1338 1288 1338 2009 
Q 1338 2731 1133 3434 
Q 928 4138 513 4856 
z
" transform="scale(0.015625)"/>
      </defs>
      <use xlink:href="#DejaVuSans-54"/>
      <use xlink:href="#DejaVuSans-69" x="57.958984"/>
      <use xlink:href="#DejaVuSans-6d" x="85.742188"/>
      <use xlink:href="#DejaVuSans-65" x="183.154297"/>
      <use xlink:href="#DejaVuSans-20" x="244.677734"/>
      <use xlink:href="#DejaVuSans-28" x="276.464844"/>
      <use xlink:href="#DejaVuSans-73" x="315.478516"/>
      <use xlink:href="#DejaVuSans-29" x="367.578125"/>
     </g>
    </g>
   </g>
   <g id="matplotlib.axis_2">
    <g id="ytick_1">
     <g id="line2d_11">
      <path d="M 47.72 236.082609 
L 709.2 236.082609 
" clip-path="url(#p8875a238b1)" style="fill: none; stroke: #b0b0b0; stroke-width: 0.8; stroke-linecap: square"/>
     </g>
     <g id="line2d_12">
      <defs>
       <path id="med8ab2143d" d="M 0 0 
L -3.5 0 
" style="stroke: #000000; stroke-width: 0.8"/>
      </defs>
      <g>
       <use xlink:href="#med8ab2143d" x="47.72" y="236.082609" style="stroke: #000000; stroke-width: 0.8"/>
      </g>
     </g>
     <g id="text_7">
      <!-- 0.0 -->
      <g transform="translate(24.816875 239.881828) scale(0.1 -0.1)">
       <defs>
        <path id="DejaVuSans-2e" d="M 684 794 
L 1344 794 
L 1344 0 
L 684 0 
L 684 794 
z
" transform="scale(0.015625)"/>
       </defs>
       <use xlink:href="#DejaVuSans-30"/>
       <use xlink:href="#DejaVuSans-2e" x="63.623047"/>
       <use xlink:href="#DejaVuSans-30" x="95.410156"/>
      </g>
     </g>
    </g>
    <g id="ytick_2">
     <g id="line2d_13">
      <path d="M 47.72 191.806878 
L 709.2 191.806878 
" clip-path="url(#p8875a238b1)" style="fill: none; stroke: #b0b0b0; stroke-width: 0.8; stroke-linecap: square"/>
     </g>
     <g id="line2d_14">
      <g>
       <use xlink:href="#med8ab2143d" x="47.72" y="191.806878" style="stroke: #000000; stroke-width: 0.8"/>
      </g>
     </g>
     <g id="text_8">
      <!-- 0.1 -->
      <g transform="translate(24.816875 195.606097) scale(0.1 -0.1)">
       <use xlink:href="#DejaVuSans-30"/>
       <use xlink:href="#DejaVuSans-2e" x="63.623047"/>
       <use xlink:href="#DejaVuSans-31" x="95.410156"/>
      </g>
     </g>
    </g>
    <g id="ytick_3">
     <g id="line2d_15">
      <path d="M 47.72 147.531147 
L 709.2 147.531147 
" clip-path="url(#p8875a238b1)" style="fill: none; stroke: #b0b0b0; stroke-width: 0.8; stroke-linecap: square"/>
     </g>
     <g id="line2d_16">
      <g>
       <use xlink:href="#med8ab2143d" x="47.72" y="147.531147" style="stroke: #000000; stroke-width: 0.8"/>
      </g>
     </g>
     <g id="text_9">
      <!-- 0.2 -->
      <g transform="translate(24.816875 151.330365) scale(0.1 -0.1)">
       <use xlink:href="#DejaVuSans-30"/>
       <use xlink:href="#DejaVuSans-2e" x="63.623047"/>
       <use xlink:href="#DejaVuSans-32" x="95.410156"/>
      </g>
     </g>
    </g>
    <g id="ytick_4">
     <g id="line2d_17">
      <path d="M 47.72 103.255415 
L 709.2 103.255415 
" clip-path="url(#p8875a238b1)" style="fill: none; stroke: #b0b0b0; stroke-width: 0.8; stroke-linecap: square"/>
     </g>
     <g id="line2d_18">
      <g>
       <use xlink:href="#med8ab2143d" x="47.72" y="103.255415" style="stroke: #000000; stroke-width: 0.8"/>
      </g>
     </g>
     <g id="text_10">
      <!-- 0.3 -->
      <g transform="translate(24.816875 107.054634) scale(0.1 -0.1)">
       <use xlink:href="#DejaVuSans-30"/>
       <use xlink:href="#DejaVuSans-2e" x="63.623047"/>
       <use xlink:href="#DejaVuSans-33" x="95.410156"/>
      </g>
     </g>
    </g>
    <g id="ytick_5">
     <g id="line2d_19">
      <path d="M 47.72 58.979684 
L 709.2 58.979684 
" clip-path="url(#p8875a238b1)" style="fill: none; stroke: #b0b0b0; stroke-width: 0.8; stroke-linecap: square"/>
     </g>
     <g id="line2d_20">
      <g>
       <use xlink:href="#med8ab2143d" x="47.72" y="58.979684" style="stroke: #000000; stroke-width: 0.8"/>
      </g>
     </g>
     <g id="text_11">
      <!-- 0.4 -->
      <g transform="translate(24.816875 62.778903) scale(0.1 -0.1)">
       <use xlink:href="#DejaVuSans-30"/>
       <use xlink:href="#DejaVuSans-2e" x="63.623047"/>
       <use xlink:href="#DejaVuSans-34" x="95.410156"/>
      </g>
     </g>
    </g>
    <g id="text_12">
     <!-- Delta Value -->
     <g transform="translate(18.737188 165.120156) rotate(-90) scale(0.1 -0.1)">
      <defs>
       <path id="DejaVuSans-44" d="M 1259 4147 
L 1259 519 
L 2022 519 
Q 2988 519 3436 956 
Q 3884 1394 3884 2338 
Q 3884 3275 3436 3711 
Q 2988 4147 2022 4147 
L 1259 4147 
z
M 628 4666 
L 1925 4666 
Q 3281 4666 3915 4102 
Q 4550 3538 4550 2338 
Q 4550 1131 3912 565 
Q 3275 0 1925 0 
L 628 0 
L 628 4666 
z
" transform="scale(0.015625)"/>
       <path id="DejaVuSans-6c" d="M 603 4863 
L 1178 4863 
L 1178 0 
L 603 0 
L 603 4863 
z
" transform="scale(0.015625)"/>
       <path id="DejaVuSans-74" d="M 1172 4494 
L 1172 3500 
L 2356 3500 
L 2356 3053 
L 1172 3053 
L 1172 1153 
Q 1172 725 1289 603 
Q 1406 481 1766 481 
L 2356 481 
L 2356 0 
L 1766 0 
Q 1100 0 847 248 
Q 594 497 594 1153 
L 594 3053 
L 172 3053 
L 172 3500 
L 594 3500 
L 594 4494 
L 1172 4494 
z
" transform="scale(0.015625)"/>
       <path id="DejaVuSans-61" d="M 2194 1759 
Q 1497 1759 1228 1600 
Q 959 1441 959 1056 
Q 959 750 1161 570 
Q 1363 391 1709 391 
Q 2188 391 2477 730 
Q 2766 1069 2766 1631 
L 2766 1759 
L 2194 1759 
z
M 3341 1997 
L 3341 0 
L 2766 0 
L 2766 531 
Q 2569 213 2275 61 
Q 1981 -91 1556 -91 
Q 1019 -91 701 211 
Q 384 513 384 1019 
Q 384 1609 779 1909 
Q 1175 2209 1959 2209 
L 2766 2209 
L 2766 2266 
Q 2766 2663 2505 2880 
Q 2244 3097 1772 3097 
Q 1472 3097 1187 3025 
Q 903 2953 641 2809 
L 641 3341 
Q 956 3463 1253 3523 
Q 1550 3584 1831 3584 
Q 2591 3584 2966 3190 
Q 3341 2797 3341 1997 
z
" transform="scale(0.015625)"/>
       <path id="DejaVuSans-56" d="M 1831 0 
L 50 4666 
L 709 4666 
L 2188 738 
L 3669 4666 
L 4325 4666 
L 2547 0 
L 1831 0 
z
" transform="scale(0.015625)"/>
       <path id="DejaVuSans-75" d="M 544 1381 
L 544 3500 
L 1119 3500 
L 1119 1403 
Q 1119 906 1312 657 
Q 1506 409 1894 409 
Q 2359 409 2629 706 
Q 2900 1003 2900 1516 
L 2900 3500 
L 3475 3500 
L 3475 0 
L 2900 0 
L 2900 538 
Q 2691 219 2414 64 
Q 2138 -91 1772 -91 
Q 1169 -91 856 284 
Q 544 659 544 1381 
z
M 1991 3584 
L 1991 3584 
z
" transform="scale(0.015625)"/>
      </defs>
      <use xlink:href="#DejaVuSans-44"/>
      <use xlink:href="#DejaVuSans-65" x="77.001953"/>
      <use xlink:href="#DejaVuSans-6c" x="138.525391"/>
      <use xlink:href="#DejaVuSans-74" x="166.308594"/>
      <use xlink:href="#DejaVuSans-61" x="205.517578"/>
      <use xlink:href="#DejaVuSans-20" x="266.796875"/>
      <use xlink:href="#DejaVuSans-56" x="298.583984"/>
      <use xlink:href="#DejaVuSans-61" x="359.242188"/>
      <use xlink:href="#DejaVuSans-6c" x="420.521484"/>
      <use xlink:href="#DejaVuSans-75" x="448.304688"/>
      <use xlink:href="#DejaVuSans-65" x="511.683594"/>
     </g>
    </g>
   </g>
   <g id="line2d_21">
    <path d="M 77.787273 133.683397 
L 77.874958 236.065785 
L 79.219465 125.410106 
L 79.30715 236.065785 
L 80.461673 144.049564 
L 80.534744 236.062243 
L 81.133926 217.463518 
L 81.221612 236.065785 
L 81.382368 235.927402 
L 81.543124 236.078182 
L 81.645424 236.067556 
L 81.850023 210.658217 
L 81.923094 236.062243 
L 82.390748 191.827246 
L 82.463819 236.062243 
L 83.09223 191.827246 
L 83.165301 236.062243 
L 84.085997 173.187785 
L 84.173682 236.065785 
L 85.547417 125.410106 
L 85.635103 236.065785 
L 86.950382 169.685837 
L 87.038067 236.064014 
L 87.666478 236.067556 
L 87.768777 235.794817 
L 87.856462 236.064014 
L 88.09029 236.067556 
L 88.207203 235.963065 
L 88.280274 236.064014 
L 88.54333 236.067556 
L 88.64563 235.901079 
L 88.733315 236.064014 
L 88.967142 236.067556 
L 89.084056 235.856803 
L 89.259426 236.078182 
L 89.361726 236.067556 
L 89.697853 211.538874 
L 89.770924 236.062243 
L 90.223964 191.827245 
L 90.297035 236.062243 
L 90.925446 191.827245 
L 90.998517 236.062243 
L 91.451558 191.827245 
L 91.524629 236.062243 
L 92.15304 191.827245 
L 92.226111 236.062243 
L 92.635309 191.827245 
L 92.70838 236.062243 
L 93.16142 191.827245 
L 93.234491 236.062243 
L 93.862902 191.827245 
L 93.935973 236.062243 
L 94.389014 191.827245 
L 94.462085 236.062243 
L 95.090496 191.827245 
L 95.163567 236.062243 
L 95.572765 191.827245 
L 95.645836 236.062243 
L 96.128104 191.827245 
L 96.201176 236.062243 
L 96.829587 191.827245 
L 96.902658 236.062243 
L 97.355698 191.827245 
L 97.428769 236.062243 
L 98.05718 191.827245 
L 98.130251 236.062243 
L 98.539449 191.827245 
L 98.61252 236.062243 
L 99.06556 191.827245 
L 99.138631 236.062243 
L 99.767042 191.827245 
L 99.840113 236.062243 
L 100.293154 191.827245 
L 100.366225 236.062243 
L 100.994636 191.827245 
L 101.067707 236.062243 
L 101.476905 191.827245 
L 101.549976 236.062243 
L 102.003016 191.827245 
L 102.076087 236.062243 
L 102.704498 191.827245 
L 102.777569 236.062243 
L 103.259838 191.827245 
L 103.332909 236.062243 
L 103.96132 191.827245 
L 104.034391 236.062243 
L 104.443589 191.827245 
L 104.51666 236.062243 
L 104.969701 191.827245 
L 105.042772 236.062243 
L 105.671183 191.827245 
L 105.744254 236.062243 
L 106.197294 191.827245 
L 106.270365 236.062243 
L 106.898776 191.827245 
L 106.971847 236.062243 
L 107.381045 191.827245 
L 107.454116 236.062243 
L 107.907157 191.827245 
L 107.980228 236.062243 
L 108.608639 191.827245 
L 108.68171 236.062243 
L 109.13475 191.827245 
L 109.207821 236.062243 
L 109.836232 191.827245 
L 109.909303 236.062243 
L 110.318501 191.827245 
L 110.391572 236.062243 
L 110.873841 191.827245 
L 110.946912 236.062243 
L 111.575323 191.827245 
L 111.648394 236.062243 
L 112.101434 191.827245 
L 112.174506 236.062243 
L 112.802916 191.827245 
L 112.875988 236.062243 
L 113.285185 191.827245 
L 113.358256 236.062243 
L 113.811297 191.827245 
L 113.884368 236.062243 
L 114.512779 191.827245 
L 114.58585 236.062243 
L 115.03889 191.827245 
L 115.111961 236.062243 
L 115.740372 191.827245 
L 115.813443 236.062243 
L 116.222641 191.827245 
L 116.295712 236.062243 
L 116.748753 191.827245 
L 116.821824 236.062243 
L 117.450235 191.827245 
L 117.523306 236.062243 
L 118.005575 191.827245 
L 118.078646 236.062243 
L 118.707057 191.827245 
L 118.780128 236.062243 
L 119.189326 191.827245 
L 119.262397 236.062243 
L 119.715437 191.827245 
L 119.788508 236.062243 
L 120.416919 191.827244 
L 120.48999 236.062243 
L 120.943031 191.827244 
L 121.016102 236.062243 
L 121.644513 191.827244 
L 121.717584 236.062243 
L 122.126782 191.827244 
L 122.199853 236.062243 
L 122.652893 191.827244 
L 122.725964 236.062243 
L 123.354375 191.827244 
L 123.427446 236.062243 
L 123.880487 191.827244 
L 123.953558 236.062243 
L 124.581969 191.827244 
L 124.65504 236.062243 
L 125.064237 191.827244 
L 125.137309 236.062243 
L 125.619577 191.827244 
L 125.692648 236.062243 
L 126.321059 191.827244 
L 126.39413 236.062243 
L 126.847171 191.827244 
L 126.920242 236.062243 
L 127.548653 191.827244 
L 127.621724 236.062243 
L 128.030922 191.827244 
L 128.103993 236.062243 
L 128.557033 191.827244 
L 128.630104 236.062243 
L 129.258515 191.827244 
L 129.331586 236.062243 
L 129.784627 191.827244 
L 129.857698 236.062243 
L 130.486109 191.827244 
L 130.55918 236.062243 
L 130.968378 191.827244 
L 131.041449 236.062243 
L 131.494489 191.827244 
L 131.56756 236.062243 
L 132.195971 191.827244 
L 132.269042 236.062243 
L 132.751311 191.827244 
L 132.824382 236.062243 
L 133.452793 191.827244 
L 133.525864 236.062243 
L 133.935062 191.827244 
L 134.008133 236.062243 
L 134.461174 191.827244 
L 134.534245 236.062243 
L 135.162656 191.827244 
L 135.235727 236.062243 
L 135.688767 191.827244 
L 135.761838 236.062243 
L 136.390249 191.827244 
L 136.46332 236.062243 
L 136.872518 191.827244 
L 136.945589 236.062243 
L 137.39863 191.827244 
L 137.471701 236.062243 
L 138.100112 191.827244 
L 138.173183 236.062243 
L 138.626223 191.827244 
L 138.699294 236.062243 
L 139.327705 191.827244 
L 139.400776 236.062243 
L 139.809974 191.827244 
L 139.883045 236.062243 
L 140.365314 191.827244 
L 140.438385 236.062243 
L 141.066796 191.827244 
L 141.139867 236.062243 
L 141.592907 191.827244 
L 141.665978 236.062243 
L 142.294389 191.827244 
L 142.36746 236.062243 
L 142.776658 191.827244 
L 142.849729 236.062243 
L 143.30277 191.827244 
L 143.375841 236.062243 
L 144.004252 191.827244 
L 144.077323 236.062243 
L 144.530363 191.827244 
L 144.603434 236.062243 
L 145.231845 191.827244 
L 145.304916 236.062243 
L 145.714114 191.827244 
L 145.787185 236.062243 
L 146.240226 191.827244 
L 146.313297 236.062243 
L 146.941708 191.827244 
L 147.014779 236.062243 
L 147.497048 191.827244 
L 147.570119 236.062243 
L 148.19853 191.827244 
L 148.271601 236.062243 
L 148.680799 191.827244 
L 148.75387 236.062243 
L 149.20691 191.827244 
L 149.279981 236.062243 
L 149.908392 191.827244 
L 149.981463 236.062243 
L 150.434504 191.827244 
L 150.507575 236.062243 
L 151.135986 191.827244 
L 151.209057 236.062243 
L 151.618254 191.827244 
L 151.691326 236.062243 
L 152.144366 191.827244 
L 152.217437 236.062243 
L 152.845848 191.827244 
L 152.918919 236.062243 
L 153.371959 191.827244 
L 153.445031 236.062243 
L 154.073442 191.827244 
L 154.146513 236.062243 
L 154.55571 191.827244 
L 154.628781 236.062243 
L 155.11105 191.827244 
L 155.184121 236.062243 
L 155.812532 191.827244 
L 155.885603 236.062243 
L 156.338644 191.827244 
L 156.411715 236.062243 
L 157.040126 191.827244 
L 157.113197 236.062243 
L 157.522395 191.827244 
L 157.595466 236.062243 
L 158.048506 191.827244 
L 158.121577 236.062243 
L 158.749988 191.827244 
L 158.823059 236.062243 
L 159.2761 191.827244 
L 159.349171 236.062243 
L 159.977582 191.827244 
L 160.050653 236.062243 
L 160.459851 191.827244 
L 160.532922 236.062243 
L 160.985962 191.827244 
L 161.059033 236.062243 
L 161.687444 191.827244 
L 161.760515 236.062243 
L 162.242784 191.827244 
L 162.315855 236.062243 
L 162.944266 191.827244 
L 163.017337 236.062243 
L 163.426535 191.827244 
L 163.499606 236.062243 
L 163.952646 191.827244 
L 164.025718 236.062243 
L 164.654129 191.827244 
L 164.7272 236.062243 
L 165.18024 191.827244 
L 165.253311 236.062243 
L 165.881722 191.827244 
L 165.954793 236.062243 
L 166.363991 191.827244 
L 166.437062 236.062243 
L 166.890102 191.827244 
L 166.963173 236.062243 
L 167.591584 191.827244 
L 167.664655 236.062243 
L 168.117696 191.827244 
L 168.190767 236.062243 
L 168.819178 191.827244 
L 168.892249 236.062243 
L 169.301447 191.827244 
L 169.374518 236.062243 
L 169.856787 191.827244 
L 169.929858 236.062243 
L 170.558269 191.827244 
L 170.63134 236.062243 
L 171.08438 191.827244 
L 171.157451 236.062243 
L 171.785862 191.827244 
L 171.858933 236.062243 
L 172.268131 191.827244 
L 172.341202 236.062243 
L 172.794243 191.827244 
L 172.867314 236.062243 
L 173.495725 191.827244 
L 173.568796 236.062243 
L 174.021836 191.827244 
L 174.094907 236.062243 
L 174.723318 191.827244 
L 174.796389 236.062243 
L 175.205587 191.827244 
L 175.278658 236.062243 
L 175.731699 191.827244 
L 175.80477 236.062243 
L 176.433181 191.827244 
L 176.506252 236.062243 
L 176.988521 191.827244 
L 177.061592 236.062243 
L 177.690003 191.827244 
L 177.763074 236.062243 
L 178.172271 191.827244 
L 178.245342 236.062243 
L 178.698383 191.827244 
L 178.771454 236.062243 
L 179.399865 191.827244 
L 179.472936 236.062243 
L 179.925976 191.827244 
L 179.999048 236.062243 
L 180.627458 191.827244 
L 180.70053 236.062243 
L 181.109727 191.827244 
L 181.182798 236.062243 
L 181.635839 191.827244 
L 181.70891 236.062243 
L 182.337321 191.827244 
L 182.410392 236.062243 
L 182.863432 191.827244 
L 182.936503 236.062243 
L 183.564914 191.827244 
L 183.637985 236.062243 
L 184.047183 191.827244 
L 184.120254 236.062243 
L 184.602523 191.827244 
L 184.675594 236.062243 
L 185.304005 191.827244 
L 185.377076 236.062243 
L 185.830117 191.827244 
L 185.903188 236.062243 
L 186.531599 191.827244 
L 186.60467 236.062243 
L 187.013868 191.827244 
L 187.086939 236.062243 
L 187.539979 191.827244 
L 187.61305 236.062243 
L 188.241461 191.827244 
L 188.314532 236.062243 
L 188.767573 191.827244 
L 188.840644 236.062243 
L 189.469055 191.827244 
L 189.542126 236.062243 
L 189.951324 191.827244 
L 190.024395 236.062243 
L 190.477435 191.827244 
L 190.550506 236.062243 
L 191.178917 191.827244 
L 191.251988 236.062243 
L 191.734257 191.827244 
L 191.807328 236.062243 
L 192.435739 191.827244 
L 192.50881 236.062243 
L 192.918008 191.827244 
L 192.991079 236.062243 
L 193.444119 191.827244 
L 193.51719 236.062243 
L 194.145601 191.827244 
L 194.218672 236.062243 
L 194.671713 191.827244 
L 194.744784 236.062243 
L 195.373195 191.827244 
L 195.446266 236.062243 
L 195.855464 191.827244 
L 195.928535 236.062243 
L 196.381575 191.827244 
L 196.454646 236.062243 
L 197.083057 191.827244 
L 197.156128 236.062243 
L 197.609169 191.827244 
L 197.68224 236.062243 
L 198.310651 191.827244 
L 198.383722 236.062243 
L 198.79292 191.827244 
L 198.865991 236.062243 
L 199.34826 191.827244 
L 199.421331 236.062243 
L 200.049742 191.827244 
L 200.122813 236.062243 
L 200.575853 191.827244 
L 200.648924 236.062243 
L 201.277335 191.827244 
L 201.350406 236.062243 
L 201.759604 191.827244 
L 201.832675 236.062243 
L 202.285716 191.827243 
L 202.358787 236.062243 
L 202.987198 191.827243 
L 203.060269 236.062243 
L 203.513309 191.827243 
L 203.58638 236.062243 
L 204.214791 191.827243 
L 204.287862 236.062243 
L 204.69706 191.827243 
L 204.770131 236.062243 
L 205.223172 191.827243 
L 205.296243 236.062243 
L 205.924654 191.827243 
L 205.997725 236.062243 
L 206.479993 191.827243 
L 206.553065 236.062243 
L 207.181475 191.827243 
L 207.254547 236.062243 
L 207.663744 191.827243 
L 207.736815 236.062243 
L 208.189856 191.827243 
L 208.262927 236.062243 
L 208.891338 191.827243 
L 208.964409 236.062243 
L 209.417449 191.827243 
L 209.49052 236.062243 
L 210.118931 191.827243 
L 210.192002 236.062243 
L 210.6012 191.827243 
L 210.674271 236.062243 
L 211.127312 191.827243 
L 211.200383 236.062243 
L 211.828794 191.827243 
L 211.901865 236.062243 
L 212.354905 191.827243 
L 212.427976 236.062243 
L 213.056387 191.827243 
L 213.129458 236.062243 
L 213.538656 191.827243 
L 213.611727 236.062243 
L 214.093996 191.827243 
L 214.167067 236.062243 
L 214.795478 191.827243 
L 214.868549 236.062243 
L 215.32159 191.827243 
L 215.394661 236.062243 
L 216.023072 191.827243 
L 216.096143 236.062243 
L 216.505341 191.827243 
L 216.578412 236.062243 
L 217.031452 191.827243 
L 217.104523 236.062243 
L 217.732934 191.827243 
L 217.806005 236.062243 
L 218.259046 191.827243 
L 218.332117 236.062243 
L 218.960528 191.827243 
L 219.033599 236.062243 
L 219.442796 191.827243 
L 219.515868 236.062243 
L 219.968908 191.827243 
L 220.041979 236.062243 
L 220.67039 191.827243 
L 220.743461 236.062243 
L 221.22573 191.827243 
L 221.298801 236.062243 
L 221.927212 191.827243 
L 222.000283 236.062243 
L 222.409481 191.827243 
L 222.482552 236.062243 
L 222.935592 191.827243 
L 223.008663 236.062243 
L 223.637074 191.827243 
L 223.710145 236.062243 
L 224.163186 191.827243 
L 224.236257 236.062243 
L 224.864668 191.827243 
L 224.937739 236.062243 
L 225.346937 191.827243 
L 225.420008 236.062243 
L 225.873048 191.827243 
L 225.946119 236.062243 
L 226.57453 191.827243 
L 226.647601 236.062243 
L 227.100642 191.827243 
L 227.173713 236.062243 
L 227.802124 191.827243 
L 227.875195 236.062243 
L 228.284393 191.827243 
L 228.357464 236.062243 
L 228.839733 191.827243 
L 228.912804 236.062243 
L 229.541215 191.827243 
L 229.614286 236.062243 
L 230.067326 191.827243 
L 230.140397 236.062243 
L 230.768808 191.827243 
L 230.841879 236.062243 
L 231.251077 191.827243 
L 231.324148 236.062243 
L 231.777189 191.827243 
L 231.85026 236.062243 
L 232.478671 191.827243 
L 232.551742 236.062243 
L 233.004782 191.827243 
L 233.077853 236.062243 
L 233.706264 191.827243 
L 233.779335 236.062243 
L 234.188533 191.827243 
L 234.261604 236.062243 
L 234.714644 191.827243 
L 234.787715 236.062243 
L 235.416126 191.827243 
L 235.489197 236.062243 
L 235.971466 191.827243 
L 236.044537 236.062243 
L 236.672948 191.827243 
L 236.746019 236.062243 
L 237.155217 191.827243 
L 237.228288 236.062243 
L 237.681329 191.827243 
L 237.7544 236.062243 
L 238.382811 191.827243 
L 238.455882 236.062243 
L 238.908922 191.827243 
L 238.981993 236.062243 
L 239.610404 191.827243 
L 239.683475 236.062243 
L 240.092673 191.827243 
L 240.165744 236.062243 
L 240.618785 191.827243 
L 240.691856 236.062243 
L 241.320267 191.827243 
L 241.393338 236.062243 
L 241.846378 191.827243 
L 241.919449 236.062243 
L 242.54786 191.827243 
L 242.620931 236.062243 
L 243.030129 191.827243 
L 243.1032 236.062243 
L 243.585469 191.827243 
L 243.65854 236.062243 
L 244.286951 191.827243 
L 244.360022 236.062243 
L 244.813063 191.827243 
L 244.886134 236.062243 
L 245.514545 191.827243 
L 245.587616 236.062243 
L 245.996813 191.827243 
L 246.069884 236.062243 
L 246.522925 191.827243 
L 246.595996 236.062243 
L 247.224407 191.827243 
L 247.297478 236.062243 
L 247.750518 191.827243 
L 247.82359 236.062243 
L 248.452 191.827243 
L 248.525072 236.062243 
L 248.934269 191.827243 
L 249.00734 236.062243 
L 249.460381 191.827243 
L 249.533452 236.062243 
L 250.161863 191.827243 
L 250.234934 236.062243 
L 252.33938 81.117551 
L 252.427065 236.065785 
L 253.932329 125.410106 
L 254.063857 236.065785 
L 255.656805 125.410106 
L 255.744491 236.065785 
L 256.85517 162.403484 
L 256.928241 236.062243 
L 257.278982 199.109598 
L 257.41051 236.065785 
L 257.644338 236.062243 
L 257.834322 236.067556 
L 258.06815 228.950401 
L 258.141221 236.062243 
L 258.769632 191.827246 
L 258.842703 236.062243 
L 259.339586 191.827246 
L 259.412657 236.062243 
L 260.435652 154.833863 
L 260.567179 236.065785 
L 261.502489 169.685837 
L 261.721702 236.064014 
L 262.423184 236.067556 
L 262.525483 235.812527 
L 262.613169 236.064014 
L 263.300036 236.067556 
L 263.402336 235.980775 
L 263.636163 236.077705 
L 264.118432 236.067556 
L 264.703 207.419175 
L 264.776071 236.062243 
L 265.229112 191.827246 
L 265.302183 236.062243 
L 265.930594 191.827246 
L 266.003665 236.062243 
L 266.412863 191.827246 
L 266.485934 236.062243 
L 266.938974 191.827246 
L 267.012045 236.062243 
L 267.640456 191.827246 
L 267.713527 236.062243 
L 268.166568 191.827246 
L 268.239639 236.062243 
L 268.86805 191.827246 
L 268.941121 236.062243 
L 269.350319 191.827246 
L 269.42339 236.062243 
L 269.905659 191.827246 
L 269.97873 236.062243 
L 270.607141 191.827246 
L 270.680212 236.062243 
L 271.133252 191.827246 
L 271.206323 236.062243 
L 271.834734 191.827246 
L 271.907805 236.062243 
L 272.317003 191.827246 
L 272.390074 236.062243 
L 272.843115 191.827246 
L 272.916186 236.062243 
L 273.544597 191.827246 
L 273.617668 236.062243 
L 274.070708 191.827246 
L 274.143779 236.062243 
L 274.77219 191.827246 
L 274.845261 236.062243 
L 275.254459 191.827246 
L 275.32753 236.062243 
L 275.780571 191.827246 
L 275.853642 236.062243 
L 276.482053 191.827246 
L 276.555124 236.062243 
L 277.037392 191.827246 
L 277.110464 236.062243 
L 277.738874 191.827246 
L 277.811946 236.062243 
L 278.221143 191.827246 
L 278.294214 236.062243 
L 278.747255 191.827246 
L 278.820326 236.062243 
L 279.448737 191.827246 
L 279.521808 236.062243 
L 279.974848 191.827246 
L 280.047919 236.062243 
L 280.67633 191.827246 
L 280.749401 236.062243 
L 281.158599 191.827246 
L 281.23167 236.062243 
L 281.684711 191.827246 
L 281.757782 236.062243 
L 282.386193 191.827246 
L 282.459264 236.062243 
L 282.912304 191.827246 
L 282.985375 236.062243 
L 283.613786 191.827246 
L 283.686857 236.062243 
L 284.096055 191.827246 
L 284.169126 236.062243 
L 284.651395 191.827246 
L 284.724466 236.062243 
L 285.352877 191.827246 
L 285.425948 236.062243 
L 285.878989 191.827246 
L 285.95206 236.062243 
L 286.580471 191.827246 
L 286.653542 236.062243 
L 287.06274 191.827246 
L 287.135811 236.062243 
L 287.588851 191.827246 
L 287.661922 236.062243 
L 288.290333 191.827246 
L 288.363404 236.062243 
L 288.816445 191.827246 
L 288.889516 236.062243 
L 289.517927 191.827246 
L 289.590998 236.062243 
L 290.000195 191.827246 
L 290.073267 236.062243 
L 290.526307 191.827246 
L 290.599378 236.062243 
L 291.227789 191.827246 
L 291.30086 236.062243 
L 291.783129 191.827246 
L 291.8562 236.062243 
L 292.484611 191.827246 
L 292.557682 236.062243 
L 292.96688 191.827246 
L 293.039951 236.062243 
L 293.492991 191.827246 
L 293.566062 236.062243 
L 294.194473 191.827246 
L 294.267544 236.062243 
L 294.720585 191.827246 
L 294.793656 236.062243 
L 295.422067 191.827246 
L 295.495138 236.062243 
L 295.904336 191.827246 
L 295.977407 236.062243 
L 296.430447 191.827246 
L 296.503518 236.062243 
L 297.131929 191.827246 
L 297.205 236.062243 
L 297.658041 191.827246 
L 297.731112 236.062243 
L 298.359523 191.827246 
L 298.432594 236.062243 
L 298.841792 191.827246 
L 298.914863 236.062243 
L 299.397132 191.827246 
L 299.470203 236.062243 
L 300.098614 191.827246 
L 300.171685 236.062243 
L 300.624725 191.827246 
L 300.697796 236.062243 
L 301.326207 191.827246 
L 301.399278 236.062243 
L 301.808476 191.827246 
L 301.881547 236.062243 
L 302.334588 191.827246 
L 302.407659 236.062243 
L 303.03607 191.827246 
L 303.109141 236.062243 
L 303.562181 191.827246 
L 303.635252 236.062243 
L 304.263663 191.827246 
L 304.336734 236.062243 
L 304.745932 191.827246 
L 304.819003 236.062243 
L 305.272043 191.827246 
L 305.345114 236.062243 
L 305.973525 191.827246 
L 306.046596 236.062243 
L 306.528865 191.827246 
L 306.601936 236.062243 
L 307.230347 191.827246 
L 307.303418 236.062243 
L 307.712616 191.827246 
L 307.785687 236.062243 
L 308.238728 191.827246 
L 308.311799 236.062243 
L 308.94021 191.827246 
L 309.013281 236.062243 
L 309.466321 191.827246 
L 309.539392 236.062243 
L 310.167803 191.827246 
L 310.240874 236.062243 
L 310.650072 191.827246 
L 310.723143 236.062243 
L 311.176184 191.827246 
L 311.249255 236.062243 
L 311.877666 191.827246 
L 311.950737 236.062243 
L 312.403777 191.827246 
L 312.476848 236.062243 
L 313.105259 191.827246 
L 313.17833 236.062243 
L 313.587528 191.827246 
L 313.660599 236.062243 
L 314.142868 191.827246 
L 314.215939 236.062243 
L 314.84435 191.827246 
L 314.917421 236.062243 
L 315.370462 191.827246 
L 315.443533 236.062243 
L 316.071944 191.827246 
L 316.145015 236.062243 
L 316.554212 191.827246 
L 316.627284 236.062243 
L 317.080324 191.827246 
L 317.153395 236.062243 
L 317.781806 191.827246 
L 317.854877 236.062243 
L 318.307917 191.827246 
L 318.380989 236.062243 
L 319.0094 191.827246 
L 319.082471 236.062243 
L 319.491668 191.827246 
L 319.564739 236.062243 
L 320.01778 191.827246 
L 320.090851 236.062243 
L 320.719262 191.827246 
L 320.792333 236.062243 
L 321.274602 191.827246 
L 321.347673 236.062243 
L 321.976084 191.827246 
L 322.049155 236.062243 
L 322.458353 191.827246 
L 322.531424 236.062243 
L 322.984464 191.827246 
L 323.057535 236.062243 
L 323.685946 191.827246 
L 323.759017 236.062243 
L 324.212058 191.827246 
L 324.285129 236.062243 
L 324.91354 191.827246 
L 324.986611 236.062243 
L 325.395809 191.827246 
L 325.46888 236.062243 
L 325.92192 191.827246 
L 325.994991 236.062243 
L 326.623402 191.827246 
L 326.696473 236.062243 
L 327.149514 191.827246 
L 327.222585 236.062243 
L 327.850996 191.827246 
L 327.924067 236.062243 
L 328.333265 191.827246 
L 328.406336 236.062243 
L 328.888605 191.827246 
L 328.961676 236.062243 
L 329.590087 191.827246 
L 329.663158 236.062243 
L 330.116198 191.827246 
L 330.189269 236.062243 
L 330.81768 191.827245 
L 330.890751 236.062243 
L 331.299949 191.827245 
L 331.37302 236.062243 
L 331.82606 191.827245 
L 331.899131 236.062243 
L 332.527542 191.827245 
L 332.600613 236.062243 
L 333.053654 191.827245 
L 333.126725 236.062243 
L 333.755136 191.827245 
L 333.828207 236.062243 
L 334.237405 191.827245 
L 334.310476 236.062243 
L 334.763516 191.827245 
L 334.836587 236.062243 
L 335.464998 191.827245 
L 335.538069 236.062243 
L 336.020338 191.827245 
L 336.093409 236.062243 
L 336.72182 191.827245 
L 336.794891 236.062243 
L 337.204089 191.827245 
L 337.27716 236.062243 
L 337.730201 191.827245 
L 337.803272 236.062243 
L 338.431683 191.827245 
L 338.504754 236.062243 
L 338.957794 191.827245 
L 339.030865 236.062243 
L 339.659276 191.827245 
L 339.732347 236.062243 
L 340.141545 191.827245 
L 340.214616 236.062243 
L 340.667657 191.827245 
L 340.740728 236.062243 
L 341.369139 191.827245 
L 341.44221 236.062243 
L 341.89525 191.827245 
L 341.968321 236.062243 
L 342.596732 191.827245 
L 342.669803 236.062243 
L 343.079001 191.827245 
L 343.152072 236.062243 
L 343.634341 191.827245 
L 343.707412 236.062243 
L 344.335823 191.827245 
L 344.408894 236.062243 
L 344.861934 191.827245 
L 344.935006 236.062243 
L 345.563416 191.827245 
L 345.636488 236.062243 
L 346.045685 191.827245 
L 346.118756 236.062243 
L 346.571797 191.827245 
L 346.644868 236.062243 
L 347.273279 191.827245 
L 347.34635 236.062243 
L 347.79939 191.827245 
L 347.872461 236.062243 
L 348.500872 191.827245 
L 348.573943 236.062243 
L 348.983141 191.827245 
L 349.056212 236.062243 
L 349.509253 191.827245 
L 349.582324 236.062243 
L 350.210735 191.827245 
L 350.283806 236.062243 
L 350.766075 191.827245 
L 350.839146 236.062243 
L 351.467557 191.827245 
L 351.540628 236.062243 
L 351.949826 191.827245 
L 352.022897 236.062243 
L 352.475937 191.827245 
L 352.549008 236.062243 
L 353.177419 191.827245 
L 353.25049 236.062243 
L 353.703531 191.827245 
L 353.776602 236.062243 
L 354.405013 191.827245 
L 354.478084 236.062243 
L 354.887282 191.827245 
L 354.960353 236.062243 
L 355.413393 191.827245 
L 355.486464 236.062243 
L 355.661835 221.230913 
L 355.734906 236.065785 
L 356.144104 206.695766 
L 356.217175 236.062243 
L 356.670215 191.827245 
L 356.743286 236.062243 
L 357.371697 191.827245 
L 357.444768 236.062243 
L 357.853966 191.827245 
L 357.927037 236.062243 
L 358.409306 191.827245 
L 358.482377 236.062243 
L 359.110788 191.827245 
L 359.183859 236.062243 
L 359.636899 191.827245 
L 359.70997 236.062243 
L 360.338381 191.827245 
L 360.411452 236.062243 
L 360.82065 191.827244 
L 360.893721 236.062243 
L 361.346762 191.827244 
L 361.419833 236.062243 
L 362.048244 191.827244 
L 362.121315 236.062243 
L 362.574355 191.827244 
L 362.647426 236.062243 
L 363.027396 199.093069 
L 363.100467 236.065785 
L 363.305066 228.83361 
L 363.378137 236.062243 
L 363.787335 191.827244 
L 363.860406 236.062243 
L 364.313446 191.827244 
L 364.386517 236.062243 
L 365.014928 191.827244 
L 365.087999 236.062243 
L 365.570268 191.827244 
L 365.643339 236.062243 
L 366.27175 191.827244 
L 366.344821 236.062243 
L 366.754019 191.827244 
L 366.82709 236.062243 
L 367.28013 191.827244 
L 367.353201 236.062243 
L 367.981612 191.827244 
L 368.054683 236.062243 
L 368.507724 191.827244 
L 368.580795 236.062243 
L 369.209206 191.827244 
L 369.282277 236.062243 
L 369.691475 191.827244 
L 369.764546 236.062243 
L 370.217586 191.827244 
L 370.290657 236.062243 
L 370.466028 221.23096 
L 370.539099 236.065785 
L 370.948297 206.695718 
L 371.021368 236.062243 
L 371.474408 191.827244 
L 371.547479 236.062243 
L 372.17589 191.827244 
L 372.248961 236.062243 
L 372.658159 191.827244 
L 372.73123 236.062243 
L 373.213499 191.827244 
L 373.28657 236.062243 
L 373.914981 191.827244 
L 373.988052 236.062243 
L 374.441093 191.827244 
L 374.514164 236.062243 
L 375.142575 191.827244 
L 375.215646 236.062243 
L 375.624844 191.827244 
L 375.697915 236.062243 
L 376.150955 191.827244 
L 376.224026 236.062243 
L 376.852437 191.827244 
L 376.925508 236.062243 
L 377.378549 191.827244 
L 377.45162 236.062243 
L 377.831589 199.093122 
L 377.90466 236.065785 
L 378.109259 228.833556 
L 378.18233 236.062243 
L 378.591528 191.827244 
L 378.664599 236.062243 
L 379.117639 191.827244 
L 379.19071 236.062243 
L 379.819121 191.827244 
L 379.892192 236.062243 
L 380.374461 191.827244 
L 380.447532 236.062243 
L 381.075943 191.827244 
L 381.149014 236.062243 
L 381.558212 191.827244 
L 381.631283 236.062243 
L 382.084324 191.827244 
L 382.157395 236.062243 
L 382.785806 191.827244 
L 382.858877 236.062243 
L 383.311917 191.827244 
L 383.384988 236.062243 
L 384.013399 191.827244 
L 384.08647 236.062243 
L 384.495668 191.827244 
L 384.568739 236.062243 
L 385.02178 191.827244 
L 385.094851 236.062243 
L 385.270221 221.231017 
L 385.343292 236.065785 
L 385.75249 206.695661 
L 385.825561 236.062243 
L 386.278602 191.827244 
L 386.351673 236.062243 
L 386.980084 191.827244 
L 387.053155 236.062243 
L 387.462352 191.827244 
L 387.535424 236.062243 
L 388.017692 191.827244 
L 388.090763 236.062243 
L 388.719174 191.827244 
L 388.792245 236.062243 
L 389.245286 191.827244 
L 389.318357 236.062243 
L 389.946768 191.827244 
L 390.019839 236.062243 
L 390.429037 191.827244 
L 390.502108 236.062243 
L 390.955148 191.827244 
L 391.028219 236.062243 
L 391.65663 191.827244 
L 391.729701 236.062243 
L 392.182742 191.827244 
L 392.255813 236.062243 
L 392.635782 199.093182 
L 392.708853 236.065785 
L 392.913452 228.833496 
L 392.986523 236.062243 
L 393.395721 191.827244 
L 393.468792 236.062243 
L 393.921833 191.827244 
L 393.994904 236.062243 
L 394.623315 191.827244 
L 394.696386 236.062243 
L 395.178655 191.827244 
L 395.251726 236.062243 
L 395.880137 191.827244 
L 395.953208 236.062243 
L 396.362406 191.827244 
L 396.435477 236.062243 
L 396.888517 191.827244 
L 396.961588 236.062243 
L 397.589999 191.827244 
L 397.66307 236.062243 
L 398.116111 191.827244 
L 398.189182 236.062243 
L 398.817593 191.827244 
L 398.890664 236.062243 
L 399.299861 191.827244 
L 399.372932 236.062243 
L 399.825973 191.827244 
L 399.899044 236.062243 
L 400.074414 221.231081 
L 400.147486 236.065785 
L 400.556683 206.695597 
L 400.629754 236.062243 
L 401.082795 191.827244 
L 401.155866 236.062243 
L 401.784277 191.827244 
L 401.857348 236.062243 
L 402.266546 191.827244 
L 402.339617 236.062243 
L 402.821886 191.827244 
L 402.894957 236.062243 
L 403.523368 191.827244 
L 403.596439 236.062243 
L 404.049479 191.827244 
L 404.12255 236.062243 
L 404.750961 191.827244 
L 404.824032 236.062243 
L 405.23323 191.827244 
L 405.306301 236.062243 
L 405.759342 191.827244 
L 405.832413 236.062243 
L 406.460824 191.827244 
L 406.533895 236.062243 
L 406.986935 191.827244 
L 407.060006 236.062243 
L 407.439976 199.093247 
L 407.513047 236.065785 
L 407.717646 228.83343 
L 407.790717 236.062243 
L 408.199914 191.827244 
L 408.272985 236.062243 
L 408.726026 191.827244 
L 408.799097 236.062243 
L 409.427508 191.827244 
L 409.500579 236.062243 
L 409.982848 191.827246 
L 410.055919 236.062243 
L 410.68433 191.827246 
L 410.757401 236.062243 
L 411.166599 191.827246 
L 411.23967 236.062243 
L 411.69271 191.827246 
L 411.765781 236.062243 
L 412.394192 191.827246 
L 412.467263 236.062243 
L 412.920304 191.827246 
L 412.993375 236.062243 
L 413.621786 191.827246 
L 413.694857 236.062243 
L 414.104055 191.827246 
L 414.177126 236.062243 
L 414.630166 191.827246 
L 414.703237 236.062243 
L 414.878608 221.231098 
L 414.951679 236.065785 
L 415.360877 206.695582 
L 415.433948 236.062243 
L 415.886988 191.827246 
L 415.960059 236.062243 
L 416.58847 191.827246 
L 416.661541 236.062243 
L 417.070739 191.827246 
L 417.14381 236.062243 
L 417.626079 191.827246 
L 417.69915 236.062243 
L 418.327561 191.827246 
L 418.400632 236.062243 
L 418.853673 191.827246 
L 418.926744 236.062243 
L 419.555155 191.827246 
L 419.628226 236.062243 
L 420.037423 191.827246 
L 420.110494 236.062243 
L 420.563535 191.827246 
L 420.636606 236.062243 
L 421.265017 191.827246 
L 421.338088 236.062243 
L 421.791128 191.827246 
L 421.864199 236.062243 
L 422.244169 199.0932 
L 422.31724 236.065785 
L 422.521839 228.83348 
L 422.59491 236.062243 
L 423.004108 191.827246 
L 423.077179 236.062243 
L 423.530219 191.827246 
L 423.60329 236.062243 
L 424.231701 191.827246 
L 424.304772 236.062243 
L 424.787041 191.827246 
L 424.860112 236.062243 
L 425.488523 191.827246 
L 425.561594 236.062243 
L 425.970792 191.827246 
L 426.043863 236.062243 
L 426.496904 191.827246 
L 426.569975 236.062243 
L 427.198386 191.827246 
L 427.271457 236.062243 
L 427.724497 191.827246 
L 427.797568 236.062243 
L 428.425979 191.827246 
L 428.49905 236.062243 
L 428.908248 191.827246 
L 428.981319 236.062243 
L 429.43436 191.827246 
L 429.507431 236.062243 
L 429.682801 221.231033 
L 429.755872 236.065785 
L 430.16507 206.695647 
L 430.238141 236.062243 
L 430.691181 191.827246 
L 430.764252 236.062243 
L 431.392663 191.827246 
L 431.465735 236.062243 
L 431.874932 191.827246 
L 431.948003 236.062243 
L 432.430272 191.827246 
L 432.503343 236.062243 
L 433.131754 191.827246 
L 433.204825 236.062243 
L 433.657866 191.827246 
L 433.730937 236.062243 
L 434.359348 191.827246 
L 434.432419 236.062243 
L 434.841617 191.827246 
L 434.914688 236.062243 
L 435.367728 191.827246 
L 435.440799 236.062243 
L 436.06921 191.827246 
L 436.142281 236.062243 
L 436.595322 191.827246 
L 436.668393 236.062243 
L 437.048362 199.093138 
L 437.121433 236.065785 
L 437.326032 228.833542 
L 437.399103 236.062243 
L 437.808301 191.827246 
L 437.881372 236.062243 
L 438.334413 191.827246 
L 438.407484 236.062243 
L 439.035895 191.827246 
L 439.108966 236.062243 
L 439.591234 191.827246 
L 439.664306 236.062243 
L 440.292716 191.827246 
L 440.365788 236.062243 
L 440.774985 191.827246 
L 440.848056 236.062243 
L 441.301097 191.827246 
L 441.374168 236.062243 
L 442.002579 191.827246 
L 442.07565 236.062243 
L 442.52869 191.827246 
L 442.601761 236.062243 
L 443.230172 191.827246 
L 443.303243 236.062243 
L 443.712441 191.827246 
L 443.785512 236.062243 
L 444.238553 191.827246 
L 444.311624 236.062243 
L 444.486994 221.230974 
L 444.560065 236.065785 
L 444.969263 206.695706 
L 445.042334 236.062243 
L 445.495375 191.827246 
L 445.568446 236.062243 
L 446.196857 191.827246 
L 446.269928 236.062243 
L 446.679126 191.827246 
L 446.752197 236.062243 
L 447.234466 191.827246 
L 447.307537 236.062243 
L 447.935948 191.827246 
L 448.009019 236.062243 
L 448.462059 191.827246 
L 448.53513 236.062243 
L 449.163541 191.827245 
L 449.236612 236.062243 
L 449.64581 191.827245 
L 449.718881 236.062243 
L 450.171921 191.827245 
L 450.244993 236.062243 
L 450.873404 191.827245 
L 450.946475 236.062243 
L 451.399515 191.827245 
L 451.472586 236.062243 
L 451.852555 199.093082 
L 451.925627 236.065785 
L 452.130225 228.833597 
L 452.203296 236.062243 
L 452.612494 191.827245 
L 452.685565 236.062243 
L 453.138606 191.827245 
L 453.211677 236.062243 
L 453.840088 191.827245 
L 453.913159 236.062243 
L 454.395428 191.827245 
L 454.468499 236.062243 
L 455.09691 191.827245 
L 455.169981 236.062243 
L 455.579179 191.827245 
L 455.65225 236.062243 
L 456.10529 191.827245 
L 456.178361 236.062243 
L 456.806772 191.827245 
L 456.879843 236.062243 
L 457.332884 191.827245 
L 457.405955 236.062243 
L 458.034366 191.827245 
L 458.107437 236.062243 
L 458.516635 191.827245 
L 458.589706 236.062243 
L 459.042746 191.827245 
L 459.115817 236.062243 
L 459.291188 221.230923 
L 459.364259 236.065785 
L 459.773457 206.695756 
L 459.846528 236.062243 
L 460.299568 191.827245 
L 460.372639 236.062243 
L 461.00105 191.827245 
L 461.074121 236.062243 
L 461.483319 191.827245 
L 461.55639 236.062243 
L 462.038659 191.827245 
L 462.11173 236.062243 
L 462.740141 191.827245 
L 462.813212 236.062243 
L 463.266252 191.827245 
L 463.339323 236.062243 
L 463.967734 191.827245 
L 464.040805 236.062243 
L 464.450003 191.827245 
L 464.523074 236.062243 
L 464.976115 191.827245 
L 465.049186 236.062243 
L 465.677597 191.827245 
L 465.750668 236.062243 
L 466.203708 191.827245 
L 466.276779 236.062243 
L 466.656749 199.093037 
L 466.72982 236.065785 
L 466.934419 228.833642 
L 467.00749 236.062243 
L 467.416688 191.827245 
L 467.489759 236.062243 
L 467.942799 191.827245 
L 468.01587 236.062243 
L 468.644281 191.827245 
L 468.717352 236.062243 
L 469.199621 191.827245 
L 469.272692 236.062243 
L 469.901103 191.827245 
L 469.974174 236.062243 
L 470.383372 191.827245 
L 470.456443 236.062243 
L 470.909483 191.827245 
L 470.982555 236.062243 
L 471.610965 191.827245 
L 471.684037 236.062243 
L 472.137077 191.827245 
L 472.210148 236.062243 
L 472.838559 191.827245 
L 472.91163 236.062243 
L 473.320828 191.827245 
L 473.393899 236.062243 
L 473.846939 191.827245 
L 473.92001 236.062243 
L 474.548421 191.827245 
L 474.621492 236.062243 
L 475.074533 191.827245 
L 475.147604 236.062243 
L 475.776015 191.827245 
L 475.849086 236.062243 
L 476.258284 191.827245 
L 476.331355 236.062243 
L 476.813624 191.827245 
L 476.886695 236.062243 
L 477.515106 191.827245 
L 477.588177 236.062243 
L 478.041217 191.827245 
L 478.114288 236.062243 
L 478.742699 191.827245 
L 478.81577 236.062243 
L 479.224968 191.827244 
L 479.298039 236.062243 
L 479.75108 191.827244 
L 479.824151 236.062243 
L 480.452562 191.827244 
L 480.525633 236.062243 
L 480.978673 191.827244 
L 481.051744 236.062243 
L 481.680155 191.827244 
L 481.753226 236.062243 
L 482.162424 191.827244 
L 482.235495 236.062243 
L 482.688536 191.827244 
L 482.761607 236.062243 
L 483.390018 191.827244 
L 483.463089 236.062243 
L 483.945358 191.827244 
L 484.018429 236.062243 
L 484.64684 191.827244 
L 484.719911 236.062243 
L 485.129108 191.827244 
L 485.202179 236.062243 
L 485.65522 191.827244 
L 485.728291 236.062243 
L 486.356702 191.827244 
L 486.429773 236.062243 
L 486.882813 191.827244 
L 486.955884 236.062243 
L 487.584295 191.827244 
L 487.657366 236.062243 
L 488.066564 191.827244 
L 488.139635 236.062243 
L 488.592676 191.827244 
L 488.665747 236.062243 
L 489.294158 191.827244 
L 489.367229 236.062243 
L 489.820269 191.827244 
L 489.89334 236.062243 
L 490.521751 191.827244 
L 490.594822 236.062243 
L 491.00402 191.827244 
L 491.077091 236.062243 
L 491.55936 191.827244 
L 491.632431 236.062243 
L 492.260842 191.827244 
L 492.333913 236.062243 
L 492.786954 191.827244 
L 492.860025 236.062243 
L 493.488436 191.827244 
L 493.561507 236.062243 
L 493.970705 191.827244 
L 494.043776 236.062243 
L 494.496816 191.827244 
L 494.569887 236.062243 
L 495.198298 191.827244 
L 495.271369 236.062243 
L 495.72441 191.827244 
L 495.797481 236.062243 
L 496.425892 191.827244 
L 496.498963 236.062243 
L 496.908161 191.827244 
L 496.981232 236.062243 
L 497.434272 191.827244 
L 497.507343 236.062243 
L 498.135754 191.827244 
L 498.208825 236.062243 
L 498.691094 191.827244 
L 498.764165 236.062243 
L 499.392576 191.827244 
L 499.465647 236.062243 
L 499.874845 191.827244 
L 499.947916 236.062243 
L 500.400956 191.827244 
L 500.474027 236.062243 
L 501.102438 191.827244 
L 501.175509 236.062243 
L 501.62855 191.827244 
L 501.701621 236.062243 
L 502.330032 191.827244 
L 502.403103 236.062243 
L 502.812301 191.827244 
L 502.885372 236.062243 
L 503.338412 191.827244 
L 503.411483 236.062243 
L 504.039894 191.827244 
L 504.112965 236.062243 
L 504.566006 191.827244 
L 504.639077 236.062243 
L 505.267488 191.827244 
L 505.340559 236.062243 
L 505.749757 191.827244 
L 505.822828 236.062243 
L 506.305097 191.827244 
L 506.378168 236.062243 
L 507.006579 191.827244 
L 507.07965 236.062243 
L 507.53269 191.827244 
L 507.605761 236.062243 
L 508.234172 191.827244 
L 508.307243 236.062243 
L 508.716441 191.827244 
L 508.789512 236.062243 
L 509.242553 191.827244 
L 509.315624 236.062243 
L 509.944035 191.827244 
L 510.017106 236.062243 
L 510.470146 191.827244 
L 510.543217 236.062243 
L 511.171628 191.827244 
L 511.244699 236.062243 
L 511.653897 191.827244 
L 511.726968 236.062243 
L 512.180008 191.827244 
L 512.25308 236.062243 
L 512.88149 191.827244 
L 512.954562 236.062243 
L 513.43683 191.827244 
L 513.509901 236.062243 
L 514.138312 191.827244 
L 514.211383 236.062243 
L 514.620581 191.827244 
L 514.693652 236.062243 
L 515.146693 191.827244 
L 515.219764 236.062243 
L 515.848175 191.827244 
L 515.921246 236.062243 
L 516.374286 191.827244 
L 516.447357 236.062243 
L 517.075768 191.827244 
L 517.148839 236.062243 
L 517.558037 191.827244 
L 517.631108 236.062243 
L 518.084149 191.827244 
L 518.15722 236.062243 
L 518.785631 191.827244 
L 518.858702 236.062243 
L 519.311742 191.827244 
L 519.384813 236.062243 
L 520.013224 191.827244 
L 520.086295 236.062243 
L 520.495493 191.827244 
L 520.568564 236.062243 
L 521.050833 191.827244 
L 521.123904 236.062243 
L 521.752315 191.827244 
L 521.825386 236.062243 
L 522.278427 191.827244 
L 522.351498 236.062243 
L 522.979909 191.827244 
L 523.05298 236.062243 
L 523.462178 191.827244 
L 523.535249 236.062243 
L 523.988289 191.827244 
L 524.06136 236.062243 
L 524.689771 191.827244 
L 524.762842 236.062243 
L 525.215883 191.827244 
L 525.288954 236.062243 
L 525.917365 191.827244 
L 525.990436 236.062243 
L 526.399633 191.827244 
L 526.472704 236.062243 
L 526.925745 191.827244 
L 526.998816 236.062243 
L 527.627227 191.827244 
L 527.700298 236.062243 
L 528.182567 191.827244 
L 528.255638 236.062243 
L 528.884049 191.827244 
L 528.95712 236.062243 
L 529.366318 191.827244 
L 529.439389 236.062243 
L 529.892429 191.827244 
L 529.9655 236.062243 
L 530.593911 191.827244 
L 530.666982 236.062243 
L 531.120023 191.827244 
L 531.193094 236.062243 
L 531.821505 191.827244 
L 531.894576 236.062243 
L 532.303774 191.827244 
L 532.376845 236.062243 
L 532.829885 191.827244 
L 532.902956 236.062243 
L 533.531367 191.827244 
L 533.604438 236.062243 
L 534.057479 191.827244 
L 534.13055 236.062243 
L 534.758961 191.827244 
L 534.832032 236.062243 
L 535.24123 191.827244 
L 535.314301 236.062243 
L 535.79657 191.827244 
L 535.869641 236.062243 
L 536.498052 191.827244 
L 536.571123 236.062243 
L 537.024163 191.827244 
L 537.097234 236.062243 
L 537.725645 191.827244 
L 537.798716 236.062243 
L 538.207914 191.827244 
L 538.280985 236.062243 
L 538.734025 191.827244 
L 538.807097 236.062243 
L 539.435507 191.827244 
L 539.508579 236.062243 
L 539.961619 191.827244 
L 540.03469 236.062243 
L 540.663101 191.827244 
L 540.736172 236.062243 
L 541.14537 191.827244 
L 541.218441 236.062243 
L 541.671481 191.827244 
L 541.744552 236.062243 
L 542.372963 191.827244 
L 542.446034 236.062243 
L 542.928303 191.827244 
L 543.001374 236.062243 
L 543.629785 191.827244 
L 543.702856 236.062243 
L 544.112054 191.827244 
L 544.185125 236.062243 
L 544.638166 191.827244 
L 544.711237 236.062243 
L 545.339648 191.827244 
L 545.412719 236.062243 
L 545.865759 191.827244 
L 545.93883 236.062243 
L 546.567241 191.827244 
L 546.640312 236.062243 
L 547.04951 191.827244 
L 547.122581 236.062243 
L 547.575622 191.827244 
L 547.648693 236.062243 
L 548.277104 191.827244 
L 548.350175 236.062243 
L 548.803215 191.827244 
L 548.876286 236.062243 
L 549.504697 191.827244 
L 549.577768 236.062243 
L 549.986966 191.827244 
L 550.060037 236.062243 
L 550.542306 191.827244 
L 550.615377 236.062243 
L 551.243788 191.827244 
L 551.316859 236.062243 
L 551.7699 191.827244 
L 551.842971 236.062243 
L 552.471382 191.827244 
L 552.544453 236.062243 
L 552.95365 191.827244 
L 553.026721 236.062243 
L 553.479762 191.827244 
L 553.552833 236.062243 
L 554.181244 191.827244 
L 554.254315 236.062243 
L 554.707355 191.827244 
L 554.780426 236.062243 
L 555.408837 191.827244 
L 555.481908 236.062243 
L 555.891106 191.827244 
L 555.964177 236.062243 
L 556.417218 191.827244 
L 556.490289 236.062243 
L 557.1187 191.827244 
L 557.191771 236.062243 
L 557.67404 191.827244 
L 557.747111 236.062243 
L 558.375522 191.827244 
L 558.448593 236.062243 
L 558.857791 191.827244 
L 558.930862 236.062243 
L 559.383902 191.827244 
L 559.456973 236.062243 
L 560.085384 191.827244 
L 560.158455 236.062243 
L 560.611496 191.827244 
L 560.684567 236.062243 
L 561.312978 191.827243 
L 561.386049 236.062243 
L 561.795247 191.827243 
L 561.868318 236.062243 
L 562.321358 191.827243 
L 562.394429 236.062243 
L 563.02284 191.827243 
L 563.095911 236.062243 
L 563.548952 191.827243 
L 563.622023 236.062243 
L 564.250434 191.827243 
L 564.323505 236.062243 
L 564.732703 191.827243 
L 564.805774 236.062243 
L 565.288042 191.827243 
L 565.361113 236.062243 
L 565.989524 191.827243 
L 566.062596 236.062243 
L 566.515636 191.827243 
L 566.588707 236.062243 
L 567.217118 191.827243 
L 567.290189 236.062243 
L 567.699387 191.827243 
L 567.772458 236.062243 
L 568.225498 191.827243 
L 568.298569 236.062243 
L 568.92698 191.827243 
L 569.000051 236.062243 
L 569.453092 191.827243 
L 569.526163 236.062243 
L 570.154574 191.827243 
L 570.227645 236.062243 
L 570.636843 191.827243 
L 570.709914 236.062243 
L 571.162954 191.827243 
L 571.236025 236.062243 
L 571.864436 191.827243 
L 571.937507 236.062243 
L 572.419776 191.827243 
L 572.492847 236.062243 
L 573.121258 191.827243 
L 573.194329 236.062243 
L 573.603527 191.827243 
L 573.676598 236.062243 
L 574.129639 191.827243 
L 574.20271 236.062243 
L 574.831121 191.827243 
L 574.904192 236.062243 
L 575.357232 191.827243 
L 575.430303 236.062243 
L 576.058714 191.827243 
L 576.131785 236.062243 
L 576.540983 191.827243 
L 576.614054 236.062243 
L 577.067095 191.827243 
L 577.140166 236.062243 
L 577.768577 191.827243 
L 577.841648 236.062243 
L 578.294688 191.827243 
L 578.367759 236.062243 
L 578.99617 191.827243 
L 579.069241 236.062243 
L 579.478439 191.827243 
L 579.55151 236.062243 
L 580.033779 191.827243 
L 580.10685 236.062243 
L 580.735261 191.827243 
L 580.808332 236.062243 
L 581.261372 191.827243 
L 581.334443 236.062243 
L 581.962854 191.827243 
L 582.035925 236.062243 
L 582.445123 191.827243 
L 582.518194 236.062243 
L 582.971235 191.827243 
L 583.044306 236.062243 
L 583.672717 191.827243 
L 583.745788 236.062243 
L 584.198828 191.827243 
L 584.271899 236.062243 
L 584.90031 191.827243 
L 584.973381 236.062243 
L 585.382579 191.827243 
L 585.45565 236.062243 
L 585.908691 191.827243 
L 585.981762 236.062243 
L 586.610173 191.827243 
L 586.683244 236.062243 
L 587.165513 191.827243 
L 587.238584 236.062243 
L 587.866995 191.827243 
L 587.940066 236.062243 
L 588.349264 191.827243 
L 588.422335 236.062243 
L 588.875375 191.827243 
L 588.948446 236.062243 
L 589.576857 191.827243 
L 589.649928 236.062243 
L 590.102969 191.827243 
L 590.17604 236.062243 
L 590.804451 191.827243 
L 590.877522 236.062243 
L 591.28672 191.827243 
L 591.359791 236.062243 
L 591.812831 191.827243 
L 591.885902 236.062243 
L 592.514313 191.827243 
L 592.587384 236.062243 
L 593.040425 191.827243 
L 593.113496 236.062243 
L 593.741907 191.827243 
L 593.814978 236.062243 
L 594.224175 191.827243 
L 594.297246 236.062243 
L 594.779515 191.827243 
L 594.852586 236.062243 
L 595.480997 191.827243 
L 595.554068 236.062243 
L 596.007109 191.827243 
L 596.08018 236.062243 
L 596.708591 191.827243 
L 596.781662 236.062243 
L 597.19086 191.827243 
L 597.263931 236.062243 
L 597.716971 191.827243 
L 597.790042 236.062243 
L 598.418453 191.827243 
L 598.491524 236.062243 
L 598.944565 191.827243 
L 599.017636 236.062243 
L 599.646047 191.827243 
L 599.719118 236.062243 
L 600.128316 191.827243 
L 600.201387 236.062243 
L 600.654427 191.827243 
L 600.727498 236.062243 
L 601.355909 191.827243 
L 601.42898 236.062243 
L 601.911249 191.827243 
L 601.98432 236.062243 
L 602.612731 191.827243 
L 602.685802 236.062243 
L 603.095 191.827243 
L 603.168071 236.062243 
L 603.621112 191.827243 
L 603.694183 236.062243 
L 604.322594 191.827243 
L 604.395665 236.062243 
L 604.848705 191.827243 
L 604.921776 236.062243 
L 605.550187 191.827243 
L 605.623258 236.062243 
L 606.032456 191.827243 
L 606.105527 236.062243 
L 606.558567 191.827243 
L 606.631639 236.062243 
L 607.260049 191.827243 
L 607.333121 236.062243 
L 607.786161 191.827243 
L 607.859232 236.062243 
L 608.487643 191.827243 
L 608.560714 236.062243 
L 610.913602 36.841818 
L 611.001287 236.065785 
L 612.740378 125.410106 
L 612.871906 236.065785 
L 613.763372 154.871291 
L 613.836443 236.062243 
L 614.260255 206.641791 
L 614.347941 236.065785 
L 614.508697 235.820884 
L 614.669453 236.078182 
L 614.771753 236.067556 
L 614.976352 221.586463 
L 615.049423 236.062243 
L 615.677834 191.827246 
L 615.750905 236.062243 
L 616.218559 191.827246 
L 616.29163 236.062243 
L 617.387696 162.366055 
L 617.475381 236.065785 
L 619.243701 125.410106 
L 619.375228 236.065785 
L 620.295924 169.685837 
L 620.383609 236.064014 
L 620.617436 236.067556 
L 620.73435 235.909934 
L 620.90972 236.078182 
L 621.01202 236.067556 
L 621.114319 235.865658 
L 621.202004 236.064014 
L 621.888872 236.067556 
L 621.991172 235.794817 
L 622.078857 236.064014 
L 622.312684 236.067556 
L 622.429598 235.812527 
L 622.604968 236.078182 
L 622.707268 236.067556 
L 623.043395 222.529593 
L 623.116466 236.062243 
L 623.525664 191.827246 
L 623.598735 236.062243 
L 624.051775 191.827246 
L 624.124846 236.062243 
L 624.753257 191.827246 
L 624.826328 236.062243 
L 625.279369 191.827246 
L 625.35244 236.062243 
L 625.980851 191.827246 
L 626.053922 236.062243 
L 626.46312 191.827246 
L 626.536191 236.062243 
L 626.989231 191.827246 
L 627.062302 236.062243 
L 627.690713 191.827246 
L 627.763784 236.062243 
L 628.246053 191.827246 
L 628.319124 236.062243 
L 628.947535 191.827246 
L 629.020606 236.062243 
L 629.429804 191.827246 
L 629.502875 236.062243 
L 629.955915 191.827246 
L 630.028986 236.062243 
L 630.657397 191.827246 
L 630.730468 236.062243 
L 631.183509 191.827246 
L 631.25658 236.062243 
L 631.884991 191.827246 
L 631.958062 236.062243 
L 632.36726 191.827246 
L 632.440331 236.062243 
L 632.893371 191.827246 
L 632.966442 236.062243 
L 633.594853 191.827246 
L 633.667924 236.062243 
L 634.120965 191.827246 
L 634.194036 236.062243 
L 634.822447 191.827246 
L 634.895518 236.062243 
L 635.304716 191.827246 
L 635.377787 236.062243 
L 635.860056 191.827246 
L 635.933127 236.062243 
L 636.561538 191.827246 
L 636.634609 236.062243 
L 637.087649 191.827246 
L 637.16072 236.062243 
L 637.789131 191.827246 
L 637.862202 236.062243 
L 638.2714 191.827246 
L 638.344471 236.062243 
L 638.797512 191.827246 
L 638.870583 236.062243 
L 639.498994 191.827246 
L 639.572065 236.062243 
L 640.025105 191.827246 
L 640.098176 236.062243 
L 640.726587 191.827246 
L 640.799658 236.062243 
L 641.208856 191.827246 
L 641.281927 236.062243 
L 641.734968 191.827246 
L 641.808039 236.062243 
L 642.43645 191.827246 
L 642.509521 236.062243 
L 642.991789 191.827246 
L 643.064861 236.062243 
L 643.693271 191.827246 
L 643.766343 236.062243 
L 644.17554 191.827246 
L 644.248611 236.062243 
L 644.701652 191.827246 
L 644.774723 236.062243 
L 645.403134 191.827246 
L 645.476205 236.062243 
L 645.929245 191.827246 
L 646.002316 236.062243 
L 646.630727 191.827246 
L 646.703798 236.062243 
L 647.112996 191.827246 
L 647.186067 236.062243 
L 647.639108 191.827246 
L 647.712179 236.062243 
L 648.34059 191.827246 
L 648.413661 236.062243 
L 648.866701 191.827246 
L 648.939772 236.062243 
L 649.568183 191.827246 
L 649.641254 236.062243 
L 650.050452 191.827246 
L 650.123523 236.062243 
L 650.605792 191.827246 
L 650.678863 236.062243 
L 651.307274 191.827246 
L 651.380345 236.062243 
L 651.833386 191.827246 
L 651.906457 236.062243 
L 652.534868 191.827246 
L 652.607939 236.062243 
L 653.017137 191.827246 
L 653.090208 236.062243 
L 653.543248 191.827246 
L 653.616319 236.062243 
L 654.24473 191.827246 
L 654.317801 236.062243 
L 654.770842 191.827246 
L 654.843913 236.062243 
L 655.472324 191.827246 
L 655.545395 236.062243 
L 655.954592 191.827246 
L 656.027664 236.062243 
L 656.480704 191.827246 
L 656.553775 236.062243 
L 657.182186 191.827246 
L 657.255257 236.062243 
L 657.737526 191.827246 
L 657.810597 236.062243 
L 658.439008 191.827246 
L 658.512079 236.062243 
L 658.921277 191.827246 
L 658.994348 236.062243 
L 659.447388 191.827246 
L 659.520459 236.062243 
L 660.14887 191.827246 
L 660.221941 236.062243 
L 660.674982 191.827246 
L 660.748053 236.062243 
L 661.376464 191.827246 
L 661.449535 236.062243 
L 661.858733 191.827246 
L 661.931804 236.062243 
L 662.384844 191.827246 
L 662.457915 236.062243 
L 663.086326 191.827246 
L 663.159397 236.062243 
L 663.612438 191.827246 
L 663.685509 236.062243 
L 664.31392 191.827246 
L 664.386991 236.062243 
L 664.796189 191.827246 
L 664.86926 236.062243 
L 665.351529 191.827246 
L 665.4246 236.062243 
L 666.053011 191.827246 
L 666.126082 236.062243 
L 666.579122 191.827246 
L 666.652193 236.062243 
L 667.280604 191.827246 
L 667.353675 236.062243 
L 667.762873 191.827246 
L 667.835944 236.062243 
L 668.288985 191.827246 
L 668.362056 236.062243 
L 668.990467 191.827246 
L 669.063538 236.062243 
L 669.516578 191.827246 
L 669.589649 236.062243 
L 670.21806 191.827246 
L 670.291131 236.062243 
L 670.700329 191.827246 
L 670.7734 236.062243 
L 671.22644 191.827246 
L 671.299511 236.062243 
L 671.927922 191.827246 
L 672.000993 236.062243 
L 672.483262 191.827246 
L 672.556333 236.062243 
L 673.184744 191.827246 
L 673.257815 236.062243 
L 673.667013 191.827246 
L 673.740084 236.062243 
L 674.193125 191.827246 
L 674.266196 236.062243 
L 674.894607 191.827246 
L 674.967678 236.062243 
L 675.420718 191.827246 
L 675.493789 236.062243 
L 676.1222 191.827246 
L 676.195271 236.062243 
L 676.604469 191.827246 
L 676.67754 236.062243 
L 677.130581 191.827246 
L 677.203652 236.062243 
L 677.832063 191.827246 
L 677.905134 236.062243 
L 678.358174 191.827246 
L 678.431245 236.062243 
L 679.059656 191.827246 
L 679.132727 236.062243 
L 679.132727 236.062243 
" clip-path="url(#p8875a238b1)" style="fill: none; stroke: #1f77b4; stroke-width: 1.5; stroke-linecap: square"/>
   </g>
   <g id="patch_3">
    <path d="M 47.72 246.04 
L 47.72 26.88 
" style="fill: none; stroke: #000000; stroke-width: 0.8; stroke-linejoin: miter; stroke-linecap: square"/>
   </g>
   <g id="patch_4">
    <path d="M 709.2 246.04 
L 709.2 26.88 
" style="fill: none; stroke: #000000; stroke-width: 0.8; stroke-linejoin: miter; stroke-linecap: square"/>
   </g>
   <g id="patch_5">
    <path d="M 47.72 246.04 
L 709.2 246.04 
" style="fill: none; stroke: #000000; stroke-width: 0.8; stroke-linejoin: miter; stroke-linecap: square"/>
   </g>
   <g id="patch_6">
    <path d="M 47.72 26.88 
L 709.2 26.88 
" style="fill: none; stroke: #000000; stroke-width: 0.8; stroke-linejoin: miter; stroke-linecap: square"/>
   </g>
   <g id="text_13">
    <!-- receptionState:vector (HandoverShowcase.host1.wlan[0].radio) -->
    <g transform="translate(187.121875 20.88) scale(0.12 -0.12)">
     <defs>
      <path id="DejaVuSans-72" d="M 2631 2963 
Q 2534 3019 2420 3045 
Q 2306 3072 2169 3072 
Q 1681 3072 1420 2755 
Q 1159 2438 1159 1844 
L 1159 0 
L 581 0 
L 581 3500 
L 1159 3500 
L 1159 2956 
Q 1341 3275 1631 3429 
Q 1922 3584 2338 3584 
Q 2397 3584 2469 3576 
Q 2541 3569 2628 3553 
L 2631 2963 
z
" transform="scale(0.015625)"/>
      <path id="DejaVuSans-63" d="M 3122 3366 
L 3122 2828 
Q 2878 2963 2633 3030 
Q 2388 3097 2138 3097 
Q 1578 3097 1268 2742 
Q 959 2388 959 1747 
Q 959 1106 1268 751 
Q 1578 397 2138 397 
Q 2388 397 2633 464 
Q 2878 531 3122 666 
L 3122 134 
Q 2881 22 2623 -34 
Q 2366 -91 2075 -91 
Q 1284 -91 818 406 
Q 353 903 353 1747 
Q 353 2603 823 3093 
Q 1294 3584 2113 3584 
Q 2378 3584 2631 3529 
Q 2884 3475 3122 3366 
z
" transform="scale(0.015625)"/>
      <path id="DejaVuSans-70" d="M 1159 525 
L 1159 -1331 
L 581 -1331 
L 581 3500 
L 1159 3500 
L 1159 2969 
Q 1341 3281 1617 3432 
Q 1894 3584 2278 3584 
Q 2916 3584 3314 3078 
Q 3713 2572 3713 1747 
Q 3713 922 3314 415 
Q 2916 -91 2278 -91 
Q 1894 -91 1617 61 
Q 1341 213 1159 525 
z
M 3116 1747 
Q 3116 2381 2855 2742 
Q 2594 3103 2138 3103 
Q 1681 3103 1420 2742 
Q 1159 2381 1159 1747 
Q 1159 1113 1420 752 
Q 1681 391 2138 391 
Q 2594 391 2855 752 
Q 3116 1113 3116 1747 
z
" transform="scale(0.015625)"/>
      <path id="DejaVuSans-6f" d="M 1959 3097 
Q 1497 3097 1228 2736 
Q 959 2375 959 1747 
Q 959 1119 1226 758 
Q 1494 397 1959 397 
Q 2419 397 2687 759 
Q 2956 1122 2956 1747 
Q 2956 2369 2687 2733 
Q 2419 3097 1959 3097 
z
M 1959 3584 
Q 2709 3584 3137 3096 
Q 3566 2609 3566 1747 
Q 3566 888 3137 398 
Q 2709 -91 1959 -91 
Q 1206 -91 779 398 
Q 353 888 353 1747 
Q 353 2609 779 3096 
Q 1206 3584 1959 3584 
z
" transform="scale(0.015625)"/>
      <path id="DejaVuSans-6e" d="M 3513 2113 
L 3513 0 
L 2938 0 
L 2938 2094 
Q 2938 2591 2744 2837 
Q 2550 3084 2163 3084 
Q 1697 3084 1428 2787 
Q 1159 2491 1159 1978 
L 1159 0 
L 581 0 
L 581 3500 
L 1159 3500 
L 1159 2956 
Q 1366 3272 1645 3428 
Q 1925 3584 2291 3584 
Q 2894 3584 3203 3211 
Q 3513 2838 3513 2113 
z
" transform="scale(0.015625)"/>
      <path id="DejaVuSans-53" d="M 3425 4513 
L 3425 3897 
Q 3066 4069 2747 4153 
Q 2428 4238 2131 4238 
Q 1616 4238 1336 4038 
Q 1056 3838 1056 3469 
Q 1056 3159 1242 3001 
Q 1428 2844 1947 2747 
L 2328 2669 
Q 3034 2534 3370 2195 
Q 3706 1856 3706 1288 
Q 3706 609 3251 259 
Q 2797 -91 1919 -91 
Q 1588 -91 1214 -16 
Q 841 59 441 206 
L 441 856 
Q 825 641 1194 531 
Q 1563 422 1919 422 
Q 2459 422 2753 634 
Q 3047 847 3047 1241 
Q 3047 1584 2836 1778 
Q 2625 1972 2144 2069 
L 1759 2144 
Q 1053 2284 737 2584 
Q 422 2884 422 3419 
Q 422 4038 858 4394 
Q 1294 4750 2059 4750 
Q 2388 4750 2728 4690 
Q 3069 4631 3425 4513 
z
" transform="scale(0.015625)"/>
      <path id="DejaVuSans-3a" d="M 750 794 
L 1409 794 
L 1409 0 
L 750 0 
L 750 794 
z
M 750 3309 
L 1409 3309 
L 1409 2516 
L 750 2516 
L 750 3309 
z
" transform="scale(0.015625)"/>
      <path id="DejaVuSans-76" d="M 191 3500 
L 800 3500 
L 1894 563 
L 2988 3500 
L 3597 3500 
L 2284 0 
L 1503 0 
L 191 3500 
z
" transform="scale(0.015625)"/>
      <path id="DejaVuSans-48" d="M 628 4666 
L 1259 4666 
L 1259 2753 
L 3553 2753 
L 3553 4666 
L 4184 4666 
L 4184 0 
L 3553 0 
L 3553 2222 
L 1259 2222 
L 1259 0 
L 628 0 
L 628 4666 
z
" transform="scale(0.015625)"/>
      <path id="DejaVuSans-64" d="M 2906 2969 
L 2906 4863 
L 3481 4863 
L 3481 0 
L 2906 0 
L 2906 525 
Q 2725 213 2448 61 
Q 2172 -91 1784 -91 
Q 1150 -91 751 415 
Q 353 922 353 1747 
Q 353 2572 751 3078 
Q 1150 3584 1784 3584 
Q 2172 3584 2448 3432 
Q 2725 3281 2906 2969 
z
M 947 1747 
Q 947 1113 1208 752 
Q 1469 391 1925 391 
Q 2381 391 2643 752 
Q 2906 1113 2906 1747 
Q 2906 2381 2643 2742 
Q 2381 3103 1925 3103 
Q 1469 3103 1208 2742 
Q 947 2381 947 1747 
z
" transform="scale(0.015625)"/>
      <path id="DejaVuSans-68" d="M 3513 2113 
L 3513 0 
L 2938 0 
L 2938 2094 
Q 2938 2591 2744 2837 
Q 2550 3084 2163 3084 
Q 1697 3084 1428 2787 
Q 1159 2491 1159 1978 
L 1159 0 
L 581 0 
L 581 4863 
L 1159 4863 
L 1159 2956 
Q 1366 3272 1645 3428 
Q 1925 3584 2291 3584 
Q 2894 3584 3203 3211 
Q 3513 2838 3513 2113 
z
" transform="scale(0.015625)"/>
      <path id="DejaVuSans-77" d="M 269 3500 
L 844 3500 
L 1563 769 
L 2278 3500 
L 2956 3500 
L 3675 769 
L 4391 3500 
L 4966 3500 
L 4050 0 
L 3372 0 
L 2619 2869 
L 1863 0 
L 1184 0 
L 269 3500 
z
" transform="scale(0.015625)"/>
      <path id="DejaVuSans-5b" d="M 550 4863 
L 1875 4863 
L 1875 4416 
L 1125 4416 
L 1125 -397 
L 1875 -397 
L 1875 -844 
L 550 -844 
L 550 4863 
z
" transform="scale(0.015625)"/>
      <path id="DejaVuSans-5d" d="M 1947 4863 
L 1947 -844 
L 622 -844 
L 622 -397 
L 1369 -397 
L 1369 4416 
L 622 4416 
L 622 4863 
L 1947 4863 
z
" transform="scale(0.015625)"/>
     </defs>
     <use xlink:href="#DejaVuSans-72"/>
     <use xlink:href="#DejaVuSans-65" x="38.863281"/>
     <use xlink:href="#DejaVuSans-63" x="100.386719"/>
     <use xlink:href="#DejaVuSans-65" x="155.367188"/>
     <use xlink:href="#DejaVuSans-70" x="216.890625"/>
     <use xlink:href="#DejaVuSans-74" x="280.367188"/>
     <use xlink:href="#DejaVuSans-69" x="319.576172"/>
     <use xlink:href="#DejaVuSans-6f" x="347.359375"/>
     <use xlink:href="#DejaVuSans-6e" x="408.541016"/>
     <use xlink:href="#DejaVuSans-53" x="471.919922"/>
     <use xlink:href="#DejaVuSans-74" x="535.396484"/>
     <use xlink:href="#DejaVuSans-61" x="574.605469"/>
     <use xlink:href="#DejaVuSans-74" x="635.884766"/>
     <use xlink:href="#DejaVuSans-65" x="675.09375"/>
     <use xlink:href="#DejaVuSans-3a" x="736.617188"/>
     <use xlink:href="#DejaVuSans-76" x="770.308594"/>
     <use xlink:href="#DejaVuSans-65" x="829.488281"/>
     <use xlink:href="#DejaVuSans-63" x="891.011719"/>
     <use xlink:href="#DejaVuSans-74" x="945.992188"/>
     <use xlink:href="#DejaVuSans-6f" x="985.201172"/>
     <use xlink:href="#DejaVuSans-72" x="1046.382812"/>
     <use xlink:href="#DejaVuSans-20" x="1087.496094"/>
     <use xlink:href="#DejaVuSans-28" x="1119.283203"/>
     <use xlink:href="#DejaVuSans-48" x="1158.296875"/>
     <use xlink:href="#DejaVuSans-61" x="1233.492188"/>
     <use xlink:href="#DejaVuSans-6e" x="1294.771484"/>
     <use xlink:href="#DejaVuSans-64" x="1358.150391"/>
     <use xlink:href="#DejaVuSans-6f" x="1421.626953"/>
     <use xlink:href="#DejaVuSans-76" x="1482.808594"/>
     <use xlink:href="#DejaVuSans-65" x="1541.988281"/>
     <use xlink:href="#DejaVuSans-72" x="1603.511719"/>
     <use xlink:href="#DejaVuSans-53" x="1644.625"/>
     <use xlink:href="#DejaVuSans-68" x="1708.101562"/>
     <use xlink:href="#DejaVuSans-6f" x="1771.480469"/>
     <use xlink:href="#DejaVuSans-77" x="1832.662109"/>
     <use xlink:href="#DejaVuSans-63" x="1914.449219"/>
     <use xlink:href="#DejaVuSans-61" x="1969.429688"/>
     <use xlink:href="#DejaVuSans-73" x="2030.708984"/>
     <use xlink:href="#DejaVuSans-65" x="2082.808594"/>
     <use xlink:href="#DejaVuSans-2e" x="2144.332031"/>
     <use xlink:href="#DejaVuSans-68" x="2176.119141"/>
     <use xlink:href="#DejaVuSans-6f" x="2239.498047"/>
     <use xlink:href="#DejaVuSans-73" x="2300.679688"/>
     <use xlink:href="#DejaVuSans-74" x="2352.779297"/>
     <use xlink:href="#DejaVuSans-31" x="2391.988281"/>
     <use xlink:href="#DejaVuSans-2e" x="2455.611328"/>
     <use xlink:href="#DejaVuSans-77" x="2487.398438"/>
     <use xlink:href="#DejaVuSans-6c" x="2569.185547"/>
     <use xlink:href="#DejaVuSans-61" x="2596.96875"/>
     <use xlink:href="#DejaVuSans-6e" x="2658.248047"/>
     <use xlink:href="#DejaVuSans-5b" x="2721.626953"/>
     <use xlink:href="#DejaVuSans-30" x="2760.640625"/>
     <use xlink:href="#DejaVuSans-5d" x="2824.263672"/>
     <use xlink:href="#DejaVuSans-2e" x="2863.277344"/>
     <use xlink:href="#DejaVuSans-72" x="2895.064453"/>
     <use xlink:href="#DejaVuSans-61" x="2936.177734"/>
     <use xlink:href="#DejaVuSans-64" x="2997.457031"/>
     <use xlink:href="#DejaVuSans-69" x="3060.933594"/>
     <use xlink:href="#DejaVuSans-6f" x="3088.716797"/>
     <use xlink:href="#DejaVuSans-29" x="3149.898438"/>
    </g>
   </g>
   <g id="legend_1">
    <g id="patch_7">
     <path d="M 54.72 49.558125 
L 180.202813 49.558125 
Q 182.202813 49.558125 182.202813 47.558125 
L 182.202813 33.88 
Q 182.202813 31.88 180.202813 31.88 
L 54.72 31.88 
Q 52.72 31.88 52.72 33.88 
L 52.72 47.558125 
Q 52.72 49.558125 54.72 49.558125 
z
" style="fill: #ffffff; opacity: 0.8; stroke: #cccccc; stroke-linejoin: miter"/>
    </g>
    <g id="line2d_22">
     <path d="M 56.72 39.978437 
L 66.72 39.978437 
L 76.72 39.978437 
" style="fill: none; stroke: #1f77b4; stroke-width: 1.5; stroke-linecap: square"/>
    </g>
    <g id="text_14">
     <!-- value per sample -->
     <g transform="translate(84.72 43.478437) scale(0.1 -0.1)">
      <defs>
       <path id="DejaVuSans-394" d="M 2188 4044 
L 906 525 
L 3472 525 
L 2188 4044 
z
M 50 0 
L 1831 4666 
L 2547 4666 
L 4325 0 
L 50 0 
z
" transform="scale(0.015625)"/>
      </defs>
      <use xlink:href="#DejaVuSans-394"/>
      <use xlink:href="#DejaVuSans-76" x="68.408203"/>
      <use xlink:href="#DejaVuSans-61" x="127.587891"/>
      <use xlink:href="#DejaVuSans-6c" x="188.867188"/>
      <use xlink:href="#DejaVuSans-75" x="216.650391"/>
      <use xlink:href="#DejaVuSans-65" x="280.029297"/>
      <use xlink:href="#DejaVuSans-20" x="341.552734"/>
      <use xlink:href="#DejaVuSans-70" x="373.339844"/>
      <use xlink:href="#DejaVuSans-65" x="436.816406"/>
      <use xlink:href="#DejaVuSans-72" x="498.339844"/>
      <use xlink:href="#DejaVuSans-20" x="539.453125"/>
      <use xlink:href="#DejaVuSans-73" x="571.240234"/>
      <use xlink:href="#DejaVuSans-61" x="623.339844"/>
      <use xlink:href="#DejaVuSans-6d" x="684.619141"/>
      <use xlink:href="#DejaVuSans-70" x="782.03125"/>
      <use xlink:href="#DejaVuSans-6c" x="845.507812"/>
      <use xlink:href="#DejaVuSans-65" x="873.291016"/>
     </g>
    </g>
   </g>
  </g>
 </g>
 <defs>
  <clipPath id="p8875a238b1">
   <rect x="47.72" y="26.88" width="661.48" height="219.16"/>
  </clipPath>
 </defs>
</svg>
