<?xml version="1.0" encoding="utf-8" standalone="no"?>
<!DOCTYPE svg PUBLIC "-//W3C//DTD SVG 1.1//EN"
  "http://www.w3.org/Graphics/SVG/1.1/DTD/svg11.dtd">
<svg xmlns:xlink="http://www.w3.org/1999/xlink" width="720pt" height="288pt" viewBox="0 0 720 288" xmlns="http://www.w3.org/2000/svg" version="1.1">
 <metadata>
  <rdf:RDF xmlns:dc="http://purl.org/dc/elements/1.1/" xmlns:cc="http://creativecommons.org/ns#" xmlns:rdf="http://www.w3.org/1999/02/22-rdf-syntax-ns#">
   <cc:Work>
    <dc:type rdf:resource="http://purl.org/dc/dcmitype/StillImage"/>
    <dc:date>2025-07-27T15:08:42.953999</dc:date>
    <dc:format>image/svg+xml</dc:format>
    <dc:creator>
     <cc:Agent>
      <dc:title>Matplotlib v3.9.2, https://matplotlib.org/</dc:title>
     </cc:Agent>
    </dc:creator>
   </cc:Work>
  </rdf:RDF>
 </metadata>
 <defs>
  <style type="text/css">*{stroke-linejoin: round; stroke-linecap: butt}</style>
 </defs>
 <g id="figure_1">
  <g id="patch_1">
   <path d="M 0 288 
L 720 288 
L 720 0 
L 0 0 
z
" style="fill: #ffffff"/>
  </g>
  <g id="axes_1">
   <g id="patch_2">
    <path d="M 54.02 246.04 
L 709.2 246.04 
L 709.2 26.88 
L 54.02 26.88 
z
" style="fill: #ffffff"/>
   </g>
   <g id="matplotlib.axis_1">
    <g id="xtick_1">
     <g id="line2d_1">
      <path d="M 83.800909 246.04 
L 83.800909 26.88 
" clip-path="url(#p9b7e3b616c)" style="fill: none; stroke: #b0b0b0; stroke-width: 0.8; stroke-linecap: square"/>
     </g>
     <g id="line2d_2">
      <defs>
       <path id="m9e5f03c2e0" d="M 0 0 
L 0 3.5 
" style="stroke: #000000; stroke-width: 0.8"/>
      </defs>
      <g>
       <use xlink:href="#m9e5f03c2e0" x="83.800909" y="246.04" style="stroke: #000000; stroke-width: 0.8"/>
      </g>
     </g>
     <g id="text_1">
      <!-- 0 -->
      <g transform="translate(80.619659 260.638438) scale(0.1 -0.1)">
       <defs>
        <path id="DejaVuSans-30" d="M 2034 4250 
Q 1547 4250 1301 3770 
Q 1056 3291 1056 2328 
Q 1056 1369 1301 889 
Q 1547 409 2034 409 
Q 2525 409 2770 889 
Q 3016 1369 3016 2328 
Q 3016 3291 2770 3770 
Q 2525 4250 2034 4250 
z
M 2034 4750 
Q 2819 4750 3233 4129 
Q 3647 3509 3647 2328 
Q 3647 1150 3233 529 
Q 2819 -91 2034 -91 
Q 1250 -91 836 529 
Q 422 1150 422 2328 
Q 422 3509 836 4129 
Q 1250 4750 2034 4750 
z
" transform="scale(0.015625)"/>
       </defs>
       <use xlink:href="#DejaVuSans-30"/>
      </g>
     </g>
    </g>
    <g id="xtick_2">
     <g id="line2d_3">
      <path d="M 228.266742 246.04 
L 228.266742 26.88 
" clip-path="url(#p9b7e3b616c)" style="fill: none; stroke: #b0b0b0; stroke-width: 0.8; stroke-linecap: square"/>
     </g>
     <g id="line2d_4">
      <g>
       <use xlink:href="#m9e5f03c2e0" x="228.266742" y="246.04" style="stroke: #000000; stroke-width: 0.8"/>
      </g>
     </g>
     <g id="text_2">
      <!-- 10000 -->
      <g transform="translate(212.360492 260.638438) scale(0.1 -0.1)">
       <defs>
        <path id="DejaVuSans-31" d="M 794 531 
L 1825 531 
L 1825 4091 
L 703 3866 
L 703 4441 
L 1819 4666 
L 2450 4666 
L 2450 531 
L 3481 531 
L 3481 0 
L 794 0 
L 794 531 
z
" transform="scale(0.015625)"/>
       </defs>
       <use xlink:href="#DejaVuSans-31"/>
       <use xlink:href="#DejaVuSans-30" x="63.623047"/>
       <use xlink:href="#DejaVuSans-30" x="127.246094"/>
       <use xlink:href="#DejaVuSans-30" x="190.869141"/>
       <use xlink:href="#DejaVuSans-30" x="254.492188"/>
      </g>
     </g>
    </g>
    <g id="xtick_3">
     <g id="line2d_5">
      <path d="M 372.732575 246.04 
L 372.732575 26.88 
" clip-path="url(#p9b7e3b616c)" style="fill: none; stroke: #b0b0b0; stroke-width: 0.8; stroke-linecap: square"/>
     </g>
     <g id="line2d_6">
      <g>
       <use xlink:href="#m9e5f03c2e0" x="372.732575" y="246.04" style="stroke: #000000; stroke-width: 0.8"/>
      </g>
     </g>
     <g id="text_3">
      <!-- 20000 -->
      <g transform="translate(356.826325 260.638438) scale(0.1 -0.1)">
       <defs>
        <path id="DejaVuSans-32" d="M 1228 531 
L 3431 531 
L 3431 0 
L 469 0 
L 469 531 
Q 828 903 1448 1529 
Q 2069 2156 2228 2338 
Q 2531 2678 2651 2914 
Q 2772 3150 2772 3378 
Q 2772 3750 2511 3984 
Q 2250 4219 1831 4219 
Q 1534 4219 1204 4116 
Q 875 4013 500 3803 
L 500 4441 
Q 881 4594 1212 4672 
Q 1544 4750 1819 4750 
Q 2544 4750 2975 4387 
Q 3406 4025 3406 3419 
Q 3406 3131 3298 2873 
Q 3191 2616 2906 2266 
Q 2828 2175 2409 1742 
Q 1991 1309 1228 531 
z
" transform="scale(0.015625)"/>
       </defs>
       <use xlink:href="#DejaVuSans-32"/>
       <use xlink:href="#DejaVuSans-30" x="63.623047"/>
       <use xlink:href="#DejaVuSans-30" x="127.246094"/>
       <use xlink:href="#DejaVuSans-30" x="190.869141"/>
       <use xlink:href="#DejaVuSans-30" x="254.492188"/>
      </g>
     </g>
    </g>
    <g id="xtick_4">
     <g id="line2d_7">
      <path d="M 517.198407 246.04 
L 517.198407 26.88 
" clip-path="url(#p9b7e3b616c)" style="fill: none; stroke: #b0b0b0; stroke-width: 0.8; stroke-linecap: square"/>
     </g>
     <g id="line2d_8">
      <g>
       <use xlink:href="#m9e5f03c2e0" x="517.198407" y="246.04" style="stroke: #000000; stroke-width: 0.8"/>
      </g>
     </g>
     <g id="text_4">
      <!-- 30000 -->
      <g transform="translate(501.292157 260.638438) scale(0.1 -0.1)">
       <defs>
        <path id="DejaVuSans-33" d="M 2597 2516 
Q 3050 2419 3304 2112 
Q 3559 1806 3559 1356 
Q 3559 666 3084 287 
Q 2609 -91 1734 -91 
Q 1441 -91 1130 -33 
Q 819 25 488 141 
L 488 750 
Q 750 597 1062 519 
Q 1375 441 1716 441 
Q 2309 441 2620 675 
Q 2931 909 2931 1356 
Q 2931 1769 2642 2001 
Q 2353 2234 1838 2234 
L 1294 2234 
L 1294 2753 
L 1863 2753 
Q 2328 2753 2575 2939 
Q 2822 3125 2822 3475 
Q 2822 3834 2567 4026 
Q 2313 4219 1838 4219 
Q 1578 4219 1281 4162 
Q 984 4106 628 3988 
L 628 4550 
Q 988 4650 1302 4700 
Q 1616 4750 1894 4750 
Q 2613 4750 3031 4423 
Q 3450 4097 3450 3541 
Q 3450 3153 3228 2886 
Q 3006 2619 2597 2516 
z
" transform="scale(0.015625)"/>
       </defs>
       <use xlink:href="#DejaVuSans-33"/>
       <use xlink:href="#DejaVuSans-30" x="63.623047"/>
       <use xlink:href="#DejaVuSans-30" x="127.246094"/>
       <use xlink:href="#DejaVuSans-30" x="190.869141"/>
       <use xlink:href="#DejaVuSans-30" x="254.492188"/>
      </g>
     </g>
    </g>
    <g id="xtick_5">
     <g id="line2d_9">
      <path d="M 661.66424 246.04 
L 661.66424 26.88 
" clip-path="url(#p9b7e3b616c)" style="fill: none; stroke: #b0b0b0; stroke-width: 0.8; stroke-linecap: square"/>
     </g>
     <g id="line2d_10">
      <g>
       <use xlink:href="#m9e5f03c2e0" x="661.66424" y="246.04" style="stroke: #000000; stroke-width: 0.8"/>
      </g>
     </g>
     <g id="text_5">
      <!-- 40000 -->
      <g transform="translate(645.75799 260.638438) scale(0.1 -0.1)">
       <defs>
        <path id="DejaVuSans-34" d="M 2419 4116 
L 825 1625 
L 2419 1625 
L 2419 4116 
z
M 2253 4666 
L 3047 4666 
L 3047 1625 
L 3713 1625 
L 3713 1100 
L 3047 1100 
L 3047 0 
L 2419 0 
L 2419 1100 
L 313 1100 
L 313 1709 
L 2253 4666 
z
" transform="scale(0.015625)"/>
       </defs>
       <use xlink:href="#DejaVuSans-34"/>
       <use xlink:href="#DejaVuSans-30" x="63.623047"/>
       <use xlink:href="#DejaVuSans-30" x="127.246094"/>
       <use xlink:href="#DejaVuSans-30" x="190.869141"/>
       <use xlink:href="#DejaVuSans-30" x="254.492188"/>
      </g>
     </g>
    </g>
    <g id="text_6">
     <!-- Time (s) -->
     <g transform="translate(361.281094 274.316562) scale(0.1 -0.1)">
      <defs>
       <path id="DejaVuSans-54" d="M -19 4666 
L 3928 4666 
L 3928 4134 
L 2272 4134 
L 2272 0 
L 1638 0 
L 1638 4134 
L -19 4134 
L -19 4666 
z
" transform="scale(0.015625)"/>
       <path id="DejaVuSans-69" d="M 603 3500 
L 1178 3500 
L 1178 0 
L 603 0 
L 603 3500 
z
M 603 4863 
L 1178 4863 
L 1178 4134 
L 603 4134 
L 603 4863 
z
" transform="scale(0.015625)"/>
       <path id="DejaVuSans-6d" d="M 3328 2828 
Q 3544 3216 3844 3400 
Q 4144 3584 4550 3584 
Q 5097 3584 5394 3201 
Q 5691 2819 5691 2113 
L 5691 0 
L 5113 0 
L 5113 2094 
Q 5113 2597 4934 2840 
Q 4756 3084 4391 3084 
Q 3944 3084 3684 2787 
Q 3425 2491 3425 1978 
L 3425 0 
L 2847 0 
L 2847 2094 
Q 2847 2600 2669 2842 
Q 2491 3084 2119 3084 
Q 1678 3084 1418 2786 
Q 1159 2488 1159 1978 
L 1159 0 
L 581 0 
L 581 3500 
L 1159 3500 
L 1159 2956 
Q 1356 3278 1631 3431 
Q 1906 3584 2284 3584 
Q 2666 3584 2933 3390 
Q 3200 3197 3328 2828 
z
" transform="scale(0.015625)"/>
       <path id="DejaVuSans-65" d="M 3597 1894 
L 3597 1613 
L 953 1613 
Q 991 1019 1311 708 
Q 1631 397 2203 397 
Q 2534 397 2845 478 
Q 3156 559 3463 722 
L 3463 178 
Q 3153 47 2828 -22 
Q 2503 -91 2169 -91 
Q 1331 -91 842 396 
Q 353 884 353 1716 
Q 353 2575 817 3079 
Q 1281 3584 2069 3584 
Q 2775 3584 3186 3129 
Q 3597 2675 3597 1894 
z
M 3022 2063 
Q 3016 2534 2758 2815 
Q 2500 3097 2075 3097 
Q 1594 3097 1305 2825 
Q 1016 2553 972 2059 
L 3022 2063 
z
" transform="scale(0.015625)"/>
       <path id="DejaVuSans-20" transform="scale(0.015625)"/>
       <path id="DejaVuSans-28" d="M 1984 4856 
Q 1566 4138 1362 3434 
Q 1159 2731 1159 2009 
Q 1159 1288 1364 580 
Q 1569 -128 1984 -844 
L 1484 -844 
Q 1016 -109 783 600 
Q 550 1309 550 2009 
Q 550 2706 781 3412 
Q 1013 4119 1484 4856 
L 1984 4856 
z
" transform="scale(0.015625)"/>
       <path id="DejaVuSans-73" d="M 2834 3397 
L 2834 2853 
Q 2591 2978 2328 3040 
Q 2066 3103 1784 3103 
Q 1356 3103 1142 2972 
Q 928 2841 928 2578 
Q 928 2378 1081 2264 
Q 1234 2150 1697 2047 
L 1894 2003 
Q 2506 1872 2764 1633 
Q 3022 1394 3022 966 
Q 3022 478 2636 193 
Q 2250 -91 1575 -91 
Q 1294 -91 989 -36 
Q 684 19 347 128 
L 347 722 
Q 666 556 975 473 
Q 1284 391 1588 391 
Q 1994 391 2212 530 
Q 2431 669 2431 922 
Q 2431 1156 2273 1281 
Q 2116 1406 1581 1522 
L 1381 1569 
Q 847 1681 609 1914 
Q 372 2147 372 2553 
Q 372 3047 722 3315 
Q 1072 3584 1716 3584 
Q 2034 3584 2315 3537 
Q 2597 3491 2834 3397 
z
" transform="scale(0.015625)"/>
       <path id="DejaVuSans-29" d="M 513 4856 
L 1013 4856 
Q 1481 4119 1714 3412 
Q 1947 2706 1947 2009 
Q 1947 1309 1714 600 
Q 1481 -109 1013 -844 
L 513 -844 
Q 928 -128 1133 580 
Q 1338 1288 1338 2009 
Q 1338 2731 1133 3434 
Q 928 4138 513 4856 
z
" transform="scale(0.015625)"/>
      </defs>
      <use xlink:href="#DejaVuSans-54"/>
      <use xlink:href="#DejaVuSans-69" x="57.958984"/>
      <use xlink:href="#DejaVuSans-6d" x="85.742188"/>
      <use xlink:href="#DejaVuSans-65" x="183.154297"/>
      <use xlink:href="#DejaVuSans-20" x="244.677734"/>
      <use xlink:href="#DejaVuSans-28" x="276.464844"/>
      <use xlink:href="#DejaVuSans-73" x="315.478516"/>
      <use xlink:href="#DejaVuSans-29" x="367.578125"/>
     </g>
    </g>
   </g>
   <g id="matplotlib.axis_2">
    <g id="ytick_1">
     <g id="line2d_11">
      <path d="M 54.02 236.078182 
L 709.2 236.078182 
" clip-path="url(#p9b7e3b616c)" style="fill: none; stroke: #b0b0b0; stroke-width: 0.8; stroke-linecap: square"/>
     </g>
     <g id="line2d_12">
      <defs>
       <path id="mc75714af9d" d="M 0 0 
L -3.5 0 
" style="stroke: #000000; stroke-width: 0.8"/>
      </defs>
      <g>
       <use xlink:href="#mc75714af9d" x="54.02" y="236.078182" style="stroke: #000000; stroke-width: 0.8"/>
      </g>
     </g>
     <g id="text_7">
      <!-- 0.00 -->
      <g transform="translate(24.754375 239.877401) scale(0.1 -0.1)">
       <defs>
        <path id="DejaVuSans-2e" d="M 684 794 
L 1344 794 
L 1344 0 
L 684 0 
L 684 794 
z
" transform="scale(0.015625)"/>
       </defs>
       <use xlink:href="#DejaVuSans-30"/>
       <use xlink:href="#DejaVuSans-2e" x="63.623047"/>
       <use xlink:href="#DejaVuSans-30" x="95.410156"/>
       <use xlink:href="#DejaVuSans-30" x="159.033203"/>
      </g>
     </g>
    </g>
    <g id="ytick_2">
     <g id="line2d_13">
      <path d="M 54.02 196.230909 
L 709.2 196.230909 
" clip-path="url(#p9b7e3b616c)" style="fill: none; stroke: #b0b0b0; stroke-width: 0.8; stroke-linecap: square"/>
     </g>
     <g id="line2d_14">
      <g>
       <use xlink:href="#mc75714af9d" x="54.02" y="196.230909" style="stroke: #000000; stroke-width: 0.8"/>
      </g>
     </g>
     <g id="text_8">
      <!-- 0.05 -->
      <g transform="translate(24.754375 200.030128) scale(0.1 -0.1)">
       <defs>
        <path id="DejaVuSans-35" d="M 691 4666 
L 3169 4666 
L 3169 4134 
L 1269 4134 
L 1269 2991 
Q 1406 3038 1543 3061 
Q 1681 3084 1819 3084 
Q 2600 3084 3056 2656 
Q 3513 2228 3513 1497 
Q 3513 744 3044 326 
Q 2575 -91 1722 -91 
Q 1428 -91 1123 -41 
Q 819 9 494 109 
L 494 744 
Q 775 591 1075 516 
Q 1375 441 1709 441 
Q 2250 441 2565 725 
Q 2881 1009 2881 1497 
Q 2881 1984 2565 2268 
Q 2250 2553 1709 2553 
Q 1456 2553 1204 2497 
Q 953 2441 691 2322 
L 691 4666 
z
" transform="scale(0.015625)"/>
       </defs>
       <use xlink:href="#DejaVuSans-30"/>
       <use xlink:href="#DejaVuSans-2e" x="63.623047"/>
       <use xlink:href="#DejaVuSans-30" x="95.410156"/>
       <use xlink:href="#DejaVuSans-35" x="159.033203"/>
      </g>
     </g>
    </g>
    <g id="ytick_3">
     <g id="line2d_15">
      <path d="M 54.02 156.383636 
L 709.2 156.383636 
" clip-path="url(#p9b7e3b616c)" style="fill: none; stroke: #b0b0b0; stroke-width: 0.8; stroke-linecap: square"/>
     </g>
     <g id="line2d_16">
      <g>
       <use xlink:href="#mc75714af9d" x="54.02" y="156.383636" style="stroke: #000000; stroke-width: 0.8"/>
      </g>
     </g>
     <g id="text_9">
      <!-- 0.10 -->
      <g transform="translate(24.754375 160.182855) scale(0.1 -0.1)">
       <use xlink:href="#DejaVuSans-30"/>
       <use xlink:href="#DejaVuSans-2e" x="63.623047"/>
       <use xlink:href="#DejaVuSans-31" x="95.410156"/>
       <use xlink:href="#DejaVuSans-30" x="159.033203"/>
      </g>
     </g>
    </g>
    <g id="ytick_4">
     <g id="line2d_17">
      <path d="M 54.02 116.536364 
L 709.2 116.536364 
" clip-path="url(#p9b7e3b616c)" style="fill: none; stroke: #b0b0b0; stroke-width: 0.8; stroke-linecap: square"/>
     </g>
     <g id="line2d_18">
      <g>
       <use xlink:href="#mc75714af9d" x="54.02" y="116.536364" style="stroke: #000000; stroke-width: 0.8"/>
      </g>
     </g>
     <g id="text_10">
      <!-- 0.15 -->
      <g transform="translate(24.754375 120.335582) scale(0.1 -0.1)">
       <use xlink:href="#DejaVuSans-30"/>
       <use xlink:href="#DejaVuSans-2e" x="63.623047"/>
       <use xlink:href="#DejaVuSans-31" x="95.410156"/>
       <use xlink:href="#DejaVuSans-35" x="159.033203"/>
      </g>
     </g>
    </g>
    <g id="ytick_5">
     <g id="line2d_19">
      <path d="M 54.02 76.689091 
L 709.2 76.689091 
" clip-path="url(#p9b7e3b616c)" style="fill: none; stroke: #b0b0b0; stroke-width: 0.8; stroke-linecap: square"/>
     </g>
     <g id="line2d_20">
      <g>
       <use xlink:href="#mc75714af9d" x="54.02" y="76.689091" style="stroke: #000000; stroke-width: 0.8"/>
      </g>
     </g>
     <g id="text_11">
      <!-- 0.20 -->
      <g transform="translate(24.754375 80.48831) scale(0.1 -0.1)">
       <use xlink:href="#DejaVuSans-30"/>
       <use xlink:href="#DejaVuSans-2e" x="63.623047"/>
       <use xlink:href="#DejaVuSans-32" x="95.410156"/>
       <use xlink:href="#DejaVuSans-30" x="159.033203"/>
      </g>
     </g>
    </g>
    <g id="ytick_6">
     <g id="line2d_21">
      <path d="M 54.02 36.841818 
L 709.2 36.841818 
" clip-path="url(#p9b7e3b616c)" style="fill: none; stroke: #b0b0b0; stroke-width: 0.8; stroke-linecap: square"/>
     </g>
     <g id="line2d_22">
      <g>
       <use xlink:href="#mc75714af9d" x="54.02" y="36.841818" style="stroke: #000000; stroke-width: 0.8"/>
      </g>
     </g>
     <g id="text_12">
      <!-- 0.25 -->
      <g transform="translate(24.754375 40.641037) scale(0.1 -0.1)">
       <use xlink:href="#DejaVuSans-30"/>
       <use xlink:href="#DejaVuSans-2e" x="63.623047"/>
       <use xlink:href="#DejaVuSans-32" x="95.410156"/>
       <use xlink:href="#DejaVuSans-35" x="159.033203"/>
      </g>
     </g>
    </g>
    <g id="text_13">
     <!-- Delta Value -->
     <g transform="translate(18.674688 165.120156) rotate(-90) scale(0.1 -0.1)">
      <defs>
       <path id="DejaVuSans-44" d="M 1259 4147 
L 1259 519 
L 2022 519 
Q 2988 519 3436 956 
Q 3884 1394 3884 2338 
Q 3884 3275 3436 3711 
Q 2988 4147 2022 4147 
L 1259 4147 
z
M 628 4666 
L 1925 4666 
Q 3281 4666 3915 4102 
Q 4550 3538 4550 2338 
Q 4550 1131 3912 565 
Q 3275 0 1925 0 
L 628 0 
L 628 4666 
z
" transform="scale(0.015625)"/>
       <path id="DejaVuSans-6c" d="M 603 4863 
L 1178 4863 
L 1178 0 
L 603 0 
L 603 4863 
z
" transform="scale(0.015625)"/>
       <path id="DejaVuSans-74" d="M 1172 4494 
L 1172 3500 
L 2356 3500 
L 2356 3053 
L 1172 3053 
L 1172 1153 
Q 1172 725 1289 603 
Q 1406 481 1766 481 
L 2356 481 
L 2356 0 
L 1766 0 
Q 1100 0 847 248 
Q 594 497 594 1153 
L 594 3053 
L 172 3053 
L 172 3500 
L 594 3500 
L 594 4494 
L 1172 4494 
z
" transform="scale(0.015625)"/>
       <path id="DejaVuSans-61" d="M 2194 1759 
Q 1497 1759 1228 1600 
Q 959 1441 959 1056 
Q 959 750 1161 570 
Q 1363 391 1709 391 
Q 2188 391 2477 730 
Q 2766 1069 2766 1631 
L 2766 1759 
L 2194 1759 
z
M 3341 1997 
L 3341 0 
L 2766 0 
L 2766 531 
Q 2569 213 2275 61 
Q 1981 -91 1556 -91 
Q 1019 -91 701 211 
Q 384 513 384 1019 
Q 384 1609 779 1909 
Q 1175 2209 1959 2209 
L 2766 2209 
L 2766 2266 
Q 2766 2663 2505 2880 
Q 2244 3097 1772 3097 
Q 1472 3097 1187 3025 
Q 903 2953 641 2809 
L 641 3341 
Q 956 3463 1253 3523 
Q 1550 3584 1831 3584 
Q 2591 3584 2966 3190 
Q 3341 2797 3341 1997 
z
" transform="scale(0.015625)"/>
       <path id="DejaVuSans-56" d="M 1831 0 
L 50 4666 
L 709 4666 
L 2188 738 
L 3669 4666 
L 4325 4666 
L 2547 0 
L 1831 0 
z
" transform="scale(0.015625)"/>
       <path id="DejaVuSans-75" d="M 544 1381 
L 544 3500 
L 1119 3500 
L 1119 1403 
Q 1119 906 1312 657 
Q 1506 409 1894 409 
Q 2359 409 2629 706 
Q 2900 1003 2900 1516 
L 2900 3500 
L 3475 3500 
L 3475 0 
L 2900 0 
L 2900 538 
Q 2691 219 2414 64 
Q 2138 -91 1772 -91 
Q 1169 -91 856 284 
Q 544 659 544 1381 
z
M 1991 3584 
L 1991 3584 
z
" transform="scale(0.015625)"/>
      </defs>
      <use xlink:href="#DejaVuSans-44"/>
      <use xlink:href="#DejaVuSans-65" x="77.001953"/>
      <use xlink:href="#DejaVuSans-6c" x="138.525391"/>
      <use xlink:href="#DejaVuSans-74" x="166.308594"/>
      <use xlink:href="#DejaVuSans-61" x="205.517578"/>
      <use xlink:href="#DejaVuSans-20" x="266.796875"/>
      <use xlink:href="#DejaVuSans-56" x="298.583984"/>
      <use xlink:href="#DejaVuSans-61" x="359.242188"/>
      <use xlink:href="#DejaVuSans-6c" x="420.521484"/>
      <use xlink:href="#DejaVuSans-75" x="448.304688"/>
      <use xlink:href="#DejaVuSans-65" x="511.683594"/>
     </g>
    </g>
   </g>
   <g id="line2d_23">
    <path d="M 83.800909 236.078182 
L 84.81217 85.247981 
L 84.826617 236.078182 
L 86.473527 36.841818 
L 86.487974 236.078182 
L 88.120437 36.841818 
L 88.134884 236.078182 
L 90.272978 36.841818 
L 90.287425 236.078182 
L 91.919889 36.841818 
L 91.934335 236.078182 
L 93.610139 36.841818 
L 93.624586 236.078182 
L 97.770755 36.841818 
L 97.785202 236.078182 
L 99.22986 36.841818 
L 99.244307 236.078182 
L 100.674518 36.841818 
L 100.688965 236.078182 
L 102.133623 36.841818 
L 102.14807 236.078182 
L 103.607175 36.841818 
L 103.621621 236.078182 
L 105.06628 36.841818 
L 105.080726 236.078182 
L 106.510938 36.841818 
L 106.525385 236.078182 
L 107.970043 36.841818 
L 107.984489 236.078182 
L 109.414701 36.841818 
L 109.429148 236.078182 
L 110.902699 36.841818 
L 110.917146 236.078182 
L 112.347358 36.841818 
L 112.361804 236.078182 
L 113.806463 36.841818 
L 113.820909 236.078182 
L 115.251121 36.841818 
L 115.265567 236.078182 
L 116.710226 36.841818 
L 116.724672 236.078182 
L 118.183777 36.841818 
L 118.198224 236.078182 
L 119.642882 36.841818 
L 119.657329 236.078182 
L 121.087541 36.841818 
L 121.101987 236.078182 
L 122.546645 36.841818 
L 122.561092 236.078182 
L 123.991304 36.841818 
L 124.00575 236.078182 
L 125.479302 36.841818 
L 125.493748 236.078182 
L 126.92396 36.841818 
L 126.938407 236.078182 
L 128.383065 36.841818 
L 128.397512 236.078182 
L 129.827723 36.841818 
L 129.84217 236.078182 
L 131.286828 36.841818 
L 131.301275 236.078182 
L 132.76038 36.841818 
L 132.774826 236.078182 
L 134.219485 36.841818 
L 134.233931 236.078182 
L 135.664143 36.841818 
L 135.67859 236.078182 
L 137.123248 36.841818 
L 137.137695 236.078182 
L 138.567906 36.841818 
L 138.582353 236.078182 
L 140.055904 36.841818 
L 140.070351 236.078182 
L 141.500563 36.841818 
L 141.515009 236.078182 
L 142.959668 36.841818 
L 142.974114 236.078182 
L 144.404326 36.841818 
L 144.418773 236.078182 
L 145.863431 36.841818 
L 145.877877 236.078182 
L 147.336982 36.841818 
L 147.351429 236.078182 
L 148.796087 36.841818 
L 148.810534 236.078182 
L 150.240746 36.841818 
L 150.255192 236.078182 
L 151.69985 36.841818 
L 151.714297 236.078182 
L 153.144509 36.841818 
L 153.158955 236.078182 
L 154.632507 36.841818 
L 154.646953 236.078182 
L 156.077165 36.841818 
L 156.091612 236.078182 
L 157.53627 36.841818 
L 157.550717 236.078182 
L 158.980928 36.841818 
L 158.995375 236.078182 
L 160.440033 36.841818 
L 160.45448 236.078182 
L 161.913585 36.841818 
L 161.928031 236.078182 
L 163.37269 36.841818 
L 163.387136 236.078182 
L 164.817348 36.841818 
L 164.831795 236.078182 
L 166.276453 36.841818 
L 166.2909 236.078182 
L 167.721111 36.841818 
L 167.735558 236.078182 
L 169.209109 36.841818 
L 169.223556 236.078182 
L 170.653768 36.841818 
L 170.668214 236.078182 
L 172.112873 36.841818 
L 172.127319 236.078182 
L 173.557531 36.841818 
L 173.571978 236.078182 
L 175.016636 36.841818 
L 175.031082 236.078182 
L 176.490187 36.841818 
L 176.504634 236.078182 
L 177.949292 36.841818 
L 177.963739 236.078182 
L 179.393951 36.841818 
L 179.408397 236.078182 
L 180.853056 36.841818 
L 180.867502 236.078182 
L 182.297714 36.841818 
L 182.31216 236.078182 
L 183.785712 36.841818 
L 183.800159 236.078182 
L 185.23037 36.841818 
L 185.244817 236.078182 
L 186.689475 36.841818 
L 186.703922 236.078182 
L 188.134133 36.841818 
L 188.14858 236.078182 
L 189.593238 36.841818 
L 189.607685 236.078182 
L 191.06679 36.841818 
L 191.081236 236.078182 
L 192.525895 36.841818 
L 192.540341 236.078182 
L 193.970553 36.841818 
L 193.985 236.078182 
L 195.429658 36.841818 
L 195.444105 236.078182 
L 196.874316 36.841818 
L 196.888763 236.078182 
L 198.362314 36.841818 
L 198.376761 236.078182 
L 199.806973 36.841818 
L 199.821419 236.078182 
L 201.266078 36.841818 
L 201.280524 236.078182 
L 202.710736 36.841818 
L 202.725183 236.078182 
L 204.169841 36.841818 
L 204.184288 236.078182 
L 205.643392 36.841818 
L 205.657839 236.078182 
L 207.102497 36.841818 
L 207.116944 236.078182 
L 208.547156 36.841818 
L 208.561602 236.078182 
L 210.006261 36.841818 
L 210.020707 236.078182 
L 211.450919 36.841818 
L 211.465365 236.078182 
L 212.938917 36.841818 
L 212.953364 236.078182 
L 214.383575 36.841818 
L 214.398022 236.078182 
L 215.84268 36.841818 
L 215.857127 236.078182 
L 217.287339 36.841818 
L 217.301785 236.078182 
L 218.746443 36.841818 
L 218.76089 236.078182 
L 220.219995 36.841818 
L 220.234442 236.078182 
L 221.6791 36.841818 
L 221.693546 236.078182 
L 223.123758 36.841818 
L 223.138205 236.078182 
L 224.582863 36.841818 
L 224.59731 236.078182 
L 226.027521 36.841818 
L 226.041968 236.078182 
L 227.51552 36.841818 
L 227.529966 236.078182 
L 228.960178 36.841818 
L 228.974624 236.078182 
L 230.419283 36.841818 
L 230.433729 236.078182 
L 231.863941 36.841818 
L 231.878388 236.078182 
L 233.323046 36.841818 
L 233.337493 236.078182 
L 234.796597 36.841818 
L 234.811044 236.078182 
L 236.255702 36.841818 
L 236.270149 236.078182 
L 237.700361 36.841818 
L 237.714807 236.078182 
L 239.159466 36.841818 
L 239.173912 236.078182 
L 240.604124 36.841818 
L 240.618571 236.078182 
L 242.092122 36.841818 
L 242.106569 236.078182 
L 243.53678 36.841818 
L 243.551227 236.078182 
L 244.995885 36.841818 
L 245.010332 236.078182 
L 246.440544 36.841818 
L 246.45499 236.078182 
L 247.899649 36.841818 
L 247.914095 236.078182 
L 249.3732 36.841818 
L 249.387647 236.078182 
L 250.832305 36.841818 
L 250.846751 236.078182 
L 252.276963 36.841818 
L 252.29141 236.078182 
L 253.736068 36.841818 
L 253.750515 236.078182 
L 255.180726 36.841818 
L 255.195173 236.078182 
L 256.610938 36.841818 
L 256.625385 236.078182 
L 258.243402 36.841818 
L 258.257849 236.078182 
L 259.904759 36.841818 
L 259.919206 236.078182 
L 261.522777 36.841818 
L 261.537223 236.078182 
L 263.704211 36.841818 
L 263.718657 236.078182 
L 265.206655 36.841818 
L 265.221102 236.078182 
L 267.012478 36.841818 
L 267.026925 236.078182 
L 270.985289 36.841818 
L 270.999735 236.078182 
L 272.473287 36.841818 
L 272.487733 236.078182 
L 273.889052 36.841818 
L 273.903498 236.078182 
L 275.405943 36.841818 
L 275.42039 236.078182 
L 276.821708 36.841818 
L 276.836155 236.078182 
L 278.309706 36.841818 
L 278.324153 236.078182 
L 279.725471 36.841818 
L 279.739918 236.078182 
L 281.21347 36.841818 
L 281.227916 236.078182 
L 282.658128 36.841818 
L 282.672574 236.078182 
L 284.146126 36.841818 
L 284.160573 236.078182 
L 285.561891 36.841818 
L 285.576338 236.078182 
L 287.049889 36.841818 
L 287.064336 236.078182 
L 288.465654 36.841818 
L 288.480101 236.078182 
L 289.982546 36.841818 
L 289.996992 236.078182 
L 291.398311 36.841818 
L 291.412757 236.078182 
L 292.886309 36.841818 
L 292.900755 236.078182 
L 294.302074 36.841818 
L 294.316521 236.078182 
L 295.790072 36.841818 
L 295.804519 236.078182 
L 297.23473 36.841818 
L 297.249177 236.078182 
L 298.722728 36.841818 
L 298.737175 236.078182 
L 300.138494 36.841818 
L 300.15294 236.078182 
L 301.626492 36.841818 
L 301.640938 236.078182 
L 303.042257 36.841818 
L 303.056703 236.078182 
L 304.559148 36.841818 
L 304.573595 236.078182 
L 305.974913 36.841818 
L 305.98936 236.078182 
L 307.462911 36.841818 
L 307.477358 236.078182 
L 308.878677 36.841818 
L 308.893123 236.078182 
L 310.366675 36.841818 
L 310.381121 236.078182 
L 311.811333 36.841818 
L 311.825779 236.078182 
L 313.299331 36.841818 
L 313.313778 236.078182 
L 314.715096 36.841818 
L 314.729543 236.078182 
L 316.203094 36.841818 
L 316.217541 236.078182 
L 317.618859 36.841818 
L 317.633306 236.078182 
L 319.135751 36.841818 
L 319.150197 236.078182 
L 320.551516 36.841818 
L 320.565962 236.078182 
L 322.039514 36.841818 
L 322.05396 236.078182 
L 323.455279 36.841818 
L 323.469726 236.078182 
L 324.943277 36.841818 
L 324.957724 236.078182 
L 326.387935 36.841818 
L 326.402382 236.078182 
L 327.875934 36.841818 
L 327.89038 236.078182 
L 329.291699 36.841818 
L 329.306145 236.078182 
L 330.779697 36.841818 
L 330.794143 236.078182 
L 332.195462 36.841818 
L 332.209908 236.078182 
L 333.712353 36.841818 
L 333.7268 236.078182 
L 335.128118 36.841818 
L 335.142565 236.078182 
L 336.616116 36.841818 
L 336.630563 236.078182 
L 338.031882 36.841818 
L 338.046328 236.078182 
L 339.51988 36.841818 
L 339.534326 236.078182 
L 340.964538 36.841818 
L 340.978985 236.078182 
L 342.452536 36.841818 
L 342.466983 236.078182 
L 343.868301 36.841818 
L 343.882748 236.078182 
L 345.356299 36.841818 
L 345.370746 236.078182 
L 346.772064 36.841818 
L 346.786511 236.078182 
L 348.288956 36.841818 
L 348.303402 236.078182 
L 349.704721 36.841818 
L 349.719167 236.078182 
L 351.192719 36.841818 
L 351.207165 236.078182 
L 352.608484 36.841818 
L 352.622931 236.078182 
L 354.096482 36.841818 
L 354.110929 236.078182 
L 355.54114 36.841818 
L 355.555587 236.078182 
L 357.029139 36.841818 
L 357.043585 236.078182 
L 358.444904 36.841818 
L 358.45935 236.078182 
L 359.932902 36.841818 
L 359.947348 236.078182 
L 361.37756 36.841818 
L 361.392007 236.078182 
L 362.894451 36.841818 
L 362.908898 236.078182 
L 364.310217 36.841818 
L 364.324663 236.078182 
L 365.798215 36.841818 
L 365.812661 236.078182 
L 367.21398 36.841818 
L 367.228426 236.078182 
L 368.730871 36.841818 
L 368.745318 236.078182 
L 370.175529 36.841818 
L 370.189976 236.078182 
L 371.663527 36.841818 
L 371.677974 236.078182 
L 373.079293 36.841818 
L 373.093739 236.078182 
L 374.567291 36.841818 
L 374.581737 236.078182 
L 376.011949 36.841818 
L 376.026396 236.078182 
L 377.52884 36.841818 
L 377.543287 236.078182 
L 378.944605 36.841818 
L 378.959052 236.078182 
L 380.432603 36.841818 
L 380.44705 236.078182 
L 381.848369 36.841818 
L 381.862815 236.078182 
L 383.36526 36.841818 
L 383.379706 236.078182 
L 384.809918 36.841818 
L 384.824365 236.078182 
L 386.297916 36.841818 
L 386.312363 236.078182 
L 387.713681 36.841818 
L 387.728128 236.078182 
L 389.20168 36.841818 
L 389.216126 236.078182 
L 390.646338 36.841818 
L 390.660784 236.078182 
L 392.163229 36.841818 
L 392.177676 236.078182 
L 393.578994 36.841818 
L 393.593441 236.078182 
L 395.066992 36.841818 
L 395.081439 236.078182 
L 396.482757 36.841818 
L 396.497204 236.078182 
L 397.999649 36.841818 
L 398.014095 236.078182 
L 399.444307 36.841818 
L 399.458754 236.078182 
L 400.932305 36.841818 
L 400.946752 236.078182 
L 402.34807 36.841818 
L 402.362517 236.078182 
L 403.836068 36.841818 
L 403.850515 236.078182 
L 405.280727 36.841818 
L 405.295173 236.078182 
L 406.797618 36.841818 
L 406.812065 236.078182 
L 408.213383 36.841818 
L 408.22783 236.078182 
L 409.701381 36.841818 
L 409.715828 236.078182 
L 411.117146 36.841818 
L 411.131593 236.078182 
L 412.634038 36.841818 
L 412.648484 236.078182 
L 414.078696 36.841818 
L 414.093142 236.078182 
L 415.566694 36.841818 
L 415.581141 236.078182 
L 416.982459 36.841818 
L 416.996906 236.078182 
L 418.470457 36.841818 
L 418.484904 236.078182 
L 419.915116 36.841818 
L 419.929562 236.078182 
L 421.432007 36.841818 
L 421.446453 236.078182 
L 422.847772 36.841818 
L 422.862219 236.078182 
L 424.33577 36.841818 
L 424.350217 236.078182 
L 425.751535 36.841818 
L 425.765982 236.078182 
L 427.268426 36.841818 
L 427.282873 236.078182 
L 428.713085 36.841818 
L 428.727531 236.078182 
L 430.201083 36.841818 
L 430.215529 236.078182 
L 431.616848 36.841818 
L 431.631295 236.078182 
L 433.104846 36.841818 
L 433.119293 236.078182 
L 434.549504 36.841818 
L 434.563951 236.078182 
L 436.066396 36.841818 
L 436.080842 236.078182 
L 437.482161 36.841818 
L 437.496607 236.078182 
L 438.970159 36.841818 
L 438.984605 236.078182 
L 440.385924 36.841818 
L 440.400371 236.078182 
L 441.902815 36.841818 
L 441.917262 236.078182 
L 443.347474 36.841818 
L 443.36192 236.078182 
L 444.835472 36.841818 
L 444.849918 236.078182 
L 446.251237 36.841818 
L 446.265683 236.078182 
L 447.739235 36.841818 
L 447.753682 236.078182 
L 449.183893 36.841818 
L 449.19834 236.078182 
L 450.700785 36.841818 
L 450.715231 236.078182 
L 452.11655 36.841818 
L 452.130996 236.078182 
L 453.604548 36.841818 
L 453.618994 236.078182 
L 455.020313 36.841818 
L 455.034759 236.078182 
L 456.537204 36.841818 
L 456.551651 236.078182 
L 457.981862 36.841818 
L 457.996309 236.078182 
L 459.469861 36.841818 
L 459.484307 236.078182 
L 460.885626 36.841818 
L 460.900072 236.078182 
L 462.373624 36.841818 
L 462.38807 236.078182 
L 463.818282 36.841818 
L 463.832729 236.078182 
L 465.335173 36.841818 
L 465.34962 236.078182 
L 466.750939 36.841818 
L 466.765385 236.078182 
L 468.238937 36.841818 
L 468.253383 236.078182 
L 469.654702 36.841818 
L 469.669148 236.078182 
L 471.171593 36.841818 
L 471.18604 236.078182 
L 472.616251 36.841818 
L 472.630698 236.078182 
L 474.104249 36.841818 
L 474.118696 236.078182 
L 475.520015 36.841818 
L 475.534461 236.078182 
L 477.008013 36.841818 
L 477.022459 236.078182 
L 478.423778 36.841818 
L 478.438224 236.078182 
L 479.940669 36.841818 
L 479.955116 236.078182 
L 481.356434 36.841818 
L 481.370881 236.078182 
L 482.844432 36.841818 
L 482.858879 236.078182 
L 484.260197 36.841818 
L 484.274644 236.078182 
L 485.748196 36.841818 
L 485.762642 236.078182 
L 487.192854 36.841818 
L 487.2073 236.078182 
L 488.680852 36.841818 
L 488.695299 236.078182 
L 490.096617 36.841818 
L 490.111064 236.078182 
L 491.584615 36.841818 
L 491.599062 236.078182 
L 493.00038 36.841818 
L 493.014827 236.078182 
L 494.517272 36.841818 
L 494.531718 236.078182 
L 495.933037 36.841818 
L 495.947483 236.078182 
L 497.421035 36.841818 
L 497.435481 236.078182 
L 498.8368 36.841818 
L 498.851247 236.078182 
L 500.324798 36.841818 
L 500.339245 236.078182 
L 501.769456 36.841818 
L 501.783903 236.078182 
L 503.257454 36.841818 
L 503.271901 236.078182 
L 504.67322 36.841818 
L 504.687666 236.078182 
L 506.161218 36.841818 
L 506.175664 236.078182 
L 507.576983 36.841818 
L 507.591429 236.078182 
L 509.093874 36.841818 
L 509.108321 236.078182 
L 510.509639 36.841818 
L 510.524086 236.078182 
L 511.997637 36.841818 
L 512.012084 236.078182 
L 513.413403 36.841818 
L 513.427849 236.078182 
L 514.901401 36.841818 
L 514.915847 236.078182 
L 516.346059 36.841818 
L 516.360505 236.078182 
L 517.834057 36.841818 
L 517.848504 236.078182 
L 519.249822 36.841818 
L 519.264269 236.078182 
L 520.73782 36.841818 
L 520.752267 236.078182 
L 522.153585 36.841818 
L 522.168032 236.078182 
L 523.670477 36.841818 
L 523.684923 236.078182 
L 525.086242 36.841818 
L 525.100688 236.078182 
L 526.57424 36.841818 
L 526.588686 236.078182 
L 527.990005 36.841818 
L 528.004452 236.078182 
L 529.478003 36.841818 
L 529.49245 236.078182 
L 530.922661 36.841818 
L 530.937108 236.078182 
L 532.41066 36.841818 
L 532.425106 236.078182 
L 533.826425 36.841818 
L 533.840871 236.078182 
L 535.314423 36.841818 
L 535.328869 236.078182 
L 536.730188 36.841818 
L 536.744634 236.078182 
L 538.247079 36.841818 
L 538.261526 236.078182 
L 539.662844 36.841818 
L 539.677291 236.078182 
L 541.150842 36.841818 
L 541.165289 236.078182 
L 542.566608 36.841818 
L 542.581054 236.078182 
L 544.054606 36.841818 
L 544.069052 236.078182 
L 545.499264 36.841818 
L 545.513711 236.078182 
L 546.987262 36.841818 
L 547.001709 236.078182 
L 548.403027 36.841818 
L 548.417474 236.078182 
L 549.891025 36.841818 
L 549.905472 236.078182 
L 551.30679 36.841818 
L 551.321237 236.078182 
L 552.823682 36.841818 
L 552.838128 236.078182 
L 554.239447 36.841818 
L 554.253893 236.078182 
L 555.727445 36.841818 
L 555.741891 236.078182 
L 557.14321 36.841818 
L 557.157657 236.078182 
L 558.631208 36.841818 
L 558.645655 236.078182 
L 560.075866 36.841818 
L 560.090313 236.078182 
L 561.563865 36.841818 
L 561.578311 236.078182 
L 562.97963 36.841818 
L 562.994076 236.078182 
L 564.467628 36.841818 
L 564.482074 236.078182 
L 565.883393 36.841818 
L 565.89784 236.078182 
L 567.400284 36.841818 
L 567.414731 236.078182 
L 568.816049 36.841818 
L 568.830496 236.078182 
L 570.304047 36.841818 
L 570.318494 236.078182 
L 571.719813 36.841818 
L 571.734259 236.078182 
L 573.207811 36.841818 
L 573.222257 236.078182 
L 574.652469 36.841818 
L 574.666916 236.078182 
L 576.140467 36.841818 
L 576.154914 236.078182 
L 577.556232 36.841818 
L 577.570679 236.078182 
L 579.04423 36.841818 
L 579.058677 236.078182 
L 580.459995 36.841818 
L 580.474442 236.078182 
L 581.976887 36.841818 
L 581.991333 236.078182 
L 583.392652 36.841818 
L 583.407098 236.078182 
L 584.88065 36.841818 
L 584.895097 236.078182 
L 586.296415 36.841818 
L 586.310862 236.078182 
L 587.784413 36.841818 
L 587.79886 236.078182 
L 589.229072 36.841818 
L 589.243518 236.078182 
L 590.71707 36.841818 
L 590.731516 236.078182 
L 592.132835 36.841818 
L 592.147281 236.078182 
L 593.620833 36.841818 
L 593.635279 236.078182 
L 595.036598 36.841818 
L 595.051045 236.078182 
L 596.553489 36.841818 
L 596.567936 236.078182 
L 597.969254 36.841818 
L 597.983701 236.078182 
L 599.457252 36.841818 
L 599.471699 236.078182 
L 600.873018 36.841818 
L 600.887464 236.078182 
L 602.361016 36.841818 
L 602.375462 236.078182 
L 603.805674 36.841818 
L 603.820121 236.078182 
L 605.293672 36.841818 
L 605.308119 236.078182 
L 606.709437 36.841818 
L 606.723884 236.078182 
L 608.197435 36.841818 
L 608.211882 236.078182 
L 609.613201 36.841818 
L 609.627647 236.078182 
L 611.072305 36.841818 
L 611.086752 236.078182 
L 612.704769 36.841818 
L 612.719216 236.078182 
L 614.366126 36.841818 
L 614.380573 236.078182 
L 616.504221 36.841818 
L 616.518667 236.078182 
L 617.977772 36.841818 
L 617.992219 236.078182 
L 619.624683 36.841818 
L 619.639129 236.078182 
L 621.28604 36.841818 
L 621.300486 236.078182 
L 625.475549 36.841818 
L 625.489996 236.078182 
L 626.934654 36.841818 
L 626.9491 236.078182 
L 628.379312 36.841818 
L 628.393759 236.078182 
L 629.86731 36.841818 
L 629.881757 236.078182 
L 631.311969 36.841818 
L 631.326415 236.078182 
L 632.771074 36.841818 
L 632.78552 236.078182 
L 634.215732 36.841818 
L 634.230178 236.078182 
L 635.674837 36.841818 
L 635.689283 236.078182 
L 637.148388 36.841818 
L 637.162835 236.078182 
L 638.607493 36.841818 
L 638.62194 236.078182 
L 640.052151 36.841818 
L 640.066598 236.078182 
L 641.511256 36.841818 
L 641.525703 236.078182 
L 642.955915 36.841818 
L 642.970361 236.078182 
L 644.443913 36.841818 
L 644.458359 236.078182 
L 645.888571 36.841818 
L 645.903018 236.078182 
L 647.347676 36.841818 
L 647.362123 236.078182 
L 648.792334 36.841818 
L 648.806781 236.078182 
L 650.251439 36.841818 
L 650.265886 236.078182 
L 651.724991 36.841818 
L 651.739437 236.078182 
L 653.184096 36.841818 
L 653.198542 236.078182 
L 654.628754 36.841818 
L 654.643201 236.078182 
L 656.087859 36.841818 
L 656.102306 236.078182 
L 657.532517 36.841818 
L 657.546964 236.078182 
L 659.020515 36.841818 
L 659.034962 236.078182 
L 660.465174 36.841818 
L 660.47962 236.078182 
L 661.924279 36.841818 
L 661.938725 236.078182 
L 663.368937 36.841818 
L 663.383383 236.078182 
L 664.828042 36.841818 
L 664.842488 236.078182 
L 666.301593 36.841818 
L 666.31604 236.078182 
L 667.760698 36.841818 
L 667.775145 236.078182 
L 669.205357 36.841818 
L 669.219803 236.078182 
L 670.664461 36.841818 
L 670.678908 236.078182 
L 672.10912 36.841818 
L 672.123566 236.078182 
L 673.597118 36.841818 
L 673.611564 236.078182 
L 675.041776 36.841818 
L 675.056223 236.078182 
L 676.500881 36.841818 
L 676.515328 236.078182 
L 677.945539 36.841818 
L 677.959986 236.078182 
L 679.404644 36.841818 
L 679.419091 236.078182 
L 679.419091 236.078182 
" clip-path="url(#p9b7e3b616c)" style="fill: none; stroke: #1f77b4; stroke-width: 1.5; stroke-linecap: square"/>
   </g>
   <g id="patch_3">
    <path d="M 54.02 246.04 
L 54.02 26.88 
" style="fill: none; stroke: #000000; stroke-width: 0.8; stroke-linejoin: miter; stroke-linecap: square"/>
   </g>
   <g id="patch_4">
    <path d="M 709.2 246.04 
L 709.2 26.88 
" style="fill: none; stroke: #000000; stroke-width: 0.8; stroke-linejoin: miter; stroke-linecap: square"/>
   </g>
   <g id="patch_5">
    <path d="M 54.02 246.04 
L 709.2 246.04 
" style="fill: none; stroke: #000000; stroke-width: 0.8; stroke-linejoin: miter; stroke-linecap: square"/>
   </g>
   <g id="patch_6">
    <path d="M 54.02 26.88 
L 709.2 26.88 
" style="fill: none; stroke: #000000; stroke-width: 0.8; stroke-linejoin: miter; stroke-linecap: square"/>
   </g>
   <g id="text_14">
    <!-- backoffActive:vector (HandoverShowcase.host2.wlan[0].mac.dcf.channelAccess.contention) -->
    <g transform="translate(105.541562 20.88) scale(0.12 -0.12)">
     <defs>
      <path id="DejaVuSans-62" d="M 3116 1747 
Q 3116 2381 2855 2742 
Q 2594 3103 2138 3103 
Q 1681 3103 1420 2742 
Q 1159 2381 1159 1747 
Q 1159 1113 1420 752 
Q 1681 391 2138 391 
Q 2594 391 2855 752 
Q 3116 1113 3116 1747 
z
M 1159 2969 
Q 1341 3281 1617 3432 
Q 1894 3584 2278 3584 
Q 2916 3584 3314 3078 
Q 3713 2572 3713 1747 
Q 3713 922 3314 415 
Q 2916 -91 2278 -91 
Q 1894 -91 1617 61 
Q 1341 213 1159 525 
L 1159 0 
L 581 0 
L 581 4863 
L 1159 4863 
L 1159 2969 
z
" transform="scale(0.015625)"/>
      <path id="DejaVuSans-63" d="M 3122 3366 
L 3122 2828 
Q 2878 2963 2633 3030 
Q 2388 3097 2138 3097 
Q 1578 3097 1268 2742 
Q 959 2388 959 1747 
Q 959 1106 1268 751 
Q 1578 397 2138 397 
Q 2388 397 2633 464 
Q 2878 531 3122 666 
L 3122 134 
Q 2881 22 2623 -34 
Q 2366 -91 2075 -91 
Q 1284 -91 818 406 
Q 353 903 353 1747 
Q 353 2603 823 3093 
Q 1294 3584 2113 3584 
Q 2378 3584 2631 3529 
Q 2884 3475 3122 3366 
z
" transform="scale(0.015625)"/>
      <path id="DejaVuSans-6b" d="M 581 4863 
L 1159 4863 
L 1159 1991 
L 2875 3500 
L 3609 3500 
L 1753 1863 
L 3688 0 
L 2938 0 
L 1159 1709 
L 1159 0 
L 581 0 
L 581 4863 
z
" transform="scale(0.015625)"/>
      <path id="DejaVuSans-6f" d="M 1959 3097 
Q 1497 3097 1228 2736 
Q 959 2375 959 1747 
Q 959 1119 1226 758 
Q 1494 397 1959 397 
Q 2419 397 2687 759 
Q 2956 1122 2956 1747 
Q 2956 2369 2687 2733 
Q 2419 3097 1959 3097 
z
M 1959 3584 
Q 2709 3584 3137 3096 
Q 3566 2609 3566 1747 
Q 3566 888 3137 398 
Q 2709 -91 1959 -91 
Q 1206 -91 779 398 
Q 353 888 353 1747 
Q 353 2609 779 3096 
Q 1206 3584 1959 3584 
z
" transform="scale(0.015625)"/>
      <path id="DejaVuSans-66" d="M 2375 4863 
L 2375 4384 
L 1825 4384 
Q 1516 4384 1395 4259 
Q 1275 4134 1275 3809 
L 1275 3500 
L 2222 3500 
L 2222 3053 
L 1275 3053 
L 1275 0 
L 697 0 
L 697 3053 
L 147 3053 
L 147 3500 
L 697 3500 
L 697 3744 
Q 697 4328 969 4595 
Q 1241 4863 1831 4863 
L 2375 4863 
z
" transform="scale(0.015625)"/>
      <path id="DejaVuSans-41" d="M 2188 4044 
L 1331 1722 
L 3047 1722 
L 2188 4044 
z
M 1831 4666 
L 2547 4666 
L 4325 0 
L 3669 0 
L 3244 1197 
L 1141 1197 
L 716 0 
L 50 0 
L 1831 4666 
z
" transform="scale(0.015625)"/>
      <path id="DejaVuSans-76" d="M 191 3500 
L 800 3500 
L 1894 563 
L 2988 3500 
L 3597 3500 
L 2284 0 
L 1503 0 
L 191 3500 
z
" transform="scale(0.015625)"/>
      <path id="DejaVuSans-3a" d="M 750 794 
L 1409 794 
L 1409 0 
L 750 0 
L 750 794 
z
M 750 3309 
L 1409 3309 
L 1409 2516 
L 750 2516 
L 750 3309 
z
" transform="scale(0.015625)"/>
      <path id="DejaVuSans-72" d="M 2631 2963 
Q 2534 3019 2420 3045 
Q 2306 3072 2169 3072 
Q 1681 3072 1420 2755 
Q 1159 2438 1159 1844 
L 1159 0 
L 581 0 
L 581 3500 
L 1159 3500 
L 1159 2956 
Q 1341 3275 1631 3429 
Q 1922 3584 2338 3584 
Q 2397 3584 2469 3576 
Q 2541 3569 2628 3553 
L 2631 2963 
z
" transform="scale(0.015625)"/>
      <path id="DejaVuSans-48" d="M 628 4666 
L 1259 4666 
L 1259 2753 
L 3553 2753 
L 3553 4666 
L 4184 4666 
L 4184 0 
L 3553 0 
L 3553 2222 
L 1259 2222 
L 1259 0 
L 628 0 
L 628 4666 
z
" transform="scale(0.015625)"/>
      <path id="DejaVuSans-6e" d="M 3513 2113 
L 3513 0 
L 2938 0 
L 2938 2094 
Q 2938 2591 2744 2837 
Q 2550 3084 2163 3084 
Q 1697 3084 1428 2787 
Q 1159 2491 1159 1978 
L 1159 0 
L 581 0 
L 581 3500 
L 1159 3500 
L 1159 2956 
Q 1366 3272 1645 3428 
Q 1925 3584 2291 3584 
Q 2894 3584 3203 3211 
Q 3513 2838 3513 2113 
z
" transform="scale(0.015625)"/>
      <path id="DejaVuSans-64" d="M 2906 2969 
L 2906 4863 
L 3481 4863 
L 3481 0 
L 2906 0 
L 2906 525 
Q 2725 213 2448 61 
Q 2172 -91 1784 -91 
Q 1150 -91 751 415 
Q 353 922 353 1747 
Q 353 2572 751 3078 
Q 1150 3584 1784 3584 
Q 2172 3584 2448 3432 
Q 2725 3281 2906 2969 
z
M 947 1747 
Q 947 1113 1208 752 
Q 1469 391 1925 391 
Q 2381 391 2643 752 
Q 2906 1113 2906 1747 
Q 2906 2381 2643 2742 
Q 2381 3103 1925 3103 
Q 1469 3103 1208 2742 
Q 947 2381 947 1747 
z
" transform="scale(0.015625)"/>
      <path id="DejaVuSans-53" d="M 3425 4513 
L 3425 3897 
Q 3066 4069 2747 4153 
Q 2428 4238 2131 4238 
Q 1616 4238 1336 4038 
Q 1056 3838 1056 3469 
Q 1056 3159 1242 3001 
Q 1428 2844 1947 2747 
L 2328 2669 
Q 3034 2534 3370 2195 
Q 3706 1856 3706 1288 
Q 3706 609 3251 259 
Q 2797 -91 1919 -91 
Q 1588 -91 1214 -16 
Q 841 59 441 206 
L 441 856 
Q 825 641 1194 531 
Q 1563 422 1919 422 
Q 2459 422 2753 634 
Q 3047 847 3047 1241 
Q 3047 1584 2836 1778 
Q 2625 1972 2144 2069 
L 1759 2144 
Q 1053 2284 737 2584 
Q 422 2884 422 3419 
Q 422 4038 858 4394 
Q 1294 4750 2059 4750 
Q 2388 4750 2728 4690 
Q 3069 4631 3425 4513 
z
" transform="scale(0.015625)"/>
      <path id="DejaVuSans-68" d="M 3513 2113 
L 3513 0 
L 2938 0 
L 2938 2094 
Q 2938 2591 2744 2837 
Q 2550 3084 2163 3084 
Q 1697 3084 1428 2787 
Q 1159 2491 1159 1978 
L 1159 0 
L 581 0 
L 581 4863 
L 1159 4863 
L 1159 2956 
Q 1366 3272 1645 3428 
Q 1925 3584 2291 3584 
Q 2894 3584 3203 3211 
Q 3513 2838 3513 2113 
z
" transform="scale(0.015625)"/>
      <path id="DejaVuSans-77" d="M 269 3500 
L 844 3500 
L 1563 769 
L 2278 3500 
L 2956 3500 
L 3675 769 
L 4391 3500 
L 4966 3500 
L 4050 0 
L 3372 0 
L 2619 2869 
L 1863 0 
L 1184 0 
L 269 3500 
z
" transform="scale(0.015625)"/>
      <path id="DejaVuSans-5b" d="M 550 4863 
L 1875 4863 
L 1875 4416 
L 1125 4416 
L 1125 -397 
L 1875 -397 
L 1875 -844 
L 550 -844 
L 550 4863 
z
" transform="scale(0.015625)"/>
      <path id="DejaVuSans-5d" d="M 1947 4863 
L 1947 -844 
L 622 -844 
L 622 -397 
L 1369 -397 
L 1369 4416 
L 622 4416 
L 622 4863 
L 1947 4863 
z
" transform="scale(0.015625)"/>
     </defs>
     <use xlink:href="#DejaVuSans-62"/>
     <use xlink:href="#DejaVuSans-61" x="63.476562"/>
     <use xlink:href="#DejaVuSans-63" x="124.755859"/>
     <use xlink:href="#DejaVuSans-6b" x="179.736328"/>
     <use xlink:href="#DejaVuSans-6f" x="234.021484"/>
     <use xlink:href="#DejaVuSans-66" x="295.203125"/>
     <use xlink:href="#DejaVuSans-66" x="330.408203"/>
     <use xlink:href="#DejaVuSans-41" x="365.613281"/>
     <use xlink:href="#DejaVuSans-63" x="432.271484"/>
     <use xlink:href="#DejaVuSans-74" x="487.251953"/>
     <use xlink:href="#DejaVuSans-69" x="526.460938"/>
     <use xlink:href="#DejaVuSans-76" x="554.244141"/>
     <use xlink:href="#DejaVuSans-65" x="613.423828"/>
     <use xlink:href="#DejaVuSans-3a" x="674.947266"/>
     <use xlink:href="#DejaVuSans-76" x="708.638672"/>
     <use xlink:href="#DejaVuSans-65" x="767.818359"/>
     <use xlink:href="#DejaVuSans-63" x="829.341797"/>
     <use xlink:href="#DejaVuSans-74" x="884.322266"/>
     <use xlink:href="#DejaVuSans-6f" x="923.53125"/>
     <use xlink:href="#DejaVuSans-72" x="984.712891"/>
     <use xlink:href="#DejaVuSans-20" x="1025.826172"/>
     <use xlink:href="#DejaVuSans-28" x="1057.613281"/>
     <use xlink:href="#DejaVuSans-48" x="1096.626953"/>
     <use xlink:href="#DejaVuSans-61" x="1171.822266"/>
     <use xlink:href="#DejaVuSans-6e" x="1233.101562"/>
     <use xlink:href="#DejaVuSans-64" x="1296.480469"/>
     <use xlink:href="#DejaVuSans-6f" x="1359.957031"/>
     <use xlink:href="#DejaVuSans-76" x="1421.138672"/>
     <use xlink:href="#DejaVuSans-65" x="1480.318359"/>
     <use xlink:href="#DejaVuSans-72" x="1541.841797"/>
     <use xlink:href="#DejaVuSans-53" x="1582.955078"/>
     <use xlink:href="#DejaVuSans-68" x="1646.431641"/>
     <use xlink:href="#DejaVuSans-6f" x="1709.810547"/>
     <use xlink:href="#DejaVuSans-77" x="1770.992188"/>
     <use xlink:href="#DejaVuSans-63" x="1852.779297"/>
     <use xlink:href="#DejaVuSans-61" x="1907.759766"/>
     <use xlink:href="#DejaVuSans-73" x="1969.039062"/>
     <use xlink:href="#DejaVuSans-65" x="2021.138672"/>
     <use xlink:href="#DejaVuSans-2e" x="2082.662109"/>
     <use xlink:href="#DejaVuSans-68" x="2114.449219"/>
     <use xlink:href="#DejaVuSans-6f" x="2177.828125"/>
     <use xlink:href="#DejaVuSans-73" x="2239.009766"/>
     <use xlink:href="#DejaVuSans-74" x="2291.109375"/>
     <use xlink:href="#DejaVuSans-32" x="2330.318359"/>
     <use xlink:href="#DejaVuSans-2e" x="2393.941406"/>
     <use xlink:href="#DejaVuSans-77" x="2425.728516"/>
     <use xlink:href="#DejaVuSans-6c" x="2507.515625"/>
     <use xlink:href="#DejaVuSans-61" x="2535.298828"/>
     <use xlink:href="#DejaVuSans-6e" x="2596.578125"/>
     <use xlink:href="#DejaVuSans-5b" x="2659.957031"/>
     <use xlink:href="#DejaVuSans-30" x="2698.970703"/>
     <use xlink:href="#DejaVuSans-5d" x="2762.59375"/>
     <use xlink:href="#DejaVuSans-2e" x="2801.607422"/>
     <use xlink:href="#DejaVuSans-6d" x="2833.394531"/>
     <use xlink:href="#DejaVuSans-61" x="2930.806641"/>
     <use xlink:href="#DejaVuSans-63" x="2992.085938"/>
     <use xlink:href="#DejaVuSans-2e" x="3047.066406"/>
     <use xlink:href="#DejaVuSans-64" x="3078.853516"/>
     <use xlink:href="#DejaVuSans-63" x="3142.330078"/>
     <use xlink:href="#DejaVuSans-66" x="3197.310547"/>
     <use xlink:href="#DejaVuSans-2e" x="3225.265625"/>
     <use xlink:href="#DejaVuSans-63" x="3257.052734"/>
     <use xlink:href="#DejaVuSans-68" x="3312.033203"/>
     <use xlink:href="#DejaVuSans-61" x="3375.412109"/>
     <use xlink:href="#DejaVuSans-6e" x="3436.691406"/>
     <use xlink:href="#DejaVuSans-6e" x="3500.070312"/>
     <use xlink:href="#DejaVuSans-65" x="3563.449219"/>
     <use xlink:href="#DejaVuSans-6c" x="3624.972656"/>
     <use xlink:href="#DejaVuSans-41" x="3652.755859"/>
     <use xlink:href="#DejaVuSans-63" x="3719.414062"/>
     <use xlink:href="#DejaVuSans-63" x="3774.394531"/>
     <use xlink:href="#DejaVuSans-65" x="3829.375"/>
     <use xlink:href="#DejaVuSans-73" x="3890.898438"/>
     <use xlink:href="#DejaVuSans-73" x="3942.998047"/>
     <use xlink:href="#DejaVuSans-2e" x="3995.097656"/>
     <use xlink:href="#DejaVuSans-63" x="4026.884766"/>
     <use xlink:href="#DejaVuSans-6f" x="4081.865234"/>
     <use xlink:href="#DejaVuSans-6e" x="4143.046875"/>
     <use xlink:href="#DejaVuSans-74" x="4206.425781"/>
     <use xlink:href="#DejaVuSans-65" x="4245.634766"/>
     <use xlink:href="#DejaVuSans-6e" x="4307.158203"/>
     <use xlink:href="#DejaVuSans-74" x="4370.537109"/>
     <use xlink:href="#DejaVuSans-69" x="4409.746094"/>
     <use xlink:href="#DejaVuSans-6f" x="4437.529297"/>
     <use xlink:href="#DejaVuSans-6e" x="4498.710938"/>
     <use xlink:href="#DejaVuSans-29" x="4562.089844"/>
    </g>
   </g>
   <g id="legend_1">
    <g id="patch_7">
     <path d="M 576.717187 145.299062 
L 702.2 145.299062 
Q 704.2 145.299062 704.2 143.299062 
L 704.2 129.620937 
Q 704.2 127.620937 702.2 127.620937 
L 576.717187 127.620937 
Q 574.717187 127.620937 574.717187 129.620937 
L 574.717187 143.299062 
Q 574.717187 145.299062 576.717187 145.299062 
z
" style="fill: #ffffff; opacity: 0.8; stroke: #cccccc; stroke-linejoin: miter"/>
    </g>
    <g id="line2d_24">
     <path d="M 578.717187 135.719375 
L 588.717187 135.719375 
L 598.717187 135.719375 
" style="fill: none; stroke: #1f77b4; stroke-width: 1.5; stroke-linecap: square"/>
    </g>
    <g id="text_15">
     <!-- value per sample -->
     <g transform="translate(606.717187 139.219375) scale(0.1 -0.1)">
      <defs>
       <path id="DejaVuSans-394" d="M 2188 4044 
L 906 525 
L 3472 525 
L 2188 4044 
z
M 50 0 
L 1831 4666 
L 2547 4666 
L 4325 0 
L 50 0 
z
" transform="scale(0.015625)"/>
       <path id="DejaVuSans-70" d="M 1159 525 
L 1159 -1331 
L 581 -1331 
L 581 3500 
L 1159 3500 
L 1159 2969 
Q 1341 3281 1617 3432 
Q 1894 3584 2278 3584 
Q 2916 3584 3314 3078 
Q 3713 2572 3713 1747 
Q 3713 922 3314 415 
Q 2916 -91 2278 -91 
Q 1894 -91 1617 61 
Q 1341 213 1159 525 
z
M 3116 1747 
Q 3116 2381 2855 2742 
Q 2594 3103 2138 3103 
Q 1681 3103 1420 2742 
Q 1159 2381 1159 1747 
Q 1159 1113 1420 752 
Q 1681 391 2138 391 
Q 2594 391 2855 752 
Q 3116 1113 3116 1747 
z
" transform="scale(0.015625)"/>
      </defs>
      <use xlink:href="#DejaVuSans-394"/>
      <use xlink:href="#DejaVuSans-76" x="68.408203"/>
      <use xlink:href="#DejaVuSans-61" x="127.587891"/>
      <use xlink:href="#DejaVuSans-6c" x="188.867188"/>
      <use xlink:href="#DejaVuSans-75" x="216.650391"/>
      <use xlink:href="#DejaVuSans-65" x="280.029297"/>
      <use xlink:href="#DejaVuSans-20" x="341.552734"/>
      <use xlink:href="#DejaVuSans-70" x="373.339844"/>
      <use xlink:href="#DejaVuSans-65" x="436.816406"/>
      <use xlink:href="#DejaVuSans-72" x="498.339844"/>
      <use xlink:href="#DejaVuSans-20" x="539.453125"/>
      <use xlink:href="#DejaVuSans-73" x="571.240234"/>
      <use xlink:href="#DejaVuSans-61" x="623.339844"/>
      <use xlink:href="#DejaVuSans-6d" x="684.619141"/>
      <use xlink:href="#DejaVuSans-70" x="782.03125"/>
      <use xlink:href="#DejaVuSans-6c" x="845.507812"/>
      <use xlink:href="#DejaVuSans-65" x="873.291016"/>
     </g>
    </g>
   </g>
  </g>
 </g>
 <defs>
  <clipPath id="p9b7e3b616c">
   <rect x="54.02" y="26.88" width="655.18" height="219.16"/>
  </clipPath>
 </defs>
</svg>
