<?xml version="1.0" encoding="utf-8" standalone="no"?>
<!DOCTYPE svg PUBLIC "-//W3C//DTD SVG 1.1//EN"
  "http://www.w3.org/Graphics/SVG/1.1/DTD/svg11.dtd">
<svg xmlns:xlink="http://www.w3.org/1999/xlink" width="720pt" height="288pt" viewBox="0 0 720 288" xmlns="http://www.w3.org/2000/svg" version="1.1">
 <metadata>
  <rdf:RDF xmlns:dc="http://purl.org/dc/elements/1.1/" xmlns:cc="http://creativecommons.org/ns#" xmlns:rdf="http://www.w3.org/1999/02/22-rdf-syntax-ns#">
   <cc:Work>
    <dc:type rdf:resource="http://purl.org/dc/dcmitype/StillImage"/>
    <dc:date>2025-07-27T15:08:42.526988</dc:date>
    <dc:format>image/svg+xml</dc:format>
    <dc:creator>
     <cc:Agent>
      <dc:title>Matplotlib v3.9.2, https://matplotlib.org/</dc:title>
     </cc:Agent>
    </dc:creator>
   </cc:Work>
  </rdf:RDF>
 </metadata>
 <defs>
  <style type="text/css">*{stroke-linejoin: round; stroke-linecap: butt}</style>
 </defs>
 <g id="figure_1">
  <g id="patch_1">
   <path d="M 0 288 
L 720 288 
L 720 0 
L 0 0 
z
" style="fill: #ffffff"/>
  </g>
  <g id="axes_1">
   <g id="patch_2">
    <path d="M 56.09 246.04 
L 709.2 246.04 
L 709.2 37.8 
L 56.09 37.8 
z
" style="fill: #ffffff"/>
   </g>
   <g id="matplotlib.axis_1">
    <g id="xtick_1">
     <g id="line2d_1">
      <path d="M 84.11442 246.04 
L 84.11442 37.8 
" clip-path="url(#pef67988f24)" style="fill: none; stroke: #b0b0b0; stroke-width: 0.8; stroke-linecap: square"/>
     </g>
     <g id="line2d_2">
      <defs>
       <path id="m5e92f46f1a" d="M 0 0 
L 0 3.5 
" style="stroke: #000000; stroke-width: 0.8"/>
      </defs>
      <g>
       <use xlink:href="#m5e92f46f1a" x="84.11442" y="246.04" style="stroke: #000000; stroke-width: 0.8"/>
      </g>
     </g>
     <g id="text_1">
      <!-- 0 -->
      <g transform="translate(80.93317 260.638438) scale(0.1 -0.1)">
       <defs>
        <path id="DejaVuSans-30" d="M 2034 4250 
Q 1547 4250 1301 3770 
Q 1056 3291 1056 2328 
Q 1056 1369 1301 889 
Q 1547 409 2034 409 
Q 2525 409 2770 889 
Q 3016 1369 3016 2328 
Q 3016 3291 2770 3770 
Q 2525 4250 2034 4250 
z
M 2034 4750 
Q 2819 4750 3233 4129 
Q 3647 3509 3647 2328 
Q 3647 1150 3233 529 
Q 2819 -91 2034 -91 
Q 1250 -91 836 529 
Q 422 1150 422 2328 
Q 422 3509 836 4129 
Q 1250 4750 2034 4750 
z
" transform="scale(0.015625)"/>
       </defs>
       <use xlink:href="#DejaVuSans-30"/>
      </g>
     </g>
    </g>
    <g id="xtick_2">
     <g id="line2d_3">
      <path d="M 228.670786 246.04 
L 228.670786 37.8 
" clip-path="url(#pef67988f24)" style="fill: none; stroke: #b0b0b0; stroke-width: 0.8; stroke-linecap: square"/>
     </g>
     <g id="line2d_4">
      <g>
       <use xlink:href="#m5e92f46f1a" x="228.670786" y="246.04" style="stroke: #000000; stroke-width: 0.8"/>
      </g>
     </g>
     <g id="text_2">
      <!-- 10000 -->
      <g transform="translate(212.764536 260.638438) scale(0.1 -0.1)">
       <defs>
        <path id="DejaVuSans-31" d="M 794 531 
L 1825 531 
L 1825 4091 
L 703 3866 
L 703 4441 
L 1819 4666 
L 2450 4666 
L 2450 531 
L 3481 531 
L 3481 0 
L 794 0 
L 794 531 
z
" transform="scale(0.015625)"/>
       </defs>
       <use xlink:href="#DejaVuSans-31"/>
       <use xlink:href="#DejaVuSans-30" x="63.623047"/>
       <use xlink:href="#DejaVuSans-30" x="127.246094"/>
       <use xlink:href="#DejaVuSans-30" x="190.869141"/>
       <use xlink:href="#DejaVuSans-30" x="254.492188"/>
      </g>
     </g>
    </g>
    <g id="xtick_3">
     <g id="line2d_5">
      <path d="M 373.227153 246.04 
L 373.227153 37.8 
" clip-path="url(#pef67988f24)" style="fill: none; stroke: #b0b0b0; stroke-width: 0.8; stroke-linecap: square"/>
     </g>
     <g id="line2d_6">
      <g>
       <use xlink:href="#m5e92f46f1a" x="373.227153" y="246.04" style="stroke: #000000; stroke-width: 0.8"/>
      </g>
     </g>
     <g id="text_3">
      <!-- 20000 -->
      <g transform="translate(357.320903 260.638438) scale(0.1 -0.1)">
       <defs>
        <path id="DejaVuSans-32" d="M 1228 531 
L 3431 531 
L 3431 0 
L 469 0 
L 469 531 
Q 828 903 1448 1529 
Q 2069 2156 2228 2338 
Q 2531 2678 2651 2914 
Q 2772 3150 2772 3378 
Q 2772 3750 2511 3984 
Q 2250 4219 1831 4219 
Q 1534 4219 1204 4116 
Q 875 4013 500 3803 
L 500 4441 
Q 881 4594 1212 4672 
Q 1544 4750 1819 4750 
Q 2544 4750 2975 4387 
Q 3406 4025 3406 3419 
Q 3406 3131 3298 2873 
Q 3191 2616 2906 2266 
Q 2828 2175 2409 1742 
Q 1991 1309 1228 531 
z
" transform="scale(0.015625)"/>
       </defs>
       <use xlink:href="#DejaVuSans-32"/>
       <use xlink:href="#DejaVuSans-30" x="63.623047"/>
       <use xlink:href="#DejaVuSans-30" x="127.246094"/>
       <use xlink:href="#DejaVuSans-30" x="190.869141"/>
       <use xlink:href="#DejaVuSans-30" x="254.492188"/>
      </g>
     </g>
    </g>
    <g id="xtick_4">
     <g id="line2d_7">
      <path d="M 517.783519 246.04 
L 517.783519 37.8 
" clip-path="url(#pef67988f24)" style="fill: none; stroke: #b0b0b0; stroke-width: 0.8; stroke-linecap: square"/>
     </g>
     <g id="line2d_8">
      <g>
       <use xlink:href="#m5e92f46f1a" x="517.783519" y="246.04" style="stroke: #000000; stroke-width: 0.8"/>
      </g>
     </g>
     <g id="text_4">
      <!-- 30000 -->
      <g transform="translate(501.877269 260.638438) scale(0.1 -0.1)">
       <defs>
        <path id="DejaVuSans-33" d="M 2597 2516 
Q 3050 2419 3304 2112 
Q 3559 1806 3559 1356 
Q 3559 666 3084 287 
Q 2609 -91 1734 -91 
Q 1441 -91 1130 -33 
Q 819 25 488 141 
L 488 750 
Q 750 597 1062 519 
Q 1375 441 1716 441 
Q 2309 441 2620 675 
Q 2931 909 2931 1356 
Q 2931 1769 2642 2001 
Q 2353 2234 1838 2234 
L 1294 2234 
L 1294 2753 
L 1863 2753 
Q 2328 2753 2575 2939 
Q 2822 3125 2822 3475 
Q 2822 3834 2567 4026 
Q 2313 4219 1838 4219 
Q 1578 4219 1281 4162 
Q 984 4106 628 3988 
L 628 4550 
Q 988 4650 1302 4700 
Q 1616 4750 1894 4750 
Q 2613 4750 3031 4423 
Q 3450 4097 3450 3541 
Q 3450 3153 3228 2886 
Q 3006 2619 2597 2516 
z
" transform="scale(0.015625)"/>
       </defs>
       <use xlink:href="#DejaVuSans-33"/>
       <use xlink:href="#DejaVuSans-30" x="63.623047"/>
       <use xlink:href="#DejaVuSans-30" x="127.246094"/>
       <use xlink:href="#DejaVuSans-30" x="190.869141"/>
       <use xlink:href="#DejaVuSans-30" x="254.492188"/>
      </g>
     </g>
    </g>
    <g id="xtick_5">
     <g id="line2d_9">
      <path d="M 662.339885 246.04 
L 662.339885 37.8 
" clip-path="url(#pef67988f24)" style="fill: none; stroke: #b0b0b0; stroke-width: 0.8; stroke-linecap: square"/>
     </g>
     <g id="line2d_10">
      <g>
       <use xlink:href="#m5e92f46f1a" x="662.339885" y="246.04" style="stroke: #000000; stroke-width: 0.8"/>
      </g>
     </g>
     <g id="text_5">
      <!-- 40000 -->
      <g transform="translate(646.433635 260.638438) scale(0.1 -0.1)">
       <defs>
        <path id="DejaVuSans-34" d="M 2419 4116 
L 825 1625 
L 2419 1625 
L 2419 4116 
z
M 2253 4666 
L 3047 4666 
L 3047 1625 
L 3713 1625 
L 3713 1100 
L 3047 1100 
L 3047 0 
L 2419 0 
L 2419 1100 
L 313 1100 
L 313 1709 
L 2253 4666 
z
" transform="scale(0.015625)"/>
       </defs>
       <use xlink:href="#DejaVuSans-34"/>
       <use xlink:href="#DejaVuSans-30" x="63.623047"/>
       <use xlink:href="#DejaVuSans-30" x="127.246094"/>
       <use xlink:href="#DejaVuSans-30" x="190.869141"/>
       <use xlink:href="#DejaVuSans-30" x="254.492188"/>
      </g>
     </g>
    </g>
    <g id="text_6">
     <!-- Time (s) -->
     <g transform="translate(362.316094 274.316562) scale(0.1 -0.1)">
      <defs>
       <path id="DejaVuSans-54" d="M -19 4666 
L 3928 4666 
L 3928 4134 
L 2272 4134 
L 2272 0 
L 1638 0 
L 1638 4134 
L -19 4134 
L -19 4666 
z
" transform="scale(0.015625)"/>
       <path id="DejaVuSans-69" d="M 603 3500 
L 1178 3500 
L 1178 0 
L 603 0 
L 603 3500 
z
M 603 4863 
L 1178 4863 
L 1178 4134 
L 603 4134 
L 603 4863 
z
" transform="scale(0.015625)"/>
       <path id="DejaVuSans-6d" d="M 3328 2828 
Q 3544 3216 3844 3400 
Q 4144 3584 4550 3584 
Q 5097 3584 5394 3201 
Q 5691 2819 5691 2113 
L 5691 0 
L 5113 0 
L 5113 2094 
Q 5113 2597 4934 2840 
Q 4756 3084 4391 3084 
Q 3944 3084 3684 2787 
Q 3425 2491 3425 1978 
L 3425 0 
L 2847 0 
L 2847 2094 
Q 2847 2600 2669 2842 
Q 2491 3084 2119 3084 
Q 1678 3084 1418 2786 
Q 1159 2488 1159 1978 
L 1159 0 
L 581 0 
L 581 3500 
L 1159 3500 
L 1159 2956 
Q 1356 3278 1631 3431 
Q 1906 3584 2284 3584 
Q 2666 3584 2933 3390 
Q 3200 3197 3328 2828 
z
" transform="scale(0.015625)"/>
       <path id="DejaVuSans-65" d="M 3597 1894 
L 3597 1613 
L 953 1613 
Q 991 1019 1311 708 
Q 1631 397 2203 397 
Q 2534 397 2845 478 
Q 3156 559 3463 722 
L 3463 178 
Q 3153 47 2828 -22 
Q 2503 -91 2169 -91 
Q 1331 -91 842 396 
Q 353 884 353 1716 
Q 353 2575 817 3079 
Q 1281 3584 2069 3584 
Q 2775 3584 3186 3129 
Q 3597 2675 3597 1894 
z
M 3022 2063 
Q 3016 2534 2758 2815 
Q 2500 3097 2075 3097 
Q 1594 3097 1305 2825 
Q 1016 2553 972 2059 
L 3022 2063 
z
" transform="scale(0.015625)"/>
       <path id="DejaVuSans-20" transform="scale(0.015625)"/>
       <path id="DejaVuSans-28" d="M 1984 4856 
Q 1566 4138 1362 3434 
Q 1159 2731 1159 2009 
Q 1159 1288 1364 580 
Q 1569 -128 1984 -844 
L 1484 -844 
Q 1016 -109 783 600 
Q 550 1309 550 2009 
Q 550 2706 781 3412 
Q 1013 4119 1484 4856 
L 1984 4856 
z
" transform="scale(0.015625)"/>
       <path id="DejaVuSans-73" d="M 2834 3397 
L 2834 2853 
Q 2591 2978 2328 3040 
Q 2066 3103 1784 3103 
Q 1356 3103 1142 2972 
Q 928 2841 928 2578 
Q 928 2378 1081 2264 
Q 1234 2150 1697 2047 
L 1894 2003 
Q 2506 1872 2764 1633 
Q 3022 1394 3022 966 
Q 3022 478 2636 193 
Q 2250 -91 1575 -91 
Q 1294 -91 989 -36 
Q 684 19 347 128 
L 347 722 
Q 666 556 975 473 
Q 1284 391 1588 391 
Q 1994 391 2212 530 
Q 2431 669 2431 922 
Q 2431 1156 2273 1281 
Q 2116 1406 1581 1522 
L 1381 1569 
Q 847 1681 609 1914 
Q 372 2147 372 2553 
Q 372 3047 722 3315 
Q 1072 3584 1716 3584 
Q 2034 3584 2315 3537 
Q 2597 3491 2834 3397 
z
" transform="scale(0.015625)"/>
       <path id="DejaVuSans-29" d="M 513 4856 
L 1013 4856 
Q 1481 4119 1714 3412 
Q 1947 2706 1947 2009 
Q 1947 1309 1714 600 
Q 1481 -109 1013 -844 
L 513 -844 
Q 928 -128 1133 580 
Q 1338 1288 1338 2009 
Q 1338 2731 1133 3434 
Q 928 4138 513 4856 
z
" transform="scale(0.015625)"/>
      </defs>
      <use xlink:href="#DejaVuSans-54"/>
      <use xlink:href="#DejaVuSans-69" x="57.958984"/>
      <use xlink:href="#DejaVuSans-6d" x="85.742188"/>
      <use xlink:href="#DejaVuSans-65" x="183.154297"/>
      <use xlink:href="#DejaVuSans-20" x="244.677734"/>
      <use xlink:href="#DejaVuSans-28" x="276.464844"/>
      <use xlink:href="#DejaVuSans-73" x="315.478516"/>
      <use xlink:href="#DejaVuSans-29" x="367.578125"/>
     </g>
    </g>
   </g>
   <g id="matplotlib.axis_2">
    <g id="ytick_1">
     <g id="line2d_11">
      <path d="M 56.09 240.75 
L 709.2 240.75 
" clip-path="url(#pef67988f24)" style="fill: none; stroke: #b0b0b0; stroke-width: 0.8; stroke-linecap: square"/>
     </g>
     <g id="line2d_12">
      <defs>
       <path id="m199bc61893" d="M 0 0 
L -3.5 0 
" style="stroke: #000000; stroke-width: 0.8"/>
      </defs>
      <g>
       <use xlink:href="#m199bc61893" x="56.09" y="240.75" style="stroke: #000000; stroke-width: 0.8"/>
      </g>
     </g>
     <g id="text_7">
      <!-- −0.6 -->
      <g transform="translate(24.807188 244.549219) scale(0.1 -0.1)">
       <defs>
        <path id="DejaVuSans-2212" d="M 678 2272 
L 4684 2272 
L 4684 1741 
L 678 1741 
L 678 2272 
z
" transform="scale(0.015625)"/>
        <path id="DejaVuSans-2e" d="M 684 794 
L 1344 794 
L 1344 0 
L 684 0 
L 684 794 
z
" transform="scale(0.015625)"/>
        <path id="DejaVuSans-36" d="M 2113 2584 
Q 1688 2584 1439 2293 
Q 1191 2003 1191 1497 
Q 1191 994 1439 701 
Q 1688 409 2113 409 
Q 2538 409 2786 701 
Q 3034 994 3034 1497 
Q 3034 2003 2786 2293 
Q 2538 2584 2113 2584 
z
M 3366 4563 
L 3366 3988 
Q 3128 4100 2886 4159 
Q 2644 4219 2406 4219 
Q 1781 4219 1451 3797 
Q 1122 3375 1075 2522 
Q 1259 2794 1537 2939 
Q 1816 3084 2150 3084 
Q 2853 3084 3261 2657 
Q 3669 2231 3669 1497 
Q 3669 778 3244 343 
Q 2819 -91 2113 -91 
Q 1303 -91 875 529 
Q 447 1150 447 2328 
Q 447 3434 972 4092 
Q 1497 4750 2381 4750 
Q 2619 4750 2861 4703 
Q 3103 4656 3366 4563 
z
" transform="scale(0.015625)"/>
       </defs>
       <use xlink:href="#DejaVuSans-2212"/>
       <use xlink:href="#DejaVuSans-30" x="83.789062"/>
       <use xlink:href="#DejaVuSans-2e" x="147.412109"/>
       <use xlink:href="#DejaVuSans-36" x="179.199219"/>
      </g>
     </g>
    </g>
    <g id="ytick_2">
     <g id="line2d_13">
      <path d="M 56.09 214.25 
L 709.2 214.25 
" clip-path="url(#pef67988f24)" style="fill: none; stroke: #b0b0b0; stroke-width: 0.8; stroke-linecap: square"/>
     </g>
     <g id="line2d_14">
      <g>
       <use xlink:href="#m199bc61893" x="56.09" y="214.25" style="stroke: #000000; stroke-width: 0.8"/>
      </g>
     </g>
     <g id="text_8">
      <!-- −0.4 -->
      <g transform="translate(24.807188 218.049219) scale(0.1 -0.1)">
       <use xlink:href="#DejaVuSans-2212"/>
       <use xlink:href="#DejaVuSans-30" x="83.789062"/>
       <use xlink:href="#DejaVuSans-2e" x="147.412109"/>
       <use xlink:href="#DejaVuSans-34" x="179.199219"/>
      </g>
     </g>
    </g>
    <g id="ytick_3">
     <g id="line2d_15">
      <path d="M 56.09 187.5 
L 709.2 187.5 
" clip-path="url(#pef67988f24)" style="fill: none; stroke: #b0b0b0; stroke-width: 0.8; stroke-linecap: square"/>
     </g>
     <g id="line2d_16">
      <g>
       <use xlink:href="#m199bc61893" x="56.09" y="187.5" style="stroke: #000000; stroke-width: 0.8"/>
      </g>
     </g>
     <g id="text_9">
      <!-- −0.2 -->
      <g transform="translate(24.807188 191.299219) scale(0.1 -0.1)">
       <use xlink:href="#DejaVuSans-2212"/>
       <use xlink:href="#DejaVuSans-30" x="83.789062"/>
       <use xlink:href="#DejaVuSans-2e" x="147.412109"/>
       <use xlink:href="#DejaVuSans-32" x="179.199219"/>
      </g>
     </g>
    </g>
    <g id="ytick_4">
     <g id="line2d_17">
      <path d="M 56.09 161 
L 709.2 161 
" clip-path="url(#pef67988f24)" style="fill: none; stroke: #b0b0b0; stroke-width: 0.8; stroke-linecap: square"/>
     </g>
     <g id="line2d_18">
      <g>
       <use xlink:href="#m199bc61893" x="56.09" y="161" style="stroke: #000000; stroke-width: 0.8"/>
      </g>
     </g>
     <g id="text_10">
      <!-- 0.0 -->
      <g transform="translate(33.186875 164.799219) scale(0.1 -0.1)">
       <use xlink:href="#DejaVuSans-30"/>
       <use xlink:href="#DejaVuSans-2e" x="63.623047"/>
       <use xlink:href="#DejaVuSans-30" x="95.410156"/>
      </g>
     </g>
    </g>
    <g id="ytick_5">
     <g id="line2d_19">
      <path d="M 56.09 134.25 
L 709.2 134.25 
" clip-path="url(#pef67988f24)" style="fill: none; stroke: #b0b0b0; stroke-width: 0.8; stroke-linecap: square"/>
     </g>
     <g id="line2d_20">
      <g>
       <use xlink:href="#m199bc61893" x="56.09" y="134.25" style="stroke: #000000; stroke-width: 0.8"/>
      </g>
     </g>
     <g id="text_11">
      <!-- 0.2 -->
      <g transform="translate(33.186875 138.049219) scale(0.1 -0.1)">
       <use xlink:href="#DejaVuSans-30"/>
       <use xlink:href="#DejaVuSans-2e" x="63.623047"/>
       <use xlink:href="#DejaVuSans-32" x="95.410156"/>
      </g>
     </g>
    </g>
    <g id="ytick_6">
     <g id="line2d_21">
      <path d="M 56.09 107.75 
L 709.2 107.75 
" clip-path="url(#pef67988f24)" style="fill: none; stroke: #b0b0b0; stroke-width: 0.8; stroke-linecap: square"/>
     </g>
     <g id="line2d_22">
      <g>
       <use xlink:href="#m199bc61893" x="56.09" y="107.75" style="stroke: #000000; stroke-width: 0.8"/>
      </g>
     </g>
     <g id="text_12">
      <!-- 0.4 -->
      <g transform="translate(33.186875 111.549219) scale(0.1 -0.1)">
       <use xlink:href="#DejaVuSans-30"/>
       <use xlink:href="#DejaVuSans-2e" x="63.623047"/>
       <use xlink:href="#DejaVuSans-34" x="95.410156"/>
      </g>
     </g>
    </g>
    <g id="ytick_7">
     <g id="line2d_23">
      <path d="M 56.09 81 
L 709.2 81 
" clip-path="url(#pef67988f24)" style="fill: none; stroke: #b0b0b0; stroke-width: 0.8; stroke-linecap: square"/>
     </g>
     <g id="line2d_24">
      <g>
       <use xlink:href="#m199bc61893" x="56.09" y="81" style="stroke: #000000; stroke-width: 0.8"/>
      </g>
     </g>
     <g id="text_13">
      <!-- 0.6 -->
      <g transform="translate(33.186875 84.799219) scale(0.1 -0.1)">
       <use xlink:href="#DejaVuSans-30"/>
       <use xlink:href="#DejaVuSans-2e" x="63.623047"/>
       <use xlink:href="#DejaVuSans-36" x="95.410156"/>
      </g>
     </g>
    </g>
    <g id="ytick_8">
     <g id="line2d_25">
      <path d="M 56.09 54.5 
L 709.2 54.5 
" clip-path="url(#pef67988f24)" style="fill: none; stroke: #b0b0b0; stroke-width: 0.8; stroke-linecap: square"/>
     </g>
     <g id="line2d_26">
      <g>
       <use xlink:href="#m199bc61893" x="56.09" y="54.5" style="stroke: #000000; stroke-width: 0.8"/>
      </g>
     </g>
     <g id="text_14">
      <!-- 0.8 -->
      <g transform="translate(33.186875 58.299219) scale(0.1 -0.1)">
       <defs>
        <path id="DejaVuSans-38" d="M 2034 2216 
Q 1584 2216 1326 1975 
Q 1069 1734 1069 1313 
Q 1069 891 1326 650 
Q 1584 409 2034 409 
Q 2484 409 2743 651 
Q 3003 894 3003 1313 
Q 3003 1734 2745 1975 
Q 2488 2216 2034 2216 
z
M 1403 2484 
Q 997 2584 770 2862 
Q 544 3141 544 3541 
Q 544 4100 942 4425 
Q 1341 4750 2034 4750 
Q 2731 4750 3128 4425 
Q 3525 4100 3525 3541 
Q 3525 3141 3298 2862 
Q 3072 2584 2669 2484 
Q 3125 2378 3379 2068 
Q 3634 1759 3634 1313 
Q 3634 634 3220 271 
Q 2806 -91 2034 -91 
Q 1263 -91 848 271 
Q 434 634 434 1313 
Q 434 1759 690 2068 
Q 947 2378 1403 2484 
z
M 1172 3481 
Q 1172 3119 1398 2916 
Q 1625 2713 2034 2713 
Q 2441 2713 2670 2916 
Q 2900 3119 2900 3481 
Q 2900 3844 2670 4047 
Q 2441 4250 2034 4250 
Q 1625 4250 1398 4047 
Q 1172 3844 1172 3481 
z
" transform="scale(0.015625)"/>
       </defs>
       <use xlink:href="#DejaVuSans-30"/>
       <use xlink:href="#DejaVuSans-2e" x="63.623047"/>
       <use xlink:href="#DejaVuSans-38" x="95.410156"/>
      </g>
     </g>
    </g>
    <g id="text_15">
     <!-- Delta Value -->
     <g transform="translate(18.7275 170.580156) rotate(-90) scale(0.1 -0.1)">
      <defs>
       <path id="DejaVuSans-44" d="M 1259 4147 
L 1259 519 
L 2022 519 
Q 2988 519 3436 956 
Q 3884 1394 3884 2338 
Q 3884 3275 3436 3711 
Q 2988 4147 2022 4147 
L 1259 4147 
z
M 628 4666 
L 1925 4666 
Q 3281 4666 3915 4102 
Q 4550 3538 4550 2338 
Q 4550 1131 3912 565 
Q 3275 0 1925 0 
L 628 0 
L 628 4666 
z
" transform="scale(0.015625)"/>
       <path id="DejaVuSans-6c" d="M 603 4863 
L 1178 4863 
L 1178 0 
L 603 0 
L 603 4863 
z
" transform="scale(0.015625)"/>
       <path id="DejaVuSans-74" d="M 1172 4494 
L 1172 3500 
L 2356 3500 
L 2356 3053 
L 1172 3053 
L 1172 1153 
Q 1172 725 1289 603 
Q 1406 481 1766 481 
L 2356 481 
L 2356 0 
L 1766 0 
Q 1100 0 847 248 
Q 594 497 594 1153 
L 594 3053 
L 172 3053 
L 172 3500 
L 594 3500 
L 594 4494 
L 1172 4494 
z
" transform="scale(0.015625)"/>
       <path id="DejaVuSans-61" d="M 2194 1759 
Q 1497 1759 1228 1600 
Q 959 1441 959 1056 
Q 959 750 1161 570 
Q 1363 391 1709 391 
Q 2188 391 2477 730 
Q 2766 1069 2766 1631 
L 2766 1759 
L 2194 1759 
z
M 3341 1997 
L 3341 0 
L 2766 0 
L 2766 531 
Q 2569 213 2275 61 
Q 1981 -91 1556 -91 
Q 1019 -91 701 211 
Q 384 513 384 1019 
Q 384 1609 779 1909 
Q 1175 2209 1959 2209 
L 2766 2209 
L 2766 2266 
Q 2766 2663 2505 2880 
Q 2244 3097 1772 3097 
Q 1472 3097 1187 3025 
Q 903 2953 641 2809 
L 641 3341 
Q 956 3463 1253 3523 
Q 1550 3584 1831 3584 
Q 2591 3584 2966 3190 
Q 3341 2797 3341 1997 
z
" transform="scale(0.015625)"/>
       <path id="DejaVuSans-56" d="M 1831 0 
L 50 4666 
L 709 4666 
L 2188 738 
L 3669 4666 
L 4325 4666 
L 2547 0 
L 1831 0 
z
" transform="scale(0.015625)"/>
       <path id="DejaVuSans-75" d="M 544 1381 
L 544 3500 
L 1119 3500 
L 1119 1403 
Q 1119 906 1312 657 
Q 1506 409 1894 409 
Q 2359 409 2629 706 
Q 2900 1003 2900 1516 
L 2900 3500 
L 3475 3500 
L 3475 0 
L 2900 0 
L 2900 538 
Q 2691 219 2414 64 
Q 2138 -91 1772 -91 
Q 1169 -91 856 284 
Q 544 659 544 1381 
z
M 1991 3584 
L 1991 3584 
z
" transform="scale(0.015625)"/>
      </defs>
      <use xlink:href="#DejaVuSans-44"/>
      <use xlink:href="#DejaVuSans-65" x="77.001953"/>
      <use xlink:href="#DejaVuSans-6c" x="138.525391"/>
      <use xlink:href="#DejaVuSans-74" x="166.308594"/>
      <use xlink:href="#DejaVuSans-61" x="205.517578"/>
      <use xlink:href="#DejaVuSans-20" x="266.796875"/>
      <use xlink:href="#DejaVuSans-56" x="298.583984"/>
      <use xlink:href="#DejaVuSans-61" x="359.242188"/>
      <use xlink:href="#DejaVuSans-6c" x="420.521484"/>
      <use xlink:href="#DejaVuSans-75" x="448.304688"/>
      <use xlink:href="#DejaVuSans-65" x="511.683594"/>
     </g>
    </g>
    <g id="text_16">
     <!-- 1e−14+1e−1 -->
     <g transform="translate(56.09 34.8) scale(0.1 -0.1)">
      <defs>
       <path id="DejaVuSans-2b" d="M 2944 4013 
L 2944 2272 
L 4684 2272 
L 4684 1741 
L 2944 1741 
L 2944 0 
L 2419 0 
L 2419 1741 
L 678 1741 
L 678 2272 
L 2419 2272 
L 2419 4013 
L 2944 4013 
z
" transform="scale(0.015625)"/>
      </defs>
      <use xlink:href="#DejaVuSans-31"/>
      <use xlink:href="#DejaVuSans-65" x="63.623047"/>
      <use xlink:href="#DejaVuSans-2212" x="125.146484"/>
      <use xlink:href="#DejaVuSans-31" x="208.935547"/>
      <use xlink:href="#DejaVuSans-34" x="272.558594"/>
      <use xlink:href="#DejaVuSans-2b" x="336.181641"/>
      <use xlink:href="#DejaVuSans-31" x="419.970703"/>
      <use xlink:href="#DejaVuSans-65" x="483.59375"/>
      <use xlink:href="#DejaVuSans-2212" x="545.117188"/>
      <use xlink:href="#DejaVuSans-31" x="628.90625"/>
     </g>
    </g>
   </g>
   <g id="line2d_27">
    <path d="M 85.776818 161 
L 85.776818 161.25 
L 85.776818 160.5 
L 87.424761 161.25 
L 87.424761 161.25 
L 89.578651 161.25 
L 89.578651 159.75 
L 89.578651 161.25 
L 91.226593 161.25 
L 91.226593 159.75 
L 92.917903 162.75 
L 92.917903 159.75 
L 92.917903 162.75 
L 97.081126 159.75 
L 97.081126 159.75 
L 98.541145 162.75 
L 98.541145 159.75 
L 98.541145 162.75 
L 99.986709 159.75 
L 99.986709 159.75 
L 101.446728 159.75 
L 101.446728 165.75 
L 101.446728 159.75 
L 104.381223 159.75 
L 104.381223 165.75 
L 104.381223 159.75 
L 107.286805 159.75 
L 107.286805 165.75 
L 107.286805 159.75 
L 110.2213 159.75 
L 110.2213 165.75 
L 110.2213 159.75 
L 111.666863 159.75 
L 111.666863 165.75 
L 113.126883 154 
L 113.126883 165.75 
L 113.126883 154 
L 114.572446 165.75 
L 114.572446 165.75 
L 116.032466 154 
L 116.032466 165.75 
L 116.032466 154 
L 117.506941 165.75 
L 117.506941 165.75 
L 118.96696 154 
L 118.96696 165.75 
L 118.96696 154 
L 120.412524 165.75 
L 120.412524 165.75 
L 121.872543 154 
L 121.872543 165.75 
L 121.872543 154 
L 123.318107 165.75 
L 123.318107 165.75 
L 124.807037 154 
L 124.807037 165.75 
L 124.807037 154 
L 126.252601 165.75 
L 126.252601 165.75 
L 127.71262 154 
L 127.71262 165.75 
L 127.71262 154 
L 129.158184 165.75 
L 129.158184 165.75 
L 130.618203 154 
L 130.618203 165.75 
L 130.618203 154 
L 132.092678 165.75 
L 132.092678 165.75 
L 133.552697 154 
L 133.552697 165.75 
L 133.552697 154 
L 134.998261 165.75 
L 134.998261 165.75 
L 136.45828 165.75 
L 136.45828 142 
L 136.45828 165.75 
L 139.392774 165.75 
L 139.392774 142 
L 139.392774 165.75 
L 142.298357 165.75 
L 142.298357 142 
L 142.298357 165.75 
L 145.20394 165.75 
L 145.20394 142 
L 145.20394 165.75 
L 148.138435 165.75 
L 148.138435 142 
L 148.138435 165.75 
L 151.044018 165.75 
L 151.044018 142 
L 151.044018 165.75 
L 153.978512 165.75 
L 153.978512 142 
L 153.978512 165.75 
L 156.884095 165.75 
L 156.884095 142 
L 156.884095 165.75 
L 159.789678 165.75 
L 159.789678 142 
L 159.789678 165.75 
L 162.724172 165.75 
L 162.724172 142 
L 162.724172 165.75 
L 165.629755 165.75 
L 165.629755 142 
L 165.629755 165.75 
L 168.564249 165.75 
L 168.564249 142 
L 168.564249 165.75 
L 171.469832 165.75 
L 171.469832 142 
L 171.469832 165.75 
L 174.375415 165.75 
L 174.375415 142 
L 174.375415 165.75 
L 177.309909 165.75 
L 177.309909 142 
L 177.309909 165.75 
L 180.215492 165.75 
L 180.215492 142 
L 180.215492 165.75 
L 181.661056 165.75 
L 181.661056 142 
L 183.149987 189.5 
L 183.149987 142 
L 183.149987 189.5 
L 184.59555 142 
L 184.59555 142 
L 186.05557 189.5 
L 186.05557 142 
L 186.05557 189.5 
L 187.501133 142 
L 187.501133 142 
L 188.961153 189.5 
L 188.961153 142 
L 188.961153 189.5 
L 190.435627 142 
L 190.435627 142 
L 191.895647 189.5 
L 191.895647 142 
L 191.895647 189.5 
L 193.34121 142 
L 193.34121 142 
L 194.80123 189.5 
L 194.80123 142 
L 194.80123 189.5 
L 196.246793 142 
L 196.246793 142 
L 197.735724 189.5 
L 197.735724 142 
L 197.735724 189.5 
L 199.181288 142 
L 199.181288 142 
L 200.641307 189.5 
L 200.641307 142 
L 200.641307 189.5 
L 202.086871 142 
L 202.086871 142 
L 203.54689 189.5 
L 203.54689 142 
L 203.54689 189.5 
L 205.021365 142 
L 205.021365 142 
L 206.481384 189.5 
L 206.481384 142 
L 206.481384 189.5 
L 207.926948 142 
L 207.926948 142 
L 209.386967 189.5 
L 209.386967 142 
L 209.386967 189.5 
L 210.832531 142 
L 210.832531 142 
L 212.321461 189.5 
L 212.321461 142 
L 212.321461 189.5 
L 213.767025 142 
L 213.767025 142 
L 215.227044 189.5 
L 215.227044 142 
L 215.227044 189.5 
L 216.672608 142 
L 216.672608 142 
L 218.132627 189.5 
L 218.132627 142 
L 218.132627 189.5 
L 219.607102 142 
L 219.607102 142 
L 221.067121 189.5 
L 221.067121 142 
L 221.067121 189.5 
L 222.512685 142 
L 222.512685 142 
L 223.972704 189.5 
L 223.972704 142 
L 223.972704 189.5 
L 225.418268 142 
L 225.418268 142 
L 226.907199 189.5 
L 226.907199 142 
L 226.907199 189.5 
L 228.352762 142 
L 228.352762 142 
L 229.812782 189.5 
L 229.812782 142 
L 229.812782 189.5 
L 231.258345 142 
L 231.258345 142 
L 232.718365 189.5 
L 232.718365 142 
L 232.718365 189.5 
L 234.19284 142 
L 234.19284 142 
L 235.652859 189.5 
L 235.652859 142 
L 235.652859 189.5 
L 237.098423 142 
L 237.098423 142 
L 238.558442 189.5 
L 238.558442 142 
L 238.558442 189.5 
L 240.004005 142 
L 240.004005 142 
L 241.492936 189.5 
L 241.492936 142 
L 241.492936 189.5 
L 242.9385 142 
L 242.9385 142 
L 244.398519 189.5 
L 244.398519 142 
L 244.398519 189.5 
L 245.844083 142 
L 245.844083 142 
L 247.304102 189.5 
L 247.304102 142 
L 247.304102 189.5 
L 248.778577 142 
L 248.778577 142 
L 250.238596 189.5 
L 250.238596 142 
L 250.238596 189.5 
L 251.68416 142 
L 251.68416 142 
L 253.144179 189.5 
L 253.144179 142 
L 253.144179 189.5 
L 254.589743 142 
L 254.589743 142 
L 256.020851 189.5 
L 256.020851 142 
L 256.020851 189.5 
L 257.654338 142 
L 257.654338 142 
L 259.316736 189.5 
L 259.316736 142 
L 259.316736 189.5 
L 260.935767 142 
L 260.935767 142 
L 263.118568 189.5 
L 263.118568 142 
L 263.118568 189.5 
L 264.621955 142 
L 264.621955 142 
L 266.428909 189.5 
L 266.428909 142 
L 266.428909 189.5 
L 270.404209 142 
L 270.404209 142 
L 271.89314 189.5 
L 271.89314 142 
L 271.89314 189.5 
L 273.309792 142 
L 273.309792 142 
L 274.827634 189.5 
L 274.827634 142 
L 274.827634 189.5 
L 276.244287 142 
L 276.244287 142 
L 277.733217 189.5 
L 277.733217 142 
L 277.733217 189.5 
L 279.149869 142 
L 279.149869 142 
L 280.6388 142 
L 280.6388 236.75 
L 280.6388 142 
L 283.573294 142 
L 283.573294 236.75 
L 283.573294 142 
L 286.478877 142 
L 286.478877 236.75 
L 286.478877 142 
L 289.413372 142 
L 289.413372 236.75 
L 289.413372 142 
L 292.318954 142 
L 292.318954 236.75 
L 292.318954 142 
L 295.224537 142 
L 295.224537 236.75 
L 295.224537 142 
L 298.159032 142 
L 298.159032 236.75 
L 298.159032 142 
L 301.064615 142 
L 301.064615 236.75 
L 301.064615 142 
L 303.999109 142 
L 303.999109 236.75 
L 303.999109 142 
L 306.904692 142 
L 306.904692 236.75 
L 306.904692 142 
L 309.810275 142 
L 309.810275 236.75 
L 309.810275 142 
L 312.744769 142 
L 312.744769 236.75 
L 312.744769 142 
L 315.650352 142 
L 315.650352 236.75 
L 315.650352 142 
L 318.584846 142 
L 318.584846 236.75 
L 318.584846 142 
L 321.490429 142 
L 321.490429 236.75 
L 321.490429 142 
L 324.396012 142 
L 324.396012 236.75 
L 324.396012 142 
L 327.330506 142 
L 327.330506 236.75 
L 327.330506 142 
L 330.236089 142 
L 330.236089 236.75 
L 330.236089 142 
L 333.170584 142 
L 333.170584 236.75 
L 333.170584 142 
L 336.076167 142 
L 336.076167 236.75 
L 336.076167 142 
L 338.98175 142 
L 338.98175 236.75 
L 338.98175 142 
L 341.916244 142 
L 341.916244 236.75 
L 341.916244 142 
L 344.821827 142 
L 344.821827 236.75 
L 344.821827 142 
L 347.756321 142 
L 347.756321 236.75 
L 347.756321 142 
L 350.661904 142 
L 350.661904 236.75 
L 350.661904 142 
L 353.567487 142 
L 353.567487 236.75 
L 353.567487 142 
L 356.501981 142 
L 356.501981 236.75 
L 356.501981 142 
L 359.407564 142 
L 359.407564 236.75 
L 359.407564 142 
L 362.37097 142 
L 362.37097 236.75 
L 362.37097 142 
L 365.276553 142 
L 365.276553 236.75 
L 365.276553 142 
L 368.211047 142 
L 368.211047 236.75 
L 368.211047 142 
L 371.145541 142 
L 371.145541 236.75 
L 371.145541 142 
L 374.051124 142 
L 374.051124 236.75 
L 374.051124 142 
L 377.01453 142 
L 377.01453 236.75 
L 377.01453 142 
L 379.920112 142 
L 379.920112 236.75 
L 379.920112 142 
L 382.854607 142 
L 382.854607 236.75 
L 382.854607 142 
L 385.789101 142 
L 385.789101 236.75 
L 385.789101 142 
L 388.694684 142 
L 388.694684 236.75 
L 388.694684 142 
L 391.658089 142 
L 391.658089 236.75 
L 391.658089 142 
L 394.563672 142 
L 394.563672 236.75 
L 394.563672 142 
L 397.498167 142 
L 397.498167 236.75 
L 397.498167 142 
L 400.432661 142 
L 400.432661 236.75 
L 400.432661 142 
L 403.338244 142 
L 403.338244 236.75 
L 403.338244 142 
L 406.301649 142 
L 406.301649 236.75 
L 406.301649 142 
L 409.207232 142 
L 409.207232 236.75 
L 409.207232 142 
L 412.141727 142 
L 412.141727 236.75 
L 412.141727 142 
L 415.076221 142 
L 415.076221 236.75 
L 415.076221 142 
L 417.981804 142 
L 417.981804 236.75 
L 417.981804 142 
L 420.945209 142 
L 420.945209 236.75 
L 420.945209 142 
L 423.850792 142 
L 423.850792 236.75 
L 423.850792 142 
L 426.785286 142 
L 426.785286 236.75 
L 426.785286 142 
L 429.719781 142 
L 429.719781 236.75 
L 429.719781 142 
L 432.625364 142 
L 432.625364 236.75 
L 432.625364 142 
L 435.588769 142 
L 435.588769 236.75 
L 435.588769 142 
L 438.494352 142 
L 438.494352 236.75 
L 438.494352 142 
L 441.428846 142 
L 441.428846 236.75 
L 441.428846 142 
L 444.363341 142 
L 444.363341 236.75 
L 444.363341 142 
L 447.268924 142 
L 447.268924 236.75 
L 447.268924 142 
L 450.232329 142 
L 450.232329 236.75 
L 450.232329 142 
L 453.137912 142 
L 453.137912 236.75 
L 453.137912 142 
L 456.072406 142 
L 456.072406 236.75 
L 456.072406 142 
L 459.006901 142 
L 459.006901 236.75 
L 459.006901 142 
L 461.912484 142 
L 461.912484 236.75 
L 461.912484 142 
L 464.875889 142 
L 464.875889 236.75 
L 464.875889 142 
L 466.292541 142 
L 466.292541 236.75 
L 467.781472 47.5 
L 467.781472 236.75 
L 467.781472 47.5 
L 469.198124 236.75 
L 469.198124 236.75 
L 470.715966 47.5 
L 470.715966 236.75 
L 470.715966 47.5 
L 472.16153 236.75 
L 472.16153 236.75 
L 473.65046 47.5 
L 473.65046 236.75 
L 473.65046 47.5 
L 475.067113 236.75 
L 475.067113 236.75 
L 476.556043 47.5 
L 476.556043 236.75 
L 476.556043 47.5 
L 477.972696 236.75 
L 477.972696 236.75 
L 479.490538 47.5 
L 479.490538 236.75 
L 479.490538 47.5 
L 480.90719 236.75 
L 480.90719 236.75 
L 482.396121 47.5 
L 482.396121 236.75 
L 482.396121 47.5 
L 483.812773 236.75 
L 483.812773 236.75 
L 485.301704 47.5 
L 485.301704 236.75 
L 485.301704 47.5 
L 486.747267 236.75 
L 486.747267 236.75 
L 488.236198 47.5 
L 488.236198 236.75 
L 488.236198 47.5 
L 489.65285 236.75 
L 489.65285 236.75 
L 491.141781 47.5 
L 491.141781 236.75 
L 491.141781 47.5 
L 492.558433 236.75 
L 492.558433 236.75 
L 494.076275 47.5 
L 494.076275 236.75 
L 494.076275 47.5 
L 495.492927 236.75 
L 495.492927 236.75 
L 496.981858 47.5 
L 496.981858 236.75 
L 496.981858 47.5 
L 498.39851 236.75 
L 498.39851 236.75 
L 499.887441 47.5 
L 499.887441 236.75 
L 499.887441 47.5 
L 501.333005 236.75 
L 501.333005 236.75 
L 502.821935 47.5 
L 502.821935 236.75 
L 502.821935 47.5 
L 504.238588 236.75 
L 504.238588 236.75 
L 505.727518 47.5 
L 505.727518 236.75 
L 505.727518 47.5 
L 507.144171 236.75 
L 507.144171 236.75 
L 508.662012 47.5 
L 508.662012 236.75 
L 508.662012 47.5 
L 510.078665 236.75 
L 510.078665 236.75 
L 511.567595 47.5 
L 511.567595 236.75 
L 511.567595 47.5 
L 512.984248 236.75 
L 512.984248 236.75 
L 514.473178 47.5 
L 514.473178 236.75 
L 514.473178 47.5 
L 515.918742 236.75 
L 515.918742 236.75 
L 517.407673 47.5 
L 517.407673 236.75 
L 517.407673 47.5 
L 518.824325 236.75 
L 518.824325 236.75 
L 520.313256 47.5 
L 520.313256 236.75 
L 520.313256 47.5 
L 521.729908 236.75 
L 521.729908 236.75 
L 523.24775 47.5 
L 523.24775 236.75 
L 523.24775 47.5 
L 524.664402 236.75 
L 524.664402 236.75 
L 526.153333 47.5 
L 526.153333 236.75 
L 526.153333 47.5 
L 527.569985 236.75 
L 527.569985 236.75 
L 529.058916 47.5 
L 529.058916 236.75 
L 529.058916 47.5 
L 530.504479 236.75 
L 530.504479 236.75 
L 531.99341 47.5 
L 531.99341 236.75 
L 531.99341 47.5 
L 533.410062 236.75 
L 533.410062 236.75 
L 534.898993 47.5 
L 534.898993 236.75 
L 534.898993 47.5 
L 536.315645 236.75 
L 536.315645 236.75 
L 537.833487 47.5 
L 537.833487 236.75 
L 537.833487 47.5 
L 539.25014 236.75 
L 539.25014 236.75 
L 540.73907 47.5 
L 540.73907 236.75 
L 540.73907 47.5 
L 542.155722 236.75 
L 542.155722 236.75 
L 543.644653 47.5 
L 543.644653 236.75 
L 543.644653 47.5 
L 545.090217 236.75 
L 545.090217 236.75 
L 546.579147 47.5 
L 546.579147 236.75 
L 546.579147 47.5 
L 547.9958 236.75 
L 547.9958 236.75 
L 549.48473 47.5 
L 549.48473 236.75 
L 549.48473 47.5 
L 550.901383 236.75 
L 550.901383 236.75 
L 552.419224 47.5 
L 552.419224 236.75 
L 552.419224 47.5 
L 553.835877 236.75 
L 553.835877 236.75 
L 555.324807 47.5 
L 555.324807 236.75 
L 555.324807 47.5 
L 556.74146 236.75 
L 556.74146 236.75 
L 558.23039 47.5 
L 558.23039 236.75 
L 558.23039 47.5 
L 559.675954 236.75 
L 559.675954 236.75 
L 561.164885 47.5 
L 561.164885 236.75 
L 561.164885 47.5 
L 562.581537 236.75 
L 562.581537 236.75 
L 564.070468 47.5 
L 564.070468 236.75 
L 564.070468 47.5 
L 565.48712 236.75 
L 565.48712 236.75 
L 567.004962 47.5 
L 567.004962 236.75 
L 567.004962 47.5 
L 568.421614 236.75 
L 568.421614 236.75 
L 569.910545 47.5 
L 569.910545 236.75 
L 569.910545 47.5 
L 571.327197 236.75 
L 571.327197 236.75 
L 572.816128 47.5 
L 572.816128 236.75 
L 572.816128 47.5 
L 574.261691 236.75 
L 574.261691 236.75 
L 575.750622 47.5 
L 575.750622 236.75 
L 575.750622 47.5 
L 577.167274 236.75 
L 577.167274 236.75 
L 578.656205 47.5 
L 578.656205 236.75 
L 578.656205 47.5 
L 580.072857 236.75 
L 580.072857 236.75 
L 581.590699 47.5 
L 581.590699 236.75 
L 581.590699 47.5 
L 583.007352 236.75 
L 583.007352 236.75 
L 584.496282 47.5 
L 584.496282 236.75 
L 584.496282 47.5 
L 585.912935 236.75 
L 585.912935 236.75 
L 587.401865 47.5 
L 587.401865 236.75 
L 587.401865 47.5 
L 588.847429 236.75 
L 588.847429 236.75 
L 590.336359 47.5 
L 590.336359 236.75 
L 590.336359 47.5 
L 591.753012 236.75 
L 591.753012 236.75 
L 593.241942 47.5 
L 593.241942 236.75 
L 593.241942 47.5 
L 594.658595 236.75 
L 594.658595 236.75 
L 596.176437 47.5 
L 596.176437 236.75 
L 596.176437 47.5 
L 597.593089 236.75 
L 597.593089 236.75 
L 599.08202 47.5 
L 599.08202 236.75 
L 599.08202 47.5 
L 600.498672 236.75 
L 600.498672 236.75 
L 601.987603 47.5 
L 601.987603 236.75 
L 601.987603 47.5 
L 603.433166 236.75 
L 603.433166 236.75 
L 604.922097 47.5 
L 604.922097 236.75 
L 604.922097 47.5 
L 606.338749 236.75 
L 606.338749 236.75 
L 607.82768 47.5 
L 607.82768 236.75 
L 607.82768 47.5 
L 609.244332 236.75 
L 609.244332 236.75 
L 610.704351 47.5 
L 610.704351 236.75 
L 610.704351 47.5 
L 612.337838 236.75 
L 612.337838 236.75 
L 614.000237 47.5 
L 614.000237 236.75 
L 614.000237 47.5 
L 616.139671 236.75 
L 616.139671 236.75 
L 617.614146 47.5 
L 617.614146 236.75 
L 617.614146 47.5 
L 619.262088 236.75 
L 619.262088 236.75 
L 620.924487 47.5 
L 620.924487 236.75 
L 620.924487 47.5 
L 625.116621 236.75 
L 625.116621 236.75 
L 626.57664 47.5 
L 626.57664 236.75 
L 626.57664 47.5 
L 628.022204 236.75 
L 628.022204 236.75 
L 629.511135 47.5 
L 629.511135 236.75 
L 629.511135 47.5 
L 630.956698 236.75 
L 630.956698 236.75 
L 632.416718 47.5 
L 632.416718 236.75 
L 632.416718 47.5 
L 633.862281 236.75 
L 633.862281 236.75 
L 635.322301 47.5 
L 635.322301 236.75 
L 635.322301 47.5 
L 636.796776 236.75 
L 636.796776 236.75 
L 638.256795 47.5 
L 638.256795 236.75 
L 638.256795 47.5 
L 639.702359 236.75 
L 639.702359 236.75 
L 641.162378 47.5 
L 641.162378 236.75 
L 641.162378 47.5 
L 642.607941 236.75 
L 642.607941 236.75 
L 644.096872 47.5 
L 644.096872 236.75 
L 644.096872 47.5 
L 645.542436 236.75 
L 645.542436 236.75 
L 647.002455 47.5 
L 647.002455 236.75 
L 647.002455 47.5 
L 648.448019 236.75 
L 648.448019 236.75 
L 649.908038 47.5 
L 649.908038 236.75 
L 649.908038 47.5 
L 651.382513 236.75 
L 651.382513 236.75 
L 652.842532 47.5 
L 652.842532 236.75 
L 652.842532 47.5 
L 654.288096 236.75 
L 654.288096 236.75 
L 655.748115 47.5 
L 655.748115 236.75 
L 655.748115 47.5 
L 657.193679 236.75 
L 657.193679 236.75 
L 658.682609 47.5 
L 658.682609 236.75 
L 658.682609 47.5 
L 660.128173 236.75 
L 660.128173 236.75 
L 661.588192 47.5 
L 661.588192 236.75 
L 661.588192 47.5 
L 663.033756 236.75 
L 663.033756 236.75 
L 664.493775 47.5 
L 664.493775 236.75 
L 664.493775 47.5 
L 665.96825 236.75 
L 665.96825 236.75 
L 667.42827 47.5 
L 667.42827 236.75 
L 667.42827 47.5 
L 668.873833 236.75 
L 668.873833 236.75 
L 670.333853 47.5 
L 670.333853 236.75 
L 670.333853 47.5 
L 671.779416 236.75 
L 671.779416 236.75 
L 673.268347 47.5 
L 673.268347 236.75 
L 673.268347 47.5 
L 674.71391 236.75 
L 674.71391 236.75 
L 676.17393 47.5 
L 676.17393 236.75 
L 676.17393 47.5 
L 677.619493 236.75 
L 677.619493 236.75 
L 679.079513 47.5 
L 679.079513 236.75 
L 679.079513 47.5 
L 679.513182 236.75 
L 679.513182 236.75 
" clip-path="url(#pef67988f24)" style="fill: none; stroke: #1f77b4; stroke-width: 1.5; stroke-linecap: square"/>
   </g>
   <g id="patch_3">
    <path d="M 56.09 246.25 
L 56.09 38 
" style="fill: none; stroke: #000000; stroke-width: 0.8; stroke-linejoin: miter; stroke-linecap: square"/>
   </g>
   <g id="patch_4">
    <path d="M 709.2 246.25 
L 709.2 38 
" style="fill: none; stroke: #000000; stroke-width: 0.8; stroke-linejoin: miter; stroke-linecap: square"/>
   </g>
   <g id="patch_5">
    <path d="M 56.09 246.04 
L 709.2 246.04 
" style="fill: none; stroke: #000000; stroke-width: 0.8; stroke-linejoin: miter; stroke-linecap: square"/>
   </g>
   <g id="patch_6">
    <path d="M 56.09 37.8 
L 709.2 37.8 
" style="fill: none; stroke: #000000; stroke-width: 0.8; stroke-linejoin: miter; stroke-linecap: square"/>
   </g>
   <g id="text_17">
    <!-- outgoingDataRate:vector (HandoverShowcase.host2.wlan[0].mac.dcf.channelAccess.pendingQueue) -->
    <g transform="translate(80.418437 21.201563) scale(0.12 -0.12)">
     <defs>
      <path id="DejaVuSans-6f" d="M 1959 3097 
Q 1497 3097 1228 2736 
Q 959 2375 959 1747 
Q 959 1119 1226 758 
Q 1494 397 1959 397 
Q 2419 397 2687 759 
Q 2956 1122 2956 1747 
Q 2956 2369 2687 2733 
Q 2419 3097 1959 3097 
z
M 1959 3584 
Q 2709 3584 3137 3096 
Q 3566 2609 3566 1747 
Q 3566 888 3137 398 
Q 2709 -91 1959 -91 
Q 1206 -91 779 398 
Q 353 888 353 1747 
Q 353 2609 779 3096 
Q 1206 3584 1959 3584 
z
" transform="scale(0.015625)"/>
      <path id="DejaVuSans-67" d="M 2906 1791 
Q 2906 2416 2648 2759 
Q 2391 3103 1925 3103 
Q 1463 3103 1205 2759 
Q 947 2416 947 1791 
Q 947 1169 1205 825 
Q 1463 481 1925 481 
Q 2391 481 2648 825 
Q 2906 1169 2906 1791 
z
M 3481 434 
Q 3481 -459 3084 -895 
Q 2688 -1331 1869 -1331 
Q 1566 -1331 1297 -1286 
Q 1028 -1241 775 -1147 
L 775 -588 
Q 1028 -725 1275 -790 
Q 1522 -856 1778 -856 
Q 2344 -856 2625 -561 
Q 2906 -266 2906 331 
L 2906 616 
Q 2728 306 2450 153 
Q 2172 0 1784 0 
Q 1141 0 747 490 
Q 353 981 353 1791 
Q 353 2603 747 3093 
Q 1141 3584 1784 3584 
Q 2172 3584 2450 3431 
Q 2728 3278 2906 2969 
L 2906 3500 
L 3481 3500 
L 3481 434 
z
" transform="scale(0.015625)"/>
      <path id="DejaVuSans-6e" d="M 3513 2113 
L 3513 0 
L 2938 0 
L 2938 2094 
Q 2938 2591 2744 2837 
Q 2550 3084 2163 3084 
Q 1697 3084 1428 2787 
Q 1159 2491 1159 1978 
L 1159 0 
L 581 0 
L 581 3500 
L 1159 3500 
L 1159 2956 
Q 1366 3272 1645 3428 
Q 1925 3584 2291 3584 
Q 2894 3584 3203 3211 
Q 3513 2838 3513 2113 
z
" transform="scale(0.015625)"/>
      <path id="DejaVuSans-52" d="M 2841 2188 
Q 3044 2119 3236 1894 
Q 3428 1669 3622 1275 
L 4263 0 
L 3584 0 
L 2988 1197 
Q 2756 1666 2539 1819 
Q 2322 1972 1947 1972 
L 1259 1972 
L 1259 0 
L 628 0 
L 628 4666 
L 2053 4666 
Q 2853 4666 3247 4331 
Q 3641 3997 3641 3322 
Q 3641 2881 3436 2590 
Q 3231 2300 2841 2188 
z
M 1259 4147 
L 1259 2491 
L 2053 2491 
Q 2509 2491 2742 2702 
Q 2975 2913 2975 3322 
Q 2975 3731 2742 3939 
Q 2509 4147 2053 4147 
L 1259 4147 
z
" transform="scale(0.015625)"/>
      <path id="DejaVuSans-3a" d="M 750 794 
L 1409 794 
L 1409 0 
L 750 0 
L 750 794 
z
M 750 3309 
L 1409 3309 
L 1409 2516 
L 750 2516 
L 750 3309 
z
" transform="scale(0.015625)"/>
      <path id="DejaVuSans-76" d="M 191 3500 
L 800 3500 
L 1894 563 
L 2988 3500 
L 3597 3500 
L 2284 0 
L 1503 0 
L 191 3500 
z
" transform="scale(0.015625)"/>
      <path id="DejaVuSans-63" d="M 3122 3366 
L 3122 2828 
Q 2878 2963 2633 3030 
Q 2388 3097 2138 3097 
Q 1578 3097 1268 2742 
Q 959 2388 959 1747 
Q 959 1106 1268 751 
Q 1578 397 2138 397 
Q 2388 397 2633 464 
Q 2878 531 3122 666 
L 3122 134 
Q 2881 22 2623 -34 
Q 2366 -91 2075 -91 
Q 1284 -91 818 406 
Q 353 903 353 1747 
Q 353 2603 823 3093 
Q 1294 3584 2113 3584 
Q 2378 3584 2631 3529 
Q 2884 3475 3122 3366 
z
" transform="scale(0.015625)"/>
      <path id="DejaVuSans-72" d="M 2631 2963 
Q 2534 3019 2420 3045 
Q 2306 3072 2169 3072 
Q 1681 3072 1420 2755 
Q 1159 2438 1159 1844 
L 1159 0 
L 581 0 
L 581 3500 
L 1159 3500 
L 1159 2956 
Q 1341 3275 1631 3429 
Q 1922 3584 2338 3584 
Q 2397 3584 2469 3576 
Q 2541 3569 2628 3553 
L 2631 2963 
z
" transform="scale(0.015625)"/>
      <path id="DejaVuSans-48" d="M 628 4666 
L 1259 4666 
L 1259 2753 
L 3553 2753 
L 3553 4666 
L 4184 4666 
L 4184 0 
L 3553 0 
L 3553 2222 
L 1259 2222 
L 1259 0 
L 628 0 
L 628 4666 
z
" transform="scale(0.015625)"/>
      <path id="DejaVuSans-64" d="M 2906 2969 
L 2906 4863 
L 3481 4863 
L 3481 0 
L 2906 0 
L 2906 525 
Q 2725 213 2448 61 
Q 2172 -91 1784 -91 
Q 1150 -91 751 415 
Q 353 922 353 1747 
Q 353 2572 751 3078 
Q 1150 3584 1784 3584 
Q 2172 3584 2448 3432 
Q 2725 3281 2906 2969 
z
M 947 1747 
Q 947 1113 1208 752 
Q 1469 391 1925 391 
Q 2381 391 2643 752 
Q 2906 1113 2906 1747 
Q 2906 2381 2643 2742 
Q 2381 3103 1925 3103 
Q 1469 3103 1208 2742 
Q 947 2381 947 1747 
z
" transform="scale(0.015625)"/>
      <path id="DejaVuSans-53" d="M 3425 4513 
L 3425 3897 
Q 3066 4069 2747 4153 
Q 2428 4238 2131 4238 
Q 1616 4238 1336 4038 
Q 1056 3838 1056 3469 
Q 1056 3159 1242 3001 
Q 1428 2844 1947 2747 
L 2328 2669 
Q 3034 2534 3370 2195 
Q 3706 1856 3706 1288 
Q 3706 609 3251 259 
Q 2797 -91 1919 -91 
Q 1588 -91 1214 -16 
Q 841 59 441 206 
L 441 856 
Q 825 641 1194 531 
Q 1563 422 1919 422 
Q 2459 422 2753 634 
Q 3047 847 3047 1241 
Q 3047 1584 2836 1778 
Q 2625 1972 2144 2069 
L 1759 2144 
Q 1053 2284 737 2584 
Q 422 2884 422 3419 
Q 422 4038 858 4394 
Q 1294 4750 2059 4750 
Q 2388 4750 2728 4690 
Q 3069 4631 3425 4513 
z
" transform="scale(0.015625)"/>
      <path id="DejaVuSans-68" d="M 3513 2113 
L 3513 0 
L 2938 0 
L 2938 2094 
Q 2938 2591 2744 2837 
Q 2550 3084 2163 3084 
Q 1697 3084 1428 2787 
Q 1159 2491 1159 1978 
L 1159 0 
L 581 0 
L 581 4863 
L 1159 4863 
L 1159 2956 
Q 1366 3272 1645 3428 
Q 1925 3584 2291 3584 
Q 2894 3584 3203 3211 
Q 3513 2838 3513 2113 
z
" transform="scale(0.015625)"/>
      <path id="DejaVuSans-77" d="M 269 3500 
L 844 3500 
L 1563 769 
L 2278 3500 
L 2956 3500 
L 3675 769 
L 4391 3500 
L 4966 3500 
L 4050 0 
L 3372 0 
L 2619 2869 
L 1863 0 
L 1184 0 
L 269 3500 
z
" transform="scale(0.015625)"/>
      <path id="DejaVuSans-5b" d="M 550 4863 
L 1875 4863 
L 1875 4416 
L 1125 4416 
L 1125 -397 
L 1875 -397 
L 1875 -844 
L 550 -844 
L 550 4863 
z
" transform="scale(0.015625)"/>
      <path id="DejaVuSans-5d" d="M 1947 4863 
L 1947 -844 
L 622 -844 
L 622 -397 
L 1369 -397 
L 1369 4416 
L 622 4416 
L 622 4863 
L 1947 4863 
z
" transform="scale(0.015625)"/>
      <path id="DejaVuSans-66" d="M 2375 4863 
L 2375 4384 
L 1825 4384 
Q 1516 4384 1395 4259 
Q 1275 4134 1275 3809 
L 1275 3500 
L 2222 3500 
L 2222 3053 
L 1275 3053 
L 1275 0 
L 697 0 
L 697 3053 
L 147 3053 
L 147 3500 
L 697 3500 
L 697 3744 
Q 697 4328 969 4595 
Q 1241 4863 1831 4863 
L 2375 4863 
z
" transform="scale(0.015625)"/>
      <path id="DejaVuSans-41" d="M 2188 4044 
L 1331 1722 
L 3047 1722 
L 2188 4044 
z
M 1831 4666 
L 2547 4666 
L 4325 0 
L 3669 0 
L 3244 1197 
L 1141 1197 
L 716 0 
L 50 0 
L 1831 4666 
z
" transform="scale(0.015625)"/>
      <path id="DejaVuSans-70" d="M 1159 525 
L 1159 -1331 
L 581 -1331 
L 581 3500 
L 1159 3500 
L 1159 2969 
Q 1341 3281 1617 3432 
Q 1894 3584 2278 3584 
Q 2916 3584 3314 3078 
Q 3713 2572 3713 1747 
Q 3713 922 3314 415 
Q 2916 -91 2278 -91 
Q 1894 -91 1617 61 
Q 1341 213 1159 525 
z
M 3116 1747 
Q 3116 2381 2855 2742 
Q 2594 3103 2138 3103 
Q 1681 3103 1420 2742 
Q 1159 2381 1159 1747 
Q 1159 1113 1420 752 
Q 1681 391 2138 391 
Q 2594 391 2855 752 
Q 3116 1113 3116 1747 
z
" transform="scale(0.015625)"/>
      <path id="DejaVuSans-51" d="M 2522 4238 
Q 1834 4238 1429 3725 
Q 1025 3213 1025 2328 
Q 1025 1447 1429 934 
Q 1834 422 2522 422 
Q 3209 422 3611 934 
Q 4013 1447 4013 2328 
Q 4013 3213 3611 3725 
Q 3209 4238 2522 4238 
z
M 3406 84 
L 4238 -825 
L 3475 -825 
L 2784 -78 
Q 2681 -84 2626 -87 
Q 2572 -91 2522 -91 
Q 1538 -91 948 567 
Q 359 1225 359 2328 
Q 359 3434 948 4092 
Q 1538 4750 2522 4750 
Q 3503 4750 4090 4092 
Q 4678 3434 4678 2328 
Q 4678 1516 4351 937 
Q 4025 359 3406 84 
z
" transform="scale(0.015625)"/>
     </defs>
     <use xlink:href="#DejaVuSans-6f"/>
     <use xlink:href="#DejaVuSans-75" x="61.181641"/>
     <use xlink:href="#DejaVuSans-74" x="124.560547"/>
     <use xlink:href="#DejaVuSans-67" x="163.769531"/>
     <use xlink:href="#DejaVuSans-6f" x="227.246094"/>
     <use xlink:href="#DejaVuSans-69" x="288.427734"/>
     <use xlink:href="#DejaVuSans-6e" x="316.210938"/>
     <use xlink:href="#DejaVuSans-67" x="379.589844"/>
     <use xlink:href="#DejaVuSans-44" x="443.066406"/>
     <use xlink:href="#DejaVuSans-61" x="520.068359"/>
     <use xlink:href="#DejaVuSans-74" x="581.347656"/>
     <use xlink:href="#DejaVuSans-61" x="620.556641"/>
     <use xlink:href="#DejaVuSans-52" x="681.835938"/>
     <use xlink:href="#DejaVuSans-61" x="749.068359"/>
     <use xlink:href="#DejaVuSans-74" x="810.347656"/>
     <use xlink:href="#DejaVuSans-65" x="849.556641"/>
     <use xlink:href="#DejaVuSans-3a" x="911.080078"/>
     <use xlink:href="#DejaVuSans-76" x="944.771484"/>
     <use xlink:href="#DejaVuSans-65" x="1003.951172"/>
     <use xlink:href="#DejaVuSans-63" x="1065.474609"/>
     <use xlink:href="#DejaVuSans-74" x="1120.455078"/>
     <use xlink:href="#DejaVuSans-6f" x="1159.664062"/>
     <use xlink:href="#DejaVuSans-72" x="1220.845703"/>
     <use xlink:href="#DejaVuSans-20" x="1261.958984"/>
     <use xlink:href="#DejaVuSans-28" x="1293.746094"/>
     <use xlink:href="#DejaVuSans-48" x="1332.759766"/>
     <use xlink:href="#DejaVuSans-61" x="1407.955078"/>
     <use xlink:href="#DejaVuSans-6e" x="1469.234375"/>
     <use xlink:href="#DejaVuSans-64" x="1532.613281"/>
     <use xlink:href="#DejaVuSans-6f" x="1596.089844"/>
     <use xlink:href="#DejaVuSans-76" x="1657.271484"/>
     <use xlink:href="#DejaVuSans-65" x="1716.451172"/>
     <use xlink:href="#DejaVuSans-72" x="1777.974609"/>
     <use xlink:href="#DejaVuSans-53" x="1819.087891"/>
     <use xlink:href="#DejaVuSans-68" x="1882.564453"/>
     <use xlink:href="#DejaVuSans-6f" x="1945.943359"/>
     <use xlink:href="#DejaVuSans-77" x="2007.125"/>
     <use xlink:href="#DejaVuSans-63" x="2088.912109"/>
     <use xlink:href="#DejaVuSans-61" x="2143.892578"/>
     <use xlink:href="#DejaVuSans-73" x="2205.171875"/>
     <use xlink:href="#DejaVuSans-65" x="2257.271484"/>
     <use xlink:href="#DejaVuSans-2e" x="2318.794922"/>
     <use xlink:href="#DejaVuSans-68" x="2350.582031"/>
     <use xlink:href="#DejaVuSans-6f" x="2413.960938"/>
     <use xlink:href="#DejaVuSans-73" x="2475.142578"/>
     <use xlink:href="#DejaVuSans-74" x="2527.242188"/>
     <use xlink:href="#DejaVuSans-32" x="2566.451172"/>
     <use xlink:href="#DejaVuSans-2e" x="2630.074219"/>
     <use xlink:href="#DejaVuSans-77" x="2661.861328"/>
     <use xlink:href="#DejaVuSans-6c" x="2743.648438"/>
     <use xlink:href="#DejaVuSans-61" x="2771.431641"/>
     <use xlink:href="#DejaVuSans-6e" x="2832.710938"/>
     <use xlink:href="#DejaVuSans-5b" x="2896.089844"/>
     <use xlink:href="#DejaVuSans-30" x="2935.103516"/>
     <use xlink:href="#DejaVuSans-5d" x="2998.726562"/>
     <use xlink:href="#DejaVuSans-2e" x="3037.740234"/>
     <use xlink:href="#DejaVuSans-6d" x="3069.527344"/>
     <use xlink:href="#DejaVuSans-61" x="3166.939453"/>
     <use xlink:href="#DejaVuSans-63" x="3228.21875"/>
     <use xlink:href="#DejaVuSans-2e" x="3283.199219"/>
     <use xlink:href="#DejaVuSans-64" x="3314.986328"/>
     <use xlink:href="#DejaVuSans-63" x="3378.462891"/>
     <use xlink:href="#DejaVuSans-66" x="3433.443359"/>
     <use xlink:href="#DejaVuSans-2e" x="3461.398438"/>
     <use xlink:href="#DejaVuSans-63" x="3493.185547"/>
     <use xlink:href="#DejaVuSans-68" x="3548.166016"/>
     <use xlink:href="#DejaVuSans-61" x="3611.544922"/>
     <use xlink:href="#DejaVuSans-6e" x="3672.824219"/>
     <use xlink:href="#DejaVuSans-6e" x="3736.203125"/>
     <use xlink:href="#DejaVuSans-65" x="3799.582031"/>
     <use xlink:href="#DejaVuSans-6c" x="3861.105469"/>
     <use xlink:href="#DejaVuSans-41" x="3888.888672"/>
     <use xlink:href="#DejaVuSans-63" x="3955.546875"/>
     <use xlink:href="#DejaVuSans-63" x="4010.527344"/>
     <use xlink:href="#DejaVuSans-65" x="4065.507812"/>
     <use xlink:href="#DejaVuSans-73" x="4127.03125"/>
     <use xlink:href="#DejaVuSans-73" x="4179.130859"/>
     <use xlink:href="#DejaVuSans-2e" x="4231.230469"/>
     <use xlink:href="#DejaVuSans-70" x="4263.017578"/>
     <use xlink:href="#DejaVuSans-65" x="4326.494141"/>
     <use xlink:href="#DejaVuSans-6e" x="4388.017578"/>
     <use xlink:href="#DejaVuSans-64" x="4451.396484"/>
     <use xlink:href="#DejaVuSans-69" x="4514.873047"/>
     <use xlink:href="#DejaVuSans-6e" x="4542.65625"/>
     <use xlink:href="#DejaVuSans-67" x="4606.035156"/>
     <use xlink:href="#DejaVuSans-51" x="4669.511719"/>
     <use xlink:href="#DejaVuSans-75" x="4748.222656"/>
     <use xlink:href="#DejaVuSans-65" x="4811.601562"/>
     <use xlink:href="#DejaVuSans-75" x="4873.125"/>
     <use xlink:href="#DejaVuSans-65" x="4936.503906"/>
     <use xlink:href="#DejaVuSans-29" x="4998.027344"/>
    </g>
   </g>
   <g id="legend_1">
    <g id="patch_7">
     <path d="M 63.09 60.478125 
L 188.572813 60.478125 
Q 190.572813 60.478125 190.572813 58.478125 
L 190.572813 44.8 
Q 190.572813 42.8 188.572813 42.8 
L 63.09 42.8 
Q 61.09 42.8 61.09 44.8 
L 61.09 58.478125 
Q 61.09 60.478125 63.09 60.478125 
z
" style="fill: #ffffff; opacity: 0.8; stroke: #cccccc; stroke-linejoin: miter"/>
    </g>
    <g id="line2d_28">
     <path d="M 65.09 50.898438 
L 75.09 50.898438 
L 85.09 50.898438 
" style="fill: none; stroke: #1f77b4; stroke-width: 1.5; stroke-linecap: square"/>
    </g>
    <g id="text_18">
     <!-- Δvalue per sample -->
     <g transform="translate(93.09 54.398438) scale(0.1 -0.1)">
      <defs>
       <path id="DejaVuSans-394" d="M 2188 4044 
L 906 525 
L 3472 525 
L 2188 4044 
z
M 50 0 
L 1831 4666 
L 2547 4666 
L 4325 0 
L 50 0 
z
" transform="scale(0.015625)"/>
      </defs>
      <use xlink:href="#DejaVuSans-394"/>
      <use xlink:href="#DejaVuSans-76" x="68.408203"/>
      <use xlink:href="#DejaVuSans-61" x="127.587891"/>
      <use xlink:href="#DejaVuSans-6c" x="188.867188"/>
      <use xlink:href="#DejaVuSans-75" x="216.650391"/>
      <use xlink:href="#DejaVuSans-65" x="280.029297"/>
      <use xlink:href="#DejaVuSans-20" x="341.552734"/>
      <use xlink:href="#DejaVuSans-70" x="373.339844"/>
      <use xlink:href="#DejaVuSans-65" x="436.816406"/>
      <use xlink:href="#DejaVuSans-72" x="498.339844"/>
      <use xlink:href="#DejaVuSans-20" x="539.453125"/>
      <use xlink:href="#DejaVuSans-73" x="571.240234"/>
      <use xlink:href="#DejaVuSans-61" x="623.339844"/>
      <use xlink:href="#DejaVuSans-6d" x="684.619141"/>
      <use xlink:href="#DejaVuSans-70" x="782.03125"/>
      <use xlink:href="#DejaVuSans-6c" x="845.507812"/>
      <use xlink:href="#DejaVuSans-65" x="873.291016"/>
     </g>
    </g>
   </g>
  </g>
 </g>
 <defs>
  <clipPath id="pef67988f24">
   <rect x="56.09" y="37.8" width="653.11" height="208.24"/>
  </clipPath>
 </defs>
</svg>
