<?xml version="1.0" encoding="utf-8" standalone="no"?>
<!DOCTYPE svg PUBLIC "-//W3C//DTD SVG 1.1//EN"
  "http://www.w3.org/Graphics/SVG/1.1/DTD/svg11.dtd">
<svg xmlns:xlink="http://www.w3.org/1999/xlink" width="720pt" height="288pt" viewBox="0 0 720 288" xmlns="http://www.w3.org/2000/svg" version="1.1">
 <metadata>
  <rdf:RDF xmlns:dc="http://purl.org/dc/elements/1.1/" xmlns:cc="http://creativecommons.org/ns#" xmlns:rdf="http://www.w3.org/1999/02/22-rdf-syntax-ns#">
   <cc:Work>
    <dc:type rdf:resource="http://purl.org/dc/dcmitype/StillImage"/>
    <dc:date>2025-07-27T15:08:44.232996</dc:date>
    <dc:format>image/svg+xml</dc:format>
    <dc:creator>
     <cc:Agent>
      <dc:title>Matplotlib v3.9.2, https://matplotlib.org/</dc:title>
     </cc:Agent>
    </dc:creator>
   </cc:Work>
  </rdf:RDF>
 </metadata>
 <defs>
  <style type="text/css">*{stroke-linejoin: round; stroke-linecap: butt}</style>
 </defs>
 <g id="figure_1">
  <g id="patch_1">
   <path d="M 0 288 
L 720 288 
L 720 0 
L 0 0 
z
" style="fill: #ffffff"/>
  </g>
  <g id="axes_1">
   <g id="patch_2">
    <path d="M 54.02 246.04 
L 709.2 246.04 
L 709.2 26.88 
L 54.02 26.88 
z
" style="fill: #ffffff"/>
   </g>
   <g id="matplotlib.axis_1">
    <g id="xtick_1">
     <g id="line2d_1">
      <path d="M 82.744643 246.04 
L 82.744643 26.88 
" clip-path="url(#p220199bb85)" style="fill: none; stroke: #b0b0b0; stroke-width: 0.8; stroke-linecap: square"/>
     </g>
     <g id="line2d_2">
      <defs>
       <path id="m4c44b140a0" d="M 0 0 
L 0 3.5 
" style="stroke: #000000; stroke-width: 0.8"/>
      </defs>
      <g>
       <use xlink:href="#m4c44b140a0" x="82.744643" y="246.04" style="stroke: #000000; stroke-width: 0.8"/>
      </g>
     </g>
     <g id="text_1">
      <!-- 0 -->
      <g transform="translate(79.563393 260.638438) scale(0.1 -0.1)">
       <defs>
        <path id="DejaVuSans-30" d="M 2034 4250 
Q 1547 4250 1301 3770 
Q 1056 3291 1056 2328 
Q 1056 1369 1301 889 
Q 1547 409 2034 409 
Q 2525 409 2770 889 
Q 3016 1369 3016 2328 
Q 3016 3291 2770 3770 
Q 2525 4250 2034 4250 
z
M 2034 4750 
Q 2819 4750 3233 4129 
Q 3647 3509 3647 2328 
Q 3647 1150 3233 529 
Q 2819 -91 2034 -91 
Q 1250 -91 836 529 
Q 422 1150 422 2328 
Q 422 3509 836 4129 
Q 1250 4750 2034 4750 
z
" transform="scale(0.015625)"/>
       </defs>
       <use xlink:href="#DejaVuSans-30"/>
      </g>
     </g>
    </g>
    <g id="xtick_2">
     <g id="line2d_3">
      <path d="M 227.438595 246.04 
L 227.438595 26.88 
" clip-path="url(#p220199bb85)" style="fill: none; stroke: #b0b0b0; stroke-width: 0.8; stroke-linecap: square"/>
     </g>
     <g id="line2d_4">
      <g>
       <use xlink:href="#m4c44b140a0" x="227.438595" y="246.04" style="stroke: #000000; stroke-width: 0.8"/>
      </g>
     </g>
     <g id="text_2">
      <!-- 10000 -->
      <g transform="translate(211.532345 260.638438) scale(0.1 -0.1)">
       <defs>
        <path id="DejaVuSans-31" d="M 794 531 
L 1825 531 
L 1825 4091 
L 703 3866 
L 703 4441 
L 1819 4666 
L 2450 4666 
L 2450 531 
L 3481 531 
L 3481 0 
L 794 0 
L 794 531 
z
" transform="scale(0.015625)"/>
       </defs>
       <use xlink:href="#DejaVuSans-31"/>
       <use xlink:href="#DejaVuSans-30" x="63.623047"/>
       <use xlink:href="#DejaVuSans-30" x="127.246094"/>
       <use xlink:href="#DejaVuSans-30" x="190.869141"/>
       <use xlink:href="#DejaVuSans-30" x="254.492188"/>
      </g>
     </g>
    </g>
    <g id="xtick_3">
     <g id="line2d_5">
      <path d="M 372.132546 246.04 
L 372.132546 26.88 
" clip-path="url(#p220199bb85)" style="fill: none; stroke: #b0b0b0; stroke-width: 0.8; stroke-linecap: square"/>
     </g>
     <g id="line2d_6">
      <g>
       <use xlink:href="#m4c44b140a0" x="372.132546" y="246.04" style="stroke: #000000; stroke-width: 0.8"/>
      </g>
     </g>
     <g id="text_3">
      <!-- 20000 -->
      <g transform="translate(356.226296 260.638438) scale(0.1 -0.1)">
       <defs>
        <path id="DejaVuSans-32" d="M 1228 531 
L 3431 531 
L 3431 0 
L 469 0 
L 469 531 
Q 828 903 1448 1529 
Q 2069 2156 2228 2338 
Q 2531 2678 2651 2914 
Q 2772 3150 2772 3378 
Q 2772 3750 2511 3984 
Q 2250 4219 1831 4219 
Q 1534 4219 1204 4116 
Q 875 4013 500 3803 
L 500 4441 
Q 881 4594 1212 4672 
Q 1544 4750 1819 4750 
Q 2544 4750 2975 4387 
Q 3406 4025 3406 3419 
Q 3406 3131 3298 2873 
Q 3191 2616 2906 2266 
Q 2828 2175 2409 1742 
Q 1991 1309 1228 531 
z
" transform="scale(0.015625)"/>
       </defs>
       <use xlink:href="#DejaVuSans-32"/>
       <use xlink:href="#DejaVuSans-30" x="63.623047"/>
       <use xlink:href="#DejaVuSans-30" x="127.246094"/>
       <use xlink:href="#DejaVuSans-30" x="190.869141"/>
       <use xlink:href="#DejaVuSans-30" x="254.492188"/>
      </g>
     </g>
    </g>
    <g id="xtick_4">
     <g id="line2d_7">
      <path d="M 516.826498 246.04 
L 516.826498 26.88 
" clip-path="url(#p220199bb85)" style="fill: none; stroke: #b0b0b0; stroke-width: 0.8; stroke-linecap: square"/>
     </g>
     <g id="line2d_8">
      <g>
       <use xlink:href="#m4c44b140a0" x="516.826498" y="246.04" style="stroke: #000000; stroke-width: 0.8"/>
      </g>
     </g>
     <g id="text_4">
      <!-- 30000 -->
      <g transform="translate(500.920248 260.638438) scale(0.1 -0.1)">
       <defs>
        <path id="DejaVuSans-33" d="M 2597 2516 
Q 3050 2419 3304 2112 
Q 3559 1806 3559 1356 
Q 3559 666 3084 287 
Q 2609 -91 1734 -91 
Q 1441 -91 1130 -33 
Q 819 25 488 141 
L 488 750 
Q 750 597 1062 519 
Q 1375 441 1716 441 
Q 2309 441 2620 675 
Q 2931 909 2931 1356 
Q 2931 1769 2642 2001 
Q 2353 2234 1838 2234 
L 1294 2234 
L 1294 2753 
L 1863 2753 
Q 2328 2753 2575 2939 
Q 2822 3125 2822 3475 
Q 2822 3834 2567 4026 
Q 2313 4219 1838 4219 
Q 1578 4219 1281 4162 
Q 984 4106 628 3988 
L 628 4550 
Q 988 4650 1302 4700 
Q 1616 4750 1894 4750 
Q 2613 4750 3031 4423 
Q 3450 4097 3450 3541 
Q 3450 3153 3228 2886 
Q 3006 2619 2597 2516 
z
" transform="scale(0.015625)"/>
       </defs>
       <use xlink:href="#DejaVuSans-33"/>
       <use xlink:href="#DejaVuSans-30" x="63.623047"/>
       <use xlink:href="#DejaVuSans-30" x="127.246094"/>
       <use xlink:href="#DejaVuSans-30" x="190.869141"/>
       <use xlink:href="#DejaVuSans-30" x="254.492188"/>
      </g>
     </g>
    </g>
    <g id="xtick_5">
     <g id="line2d_9">
      <path d="M 661.520449 246.04 
L 661.520449 26.88 
" clip-path="url(#p220199bb85)" style="fill: none; stroke: #b0b0b0; stroke-width: 0.8; stroke-linecap: square"/>
     </g>
     <g id="line2d_10">
      <g>
       <use xlink:href="#m4c44b140a0" x="661.520449" y="246.04" style="stroke: #000000; stroke-width: 0.8"/>
      </g>
     </g>
     <g id="text_5">
      <!-- 40000 -->
      <g transform="translate(645.614199 260.638438) scale(0.1 -0.1)">
       <defs>
        <path id="DejaVuSans-34" d="M 2419 4116 
L 825 1625 
L 2419 1625 
L 2419 4116 
z
M 2253 4666 
L 3047 4666 
L 3047 1625 
L 3713 1625 
L 3713 1100 
L 3047 1100 
L 3047 0 
L 2419 0 
L 2419 1100 
L 313 1100 
L 313 1709 
L 2253 4666 
z
" transform="scale(0.015625)"/>
       </defs>
       <use xlink:href="#DejaVuSans-34"/>
       <use xlink:href="#DejaVuSans-30" x="63.623047"/>
       <use xlink:href="#DejaVuSans-30" x="127.246094"/>
       <use xlink:href="#DejaVuSans-30" x="190.869141"/>
       <use xlink:href="#DejaVuSans-30" x="254.492188"/>
      </g>
     </g>
    </g>
    <g id="text_6">
     <!-- Time (s) -->
     <g transform="translate(361.281094 274.316562) scale(0.1 -0.1)">
      <defs>
       <path id="DejaVuSans-54" d="M -19 4666 
L 3928 4666 
L 3928 4134 
L 2272 4134 
L 2272 0 
L 1638 0 
L 1638 4134 
L -19 4134 
L -19 4666 
z
" transform="scale(0.015625)"/>
       <path id="DejaVuSans-69" d="M 603 3500 
L 1178 3500 
L 1178 0 
L 603 0 
L 603 3500 
z
M 603 4863 
L 1178 4863 
L 1178 4134 
L 603 4134 
L 603 4863 
z
" transform="scale(0.015625)"/>
       <path id="DejaVuSans-6d" d="M 3328 2828 
Q 3544 3216 3844 3400 
Q 4144 3584 4550 3584 
Q 5097 3584 5394 3201 
Q 5691 2819 5691 2113 
L 5691 0 
L 5113 0 
L 5113 2094 
Q 5113 2597 4934 2840 
Q 4756 3084 4391 3084 
Q 3944 3084 3684 2787 
Q 3425 2491 3425 1978 
L 3425 0 
L 2847 0 
L 2847 2094 
Q 2847 2600 2669 2842 
Q 2491 3084 2119 3084 
Q 1678 3084 1418 2786 
Q 1159 2488 1159 1978 
L 1159 0 
L 581 0 
L 581 3500 
L 1159 3500 
L 1159 2956 
Q 1356 3278 1631 3431 
Q 1906 3584 2284 3584 
Q 2666 3584 2933 3390 
Q 3200 3197 3328 2828 
z
" transform="scale(0.015625)"/>
       <path id="DejaVuSans-65" d="M 3597 1894 
L 3597 1613 
L 953 1613 
Q 991 1019 1311 708 
Q 1631 397 2203 397 
Q 2534 397 2845 478 
Q 3156 559 3463 722 
L 3463 178 
Q 3153 47 2828 -22 
Q 2503 -91 2169 -91 
Q 1331 -91 842 396 
Q 353 884 353 1716 
Q 353 2575 817 3079 
Q 1281 3584 2069 3584 
Q 2775 3584 3186 3129 
Q 3597 2675 3597 1894 
z
M 3022 2063 
Q 3016 2534 2758 2815 
Q 2500 3097 2075 3097 
Q 1594 3097 1305 2825 
Q 1016 2553 972 2059 
L 3022 2063 
z
" transform="scale(0.015625)"/>
       <path id="DejaVuSans-20" transform="scale(0.015625)"/>
       <path id="DejaVuSans-28" d="M 1984 4856 
Q 1566 4138 1362 3434 
Q 1159 2731 1159 2009 
Q 1159 1288 1364 580 
Q 1569 -128 1984 -844 
L 1484 -844 
Q 1016 -109 783 600 
Q 550 1309 550 2009 
Q 550 2706 781 3412 
Q 1013 4119 1484 4856 
L 1984 4856 
z
" transform="scale(0.015625)"/>
       <path id="DejaVuSans-73" d="M 2834 3397 
L 2834 2853 
Q 2591 2978 2328 3040 
Q 2066 3103 1784 3103 
Q 1356 3103 1142 2972 
Q 928 2841 928 2578 
Q 928 2378 1081 2264 
Q 1234 2150 1697 2047 
L 1894 2003 
Q 2506 1872 2764 1633 
Q 3022 1394 3022 966 
Q 3022 478 2636 193 
Q 2250 -91 1575 -91 
Q 1294 -91 989 -36 
Q 684 19 347 128 
L 347 722 
Q 666 556 975 473 
Q 1284 391 1588 391 
Q 1994 391 2212 530 
Q 2431 669 2431 922 
Q 2431 1156 2273 1281 
Q 2116 1406 1581 1522 
L 1381 1569 
Q 847 1681 609 1914 
Q 372 2147 372 2553 
Q 372 3047 722 3315 
Q 1072 3584 1716 3584 
Q 2034 3584 2315 3537 
Q 2597 3491 2834 3397 
z
" transform="scale(0.015625)"/>
       <path id="DejaVuSans-29" d="M 513 4856 
L 1013 4856 
Q 1481 4119 1714 3412 
Q 1947 2706 1947 2009 
Q 1947 1309 1714 600 
Q 1481 -109 1013 -844 
L 513 -844 
Q 928 -128 1133 580 
Q 1338 1288 1338 2009 
Q 1338 2731 1133 3434 
Q 928 4138 513 4856 
z
" transform="scale(0.015625)"/>
      </defs>
      <use xlink:href="#DejaVuSans-54"/>
      <use xlink:href="#DejaVuSans-69" x="57.958984"/>
      <use xlink:href="#DejaVuSans-6d" x="85.742188"/>
      <use xlink:href="#DejaVuSans-65" x="183.154297"/>
      <use xlink:href="#DejaVuSans-20" x="244.677734"/>
      <use xlink:href="#DejaVuSans-28" x="276.464844"/>
      <use xlink:href="#DejaVuSans-73" x="315.478516"/>
      <use xlink:href="#DejaVuSans-29" x="367.578125"/>
     </g>
    </g>
   </g>
   <g id="matplotlib.axis_2">
    <g id="ytick_1">
     <g id="line2d_11">
      <path d="M 54.02 236.108475 
L 709.2 236.108475 
" clip-path="url(#p220199bb85)" style="fill: none; stroke: #b0b0b0; stroke-width: 0.8; stroke-linecap: square"/>
     </g>
     <g id="line2d_12">
      <defs>
       <path id="m860d2fed38" d="M 0 0 
L -3.5 0 
" style="stroke: #000000; stroke-width: 0.8"/>
      </defs>
      <g>
       <use xlink:href="#m860d2fed38" x="54.02" y="236.108475" style="stroke: #000000; stroke-width: 0.8"/>
      </g>
     </g>
     <g id="text_7">
      <!-- 0.00 -->
      <g transform="translate(24.754375 239.907694) scale(0.1 -0.1)">
       <defs>
        <path id="DejaVuSans-2e" d="M 684 794 
L 1344 794 
L 1344 0 
L 684 0 
L 684 794 
z
" transform="scale(0.015625)"/>
       </defs>
       <use xlink:href="#DejaVuSans-30"/>
       <use xlink:href="#DejaVuSans-2e" x="63.623047"/>
       <use xlink:href="#DejaVuSans-30" x="95.410156"/>
       <use xlink:href="#DejaVuSans-30" x="159.033203"/>
      </g>
     </g>
    </g>
    <g id="ytick_2">
     <g id="line2d_13">
      <path d="M 54.02 196.249085 
L 709.2 196.249085 
" clip-path="url(#p220199bb85)" style="fill: none; stroke: #b0b0b0; stroke-width: 0.8; stroke-linecap: square"/>
     </g>
     <g id="line2d_14">
      <g>
       <use xlink:href="#m860d2fed38" x="54.02" y="196.249085" style="stroke: #000000; stroke-width: 0.8"/>
      </g>
     </g>
     <g id="text_8">
      <!-- 0.05 -->
      <g transform="translate(24.754375 200.048304) scale(0.1 -0.1)">
       <defs>
        <path id="DejaVuSans-35" d="M 691 4666 
L 3169 4666 
L 3169 4134 
L 1269 4134 
L 1269 2991 
Q 1406 3038 1543 3061 
Q 1681 3084 1819 3084 
Q 2600 3084 3056 2656 
Q 3513 2228 3513 1497 
Q 3513 744 3044 326 
Q 2575 -91 1722 -91 
Q 1428 -91 1123 -41 
Q 819 9 494 109 
L 494 744 
Q 775 591 1075 516 
Q 1375 441 1709 441 
Q 2250 441 2565 725 
Q 2881 1009 2881 1497 
Q 2881 1984 2565 2268 
Q 2250 2553 1709 2553 
Q 1456 2553 1204 2497 
Q 953 2441 691 2322 
L 691 4666 
z
" transform="scale(0.015625)"/>
       </defs>
       <use xlink:href="#DejaVuSans-30"/>
       <use xlink:href="#DejaVuSans-2e" x="63.623047"/>
       <use xlink:href="#DejaVuSans-30" x="95.410156"/>
       <use xlink:href="#DejaVuSans-35" x="159.033203"/>
      </g>
     </g>
    </g>
    <g id="ytick_3">
     <g id="line2d_15">
      <path d="M 54.02 156.389695 
L 709.2 156.389695 
" clip-path="url(#p220199bb85)" style="fill: none; stroke: #b0b0b0; stroke-width: 0.8; stroke-linecap: square"/>
     </g>
     <g id="line2d_16">
      <g>
       <use xlink:href="#m860d2fed38" x="54.02" y="156.389695" style="stroke: #000000; stroke-width: 0.8"/>
      </g>
     </g>
     <g id="text_9">
      <!-- 0.10 -->
      <g transform="translate(24.754375 160.188914) scale(0.1 -0.1)">
       <use xlink:href="#DejaVuSans-30"/>
       <use xlink:href="#DejaVuSans-2e" x="63.623047"/>
       <use xlink:href="#DejaVuSans-31" x="95.410156"/>
       <use xlink:href="#DejaVuSans-30" x="159.033203"/>
      </g>
     </g>
    </g>
    <g id="ytick_4">
     <g id="line2d_17">
      <path d="M 54.02 116.530305 
L 709.2 116.530305 
" clip-path="url(#p220199bb85)" style="fill: none; stroke: #b0b0b0; stroke-width: 0.8; stroke-linecap: square"/>
     </g>
     <g id="line2d_18">
      <g>
       <use xlink:href="#m860d2fed38" x="54.02" y="116.530305" style="stroke: #000000; stroke-width: 0.8"/>
      </g>
     </g>
     <g id="text_10">
      <!-- 0.15 -->
      <g transform="translate(24.754375 120.329524) scale(0.1 -0.1)">
       <use xlink:href="#DejaVuSans-30"/>
       <use xlink:href="#DejaVuSans-2e" x="63.623047"/>
       <use xlink:href="#DejaVuSans-31" x="95.410156"/>
       <use xlink:href="#DejaVuSans-35" x="159.033203"/>
      </g>
     </g>
    </g>
    <g id="ytick_5">
     <g id="line2d_19">
      <path d="M 54.02 76.670915 
L 709.2 76.670915 
" clip-path="url(#p220199bb85)" style="fill: none; stroke: #b0b0b0; stroke-width: 0.8; stroke-linecap: square"/>
     </g>
     <g id="line2d_20">
      <g>
       <use xlink:href="#m860d2fed38" x="54.02" y="76.670915" style="stroke: #000000; stroke-width: 0.8"/>
      </g>
     </g>
     <g id="text_11">
      <!-- 0.20 -->
      <g transform="translate(24.754375 80.470134) scale(0.1 -0.1)">
       <use xlink:href="#DejaVuSans-30"/>
       <use xlink:href="#DejaVuSans-2e" x="63.623047"/>
       <use xlink:href="#DejaVuSans-32" x="95.410156"/>
       <use xlink:href="#DejaVuSans-30" x="159.033203"/>
      </g>
     </g>
    </g>
    <g id="ytick_6">
     <g id="line2d_21">
      <path d="M 54.02 36.811525 
L 709.2 36.811525 
" clip-path="url(#p220199bb85)" style="fill: none; stroke: #b0b0b0; stroke-width: 0.8; stroke-linecap: square"/>
     </g>
     <g id="line2d_22">
      <g>
       <use xlink:href="#m860d2fed38" x="54.02" y="36.811525" style="stroke: #000000; stroke-width: 0.8"/>
      </g>
     </g>
     <g id="text_12">
      <!-- 0.25 -->
      <g transform="translate(24.754375 40.610744) scale(0.1 -0.1)">
       <use xlink:href="#DejaVuSans-30"/>
       <use xlink:href="#DejaVuSans-2e" x="63.623047"/>
       <use xlink:href="#DejaVuSans-32" x="95.410156"/>
       <use xlink:href="#DejaVuSans-35" x="159.033203"/>
      </g>
     </g>
    </g>
    <g id="text_13">
     <!-- Delta Value -->
     <g transform="translate(18.674688 165.120156) rotate(-90) scale(0.1 -0.1)">
      <defs>
       <path id="DejaVuSans-44" d="M 1259 4147 
L 1259 519 
L 2022 519 
Q 2988 519 3436 956 
Q 3884 1394 3884 2338 
Q 3884 3275 3436 3711 
Q 2988 4147 2022 4147 
L 1259 4147 
z
M 628 4666 
L 1925 4666 
Q 3281 4666 3915 4102 
Q 4550 3538 4550 2338 
Q 4550 1131 3912 565 
Q 3275 0 1925 0 
L 628 0 
L 628 4666 
z
" transform="scale(0.015625)"/>
       <path id="DejaVuSans-6c" d="M 603 4863 
L 1178 4863 
L 1178 0 
L 603 0 
L 603 4863 
z
" transform="scale(0.015625)"/>
       <path id="DejaVuSans-74" d="M 1172 4494 
L 1172 3500 
L 2356 3500 
L 2356 3053 
L 1172 3053 
L 1172 1153 
Q 1172 725 1289 603 
Q 1406 481 1766 481 
L 2356 481 
L 2356 0 
L 1766 0 
Q 1100 0 847 248 
Q 594 497 594 1153 
L 594 3053 
L 172 3053 
L 172 3500 
L 594 3500 
L 594 4494 
L 1172 4494 
z
" transform="scale(0.015625)"/>
       <path id="DejaVuSans-61" d="M 2194 1759 
Q 1497 1759 1228 1600 
Q 959 1441 959 1056 
Q 959 750 1161 570 
Q 1363 391 1709 391 
Q 2188 391 2477 730 
Q 2766 1069 2766 1631 
L 2766 1759 
L 2194 1759 
z
M 3341 1997 
L 3341 0 
L 2766 0 
L 2766 531 
Q 2569 213 2275 61 
Q 1981 -91 1556 -91 
Q 1019 -91 701 211 
Q 384 513 384 1019 
Q 384 1609 779 1909 
Q 1175 2209 1959 2209 
L 2766 2209 
L 2766 2266 
Q 2766 2663 2505 2880 
Q 2244 3097 1772 3097 
Q 1472 3097 1187 3025 
Q 903 2953 641 2809 
L 641 3341 
Q 956 3463 1253 3523 
Q 1550 3584 1831 3584 
Q 2591 3584 2966 3190 
Q 3341 2797 3341 1997 
z
" transform="scale(0.015625)"/>
       <path id="DejaVuSans-56" d="M 1831 0 
L 50 4666 
L 709 4666 
L 2188 738 
L 3669 4666 
L 4325 4666 
L 2547 0 
L 1831 0 
z
" transform="scale(0.015625)"/>
       <path id="DejaVuSans-75" d="M 544 1381 
L 544 3500 
L 1119 3500 
L 1119 1403 
Q 1119 906 1312 657 
Q 1506 409 1894 409 
Q 2359 409 2629 706 
Q 2900 1003 2900 1516 
L 2900 3500 
L 3475 3500 
L 3475 0 
L 2900 0 
L 2900 538 
Q 2691 219 2414 64 
Q 2138 -91 1772 -91 
Q 1169 -91 856 284 
Q 544 659 544 1381 
z
M 1991 3584 
L 1991 3584 
z
" transform="scale(0.015625)"/>
      </defs>
      <use xlink:href="#DejaVuSans-44"/>
      <use xlink:href="#DejaVuSans-65" x="77.001953"/>
      <use xlink:href="#DejaVuSans-6c" x="138.525391"/>
      <use xlink:href="#DejaVuSans-74" x="166.308594"/>
      <use xlink:href="#DejaVuSans-61" x="205.517578"/>
      <use xlink:href="#DejaVuSans-20" x="266.796875"/>
      <use xlink:href="#DejaVuSans-56" x="298.583984"/>
      <use xlink:href="#DejaVuSans-61" x="359.242188"/>
      <use xlink:href="#DejaVuSans-6c" x="420.521484"/>
      <use xlink:href="#DejaVuSans-75" x="448.304688"/>
      <use xlink:href="#DejaVuSans-65" x="511.683594"/>
     </g>
    </g>
   </g>
   <g id="line2d_23">
    <path d="M 83.800909 85.232408 
L 83.887725 236.078182 
L 85.46489 36.841818 
L 85.551706 236.078182 
L 87.114401 36.841818 
L 87.201217 236.078182 
L 89.27034 36.841818 
L 89.357157 236.078182 
L 90.919852 36.841818 
L 91.006668 236.078182 
L 92.612771 36.841818 
L 92.699587 236.078182 
L 96.779957 36.841818 
L 96.866773 236.078182 
L 98.241365 36.841818 
L 98.328182 236.078182 
L 99.688305 36.841818 
L 99.775121 236.078182 
L 101.149714 36.841818 
L 101.23653 236.078182 
L 102.625592 36.841818 
L 102.712409 236.078182 
L 104.087001 36.841818 
L 104.173817 236.078182 
L 105.533941 36.841818 
L 105.620757 236.078182 
L 106.99535 36.841818 
L 107.082166 236.078182 
L 108.442289 36.841818 
L 108.529105 236.078182 
L 109.932637 36.841818 
L 110.019453 236.078182 
L 111.379576 36.841818 
L 111.466393 236.078182 
L 112.840985 36.841818 
L 112.927802 236.078182 
L 114.287925 36.841818 
L 114.374741 236.078182 
L 115.749334 36.841818 
L 115.83615 236.078182 
L 117.225212 36.841818 
L 117.312028 236.078182 
L 118.686621 36.841818 
L 118.773437 236.078182 
L 120.13356 36.841818 
L 120.220377 236.078182 
L 121.594969 36.841818 
L 121.681786 236.078182 
L 123.041909 36.841818 
L 123.128725 236.078182 
L 124.532256 36.841818 
L 124.619073 236.078182 
L 125.979196 36.841818 
L 126.066012 236.078182 
L 127.440605 36.841818 
L 127.527421 236.078182 
L 128.887544 36.841818 
L 128.974361 236.078182 
L 130.348953 36.841818 
L 130.43577 236.078182 
L 131.824832 36.841818 
L 131.911648 236.078182 
L 133.28624 36.841818 
L 133.373057 236.078182 
L 134.73318 36.841818 
L 134.819996 236.078182 
L 136.194589 36.841818 
L 136.281405 236.078182 
L 137.641528 36.841818 
L 137.728345 236.078182 
L 139.131876 36.841818 
L 139.218693 236.078182 
L 140.578816 36.841818 
L 140.665632 236.078182 
L 142.040225 36.841818 
L 142.127041 236.078182 
L 143.487164 36.841818 
L 143.57398 236.078182 
L 144.948573 36.841818 
L 145.035389 236.078182 
L 146.424451 36.841818 
L 146.511268 236.078182 
L 147.88586 36.841818 
L 147.972677 236.078182 
L 149.3328 36.841818 
L 149.419616 236.078182 
L 150.794209 36.841818 
L 150.881025 236.078182 
L 152.241148 36.841818 
L 152.327965 236.078182 
L 153.731496 36.841818 
L 153.818312 236.078182 
L 155.178435 36.841818 
L 155.265252 236.078182 
L 156.639844 36.841818 
L 156.726661 236.078182 
L 158.086784 36.841818 
L 158.1736 236.078182 
L 159.548193 36.841818 
L 159.635009 236.078182 
L 161.024071 36.841818 
L 161.110887 236.078182 
L 162.48548 36.841818 
L 162.572296 236.078182 
L 163.932419 36.841818 
L 164.019236 236.078182 
L 165.393828 36.841818 
L 165.480645 236.078182 
L 166.840768 36.841818 
L 166.927584 236.078182 
L 168.331116 36.841818 
L 168.417932 236.078182 
L 169.778055 36.841818 
L 169.864871 236.078182 
L 171.239464 36.841818 
L 171.32628 236.078182 
L 172.686403 36.841818 
L 172.77322 236.078182 
L 174.147812 36.841818 
L 174.234629 236.078182 
L 175.623691 36.841818 
L 175.710507 236.078182 
L 177.0851 36.841818 
L 177.171916 236.078182 
L 178.532039 36.841818 
L 178.618855 236.078182 
L 179.993448 36.841818 
L 180.080264 236.078182 
L 181.440388 36.841818 
L 181.527204 236.078182 
L 182.930735 36.841818 
L 183.017552 236.078182 
L 184.377675 36.841818 
L 184.464491 236.078182 
L 185.839084 36.841818 
L 185.9259 236.078182 
L 187.286023 36.841818 
L 187.37284 236.078182 
L 188.747432 36.841818 
L 188.834248 236.078182 
L 190.22331 36.841818 
L 190.310127 236.078182 
L 191.684719 36.841818 
L 191.771536 236.078182 
L 193.131659 36.841818 
L 193.218475 236.078182 
L 194.593068 36.841818 
L 194.679884 236.078182 
L 196.040007 36.841818 
L 196.126824 236.078182 
L 197.530355 36.841818 
L 197.617171 236.078182 
L 198.977294 36.841818 
L 199.064111 236.078182 
L 200.438703 36.841818 
L 200.52552 236.078182 
L 201.885643 36.841818 
L 201.972459 236.078182 
L 203.347052 36.841818 
L 203.433868 236.078182 
L 204.82293 36.841818 
L 204.909746 236.078182 
L 206.284339 36.841818 
L 206.371155 236.078182 
L 207.731279 36.841818 
L 207.818095 236.078182 
L 209.192687 36.841818 
L 209.279504 236.078182 
L 210.639627 36.841818 
L 210.726443 236.078182 
L 212.129975 36.841818 
L 212.216791 236.078182 
L 213.576914 36.841818 
L 213.663731 236.078182 
L 215.038323 36.841818 
L 215.125139 236.078182 
L 216.485263 36.841818 
L 216.572079 236.078182 
L 217.946671 36.841818 
L 218.033488 236.078182 
L 219.42255 36.841818 
L 219.509366 236.078182 
L 220.883959 36.841818 
L 220.970775 236.078182 
L 222.330898 36.841818 
L 222.417715 236.078182 
L 223.792307 36.841818 
L 223.879124 236.078182 
L 225.239247 36.841818 
L 225.326063 236.078182 
L 226.729594 36.841818 
L 226.816411 236.078182 
L 228.176534 36.841818 
L 228.26335 236.078182 
L 229.637943 36.841818 
L 229.724759 236.078182 
L 231.084882 36.841818 
L 231.171699 236.078182 
L 232.546291 36.841818 
L 232.633108 236.078182 
L 234.02217 36.841818 
L 234.108986 236.078182 
L 235.483578 36.841818 
L 235.570395 236.078182 
L 236.930518 36.841818 
L 237.017334 236.078182 
L 238.391927 36.841818 
L 238.478743 236.078182 
L 239.838866 36.841818 
L 239.925683 236.078182 
L 241.329214 36.841818 
L 241.41603 236.078182 
L 242.776154 36.841818 
L 242.86297 236.078182 
L 244.237562 36.841818 
L 244.324379 236.078182 
L 245.684502 36.841818 
L 245.771318 236.078182 
L 247.145911 36.841818 
L 247.232727 236.078182 
L 248.621789 36.841818 
L 248.708606 236.078182 
L 250.083198 36.841818 
L 250.170014 236.078182 
L 251.530138 36.841818 
L 251.616954 236.078182 
L 252.991547 36.841818 
L 253.078363 236.078182 
L 254.438486 36.841818 
L 254.525302 236.078182 
L 255.870956 36.841818 
L 255.957773 236.078182 
L 257.505998 36.841818 
L 257.592814 236.078182 
L 259.169978 36.841818 
L 259.256795 236.078182 
L 260.790551 36.841818 
L 260.877367 236.078182 
L 262.975429 36.841818 
L 263.062246 236.078182 
L 264.480246 36.841818 
L 264.567063 236.078182 
L 266.288921 36.841818 
L 266.578309 236.078182 
L 270.268004 36.841818 
L 270.354821 236.078182 
L 271.758352 36.841818 
L 271.845168 236.078182 
L 273.176353 36.841818 
L 273.263169 236.078182 
L 274.695639 36.841818 
L 274.782456 236.078182 
L 276.11364 36.841818 
L 276.200456 236.078182 
L 277.603988 36.841818 
L 277.690804 236.078182 
L 279.021988 36.841818 
L 279.108805 236.078182 
L 280.512336 36.841818 
L 280.599152 236.078182 
L 281.959276 36.841818 
L 282.046092 236.078182 
L 283.449623 36.841818 
L 283.53644 236.078182 
L 284.867624 36.841818 
L 284.95444 236.078182 
L 286.357972 36.841818 
L 286.444788 236.078182 
L 287.775972 36.841818 
L 287.862789 236.078182 
L 289.295259 36.841818 
L 289.382075 236.078182 
L 290.71326 36.841818 
L 290.800076 236.078182 
L 292.203607 36.841818 
L 292.290424 236.078182 
L 293.621608 36.841818 
L 293.708424 236.078182 
L 295.111956 36.841818 
L 295.198772 236.078182 
L 296.558895 36.841818 
L 296.645712 236.078182 
L 298.049243 36.841818 
L 298.136059 236.078182 
L 299.467244 36.841818 
L 299.55406 236.078182 
L 300.957591 36.841818 
L 301.044408 236.078182 
L 302.375592 36.841818 
L 302.462409 236.078182 
L 303.894879 36.841818 
L 303.981695 236.078182 
L 305.312879 36.841818 
L 305.399696 236.078182 
L 306.803227 36.841818 
L 306.890043 236.078182 
L 308.221228 36.841818 
L 308.308044 236.078182 
L 309.711576 36.841818 
L 309.798392 236.078182 
L 311.158515 36.841818 
L 311.245331 236.078182 
L 312.648863 36.841818 
L 312.735679 236.078182 
L 314.066863 36.841818 
L 314.15368 236.078182 
L 315.557211 36.841818 
L 315.644028 236.078182 
L 316.975212 36.841818 
L 317.062028 236.078182 
L 318.494498 36.841818 
L 318.581315 236.078182 
L 319.912499 36.841818 
L 319.999315 236.078182 
L 321.402847 36.841818 
L 321.489663 236.078182 
L 322.820848 36.841818 
L 322.907664 236.078182 
L 324.311195 36.841818 
L 324.398012 236.078182 
L 325.758135 36.841818 
L 325.844951 236.078182 
L 327.248482 36.841818 
L 327.335299 236.078182 
L 328.666483 36.841818 
L 328.7533 236.078182 
L 330.156831 36.841818 
L 330.243647 236.078182 
L 331.574832 36.841818 
L 331.661648 236.078182 
L 333.094118 36.841818 
L 333.180934 236.078182 
L 334.512119 36.841818 
L 334.598935 236.078182 
L 336.002466 36.841818 
L 336.089283 236.078182 
L 337.420467 36.841818 
L 337.507284 236.078182 
L 338.910815 36.841818 
L 338.997631 236.078182 
L 340.357754 36.841818 
L 340.444571 236.078182 
L 341.848102 36.841818 
L 341.934919 236.078182 
L 343.266103 36.841818 
L 343.352919 236.078182 
L 344.756451 36.841818 
L 344.843267 236.078182 
L 346.174451 36.841818 
L 346.261268 236.078182 
L 347.693738 36.841818 
L 347.780554 236.078182 
L 349.111739 36.841818 
L 349.198555 236.078182 
L 350.602086 36.841818 
L 350.688903 236.078182 
L 352.020087 36.841818 
L 352.106903 236.078182 
L 353.510435 36.841818 
L 353.597251 236.078182 
L 354.957374 36.841818 
L 355.044191 236.078182 
L 356.447722 36.841818 
L 356.534538 236.078182 
L 357.865723 36.841818 
L 357.952539 236.078182 
L 359.35607 36.841818 
L 359.442887 236.078182 
L 360.80301 36.841818 
L 360.889826 236.078182 
L 362.322296 36.841818 
L 362.409113 236.078182 
L 363.740297 36.841818 
L 363.827113 236.078182 
L 365.230645 36.841818 
L 365.317461 236.078182 
L 366.648645 36.841818 
L 366.735462 236.078182 
L 368.167932 36.841818 
L 368.254748 236.078182 
L 369.614871 36.841818 
L 369.701688 236.078182 
L 371.105219 36.841818 
L 371.192035 236.078182 
L 372.52322 36.841818 
L 372.610036 236.078182 
L 374.013568 36.841818 
L 374.100384 236.078182 
L 375.460507 36.841818 
L 375.547323 236.078182 
L 376.979794 36.841818 
L 377.06661 236.078182 
L 378.397794 36.841818 
L 378.484611 236.078182 
L 379.888142 36.841818 
L 379.974958 236.078182 
L 381.306143 36.841818 
L 381.392959 236.078182 
L 382.825429 36.841818 
L 382.912246 236.078182 
L 384.272369 36.841818 
L 384.359185 236.078182 
L 385.762716 36.841818 
L 385.849533 236.078182 
L 387.180717 36.841818 
L 387.267534 236.078182 
L 388.671065 36.841818 
L 388.757881 236.078182 
L 390.118004 36.841818 
L 390.204821 236.078182 
L 391.637291 36.841818 
L 391.724107 236.078182 
L 393.055292 36.841818 
L 393.142108 236.078182 
L 394.545639 36.841818 
L 394.632456 236.078182 
L 395.96364 36.841818 
L 396.050456 236.078182 
L 397.482926 36.841818 
L 397.569743 236.078182 
L 398.929866 36.841818 
L 399.016682 236.078182 
L 400.420214 36.841818 
L 400.50703 236.078182 
L 401.838214 36.841818 
L 401.925031 236.078182 
L 403.328562 36.841818 
L 403.415378 236.078182 
L 404.775502 36.841818 
L 404.862318 236.078182 
L 406.294788 36.841818 
L 406.381604 236.078182 
L 407.712789 36.841818 
L 407.799605 236.078182 
L 409.203137 36.841818 
L 409.289953 236.078182 
L 410.621137 36.841818 
L 410.707954 236.078182 
L 412.140424 36.841818 
L 412.22724 236.078182 
L 413.587363 36.841818 
L 413.67418 236.078182 
L 415.077711 36.841818 
L 415.164527 236.078182 
L 416.495712 36.841818 
L 416.582528 236.078182 
L 417.986059 36.841818 
L 418.072876 236.078182 
L 419.432999 36.841818 
L 419.519815 236.078182 
L 420.952285 36.841818 
L 421.039102 236.078182 
L 422.370286 36.841818 
L 422.457102 236.078182 
L 423.860634 36.841818 
L 423.94745 236.078182 
L 425.278635 36.841818 
L 425.365451 236.078182 
L 426.797921 36.841818 
L 426.884737 236.078182 
L 428.244861 36.841818 
L 428.331677 236.078182 
L 429.735208 36.841818 
L 429.822025 236.078182 
L 431.153209 36.841818 
L 431.240025 236.078182 
L 432.643557 36.841818 
L 432.730373 236.078182 
L 434.090496 36.841818 
L 434.177313 236.078182 
L 435.609783 36.841818 
L 435.696599 236.078182 
L 437.027783 36.841818 
L 437.1146 236.078182 
L 438.518131 36.841818 
L 438.604947 236.078182 
L 439.936132 36.841818 
L 440.022948 236.078182 
L 441.455418 36.841818 
L 441.542235 236.078182 
L 442.902358 36.841818 
L 442.989174 236.078182 
L 444.392706 36.841818 
L 444.479522 236.078182 
L 445.810706 36.841818 
L 445.897523 236.078182 
L 447.301054 36.841818 
L 447.38787 236.078182 
L 448.747993 36.841818 
L 448.83481 236.078182 
L 450.26728 36.841818 
L 450.354096 236.078182 
L 451.685281 36.841818 
L 451.772097 236.078182 
L 453.175628 36.841818 
L 453.262445 236.078182 
L 454.593629 36.841818 
L 454.680445 236.078182 
L 456.112916 36.841818 
L 456.199732 236.078182 
L 457.559855 36.841818 
L 457.646671 236.078182 
L 459.050203 36.841818 
L 459.137019 236.078182 
L 460.468204 36.841818 
L 460.55502 236.078182 
L 461.958551 36.841818 
L 462.045368 236.078182 
L 463.405491 36.841818 
L 463.492307 236.078182 
L 464.924777 36.841818 
L 465.011594 236.078182 
L 466.342778 36.841818 
L 466.429594 236.078182 
L 467.833126 36.841818 
L 467.919942 236.078182 
L 469.251126 36.841818 
L 469.337943 236.078182 
L 470.770413 36.841818 
L 470.857229 236.078182 
L 472.217352 36.841818 
L 472.304169 236.078182 
L 473.7077 36.841818 
L 473.794516 236.078182 
L 475.125701 36.841818 
L 475.212517 236.078182 
L 476.616049 36.841818 
L 476.702865 236.078182 
L 478.034049 36.841818 
L 478.120866 236.078182 
L 479.553336 36.841818 
L 479.640152 236.078182 
L 480.971336 36.841818 
L 481.058153 236.078182 
L 482.461684 36.841818 
L 482.548501 236.078182 
L 483.879685 36.841818 
L 483.966501 236.078182 
L 485.370033 36.841818 
L 485.456849 236.078182 
L 486.816972 36.841818 
L 486.903788 236.078182 
L 488.30732 36.841818 
L 488.394136 236.078182 
L 489.725321 36.841818 
L 489.812137 236.078182 
L 491.215668 36.841818 
L 491.302485 236.078182 
L 492.633669 36.841818 
L 492.720485 236.078182 
L 494.152955 36.841818 
L 494.239772 236.078182 
L 495.570956 36.841818 
L 495.657773 236.078182 
L 497.061304 36.841818 
L 497.14812 236.078182 
L 498.479305 36.841818 
L 498.566121 236.078182 
L 499.969652 36.841818 
L 500.056469 236.078182 
L 501.416592 36.841818 
L 501.503408 236.078182 
L 502.90694 36.841818 
L 502.993756 236.078182 
L 504.32494 36.841818 
L 504.411757 236.078182 
L 505.815288 36.841818 
L 505.902104 236.078182 
L 507.233289 36.841818 
L 507.320105 236.078182 
L 508.752575 36.841818 
L 508.839392 236.078182 
L 510.170576 36.841818 
L 510.257392 236.078182 
L 511.660924 36.841818 
L 511.74774 236.078182 
L 513.078924 36.841818 
L 513.165741 236.078182 
L 514.569272 36.841818 
L 514.656088 236.078182 
L 516.016212 36.841818 
L 516.103028 236.078182 
L 517.506559 36.841818 
L 517.593376 236.078182 
L 518.92456 36.841818 
L 519.011376 236.078182 
L 520.414908 36.841818 
L 520.501724 236.078182 
L 521.832908 36.841818 
L 521.919725 236.078182 
L 523.352195 36.841818 
L 523.439011 236.078182 
L 524.770196 36.841818 
L 524.857012 236.078182 
L 526.260543 36.841818 
L 526.34736 236.078182 
L 527.678544 36.841818 
L 527.76536 236.078182 
L 529.168892 36.841818 
L 529.255708 236.078182 
L 530.615831 36.841818 
L 530.702648 236.078182 
L 532.106179 36.841818 
L 532.192995 236.078182 
L 533.52418 36.841818 
L 533.610996 236.078182 
L 535.014527 36.841818 
L 535.101344 236.078182 
L 536.432528 36.841818 
L 536.519344 236.078182 
L 537.951815 36.841818 
L 538.038631 236.078182 
L 539.369815 36.841818 
L 539.456632 236.078182 
L 540.860163 36.841818 
L 540.946979 236.078182 
L 542.278164 36.841818 
L 542.36498 236.078182 
L 543.768511 36.841818 
L 543.855328 236.078182 
L 545.215451 36.841818 
L 545.302267 236.078182 
L 546.705799 36.841818 
L 546.792615 236.078182 
L 548.123799 36.841818 
L 548.210616 236.078182 
L 549.614147 36.841818 
L 549.700963 236.078182 
L 551.032148 36.841818 
L 551.118964 236.078182 
L 552.551434 36.841818 
L 552.638251 236.078182 
L 553.969435 36.841818 
L 554.056251 236.078182 
L 555.459783 36.841818 
L 555.546599 236.078182 
L 556.877783 36.841818 
L 556.9646 236.078182 
L 558.368131 36.841818 
L 558.454947 236.078182 
L 559.815071 36.841818 
L 559.901887 236.078182 
L 561.305418 36.841818 
L 561.392235 236.078182 
L 562.723419 36.841818 
L 562.810235 236.078182 
L 564.213767 36.841818 
L 564.300583 236.078182 
L 565.631767 36.841818 
L 565.718584 236.078182 
L 567.151054 36.841818 
L 567.23787 236.078182 
L 568.569055 36.841818 
L 568.655871 236.078182 
L 570.059402 36.841818 
L 570.146219 236.078182 
L 571.477403 36.841818 
L 571.564219 236.078182 
L 572.967751 36.841818 
L 573.054567 236.078182 
L 574.41469 36.841818 
L 574.501507 236.078182 
L 575.905038 36.841818 
L 575.991854 236.078182 
L 577.323039 36.841818 
L 577.409855 236.078182 
L 578.813386 36.841818 
L 578.900203 236.078182 
L 580.231387 36.841818 
L 580.318204 236.078182 
L 581.750674 36.841818 
L 581.83749 236.078182 
L 583.168674 36.841818 
L 583.255491 236.078182 
L 584.659022 36.841818 
L 584.745838 236.078182 
L 586.077023 36.841818 
L 586.163839 236.078182 
L 587.567371 36.841818 
L 587.654187 236.078182 
L 589.01431 36.841818 
L 589.101126 236.078182 
L 590.504658 36.841818 
L 590.591474 236.078182 
L 591.922658 36.841818 
L 592.009475 236.078182 
L 593.413006 36.841818 
L 593.499823 236.078182 
L 594.831007 36.841818 
L 594.917823 236.078182 
L 596.350293 36.841818 
L 596.43711 236.078182 
L 597.768294 36.841818 
L 597.85511 236.078182 
L 599.258642 36.841818 
L 599.345458 236.078182 
L 600.676643 36.841818 
L 600.763459 236.078182 
L 602.16699 36.841818 
L 602.253807 236.078182 
L 603.61393 36.841818 
L 603.700746 236.078182 
L 605.104277 36.841818 
L 605.191094 236.078182 
L 606.522278 36.841818 
L 606.609095 236.078182 
L 608.012626 36.841818 
L 608.099442 236.078182 
L 609.430627 36.841818 
L 609.517443 236.078182 
L 610.892035 36.841818 
L 610.978852 236.078182 
L 612.527077 36.841818 
L 612.613894 236.078182 
L 614.191058 36.841818 
L 614.277874 236.078182 
L 616.332528 36.841818 
L 616.419344 236.078182 
L 617.808406 36.841818 
L 617.895223 236.078182 
L 619.457917 36.841818 
L 619.544734 236.078182 
L 621.121898 36.841818 
L 621.208714 236.078182 
L 625.318022 36.841818 
L 625.404839 236.078182 
L 626.779431 36.841818 
L 626.866248 236.078182 
L 628.226371 36.841818 
L 628.313187 236.078182 
L 629.716719 36.841818 
L 629.803535 236.078182 
L 631.163658 36.841818 
L 631.250474 236.078182 
L 632.625067 36.841818 
L 632.711883 236.078182 
L 634.072007 36.841818 
L 634.158823 236.078182 
L 635.533415 36.841818 
L 635.620232 236.078182 
L 637.009294 36.841818 
L 637.09611 236.078182 
L 638.470703 36.841818 
L 638.557519 236.078182 
L 639.917642 36.841818 
L 640.004459 236.078182 
L 641.379051 36.841818 
L 641.465867 236.078182 
L 642.825991 36.841818 
L 642.912807 236.078182 
L 644.316338 36.841818 
L 644.403155 236.078182 
L 645.763278 36.841818 
L 645.850094 236.078182 
L 647.224687 36.841818 
L 647.311503 236.078182 
L 648.671626 36.841818 
L 648.758443 236.078182 
L 650.133035 36.841818 
L 650.219852 236.078182 
L 651.608913 36.841818 
L 651.69573 236.078182 
L 653.070322 36.841818 
L 653.157139 236.078182 
L 654.517262 36.841818 
L 654.604078 236.078182 
L 655.978671 36.841818 
L 656.065487 236.078182 
L 657.42561 36.841818 
L 657.512427 236.078182 
L 658.915958 36.841818 
L 659.002774 236.078182 
L 660.362898 36.841818 
L 660.449714 236.078182 
L 661.824306 36.841818 
L 661.911123 236.078182 
L 663.271246 36.841818 
L 663.358062 236.078182 
L 664.732655 36.841818 
L 664.819471 236.078182 
L 666.208533 36.841818 
L 666.29535 236.078182 
L 667.669942 36.841818 
L 667.756758 236.078182 
L 669.116882 36.841818 
L 669.203698 236.078182 
L 670.57829 36.841818 
L 670.665107 236.078182 
L 672.02523 36.841818 
L 672.112046 236.078182 
L 673.515578 36.841818 
L 673.602394 236.078182 
L 674.962517 36.841818 
L 675.049334 236.078182 
L 676.423926 36.841818 
L 676.510742 236.078182 
L 677.870866 36.841818 
L 677.957682 236.078182 
L 679.332275 36.841818 
L 679.419091 236.078182 
L 679.419091 236.078182 
" clip-path="url(#p220199bb85)" style="fill: none; stroke: #1f77b4; stroke-width: 1.5; stroke-linecap: square"/>
   </g>
   <g id="patch_3">
    <path d="M 54.02 246.04 
L 54.02 26.88 
" style="fill: none; stroke: #000000; stroke-width: 0.8; stroke-linejoin: miter; stroke-linecap: square"/>
   </g>
   <g id="patch_4">
    <path d="M 709.2 246.04 
L 709.2 26.88 
" style="fill: none; stroke: #000000; stroke-width: 0.8; stroke-linejoin: miter; stroke-linecap: square"/>
   </g>
   <g id="patch_5">
    <path d="M 54.02 246.04 
L 709.2 246.04 
" style="fill: none; stroke: #000000; stroke-width: 0.8; stroke-linejoin: miter; stroke-linecap: square"/>
   </g>
   <g id="patch_6">
    <path d="M 54.02 26.88 
L 709.2 26.88 
" style="fill: none; stroke: #000000; stroke-width: 0.8; stroke-linejoin: miter; stroke-linecap: square"/>
   </g>
   <g id="text_14">
    <!-- receptionState:vector (HandoverShowcase.host2.wlan[0].radio) -->
    <g transform="translate(190.271875 20.88) scale(0.12 -0.12)">
     <defs>
      <path id="DejaVuSans-72" d="M 2631 2963 
Q 2534 3019 2420 3045 
Q 2306 3072 2169 3072 
Q 1681 3072 1420 2755 
Q 1159 2438 1159 1844 
L 1159 0 
L 581 0 
L 581 3500 
L 1159 3500 
L 1159 2956 
Q 1341 3275 1631 3429 
Q 1922 3584 2338 3584 
Q 2397 3584 2469 3576 
Q 2541 3569 2628 3553 
L 2631 2963 
z
" transform="scale(0.015625)"/>
      <path id="DejaVuSans-63" d="M 3122 3366 
L 3122 2828 
Q 2878 2963 2633 3030 
Q 2388 3097 2138 3097 
Q 1578 3097 1268 2742 
Q 959 2388 959 1747 
Q 959 1106 1268 751 
Q 1578 397 2138 397 
Q 2388 397 2633 464 
Q 2878 531 3122 666 
L 3122 134 
Q 2881 22 2623 -34 
Q 2366 -91 2075 -91 
Q 1284 -91 818 406 
Q 353 903 353 1747 
Q 353 2603 823 3093 
Q 1294 3584 2113 3584 
Q 2378 3584 2631 3529 
Q 2884 3475 3122 3366 
z
" transform="scale(0.015625)"/>
      <path id="DejaVuSans-70" d="M 1159 525 
L 1159 -1331 
L 581 -1331 
L 581 3500 
L 1159 3500 
L 1159 2969 
Q 1341 3281 1617 3432 
Q 1894 3584 2278 3584 
Q 2916 3584 3314 3078 
Q 3713 2572 3713 1747 
Q 3713 922 3314 415 
Q 2916 -91 2278 -91 
Q 1894 -91 1617 61 
Q 1341 213 1159 525 
z
M 3116 1747 
Q 3116 2381 2855 2742 
Q 2594 3103 2138 3103 
Q 1681 3103 1420 2742 
Q 1159 2381 1159 1747 
Q 1159 1113 1420 752 
Q 1681 391 2138 391 
Q 2594 391 2855 752 
Q 3116 1113 3116 1747 
z
" transform="scale(0.015625)"/>
      <path id="DejaVuSans-6f" d="M 1959 3097 
Q 1497 3097 1228 2736 
Q 959 2375 959 1747 
Q 959 1119 1226 758 
Q 1494 397 1959 397 
Q 2419 397 2687 759 
Q 2956 1122 2956 1747 
Q 2956 2369 2687 2733 
Q 2419 3097 1959 3097 
z
M 1959 3584 
Q 2709 3584 3137 3096 
Q 3566 2609 3566 1747 
Q 3566 888 3137 398 
Q 2709 -91 1959 -91 
Q 1206 -91 779 398 
Q 353 888 353 1747 
Q 353 2609 779 3096 
Q 1206 3584 1959 3584 
z
" transform="scale(0.015625)"/>
      <path id="DejaVuSans-6e" d="M 3513 2113 
L 3513 0 
L 2938 0 
L 2938 2094 
Q 2938 2591 2744 2837 
Q 2550 3084 2163 3084 
Q 1697 3084 1428 2787 
Q 1159 2491 1159 1978 
L 1159 0 
L 581 0 
L 581 3500 
L 1159 3500 
L 1159 2956 
Q 1366 3272 1645 3428 
Q 1925 3584 2291 3584 
Q 2894 3584 3203 3211 
Q 3513 2838 3513 2113 
z
" transform="scale(0.015625)"/>
      <path id="DejaVuSans-53" d="M 3425 4513 
L 3425 3897 
Q 3066 4069 2747 4153 
Q 2428 4238 2131 4238 
Q 1616 4238 1336 4038 
Q 1056 3838 1056 3469 
Q 1056 3159 1242 3001 
Q 1428 2844 1947 2747 
L 2328 2669 
Q 3034 2534 3370 2195 
Q 3706 1856 3706 1288 
Q 3706 609 3251 259 
Q 2797 -91 1919 -91 
Q 1588 -91 1214 -16 
Q 841 59 441 206 
L 441 856 
Q 825 641 1194 531 
Q 1563 422 1919 422 
Q 2459 422 2753 634 
Q 3047 847 3047 1241 
Q 3047 1584 2836 1778 
Q 2625 1972 2144 2069 
L 1759 2144 
Q 1053 2284 737 2584 
Q 422 2884 422 3419 
Q 422 4038 858 4394 
Q 1294 4750 2059 4750 
Q 2388 4750 2728 4690 
Q 3069 4631 3425 4513 
z
" transform="scale(0.015625)"/>
      <path id="DejaVuSans-3a" d="M 750 794 
L 1409 794 
L 1409 0 
L 750 0 
L 750 794 
z
M 750 3309 
L 1409 3309 
L 1409 2516 
L 750 2516 
L 750 3309 
z
" transform="scale(0.015625)"/>
      <path id="DejaVuSans-76" d="M 191 3500 
L 800 3500 
L 1894 563 
L 2988 3500 
L 3597 3500 
L 2284 0 
L 1503 0 
L 191 3500 
z
" transform="scale(0.015625)"/>
      <path id="DejaVuSans-48" d="M 628 4666 
L 1259 4666 
L 1259 2753 
L 3553 2753 
L 3553 4666 
L 4184 4666 
L 4184 0 
L 3553 0 
L 3553 2222 
L 1259 2222 
L 1259 0 
L 628 0 
L 628 4666 
z
" transform="scale(0.015625)"/>
      <path id="DejaVuSans-64" d="M 2906 2969 
L 2906 4863 
L 3481 4863 
L 3481 0 
L 2906 0 
L 2906 525 
Q 2725 213 2448 61 
Q 2172 -91 1784 -91 
Q 1150 -91 751 415 
Q 353 922 353 1747 
Q 353 2572 751 3078 
Q 1150 3584 1784 3584 
Q 2172 3584 2448 3432 
Q 2725 3281 2906 2969 
z
M 947 1747 
Q 947 1113 1208 752 
Q 1469 391 1925 391 
Q 2381 391 2643 752 
Q 2906 1113 2906 1747 
Q 2906 2381 2643 2742 
Q 2381 3103 1925 3103 
Q 1469 3103 1208 2742 
Q 947 2381 947 1747 
z
" transform="scale(0.015625)"/>
      <path id="DejaVuSans-68" d="M 3513 2113 
L 3513 0 
L 2938 0 
L 2938 2094 
Q 2938 2591 2744 2837 
Q 2550 3084 2163 3084 
Q 1697 3084 1428 2787 
Q 1159 2491 1159 1978 
L 1159 0 
L 581 0 
L 581 4863 
L 1159 4863 
L 1159 2956 
Q 1366 3272 1645 3428 
Q 1925 3584 2291 3584 
Q 2894 3584 3203 3211 
Q 3513 2838 3513 2113 
z
" transform="scale(0.015625)"/>
      <path id="DejaVuSans-77" d="M 269 3500 
L 844 3500 
L 1563 769 
L 2278 3500 
L 2956 3500 
L 3675 769 
L 4391 3500 
L 4966 3500 
L 4050 0 
L 3372 0 
L 2619 2869 
L 1863 0 
L 1184 0 
L 269 3500 
z
" transform="scale(0.015625)"/>
      <path id="DejaVuSans-5b" d="M 550 4863 
L 1875 4863 
L 1875 4416 
L 1125 4416 
L 1125 -397 
L 1875 -397 
L 1875 -844 
L 550 -844 
L 550 4863 
z
" transform="scale(0.015625)"/>
      <path id="DejaVuSans-5d" d="M 1947 4863 
L 1947 -844 
L 622 -844 
L 622 -397 
L 1369 -397 
L 1369 4416 
L 622 4416 
L 622 4863 
L 1947 4863 
z
" transform="scale(0.015625)"/>
     </defs>
     <use xlink:href="#DejaVuSans-72"/>
     <use xlink:href="#DejaVuSans-65" x="38.863281"/>
     <use xlink:href="#DejaVuSans-63" x="100.386719"/>
     <use xlink:href="#DejaVuSans-65" x="155.367188"/>
     <use xlink:href="#DejaVuSans-70" x="216.890625"/>
     <use xlink:href="#DejaVuSans-74" x="280.367188"/>
     <use xlink:href="#DejaVuSans-69" x="319.576172"/>
     <use xlink:href="#DejaVuSans-6f" x="347.359375"/>
     <use xlink:href="#DejaVuSans-6e" x="408.541016"/>
     <use xlink:href="#DejaVuSans-53" x="471.919922"/>
     <use xlink:href="#DejaVuSans-74" x="535.396484"/>
     <use xlink:href="#DejaVuSans-61" x="574.605469"/>
     <use xlink:href="#DejaVuSans-74" x="635.884766"/>
     <use xlink:href="#DejaVuSans-65" x="675.09375"/>
     <use xlink:href="#DejaVuSans-3a" x="736.617188"/>
     <use xlink:href="#DejaVuSans-76" x="770.308594"/>
     <use xlink:href="#DejaVuSans-65" x="829.488281"/>
     <use xlink:href="#DejaVuSans-63" x="891.011719"/>
     <use xlink:href="#DejaVuSans-74" x="945.992188"/>
     <use xlink:href="#DejaVuSans-6f" x="985.201172"/>
     <use xlink:href="#DejaVuSans-72" x="1046.382812"/>
     <use xlink:href="#DejaVuSans-20" x="1087.496094"/>
     <use xlink:href="#DejaVuSans-28" x="1119.283203"/>
     <use xlink:href="#DejaVuSans-48" x="1158.296875"/>
     <use xlink:href="#DejaVuSans-61" x="1233.492188"/>
     <use xlink:href="#DejaVuSans-6e" x="1294.771484"/>
     <use xlink:href="#DejaVuSans-64" x="1358.150391"/>
     <use xlink:href="#DejaVuSans-6f" x="1421.626953"/>
     <use xlink:href="#DejaVuSans-76" x="1482.808594"/>
     <use xlink:href="#DejaVuSans-65" x="1541.988281"/>
     <use xlink:href="#DejaVuSans-72" x="1603.511719"/>
     <use xlink:href="#DejaVuSans-53" x="1644.625"/>
     <use xlink:href="#DejaVuSans-68" x="1708.101562"/>
     <use xlink:href="#DejaVuSans-6f" x="1771.480469"/>
     <use xlink:href="#DejaVuSans-77" x="1832.662109"/>
     <use xlink:href="#DejaVuSans-63" x="1914.449219"/>
     <use xlink:href="#DejaVuSans-61" x="1969.429688"/>
     <use xlink:href="#DejaVuSans-73" x="2030.708984"/>
     <use xlink:href="#DejaVuSans-65" x="2082.808594"/>
     <use xlink:href="#DejaVuSans-2e" x="2144.332031"/>
     <use xlink:href="#DejaVuSans-68" x="2176.119141"/>
     <use xlink:href="#DejaVuSans-6f" x="2239.498047"/>
     <use xlink:href="#DejaVuSans-73" x="2300.679688"/>
     <use xlink:href="#DejaVuSans-74" x="2352.779297"/>
     <use xlink:href="#DejaVuSans-32" x="2391.988281"/>
     <use xlink:href="#DejaVuSans-2e" x="2455.611328"/>
     <use xlink:href="#DejaVuSans-77" x="2487.398438"/>
     <use xlink:href="#DejaVuSans-6c" x="2569.185547"/>
     <use xlink:href="#DejaVuSans-61" x="2596.96875"/>
     <use xlink:href="#DejaVuSans-6e" x="2658.248047"/>
     <use xlink:href="#DejaVuSans-5b" x="2721.626953"/>
     <use xlink:href="#DejaVuSans-30" x="2760.640625"/>
     <use xlink:href="#DejaVuSans-5d" x="2824.263672"/>
     <use xlink:href="#DejaVuSans-2e" x="2863.277344"/>
     <use xlink:href="#DejaVuSans-72" x="2895.064453"/>
     <use xlink:href="#DejaVuSans-61" x="2936.177734"/>
     <use xlink:href="#DejaVuSans-64" x="2997.457031"/>
     <use xlink:href="#DejaVuSans-69" x="3060.933594"/>
     <use xlink:href="#DejaVuSans-6f" x="3088.716797"/>
     <use xlink:href="#DejaVuSans-29" x="3149.898438"/>
    </g>
   </g>
   <g id="legend_1">
    <g id="patch_7">
     <path d="M 576.717188 145.299062 
L 702.2 145.299062 
Q 704.2 145.299062 704.2 143.299062 
L 704.2 129.620937 
Q 704.2 127.620937 702.2 127.620937 
L 576.717188 127.620937 
Q 574.717188 127.620937 574.717188 129.620937 
L 574.717188 143.299062 
Q 574.717188 145.299062 576.717188 145.299062 
z
" style="fill: #ffffff; opacity: 0.8; stroke: #cccccc; stroke-linejoin: miter"/>
    </g>
    <g id="line2d_24">
     <path d="M 578.717188 135.719375 
L 588.717188 135.719375 
L 598.717188 135.719375 
" style="fill: none; stroke: #1f77b4; stroke-width: 1.5; stroke-linecap: square"/>
    </g>
    <g id="text_15">
     <!-- Δvalue per sample -->
     <g transform="translate(606.717188 139.219375) scale(0.1 -0.1)">
      <defs>
       <path id="DejaVuSans-394" d="M 2188 4044 
L 906 525 
L 3472 525 
L 2188 4044 
z
M 50 0 
L 1831 4666 
L 2547 4666 
L 4325 0 
L 50 0 
z
" transform="scale(0.015625)"/>
      </defs>
      <use xlink:href="#DejaVuSans-394"/>
      <use xlink:href="#DejaVuSans-76" x="68.408203"/>
      <use xlink:href="#DejaVuSans-61" x="127.587891"/>
      <use xlink:href="#DejaVuSans-6c" x="188.867188"/>
      <use xlink:href="#DejaVuSans-75" x="216.650391"/>
      <use xlink:href="#DejaVuSans-65" x="280.029297"/>
      <use xlink:href="#DejaVuSans-20" x="341.552734"/>
      <use xlink:href="#DejaVuSans-70" x="373.339844"/>
      <use xlink:href="#DejaVuSans-65" x="436.816406"/>
      <use xlink:href="#DejaVuSans-72" x="498.339844"/>
      <use xlink:href="#DejaVuSans-20" x="539.453125"/>
      <use xlink:href="#DejaVuSans-73" x="571.240234"/>
      <use xlink:href="#DejaVuSans-61" x="623.339844"/>
      <use xlink:href="#DejaVuSans-6d" x="684.619141"/>
      <use xlink:href="#DejaVuSans-70" x="782.03125"/>
      <use xlink:href="#DejaVuSans-6c" x="845.507812"/>
      <use xlink:href="#DejaVuSans-65" x="873.291016"/>
     </g>
    </g>
   </g>
  </g>
 </g>
 <defs>
  <clipPath id="p220199bb85">
   <rect x="54.02" y="26.88" width="655.18" height="219.16"/>
  </clipPath>
 </defs>
</svg>
