<?xml version="1.0" encoding="utf-8" standalone="no"?>
<!DOCTYPE svg PUBLIC "-//W3C//DTD SVG 1.1//EN"
  "http://www.w3.org/Graphics/SVG/1.1/DTD/svg11.dtd">
<svg xmlns:xlink="http://www.w3.org/1999/xlink" width="720pt" height="288pt" viewBox="0 0 720 288" xmlns="http://www.w3.org/2000/svg" version="1.1">
 <metadata>
  <rdf:RDF xmlns:dc="http://purl.org/dc/elements/1.1/" xmlns:cc="http://creativecommons.org/ns#" xmlns:rdf="http://www.w3.org/1999/02/22-rdf-syntax-ns#">
   <cc:Work>
    <dc:type rdf:resource="http://purl.org/dc/dcmitype/StillImage"/>
    <dc:date>2025-07-27T15:08:47.598486</dc:date>
    <dc:format>image/svg+xml</dc:format>
    <dc:creator>
     <cc:Agent>
      <dc:title>Matplotlib v3.9.2, https://matplotlib.org/</dc:title>
     </cc:Agent>
    </dc:creator>
   </cc:Work>
  </rdf:RDF>
 </metadata>
 <defs>
  <style type="text/css">*{stroke-linejoin: round; stroke-linecap: butt}</style>
 </defs>
 <g id="figure_1">
  <g id="patch_1">
   <path d="M 0 288 
L 720 288 
L 720 0 
L 0 0 
z
" style="fill: #ffffff"/>
  </g>
  <g id="axes_1">
   <g id="patch_2">
    <path d="M 54.02 246.04 
L 709.2 246.04 
L 709.2 26.88 
L 54.02 26.88 
z
" style="fill: #ffffff"/>
   </g>
   <g id="matplotlib.axis_1">
    <g id="xtick_1">
     <g id="line2d_1">
      <path d="M 83.800909 246.04 
L 83.800909 26.88 
" clip-path="url(#pcdc43dc5b1)" style="fill: none; stroke: #b0b0b0; stroke-width: 0.8; stroke-linecap: square"/>
     </g>
     <g id="line2d_2">
      <defs>
       <path id="mf673daa8c6" d="M 0 0 
L 0 3.5 
" style="stroke: #000000; stroke-width: 0.8"/>
      </defs>
      <g>
       <use xlink:href="#mf673daa8c6" x="83.800909" y="246.04" style="stroke: #000000; stroke-width: 0.8"/>
      </g>
     </g>
     <g id="text_1">
      <!-- 0 -->
      <g transform="translate(80.619659 260.638438) scale(0.1 -0.1)">
       <defs>
        <path id="DejaVuSans-30" d="M 2034 4250 
Q 1547 4250 1301 3770 
Q 1056 3291 1056 2328 
Q 1056 1369 1301 889 
Q 1547 409 2034 409 
Q 2525 409 2770 889 
Q 3016 1369 3016 2328 
Q 3016 3291 2770 3770 
Q 2525 4250 2034 4250 
z
M 2034 4750 
Q 2819 4750 3233 4129 
Q 3647 3509 3647 2328 
Q 3647 1150 3233 529 
Q 2819 -91 2034 -91 
Q 1250 -91 836 529 
Q 422 1150 422 2328 
Q 422 3509 836 4129 
Q 1250 4750 2034 4750 
z
" transform="scale(0.015625)"/>
       </defs>
       <use xlink:href="#DejaVuSans-30"/>
      </g>
     </g>
    </g>
    <g id="xtick_2">
     <g id="line2d_3">
      <path d="M 228.189695 246.04 
L 228.189695 26.88 
" clip-path="url(#pcdc43dc5b1)" style="fill: none; stroke: #b0b0b0; stroke-width: 0.8; stroke-linecap: square"/>
     </g>
     <g id="line2d_4">
      <g>
       <use xlink:href="#mf673daa8c6" x="228.189695" y="246.04" style="stroke: #000000; stroke-width: 0.8"/>
      </g>
     </g>
     <g id="text_2">
      <!-- 10000 -->
      <g transform="translate(212.283445 260.638438) scale(0.1 -0.1)">
       <defs>
        <path id="DejaVuSans-31" d="M 794 531 
L 1825 531 
L 1825 4091 
L 703 3866 
L 703 4441 
L 1819 4666 
L 2450 4666 
L 2450 531 
L 3481 531 
L 3481 0 
L 794 0 
L 794 531 
z
" transform="scale(0.015625)"/>
       </defs>
       <use xlink:href="#DejaVuSans-31"/>
       <use xlink:href="#DejaVuSans-30" x="63.623047"/>
       <use xlink:href="#DejaVuSans-30" x="127.246094"/>
       <use xlink:href="#DejaVuSans-30" x="190.869141"/>
       <use xlink:href="#DejaVuSans-30" x="254.492188"/>
      </g>
     </g>
    </g>
    <g id="xtick_3">
     <g id="line2d_5">
      <path d="M 372.578481 246.04 
L 372.578481 26.88 
" clip-path="url(#pcdc43dc5b1)" style="fill: none; stroke: #b0b0b0; stroke-width: 0.8; stroke-linecap: square"/>
     </g>
     <g id="line2d_6">
      <g>
       <use xlink:href="#mf673daa8c6" x="372.578481" y="246.04" style="stroke: #000000; stroke-width: 0.8"/>
      </g>
     </g>
     <g id="text_3">
      <!-- 20000 -->
      <g transform="translate(356.672231 260.638438) scale(0.1 -0.1)">
       <defs>
        <path id="DejaVuSans-32" d="M 1228 531 
L 3431 531 
L 3431 0 
L 469 0 
L 469 531 
Q 828 903 1448 1529 
Q 2069 2156 2228 2338 
Q 2531 2678 2651 2914 
Q 2772 3150 2772 3378 
Q 2772 3750 2511 3984 
Q 2250 4219 1831 4219 
Q 1534 4219 1204 4116 
Q 875 4013 500 3803 
L 500 4441 
Q 881 4594 1212 4672 
Q 1544 4750 1819 4750 
Q 2544 4750 2975 4387 
Q 3406 4025 3406 3419 
Q 3406 3131 3298 2873 
Q 3191 2616 2906 2266 
Q 2828 2175 2409 1742 
Q 1991 1309 1228 531 
z
" transform="scale(0.015625)"/>
       </defs>
       <use xlink:href="#DejaVuSans-32"/>
       <use xlink:href="#DejaVuSans-30" x="63.623047"/>
       <use xlink:href="#DejaVuSans-30" x="127.246094"/>
       <use xlink:href="#DejaVuSans-30" x="190.869141"/>
       <use xlink:href="#DejaVuSans-30" x="254.492188"/>
      </g>
     </g>
    </g>
    <g id="xtick_4">
     <g id="line2d_7">
      <path d="M 516.967268 246.04 
L 516.967268 26.88 
" clip-path="url(#pcdc43dc5b1)" style="fill: none; stroke: #b0b0b0; stroke-width: 0.8; stroke-linecap: square"/>
     </g>
     <g id="line2d_8">
      <g>
       <use xlink:href="#mf673daa8c6" x="516.967268" y="246.04" style="stroke: #000000; stroke-width: 0.8"/>
      </g>
     </g>
     <g id="text_4">
      <!-- 30000 -->
      <g transform="translate(501.061018 260.638438) scale(0.1 -0.1)">
       <defs>
        <path id="DejaVuSans-33" d="M 2597 2516 
Q 3050 2419 3304 2112 
Q 3559 1806 3559 1356 
Q 3559 666 3084 287 
Q 2609 -91 1734 -91 
Q 1441 -91 1130 -33 
Q 819 25 488 141 
L 488 750 
Q 750 597 1062 519 
Q 1375 441 1716 441 
Q 2309 441 2620 675 
Q 2931 909 2931 1356 
Q 2931 1769 2642 2001 
Q 2353 2234 1838 2234 
L 1294 2234 
L 1294 2753 
L 1863 2753 
Q 2328 2753 2575 2939 
Q 2822 3125 2822 3475 
Q 2822 3834 2567 4026 
Q 2313 4219 1838 4219 
Q 1578 4219 1281 4162 
Q 984 4106 628 3988 
L 628 4550 
Q 988 4650 1302 4700 
Q 1616 4750 1894 4750 
Q 2613 4750 3031 4423 
Q 3450 4097 3450 3541 
Q 3450 3153 3228 2886 
Q 3006 2619 2597 2516 
z
" transform="scale(0.015625)"/>
       </defs>
       <use xlink:href="#DejaVuSans-33"/>
       <use xlink:href="#DejaVuSans-30" x="63.623047"/>
       <use xlink:href="#DejaVuSans-30" x="127.246094"/>
       <use xlink:href="#DejaVuSans-30" x="190.869141"/>
       <use xlink:href="#DejaVuSans-30" x="254.492188"/>
      </g>
     </g>
    </g>
    <g id="xtick_5">
     <g id="line2d_9">
      <path d="M 661.356054 246.04 
L 661.356054 26.88 
" clip-path="url(#pcdc43dc5b1)" style="fill: none; stroke: #b0b0b0; stroke-width: 0.8; stroke-linecap: square"/>
     </g>
     <g id="line2d_10">
      <g>
       <use xlink:href="#mf673daa8c6" x="661.356054" y="246.04" style="stroke: #000000; stroke-width: 0.8"/>
      </g>
     </g>
     <g id="text_5">
      <!-- 40000 -->
      <g transform="translate(645.449804 260.638438) scale(0.1 -0.1)">
       <defs>
        <path id="DejaVuSans-34" d="M 2419 4116 
L 825 1625 
L 2419 1625 
L 2419 4116 
z
M 2253 4666 
L 3047 4666 
L 3047 1625 
L 3713 1625 
L 3713 1100 
L 3047 1100 
L 3047 0 
L 2419 0 
L 2419 1100 
L 313 1100 
L 313 1709 
L 2253 4666 
z
" transform="scale(0.015625)"/>
       </defs>
       <use xlink:href="#DejaVuSans-34"/>
       <use xlink:href="#DejaVuSans-30" x="63.623047"/>
       <use xlink:href="#DejaVuSans-30" x="127.246094"/>
       <use xlink:href="#DejaVuSans-30" x="190.869141"/>
       <use xlink:href="#DejaVuSans-30" x="254.492188"/>
      </g>
     </g>
    </g>
    <g id="text_6">
     <!-- Time (s) -->
     <g transform="translate(361.281094 274.316562) scale(0.1 -0.1)">
      <defs>
       <path id="DejaVuSans-54" d="M -19 4666 
L 3928 4666 
L 3928 4134 
L 2272 4134 
L 2272 0 
L 1638 0 
L 1638 4134 
L -19 4134 
L -19 4666 
z
" transform="scale(0.015625)"/>
       <path id="DejaVuSans-69" d="M 603 3500 
L 1178 3500 
L 1178 0 
L 603 0 
L 603 3500 
z
M 603 4863 
L 1178 4863 
L 1178 4134 
L 603 4134 
L 603 4863 
z
" transform="scale(0.015625)"/>
       <path id="DejaVuSans-6d" d="M 3328 2828 
Q 3544 3216 3844 3400 
Q 4144 3584 4550 3584 
Q 5097 3584 5394 3201 
Q 5691 2819 5691 2113 
L 5691 0 
L 5113 0 
L 5113 2094 
Q 5113 2597 4934 2840 
Q 4756 3084 4391 3084 
Q 3944 3084 3684 2787 
Q 3425 2491 3425 1978 
L 3425 0 
L 2847 0 
L 2847 2094 
Q 2847 2600 2669 2842 
Q 2491 3084 2119 3084 
Q 1678 3084 1418 2786 
Q 1159 2488 1159 1978 
L 1159 0 
L 581 0 
L 581 3500 
L 1159 3500 
L 1159 2956 
Q 1356 3278 1631 3431 
Q 1906 3584 2284 3584 
Q 2666 3584 2933 3390 
Q 3200 3197 3328 2828 
z
" transform="scale(0.015625)"/>
       <path id="DejaVuSans-65" d="M 3597 1894 
L 3597 1613 
L 953 1613 
Q 991 1019 1311 708 
Q 1631 397 2203 397 
Q 2534 397 2845 478 
Q 3156 559 3463 722 
L 3463 178 
Q 3153 47 2828 -22 
Q 2503 -91 2169 -91 
Q 1331 -91 842 396 
Q 353 884 353 1716 
Q 353 2575 817 3079 
Q 1281 3584 2069 3584 
Q 2775 3584 3186 3129 
Q 3597 2675 3597 1894 
z
M 3022 2063 
Q 3016 2534 2758 2815 
Q 2500 3097 2075 3097 
Q 1594 3097 1305 2825 
Q 1016 2553 972 2059 
L 3022 2063 
z
" transform="scale(0.015625)"/>
       <path id="DejaVuSans-20" transform="scale(0.015625)"/>
       <path id="DejaVuSans-28" d="M 1984 4856 
Q 1566 4138 1362 3434 
Q 1159 2731 1159 2009 
Q 1159 1288 1364 580 
Q 1569 -128 1984 -844 
L 1484 -844 
Q 1016 -109 783 600 
Q 550 1309 550 2009 
Q 550 2706 781 3412 
Q 1013 4119 1484 4856 
L 1984 4856 
z
" transform="scale(0.015625)"/>
       <path id="DejaVuSans-73" d="M 2834 3397 
L 2834 2853 
Q 2591 2978 2328 3040 
Q 2066 3103 1784 3103 
Q 1356 3103 1142 2972 
Q 928 2841 928 2578 
Q 928 2378 1081 2264 
Q 1234 2150 1697 2047 
L 1894 2003 
Q 2506 1872 2764 1633 
Q 3022 1394 3022 966 
Q 3022 478 2636 193 
Q 2250 -91 1575 -91 
Q 1294 -91 989 -36 
Q 684 19 347 128 
L 347 722 
Q 666 556 975 473 
Q 1284 391 1588 391 
Q 1994 391 2212 530 
Q 2431 669 2431 922 
Q 2431 1156 2273 1281 
Q 2116 1406 1581 1522 
L 1381 1569 
Q 847 1681 609 1914 
Q 372 2147 372 2553 
Q 372 3047 722 3315 
Q 1072 3584 1716 3584 
Q 2034 3584 2315 3537 
Q 2597 3491 2834 3397 
z
" transform="scale(0.015625)"/>
       <path id="DejaVuSans-29" d="M 513 4856 
L 1013 4856 
Q 1481 4119 1714 3412 
Q 1947 2706 1947 2009 
Q 1947 1309 1714 600 
Q 1481 -109 1013 -844 
L 513 -844 
Q 928 -128 1133 580 
Q 1338 1288 1338 2009 
Q 1338 2731 1133 3434 
Q 928 4138 513 4856 
z
" transform="scale(0.015625)"/>
      </defs>
      <use xlink:href="#DejaVuSans-54"/>
      <use xlink:href="#DejaVuSans-69" x="57.958984"/>
      <use xlink:href="#DejaVuSans-6d" x="85.742188"/>
      <use xlink:href="#DejaVuSans-65" x="183.154297"/>
      <use xlink:href="#DejaVuSans-20" x="244.677734"/>
      <use xlink:href="#DejaVuSans-28" x="276.464844"/>
      <use xlink:href="#DejaVuSans-73" x="315.478516"/>
      <use xlink:href="#DejaVuSans-29" x="367.578125"/>
     </g>
    </g>
   </g>
   <g id="matplotlib.axis_2">
    <g id="ytick_1">
     <g id="line2d_11">
      <path d="M 54.02 236.078182 
L 709.2 236.078182 
" clip-path="url(#pcdc43dc5b1)" style="fill: none; stroke: #b0b0b0; stroke-width: 0.8; stroke-linecap: square"/>
     </g>
     <g id="line2d_12">
      <defs>
       <path id="mb9f5000d64" d="M 0 0 
L -3.5 0 
" style="stroke: #000000; stroke-width: 0.8"/>
      </defs>
      <g>
       <use xlink:href="#mb9f5000d64" x="54.02" y="236.078182" style="stroke: #000000; stroke-width: 0.8"/>
      </g>
     </g>
     <g id="text_7">
      <!-- 0.00 -->
      <g transform="translate(24.754375 239.877401) scale(0.1 -0.1)">
       <defs>
        <path id="DejaVuSans-2e" d="M 684 794 
L 1344 794 
L 1344 0 
L 684 0 
L 684 794 
z
" transform="scale(0.015625)"/>
       </defs>
       <use xlink:href="#DejaVuSans-30"/>
       <use xlink:href="#DejaVuSans-2e" x="63.623047"/>
       <use xlink:href="#DejaVuSans-30" x="95.410156"/>
       <use xlink:href="#DejaVuSans-30" x="159.033203"/>
      </g>
     </g>
    </g>
    <g id="ytick_2">
     <g id="line2d_13">
      <path d="M 54.02 196.212571 
L 709.2 196.212571 
" clip-path="url(#pcdc43dc5b1)" style="fill: none; stroke: #b0b0b0; stroke-width: 0.8; stroke-linecap: square"/>
     </g>
     <g id="line2d_14">
      <g>
       <use xlink:href="#mb9f5000d64" x="54.02" y="196.212571" style="stroke: #000000; stroke-width: 0.8"/>
      </g>
     </g>
     <g id="text_8">
      <!-- 0.02 -->
      <g transform="translate(24.754375 200.01179) scale(0.1 -0.1)">
       <use xlink:href="#DejaVuSans-30"/>
       <use xlink:href="#DejaVuSans-2e" x="63.623047"/>
       <use xlink:href="#DejaVuSans-30" x="95.410156"/>
       <use xlink:href="#DejaVuSans-32" x="159.033203"/>
      </g>
     </g>
    </g>
    <g id="ytick_3">
     <g id="line2d_15">
      <path d="M 54.02 156.34696 
L 709.2 156.34696 
" clip-path="url(#pcdc43dc5b1)" style="fill: none; stroke: #b0b0b0; stroke-width: 0.8; stroke-linecap: square"/>
     </g>
     <g id="line2d_16">
      <g>
       <use xlink:href="#mb9f5000d64" x="54.02" y="156.34696" style="stroke: #000000; stroke-width: 0.8"/>
      </g>
     </g>
     <g id="text_9">
      <!-- 0.04 -->
      <g transform="translate(24.754375 160.146179) scale(0.1 -0.1)">
       <use xlink:href="#DejaVuSans-30"/>
       <use xlink:href="#DejaVuSans-2e" x="63.623047"/>
       <use xlink:href="#DejaVuSans-30" x="95.410156"/>
       <use xlink:href="#DejaVuSans-34" x="159.033203"/>
      </g>
     </g>
    </g>
    <g id="ytick_4">
     <g id="line2d_17">
      <path d="M 54.02 116.481349 
L 709.2 116.481349 
" clip-path="url(#pcdc43dc5b1)" style="fill: none; stroke: #b0b0b0; stroke-width: 0.8; stroke-linecap: square"/>
     </g>
     <g id="line2d_18">
      <g>
       <use xlink:href="#mb9f5000d64" x="54.02" y="116.481349" style="stroke: #000000; stroke-width: 0.8"/>
      </g>
     </g>
     <g id="text_10">
      <!-- 0.06 -->
      <g transform="translate(24.754375 120.280568) scale(0.1 -0.1)">
       <defs>
        <path id="DejaVuSans-36" d="M 2113 2584 
Q 1688 2584 1439 2293 
Q 1191 2003 1191 1497 
Q 1191 994 1439 701 
Q 1688 409 2113 409 
Q 2538 409 2786 701 
Q 3034 994 3034 1497 
Q 3034 2003 2786 2293 
Q 2538 2584 2113 2584 
z
M 3366 4563 
L 3366 3988 
Q 3128 4100 2886 4159 
Q 2644 4219 2406 4219 
Q 1781 4219 1451 3797 
Q 1122 3375 1075 2522 
Q 1259 2794 1537 2939 
Q 1816 3084 2150 3084 
Q 2853 3084 3261 2657 
Q 3669 2231 3669 1497 
Q 3669 778 3244 343 
Q 2819 -91 2113 -91 
Q 1303 -91 875 529 
Q 447 1150 447 2328 
Q 447 3434 972 4092 
Q 1497 4750 2381 4750 
Q 2619 4750 2861 4703 
Q 3103 4656 3366 4563 
z
" transform="scale(0.015625)"/>
       </defs>
       <use xlink:href="#DejaVuSans-30"/>
       <use xlink:href="#DejaVuSans-2e" x="63.623047"/>
       <use xlink:href="#DejaVuSans-30" x="95.410156"/>
       <use xlink:href="#DejaVuSans-36" x="159.033203"/>
      </g>
     </g>
    </g>
    <g id="ytick_5">
     <g id="line2d_19">
      <path d="M 54.02 76.615738 
L 709.2 76.615738 
" clip-path="url(#pcdc43dc5b1)" style="fill: none; stroke: #b0b0b0; stroke-width: 0.8; stroke-linecap: square"/>
     </g>
     <g id="line2d_20">
      <g>
       <use xlink:href="#mb9f5000d64" x="54.02" y="76.615738" style="stroke: #000000; stroke-width: 0.8"/>
      </g>
     </g>
     <g id="text_11">
      <!-- 0.08 -->
      <g transform="translate(24.754375 80.414957) scale(0.1 -0.1)">
       <defs>
        <path id="DejaVuSans-38" d="M 2034 2216 
Q 1584 2216 1326 1975 
Q 1069 1734 1069 1313 
Q 1069 891 1326 650 
Q 1584 409 2034 409 
Q 2484 409 2743 651 
Q 3003 894 3003 1313 
Q 3003 1734 2745 1975 
Q 2488 2216 2034 2216 
z
M 1403 2484 
Q 997 2584 770 2862 
Q 544 3141 544 3541 
Q 544 4100 942 4425 
Q 1341 4750 2034 4750 
Q 2731 4750 3128 4425 
Q 3525 4100 3525 3541 
Q 3525 3141 3298 2862 
Q 3072 2584 2669 2484 
Q 3125 2378 3379 2068 
Q 3634 1759 3634 1313 
Q 3634 634 3220 271 
Q 2806 -91 2034 -91 
Q 1263 -91 848 271 
Q 434 634 434 1313 
Q 434 1759 690 2068 
Q 947 2378 1403 2484 
z
M 1172 3481 
Q 1172 3119 1398 2916 
Q 1625 2713 2034 2713 
Q 2441 2713 2670 2916 
Q 2900 3119 2900 3481 
Q 2900 3844 2670 4047 
Q 2441 4250 2034 4250 
Q 1625 4250 1398 4047 
Q 1172 3844 1172 3481 
z
" transform="scale(0.015625)"/>
       </defs>
       <use xlink:href="#DejaVuSans-30"/>
       <use xlink:href="#DejaVuSans-2e" x="63.623047"/>
       <use xlink:href="#DejaVuSans-30" x="95.410156"/>
       <use xlink:href="#DejaVuSans-38" x="159.033203"/>
      </g>
     </g>
    </g>
    <g id="ytick_6">
     <g id="line2d_21">
      <path d="M 54.02 36.750127 
L 709.2 36.750127 
" clip-path="url(#pcdc43dc5b1)" style="fill: none; stroke: #b0b0b0; stroke-width: 0.8; stroke-linecap: square"/>
     </g>
     <g id="line2d_22">
      <g>
       <use xlink:href="#mb9f5000d64" x="54.02" y="36.750127" style="stroke: #000000; stroke-width: 0.8"/>
      </g>
     </g>
     <g id="text_12">
      <!-- 0.10 -->
      <g transform="translate(24.754375 40.549346) scale(0.1 -0.1)">
       <use xlink:href="#DejaVuSans-30"/>
       <use xlink:href="#DejaVuSans-2e" x="63.623047"/>
       <use xlink:href="#DejaVuSans-31" x="95.410156"/>
       <use xlink:href="#DejaVuSans-30" x="159.033203"/>
      </g>
     </g>
    </g>
    <g id="text_13">
     <!-- Delta Value -->
     <g transform="translate(18.674688 165.120156) rotate(-90) scale(0.1 -0.1)">
      <defs>
       <path id="DejaVuSans-44" d="M 1259 4147 
L 1259 519 
L 2022 519 
Q 2988 519 3436 956 
Q 3884 1394 3884 2338 
Q 3884 3275 3436 3711 
Q 2988 4147 2022 4147 
L 1259 4147 
z
M 628 4666 
L 1925 4666 
Q 3281 4666 3915 4102 
Q 4550 3538 4550 2338 
Q 4550 1131 3912 565 
Q 3275 0 1925 0 
L 628 0 
L 628 4666 
z
" transform="scale(0.015625)"/>
       <path id="DejaVuSans-6c" d="M 603 4863 
L 1178 4863 
L 1178 0 
L 603 0 
L 603 4863 
z
" transform="scale(0.015625)"/>
       <path id="DejaVuSans-74" d="M 1172 4494 
L 1172 3500 
L 2356 3500 
L 2356 3053 
L 1172 3053 
L 1172 1153 
Q 1172 725 1289 603 
Q 1406 481 1766 481 
L 2356 481 
L 2356 0 
L 1766 0 
Q 1100 0 847 248 
Q 594 497 594 1153 
L 594 3053 
L 172 3053 
L 172 3500 
L 594 3500 
L 594 4494 
L 1172 4494 
z
" transform="scale(0.015625)"/>
       <path id="DejaVuSans-61" d="M 2194 1759 
Q 1497 1759 1228 1600 
Q 959 1441 959 1056 
Q 959 750 1161 570 
Q 1363 391 1709 391 
Q 2188 391 2477 730 
Q 2766 1069 2766 1631 
L 2766 1759 
L 2194 1759 
z
M 3341 1997 
L 3341 0 
L 2766 0 
L 2766 531 
Q 2569 213 2275 61 
Q 1981 -91 1556 -91 
Q 1019 -91 701 211 
Q 384 513 384 1019 
Q 384 1609 779 1909 
Q 1175 2209 1959 2209 
L 2766 2209 
L 2766 2266 
Q 2766 2663 2505 2880 
Q 2244 3097 1772 3097 
Q 1472 3097 1187 3025 
Q 903 2953 641 2809 
L 641 3341 
Q 956 3463 1253 3523 
Q 1550 3584 1831 3584 
Q 2591 3584 2966 3190 
Q 3341 2797 3341 1997 
z
" transform="scale(0.015625)"/>
       <path id="DejaVuSans-56" d="M 1831 0 
L 50 4666 
L 709 4666 
L 2188 738 
L 3669 4666 
L 4325 4666 
L 2547 0 
L 1831 0 
z
" transform="scale(0.015625)"/>
       <path id="DejaVuSans-75" d="M 544 1381 
L 544 3500 
L 1119 3500 
L 1119 1403 
Q 1119 906 1312 657 
Q 1506 409 1894 409 
Q 2359 409 2629 706 
Q 2900 1003 2900 1516 
L 2900 3500 
L 3475 3500 
L 3475 0 
L 2900 0 
L 2900 538 
Q 2691 219 2414 64 
Q 2138 -91 1772 -91 
Q 1169 -91 856 284 
Q 544 659 544 1381 
z
M 1991 3584 
L 1991 3584 
z
" transform="scale(0.015625)"/>
      </defs>
      <use xlink:href="#DejaVuSans-44"/>
      <use xlink:href="#DejaVuSans-65" x="77.001953"/>
      <use xlink:href="#DejaVuSans-6c" x="138.525391"/>
      <use xlink:href="#DejaVuSans-74" x="166.308594"/>
      <use xlink:href="#DejaVuSans-61" x="205.517578"/>
      <use xlink:href="#DejaVuSans-20" x="266.796875"/>
      <use xlink:href="#DejaVuSans-56" x="298.583984"/>
      <use xlink:href="#DejaVuSans-61" x="359.242188"/>
      <use xlink:href="#DejaVuSans-6c" x="420.521484"/>
      <use xlink:href="#DejaVuSans-75" x="448.304688"/>
      <use xlink:href="#DejaVuSans-65" x="511.683594"/>
     </g>
    </g>
   </g>
   <g id="line2d_23">
    <path d="M 83.800909 236.078182 
L 84.075248 58.322804 
L 84.161881 235.986491 
L 84.638364 36.841818 
L 84.724997 235.986491 
L 85.519136 36.841818 
L 85.605769 235.986491 
L 86.053374 36.841818 
L 86.140007 235.986491 
L 86.919707 36.841818 
L 87.00634 235.986491 
L 87.381751 36.841818 
L 87.468384 235.986491 
L 87.915989 36.841818 
L 88.002623 235.986491 
L 88.825639 151.481091 
L 89.157733 235.897696 
L 89.287683 121.619395 
L 89.374316 235.986491 
L 89.821921 36.841818 
L 89.908555 235.986491 
L 90.514988 36.841818 
L 90.601621 235.986491 
L 91.034787 36.841818 
L 91.121421 235.986491 
L 91.742292 36.841818 
L 91.828926 235.986491 
L 92.449797 36.841818 
L 92.536431 235.986491 
L 93.171741 36.841818 
L 93.258375 235.986491 
L 93.850369 36.841818 
L 93.937002 235.986491 
L 94.760018 151.863826 
L 95.106551 235.905721 
L 95.568595 234.072942 
L 95.972884 235.905721 
L 96.434928 234.072942 
L 96.781461 235.905721 
L 97.041361 125.584037 
L 97.127994 235.986491 
L 97.56116 36.841818 
L 97.647794 235.986491 
L 98.254227 36.841818 
L 98.34086 235.986491 
L 98.774026 36.841818 
L 98.860659 235.986491 
L 99.467092 36.841818 
L 99.553726 235.986491 
L 99.943575 36.841818 
L 100.030209 235.986491 
L 100.463375 36.841818 
L 100.550008 235.986491 
L 101.156441 36.841818 
L 101.243074 235.986491 
L 101.676241 36.841818 
L 101.762874 235.986491 
L 102.369307 36.841818 
L 102.45594 235.986491 
L 102.84579 36.841818 
L 102.932423 235.986491 
L 103.394467 36.841818 
L 103.481101 235.986491 
L 104.087534 36.841818 
L 104.174167 235.986491 
L 104.607333 36.841818 
L 104.693966 235.986491 
L 105.300399 36.841818 
L 105.387033 235.986491 
L 105.776882 36.841818 
L 105.863516 235.986491 
L 106.296682 36.841818 
L 106.383315 235.986491 
L 106.989748 36.841818 
L 107.076381 235.986491 
L 107.509548 36.841818 
L 107.596181 235.986491 
L 108.202614 36.841818 
L 108.289247 235.986491 
L 108.679097 36.841818 
L 108.76573 235.986491 
L 109.198897 36.841818 
L 109.28553 235.986491 
L 109.891963 36.841818 
L 109.978596 235.986491 
L 110.44064 36.841818 
L 110.527273 235.986491 
L 111.133706 36.841818 
L 111.22034 235.986491 
L 111.610189 36.841818 
L 111.696823 235.986491 
L 112.129989 36.841818 
L 112.216622 235.986491 
L 112.823055 36.841818 
L 112.909688 235.986491 
L 113.342855 36.841818 
L 113.429488 235.986491 
L 114.035921 36.841818 
L 114.122554 235.986491 
L 114.512404 36.841818 
L 114.599037 235.986491 
L 115.032204 36.841818 
L 115.118837 235.986491 
L 115.72527 36.841818 
L 115.811903 235.986491 
L 116.245069 36.841818 
L 116.331703 235.986491 
L 116.938136 36.841818 
L 117.024769 235.986491 
L 117.414619 36.841818 
L 117.501252 235.986491 
L 117.963296 36.841818 
L 118.049929 235.986491 
L 118.656362 36.841818 
L 118.742995 235.986491 
L 119.176162 36.841818 
L 119.262795 235.986491 
L 119.869228 36.841818 
L 119.955861 235.986491 
L 120.345711 36.841818 
L 120.432344 235.986491 
L 120.865511 36.841818 
L 120.952144 235.986491 
L 121.558577 36.841818 
L 121.64521 235.986491 
L 122.078376 36.841818 
L 122.16501 235.986491 
L 122.771442 36.841818 
L 122.858076 235.986491 
L 123.247925 36.841818 
L 123.334559 235.986491 
L 123.767725 36.841818 
L 123.854358 235.986491 
L 124.460791 36.841818 
L 124.547425 235.986491 
L 125.009469 36.841818 
L 125.096102 235.986491 
L 125.702535 36.841818 
L 125.789168 235.986491 
L 126.179018 36.841818 
L 126.265651 235.986491 
L 126.698817 36.841818 
L 126.785451 235.986491 
L 127.391884 36.841818 
L 127.478517 235.986491 
L 127.911683 36.841818 
L 127.998317 235.986491 
L 128.604749 36.841818 
L 128.691383 235.986491 
L 129.081232 36.841818 
L 129.167866 235.986491 
L 129.601032 36.841818 
L 129.687665 235.986491 
L 130.294098 36.841818 
L 130.380732 235.986491 
L 130.813898 36.841818 
L 130.900531 235.986491 
L 131.506964 36.841818 
L 131.593597 235.986491 
L 131.983447 36.841818 
L 132.07008 235.986491 
L 132.532124 36.841818 
L 132.618758 235.986491 
L 133.225191 36.841818 
L 133.311824 235.986491 
L 133.74499 36.841818 
L 133.831623 235.986491 
L 134.438056 36.841818 
L 134.52469 235.986491 
L 134.914539 36.841818 
L 135.001173 235.986491 
L 135.434339 36.841818 
L 135.520972 235.986491 
L 136.127405 36.841818 
L 136.214038 235.986491 
L 136.647205 36.841818 
L 136.733838 235.986491 
L 137.340271 36.841818 
L 137.426904 235.986491 
L 137.816754 36.841818 
L 137.903387 235.986491 
L 138.336554 36.841818 
L 138.423187 235.986491 
L 139.02962 36.841818 
L 139.116253 235.986491 
L 139.578297 36.841818 
L 139.66493 235.986491 
L 140.271363 36.841818 
L 140.357997 235.986491 
L 140.747846 36.841818 
L 140.83448 235.986491 
L 141.267646 36.841818 
L 141.354279 235.986491 
L 141.960712 36.841818 
L 142.047345 235.986491 
L 142.480512 36.841818 
L 142.567145 235.986491 
L 143.173578 36.841818 
L 143.260211 235.986491 
L 143.650061 36.841818 
L 143.736694 235.986491 
L 144.169861 36.841818 
L 144.256494 235.986491 
L 144.862927 36.841818 
L 144.94956 235.986491 
L 145.382726 36.841818 
L 145.46936 235.986491 
L 146.075793 36.841818 
L 146.162426 235.986491 
L 146.552276 36.841818 
L 146.638909 235.986491 
L 147.100953 36.841818 
L 147.187586 235.986491 
L 147.794019 36.841818 
L 147.880652 235.986491 
L 148.313819 36.841818 
L 148.400452 235.986491 
L 149.006885 36.841818 
L 149.093518 235.986491 
L 149.483368 36.841818 
L 149.570001 235.986491 
L 150.003168 36.841818 
L 150.089801 235.986491 
L 150.696234 36.841818 
L 150.782867 235.986491 
L 151.216033 36.841818 
L 151.302667 235.986491 
L 151.9091 36.841818 
L 151.995733 235.986491 
L 152.385583 36.841818 
L 152.472216 235.986491 
L 152.905382 36.841818 
L 152.992015 235.986491 
L 153.598448 36.841818 
L 153.685082 235.986491 
L 154.147126 36.841818 
L 154.233759 235.986491 
L 154.840192 36.841818 
L 154.926825 235.986491 
L 155.316675 36.841818 
L 155.403308 235.986491 
L 155.836475 36.841818 
L 155.923108 235.986491 
L 156.529541 36.841818 
L 156.616174 235.986491 
L 157.04934 36.841818 
L 157.135974 235.986491 
L 157.742406 36.841818 
L 157.82904 235.986491 
L 158.218889 36.841818 
L 158.305523 235.986491 
L 158.738689 36.841818 
L 158.825322 235.986491 
L 159.431755 36.841818 
L 159.518389 235.986491 
L 159.951555 36.841818 
L 160.038188 235.986491 
L 160.644621 36.841818 
L 160.731254 235.986491 
L 161.121104 36.841818 
L 161.207737 235.986491 
L 161.669781 36.841818 
L 161.756415 235.986491 
L 162.362848 36.841818 
L 162.449481 235.986491 
L 162.882647 36.841818 
L 162.969281 235.986491 
L 163.575713 36.841818 
L 163.662347 235.986491 
L 164.052196 36.841818 
L 164.13883 235.986491 
L 164.571996 36.841818 
L 164.658629 235.986491 
L 165.265062 36.841818 
L 165.351696 235.986491 
L 165.784862 36.841818 
L 165.871495 235.986491 
L 166.477928 36.841818 
L 166.564561 235.986491 
L 166.954411 36.841818 
L 167.041044 235.986491 
L 167.474211 36.841818 
L 167.560844 235.986491 
L 168.167277 36.841818 
L 168.25391 235.986491 
L 168.715954 36.841818 
L 168.802588 235.986491 
L 169.40902 36.841818 
L 169.495654 235.986491 
L 169.885503 36.841818 
L 169.972137 235.986491 
L 170.405303 36.841818 
L 170.491936 235.986491 
L 171.098369 36.841818 
L 171.185002 235.986491 
L 171.618169 36.841818 
L 171.704802 235.986491 
L 172.311235 36.841818 
L 172.397868 235.986491 
L 172.787718 36.841818 
L 172.874351 235.986491 
L 173.307518 36.841818 
L 173.394151 235.986491 
L 174.000584 36.841818 
L 174.087217 235.986491 
L 174.520383 36.841818 
L 174.607017 235.986491 
L 175.21345 36.841818 
L 175.300083 235.986491 
L 175.689933 36.841818 
L 175.776566 235.986491 
L 176.23861 36.841818 
L 176.325243 235.986491 
L 176.931676 36.841818 
L 177.018309 235.986491 
L 177.451476 36.841818 
L 177.538109 235.986491 
L 178.144542 36.841818 
L 178.231175 235.986491 
L 178.621025 36.841818 
L 178.707658 235.986491 
L 179.140825 36.841818 
L 179.227458 235.986491 
L 179.833891 36.841818 
L 179.920524 235.986491 
L 180.35369 36.841818 
L 180.440324 235.986491 
L 181.046757 36.841818 
L 181.13339 235.986491 
L 181.52324 36.841818 
L 181.609873 235.986491 
L 182.043039 36.841818 
L 182.129672 235.986491 
L 182.736105 36.841818 
L 182.822739 235.986491 
L 183.284783 36.841818 
L 183.371416 235.986491 
L 183.977849 36.841818 
L 184.064482 235.986491 
L 184.454332 36.841818 
L 184.540965 235.986491 
L 184.974132 36.841818 
L 185.060765 235.986491 
L 185.667198 36.841818 
L 185.753831 235.986491 
L 186.186997 36.841818 
L 186.273631 235.986491 
L 186.880064 36.841818 
L 186.966697 235.986491 
L 187.356547 36.841818 
L 187.44318 235.986491 
L 187.876346 36.841818 
L 187.962979 235.986491 
L 188.569412 36.841818 
L 188.656046 235.986491 
L 189.089212 36.841818 
L 189.175845 235.986491 
L 189.782278 36.841818 
L 189.868911 235.986491 
L 190.258761 36.841818 
L 190.345394 235.986491 
L 190.807439 36.841818 
L 190.894072 235.986491 
L 191.500505 36.841818 
L 191.587138 235.986491 
L 192.020304 36.841818 
L 192.106938 235.986491 
L 192.71337 36.841818 
L 192.800004 235.986491 
L 193.189853 36.841818 
L 193.276487 235.986491 
L 193.709653 36.841818 
L 193.796286 235.986491 
L 194.402719 36.841818 
L 194.489353 235.986491 
L 194.922519 36.841818 
L 195.009152 235.986491 
L 195.615585 36.841818 
L 195.702218 235.986491 
L 196.092068 36.841818 
L 196.178701 235.986491 
L 196.611868 36.841818 
L 196.698501 235.986491 
L 197.304934 36.841818 
L 197.391567 235.986491 
L 197.853611 36.841818 
L 197.940245 235.986491 
L 198.546677 36.841818 
L 198.633311 235.986491 
L 199.02316 36.841818 
L 199.109794 235.986491 
L 199.54296 36.841818 
L 199.629593 235.986491 
L 200.236026 36.841818 
L 200.32266 235.986491 
L 200.755826 36.841818 
L 200.842459 235.986491 
L 201.448892 36.841818 
L 201.535525 235.986491 
L 201.925375 36.841818 
L 202.012008 235.986491 
L 202.445175 36.841818 
L 202.531808 235.986491 
L 203.138241 36.841818 
L 203.224874 235.986491 
L 203.65804 36.841818 
L 203.744674 235.986491 
L 204.351107 36.841818 
L 204.43774 235.986491 
L 204.82759 36.841818 
L 204.914223 235.986491 
L 205.376267 36.841818 
L 205.4629 235.986491 
L 206.069333 36.841818 
L 206.155966 235.986491 
L 206.589133 36.841818 
L 206.675766 235.986491 
L 207.282199 36.841818 
L 207.368832 235.986491 
L 207.758682 36.841818 
L 207.845315 235.986491 
L 208.278482 36.841818 
L 208.365115 235.986491 
L 208.971548 36.841818 
L 209.058181 235.986491 
L 209.491347 36.841818 
L 209.577981 235.986491 
L 210.184414 36.841818 
L 210.271047 235.986491 
L 210.660897 36.841818 
L 210.74753 235.986491 
L 211.180696 36.841818 
L 211.26733 235.986491 
L 211.873762 36.841818 
L 211.960396 235.986491 
L 212.42244 36.841818 
L 212.509073 235.986491 
L 213.115506 36.841818 
L 213.202139 235.986491 
L 213.591989 36.841818 
L 213.678622 235.986491 
L 214.111789 36.841818 
L 214.198422 235.986491 
L 214.804855 36.841818 
L 214.891488 235.986491 
L 215.324654 36.841818 
L 215.411288 235.986491 
L 216.017721 36.841818 
L 216.104354 235.986491 
L 216.494204 36.841818 
L 216.580837 235.986491 
L 217.014003 36.841818 
L 217.100636 235.986491 
L 217.707069 36.841818 
L 217.793703 235.986491 
L 218.226869 36.841818 
L 218.313502 235.986491 
L 218.919935 36.841818 
L 219.006568 235.986491 
L 219.396418 36.841818 
L 219.483051 235.986491 
L 219.945096 36.841818 
L 220.031729 235.986491 
L 220.638162 36.841818 
L 220.724795 235.986491 
L 221.157961 36.841818 
L 221.244595 235.986491 
L 221.851028 36.841818 
L 221.937661 235.986491 
L 222.327511 36.841818 
L 222.414144 235.986491 
L 222.84731 36.841818 
L 222.933943 235.986491 
L 223.540376 36.841818 
L 223.62701 235.986491 
L 224.060176 36.841818 
L 224.146809 235.986491 
L 224.753242 36.841818 
L 224.839875 235.986491 
L 225.229725 36.841818 
L 225.316358 235.986491 
L 225.749525 36.841818 
L 225.836158 235.986491 
L 226.442591 36.841818 
L 226.529224 235.986491 
L 226.991268 36.841818 
L 227.077902 235.986491 
L 227.684335 36.841818 
L 227.770968 235.986491 
L 228.160818 36.841818 
L 228.247451 235.986491 
L 228.680617 36.841818 
L 228.76725 235.986491 
L 229.373683 36.841818 
L 229.460317 235.986491 
L 229.893483 36.841818 
L 229.980116 235.986491 
L 230.586549 36.841818 
L 230.673182 235.986491 
L 231.063032 36.841818 
L 231.149665 235.986491 
L 231.582832 36.841818 
L 231.669465 235.986491 
L 232.275898 36.841818 
L 232.362531 235.986491 
L 232.795698 36.841818 
L 232.882331 235.986491 
L 233.488764 36.841818 
L 233.575397 235.986491 
L 233.965247 36.841818 
L 234.05188 235.986491 
L 234.513924 36.841818 
L 234.600557 235.986491 
L 235.20699 36.841818 
L 235.293624 235.986491 
L 235.72679 36.841818 
L 235.813423 235.986491 
L 236.419856 36.841818 
L 236.506489 235.986491 
L 236.896339 36.841818 
L 236.982972 235.986491 
L 237.416139 36.841818 
L 237.502772 235.986491 
L 238.109205 36.841818 
L 238.195838 235.986491 
L 238.629004 36.841818 
L 238.715638 235.986491 
L 239.322071 36.841818 
L 239.408704 235.986491 
L 239.798554 36.841818 
L 239.885187 235.986491 
L 240.318353 36.841818 
L 240.404987 235.986491 
L 241.011419 36.841818 
L 241.098053 235.986491 
L 241.560097 36.841818 
L 241.64673 235.986491 
L 242.253163 36.841818 
L 242.339796 235.986491 
L 242.729646 36.841818 
L 242.816279 235.986491 
L 243.249446 36.841818 
L 243.336079 235.986491 
L 243.942512 36.841818 
L 244.029145 235.986491 
L 244.462311 36.841818 
L 244.548945 235.986491 
L 245.155378 36.841818 
L 245.242011 235.986491 
L 245.631861 36.841818 
L 245.718494 235.986491 
L 246.15166 36.841818 
L 246.238294 235.986491 
L 246.844726 36.841818 
L 246.93136 235.986491 
L 247.364526 36.841818 
L 247.451159 235.986491 
L 248.057592 36.841818 
L 248.144226 235.986491 
L 248.534075 36.841818 
L 248.620709 235.986491 
L 249.082753 36.841818 
L 249.169386 235.986491 
L 249.775819 36.841818 
L 249.862452 235.986491 
L 250.295618 36.841818 
L 250.382252 235.986491 
L 250.988685 36.841818 
L 251.075318 235.986491 
L 251.465168 36.841818 
L 251.551801 235.986491 
L 251.984967 36.841818 
L 252.0716 235.986491 
L 252.678033 36.841818 
L 252.764667 235.986491 
L 253.197833 36.841818 
L 253.284466 235.986491 
L 253.890899 36.841818 
L 253.977532 235.986491 
L 254.367382 36.841818 
L 254.454015 235.986491 
L 254.887182 36.841818 
L 254.973815 235.986491 
L 255.580248 36.841818 
L 255.666881 235.986491 
L 256.100048 36.841818 
L 256.186681 235.986491 
L 256.764236 36.841818 
L 256.850869 235.986491 
L 257.269597 36.841818 
L 257.35623 235.986491 
L 257.977102 36.841818 
L 258.063735 235.986491 
L 258.64129 36.841818 
L 258.727924 235.986491 
L 259.175529 36.841818 
L 259.262162 235.986491 
L 260.0563 36.841818 
L 260.142934 235.986491 
L 260.547222 36.841818 
L 260.633856 235.986491 
L 261.254727 36.841818 
L 261.341361 235.986491 
L 261.918916 36.841818 
L 262.005549 235.986491 
L 262.482032 36.841818 
L 262.568665 235.986491 
L 263.853725 36.841818 
L 263.940359 235.986491 
L 264.344647 36.841818 
L 264.431281 235.986491 
L 264.893325 36.841818 
L 264.979958 235.986491 
L 265.60083 36.841818 
L 265.687463 235.986491 
L 266.308335 36.841818 
L 266.394968 235.986491 
L 269.71591 36.841818 
L 269.802543 235.986491 
L 270.192393 36.841818 
L 270.279026 235.986491 
L 270.712193 36.841818 
L 270.798826 235.986491 
L 271.405259 36.841818 
L 271.491892 235.986491 
L 271.925059 36.841818 
L 272.011692 235.986491 
L 272.618125 36.841818 
L 272.704758 235.986491 
L 273.094608 36.841818 
L 273.181241 235.986491 
L 273.614407 36.841818 
L 273.701041 235.986491 
L 274.307474 36.841818 
L 274.394107 235.986491 
L 274.856151 36.841818 
L 274.942784 235.986491 
L 275.549217 36.841818 
L 275.63585 235.986491 
L 276.0257 36.841818 
L 276.112333 235.986491 
L 276.5455 36.841818 
L 276.632133 235.986491 
L 277.238566 36.841818 
L 277.325199 235.986491 
L 277.758366 36.841818 
L 277.844999 235.986491 
L 278.451432 36.841818 
L 278.538065 235.986491 
L 278.927915 36.841818 
L 279.014548 235.986491 
L 279.447714 36.841818 
L 279.534348 235.986491 
L 280.140781 36.841818 
L 280.227414 235.986491 
L 280.66058 36.841818 
L 280.747213 235.986491 
L 281.353646 36.841818 
L 281.44028 235.986491 
L 281.830129 36.841818 
L 281.916763 235.986491 
L 282.378807 36.841818 
L 282.46544 235.986491 
L 283.071873 36.841818 
L 283.158506 235.986491 
L 283.591673 36.841818 
L 283.678306 235.986491 
L 284.284739 36.841818 
L 284.371372 235.986491 
L 284.761222 36.841818 
L 284.847855 235.986491 
L 285.281021 36.841818 
L 285.367655 235.986491 
L 285.974087 36.841818 
L 286.060721 235.986491 
L 286.493887 36.841818 
L 286.58052 235.986491 
L 287.186953 36.841818 
L 287.273587 235.986491 
L 287.663436 36.841818 
L 287.75007 235.986491 
L 288.183236 36.841818 
L 288.269869 235.986491 
L 288.876302 36.841818 
L 288.962935 235.986491 
L 289.424979 36.841818 
L 289.511613 235.986491 
L 290.118046 36.841818 
L 290.204679 235.986491 
L 290.594529 36.841818 
L 290.681162 235.986491 
L 291.114328 36.841818 
L 291.200962 235.986491 
L 291.807394 36.841818 
L 291.894028 235.986491 
L 292.327194 36.841818 
L 292.413827 235.986491 
L 293.02026 36.841818 
L 293.106894 235.986491 
L 293.496743 36.841818 
L 293.583377 235.986491 
L 294.016543 36.841818 
L 294.103176 235.986491 
L 294.709609 36.841818 
L 294.796242 235.986491 
L 295.229409 36.841818 
L 295.316042 235.986491 
L 295.922475 36.841818 
L 296.009108 235.986491 
L 296.398958 36.841818 
L 296.485591 235.986491 
L 296.947635 36.841818 
L 297.034269 235.986491 
L 297.640701 36.841818 
L 297.727335 235.986491 
L 298.160501 36.841818 
L 298.247134 235.986491 
L 298.853567 36.841818 
L 298.9402 235.986491 
L 299.33005 36.841818 
L 299.416683 235.986491 
L 299.84985 36.841818 
L 299.936483 235.986491 
L 300.542916 36.841818 
L 300.629549 235.986491 
L 301.062716 36.841818 
L 301.149349 235.986491 
L 301.755782 36.841818 
L 301.842415 235.986491 
L 302.232265 36.841818 
L 302.318898 235.986491 
L 302.752064 36.841818 
L 302.838698 235.986491 
L 303.445131 36.841818 
L 303.531764 235.986491 
L 303.993808 36.841818 
L 304.080441 235.986491 
L 304.686874 36.841818 
L 304.773507 235.986491 
L 305.163357 36.841818 
L 305.24999 235.986491 
L 305.683157 36.841818 
L 305.76979 235.986491 
L 306.376223 36.841818 
L 306.462856 235.986491 
L 306.896023 36.841818 
L 306.982656 235.986491 
L 307.589089 36.841818 
L 307.675722 235.986491 
L 308.065572 36.841818 
L 308.152205 235.986491 
L 308.585371 36.841818 
L 308.672005 235.986491 
L 309.278438 36.841818 
L 309.365071 235.986491 
L 309.798237 36.841818 
L 309.88487 235.986491 
L 310.491303 36.841818 
L 310.577937 235.986491 
L 310.967786 36.841818 
L 311.05442 235.986491 
L 311.516464 36.841818 
L 311.603097 235.986491 
L 312.20953 36.841818 
L 312.296163 235.986491 
L 312.72933 36.841818 
L 312.815963 235.986491 
L 313.422396 36.841818 
L 313.509029 235.986491 
L 313.898879 36.841818 
L 313.985512 235.986491 
L 314.418678 36.841818 
L 314.505312 235.986491 
L 315.111745 36.841818 
L 315.198378 235.986491 
L 315.631544 36.841818 
L 315.718177 235.986491 
L 316.32461 36.841818 
L 316.411244 235.986491 
L 316.801093 36.841818 
L 316.887727 235.986491 
L 317.320893 36.841818 
L 317.407526 235.986491 
L 318.013959 36.841818 
L 318.100592 235.986491 
L 318.562637 36.841818 
L 318.64927 235.986491 
L 319.255703 36.841818 
L 319.342336 235.986491 
L 319.732186 36.841818 
L 319.818819 235.986491 
L 320.251985 36.841818 
L 320.338619 235.986491 
L 320.945051 36.841818 
L 321.031685 235.986491 
L 321.464851 36.841818 
L 321.551484 235.986491 
L 322.157917 36.841818 
L 322.244551 235.986491 
L 322.6344 36.841818 
L 322.721034 235.986491 
L 323.1542 36.841818 
L 323.240833 235.986491 
L 323.847266 36.841818 
L 323.933899 235.986491 
L 324.367066 36.841818 
L 324.453699 235.986491 
L 325.060132 36.841818 
L 325.146765 235.986491 
L 325.536615 36.841818 
L 325.623248 235.986491 
L 326.085292 36.841818 
L 326.171926 235.986491 
L 326.778358 36.841818 
L 326.864992 235.986491 
L 327.298158 36.841818 
L 327.384791 235.986491 
L 327.991224 36.841818 
L 328.077858 235.986491 
L 328.467707 36.841818 
L 328.554341 235.986491 
L 328.987507 36.841818 
L 329.07414 235.986491 
L 329.680573 36.841818 
L 329.767206 235.986491 
L 330.200373 36.841818 
L 330.287006 235.986491 
L 330.893439 36.841818 
L 330.980072 235.986491 
L 331.369922 36.841818 
L 331.456555 235.986491 
L 331.889721 36.841818 
L 331.976355 235.986491 
L 332.582788 36.841818 
L 332.669421 235.986491 
L 333.131465 36.841818 
L 333.218098 235.986491 
L 333.824531 36.841818 
L 333.911164 235.986491 
L 334.301014 36.841818 
L 334.387647 235.986491 
L 334.820814 36.841818 
L 334.907447 235.986491 
L 335.51388 36.841818 
L 335.600513 235.986491 
L 336.03368 36.841818 
L 336.120313 235.986491 
L 336.726746 36.841818 
L 336.813379 235.986491 
L 337.203229 36.841818 
L 337.289862 235.986491 
L 337.723028 36.841818 
L 337.809662 235.986491 
L 338.416095 36.841818 
L 338.502728 235.986491 
L 338.935894 36.841818 
L 339.022528 235.986491 
L 339.62896 36.841818 
L 339.715594 235.986491 
L 340.105443 36.841818 
L 340.192077 235.986491 
L 340.654121 36.841818 
L 340.740754 235.986491 
L 341.347187 36.841818 
L 341.43382 235.986491 
L 341.866987 36.841818 
L 341.95362 235.986491 
L 342.560053 36.841818 
L 342.646686 235.986491 
L 343.036536 36.841818 
L 343.123169 235.986491 
L 343.556335 36.841818 
L 343.642969 235.986491 
L 344.249402 36.841818 
L 344.336035 235.986491 
L 344.769201 36.841818 
L 344.855834 235.986491 
L 345.462267 36.841818 
L 345.548901 235.986491 
L 345.93875 36.841818 
L 346.025384 235.986491 
L 346.45855 36.841818 
L 346.545183 235.986491 
L 347.151616 36.841818 
L 347.238249 235.986491 
L 347.700294 36.841818 
L 347.786927 235.986491 
L 348.39336 36.841818 
L 348.479993 235.986491 
L 348.869843 36.841818 
L 348.956476 235.986491 
L 349.389642 36.841818 
L 349.476276 235.986491 
L 350.082709 36.841818 
L 350.169342 235.986491 
L 350.602508 36.841818 
L 350.689141 235.986491 
L 351.295574 36.841818 
L 351.382208 235.986491 
L 351.772057 36.841818 
L 351.858691 235.986491 
L 352.291857 36.841818 
L 352.37849 235.986491 
L 352.984923 36.841818 
L 353.071556 235.986491 
L 353.504723 36.841818 
L 353.591356 235.986491 
L 354.197789 36.841818 
L 354.284422 235.986491 
L 354.674272 36.841818 
L 354.760905 235.986491 
L 355.222949 36.841818 
L 355.309583 235.986491 
L 355.916016 36.841818 
L 356.002649 235.986491 
L 356.435815 36.841818 
L 356.522448 235.986491 
L 357.128881 36.841818 
L 357.215515 235.986491 
L 357.605364 36.841818 
L 357.691998 235.986491 
L 358.125164 36.841818 
L 358.211797 235.986491 
L 358.81823 36.841818 
L 358.904863 235.986491 
L 359.33803 36.841818 
L 359.424663 235.986491 
L 360.059974 36.841818 
L 360.146607 235.986491 
L 360.536457 36.841818 
L 360.62309 235.986491 
L 361.056256 36.841818 
L 361.14289 235.986491 
L 361.749322 36.841818 
L 361.835956 235.986491 
L 362.298 36.841818 
L 362.384633 235.986491 
L 362.991066 36.841818 
L 363.077699 235.986491 
L 363.467549 36.841818 
L 363.554182 235.986491 
L 363.987349 36.841818 
L 364.073982 235.986491 
L 364.680415 36.841818 
L 364.767048 235.986491 
L 365.200214 36.841818 
L 365.286848 235.986491 
L 365.893281 36.841818 
L 365.979914 235.986491 
L 366.369764 36.841818 
L 366.456397 235.986491 
L 366.889563 36.841818 
L 366.976197 235.986491 
L 367.611507 36.841818 
L 367.69814 235.986491 
L 368.131307 36.841818 
L 368.21794 235.986491 
L 368.824373 36.841818 
L 368.911006 235.986491 
L 369.300856 36.841818 
L 369.387489 235.986491 
L 369.849533 36.841818 
L 369.936167 235.986491 
L 370.5426 36.841818 
L 370.629233 235.986491 
L 371.062399 36.841818 
L 371.149032 235.986491 
L 371.755465 36.841818 
L 371.842099 235.986491 
L 372.231948 36.841818 
L 372.318582 235.986491 
L 372.751748 36.841818 
L 372.838381 235.986491 
L 373.444814 36.841818 
L 373.531447 235.986491 
L 373.964614 36.841818 
L 374.051247 235.986491 
L 374.686558 36.841818 
L 374.773191 235.986491 
L 375.163041 36.841818 
L 375.249674 235.986491 
L 375.68284 36.841818 
L 375.769474 235.986491 
L 376.375907 36.841818 
L 376.46254 235.986491 
L 376.924584 36.841818 
L 377.011217 235.986491 
L 377.61765 36.841818 
L 377.704283 235.986491 
L 378.094133 36.841818 
L 378.180766 235.986491 
L 378.613933 36.841818 
L 378.700566 235.986491 
L 379.306999 36.841818 
L 379.393632 235.986491 
L 379.826798 36.841818 
L 379.913432 235.986491 
L 380.519865 36.841818 
L 380.606498 235.986491 
L 380.996348 36.841818 
L 381.082981 235.986491 
L 381.516147 36.841818 
L 381.602781 235.986491 
L 382.238091 36.841818 
L 382.324724 235.986491 
L 382.757891 36.841818 
L 382.844524 235.986491 
L 383.450957 36.841818 
L 383.53759 235.986491 
L 383.92744 36.841818 
L 384.014073 235.986491 
L 384.476117 36.841818 
L 384.562751 235.986491 
L 385.169184 36.841818 
L 385.255817 235.986491 
L 385.688983 36.841818 
L 385.775616 235.986491 
L 386.382049 36.841818 
L 386.468683 235.986491 
L 386.858532 36.841818 
L 386.945166 235.986491 
L 387.378332 36.841818 
L 387.464965 235.986491 
L 388.071398 36.841818 
L 388.158031 235.986491 
L 388.591198 36.841818 
L 388.677831 235.986491 
L 389.313142 36.841818 
L 389.399775 235.986491 
L 389.789625 36.841818 
L 389.876258 235.986491 
L 390.309424 36.841818 
L 390.396058 235.986491 
L 391.002491 36.841818 
L 391.089124 235.986491 
L 391.551168 36.841818 
L 391.637801 235.986491 
L 392.244234 36.841818 
L 392.330867 235.986491 
L 392.720717 36.841818 
L 392.80735 235.986491 
L 393.240517 36.841818 
L 393.32715 235.986491 
L 393.933583 36.841818 
L 394.020216 235.986491 
L 394.453383 36.841818 
L 394.540016 235.986491 
L 395.146449 36.841818 
L 395.233082 235.986491 
L 395.622932 36.841818 
L 395.709565 235.986491 
L 396.142731 36.841818 
L 396.229365 235.986491 
L 396.864675 36.841818 
L 396.951309 235.986491 
L 397.384475 36.841818 
L 397.471108 235.986491 
L 398.077541 36.841818 
L 398.164174 235.986491 
L 398.554024 36.841818 
L 398.640657 235.986491 
L 399.102701 36.841818 
L 399.189335 235.986491 
L 399.795768 36.841818 
L 399.882401 235.986491 
L 400.315567 36.841818 
L 400.402201 235.986491 
L 401.008633 36.841818 
L 401.095267 235.986491 
L 401.485116 36.841818 
L 401.57175 235.986491 
L 402.004916 36.841818 
L 402.091549 235.986491 
L 402.697982 36.841818 
L 402.784615 235.986491 
L 403.217782 36.841818 
L 403.304415 235.986491 
L 403.939726 36.841818 
L 404.026359 235.986491 
L 404.416209 36.841818 
L 404.502842 235.986491 
L 404.936008 36.841818 
L 405.022642 235.986491 
L 405.629075 36.841818 
L 405.715708 235.986491 
L 406.177752 36.841818 
L 406.264385 235.986491 
L 406.870818 36.841818 
L 406.957451 235.986491 
L 407.347301 36.841818 
L 407.433934 235.986491 
L 407.867101 36.841818 
L 407.953734 235.986491 
L 408.560167 36.841818 
L 408.6468 235.986491 
L 409.079967 36.841818 
L 409.1666 235.986491 
L 409.773033 36.841818 
L 409.859666 235.986491 
L 410.249516 36.841818 
L 410.336149 235.986491 
L 410.769315 36.841818 
L 410.855949 235.986491 
L 411.491259 36.841818 
L 411.577893 235.986491 
L 412.011059 36.841818 
L 412.097692 235.986491 
L 412.704125 36.841818 
L 412.790758 235.986491 
L 413.180608 36.841818 
L 413.267241 235.986491 
L 413.729285 36.841818 
L 413.815919 235.986491 
L 414.422352 36.841818 
L 414.508985 235.986491 
L 414.942151 36.841818 
L 415.028785 235.986491 
L 415.635217 36.841818 
L 415.721851 235.986491 
L 416.1117 36.841818 
L 416.198334 235.986491 
L 416.6315 36.841818 
L 416.718133 235.986491 
L 417.324566 36.841818 
L 417.4112 235.986491 
L 417.844366 36.841818 
L 417.930999 235.986491 
L 418.56631 36.841818 
L 418.652943 235.986491 
L 419.042793 36.841818 
L 419.129426 235.986491 
L 419.562592 36.841818 
L 419.649226 235.986491 
L 420.255659 36.841818 
L 420.342292 235.986491 
L 420.804336 36.841818 
L 420.890969 235.986491 
L 421.497402 36.841818 
L 421.584035 235.986491 
L 421.973885 36.841818 
L 422.060518 235.986491 
L 422.493685 36.841818 
L 422.580318 235.986491 
L 423.186751 36.841818 
L 423.273384 235.986491 
L 423.706551 36.841818 
L 423.793184 235.986491 
L 424.399617 36.841818 
L 424.48625 235.986491 
L 424.8761 36.841818 
L 424.962733 235.986491 
L 425.395899 36.841818 
L 425.482533 235.986491 
L 426.117843 36.841818 
L 426.204477 235.986491 
L 426.637643 36.841818 
L 426.724276 235.986491 
L 427.330709 36.841818 
L 427.417342 235.986491 
L 427.807192 36.841818 
L 427.893825 235.986491 
L 428.35587 36.841818 
L 428.442503 235.986491 
L 429.048936 36.841818 
L 429.135569 235.986491 
L 429.568735 36.841818 
L 429.655369 235.986491 
L 430.261801 36.841818 
L 430.348435 235.986491 
L 430.738284 36.841818 
L 430.824918 235.986491 
L 431.258084 36.841818 
L 431.344717 235.986491 
L 431.95115 36.841818 
L 432.037784 235.986491 
L 432.47095 36.841818 
L 432.557583 235.986491 
L 433.192894 36.841818 
L 433.279527 235.986491 
L 433.669377 36.841818 
L 433.75601 235.986491 
L 434.189176 36.841818 
L 434.27581 235.986491 
L 434.882243 36.841818 
L 434.968876 235.986491 
L 435.43092 36.841818 
L 435.517553 235.986491 
L 436.123986 36.841818 
L 436.210619 235.986491 
L 436.600469 36.841818 
L 436.687102 235.986491 
L 437.120269 36.841818 
L 437.206902 235.986491 
L 437.813335 36.841818 
L 437.899968 235.986491 
L 438.333135 36.841818 
L 438.419768 235.986491 
L 439.026201 36.841818 
L 439.112834 235.986491 
L 439.502684 36.841818 
L 439.589317 235.986491 
L 440.022483 36.841818 
L 440.109117 235.986491 
L 440.744427 36.841818 
L 440.831061 235.986491 
L 441.264227 36.841818 
L 441.35086 235.986491 
L 441.957293 36.841818 
L 442.043926 235.986491 
L 442.433776 36.841818 
L 442.520409 235.986491 
L 442.982454 36.841818 
L 443.069087 235.986491 
L 443.67552 36.841818 
L 443.762153 235.986491 
L 444.195319 36.841818 
L 444.281953 235.986491 
L 444.888386 36.841818 
L 444.975019 235.986491 
L 445.364869 36.841818 
L 445.451502 235.986491 
L 445.884668 36.841818 
L 445.971301 235.986491 
L 446.577734 36.841818 
L 446.664368 235.986491 
L 447.097534 36.841818 
L 447.184167 235.986491 
L 447.819478 36.841818 
L 447.906111 235.986491 
L 448.295961 36.841818 
L 448.382594 235.986491 
L 448.815761 36.841818 
L 448.902394 235.986491 
L 449.508827 36.841818 
L 449.59546 235.986491 
L 450.057504 36.841818 
L 450.144137 235.986491 
L 450.75057 36.841818 
L 450.837204 235.986491 
L 451.227053 36.841818 
L 451.313687 235.986491 
L 451.746853 36.841818 
L 451.833486 235.986491 
L 452.439919 36.841818 
L 452.526552 235.986491 
L 452.959719 36.841818 
L 453.046352 235.986491 
L 453.652785 36.841818 
L 453.739418 235.986491 
L 454.129268 36.841818 
L 454.215901 235.986491 
L 454.649067 36.841818 
L 454.735701 235.986491 
L 455.371011 36.841818 
L 455.457645 235.986491 
L 455.890811 36.841818 
L 455.977444 235.986491 
L 456.583877 36.841818 
L 456.67051 235.986491 
L 457.06036 36.841818 
L 457.146993 235.986491 
L 457.609038 36.841818 
L 457.695671 235.986491 
L 458.302104 36.841818 
L 458.388737 235.986491 
L 458.821903 36.841818 
L 458.908537 235.986491 
L 459.51497 36.841818 
L 459.601603 235.986491 
L 459.991453 36.841818 
L 460.078086 235.986491 
L 460.511252 36.841818 
L 460.597885 235.986491 
L 461.204318 36.841818 
L 461.290952 235.986491 
L 461.724118 36.841818 
L 461.810751 235.986491 
L 462.446062 36.841818 
L 462.532695 235.986491 
L 462.922545 36.841818 
L 463.009178 235.986491 
L 463.442345 36.841818 
L 463.528978 235.986491 
L 464.135411 36.841818 
L 464.222044 235.986491 
L 464.684088 36.841818 
L 464.770721 235.986491 
L 465.377154 36.841818 
L 465.463788 235.986491 
L 465.853637 36.841818 
L 465.940271 235.986491 
L 466.373437 36.841818 
L 466.46007 235.986491 
L 467.066503 36.841818 
L 467.153136 235.986491 
L 467.586303 36.841818 
L 467.672936 235.986491 
L 468.279369 36.841818 
L 468.366002 235.986491 
L 468.755852 36.841818 
L 468.842485 235.986491 
L 469.275652 36.841818 
L 469.362285 235.986491 
L 469.997595 36.841818 
L 470.084229 235.986491 
L 470.517395 36.841818 
L 470.604028 235.986491 
L 471.210461 36.841818 
L 471.297095 235.986491 
L 471.686944 36.841818 
L 471.773578 235.986491 
L 472.235622 36.841818 
L 472.322255 235.986491 
L 472.928688 36.841818 
L 473.015321 235.986491 
L 473.448487 36.841818 
L 473.535121 235.986491 
L 474.141554 36.841818 
L 474.228187 235.986491 
L 474.618037 36.841818 
L 474.70467 235.986491 
L 475.137836 36.841818 
L 475.22447 235.986491 
L 475.830902 36.841818 
L 475.917536 235.986491 
L 476.350702 36.841818 
L 476.437335 235.986491 
L 477.043768 36.841818 
L 477.130401 235.986491 
L 477.520251 36.841818 
L 477.606884 235.986491 
L 478.040051 36.841818 
L 478.126684 235.986491 
L 478.733117 36.841818 
L 478.81975 235.986491 
L 479.281794 36.841818 
L 479.368428 235.986491 
L 479.974861 36.841818 
L 480.061494 235.986491 
L 480.451344 36.841818 
L 480.537977 235.986491 
L 480.971143 36.841818 
L 481.057776 235.986491 
L 481.664209 36.841818 
L 481.750843 235.986491 
L 482.184009 36.841818 
L 482.270642 235.986491 
L 482.877075 36.841818 
L 482.963708 235.986491 
L 483.353558 36.841818 
L 483.440191 235.986491 
L 483.873358 36.841818 
L 483.959991 235.986491 
L 484.566424 36.841818 
L 484.653057 235.986491 
L 485.086224 36.841818 
L 485.172857 235.986491 
L 485.77929 36.841818 
L 485.865923 235.986491 
L 486.255773 36.841818 
L 486.342406 235.986491 
L 486.80445 36.841818 
L 486.891083 235.986491 
L 487.497516 36.841818 
L 487.58415 235.986491 
L 488.017316 36.841818 
L 488.103949 235.986491 
L 488.710382 36.841818 
L 488.797015 235.986491 
L 489.186865 36.841818 
L 489.273498 235.986491 
L 489.706665 36.841818 
L 489.793298 235.986491 
L 490.399731 36.841818 
L 490.486364 235.986491 
L 490.919531 36.841818 
L 491.006164 235.986491 
L 491.612597 36.841818 
L 491.69923 235.986491 
L 492.08908 36.841818 
L 492.175713 235.986491 
L 492.608879 36.841818 
L 492.695513 235.986491 
L 493.301946 36.841818 
L 493.388579 235.986491 
L 493.850623 36.841818 
L 493.937256 235.986491 
L 494.543689 36.841818 
L 494.630322 235.986491 
L 495.020172 36.841818 
L 495.106805 235.986491 
L 495.539972 36.841818 
L 495.626605 235.986491 
L 496.233038 36.841818 
L 496.319671 235.986491 
L 496.752838 36.841818 
L 496.839471 235.986491 
L 497.445904 36.841818 
L 497.532537 235.986491 
L 497.922387 36.841818 
L 498.00902 235.986491 
L 498.442186 36.841818 
L 498.52882 235.986491 
L 499.135253 36.841818 
L 499.221886 235.986491 
L 499.655052 36.841818 
L 499.741685 235.986491 
L 500.348118 36.841818 
L 500.434752 235.986491 
L 500.824601 36.841818 
L 500.911235 235.986491 
L 501.373279 36.841818 
L 501.459912 235.986491 
L 502.066345 36.841818 
L 502.152978 235.986491 
L 502.586144 36.841818 
L 502.672778 235.986491 
L 503.279211 36.841818 
L 503.365844 235.986491 
L 503.755694 36.841818 
L 503.842327 235.986491 
L 504.275493 36.841818 
L 504.362127 235.986491 
L 504.968559 36.841818 
L 505.055193 235.986491 
L 505.488359 36.841818 
L 505.574992 235.986491 
L 506.181425 36.841818 
L 506.268059 235.986491 
L 506.657908 36.841818 
L 506.744542 235.986491 
L 507.177708 36.841818 
L 507.264341 235.986491 
L 507.870774 36.841818 
L 507.957407 235.986491 
L 508.419451 36.841818 
L 508.506085 235.986491 
L 509.112518 36.841818 
L 509.199151 235.986491 
L 509.589001 36.841818 
L 509.675634 235.986491 
L 510.1088 36.841818 
L 510.195434 235.986491 
L 510.801866 36.841818 
L 510.8885 235.986491 
L 511.321666 36.841818 
L 511.408299 235.986491 
L 512.014732 36.841818 
L 512.101365 235.986491 
L 512.491215 36.841818 
L 512.577848 235.986491 
L 513.011015 36.841818 
L 513.097648 235.986491 
L 513.704081 36.841818 
L 513.790714 235.986491 
L 514.223881 36.841818 
L 514.310514 235.986491 
L 514.916947 36.841818 
L 515.00358 235.986491 
L 515.39343 36.841818 
L 515.480063 235.986491 
L 515.942107 36.841818 
L 516.02874 235.986491 
L 516.635173 36.841818 
L 516.721807 235.986491 
L 517.154973 36.841818 
L 517.241606 235.986491 
L 517.848039 36.841818 
L 517.934672 235.986491 
L 518.324522 36.841818 
L 518.411155 235.986491 
L 518.844322 36.841818 
L 518.930955 235.986491 
L 519.537388 36.841818 
L 519.624021 235.986491 
L 520.057188 36.841818 
L 520.143821 235.986491 
L 520.750254 36.841818 
L 520.836887 235.986491 
L 521.226737 36.841818 
L 521.31337 235.986491 
L 521.746536 36.841818 
L 521.83317 235.986491 
L 522.439603 36.841818 
L 522.526236 235.986491 
L 522.98828 36.841818 
L 523.074913 235.986491 
L 523.681346 36.841818 
L 523.767979 235.986491 
L 524.157829 36.841818 
L 524.244462 235.986491 
L 524.677629 36.841818 
L 524.764262 235.986491 
L 525.370695 36.841818 
L 525.457328 235.986491 
L 525.890495 36.841818 
L 525.977128 235.986491 
L 526.583561 36.841818 
L 526.670194 235.986491 
L 527.060044 36.841818 
L 527.146677 235.986491 
L 527.579843 36.841818 
L 527.666477 235.986491 
L 528.27291 36.841818 
L 528.359543 235.986491 
L 528.792709 36.841818 
L 528.879342 235.986491 
L 529.485775 36.841818 
L 529.572409 235.986491 
L 529.962258 36.841818 
L 530.048892 235.986491 
L 530.510936 36.841818 
L 530.597569 235.986491 
L 531.204002 36.841818 
L 531.290635 235.986491 
L 531.723802 36.841818 
L 531.810435 235.986491 
L 532.416868 36.841818 
L 532.503501 235.986491 
L 532.893351 36.841818 
L 532.979984 235.986491 
L 533.41315 36.841818 
L 533.499784 235.986491 
L 534.106217 36.841818 
L 534.19285 235.986491 
L 534.626016 36.841818 
L 534.712649 235.986491 
L 535.319082 36.841818 
L 535.405716 235.986491 
L 535.795565 36.841818 
L 535.882199 235.986491 
L 536.315365 36.841818 
L 536.401998 235.986491 
L 537.008431 36.841818 
L 537.095064 235.986491 
L 537.557108 36.841818 
L 537.643742 235.986491 
L 538.250175 36.841818 
L 538.336808 235.986491 
L 538.726658 36.841818 
L 538.813291 235.986491 
L 539.246457 36.841818 
L 539.333091 235.986491 
L 539.939523 36.841818 
L 540.026157 235.986491 
L 540.459323 36.841818 
L 540.545956 235.986491 
L 541.152389 36.841818 
L 541.239023 235.986491 
L 541.628872 36.841818 
L 541.715506 235.986491 
L 542.148672 36.841818 
L 542.235305 235.986491 
L 542.841738 36.841818 
L 542.928371 235.986491 
L 543.361538 36.841818 
L 543.448171 235.986491 
L 544.054604 36.841818 
L 544.141237 235.986491 
L 544.531087 36.841818 
L 544.61772 235.986491 
L 545.079764 36.841818 
L 545.166398 235.986491 
L 545.77283 36.841818 
L 545.859464 235.986491 
L 546.29263 36.841818 
L 546.379263 235.986491 
L 546.985696 36.841818 
L 547.07233 235.986491 
L 547.462179 36.841818 
L 547.548813 235.986491 
L 547.981979 36.841818 
L 548.068612 235.986491 
L 548.675045 36.841818 
L 548.761678 235.986491 
L 549.194845 36.841818 
L 549.281478 235.986491 
L 549.887911 36.841818 
L 549.974544 235.986491 
L 550.364394 36.841818 
L 550.451027 235.986491 
L 550.884193 36.841818 
L 550.970827 235.986491 
L 551.57726 36.841818 
L 551.663893 235.986491 
L 552.125937 36.841818 
L 552.21257 235.986491 
L 552.819003 36.841818 
L 552.905636 235.986491 
L 553.295486 36.841818 
L 553.382119 235.986491 
L 553.815286 36.841818 
L 553.901919 235.986491 
L 554.508352 36.841818 
L 554.594985 235.986491 
L 555.028152 36.841818 
L 555.114785 235.986491 
L 555.721218 36.841818 
L 555.807851 235.986491 
L 556.197701 36.841818 
L 556.284334 235.986491 
L 556.7175 36.841818 
L 556.804134 235.986491 
L 557.410567 36.841818 
L 557.4972 235.986491 
L 557.930366 36.841818 
L 558.016999 235.986491 
L 558.623432 36.841818 
L 558.710066 235.986491 
L 559.099915 36.841818 
L 559.186549 235.986491 
L 559.648593 36.841818 
L 559.735226 235.986491 
L 560.341659 36.841818 
L 560.428292 235.986491 
L 560.861459 36.841818 
L 560.948092 235.986491 
L 561.554525 36.841818 
L 561.641158 235.986491 
L 562.031008 36.841818 
L 562.117641 235.986491 
L 562.550807 36.841818 
L 562.637441 235.986491 
L 563.243874 36.841818 
L 563.330507 235.986491 
L 563.763673 36.841818 
L 563.850306 235.986491 
L 564.456739 36.841818 
L 564.543373 235.986491 
L 564.933222 36.841818 
L 565.019856 235.986491 
L 565.453022 36.841818 
L 565.539655 235.986491 
L 566.146088 36.841818 
L 566.232721 235.986491 
L 566.694766 36.841818 
L 566.781399 235.986491 
L 567.387832 36.841818 
L 567.474465 235.986491 
L 567.864315 36.841818 
L 567.950948 235.986491 
L 568.384114 36.841818 
L 568.470748 235.986491 
L 569.077181 36.841818 
L 569.163814 235.986491 
L 569.59698 36.841818 
L 569.683613 235.986491 
L 570.290046 36.841818 
L 570.37668 235.986491 
L 570.766529 36.841818 
L 570.853163 235.986491 
L 571.286329 36.841818 
L 571.372962 235.986491 
L 571.979395 36.841818 
L 572.066028 235.986491 
L 572.499195 36.841818 
L 572.585828 235.986491 
L 573.192261 36.841818 
L 573.278894 235.986491 
L 573.668744 36.841818 
L 573.755377 235.986491 
L 574.217421 36.841818 
L 574.304055 235.986491 
L 574.910487 36.841818 
L 574.997121 235.986491 
L 575.430287 36.841818 
L 575.51692 235.986491 
L 576.123353 36.841818 
L 576.209987 235.986491 
L 576.599836 36.841818 
L 576.68647 235.986491 
L 577.119636 36.841818 
L 577.206269 235.986491 
L 577.812702 36.841818 
L 577.899335 235.986491 
L 578.332502 36.841818 
L 578.419135 235.986491 
L 579.025568 36.841818 
L 579.112201 235.986491 
L 579.502051 36.841818 
L 579.588684 235.986491 
L 580.021851 36.841818 
L 580.108484 235.986491 
L 580.714917 36.841818 
L 580.80155 235.986491 
L 581.263594 36.841818 
L 581.350227 235.986491 
L 581.95666 36.841818 
L 582.043294 235.986491 
L 582.433143 36.841818 
L 582.519777 235.986491 
L 582.952943 36.841818 
L 583.039576 235.986491 
L 583.646009 36.841818 
L 583.732642 235.986491 
L 584.165809 36.841818 
L 584.252442 235.986491 
L 584.858875 36.841818 
L 584.945508 235.986491 
L 585.335358 36.841818 
L 585.421991 235.986491 
L 585.855157 36.841818 
L 585.941791 235.986491 
L 586.548224 36.841818 
L 586.634857 235.986491 
L 587.068023 36.841818 
L 587.154657 235.986491 
L 587.761089 36.841818 
L 587.847723 235.986491 
L 588.237572 36.841818 
L 588.324206 235.986491 
L 588.78625 36.841818 
L 588.872883 235.986491 
L 589.479316 36.841818 
L 589.565949 235.986491 
L 589.999116 36.841818 
L 590.085749 235.986491 
L 590.692182 36.841818 
L 590.778815 235.986491 
L 591.168665 36.841818 
L 591.255298 235.986491 
L 591.688464 36.841818 
L 591.775098 235.986491 
L 592.381531 36.841818 
L 592.468164 235.986491 
L 592.90133 36.841818 
L 592.987964 235.986491 
L 593.594396 36.841818 
L 593.68103 235.986491 
L 594.070879 36.841818 
L 594.157513 235.986491 
L 594.590679 36.841818 
L 594.677312 235.986491 
L 595.283745 36.841818 
L 595.370378 235.986491 
L 595.832423 36.841818 
L 595.919056 235.986491 
L 596.525489 36.841818 
L 596.612122 235.986491 
L 597.001972 36.841818 
L 597.088605 235.986491 
L 597.521771 36.841818 
L 597.608405 235.986491 
L 598.214838 36.841818 
L 598.301471 235.986491 
L 598.734637 36.841818 
L 598.82127 235.986491 
L 599.427703 36.841818 
L 599.514337 235.986491 
L 599.904186 36.841818 
L 599.99082 235.986491 
L 600.423986 36.841818 
L 600.510619 235.986491 
L 601.117052 36.841818 
L 601.203685 235.986491 
L 601.636852 36.841818 
L 601.723485 235.986491 
L 602.329918 36.841818 
L 602.416551 235.986491 
L 602.806401 36.841818 
L 602.893034 235.986491 
L 603.355078 36.841818 
L 603.441712 235.986491 
L 604.048145 36.841818 
L 604.134778 235.986491 
L 604.567944 36.841818 
L 604.654577 235.986491 
L 605.26101 36.841818 
L 605.347644 235.986491 
L 605.737493 36.841818 
L 605.824127 235.986491 
L 606.257293 36.841818 
L 606.343926 235.986491 
L 606.950359 36.841818 
L 607.036992 235.986491 
L 607.470159 36.841818 
L 607.556792 235.986491 
L 608.163225 36.841818 
L 608.249858 235.986491 
L 608.639708 36.841818 
L 608.726341 235.986491 
L 609.159508 36.841818 
L 609.246141 235.986491 
L 609.852574 36.841818 
L 609.939207 235.986491 
L 610.372373 36.841818 
L 610.459007 235.986491 
L 611.036562 36.841818 
L 611.123195 235.986491 
L 611.541923 36.841818 
L 611.628556 235.986491 
L 612.249428 36.841818 
L 612.336061 235.986491 
L 612.913616 36.841818 
L 613.000249 235.986491 
L 613.447855 36.841818 
L 613.534488 235.986491 
L 614.328626 36.841818 
L 614.415259 235.986491 
L 614.819548 36.841818 
L 614.906181 235.986491 
L 615.555931 102.282445 
L 615.888025 235.896544 
L 616.017975 170.819192 
L 616.104608 235.986491 
L 616.711041 36.841818 
L 616.797674 235.986491 
L 617.24528 36.841818 
L 617.331913 235.986491 
L 617.981662 36.841818 
L 618.068296 235.986491 
L 618.645851 36.841818 
L 618.732484 235.986491 
L 619.16565 36.841818 
L 619.252284 235.986491 
L 619.873155 36.841818 
L 619.959789 235.986491 
L 620.580661 36.841818 
L 620.667294 235.986491 
L 621.706893 102.585472 
L 622.053426 235.904613 
L 622.51547 234.551329 
L 622.919759 235.904613 
L 623.381803 233.395226 
L 623.728336 235.904614 
L 623.988236 175.065041 
L 624.074869 235.986491 
L 624.464719 36.841818 
L 624.551352 235.986491 
L 624.984519 36.841818 
L 625.071152 235.986491 
L 625.677585 36.841818 
L 625.764218 235.986491 
L 626.197384 36.841818 
L 626.284018 235.986491 
L 626.890451 36.841818 
L 626.977084 235.986491 
L 627.366933 36.841818 
L 627.453567 235.986491 
L 627.886733 36.841818 
L 627.973366 235.986491 
L 628.579799 36.841818 
L 628.666433 235.986491 
L 629.128477 36.841818 
L 629.21511 235.986491 
L 629.821543 36.841818 
L 629.908176 235.986491 
L 630.298026 36.841818 
L 630.384659 235.986491 
L 630.817825 36.841818 
L 630.904459 235.986491 
L 631.510892 36.841818 
L 631.597525 235.986491 
L 632.030691 36.841818 
L 632.117325 235.986491 
L 632.723757 36.841818 
L 632.810391 235.986491 
L 633.20024 36.841818 
L 633.286874 235.986491 
L 633.72004 36.841818 
L 633.806673 235.986491 
L 634.413106 36.841818 
L 634.49974 235.986491 
L 634.932906 36.841818 
L 635.019539 235.986491 
L 635.625972 36.841818 
L 635.712605 235.986491 
L 636.102455 36.841818 
L 636.189088 235.986491 
L 636.651132 36.841818 
L 636.737766 235.986491 
L 637.344199 36.841818 
L 637.430832 235.986491 
L 637.863998 36.841818 
L 637.950632 235.986491 
L 638.557064 36.841818 
L 638.643698 235.986491 
L 639.033547 36.841818 
L 639.120181 235.986491 
L 639.553347 36.841818 
L 639.63998 235.986491 
L 640.246413 36.841818 
L 640.333046 235.986491 
L 640.766213 36.841818 
L 640.852846 235.986491 
L 641.459279 36.841818 
L 641.545912 235.986491 
L 641.935762 36.841818 
L 642.022395 235.986491 
L 642.455562 36.841818 
L 642.542195 235.986491 
L 643.148628 36.841818 
L 643.235261 235.986491 
L 643.697305 36.841818 
L 643.783938 235.986491 
L 644.390371 36.841818 
L 644.477005 235.986491 
L 644.866854 36.841818 
L 644.953488 235.986491 
L 645.386654 36.841818 
L 645.473287 235.986491 
L 646.07972 36.841818 
L 646.166353 235.986491 
L 646.59952 36.841818 
L 646.686153 235.986491 
L 647.292586 36.841818 
L 647.379219 235.986491 
L 647.769069 36.841818 
L 647.855702 235.986491 
L 648.288869 36.841818 
L 648.375502 235.986491 
L 648.981935 36.841818 
L 649.068568 235.986491 
L 649.501734 36.841818 
L 649.588368 235.986491 
L 650.194801 36.841818 
L 650.281434 235.986491 
L 650.671284 36.841818 
L 650.757917 235.986491 
L 651.219961 36.841818 
L 651.306594 235.986491 
L 651.913027 36.841818 
L 651.99966 235.986491 
L 652.432827 36.841818 
L 652.51946 235.986491 
L 653.125893 36.841818 
L 653.212526 235.986491 
L 653.602376 36.841818 
L 653.689009 235.986491 
L 654.122176 36.841818 
L 654.208809 235.986491 
L 654.815242 36.841818 
L 654.901875 235.986491 
L 655.335041 36.841818 
L 655.421675 235.986491 
L 656.028108 36.841818 
L 656.114741 235.986491 
L 656.504591 36.841818 
L 656.591224 235.986491 
L 657.02439 36.841818 
L 657.111023 235.986491 
L 657.717456 36.841818 
L 657.80409 235.986491 
L 658.266134 36.841818 
L 658.352767 235.986491 
L 658.9592 36.841818 
L 659.045833 235.986491 
L 659.435683 36.841818 
L 659.522316 235.986491 
L 659.955483 36.841818 
L 660.042116 235.986491 
L 660.648549 36.841818 
L 660.735182 235.986491 
L 661.168348 36.841818 
L 661.254982 235.986491 
L 661.861415 36.841818 
L 661.948048 235.986491 
L 662.337898 36.841818 
L 662.424531 235.986491 
L 662.857697 36.841818 
L 662.94433 235.986491 
L 663.550763 36.841818 
L 663.637397 235.986491 
L 664.070563 36.841818 
L 664.157196 235.986491 
L 664.763629 36.841818 
L 664.850262 235.986491 
L 665.240112 36.841818 
L 665.326745 235.986491 
L 665.788789 36.841818 
L 665.875423 235.986491 
L 666.481856 36.841818 
L 666.568489 235.986491 
L 667.001655 36.841818 
L 667.088289 235.986491 
L 667.694721 36.841818 
L 667.781355 235.986491 
L 668.171204 36.841818 
L 668.257838 235.986491 
L 668.691004 36.841818 
L 668.777637 235.986491 
L 669.38407 36.841818 
L 669.470704 235.986491 
L 669.90387 36.841818 
L 669.990503 235.986491 
L 670.596936 36.841818 
L 670.683569 235.986491 
L 671.073419 36.841818 
L 671.160052 235.986491 
L 671.593219 36.841818 
L 671.679852 235.986491 
L 672.286285 36.841818 
L 672.372918 235.986491 
L 672.834962 36.841818 
L 672.921596 235.986491 
L 673.528028 36.841818 
L 673.614662 235.986491 
L 674.004511 36.841818 
L 674.091145 235.986491 
L 674.524311 36.841818 
L 674.610944 235.986491 
L 675.217377 36.841818 
L 675.304011 235.986491 
L 675.737177 36.841818 
L 675.82381 235.986491 
L 676.430243 36.841818 
L 676.516876 235.986491 
L 676.906726 36.841818 
L 676.993359 235.986491 
L 677.426526 36.841818 
L 677.513159 235.986491 
L 678.119592 36.841818 
L 678.206225 235.986491 
L 678.639391 36.841818 
L 678.726025 235.986491 
L 679.332458 36.841818 
L 679.419091 235.986491 
L 679.419091 235.986491 
" clip-path="url(#pcdc43dc5b1)" style="fill: none; stroke: #1f77b4; stroke-width: 1.5; stroke-linecap: square"/>
   </g>
   <g id="patch_3">
    <path d="M 54.02 246.04 
L 54.02 26.88 
" style="fill: none; stroke: #000000; stroke-width: 0.8; stroke-linejoin: miter; stroke-linecap: square"/>
   </g>
   <g id="patch_4">
    <path d="M 709.2 246.04 
L 709.2 26.88 
" style="fill: none; stroke: #000000; stroke-width: 0.8; stroke-linejoin: miter; stroke-linecap: square"/>
   </g>
   <g id="patch_5">
    <path d="M 54.02 246.04 
L 709.2 246.04 
" style="fill: none; stroke: #000000; stroke-width: 0.8; stroke-linejoin: miter; stroke-linecap: square"/>
   </g>
   <g id="patch_6">
    <path d="M 54.02 26.88 
L 709.2 26.88 
" style="fill: none; stroke: #000000; stroke-width: 0.8; stroke-linejoin: miter; stroke-linecap: square"/>
   </g>
   <g id="text_14">
    <!-- frameSequenceActive:vector (HandoverShowcase.ap1.wlan[0].mac.dcf) -->
    <g transform="translate(165.32875 20.88) scale(0.12 -0.12)">
     <defs>
      <path id="DejaVuSans-66" d="M 2375 4863 
L 2375 4384 
L 1825 4384 
Q 1516 4384 1395 4259 
Q 1275 4134 1275 3809 
L 1275 3500 
L 2222 3500 
L 2222 3053 
L 1275 3053 
L 1275 0 
L 697 0 
L 697 3053 
L 147 3053 
L 147 3500 
L 697 3500 
L 697 3744 
Q 697 4328 969 4595 
Q 1241 4863 1831 4863 
L 2375 4863 
z
" transform="scale(0.015625)"/>
      <path id="DejaVuSans-72" d="M 2631 2963 
Q 2534 3019 2420 3045 
Q 2306 3072 2169 3072 
Q 1681 3072 1420 2755 
Q 1159 2438 1159 1844 
L 1159 0 
L 581 0 
L 581 3500 
L 1159 3500 
L 1159 2956 
Q 1341 3275 1631 3429 
Q 1922 3584 2338 3584 
Q 2397 3584 2469 3576 
Q 2541 3569 2628 3553 
L 2631 2963 
z
" transform="scale(0.015625)"/>
      <path id="DejaVuSans-53" d="M 3425 4513 
L 3425 3897 
Q 3066 4069 2747 4153 
Q 2428 4238 2131 4238 
Q 1616 4238 1336 4038 
Q 1056 3838 1056 3469 
Q 1056 3159 1242 3001 
Q 1428 2844 1947 2747 
L 2328 2669 
Q 3034 2534 3370 2195 
Q 3706 1856 3706 1288 
Q 3706 609 3251 259 
Q 2797 -91 1919 -91 
Q 1588 -91 1214 -16 
Q 841 59 441 206 
L 441 856 
Q 825 641 1194 531 
Q 1563 422 1919 422 
Q 2459 422 2753 634 
Q 3047 847 3047 1241 
Q 3047 1584 2836 1778 
Q 2625 1972 2144 2069 
L 1759 2144 
Q 1053 2284 737 2584 
Q 422 2884 422 3419 
Q 422 4038 858 4394 
Q 1294 4750 2059 4750 
Q 2388 4750 2728 4690 
Q 3069 4631 3425 4513 
z
" transform="scale(0.015625)"/>
      <path id="DejaVuSans-71" d="M 947 1747 
Q 947 1113 1208 752 
Q 1469 391 1925 391 
Q 2381 391 2643 752 
Q 2906 1113 2906 1747 
Q 2906 2381 2643 2742 
Q 2381 3103 1925 3103 
Q 1469 3103 1208 2742 
Q 947 2381 947 1747 
z
M 2906 525 
Q 2725 213 2448 61 
Q 2172 -91 1784 -91 
Q 1150 -91 751 415 
Q 353 922 353 1747 
Q 353 2572 751 3078 
Q 1150 3584 1784 3584 
Q 2172 3584 2448 3432 
Q 2725 3281 2906 2969 
L 2906 3500 
L 3481 3500 
L 3481 -1331 
L 2906 -1331 
L 2906 525 
z
" transform="scale(0.015625)"/>
      <path id="DejaVuSans-6e" d="M 3513 2113 
L 3513 0 
L 2938 0 
L 2938 2094 
Q 2938 2591 2744 2837 
Q 2550 3084 2163 3084 
Q 1697 3084 1428 2787 
Q 1159 2491 1159 1978 
L 1159 0 
L 581 0 
L 581 3500 
L 1159 3500 
L 1159 2956 
Q 1366 3272 1645 3428 
Q 1925 3584 2291 3584 
Q 2894 3584 3203 3211 
Q 3513 2838 3513 2113 
z
" transform="scale(0.015625)"/>
      <path id="DejaVuSans-63" d="M 3122 3366 
L 3122 2828 
Q 2878 2963 2633 3030 
Q 2388 3097 2138 3097 
Q 1578 3097 1268 2742 
Q 959 2388 959 1747 
Q 959 1106 1268 751 
Q 1578 397 2138 397 
Q 2388 397 2633 464 
Q 2878 531 3122 666 
L 3122 134 
Q 2881 22 2623 -34 
Q 2366 -91 2075 -91 
Q 1284 -91 818 406 
Q 353 903 353 1747 
Q 353 2603 823 3093 
Q 1294 3584 2113 3584 
Q 2378 3584 2631 3529 
Q 2884 3475 3122 3366 
z
" transform="scale(0.015625)"/>
      <path id="DejaVuSans-41" d="M 2188 4044 
L 1331 1722 
L 3047 1722 
L 2188 4044 
z
M 1831 4666 
L 2547 4666 
L 4325 0 
L 3669 0 
L 3244 1197 
L 1141 1197 
L 716 0 
L 50 0 
L 1831 4666 
z
" transform="scale(0.015625)"/>
      <path id="DejaVuSans-76" d="M 191 3500 
L 800 3500 
L 1894 563 
L 2988 3500 
L 3597 3500 
L 2284 0 
L 1503 0 
L 191 3500 
z
" transform="scale(0.015625)"/>
      <path id="DejaVuSans-3a" d="M 750 794 
L 1409 794 
L 1409 0 
L 750 0 
L 750 794 
z
M 750 3309 
L 1409 3309 
L 1409 2516 
L 750 2516 
L 750 3309 
z
" transform="scale(0.015625)"/>
      <path id="DejaVuSans-6f" d="M 1959 3097 
Q 1497 3097 1228 2736 
Q 959 2375 959 1747 
Q 959 1119 1226 758 
Q 1494 397 1959 397 
Q 2419 397 2687 759 
Q 2956 1122 2956 1747 
Q 2956 2369 2687 2733 
Q 2419 3097 1959 3097 
z
M 1959 3584 
Q 2709 3584 3137 3096 
Q 3566 2609 3566 1747 
Q 3566 888 3137 398 
Q 2709 -91 1959 -91 
Q 1206 -91 779 398 
Q 353 888 353 1747 
Q 353 2609 779 3096 
Q 1206 3584 1959 3584 
z
" transform="scale(0.015625)"/>
      <path id="DejaVuSans-48" d="M 628 4666 
L 1259 4666 
L 1259 2753 
L 3553 2753 
L 3553 4666 
L 4184 4666 
L 4184 0 
L 3553 0 
L 3553 2222 
L 1259 2222 
L 1259 0 
L 628 0 
L 628 4666 
z
" transform="scale(0.015625)"/>
      <path id="DejaVuSans-64" d="M 2906 2969 
L 2906 4863 
L 3481 4863 
L 3481 0 
L 2906 0 
L 2906 525 
Q 2725 213 2448 61 
Q 2172 -91 1784 -91 
Q 1150 -91 751 415 
Q 353 922 353 1747 
Q 353 2572 751 3078 
Q 1150 3584 1784 3584 
Q 2172 3584 2448 3432 
Q 2725 3281 2906 2969 
z
M 947 1747 
Q 947 1113 1208 752 
Q 1469 391 1925 391 
Q 2381 391 2643 752 
Q 2906 1113 2906 1747 
Q 2906 2381 2643 2742 
Q 2381 3103 1925 3103 
Q 1469 3103 1208 2742 
Q 947 2381 947 1747 
z
" transform="scale(0.015625)"/>
      <path id="DejaVuSans-68" d="M 3513 2113 
L 3513 0 
L 2938 0 
L 2938 2094 
Q 2938 2591 2744 2837 
Q 2550 3084 2163 3084 
Q 1697 3084 1428 2787 
Q 1159 2491 1159 1978 
L 1159 0 
L 581 0 
L 581 4863 
L 1159 4863 
L 1159 2956 
Q 1366 3272 1645 3428 
Q 1925 3584 2291 3584 
Q 2894 3584 3203 3211 
Q 3513 2838 3513 2113 
z
" transform="scale(0.015625)"/>
      <path id="DejaVuSans-77" d="M 269 3500 
L 844 3500 
L 1563 769 
L 2278 3500 
L 2956 3500 
L 3675 769 
L 4391 3500 
L 4966 3500 
L 4050 0 
L 3372 0 
L 2619 2869 
L 1863 0 
L 1184 0 
L 269 3500 
z
" transform="scale(0.015625)"/>
      <path id="DejaVuSans-70" d="M 1159 525 
L 1159 -1331 
L 581 -1331 
L 581 3500 
L 1159 3500 
L 1159 2969 
Q 1341 3281 1617 3432 
Q 1894 3584 2278 3584 
Q 2916 3584 3314 3078 
Q 3713 2572 3713 1747 
Q 3713 922 3314 415 
Q 2916 -91 2278 -91 
Q 1894 -91 1617 61 
Q 1341 213 1159 525 
z
M 3116 1747 
Q 3116 2381 2855 2742 
Q 2594 3103 2138 3103 
Q 1681 3103 1420 2742 
Q 1159 2381 1159 1747 
Q 1159 1113 1420 752 
Q 1681 391 2138 391 
Q 2594 391 2855 752 
Q 3116 1113 3116 1747 
z
" transform="scale(0.015625)"/>
      <path id="DejaVuSans-5b" d="M 550 4863 
L 1875 4863 
L 1875 4416 
L 1125 4416 
L 1125 -397 
L 1875 -397 
L 1875 -844 
L 550 -844 
L 550 4863 
z
" transform="scale(0.015625)"/>
      <path id="DejaVuSans-5d" d="M 1947 4863 
L 1947 -844 
L 622 -844 
L 622 -397 
L 1369 -397 
L 1369 4416 
L 622 4416 
L 622 4863 
L 1947 4863 
z
" transform="scale(0.015625)"/>
     </defs>
     <use xlink:href="#DejaVuSans-66"/>
     <use xlink:href="#DejaVuSans-72" x="35.205078"/>
     <use xlink:href="#DejaVuSans-61" x="76.318359"/>
     <use xlink:href="#DejaVuSans-6d" x="137.597656"/>
     <use xlink:href="#DejaVuSans-65" x="235.009766"/>
     <use xlink:href="#DejaVuSans-53" x="296.533203"/>
     <use xlink:href="#DejaVuSans-65" x="360.009766"/>
     <use xlink:href="#DejaVuSans-71" x="421.533203"/>
     <use xlink:href="#DejaVuSans-75" x="485.009766"/>
     <use xlink:href="#DejaVuSans-65" x="548.388672"/>
     <use xlink:href="#DejaVuSans-6e" x="609.912109"/>
     <use xlink:href="#DejaVuSans-63" x="673.291016"/>
     <use xlink:href="#DejaVuSans-65" x="728.271484"/>
     <use xlink:href="#DejaVuSans-41" x="789.794922"/>
     <use xlink:href="#DejaVuSans-63" x="856.453125"/>
     <use xlink:href="#DejaVuSans-74" x="911.433594"/>
     <use xlink:href="#DejaVuSans-69" x="950.642578"/>
     <use xlink:href="#DejaVuSans-76" x="978.425781"/>
     <use xlink:href="#DejaVuSans-65" x="1037.605469"/>
     <use xlink:href="#DejaVuSans-3a" x="1099.128906"/>
     <use xlink:href="#DejaVuSans-76" x="1132.820312"/>
     <use xlink:href="#DejaVuSans-65" x="1192"/>
     <use xlink:href="#DejaVuSans-63" x="1253.523438"/>
     <use xlink:href="#DejaVuSans-74" x="1308.503906"/>
     <use xlink:href="#DejaVuSans-6f" x="1347.712891"/>
     <use xlink:href="#DejaVuSans-72" x="1408.894531"/>
     <use xlink:href="#DejaVuSans-20" x="1450.007812"/>
     <use xlink:href="#DejaVuSans-28" x="1481.794922"/>
     <use xlink:href="#DejaVuSans-48" x="1520.808594"/>
     <use xlink:href="#DejaVuSans-61" x="1596.003906"/>
     <use xlink:href="#DejaVuSans-6e" x="1657.283203"/>
     <use xlink:href="#DejaVuSans-64" x="1720.662109"/>
     <use xlink:href="#DejaVuSans-6f" x="1784.138672"/>
     <use xlink:href="#DejaVuSans-76" x="1845.320312"/>
     <use xlink:href="#DejaVuSans-65" x="1904.5"/>
     <use xlink:href="#DejaVuSans-72" x="1966.023438"/>
     <use xlink:href="#DejaVuSans-53" x="2007.136719"/>
     <use xlink:href="#DejaVuSans-68" x="2070.613281"/>
     <use xlink:href="#DejaVuSans-6f" x="2133.992188"/>
     <use xlink:href="#DejaVuSans-77" x="2195.173828"/>
     <use xlink:href="#DejaVuSans-63" x="2276.960938"/>
     <use xlink:href="#DejaVuSans-61" x="2331.941406"/>
     <use xlink:href="#DejaVuSans-73" x="2393.220703"/>
     <use xlink:href="#DejaVuSans-65" x="2445.320312"/>
     <use xlink:href="#DejaVuSans-2e" x="2506.84375"/>
     <use xlink:href="#DejaVuSans-61" x="2538.630859"/>
     <use xlink:href="#DejaVuSans-70" x="2599.910156"/>
     <use xlink:href="#DejaVuSans-31" x="2663.386719"/>
     <use xlink:href="#DejaVuSans-2e" x="2727.009766"/>
     <use xlink:href="#DejaVuSans-77" x="2758.796875"/>
     <use xlink:href="#DejaVuSans-6c" x="2840.583984"/>
     <use xlink:href="#DejaVuSans-61" x="2868.367188"/>
     <use xlink:href="#DejaVuSans-6e" x="2929.646484"/>
     <use xlink:href="#DejaVuSans-5b" x="2993.025391"/>
     <use xlink:href="#DejaVuSans-30" x="3032.039062"/>
     <use xlink:href="#DejaVuSans-5d" x="3095.662109"/>
     <use xlink:href="#DejaVuSans-2e" x="3134.675781"/>
     <use xlink:href="#DejaVuSans-6d" x="3166.462891"/>
     <use xlink:href="#DejaVuSans-61" x="3263.875"/>
     <use xlink:href="#DejaVuSans-63" x="3325.154297"/>
     <use xlink:href="#DejaVuSans-2e" x="3380.134766"/>
     <use xlink:href="#DejaVuSans-64" x="3411.921875"/>
     <use xlink:href="#DejaVuSans-63" x="3475.398438"/>
     <use xlink:href="#DejaVuSans-66" x="3530.378906"/>
     <use xlink:href="#DejaVuSans-29" x="3565.583984"/>
    </g>
   </g>
   <g id="legend_1">
    <g id="patch_7">
     <path d="M 576.717188 145.299062 
L 702.2 145.299062 
Q 704.2 145.299062 704.2 143.299062 
L 704.2 129.620937 
Q 704.2 127.620937 702.2 127.620937 
L 576.717188 127.620937 
Q 574.717188 127.620937 574.717188 129.620937 
L 574.717188 143.299062 
Q 574.717188 145.299062 576.717188 145.299062 
z
" style="fill: #ffffff; opacity: 0.8; stroke: #cccccc; stroke-linejoin: miter"/>
    </g>
    <g id="line2d_24">
     <path d="M 578.717188 135.719375 
L 588.717188 135.719375 
L 598.717188 135.719375 
" style="fill: none; stroke: #1f77b4; stroke-width: 1.5; stroke-linecap: square"/>
    </g>
    <g id="text_15">
     <!-- value per sample -->
     <g transform="translate(606.717188 139.219375) scale(0.1 -0.1)">
      <defs>
       <path id="DejaVuSans-394" d="M 2188 4044 
L 906 525 
L 3472 525 
L 2188 4044 
z
M 50 0 
L 1831 4666 
L 2547 4666 
L 4325 0 
L 50 0 
z
" transform="scale(0.015625)"/>
      </defs>
      <use xlink:href="#DejaVuSans-394"/>
      <use xlink:href="#DejaVuSans-76" x="68.408203"/>
      <use xlink:href="#DejaVuSans-61" x="127.587891"/>
      <use xlink:href="#DejaVuSans-6c" x="188.867188"/>
      <use xlink:href="#DejaVuSans-75" x="216.650391"/>
      <use xlink:href="#DejaVuSans-65" x="280.029297"/>
      <use xlink:href="#DejaVuSans-20" x="341.552734"/>
      <use xlink:href="#DejaVuSans-70" x="373.339844"/>
      <use xlink:href="#DejaVuSans-65" x="436.816406"/>
      <use xlink:href="#DejaVuSans-72" x="498.339844"/>
      <use xlink:href="#DejaVuSans-20" x="539.453125"/>
      <use xlink:href="#DejaVuSans-73" x="571.240234"/>
      <use xlink:href="#DejaVuSans-61" x="623.339844"/>
      <use xlink:href="#DejaVuSans-6d" x="684.619141"/>
      <use xlink:href="#DejaVuSans-70" x="782.03125"/>
      <use xlink:href="#DejaVuSans-6c" x="845.507812"/>
      <use xlink:href="#DejaVuSans-65" x="873.291016"/>
     </g>
    </g>
   </g>
  </g>
 </g>
 <defs>
  <clipPath id="pcdc43dc5b1">
   <rect x="54.02" y="26.88" width="655.18" height="219.16"/>
  </clipPath>
 </defs>
</svg>
