<?xml version="1.0" encoding="utf-8" standalone="no"?>
<!DOCTYPE svg PUBLIC "-//W3C//DTD SVG 1.1//EN"
  "http://www.w3.org/Graphics/SVG/1.1/DTD/svg11.dtd">
<svg xmlns:xlink="http://www.w3.org/1999/xlink" width="720pt" height="288pt" viewBox="0 0 720 288" xmlns="http://www.w3.org/2000/svg" version="1.1">
 <metadata>
  <rdf:RDF xmlns:dc="http://purl.org/dc/elements/1.1/" xmlns:cc="http://creativecommons.org/ns#" xmlns:rdf="http://www.w3.org/1999/02/22-rdf-syntax-ns#">
   <cc:Work>
    <dc:type rdf:resource="http://purl.org/dc/dcmitype/StillImage"/>
    <dc:date>2025-07-27T15:08:48.473343</dc:date>
    <dc:format>image/svg+xml</dc:format>
    <dc:creator>
     <cc:Agent>
      <dc:title>Matplotlib v3.9.2, https://matplotlib.org/</dc:title>
     </cc:Agent>
    </dc:creator>
   </cc:Work>
  </rdf:RDF>
 </metadata>
 <defs>
  <style type="text/css">*{stroke-linejoin: round; stroke-linecap: butt}</style>
 </defs>
 <g id="figure_1">
  <g id="patch_1">
   <path d="M 0 288 
L 720 288 
L 720 0 
L 0 0 
z
" style="fill: #ffffff"/>
  </g>
  <g id="axes_1">
   <g id="patch_2">
    <path d="M 54.02 246.04 
L 709.2 246.04 
L 709.2 26.88 
L 54.02 26.88 
z
" style="fill: #ffffff"/>
   </g>
   <g id="matplotlib.axis_1">
    <g id="xtick_1">
     <g id="line2d_1">
      <path d="M 83.786463 246.04 
L 83.786463 26.88 
" clip-path="url(#pfa3c4140df)" style="fill: none; stroke: #b0b0b0; stroke-width: 0.8; stroke-linecap: square"/>
     </g>
     <g id="line2d_2">
      <defs>
       <path id="m794f961c16" d="M 0 0 
L 0 3.5 
" style="stroke: #000000; stroke-width: 0.8"/>
      </defs>
      <g>
       <use xlink:href="#m794f961c16" x="83.786463" y="246.04" style="stroke: #000000; stroke-width: 0.8"/>
      </g>
     </g>
     <g id="text_1">
      <!-- 0 -->
      <g transform="translate(80.605213 260.638438) scale(0.1 -0.1)">
       <defs>
        <path id="DejaVuSans-30" d="M 2034 4250 
Q 1547 4250 1301 3770 
Q 1056 3291 1056 2328 
Q 1056 1369 1301 889 
Q 1547 409 2034 409 
Q 2525 409 2770 889 
Q 3016 1369 3016 2328 
Q 3016 3291 2770 3770 
Q 2525 4250 2034 4250 
z
M 2034 4750 
Q 2819 4750 3233 4129 
Q 3647 3509 3647 2328 
Q 3647 1150 3233 529 
Q 2819 -91 2034 -91 
Q 1250 -91 836 529 
Q 422 1150 422 2328 
Q 422 3509 836 4129 
Q 1250 4750 2034 4750 
z
" transform="scale(0.015625)"/>
       </defs>
       <use xlink:href="#DejaVuSans-30"/>
      </g>
     </g>
    </g>
    <g id="xtick_2">
     <g id="line2d_3">
      <path d="M 228.245288 246.04 
L 228.245288 26.88 
" clip-path="url(#pfa3c4140df)" style="fill: none; stroke: #b0b0b0; stroke-width: 0.8; stroke-linecap: square"/>
     </g>
     <g id="line2d_4">
      <g>
       <use xlink:href="#m794f961c16" x="228.245288" y="246.04" style="stroke: #000000; stroke-width: 0.8"/>
      </g>
     </g>
     <g id="text_2">
      <!-- 10000 -->
      <g transform="translate(212.339038 260.638438) scale(0.1 -0.1)">
       <defs>
        <path id="DejaVuSans-31" d="M 794 531 
L 1825 531 
L 1825 4091 
L 703 3866 
L 703 4441 
L 1819 4666 
L 2450 4666 
L 2450 531 
L 3481 531 
L 3481 0 
L 794 0 
L 794 531 
z
" transform="scale(0.015625)"/>
       </defs>
       <use xlink:href="#DejaVuSans-31"/>
       <use xlink:href="#DejaVuSans-30" x="63.623047"/>
       <use xlink:href="#DejaVuSans-30" x="127.246094"/>
       <use xlink:href="#DejaVuSans-30" x="190.869141"/>
       <use xlink:href="#DejaVuSans-30" x="254.492188"/>
      </g>
     </g>
    </g>
    <g id="xtick_3">
     <g id="line2d_5">
      <path d="M 372.704113 246.04 
L 372.704113 26.88 
" clip-path="url(#pfa3c4140df)" style="fill: none; stroke: #b0b0b0; stroke-width: 0.8; stroke-linecap: square"/>
     </g>
     <g id="line2d_6">
      <g>
       <use xlink:href="#m794f961c16" x="372.704113" y="246.04" style="stroke: #000000; stroke-width: 0.8"/>
      </g>
     </g>
     <g id="text_3">
      <!-- 20000 -->
      <g transform="translate(356.797863 260.638438) scale(0.1 -0.1)">
       <defs>
        <path id="DejaVuSans-32" d="M 1228 531 
L 3431 531 
L 3431 0 
L 469 0 
L 469 531 
Q 828 903 1448 1529 
Q 2069 2156 2228 2338 
Q 2531 2678 2651 2914 
Q 2772 3150 2772 3378 
Q 2772 3750 2511 3984 
Q 2250 4219 1831 4219 
Q 1534 4219 1204 4116 
Q 875 4013 500 3803 
L 500 4441 
Q 881 4594 1212 4672 
Q 1544 4750 1819 4750 
Q 2544 4750 2975 4387 
Q 3406 4025 3406 3419 
Q 3406 3131 3298 2873 
Q 3191 2616 2906 2266 
Q 2828 2175 2409 1742 
Q 1991 1309 1228 531 
z
" transform="scale(0.015625)"/>
       </defs>
       <use xlink:href="#DejaVuSans-32"/>
       <use xlink:href="#DejaVuSans-30" x="63.623047"/>
       <use xlink:href="#DejaVuSans-30" x="127.246094"/>
       <use xlink:href="#DejaVuSans-30" x="190.869141"/>
       <use xlink:href="#DejaVuSans-30" x="254.492188"/>
      </g>
     </g>
    </g>
    <g id="xtick_4">
     <g id="line2d_7">
      <path d="M 517.162939 246.04 
L 517.162939 26.88 
" clip-path="url(#pfa3c4140df)" style="fill: none; stroke: #b0b0b0; stroke-width: 0.8; stroke-linecap: square"/>
     </g>
     <g id="line2d_8">
      <g>
       <use xlink:href="#m794f961c16" x="517.162939" y="246.04" style="stroke: #000000; stroke-width: 0.8"/>
      </g>
     </g>
     <g id="text_4">
      <!-- 30000 -->
      <g transform="translate(501.256689 260.638438) scale(0.1 -0.1)">
       <defs>
        <path id="DejaVuSans-33" d="M 2597 2516 
Q 3050 2419 3304 2112 
Q 3559 1806 3559 1356 
Q 3559 666 3084 287 
Q 2609 -91 1734 -91 
Q 1441 -91 1130 -33 
Q 819 25 488 141 
L 488 750 
Q 750 597 1062 519 
Q 1375 441 1716 441 
Q 2309 441 2620 675 
Q 2931 909 2931 1356 
Q 2931 1769 2642 2001 
Q 2353 2234 1838 2234 
L 1294 2234 
L 1294 2753 
L 1863 2753 
Q 2328 2753 2575 2939 
Q 2822 3125 2822 3475 
Q 2822 3834 2567 4026 
Q 2313 4219 1838 4219 
Q 1578 4219 1281 4162 
Q 984 4106 628 3988 
L 628 4550 
Q 988 4650 1302 4700 
Q 1616 4750 1894 4750 
Q 2613 4750 3031 4423 
Q 3450 4097 3450 3541 
Q 3450 3153 3228 2886 
Q 3006 2619 2597 2516 
z
" transform="scale(0.015625)"/>
       </defs>
       <use xlink:href="#DejaVuSans-33"/>
       <use xlink:href="#DejaVuSans-30" x="63.623047"/>
       <use xlink:href="#DejaVuSans-30" x="127.246094"/>
       <use xlink:href="#DejaVuSans-30" x="190.869141"/>
       <use xlink:href="#DejaVuSans-30" x="254.492188"/>
      </g>
     </g>
    </g>
    <g id="xtick_5">
     <g id="line2d_9">
      <path d="M 661.621764 246.04 
L 661.621764 26.88 
" clip-path="url(#pfa3c4140df)" style="fill: none; stroke: #b0b0b0; stroke-width: 0.8; stroke-linecap: square"/>
     </g>
     <g id="line2d_10">
      <g>
       <use xlink:href="#m794f961c16" x="661.621764" y="246.04" style="stroke: #000000; stroke-width: 0.8"/>
      </g>
     </g>
     <g id="text_5">
      <!-- 40000 -->
      <g transform="translate(645.715514 260.638438) scale(0.1 -0.1)">
       <defs>
        <path id="DejaVuSans-34" d="M 2419 4116 
L 825 1625 
L 2419 1625 
L 2419 4116 
z
M 2253 4666 
L 3047 4666 
L 3047 1625 
L 3713 1625 
L 3713 1100 
L 3047 1100 
L 3047 0 
L 2419 0 
L 2419 1100 
L 313 1100 
L 313 1709 
L 2253 4666 
z
" transform="scale(0.015625)"/>
       </defs>
       <use xlink:href="#DejaVuSans-34"/>
       <use xlink:href="#DejaVuSans-30" x="63.623047"/>
       <use xlink:href="#DejaVuSans-30" x="127.246094"/>
       <use xlink:href="#DejaVuSans-30" x="190.869141"/>
       <use xlink:href="#DejaVuSans-30" x="254.492188"/>
      </g>
     </g>
    </g>
    <g id="text_6">
     <!-- Time (s) -->
     <g transform="translate(361.281094 274.316562) scale(0.1 -0.1)">
      <defs>
       <path id="DejaVuSans-54" d="M -19 4666 
L 3928 4666 
L 3928 4134 
L 2272 4134 
L 2272 0 
L 1638 0 
L 1638 4134 
L -19 4134 
L -19 4666 
z
" transform="scale(0.015625)"/>
       <path id="DejaVuSans-69" d="M 603 3500 
L 1178 3500 
L 1178 0 
L 603 0 
L 603 3500 
z
M 603 4863 
L 1178 4863 
L 1178 4134 
L 603 4134 
L 603 4863 
z
" transform="scale(0.015625)"/>
       <path id="DejaVuSans-6d" d="M 3328 2828 
Q 3544 3216 3844 3400 
Q 4144 3584 4550 3584 
Q 5097 3584 5394 3201 
Q 5691 2819 5691 2113 
L 5691 0 
L 5113 0 
L 5113 2094 
Q 5113 2597 4934 2840 
Q 4756 3084 4391 3084 
Q 3944 3084 3684 2787 
Q 3425 2491 3425 1978 
L 3425 0 
L 2847 0 
L 2847 2094 
Q 2847 2600 2669 2842 
Q 2491 3084 2119 3084 
Q 1678 3084 1418 2786 
Q 1159 2488 1159 1978 
L 1159 0 
L 581 0 
L 581 3500 
L 1159 3500 
L 1159 2956 
Q 1356 3278 1631 3431 
Q 1906 3584 2284 3584 
Q 2666 3584 2933 3390 
Q 3200 3197 3328 2828 
z
" transform="scale(0.015625)"/>
       <path id="DejaVuSans-65" d="M 3597 1894 
L 3597 1613 
L 953 1613 
Q 991 1019 1311 708 
Q 1631 397 2203 397 
Q 2534 397 2845 478 
Q 3156 559 3463 722 
L 3463 178 
Q 3153 47 2828 -22 
Q 2503 -91 2169 -91 
Q 1331 -91 842 396 
Q 353 884 353 1716 
Q 353 2575 817 3079 
Q 1281 3584 2069 3584 
Q 2775 3584 3186 3129 
Q 3597 2675 3597 1894 
z
M 3022 2063 
Q 3016 2534 2758 2815 
Q 2500 3097 2075 3097 
Q 1594 3097 1305 2825 
Q 1016 2553 972 2059 
L 3022 2063 
z
" transform="scale(0.015625)"/>
       <path id="DejaVuSans-20" transform="scale(0.015625)"/>
       <path id="DejaVuSans-28" d="M 1984 4856 
Q 1566 4138 1362 3434 
Q 1159 2731 1159 2009 
Q 1159 1288 1364 580 
Q 1569 -128 1984 -844 
L 1484 -844 
Q 1016 -109 783 600 
Q 550 1309 550 2009 
Q 550 2706 781 3412 
Q 1013 4119 1484 4856 
L 1984 4856 
z
" transform="scale(0.015625)"/>
       <path id="DejaVuSans-73" d="M 2834 3397 
L 2834 2853 
Q 2591 2978 2328 3040 
Q 2066 3103 1784 3103 
Q 1356 3103 1142 2972 
Q 928 2841 928 2578 
Q 928 2378 1081 2264 
Q 1234 2150 1697 2047 
L 1894 2003 
Q 2506 1872 2764 1633 
Q 3022 1394 3022 966 
Q 3022 478 2636 193 
Q 2250 -91 1575 -91 
Q 1294 -91 989 -36 
Q 684 19 347 128 
L 347 722 
Q 666 556 975 473 
Q 1284 391 1588 391 
Q 1994 391 2212 530 
Q 2431 669 2431 922 
Q 2431 1156 2273 1281 
Q 2116 1406 1581 1522 
L 1381 1569 
Q 847 1681 609 1914 
Q 372 2147 372 2553 
Q 372 3047 722 3315 
Q 1072 3584 1716 3584 
Q 2034 3584 2315 3537 
Q 2597 3491 2834 3397 
z
" transform="scale(0.015625)"/>
       <path id="DejaVuSans-29" d="M 513 4856 
L 1013 4856 
Q 1481 4119 1714 3412 
Q 1947 2706 1947 2009 
Q 1947 1309 1714 600 
Q 1481 -109 1013 -844 
L 513 -844 
Q 928 -128 1133 580 
Q 1338 1288 1338 2009 
Q 1338 2731 1133 3434 
Q 928 4138 513 4856 
z
" transform="scale(0.015625)"/>
      </defs>
      <use xlink:href="#DejaVuSans-54"/>
      <use xlink:href="#DejaVuSans-69" x="57.958984"/>
      <use xlink:href="#DejaVuSans-6d" x="85.742188"/>
      <use xlink:href="#DejaVuSans-65" x="183.154297"/>
      <use xlink:href="#DejaVuSans-20" x="244.677734"/>
      <use xlink:href="#DejaVuSans-28" x="276.464844"/>
      <use xlink:href="#DejaVuSans-73" x="315.478516"/>
      <use xlink:href="#DejaVuSans-29" x="367.578125"/>
     </g>
    </g>
   </g>
   <g id="matplotlib.axis_2">
    <g id="ytick_1">
     <g id="line2d_11">
      <path d="M 54.02 236.078182 
L 709.2 236.078182 
" clip-path="url(#pfa3c4140df)" style="fill: none; stroke: #b0b0b0; stroke-width: 0.8; stroke-linecap: square"/>
     </g>
     <g id="line2d_12">
      <defs>
       <path id="m09e196a956" d="M 0 0 
L -3.5 0 
" style="stroke: #000000; stroke-width: 0.8"/>
      </defs>
      <g>
       <use xlink:href="#m09e196a956" x="54.02" y="236.078182" style="stroke: #000000; stroke-width: 0.8"/>
      </g>
     </g>
     <g id="text_7">
      <!-- 0.00 -->
      <g transform="translate(24.754375 239.877401) scale(0.1 -0.1)">
       <defs>
        <path id="DejaVuSans-2e" d="M 684 794 
L 1344 794 
L 1344 0 
L 684 0 
L 684 794 
z
" transform="scale(0.015625)"/>
       </defs>
       <use xlink:href="#DejaVuSans-30"/>
       <use xlink:href="#DejaVuSans-2e" x="63.623047"/>
       <use xlink:href="#DejaVuSans-30" x="95.410156"/>
       <use xlink:href="#DejaVuSans-30" x="159.033203"/>
      </g>
     </g>
    </g>
    <g id="ytick_2">
     <g id="line2d_13">
      <path d="M 54.02 196.212571 
L 709.2 196.212571 
" clip-path="url(#pfa3c4140df)" style="fill: none; stroke: #b0b0b0; stroke-width: 0.8; stroke-linecap: square"/>
     </g>
     <g id="line2d_14">
      <g>
       <use xlink:href="#m09e196a956" x="54.02" y="196.212571" style="stroke: #000000; stroke-width: 0.8"/>
      </g>
     </g>
     <g id="text_8">
      <!-- 0.02 -->
      <g transform="translate(24.754375 200.01179) scale(0.1 -0.1)">
       <use xlink:href="#DejaVuSans-30"/>
       <use xlink:href="#DejaVuSans-2e" x="63.623047"/>
       <use xlink:href="#DejaVuSans-30" x="95.410156"/>
       <use xlink:href="#DejaVuSans-32" x="159.033203"/>
      </g>
     </g>
    </g>
    <g id="ytick_3">
     <g id="line2d_15">
      <path d="M 54.02 156.34696 
L 709.2 156.34696 
" clip-path="url(#pfa3c4140df)" style="fill: none; stroke: #b0b0b0; stroke-width: 0.8; stroke-linecap: square"/>
     </g>
     <g id="line2d_16">
      <g>
       <use xlink:href="#m09e196a956" x="54.02" y="156.34696" style="stroke: #000000; stroke-width: 0.8"/>
      </g>
     </g>
     <g id="text_9">
      <!-- 0.04 -->
      <g transform="translate(24.754375 160.146179) scale(0.1 -0.1)">
       <use xlink:href="#DejaVuSans-30"/>
       <use xlink:href="#DejaVuSans-2e" x="63.623047"/>
       <use xlink:href="#DejaVuSans-30" x="95.410156"/>
       <use xlink:href="#DejaVuSans-34" x="159.033203"/>
      </g>
     </g>
    </g>
    <g id="ytick_4">
     <g id="line2d_17">
      <path d="M 54.02 116.481349 
L 709.2 116.481349 
" clip-path="url(#pfa3c4140df)" style="fill: none; stroke: #b0b0b0; stroke-width: 0.8; stroke-linecap: square"/>
     </g>
     <g id="line2d_18">
      <g>
       <use xlink:href="#m09e196a956" x="54.02" y="116.481349" style="stroke: #000000; stroke-width: 0.8"/>
      </g>
     </g>
     <g id="text_10">
      <!-- 0.06 -->
      <g transform="translate(24.754375 120.280568) scale(0.1 -0.1)">
       <defs>
        <path id="DejaVuSans-36" d="M 2113 2584 
Q 1688 2584 1439 2293 
Q 1191 2003 1191 1497 
Q 1191 994 1439 701 
Q 1688 409 2113 409 
Q 2538 409 2786 701 
Q 3034 994 3034 1497 
Q 3034 2003 2786 2293 
Q 2538 2584 2113 2584 
z
M 3366 4563 
L 3366 3988 
Q 3128 4100 2886 4159 
Q 2644 4219 2406 4219 
Q 1781 4219 1451 3797 
Q 1122 3375 1075 2522 
Q 1259 2794 1537 2939 
Q 1816 3084 2150 3084 
Q 2853 3084 3261 2657 
Q 3669 2231 3669 1497 
Q 3669 778 3244 343 
Q 2819 -91 2113 -91 
Q 1303 -91 875 529 
Q 447 1150 447 2328 
Q 447 3434 972 4092 
Q 1497 4750 2381 4750 
Q 2619 4750 2861 4703 
Q 3103 4656 3366 4563 
z
" transform="scale(0.015625)"/>
       </defs>
       <use xlink:href="#DejaVuSans-30"/>
       <use xlink:href="#DejaVuSans-2e" x="63.623047"/>
       <use xlink:href="#DejaVuSans-30" x="95.410156"/>
       <use xlink:href="#DejaVuSans-36" x="159.033203"/>
      </g>
     </g>
    </g>
    <g id="ytick_5">
     <g id="line2d_19">
      <path d="M 54.02 76.615738 
L 709.2 76.615738 
" clip-path="url(#pfa3c4140df)" style="fill: none; stroke: #b0b0b0; stroke-width: 0.8; stroke-linecap: square"/>
     </g>
     <g id="line2d_20">
      <g>
       <use xlink:href="#m09e196a956" x="54.02" y="76.615738" style="stroke: #000000; stroke-width: 0.8"/>
      </g>
     </g>
     <g id="text_11">
      <!-- 0.08 -->
      <g transform="translate(24.754375 80.414957) scale(0.1 -0.1)">
       <defs>
        <path id="DejaVuSans-38" d="M 2034 2216 
Q 1584 2216 1326 1975 
Q 1069 1734 1069 1313 
Q 1069 891 1326 650 
Q 1584 409 2034 409 
Q 2484 409 2743 651 
Q 3003 894 3003 1313 
Q 3003 1734 2745 1975 
Q 2488 2216 2034 2216 
z
M 1403 2484 
Q 997 2584 770 2862 
Q 544 3141 544 3541 
Q 544 4100 942 4425 
Q 1341 4750 2034 4750 
Q 2731 4750 3128 4425 
Q 3525 4100 3525 3541 
Q 3525 3141 3298 2862 
Q 3072 2584 2669 2484 
Q 3125 2378 3379 2068 
Q 3634 1759 3634 1313 
Q 3634 634 3220 271 
Q 2806 -91 2034 -91 
Q 1263 -91 848 271 
Q 434 634 434 1313 
Q 434 1759 690 2068 
Q 947 2378 1403 2484 
z
M 1172 3481 
Q 1172 3119 1398 2916 
Q 1625 2713 2034 2713 
Q 2441 2713 2670 2916 
Q 2900 3119 2900 3481 
Q 2900 3844 2670 4047 
Q 2441 4250 2034 4250 
Q 1625 4250 1398 4047 
Q 1172 3844 1172 3481 
z
" transform="scale(0.015625)"/>
       </defs>
       <use xlink:href="#DejaVuSans-30"/>
       <use xlink:href="#DejaVuSans-2e" x="63.623047"/>
       <use xlink:href="#DejaVuSans-30" x="95.410156"/>
       <use xlink:href="#DejaVuSans-38" x="159.033203"/>
      </g>
     </g>
    </g>
    <g id="ytick_6">
     <g id="line2d_21">
      <path d="M 54.02 36.750127 
L 709.2 36.750127 
" clip-path="url(#pfa3c4140df)" style="fill: none; stroke: #b0b0b0; stroke-width: 0.8; stroke-linecap: square"/>
     </g>
     <g id="line2d_22">
      <g>
       <use xlink:href="#m09e196a956" x="54.02" y="36.750127" style="stroke: #000000; stroke-width: 0.8"/>
      </g>
     </g>
     <g id="text_12">
      <!-- 0.10 -->
      <g transform="translate(24.754375 40.549346) scale(0.1 -0.1)">
       <use xlink:href="#DejaVuSans-30"/>
       <use xlink:href="#DejaVuSans-2e" x="63.623047"/>
       <use xlink:href="#DejaVuSans-31" x="95.410156"/>
       <use xlink:href="#DejaVuSans-30" x="159.033203"/>
      </g>
     </g>
    </g>
    <g id="text_13">
     <!-- Delta Value -->
     <g transform="translate(18.674688 165.120156) rotate(-90) scale(0.1 -0.1)">
      <defs>
       <path id="DejaVuSans-44" d="M 1259 4147 
L 1259 519 
L 2022 519 
Q 2988 519 3436 956 
Q 3884 1394 3884 2338 
Q 3884 3275 3436 3711 
Q 2988 4147 2022 4147 
L 1259 4147 
z
M 628 4666 
L 1925 4666 
Q 3281 4666 3915 4102 
Q 4550 3538 4550 2338 
Q 4550 1131 3912 565 
Q 3275 0 1925 0 
L 628 0 
L 628 4666 
z
" transform="scale(0.015625)"/>
       <path id="DejaVuSans-6c" d="M 603 4863 
L 1178 4863 
L 1178 0 
L 603 0 
L 603 4863 
z
" transform="scale(0.015625)"/>
       <path id="DejaVuSans-74" d="M 1172 4494 
L 1172 3500 
L 2356 3500 
L 2356 3053 
L 1172 3053 
L 1172 1153 
Q 1172 725 1289 603 
Q 1406 481 1766 481 
L 2356 481 
L 2356 0 
L 1766 0 
Q 1100 0 847 248 
Q 594 497 594 1153 
L 594 3053 
L 172 3053 
L 172 3500 
L 594 3500 
L 594 4494 
L 1172 4494 
z
" transform="scale(0.015625)"/>
       <path id="DejaVuSans-61" d="M 2194 1759 
Q 1497 1759 1228 1600 
Q 959 1441 959 1056 
Q 959 750 1161 570 
Q 1363 391 1709 391 
Q 2188 391 2477 730 
Q 2766 1069 2766 1631 
L 2766 1759 
L 2194 1759 
z
M 3341 1997 
L 3341 0 
L 2766 0 
L 2766 531 
Q 2569 213 2275 61 
Q 1981 -91 1556 -91 
Q 1019 -91 701 211 
Q 384 513 384 1019 
Q 384 1609 779 1909 
Q 1175 2209 1959 2209 
L 2766 2209 
L 2766 2266 
Q 2766 2663 2505 2880 
Q 2244 3097 1772 3097 
Q 1472 3097 1187 3025 
Q 903 2953 641 2809 
L 641 3341 
Q 956 3463 1253 3523 
Q 1550 3584 1831 3584 
Q 2591 3584 2966 3190 
Q 3341 2797 3341 1997 
z
" transform="scale(0.015625)"/>
       <path id="DejaVuSans-56" d="M 1831 0 
L 50 4666 
L 709 4666 
L 2188 738 
L 3669 4666 
L 4325 4666 
L 2547 0 
L 1831 0 
z
" transform="scale(0.015625)"/>
       <path id="DejaVuSans-75" d="M 544 1381 
L 544 3500 
L 1119 3500 
L 1119 1403 
Q 1119 906 1312 657 
Q 1506 409 1894 409 
Q 2359 409 2629 706 
Q 2900 1003 2900 1516 
L 2900 3500 
L 3475 3500 
L 3475 0 
L 2900 0 
L 2900 538 
Q 2691 219 2414 64 
Q 2138 -91 1772 -91 
Q 1169 -91 856 284 
Q 544 659 544 1381 
z
M 1991 3584 
L 1991 3584 
z
" transform="scale(0.015625)"/>
      </defs>
      <use xlink:href="#DejaVuSans-44"/>
      <use xlink:href="#DejaVuSans-65" x="77.001953"/>
      <use xlink:href="#DejaVuSans-6c" x="138.525391"/>
      <use xlink:href="#DejaVuSans-74" x="166.308594"/>
      <use xlink:href="#DejaVuSans-61" x="205.517578"/>
      <use xlink:href="#DejaVuSans-20" x="266.796875"/>
      <use xlink:href="#DejaVuSans-56" x="298.583984"/>
      <use xlink:href="#DejaVuSans-61" x="359.242188"/>
      <use xlink:href="#DejaVuSans-6c" x="420.521484"/>
      <use xlink:href="#DejaVuSans-75" x="448.304688"/>
      <use xlink:href="#DejaVuSans-65" x="511.683594"/>
     </g>
    </g>
   </g>
   <g id="line2d_23">
    <path d="M 83.800909 236.078182 
L 83.858693 235.986491 
L 83.873139 236.078182 
L 84.349853 36.841818 
L 84.436528 236.078182 
L 85.231051 36.841818 
L 85.317727 236.078182 
L 85.765549 36.841818 
L 85.852224 236.078182 
L 86.632302 36.841818 
L 86.718977 236.078182 
L 87.09457 36.841818 
L 87.181246 236.078182 
L 87.629068 36.841818 
L 87.715743 236.078182 
L 88.539159 151.481091 
L 88.625834 236.078182 
L 89.001427 121.5306 
L 89.088102 236.078182 
L 89.535924 36.841818 
L 89.6226 236.078182 
L 90.229327 36.841818 
L 90.316002 236.078182 
L 90.749379 36.841818 
L 90.836054 236.078182 
L 91.457227 36.841818 
L 91.543902 236.078182 
L 92.165075 36.841818 
L 92.25175 236.078182 
L 92.887369 36.841818 
L 92.974044 236.078182 
L 93.566326 36.841818 
L 93.653001 236.078182 
L 94.274174 152.150858 
L 94.375295 236.078182 
L 94.476416 235.858921 
L 94.490862 236.078182 
L 94.548646 235.994464 
L 94.563092 236.078182 
L 95.083143 234.590156 
L 95.184265 236.078182 
L 95.285386 235.539996 
L 95.372061 236.078182 
L 95.949896 235.068543 
L 96.051017 236.078182 
L 96.152139 235.061609 
L 96.238814 236.078182 
L 96.758866 125.495294 
L 96.845541 236.078182 
L 97.278917 36.841818 
L 97.365593 236.078182 
L 97.97232 36.841818 
L 98.058995 236.078182 
L 98.492372 36.841818 
L 98.579047 236.078182 
L 99.185774 36.841818 
L 99.272449 236.078182 
L 99.662488 36.841818 
L 99.749163 236.078182 
L 100.18254 36.841818 
L 100.269215 236.078182 
L 100.875942 36.841818 
L 100.962618 236.078182 
L 101.395994 36.841818 
L 101.482669 236.078182 
L 102.089396 36.841818 
L 102.176072 236.078182 
L 102.56611 36.841818 
L 102.652786 236.078182 
L 103.115054 36.841818 
L 103.201729 236.078182 
L 103.808456 36.841818 
L 103.895132 236.078182 
L 104.328508 36.841818 
L 104.415183 236.078182 
L 105.02191 36.841818 
L 105.108586 236.078182 
L 105.498625 36.841818 
L 105.5853 236.078182 
L 106.018676 36.841818 
L 106.105352 236.078182 
L 106.712079 36.841818 
L 106.798754 236.078182 
L 107.232131 36.841818 
L 107.318806 236.078182 
L 107.925533 36.841818 
L 108.012208 236.078182 
L 108.402247 36.841818 
L 108.488922 236.078182 
L 108.922299 36.841818 
L 109.008974 236.078182 
L 109.615701 36.841818 
L 109.702376 236.078182 
L 110.164645 36.841818 
L 110.25132 236.078182 
L 110.858047 36.841818 
L 110.944722 236.078182 
L 111.334761 36.841818 
L 111.421436 236.078182 
L 111.854813 36.841818 
L 111.941488 236.078182 
L 112.548215 36.841818 
L 112.634891 236.078182 
L 113.068267 36.841818 
L 113.154942 236.078182 
L 113.761669 36.841818 
L 113.848345 236.078182 
L 114.238384 36.841818 
L 114.325059 236.078182 
L 114.758435 36.841818 
L 114.845111 236.078182 
L 115.451838 36.841818 
L 115.538513 236.078182 
L 115.971889 36.841818 
L 116.058565 236.078182 
L 116.665292 36.841818 
L 116.751967 236.078182 
L 117.142006 36.841818 
L 117.228681 236.078182 
L 117.690949 36.841818 
L 117.777625 236.078182 
L 118.384352 36.841818 
L 118.471027 236.078182 
L 118.904404 36.841818 
L 118.991079 236.078182 
L 119.597806 36.841818 
L 119.684481 236.078182 
L 120.07452 36.841818 
L 120.161195 236.078182 
L 120.594572 36.841818 
L 120.681247 236.078182 
L 121.287974 36.841818 
L 121.37465 236.078182 
L 121.808026 36.841818 
L 121.894701 236.078182 
L 122.501428 36.841818 
L 122.588104 236.078182 
L 122.978142 36.841818 
L 123.064818 236.078182 
L 123.498194 36.841818 
L 123.58487 236.078182 
L 124.191597 36.841818 
L 124.278272 236.078182 
L 124.74054 36.841818 
L 124.827215 236.078182 
L 125.433942 36.841818 
L 125.520618 236.078182 
L 125.910657 36.841818 
L 125.997332 236.078182 
L 126.430708 36.841818 
L 126.517384 236.078182 
L 127.124111 36.841818 
L 127.210786 236.078182 
L 127.644163 36.841818 
L 127.730838 236.078182 
L 128.337565 36.841818 
L 128.42424 236.078182 
L 128.814279 36.841818 
L 128.900954 236.078182 
L 129.334331 36.841818 
L 129.421006 236.078182 
L 130.027733 36.841818 
L 130.114408 236.078182 
L 130.547785 36.841818 
L 130.63446 236.078182 
L 131.241187 36.841818 
L 131.327863 236.078182 
L 131.717901 36.841818 
L 131.804577 236.078182 
L 132.266845 36.841818 
L 132.35352 236.078182 
L 132.960247 36.841818 
L 133.046923 236.078182 
L 133.480299 36.841818 
L 133.566974 236.078182 
L 134.173701 36.841818 
L 134.260377 236.078182 
L 134.650416 36.841818 
L 134.737091 236.078182 
L 135.170467 36.841818 
L 135.257143 236.078182 
L 135.86387 36.841818 
L 135.950545 236.078182 
L 136.383921 36.841818 
L 136.470597 236.078182 
L 137.077324 36.841818 
L 137.163999 236.078182 
L 137.554038 36.841818 
L 137.640713 236.078182 
L 138.07409 36.841818 
L 138.160765 236.078182 
L 138.767492 36.841818 
L 138.854167 236.078182 
L 139.316436 36.841818 
L 139.403111 236.078182 
L 140.009838 36.841818 
L 140.096513 236.078182 
L 140.486552 36.841818 
L 140.573227 236.078182 
L 141.006604 36.841818 
L 141.093279 236.078182 
L 141.700006 36.841818 
L 141.786681 236.078182 
L 142.220058 36.841818 
L 142.306733 236.078182 
L 142.91346 36.841818 
L 143.000136 236.078182 
L 143.390174 36.841818 
L 143.47685 236.078182 
L 143.910226 36.841818 
L 143.996902 236.078182 
L 144.603629 36.841818 
L 144.690304 236.078182 
L 145.12368 36.841818 
L 145.210356 236.078182 
L 145.817083 36.841818 
L 145.903758 236.078182 
L 146.293797 36.841818 
L 146.380472 236.078182 
L 146.84274 36.841818 
L 146.929416 236.078182 
L 147.536143 36.841818 
L 147.622818 236.078182 
L 148.056195 36.841818 
L 148.14287 236.078182 
L 148.749597 36.841818 
L 148.836272 236.078182 
L 149.226311 36.841818 
L 149.312986 236.078182 
L 149.746363 36.841818 
L 149.833038 236.078182 
L 150.439765 36.841818 
L 150.52644 236.078182 
L 150.959817 36.841818 
L 151.046492 236.078182 
L 151.653219 36.841818 
L 151.739895 236.078182 
L 152.129933 36.841818 
L 152.216609 236.078182 
L 152.649985 36.841818 
L 152.73666 236.078182 
L 153.343387 36.841818 
L 153.430063 236.078182 
L 153.892331 36.841818 
L 153.979006 236.078182 
L 154.585733 36.841818 
L 154.672409 236.078182 
L 155.062448 36.841818 
L 155.149123 236.078182 
L 155.582499 36.841818 
L 155.669175 236.078182 
L 156.275902 36.841818 
L 156.362577 236.078182 
L 156.795953 36.841818 
L 156.882629 236.078182 
L 157.489356 36.841818 
L 157.576031 236.078182 
L 157.96607 36.841818 
L 158.052745 236.078182 
L 158.486122 36.841818 
L 158.572797 236.078182 
L 159.179524 36.841818 
L 159.266199 236.078182 
L 159.699576 36.841818 
L 159.786251 236.078182 
L 160.392978 36.841818 
L 160.479653 236.078182 
L 160.869692 36.841818 
L 160.956368 236.078182 
L 161.418636 36.841818 
L 161.505311 236.078182 
L 162.112038 36.841818 
L 162.198713 236.078182 
L 162.63209 36.841818 
L 162.718765 236.078182 
L 163.325492 36.841818 
L 163.412168 236.078182 
L 163.802206 36.841818 
L 163.888882 236.078182 
L 164.322258 36.841818 
L 164.408934 236.078182 
L 165.015661 36.841818 
L 165.102336 236.078182 
L 165.535712 36.841818 
L 165.622388 236.078182 
L 166.229115 36.841818 
L 166.31579 236.078182 
L 166.705829 36.841818 
L 166.792504 236.078182 
L 167.225881 36.841818 
L 167.312556 236.078182 
L 167.919283 36.841818 
L 168.005958 236.078182 
L 168.468226 36.841818 
L 168.554902 236.078182 
L 169.161629 36.841818 
L 169.248304 236.078182 
L 169.638343 36.841818 
L 169.725018 236.078182 
L 170.158395 36.841818 
L 170.24507 236.078182 
L 170.851797 36.841818 
L 170.938472 236.078182 
L 171.371849 36.841818 
L 171.458524 236.078182 
L 172.065251 36.841818 
L 172.151927 236.078182 
L 172.541965 36.841818 
L 172.628641 236.078182 
L 173.062017 36.841818 
L 173.148692 236.078182 
L 173.755419 36.841818 
L 173.842095 236.078182 
L 174.275471 36.841818 
L 174.362147 236.078182 
L 174.968874 36.841818 
L 175.055549 236.078182 
L 175.445588 36.841818 
L 175.532263 236.078182 
L 175.994531 36.841818 
L 176.081207 236.078182 
L 176.687934 36.841818 
L 176.774609 236.078182 
L 177.207985 36.841818 
L 177.294661 236.078182 
L 177.901388 36.841818 
L 177.988063 236.078182 
L 178.378102 36.841818 
L 178.464777 236.078182 
L 178.898154 36.841818 
L 178.984829 236.078182 
L 179.591556 36.841818 
L 179.678231 236.078182 
L 180.111608 36.841818 
L 180.198283 236.078182 
L 180.80501 36.841818 
L 180.891685 236.078182 
L 181.281724 36.841818 
L 181.3684 236.078182 
L 181.801776 36.841818 
L 181.888451 236.078182 
L 182.495178 36.841818 
L 182.581854 236.078182 
L 183.044122 36.841818 
L 183.130797 236.078182 
L 183.737524 36.841818 
L 183.8242 236.078182 
L 184.214238 36.841818 
L 184.300914 236.078182 
L 184.73429 36.841818 
L 184.820965 236.078182 
L 185.427693 36.841818 
L 185.514368 236.078182 
L 185.947744 36.841818 
L 186.03442 236.078182 
L 186.641147 36.841818 
L 186.727822 236.078182 
L 187.117861 36.841818 
L 187.204536 236.078182 
L 187.637913 36.841818 
L 187.724588 236.078182 
L 188.331315 36.841818 
L 188.41799 236.078182 
L 188.851367 36.841818 
L 188.938042 236.078182 
L 189.544769 36.841818 
L 189.631444 236.078182 
L 190.021483 36.841818 
L 190.108158 236.078182 
L 190.570427 36.841818 
L 190.657102 236.078182 
L 191.263829 36.841818 
L 191.350504 236.078182 
L 191.783881 36.841818 
L 191.870556 236.078182 
L 192.477283 36.841818 
L 192.563959 236.078182 
L 192.953997 36.841818 
L 193.040673 236.078182 
L 193.474049 36.841818 
L 193.560724 236.078182 
L 194.167451 36.841818 
L 194.254127 236.078182 
L 194.687503 36.841818 
L 194.774179 236.078182 
L 195.380906 36.841818 
L 195.467581 236.078182 
L 195.85762 36.841818 
L 195.944295 236.078182 
L 196.377672 36.841818 
L 196.464347 236.078182 
L 197.071074 36.841818 
L 197.157749 236.078182 
L 197.620017 36.841818 
L 197.706693 236.078182 
L 198.31342 36.841818 
L 198.400095 236.078182 
L 198.790134 36.841818 
L 198.876809 236.078182 
L 199.310186 36.841818 
L 199.396861 236.078182 
L 200.003588 36.841818 
L 200.090263 236.078182 
L 200.52364 36.841818 
L 200.610315 236.078182 
L 201.217042 36.841818 
L 201.303717 236.078182 
L 201.693756 36.841818 
L 201.780432 236.078182 
L 202.213808 36.841818 
L 202.300483 236.078182 
L 202.90721 36.841818 
L 202.993886 236.078182 
L 203.427262 36.841818 
L 203.513937 236.078182 
L 204.120665 36.841818 
L 204.20734 236.078182 
L 204.597379 36.841818 
L 204.684054 236.078182 
L 205.146322 36.841818 
L 205.232997 236.078182 
L 205.839725 36.841818 
L 205.9264 236.078182 
L 206.359776 36.841818 
L 206.446452 236.078182 
L 207.053179 36.841818 
L 207.139854 236.078182 
L 207.529893 36.841818 
L 207.616568 236.078182 
L 208.049945 36.841818 
L 208.13662 236.078182 
L 208.743347 36.841818 
L 208.830022 236.078182 
L 209.263399 36.841818 
L 209.350074 236.078182 
L 209.956801 36.841818 
L 210.043476 236.078182 
L 210.433515 36.841818 
L 210.52019 236.078182 
L 210.953567 36.841818 
L 211.040242 236.078182 
L 211.646969 36.841818 
L 211.733645 236.078182 
L 212.195913 36.841818 
L 212.282588 236.078182 
L 212.889315 36.841818 
L 212.975991 236.078182 
L 213.366029 36.841818 
L 213.452705 236.078182 
L 213.886081 36.841818 
L 213.972756 236.078182 
L 214.579483 36.841818 
L 214.666159 236.078182 
L 215.099535 36.841818 
L 215.186211 236.078182 
L 215.792938 36.841818 
L 215.879613 236.078182 
L 216.269652 36.841818 
L 216.356327 236.078182 
L 216.789703 36.841818 
L 216.876379 236.078182 
L 217.483106 36.841818 
L 217.569781 236.078182 
L 218.003158 36.841818 
L 218.089833 236.078182 
L 218.69656 36.841818 
L 218.783235 236.078182 
L 219.173274 36.841818 
L 219.259949 236.078182 
L 219.722218 36.841818 
L 219.808893 236.078182 
L 220.41562 36.841818 
L 220.502295 236.078182 
L 220.935672 36.841818 
L 221.022347 236.078182 
L 221.629074 36.841818 
L 221.715749 236.078182 
L 222.105788 36.841818 
L 222.192464 236.078182 
L 222.62584 36.841818 
L 222.712515 236.078182 
L 223.319242 36.841818 
L 223.405918 236.078182 
L 223.839294 36.841818 
L 223.925969 236.078182 
L 224.532697 36.841818 
L 224.619372 236.078182 
L 225.009411 36.841818 
L 225.096086 236.078182 
L 225.529462 36.841818 
L 225.616138 236.078182 
L 226.222865 36.841818 
L 226.30954 236.078182 
L 226.771808 36.841818 
L 226.858484 236.078182 
L 227.465211 36.841818 
L 227.551886 236.078182 
L 227.941925 36.841818 
L 228.0286 236.078182 
L 228.461977 36.841818 
L 228.548652 236.078182 
L 229.155379 36.841818 
L 229.242054 236.078182 
L 229.675431 36.841818 
L 229.762106 236.078182 
L 230.368833 36.841818 
L 230.455508 236.078182 
L 230.845547 36.841818 
L 230.932222 236.078182 
L 231.365599 36.841818 
L 231.452274 236.078182 
L 232.059001 36.841818 
L 232.145677 236.078182 
L 232.579053 36.841818 
L 232.665728 236.078182 
L 233.272455 36.841818 
L 233.359131 236.078182 
L 233.74917 36.841818 
L 233.835845 236.078182 
L 234.298113 36.841818 
L 234.384788 236.078182 
L 234.991515 36.841818 
L 235.078191 236.078182 
L 235.511567 36.841818 
L 235.598243 236.078182 
L 236.20497 36.841818 
L 236.291645 236.078182 
L 236.681684 36.841818 
L 236.768359 236.078182 
L 237.201735 36.841818 
L 237.288411 236.078182 
L 237.895138 36.841818 
L 237.981813 236.078182 
L 238.41519 36.841818 
L 238.501865 236.078182 
L 239.108592 36.841818 
L 239.195267 236.078182 
L 239.585306 36.841818 
L 239.671981 236.078182 
L 240.105358 36.841818 
L 240.192033 236.078182 
L 240.79876 36.841818 
L 240.885436 236.078182 
L 241.347704 36.841818 
L 241.434379 236.078182 
L 242.041106 36.841818 
L 242.127781 236.078182 
L 242.51782 36.841818 
L 242.604496 236.078182 
L 243.037872 36.841818 
L 243.124547 236.078182 
L 243.731274 36.841818 
L 243.81795 236.078182 
L 244.251326 36.841818 
L 244.338001 236.078182 
L 244.944729 36.841818 
L 245.031404 236.078182 
L 245.421443 36.841818 
L 245.508118 236.078182 
L 245.941494 36.841818 
L 246.02817 236.078182 
L 246.634897 36.841818 
L 246.721572 236.078182 
L 247.154949 36.841818 
L 247.241624 236.078182 
L 247.848351 36.841818 
L 247.935026 236.078182 
L 248.325065 36.841818 
L 248.41174 236.078182 
L 248.874009 36.841818 
L 248.960684 236.078182 
L 249.567411 36.841818 
L 249.654086 236.078182 
L 250.087463 36.841818 
L 250.174138 236.078182 
L 250.780865 36.841818 
L 250.86754 236.078182 
L 251.257579 36.841818 
L 251.344254 236.078182 
L 251.777631 36.841818 
L 251.864306 236.078182 
L 252.471033 36.841818 
L 252.557709 236.078182 
L 252.991085 36.841818 
L 253.07776 236.078182 
L 253.684487 36.841818 
L 253.771163 236.078182 
L 254.161202 36.841818 
L 254.247877 236.078182 
L 254.681253 36.841818 
L 254.767929 236.078182 
L 255.374656 36.841818 
L 255.461331 236.078182 
L 255.894707 36.841818 
L 255.981383 236.078182 
L 256.559218 36.841818 
L 256.645893 236.078182 
L 257.064824 36.841818 
L 257.151499 236.078182 
L 257.772672 36.841818 
L 257.859347 236.078182 
L 258.437183 36.841818 
L 258.523858 236.078182 
L 258.97168 36.841818 
L 259.058356 236.078182 
L 259.852879 36.841818 
L 259.939555 236.078182 
L 260.344039 36.841818 
L 260.430715 236.078182 
L 261.051888 36.841818 
L 261.138563 236.078182 
L 261.716398 36.841818 
L 261.803073 236.078182 
L 262.279788 36.841818 
L 262.366463 236.078182 
L 263.652146 36.841818 
L 263.738822 236.078182 
L 264.143306 36.841818 
L 264.229982 236.078182 
L 264.69225 36.841818 
L 264.778925 236.078182 
L 265.400098 36.841818 
L 265.486773 236.078182 
L 266.107946 36.841818 
L 266.194622 236.078182 
L 269.517175 36.841818 
L 269.60385 236.078182 
L 269.993889 36.841818 
L 270.080564 236.078182 
L 270.513941 36.841818 
L 270.600616 236.078182 
L 271.207343 36.841818 
L 271.294018 236.078182 
L 271.727395 36.841818 
L 271.81407 236.078182 
L 272.420797 36.841818 
L 272.507472 236.078182 
L 272.897511 36.841818 
L 272.984186 236.078182 
L 273.417563 36.841818 
L 273.504238 236.078182 
L 274.110965 36.841818 
L 274.197641 236.078182 
L 274.659909 36.841818 
L 274.746584 236.078182 
L 275.353311 36.841818 
L 275.439986 236.078182 
L 275.830025 36.841818 
L 275.916701 236.078182 
L 276.350077 36.841818 
L 276.436752 236.078182 
L 277.043479 36.841818 
L 277.130155 236.078182 
L 277.563531 36.841818 
L 277.650207 236.078182 
L 278.256934 36.841818 
L 278.343609 236.078182 
L 278.733648 36.841818 
L 278.820323 236.078182 
L 279.253699 36.841818 
L 279.340375 236.078182 
L 279.947102 36.841818 
L 280.033777 236.078182 
L 280.467154 36.841818 
L 280.553829 236.078182 
L 281.160556 36.841818 
L 281.247231 236.078182 
L 281.63727 36.841818 
L 281.723945 236.078182 
L 282.186214 36.841818 
L 282.272889 236.078182 
L 282.879616 36.841818 
L 282.966291 236.078182 
L 283.399668 36.841818 
L 283.486343 236.078182 
L 284.09307 36.841818 
L 284.179745 236.078182 
L 284.569784 36.841818 
L 284.65646 236.078182 
L 285.089836 36.841818 
L 285.176511 236.078182 
L 285.783238 36.841818 
L 285.869914 236.078182 
L 286.30329 36.841818 
L 286.389965 236.078182 
L 286.996692 36.841818 
L 287.083368 236.078182 
L 287.473407 36.841818 
L 287.560082 236.078182 
L 287.993458 36.841818 
L 288.080134 236.078182 
L 288.686861 36.841818 
L 288.773536 236.078182 
L 289.235804 36.841818 
L 289.32248 236.078182 
L 289.929207 36.841818 
L 290.015882 236.078182 
L 290.405921 36.841818 
L 290.492596 236.078182 
L 290.925973 36.841818 
L 291.012648 236.078182 
L 291.619375 36.841818 
L 291.70605 236.078182 
L 292.139427 36.841818 
L 292.226102 236.078182 
L 292.832829 36.841818 
L 292.919504 236.078182 
L 293.309543 36.841818 
L 293.396218 236.078182 
L 293.829595 36.841818 
L 293.91627 236.078182 
L 294.522997 36.841818 
L 294.609673 236.078182 
L 295.043049 36.841818 
L 295.129724 236.078182 
L 295.736451 36.841818 
L 295.823127 236.078182 
L 296.213166 36.841818 
L 296.299841 236.078182 
L 296.762109 36.841818 
L 296.848784 236.078182 
L 297.455511 36.841818 
L 297.542187 236.078182 
L 297.975563 36.841818 
L 298.062238 236.078182 
L 298.668966 36.841818 
L 298.755641 236.078182 
L 299.14568 36.841818 
L 299.232355 236.078182 
L 299.665731 36.841818 
L 299.752407 236.078182 
L 300.359134 36.841818 
L 300.445809 236.078182 
L 300.879186 36.841818 
L 300.965861 236.078182 
L 301.572588 36.841818 
L 301.659263 236.078182 
L 302.049302 36.841818 
L 302.135977 236.078182 
L 302.569354 36.841818 
L 302.656029 236.078182 
L 303.262756 36.841818 
L 303.349431 236.078182 
L 303.8117 36.841818 
L 303.898375 236.078182 
L 304.505102 36.841818 
L 304.591777 236.078182 
L 304.981816 36.841818 
L 305.068492 236.078182 
L 305.501868 36.841818 
L 305.588543 236.078182 
L 306.19527 36.841818 
L 306.281946 236.078182 
L 306.715322 36.841818 
L 306.801997 236.078182 
L 307.408724 36.841818 
L 307.4954 236.078182 
L 307.885439 36.841818 
L 307.972114 236.078182 
L 308.40549 36.841818 
L 308.492166 236.078182 
L 309.098893 36.841818 
L 309.185568 236.078182 
L 309.618945 36.841818 
L 309.70562 236.078182 
L 310.312347 36.841818 
L 310.399022 236.078182 
L 310.789061 36.841818 
L 310.875736 236.078182 
L 311.338005 36.841818 
L 311.42468 236.078182 
L 312.031407 36.841818 
L 312.118082 236.078182 
L 312.551459 36.841818 
L 312.638134 236.078182 
L 313.244861 36.841818 
L 313.331536 236.078182 
L 313.721575 36.841818 
L 313.80825 236.078182 
L 314.241627 36.841818 
L 314.328302 236.078182 
L 314.935029 36.841818 
L 315.021705 236.078182 
L 315.455081 36.841818 
L 315.541756 236.078182 
L 316.148483 36.841818 
L 316.235159 236.078182 
L 316.625198 36.841818 
L 316.711873 236.078182 
L 317.145249 36.841818 
L 317.231925 236.078182 
L 317.838652 36.841818 
L 317.925327 236.078182 
L 318.387595 36.841818 
L 318.47427 236.078182 
L 319.080998 36.841818 
L 319.167673 236.078182 
L 319.557712 36.841818 
L 319.644387 236.078182 
L 320.077763 36.841818 
L 320.164439 236.078182 
L 320.771166 36.841818 
L 320.857841 236.078182 
L 321.291218 36.841818 
L 321.377893 236.078182 
L 321.98462 36.841818 
L 322.071295 236.078182 
L 322.461334 36.841818 
L 322.548009 236.078182 
L 322.981386 36.841818 
L 323.068061 236.078182 
L 323.674788 36.841818 
L 323.761463 236.078182 
L 324.19484 36.841818 
L 324.281515 236.078182 
L 324.888242 36.841818 
L 324.974918 236.078182 
L 325.364956 36.841818 
L 325.451632 236.078182 
L 325.9139 36.841818 
L 326.000575 236.078182 
L 326.607302 36.841818 
L 326.693978 236.078182 
L 327.127354 36.841818 
L 327.214029 236.078182 
L 327.820756 36.841818 
L 327.907432 236.078182 
L 328.297471 36.841818 
L 328.384146 236.078182 
L 328.817522 36.841818 
L 328.904198 236.078182 
L 329.510925 36.841818 
L 329.5976 236.078182 
L 330.030976 36.841818 
L 330.117652 236.078182 
L 330.724379 36.841818 
L 330.811054 236.078182 
L 331.201093 36.841818 
L 331.287768 236.078182 
L 331.721145 36.841818 
L 331.80782 236.078182 
L 332.414547 36.841818 
L 332.501222 236.078182 
L 332.963491 36.841818 
L 333.050166 236.078182 
L 333.656893 36.841818 
L 333.743568 236.078182 
L 334.133607 36.841818 
L 334.220282 236.078182 
L 334.653659 36.841818 
L 334.740334 236.078182 
L 335.347061 36.841818 
L 335.433737 236.078182 
L 335.867113 36.841818 
L 335.953788 236.078182 
L 336.560515 36.841818 
L 336.647191 236.078182 
L 337.03723 36.841818 
L 337.123905 236.078182 
L 337.557281 36.841818 
L 337.643957 236.078182 
L 338.250684 36.841818 
L 338.337359 236.078182 
L 338.770735 36.841818 
L 338.857411 236.078182 
L 339.464138 36.841818 
L 339.550813 236.078182 
L 339.940852 36.841818 
L 340.027527 236.078182 
L 340.489795 36.841818 
L 340.576471 236.078182 
L 341.183198 36.841818 
L 341.269873 236.078182 
L 341.70325 36.841818 
L 341.789925 236.078182 
L 342.396652 36.841818 
L 342.483327 236.078182 
L 342.873366 36.841818 
L 342.960041 236.078182 
L 343.393418 36.841818 
L 343.480093 236.078182 
L 344.08682 36.841818 
L 344.173495 236.078182 
L 344.606872 36.841818 
L 344.693547 236.078182 
L 345.300274 36.841818 
L 345.38695 236.078182 
L 345.776988 36.841818 
L 345.863664 236.078182 
L 346.29704 36.841818 
L 346.383715 236.078182 
L 346.990443 36.841818 
L 347.077118 236.078182 
L 347.539386 36.841818 
L 347.626061 236.078182 
L 348.232788 36.841818 
L 348.319464 236.078182 
L 348.709503 36.841818 
L 348.796178 236.078182 
L 349.229554 36.841818 
L 349.31623 236.078182 
L 349.922957 36.841818 
L 350.009632 236.078182 
L 350.443008 36.841818 
L 350.529684 236.078182 
L 351.136411 36.841818 
L 351.223086 236.078182 
L 351.613125 36.841818 
L 351.6998 236.078182 
L 352.133177 36.841818 
L 352.219852 236.078182 
L 352.826579 36.841818 
L 352.913254 236.078182 
L 353.346631 36.841818 
L 353.433306 236.078182 
L 354.040033 36.841818 
L 354.126709 236.078182 
L 354.516747 36.841818 
L 354.603423 236.078182 
L 355.065691 36.841818 
L 355.152366 236.078182 
L 355.759093 36.841818 
L 355.845769 236.078182 
L 356.279145 36.841818 
L 356.36582 236.078182 
L 356.972547 36.841818 
L 357.059223 236.078182 
L 357.449262 36.841818 
L 357.535937 236.078182 
L 357.969313 36.841818 
L 358.055989 236.078182 
L 358.662716 36.841818 
L 358.749391 236.078182 
L 359.182767 36.841818 
L 359.269443 236.078182 
L 359.905062 36.841818 
L 359.991737 236.078182 
L 360.381776 36.841818 
L 360.468451 236.078182 
L 360.901827 36.841818 
L 360.988503 236.078182 
L 361.59523 36.841818 
L 361.681905 236.078182 
L 362.144173 36.841818 
L 362.230849 236.078182 
L 362.837576 36.841818 
L 362.924251 236.078182 
L 363.31429 36.841818 
L 363.400965 236.078182 
L 363.834342 36.841818 
L 363.921017 236.078182 
L 364.527744 36.841818 
L 364.614419 236.078182 
L 365.047796 36.841818 
L 365.134471 236.078182 
L 365.741198 36.841818 
L 365.827873 236.078182 
L 366.217912 36.841818 
L 366.304587 236.078182 
L 366.737964 36.841818 
L 366.824639 236.078182 
L 367.460258 36.841818 
L 367.546933 236.078182 
L 367.98031 36.841818 
L 368.066985 236.078182 
L 368.673712 36.841818 
L 368.760388 236.078182 
L 369.150426 36.841818 
L 369.237102 236.078182 
L 369.69937 36.841818 
L 369.786045 236.078182 
L 370.392772 36.841818 
L 370.479448 236.078182 
L 370.912824 36.841818 
L 370.999499 236.078182 
L 371.606226 36.841818 
L 371.692902 236.078182 
L 372.08294 36.841818 
L 372.169616 236.078182 
L 372.602992 36.841818 
L 372.689668 236.078182 
L 373.296395 36.841818 
L 373.38307 236.078182 
L 373.816446 36.841818 
L 373.903122 236.078182 
L 374.538741 36.841818 
L 374.625416 236.078182 
L 375.015455 36.841818 
L 375.10213 236.078182 
L 375.535506 36.841818 
L 375.622182 236.078182 
L 376.228909 36.841818 
L 376.315584 236.078182 
L 376.777852 36.841818 
L 376.864528 236.078182 
L 377.471255 36.841818 
L 377.55793 236.078182 
L 377.947969 36.841818 
L 378.034644 236.078182 
L 378.468021 36.841818 
L 378.554696 236.078182 
L 379.161423 36.841818 
L 379.248098 236.078182 
L 379.681475 36.841818 
L 379.76815 236.078182 
L 380.374877 36.841818 
L 380.461552 236.078182 
L 380.851591 36.841818 
L 380.938266 236.078182 
L 381.371643 36.841818 
L 381.458318 236.078182 
L 382.093937 36.841818 
L 382.180612 236.078182 
L 382.613989 36.841818 
L 382.700664 236.078182 
L 383.307391 36.841818 
L 383.394066 236.078182 
L 383.784105 36.841818 
L 383.870781 236.078182 
L 384.333049 36.841818 
L 384.419724 236.078182 
L 385.026451 36.841818 
L 385.113127 236.078182 
L 385.546503 36.841818 
L 385.633178 236.078182 
L 386.239905 36.841818 
L 386.326581 236.078182 
L 386.716619 36.841818 
L 386.803295 236.078182 
L 387.236671 36.841818 
L 387.323347 236.078182 
L 387.930074 36.841818 
L 388.016749 236.078182 
L 388.450125 36.841818 
L 388.536801 236.078182 
L 389.172419 36.841818 
L 389.259095 236.078182 
L 389.649134 36.841818 
L 389.735809 236.078182 
L 390.169185 36.841818 
L 390.255861 236.078182 
L 390.862588 36.841818 
L 390.949263 236.078182 
L 391.411531 36.841818 
L 391.498207 236.078182 
L 392.104934 36.841818 
L 392.191609 236.078182 
L 392.581648 36.841818 
L 392.668323 236.078182 
L 393.1017 36.841818 
L 393.188375 236.078182 
L 393.795102 36.841818 
L 393.881777 236.078182 
L 394.315154 36.841818 
L 394.401829 236.078182 
L 395.008556 36.841818 
L 395.095231 236.078182 
L 395.48527 36.841818 
L 395.571945 236.078182 
L 396.005322 36.841818 
L 396.091997 236.078182 
L 396.727616 36.841818 
L 396.814291 236.078182 
L 397.247668 36.841818 
L 397.334343 236.078182 
L 397.94107 36.841818 
L 398.027745 236.078182 
L 398.417784 36.841818 
L 398.50446 236.078182 
L 398.966728 36.841818 
L 399.053403 236.078182 
L 399.66013 36.841818 
L 399.746805 236.078182 
L 400.180182 36.841818 
L 400.266857 236.078182 
L 400.873584 36.841818 
L 400.96026 236.078182 
L 401.350298 36.841818 
L 401.436974 236.078182 
L 401.87035 36.841818 
L 401.957026 236.078182 
L 402.563753 36.841818 
L 402.650428 236.078182 
L 403.083804 36.841818 
L 403.17048 236.078182 
L 403.806098 36.841818 
L 403.892774 236.078182 
L 404.282813 36.841818 
L 404.369488 236.078182 
L 404.802864 36.841818 
L 404.88954 236.078182 
L 405.496267 36.841818 
L 405.582942 236.078182 
L 406.04521 36.841818 
L 406.131886 236.078182 
L 406.738613 36.841818 
L 406.825288 236.078182 
L 407.215327 36.841818 
L 407.302002 236.078182 
L 407.735379 36.841818 
L 407.822054 236.078182 
L 408.428781 36.841818 
L 408.515456 236.078182 
L 408.948833 36.841818 
L 409.035508 236.078182 
L 409.642235 36.841818 
L 409.72891 236.078182 
L 410.118949 36.841818 
L 410.205624 236.078182 
L 410.639001 36.841818 
L 410.725676 236.078182 
L 411.361295 36.841818 
L 411.44797 236.078182 
L 411.881347 36.841818 
L 411.968022 236.078182 
L 412.574749 36.841818 
L 412.661424 236.078182 
L 413.051463 36.841818 
L 413.138139 236.078182 
L 413.600407 36.841818 
L 413.687082 236.078182 
L 414.293809 36.841818 
L 414.380484 236.078182 
L 414.813861 36.841818 
L 414.900536 236.078182 
L 415.507263 36.841818 
L 415.593939 236.078182 
L 415.983977 36.841818 
L 416.070653 236.078182 
L 416.504029 36.841818 
L 416.590705 236.078182 
L 417.197432 36.841818 
L 417.284107 236.078182 
L 417.717483 36.841818 
L 417.804159 236.078182 
L 418.439777 36.841818 
L 418.526453 236.078182 
L 418.916492 36.841818 
L 419.003167 236.078182 
L 419.436543 36.841818 
L 419.523219 236.078182 
L 420.129946 36.841818 
L 420.216621 236.078182 
L 420.678889 36.841818 
L 420.765565 236.078182 
L 421.372292 36.841818 
L 421.458967 236.078182 
L 421.849006 36.841818 
L 421.935681 236.078182 
L 422.369058 36.841818 
L 422.455733 236.078182 
L 423.06246 36.841818 
L 423.149135 236.078182 
L 423.582512 36.841818 
L 423.669187 236.078182 
L 424.275914 36.841818 
L 424.362589 236.078182 
L 424.752628 36.841818 
L 424.839303 236.078182 
L 425.27268 36.841818 
L 425.359355 236.078182 
L 425.994974 36.841818 
L 426.081649 236.078182 
L 426.515026 36.841818 
L 426.601701 236.078182 
L 427.208428 36.841818 
L 427.295103 236.078182 
L 427.685142 36.841818 
L 427.771818 236.078182 
L 428.234086 36.841818 
L 428.320761 236.078182 
L 428.927488 36.841818 
L 429.014163 236.078182 
L 429.44754 36.841818 
L 429.534215 236.078182 
L 430.140942 36.841818 
L 430.227618 236.078182 
L 430.617656 36.841818 
L 430.704332 236.078182 
L 431.137708 36.841818 
L 431.224383 236.078182 
L 431.831111 36.841818 
L 431.917786 236.078182 
L 432.351162 36.841818 
L 432.437838 236.078182 
L 433.073456 36.841818 
L 433.160132 236.078182 
L 433.550171 36.841818 
L 433.636846 236.078182 
L 434.070222 36.841818 
L 434.156898 236.078182 
L 434.763625 36.841818 
L 434.8503 236.078182 
L 435.312568 36.841818 
L 435.399244 236.078182 
L 436.005971 36.841818 
L 436.092646 236.078182 
L 436.482685 36.841818 
L 436.56936 236.078182 
L 437.002736 36.841818 
L 437.089412 236.078182 
L 437.696139 36.841818 
L 437.782814 236.078182 
L 438.216191 36.841818 
L 438.302866 236.078182 
L 438.909593 36.841818 
L 438.996268 236.078182 
L 439.386307 36.841818 
L 439.472982 236.078182 
L 439.906359 36.841818 
L 439.993034 236.078182 
L 440.628653 36.841818 
L 440.715328 236.078182 
L 441.148705 36.841818 
L 441.23538 236.078182 
L 441.842107 36.841818 
L 441.928782 236.078182 
L 442.318821 36.841818 
L 442.405497 236.078182 
L 442.867765 36.841818 
L 442.95444 236.078182 
L 443.561167 36.841818 
L 443.647842 236.078182 
L 444.081219 36.841818 
L 444.167894 236.078182 
L 444.774621 36.841818 
L 444.861297 236.078182 
L 445.251335 36.841818 
L 445.338011 236.078182 
L 445.771387 36.841818 
L 445.858062 236.078182 
L 446.46479 36.841818 
L 446.551465 236.078182 
L 446.984841 36.841818 
L 447.071517 236.078182 
L 447.707135 36.841818 
L 447.793811 236.078182 
L 448.18385 36.841818 
L 448.270525 236.078182 
L 448.703901 36.841818 
L 448.790577 236.078182 
L 449.397304 36.841818 
L 449.483979 236.078182 
L 449.946247 36.841818 
L 450.032923 236.078182 
L 450.63965 36.841818 
L 450.726325 236.078182 
L 451.116364 36.841818 
L 451.203039 236.078182 
L 451.636415 36.841818 
L 451.723091 236.078182 
L 452.329818 36.841818 
L 452.416493 236.078182 
L 452.84987 36.841818 
L 452.936545 236.078182 
L 453.543272 36.841818 
L 453.629947 236.078182 
L 454.019986 36.841818 
L 454.106661 236.078182 
L 454.540038 36.841818 
L 454.626713 236.078182 
L 455.262332 36.841818 
L 455.349007 236.078182 
L 455.782384 36.841818 
L 455.869059 236.078182 
L 456.475786 36.841818 
L 456.562461 236.078182 
L 456.9525 36.841818 
L 457.039176 236.078182 
L 457.501444 36.841818 
L 457.588119 236.078182 
L 458.194846 36.841818 
L 458.281521 236.078182 
L 458.714898 36.841818 
L 458.801573 236.078182 
L 459.4083 36.841818 
L 459.494976 236.078182 
L 459.885014 36.841818 
L 459.97169 236.078182 
L 460.405066 36.841818 
L 460.491741 236.078182 
L 461.098469 36.841818 
L 461.185144 236.078182 
L 461.61852 36.841818 
L 461.705196 236.078182 
L 462.340814 36.841818 
L 462.42749 236.078182 
L 462.817529 36.841818 
L 462.904204 236.078182 
L 463.33758 36.841818 
L 463.424256 236.078182 
L 464.030983 36.841818 
L 464.117658 236.078182 
L 464.579926 36.841818 
L 464.666601 236.078182 
L 465.273329 36.841818 
L 465.360004 236.078182 
L 465.750043 36.841818 
L 465.836718 236.078182 
L 466.270094 36.841818 
L 466.35677 236.078182 
L 466.963497 36.841818 
L 467.050172 236.078182 
L 467.483549 36.841818 
L 467.570224 236.078182 
L 468.176951 36.841818 
L 468.263626 236.078182 
L 468.653665 36.841818 
L 468.74034 236.078182 
L 469.173717 36.841818 
L 469.260392 236.078182 
L 469.896011 36.841818 
L 469.982686 236.078182 
L 470.416063 36.841818 
L 470.502738 236.078182 
L 471.109465 36.841818 
L 471.19614 236.078182 
L 471.586179 36.841818 
L 471.672855 236.078182 
L 472.135123 36.841818 
L 472.221798 236.078182 
L 472.828525 36.841818 
L 472.9152 236.078182 
L 473.348577 36.841818 
L 473.435252 236.078182 
L 474.041979 36.841818 
L 474.128655 236.078182 
L 474.518693 36.841818 
L 474.605369 236.078182 
L 475.038745 36.841818 
L 475.12542 236.078182 
L 475.732148 36.841818 
L 475.818823 236.078182 
L 476.252199 36.841818 
L 476.338875 236.078182 
L 476.945602 36.841818 
L 477.032277 236.078182 
L 477.422316 36.841818 
L 477.508991 236.078182 
L 477.942368 36.841818 
L 478.029043 236.078182 
L 478.63577 36.841818 
L 478.722445 236.078182 
L 479.184713 36.841818 
L 479.271389 236.078182 
L 479.878116 36.841818 
L 479.964791 236.078182 
L 480.35483 36.841818 
L 480.441505 236.078182 
L 480.874882 36.841818 
L 480.961557 236.078182 
L 481.568284 36.841818 
L 481.654959 236.078182 
L 482.088336 36.841818 
L 482.175011 236.078182 
L 482.781738 36.841818 
L 482.868413 236.078182 
L 483.258452 36.841818 
L 483.345128 236.078182 
L 483.778504 36.841818 
L 483.865179 236.078182 
L 484.471906 36.841818 
L 484.558582 236.078182 
L 484.991958 36.841818 
L 485.078633 236.078182 
L 485.685361 36.841818 
L 485.772036 236.078182 
L 486.162075 36.841818 
L 486.24875 236.078182 
L 486.711018 36.841818 
L 486.797694 236.078182 
L 487.404421 36.841818 
L 487.491096 236.078182 
L 487.924472 36.841818 
L 488.011148 236.078182 
L 488.617875 36.841818 
L 488.70455 236.078182 
L 489.094589 36.841818 
L 489.181264 236.078182 
L 489.614641 36.841818 
L 489.701316 236.078182 
L 490.308043 36.841818 
L 490.394718 236.078182 
L 490.828095 36.841818 
L 490.91477 236.078182 
L 491.521497 36.841818 
L 491.608172 236.078182 
L 491.998211 36.841818 
L 492.084887 236.078182 
L 492.518263 36.841818 
L 492.604938 236.078182 
L 493.211665 36.841818 
L 493.298341 236.078182 
L 493.760609 36.841818 
L 493.847284 236.078182 
L 494.454011 36.841818 
L 494.540687 236.078182 
L 494.930725 36.841818 
L 495.017401 236.078182 
L 495.450777 36.841818 
L 495.537452 236.078182 
L 496.144179 36.841818 
L 496.230855 236.078182 
L 496.664231 36.841818 
L 496.750907 236.078182 
L 497.357634 36.841818 
L 497.444309 236.078182 
L 497.834348 36.841818 
L 497.921023 236.078182 
L 498.3544 36.841818 
L 498.441075 236.078182 
L 499.047802 36.841818 
L 499.134477 236.078182 
L 499.567854 36.841818 
L 499.654529 236.078182 
L 500.261256 36.841818 
L 500.347931 236.078182 
L 500.73797 36.841818 
L 500.824645 236.078182 
L 501.286914 36.841818 
L 501.373589 236.078182 
L 501.980316 36.841818 
L 502.066991 236.078182 
L 502.500368 36.841818 
L 502.587043 236.078182 
L 503.19377 36.841818 
L 503.280445 236.078182 
L 503.670484 36.841818 
L 503.75716 236.078182 
L 504.190536 36.841818 
L 504.277211 236.078182 
L 504.883938 36.841818 
L 504.970614 236.078182 
L 505.40399 36.841818 
L 505.490665 236.078182 
L 506.097393 36.841818 
L 506.184068 236.078182 
L 506.574107 36.841818 
L 506.660782 236.078182 
L 507.094158 36.841818 
L 507.180834 236.078182 
L 507.787561 36.841818 
L 507.874236 236.078182 
L 508.336504 36.841818 
L 508.42318 236.078182 
L 509.029907 36.841818 
L 509.116582 236.078182 
L 509.506621 36.841818 
L 509.593296 236.078182 
L 510.026673 36.841818 
L 510.113348 236.078182 
L 510.720075 36.841818 
L 510.80675 236.078182 
L 511.240127 36.841818 
L 511.326802 236.078182 
L 511.933529 36.841818 
L 512.020204 236.078182 
L 512.410243 36.841818 
L 512.496918 236.078182 
L 512.930295 36.841818 
L 513.01697 236.078182 
L 513.623697 36.841818 
L 513.710373 236.078182 
L 514.143749 36.841818 
L 514.230424 236.078182 
L 514.837151 36.841818 
L 514.923827 236.078182 
L 515.313866 36.841818 
L 515.400541 236.078182 
L 515.862809 36.841818 
L 515.949484 236.078182 
L 516.556211 36.841818 
L 516.642887 236.078182 
L 517.076263 36.841818 
L 517.162939 236.078182 
L 517.769666 36.841818 
L 517.856341 236.078182 
L 518.24638 36.841818 
L 518.333055 236.078182 
L 518.766432 36.841818 
L 518.853107 236.078182 
L 519.459834 36.841818 
L 519.546509 236.078182 
L 519.979886 36.841818 
L 520.066561 236.078182 
L 520.673288 36.841818 
L 520.759963 236.078182 
L 521.150002 36.841818 
L 521.236677 236.078182 
L 521.670054 36.841818 
L 521.756729 236.078182 
L 522.363456 36.841818 
L 522.450132 236.078182 
L 522.9124 36.841818 
L 522.999075 236.078182 
L 523.605802 36.841818 
L 523.692477 236.078182 
L 524.082516 36.841818 
L 524.169192 236.078182 
L 524.602568 36.841818 
L 524.689243 236.078182 
L 525.29597 36.841818 
L 525.382646 236.078182 
L 525.816022 36.841818 
L 525.902697 236.078182 
L 526.509425 36.841818 
L 526.5961 236.078182 
L 526.986139 36.841818 
L 527.072814 236.078182 
L 527.50619 36.841818 
L 527.592866 236.078182 
L 528.199593 36.841818 
L 528.286268 236.078182 
L 528.719645 36.841818 
L 528.80632 236.078182 
L 529.413047 36.841818 
L 529.499722 236.078182 
L 529.889761 36.841818 
L 529.976436 236.078182 
L 530.438705 36.841818 
L 530.52538 236.078182 
L 531.132107 36.841818 
L 531.218782 236.078182 
L 531.652159 36.841818 
L 531.738834 236.078182 
L 532.345561 36.841818 
L 532.432236 236.078182 
L 532.822275 36.841818 
L 532.90895 236.078182 
L 533.342327 36.841818 
L 533.429002 236.078182 
L 534.035729 36.841818 
L 534.122405 236.078182 
L 534.555781 36.841818 
L 534.642456 236.078182 
L 535.249183 36.841818 
L 535.335859 236.078182 
L 535.725898 36.841818 
L 535.812573 236.078182 
L 536.245949 36.841818 
L 536.332625 236.078182 
L 536.939352 36.841818 
L 537.026027 236.078182 
L 537.488295 36.841818 
L 537.574971 236.078182 
L 538.181698 36.841818 
L 538.268373 236.078182 
L 538.658412 36.841818 
L 538.745087 236.078182 
L 539.178463 36.841818 
L 539.265139 236.078182 
L 539.871866 36.841818 
L 539.958541 236.078182 
L 540.391918 36.841818 
L 540.478593 236.078182 
L 541.08532 36.841818 
L 541.171995 236.078182 
L 541.562034 36.841818 
L 541.648709 236.078182 
L 542.082086 36.841818 
L 542.168761 236.078182 
L 542.775488 36.841818 
L 542.862164 236.078182 
L 543.29554 36.841818 
L 543.382215 236.078182 
L 543.988942 36.841818 
L 544.075618 236.078182 
L 544.465656 36.841818 
L 544.552332 236.078182 
L 545.0146 36.841818 
L 545.101275 236.078182 
L 545.708002 36.841818 
L 545.794678 236.078182 
L 546.228054 36.841818 
L 546.314729 236.078182 
L 546.921457 36.841818 
L 547.008132 236.078182 
L 547.398171 36.841818 
L 547.484846 236.078182 
L 547.918222 36.841818 
L 548.004898 236.078182 
L 548.611625 36.841818 
L 548.6983 236.078182 
L 549.131677 36.841818 
L 549.218352 236.078182 
L 549.825079 36.841818 
L 549.911754 236.078182 
L 550.301793 36.841818 
L 550.388468 236.078182 
L 550.821845 36.841818 
L 550.90852 236.078182 
L 551.515247 36.841818 
L 551.601922 236.078182 
L 552.064191 36.841818 
L 552.150866 236.078182 
L 552.757593 36.841818 
L 552.844268 236.078182 
L 553.234307 36.841818 
L 553.320982 236.078182 
L 553.754359 36.841818 
L 553.841034 236.078182 
L 554.447761 36.841818 
L 554.534437 236.078182 
L 554.967813 36.841818 
L 555.054488 236.078182 
L 555.661215 36.841818 
L 555.747891 236.078182 
L 556.13793 36.841818 
L 556.224605 236.078182 
L 556.657981 36.841818 
L 556.744657 236.078182 
L 557.351384 36.841818 
L 557.438059 236.078182 
L 557.871435 36.841818 
L 557.958111 236.078182 
L 558.564838 36.841818 
L 558.651513 236.078182 
L 559.041552 36.841818 
L 559.128227 236.078182 
L 559.590495 36.841818 
L 559.677171 236.078182 
L 560.283898 36.841818 
L 560.370573 236.078182 
L 560.80395 36.841818 
L 560.890625 236.078182 
L 561.497352 36.841818 
L 561.584027 236.078182 
L 561.974066 36.841818 
L 562.060741 236.078182 
L 562.494118 36.841818 
L 562.580793 236.078182 
L 563.18752 36.841818 
L 563.274196 236.078182 
L 563.707572 36.841818 
L 563.794247 236.078182 
L 564.400974 36.841818 
L 564.48765 236.078182 
L 564.877688 36.841818 
L 564.964364 236.078182 
L 565.39774 36.841818 
L 565.484416 236.078182 
L 566.091143 36.841818 
L 566.177818 236.078182 
L 566.640086 36.841818 
L 566.726761 236.078182 
L 567.333489 36.841818 
L 567.420164 236.078182 
L 567.810203 36.841818 
L 567.896878 236.078182 
L 568.330254 36.841818 
L 568.41693 236.078182 
L 569.023657 36.841818 
L 569.110332 236.078182 
L 569.543709 36.841818 
L 569.630384 236.078182 
L 570.237111 36.841818 
L 570.323786 236.078182 
L 570.713825 36.841818 
L 570.8005 236.078182 
L 571.233877 36.841818 
L 571.320552 236.078182 
L 571.927279 36.841818 
L 572.013954 236.078182 
L 572.447331 36.841818 
L 572.534006 236.078182 
L 573.140733 36.841818 
L 573.227409 236.078182 
L 573.617447 36.841818 
L 573.704123 236.078182 
L 574.166391 36.841818 
L 574.253066 236.078182 
L 574.859793 36.841818 
L 574.946469 236.078182 
L 575.379845 36.841818 
L 575.46652 236.078182 
L 576.073247 36.841818 
L 576.159923 236.078182 
L 576.549962 36.841818 
L 576.636637 236.078182 
L 577.070013 36.841818 
L 577.156689 236.078182 
L 577.763416 36.841818 
L 577.850091 236.078182 
L 578.283467 36.841818 
L 578.370143 236.078182 
L 578.97687 36.841818 
L 579.063545 236.078182 
L 579.453584 36.841818 
L 579.540259 236.078182 
L 579.973636 36.841818 
L 580.060311 236.078182 
L 580.667038 36.841818 
L 580.753713 236.078182 
L 581.215982 36.841818 
L 581.302657 236.078182 
L 581.909384 36.841818 
L 581.996059 236.078182 
L 582.386098 36.841818 
L 582.472773 236.078182 
L 582.90615 36.841818 
L 582.992825 236.078182 
L 583.599552 36.841818 
L 583.686228 236.078182 
L 584.119604 36.841818 
L 584.206279 236.078182 
L 584.813006 36.841818 
L 584.899682 236.078182 
L 585.28972 36.841818 
L 585.376396 236.078182 
L 585.809772 36.841818 
L 585.896448 236.078182 
L 586.503175 36.841818 
L 586.58985 236.078182 
L 587.023226 36.841818 
L 587.109902 236.078182 
L 587.716629 36.841818 
L 587.803304 236.078182 
L 588.193343 36.841818 
L 588.280018 236.078182 
L 588.742286 36.841818 
L 588.828962 236.078182 
L 589.435689 36.841818 
L 589.522364 236.078182 
L 589.955741 36.841818 
L 590.042416 236.078182 
L 590.649143 36.841818 
L 590.735818 236.078182 
L 591.125857 36.841818 
L 591.212532 236.078182 
L 591.645909 36.841818 
L 591.732584 236.078182 
L 592.339311 36.841818 
L 592.425986 236.078182 
L 592.859363 36.841818 
L 592.946038 236.078182 
L 593.552765 36.841818 
L 593.639441 236.078182 
L 594.029479 36.841818 
L 594.116155 236.078182 
L 594.549531 36.841818 
L 594.636206 236.078182 
L 595.242934 36.841818 
L 595.329609 236.078182 
L 595.791877 36.841818 
L 595.878552 236.078182 
L 596.485279 36.841818 
L 596.571955 236.078182 
L 596.961994 36.841818 
L 597.048669 236.078182 
L 597.482045 36.841818 
L 597.568721 236.078182 
L 598.175448 36.841818 
L 598.262123 236.078182 
L 598.695499 36.841818 
L 598.782175 236.078182 
L 599.388902 36.841818 
L 599.475577 236.078182 
L 599.865616 36.841818 
L 599.952291 236.078182 
L 600.385668 36.841818 
L 600.472343 236.078182 
L 601.07907 36.841818 
L 601.165745 236.078182 
L 601.599122 36.841818 
L 601.685797 236.078182 
L 602.292524 36.841818 
L 602.379199 236.078182 
L 602.769238 36.841818 
L 602.855914 236.078182 
L 603.318182 36.841818 
L 603.404857 236.078182 
L 604.011584 36.841818 
L 604.098259 236.078182 
L 604.531636 36.841818 
L 604.618311 236.078182 
L 605.225038 36.841818 
L 605.311714 236.078182 
L 605.701752 36.841818 
L 605.788428 236.078182 
L 606.221804 36.841818 
L 606.30848 236.078182 
L 606.915207 36.841818 
L 607.001882 236.078182 
L 607.435258 36.841818 
L 607.521934 236.078182 
L 608.128661 36.841818 
L 608.215336 236.078182 
L 608.605375 36.841818 
L 608.69205 236.078182 
L 609.125427 36.841818 
L 609.212102 236.078182 
L 609.818829 36.841818 
L 609.905504 236.078182 
L 610.338881 36.841818 
L 610.425556 236.078182 
L 611.003391 36.841818 
L 611.090067 236.078182 
L 611.508997 36.841818 
L 611.595673 236.078182 
L 612.216845 36.841818 
L 612.303521 236.078182 
L 612.881356 36.841818 
L 612.968031 236.078182 
L 613.415854 36.841818 
L 613.502529 236.078182 
L 614.297053 36.841818 
L 614.383728 236.078182 
L 614.788213 36.841818 
L 614.874888 236.078182 
L 615.524953 102.282445 
L 615.611628 236.078182 
L 615.987221 170.729245 
L 616.073896 236.078182 
L 616.680623 36.841818 
L 616.767298 236.078182 
L 617.215121 36.841818 
L 617.301796 236.078182 
L 617.951861 36.841818 
L 618.038536 236.078182 
L 618.616371 36.841818 
L 618.703047 236.078182 
L 619.136423 36.841818 
L 619.223098 236.078182 
L 619.844271 36.841818 
L 619.930947 236.078182 
L 620.55212 36.841818 
L 620.638795 236.078182 
L 621.476656 103.430623 
L 621.577777 236.078182 
L 621.678899 235.300802 
L 621.765574 236.078182 
L 622.285626 234.907973 
L 622.386747 236.078182 
L 622.487868 235.699459 
L 622.574543 236.078182 
L 623.152379 234.589048 
L 623.2535 236.078182 
L 623.354621 234.862281 
L 623.441296 236.078182 
L 623.961348 174.975191 
L 624.048023 236.078182 
L 624.438062 36.841818 
L 624.524737 236.078182 
L 624.958114 36.841818 
L 625.044789 236.078182 
L 625.651516 36.841818 
L 625.738191 236.078182 
L 626.171568 36.841818 
L 626.258243 236.078182 
L 626.86497 36.841818 
L 626.951646 236.078182 
L 627.341684 36.841818 
L 627.42836 236.078182 
L 627.861736 36.841818 
L 627.948412 236.078182 
L 628.555139 36.841818 
L 628.641814 236.078182 
L 629.104082 36.841818 
L 629.190757 236.078182 
L 629.797484 36.841818 
L 629.88416 236.078182 
L 630.274199 36.841818 
L 630.360874 236.078182 
L 630.79425 36.841818 
L 630.880926 236.078182 
L 631.487653 36.841818 
L 631.574328 236.078182 
L 632.007705 36.841818 
L 632.09438 236.078182 
L 632.701107 36.841818 
L 632.787782 236.078182 
L 633.177821 36.841818 
L 633.264496 236.078182 
L 633.697873 36.841818 
L 633.784548 236.078182 
L 634.391275 36.841818 
L 634.47795 236.078182 
L 634.911327 36.841818 
L 634.998002 236.078182 
L 635.604729 36.841818 
L 635.691405 236.078182 
L 636.081443 36.841818 
L 636.168119 236.078182 
L 636.630387 36.841818 
L 636.717062 236.078182 
L 637.323789 36.841818 
L 637.410465 236.078182 
L 637.843841 36.841818 
L 637.930516 236.078182 
L 638.537243 36.841818 
L 638.623919 236.078182 
L 639.013958 36.841818 
L 639.100633 236.078182 
L 639.534009 36.841818 
L 639.620685 236.078182 
L 640.227412 36.841818 
L 640.314087 236.078182 
L 640.747463 36.841818 
L 640.834139 236.078182 
L 641.440866 36.841818 
L 641.527541 236.078182 
L 641.91758 36.841818 
L 642.004255 236.078182 
L 642.437632 36.841818 
L 642.524307 236.078182 
L 643.131034 36.841818 
L 643.217709 236.078182 
L 643.679978 36.841818 
L 643.766653 236.078182 
L 644.37338 36.841818 
L 644.460055 236.078182 
L 644.850094 36.841818 
L 644.936769 236.078182 
L 645.370146 36.841818 
L 645.456821 236.078182 
L 646.063548 36.841818 
L 646.150223 236.078182 
L 646.5836 36.841818 
L 646.670275 236.078182 
L 647.277002 36.841818 
L 647.363678 236.078182 
L 647.753716 36.841818 
L 647.840392 236.078182 
L 648.273768 36.841818 
L 648.360444 236.078182 
L 648.967171 36.841818 
L 649.053846 236.078182 
L 649.487222 36.841818 
L 649.573898 236.078182 
L 650.180625 36.841818 
L 650.2673 236.078182 
L 650.657339 36.841818 
L 650.744014 236.078182 
L 651.206282 36.841818 
L 651.292958 236.078182 
L 651.899685 36.841818 
L 651.98636 236.078182 
L 652.419736 36.841818 
L 652.506412 236.078182 
L 653.113139 36.841818 
L 653.199814 236.078182 
L 653.589853 36.841818 
L 653.676528 236.078182 
L 654.109905 36.841818 
L 654.19658 236.078182 
L 654.803307 36.841818 
L 654.889982 236.078182 
L 655.323359 36.841818 
L 655.410034 236.078182 
L 656.016761 36.841818 
L 656.103437 236.078182 
L 656.493475 36.841818 
L 656.580151 236.078182 
L 657.013527 36.841818 
L 657.100202 236.078182 
L 657.706929 36.841818 
L 657.793605 236.078182 
L 658.255873 36.841818 
L 658.342548 236.078182 
L 658.949275 36.841818 
L 659.035951 236.078182 
L 659.42599 36.841818 
L 659.512665 236.078182 
L 659.946041 36.841818 
L 660.032717 236.078182 
L 660.639444 36.841818 
L 660.726119 236.078182 
L 661.159495 36.841818 
L 661.246171 236.078182 
L 661.852898 36.841818 
L 661.939573 236.078182 
L 662.329612 36.841818 
L 662.416287 236.078182 
L 662.849664 36.841818 
L 662.936339 236.078182 
L 663.543066 36.841818 
L 663.629741 236.078182 
L 664.063118 36.841818 
L 664.149793 236.078182 
L 664.75652 36.841818 
L 664.843195 236.078182 
L 665.233234 36.841818 
L 665.31991 236.078182 
L 665.782178 36.841818 
L 665.868853 236.078182 
L 666.47558 36.841818 
L 666.562255 236.078182 
L 666.995632 36.841818 
L 667.082307 236.078182 
L 667.689034 36.841818 
L 667.77571 236.078182 
L 668.165748 36.841818 
L 668.252424 236.078182 
L 668.6858 36.841818 
L 668.772475 236.078182 
L 669.379203 36.841818 
L 669.465878 236.078182 
L 669.899254 36.841818 
L 669.98593 236.078182 
L 670.592657 36.841818 
L 670.679332 236.078182 
L 671.069371 36.841818 
L 671.156046 236.078182 
L 671.589423 36.841818 
L 671.676098 236.078182 
L 672.282825 36.841818 
L 672.3695 236.078182 
L 672.831768 36.841818 
L 672.918444 236.078182 
L 673.525171 36.841818 
L 673.611846 236.078182 
L 674.001885 36.841818 
L 674.08856 236.078182 
L 674.521937 36.841818 
L 674.608612 236.078182 
L 675.215339 36.841818 
L 675.302014 236.078182 
L 675.735391 36.841818 
L 675.822066 236.078182 
L 676.428793 36.841818 
L 676.515469 236.078182 
L 676.905507 36.841818 
L 676.992183 236.078182 
L 677.425559 36.841818 
L 677.512234 236.078182 
L 678.118961 36.841818 
L 678.205637 236.078182 
L 678.639013 36.841818 
L 678.725689 236.078182 
L 679.332416 36.841818 
L 679.419091 236.078182 
L 679.419091 236.078182 
" clip-path="url(#pfa3c4140df)" style="fill: none; stroke: #1f77b4; stroke-width: 1.5; stroke-linecap: square"/>
   </g>
   <g id="patch_3">
    <path d="M 54.02 246.04 
L 54.02 26.88 
" style="fill: none; stroke: #000000; stroke-width: 0.8; stroke-linejoin: miter; stroke-linecap: square"/>
   </g>
   <g id="patch_4">
    <path d="M 709.2 246.04 
L 709.2 26.88 
" style="fill: none; stroke: #000000; stroke-width: 0.8; stroke-linejoin: miter; stroke-linecap: square"/>
   </g>
   <g id="patch_5">
    <path d="M 54.02 246.04 
L 709.2 246.04 
" style="fill: none; stroke: #000000; stroke-width: 0.8; stroke-linejoin: miter; stroke-linecap: square"/>
   </g>
   <g id="patch_6">
    <path d="M 54.02 26.88 
L 709.2 26.88 
" style="fill: none; stroke: #000000; stroke-width: 0.8; stroke-linejoin: miter; stroke-linecap: square"/>
   </g>
   <g id="text_14">
    <!-- transmissionState:vector (HandoverShowcase.ap1.wlan[0].radio) -->
    <g transform="translate(185.726875 20.88) scale(0.12 -0.12)">
     <defs>
      <path id="DejaVuSans-72" d="M 2631 2963 
Q 2534 3019 2420 3045 
Q 2306 3072 2169 3072 
Q 1681 3072 1420 2755 
Q 1159 2438 1159 1844 
L 1159 0 
L 581 0 
L 581 3500 
L 1159 3500 
L 1159 2956 
Q 1341 3275 1631 3429 
Q 1922 3584 2338 3584 
Q 2397 3584 2469 3576 
Q 2541 3569 2628 3553 
L 2631 2963 
z
" transform="scale(0.015625)"/>
      <path id="DejaVuSans-6e" d="M 3513 2113 
L 3513 0 
L 2938 0 
L 2938 2094 
Q 2938 2591 2744 2837 
Q 2550 3084 2163 3084 
Q 1697 3084 1428 2787 
Q 1159 2491 1159 1978 
L 1159 0 
L 581 0 
L 581 3500 
L 1159 3500 
L 1159 2956 
Q 1366 3272 1645 3428 
Q 1925 3584 2291 3584 
Q 2894 3584 3203 3211 
Q 3513 2838 3513 2113 
z
" transform="scale(0.015625)"/>
      <path id="DejaVuSans-6f" d="M 1959 3097 
Q 1497 3097 1228 2736 
Q 959 2375 959 1747 
Q 959 1119 1226 758 
Q 1494 397 1959 397 
Q 2419 397 2687 759 
Q 2956 1122 2956 1747 
Q 2956 2369 2687 2733 
Q 2419 3097 1959 3097 
z
M 1959 3584 
Q 2709 3584 3137 3096 
Q 3566 2609 3566 1747 
Q 3566 888 3137 398 
Q 2709 -91 1959 -91 
Q 1206 -91 779 398 
Q 353 888 353 1747 
Q 353 2609 779 3096 
Q 1206 3584 1959 3584 
z
" transform="scale(0.015625)"/>
      <path id="DejaVuSans-53" d="M 3425 4513 
L 3425 3897 
Q 3066 4069 2747 4153 
Q 2428 4238 2131 4238 
Q 1616 4238 1336 4038 
Q 1056 3838 1056 3469 
Q 1056 3159 1242 3001 
Q 1428 2844 1947 2747 
L 2328 2669 
Q 3034 2534 3370 2195 
Q 3706 1856 3706 1288 
Q 3706 609 3251 259 
Q 2797 -91 1919 -91 
Q 1588 -91 1214 -16 
Q 841 59 441 206 
L 441 856 
Q 825 641 1194 531 
Q 1563 422 1919 422 
Q 2459 422 2753 634 
Q 3047 847 3047 1241 
Q 3047 1584 2836 1778 
Q 2625 1972 2144 2069 
L 1759 2144 
Q 1053 2284 737 2584 
Q 422 2884 422 3419 
Q 422 4038 858 4394 
Q 1294 4750 2059 4750 
Q 2388 4750 2728 4690 
Q 3069 4631 3425 4513 
z
" transform="scale(0.015625)"/>
      <path id="DejaVuSans-3a" d="M 750 794 
L 1409 794 
L 1409 0 
L 750 0 
L 750 794 
z
M 750 3309 
L 1409 3309 
L 1409 2516 
L 750 2516 
L 750 3309 
z
" transform="scale(0.015625)"/>
      <path id="DejaVuSans-76" d="M 191 3500 
L 800 3500 
L 1894 563 
L 2988 3500 
L 3597 3500 
L 2284 0 
L 1503 0 
L 191 3500 
z
" transform="scale(0.015625)"/>
      <path id="DejaVuSans-63" d="M 3122 3366 
L 3122 2828 
Q 2878 2963 2633 3030 
Q 2388 3097 2138 3097 
Q 1578 3097 1268 2742 
Q 959 2388 959 1747 
Q 959 1106 1268 751 
Q 1578 397 2138 397 
Q 2388 397 2633 464 
Q 2878 531 3122 666 
L 3122 134 
Q 2881 22 2623 -34 
Q 2366 -91 2075 -91 
Q 1284 -91 818 406 
Q 353 903 353 1747 
Q 353 2603 823 3093 
Q 1294 3584 2113 3584 
Q 2378 3584 2631 3529 
Q 2884 3475 3122 3366 
z
" transform="scale(0.015625)"/>
      <path id="DejaVuSans-48" d="M 628 4666 
L 1259 4666 
L 1259 2753 
L 3553 2753 
L 3553 4666 
L 4184 4666 
L 4184 0 
L 3553 0 
L 3553 2222 
L 1259 2222 
L 1259 0 
L 628 0 
L 628 4666 
z
" transform="scale(0.015625)"/>
      <path id="DejaVuSans-64" d="M 2906 2969 
L 2906 4863 
L 3481 4863 
L 3481 0 
L 2906 0 
L 2906 525 
Q 2725 213 2448 61 
Q 2172 -91 1784 -91 
Q 1150 -91 751 415 
Q 353 922 353 1747 
Q 353 2572 751 3078 
Q 1150 3584 1784 3584 
Q 2172 3584 2448 3432 
Q 2725 3281 2906 2969 
z
M 947 1747 
Q 947 1113 1208 752 
Q 1469 391 1925 391 
Q 2381 391 2643 752 
Q 2906 1113 2906 1747 
Q 2906 2381 2643 2742 
Q 2381 3103 1925 3103 
Q 1469 3103 1208 2742 
Q 947 2381 947 1747 
z
" transform="scale(0.015625)"/>
      <path id="DejaVuSans-68" d="M 3513 2113 
L 3513 0 
L 2938 0 
L 2938 2094 
Q 2938 2591 2744 2837 
Q 2550 3084 2163 3084 
Q 1697 3084 1428 2787 
Q 1159 2491 1159 1978 
L 1159 0 
L 581 0 
L 581 4863 
L 1159 4863 
L 1159 2956 
Q 1366 3272 1645 3428 
Q 1925 3584 2291 3584 
Q 2894 3584 3203 3211 
Q 3513 2838 3513 2113 
z
" transform="scale(0.015625)"/>
      <path id="DejaVuSans-77" d="M 269 3500 
L 844 3500 
L 1563 769 
L 2278 3500 
L 2956 3500 
L 3675 769 
L 4391 3500 
L 4966 3500 
L 4050 0 
L 3372 0 
L 2619 2869 
L 1863 0 
L 1184 0 
L 269 3500 
z
" transform="scale(0.015625)"/>
      <path id="DejaVuSans-70" d="M 1159 525 
L 1159 -1331 
L 581 -1331 
L 581 3500 
L 1159 3500 
L 1159 2969 
Q 1341 3281 1617 3432 
Q 1894 3584 2278 3584 
Q 2916 3584 3314 3078 
Q 3713 2572 3713 1747 
Q 3713 922 3314 415 
Q 2916 -91 2278 -91 
Q 1894 -91 1617 61 
Q 1341 213 1159 525 
z
M 3116 1747 
Q 3116 2381 2855 2742 
Q 2594 3103 2138 3103 
Q 1681 3103 1420 2742 
Q 1159 2381 1159 1747 
Q 1159 1113 1420 752 
Q 1681 391 2138 391 
Q 2594 391 2855 752 
Q 3116 1113 3116 1747 
z
" transform="scale(0.015625)"/>
      <path id="DejaVuSans-5b" d="M 550 4863 
L 1875 4863 
L 1875 4416 
L 1125 4416 
L 1125 -397 
L 1875 -397 
L 1875 -844 
L 550 -844 
L 550 4863 
z
" transform="scale(0.015625)"/>
      <path id="DejaVuSans-5d" d="M 1947 4863 
L 1947 -844 
L 622 -844 
L 622 -397 
L 1369 -397 
L 1369 4416 
L 622 4416 
L 622 4863 
L 1947 4863 
z
" transform="scale(0.015625)"/>
     </defs>
     <use xlink:href="#DejaVuSans-74"/>
     <use xlink:href="#DejaVuSans-72" x="39.208984"/>
     <use xlink:href="#DejaVuSans-61" x="80.322266"/>
     <use xlink:href="#DejaVuSans-6e" x="141.601562"/>
     <use xlink:href="#DejaVuSans-73" x="204.980469"/>
     <use xlink:href="#DejaVuSans-6d" x="257.080078"/>
     <use xlink:href="#DejaVuSans-69" x="354.492188"/>
     <use xlink:href="#DejaVuSans-73" x="382.275391"/>
     <use xlink:href="#DejaVuSans-73" x="434.375"/>
     <use xlink:href="#DejaVuSans-69" x="486.474609"/>
     <use xlink:href="#DejaVuSans-6f" x="514.257812"/>
     <use xlink:href="#DejaVuSans-6e" x="575.439453"/>
     <use xlink:href="#DejaVuSans-53" x="638.818359"/>
     <use xlink:href="#DejaVuSans-74" x="702.294922"/>
     <use xlink:href="#DejaVuSans-61" x="741.503906"/>
     <use xlink:href="#DejaVuSans-74" x="802.783203"/>
     <use xlink:href="#DejaVuSans-65" x="841.992188"/>
     <use xlink:href="#DejaVuSans-3a" x="903.515625"/>
     <use xlink:href="#DejaVuSans-76" x="937.207031"/>
     <use xlink:href="#DejaVuSans-65" x="996.386719"/>
     <use xlink:href="#DejaVuSans-63" x="1057.910156"/>
     <use xlink:href="#DejaVuSans-74" x="1112.890625"/>
     <use xlink:href="#DejaVuSans-6f" x="1152.099609"/>
     <use xlink:href="#DejaVuSans-72" x="1213.28125"/>
     <use xlink:href="#DejaVuSans-20" x="1254.394531"/>
     <use xlink:href="#DejaVuSans-28" x="1286.181641"/>
     <use xlink:href="#DejaVuSans-48" x="1325.195312"/>
     <use xlink:href="#DejaVuSans-61" x="1400.390625"/>
     <use xlink:href="#DejaVuSans-6e" x="1461.669922"/>
     <use xlink:href="#DejaVuSans-64" x="1525.048828"/>
     <use xlink:href="#DejaVuSans-6f" x="1588.525391"/>
     <use xlink:href="#DejaVuSans-76" x="1649.707031"/>
     <use xlink:href="#DejaVuSans-65" x="1708.886719"/>
     <use xlink:href="#DejaVuSans-72" x="1770.410156"/>
     <use xlink:href="#DejaVuSans-53" x="1811.523438"/>
     <use xlink:href="#DejaVuSans-68" x="1875"/>
     <use xlink:href="#DejaVuSans-6f" x="1938.378906"/>
     <use xlink:href="#DejaVuSans-77" x="1999.560547"/>
     <use xlink:href="#DejaVuSans-63" x="2081.347656"/>
     <use xlink:href="#DejaVuSans-61" x="2136.328125"/>
     <use xlink:href="#DejaVuSans-73" x="2197.607422"/>
     <use xlink:href="#DejaVuSans-65" x="2249.707031"/>
     <use xlink:href="#DejaVuSans-2e" x="2311.230469"/>
     <use xlink:href="#DejaVuSans-61" x="2343.017578"/>
     <use xlink:href="#DejaVuSans-70" x="2404.296875"/>
     <use xlink:href="#DejaVuSans-31" x="2467.773438"/>
     <use xlink:href="#DejaVuSans-2e" x="2531.396484"/>
     <use xlink:href="#DejaVuSans-77" x="2563.183594"/>
     <use xlink:href="#DejaVuSans-6c" x="2644.970703"/>
     <use xlink:href="#DejaVuSans-61" x="2672.753906"/>
     <use xlink:href="#DejaVuSans-6e" x="2734.033203"/>
     <use xlink:href="#DejaVuSans-5b" x="2797.412109"/>
     <use xlink:href="#DejaVuSans-30" x="2836.425781"/>
     <use xlink:href="#DejaVuSans-5d" x="2900.048828"/>
     <use xlink:href="#DejaVuSans-2e" x="2939.0625"/>
     <use xlink:href="#DejaVuSans-72" x="2970.849609"/>
     <use xlink:href="#DejaVuSans-61" x="3011.962891"/>
     <use xlink:href="#DejaVuSans-64" x="3073.242188"/>
     <use xlink:href="#DejaVuSans-69" x="3136.71875"/>
     <use xlink:href="#DejaVuSans-6f" x="3164.501953"/>
     <use xlink:href="#DejaVuSans-29" x="3225.683594"/>
    </g>
   </g>
   <g id="legend_1">
    <g id="patch_7">
     <path d="M 576.717188 145.299062 
L 702.2 145.299062 
Q 704.2 145.299062 704.2 143.299062 
L 704.2 129.620937 
Q 704.2 127.620937 702.2 127.620937 
L 576.717188 127.620937 
Q 574.717188 127.620937 574.717188 129.620937 
L 574.717188 143.299062 
Q 574.717188 145.299062 576.717188 145.299062 
z
" style="fill: #ffffff; opacity: 0.8; stroke: #cccccc; stroke-linejoin: miter"/>
    </g>
    <g id="line2d_24">
     <path d="M 578.717188 135.719375 
L 588.717188 135.719375 
L 598.717188 135.719375 
" style="fill: none; stroke: #1f77b4; stroke-width: 1.5; stroke-linecap: square"/>
    </g>
    <g id="text_15">
     <!-- value per sample -->
     <g transform="translate(606.717188 139.219375) scale(0.1 -0.1)">
      <defs>
       <path id="DejaVuSans-394" d="M 2188 4044 
L 906 525 
L 3472 525 
L 2188 4044 
z
M 50 0 
L 1831 4666 
L 2547 4666 
L 4325 0 
L 50 0 
z
" transform="scale(0.015625)"/>
      </defs>
      <use xlink:href="#DejaVuSans-394"/>
      <use xlink:href="#DejaVuSans-76" x="68.408203"/>
      <use xlink:href="#DejaVuSans-61" x="127.587891"/>
      <use xlink:href="#DejaVuSans-6c" x="188.867188"/>
      <use xlink:href="#DejaVuSans-75" x="216.650391"/>
      <use xlink:href="#DejaVuSans-65" x="280.029297"/>
      <use xlink:href="#DejaVuSans-20" x="341.552734"/>
      <use xlink:href="#DejaVuSans-70" x="373.339844"/>
      <use xlink:href="#DejaVuSans-65" x="436.816406"/>
      <use xlink:href="#DejaVuSans-72" x="498.339844"/>
      <use xlink:href="#DejaVuSans-20" x="539.453125"/>
      <use xlink:href="#DejaVuSans-73" x="571.240234"/>
      <use xlink:href="#DejaVuSans-61" x="623.339844"/>
      <use xlink:href="#DejaVuSans-6d" x="684.619141"/>
      <use xlink:href="#DejaVuSans-70" x="782.03125"/>
      <use xlink:href="#DejaVuSans-6c" x="845.507812"/>
      <use xlink:href="#DejaVuSans-65" x="873.291016"/>
     </g>
    </g>
   </g>
  </g>
 </g>
 <defs>
  <clipPath id="pfa3c4140df">
   <rect x="54.02" y="26.88" width="655.18" height="219.16"/>
  </clipPath>
 </defs>
</svg>
