<?xml version="1.0" encoding="utf-8" standalone="no"?>
<!DOCTYPE svg PUBLIC "-//W3C//DTD SVG 1.1//EN"
  "http://www.w3.org/Graphics/SVG/1.1/DTD/svg11.dtd">
<svg xmlns:xlink="http://www.w3.org/1999/xlink" width="720pt" height="288pt" viewBox="0 0 720 288" xmlns="http://www.w3.org/2000/svg" version="1.1">
 <metadata>
  <rdf:RDF xmlns:dc="http://purl.org/dc/elements/1.1/" xmlns:cc="http://creativecommons.org/ns#" xmlns:rdf="http://www.w3.org/1999/02/22-rdf-syntax-ns#">
   <cc:Work>
    <dc:type rdf:resource="http://purl.org/dc/dcmitype/StillImage"/>
    <dc:date>2025-07-27T15:08:50.533128</dc:date>
    <dc:format>image/svg+xml</dc:format>
    <dc:creator>
     <cc:Agent>
      <dc:title>Matplotlib v3.9.2, https://matplotlib.org/</dc:title>
     </cc:Agent>
    </dc:creator>
   </cc:Work>
  </rdf:RDF>
 </metadata>
 <defs>
  <style type="text/css">*{stroke-linejoin: round; stroke-linecap: butt}</style>
 </defs>
 <g id="figure_1">
  <g id="patch_1">
   <path d="M 0 288 
L 720 288 
L 720 0 
L 0 0 
z
" style="fill: #ffffff"/>
  </g>
  <g id="axes_1">
   <g id="patch_2">
    <path d="M 56.09 246.04 
L 709.2 246.04 
L 709.2 37.8 
L 56.09 37.8 
z
" style="fill: #ffffff"/>
   </g>
   <g id="matplotlib.axis_1">
    <g id="xtick_1">
     <g id="line2d_1">
      <path d="M 85.272137 246.04 
L 85.272137 37.8 
" clip-path="url(#pd9b949a52e)" style="fill: none; stroke: #b0b0b0; stroke-width: 0.8; stroke-linecap: square"/>
     </g>
     <g id="line2d_2">
      <defs>
       <path id="m576a3f7c3d" d="M 0 0 
L 0 3.5 
" style="stroke: #000000; stroke-width: 0.8"/>
      </defs>
      <g>
       <use xlink:href="#m576a3f7c3d" x="85.272137" y="246.04" style="stroke: #000000; stroke-width: 0.8"/>
      </g>
     </g>
     <g id="text_1">
      <!-- 0 -->
      <g transform="translate(82.090887 260.638438) scale(0.1 -0.1)">
       <defs>
        <path id="DejaVuSans-30" d="M 2034 4250 
Q 1547 4250 1301 3770 
Q 1056 3291 1056 2328 
Q 1056 1369 1301 889 
Q 1547 409 2034 409 
Q 2525 409 2770 889 
Q 3016 1369 3016 2328 
Q 3016 3291 2770 3770 
Q 2525 4250 2034 4250 
z
M 2034 4750 
Q 2819 4750 3233 4129 
Q 3647 3509 3647 2328 
Q 3647 1150 3233 529 
Q 2819 -91 2034 -91 
Q 1250 -91 836 529 
Q 422 1150 422 2328 
Q 422 3509 836 4129 
Q 1250 4750 2034 4750 
z
" transform="scale(0.015625)"/>
       </defs>
       <use xlink:href="#DejaVuSans-30"/>
      </g>
     </g>
    </g>
    <g id="xtick_2">
     <g id="line2d_3">
      <path d="M 229.466901 246.04 
L 229.466901 37.8 
" clip-path="url(#pd9b949a52e)" style="fill: none; stroke: #b0b0b0; stroke-width: 0.8; stroke-linecap: square"/>
     </g>
     <g id="line2d_4">
      <g>
       <use xlink:href="#m576a3f7c3d" x="229.466901" y="246.04" style="stroke: #000000; stroke-width: 0.8"/>
      </g>
     </g>
     <g id="text_2">
      <!-- 10000 -->
      <g transform="translate(213.560651 260.638438) scale(0.1 -0.1)">
       <defs>
        <path id="DejaVuSans-31" d="M 794 531 
L 1825 531 
L 1825 4091 
L 703 3866 
L 703 4441 
L 1819 4666 
L 2450 4666 
L 2450 531 
L 3481 531 
L 3481 0 
L 794 0 
L 794 531 
z
" transform="scale(0.015625)"/>
       </defs>
       <use xlink:href="#DejaVuSans-31"/>
       <use xlink:href="#DejaVuSans-30" x="63.623047"/>
       <use xlink:href="#DejaVuSans-30" x="127.246094"/>
       <use xlink:href="#DejaVuSans-30" x="190.869141"/>
       <use xlink:href="#DejaVuSans-30" x="254.492188"/>
      </g>
     </g>
    </g>
    <g id="xtick_3">
     <g id="line2d_5">
      <path d="M 373.661666 246.04 
L 373.661666 37.8 
" clip-path="url(#pd9b949a52e)" style="fill: none; stroke: #b0b0b0; stroke-width: 0.8; stroke-linecap: square"/>
     </g>
     <g id="line2d_6">
      <g>
       <use xlink:href="#m576a3f7c3d" x="373.661666" y="246.04" style="stroke: #000000; stroke-width: 0.8"/>
      </g>
     </g>
     <g id="text_3">
      <!-- 20000 -->
      <g transform="translate(357.755416 260.638438) scale(0.1 -0.1)">
       <defs>
        <path id="DejaVuSans-32" d="M 1228 531 
L 3431 531 
L 3431 0 
L 469 0 
L 469 531 
Q 828 903 1448 1529 
Q 2069 2156 2228 2338 
Q 2531 2678 2651 2914 
Q 2772 3150 2772 3378 
Q 2772 3750 2511 3984 
Q 2250 4219 1831 4219 
Q 1534 4219 1204 4116 
Q 875 4013 500 3803 
L 500 4441 
Q 881 4594 1212 4672 
Q 1544 4750 1819 4750 
Q 2544 4750 2975 4387 
Q 3406 4025 3406 3419 
Q 3406 3131 3298 2873 
Q 3191 2616 2906 2266 
Q 2828 2175 2409 1742 
Q 1991 1309 1228 531 
z
" transform="scale(0.015625)"/>
       </defs>
       <use xlink:href="#DejaVuSans-32"/>
       <use xlink:href="#DejaVuSans-30" x="63.623047"/>
       <use xlink:href="#DejaVuSans-30" x="127.246094"/>
       <use xlink:href="#DejaVuSans-30" x="190.869141"/>
       <use xlink:href="#DejaVuSans-30" x="254.492188"/>
      </g>
     </g>
    </g>
    <g id="xtick_4">
     <g id="line2d_7">
      <path d="M 517.856431 246.04 
L 517.856431 37.8 
" clip-path="url(#pd9b949a52e)" style="fill: none; stroke: #b0b0b0; stroke-width: 0.8; stroke-linecap: square"/>
     </g>
     <g id="line2d_8">
      <g>
       <use xlink:href="#m576a3f7c3d" x="517.856431" y="246.04" style="stroke: #000000; stroke-width: 0.8"/>
      </g>
     </g>
     <g id="text_4">
      <!-- 30000 -->
      <g transform="translate(501.950181 260.638438) scale(0.1 -0.1)">
       <defs>
        <path id="DejaVuSans-33" d="M 2597 2516 
Q 3050 2419 3304 2112 
Q 3559 1806 3559 1356 
Q 3559 666 3084 287 
Q 2609 -91 1734 -91 
Q 1441 -91 1130 -33 
Q 819 25 488 141 
L 488 750 
Q 750 597 1062 519 
Q 1375 441 1716 441 
Q 2309 441 2620 675 
Q 2931 909 2931 1356 
Q 2931 1769 2642 2001 
Q 2353 2234 1838 2234 
L 1294 2234 
L 1294 2753 
L 1863 2753 
Q 2328 2753 2575 2939 
Q 2822 3125 2822 3475 
Q 2822 3834 2567 4026 
Q 2313 4219 1838 4219 
Q 1578 4219 1281 4162 
Q 984 4106 628 3988 
L 628 4550 
Q 988 4650 1302 4700 
Q 1616 4750 1894 4750 
Q 2613 4750 3031 4423 
Q 3450 4097 3450 3541 
Q 3450 3153 3228 2886 
Q 3006 2619 2597 2516 
z
" transform="scale(0.015625)"/>
       </defs>
       <use xlink:href="#DejaVuSans-33"/>
       <use xlink:href="#DejaVuSans-30" x="63.623047"/>
       <use xlink:href="#DejaVuSans-30" x="127.246094"/>
       <use xlink:href="#DejaVuSans-30" x="190.869141"/>
       <use xlink:href="#DejaVuSans-30" x="254.492188"/>
      </g>
     </g>
    </g>
    <g id="xtick_5">
     <g id="line2d_9">
      <path d="M 662.051196 246.04 
L 662.051196 37.8 
" clip-path="url(#pd9b949a52e)" style="fill: none; stroke: #b0b0b0; stroke-width: 0.8; stroke-linecap: square"/>
     </g>
     <g id="line2d_10">
      <g>
       <use xlink:href="#m576a3f7c3d" x="662.051196" y="246.04" style="stroke: #000000; stroke-width: 0.8"/>
      </g>
     </g>
     <g id="text_5">
      <!-- 40000 -->
      <g transform="translate(646.144946 260.638438) scale(0.1 -0.1)">
       <defs>
        <path id="DejaVuSans-34" d="M 2419 4116 
L 825 1625 
L 2419 1625 
L 2419 4116 
z
M 2253 4666 
L 3047 4666 
L 3047 1625 
L 3713 1625 
L 3713 1100 
L 3047 1100 
L 3047 0 
L 2419 0 
L 2419 1100 
L 313 1100 
L 313 1709 
L 2253 4666 
z
" transform="scale(0.015625)"/>
       </defs>
       <use xlink:href="#DejaVuSans-34"/>
       <use xlink:href="#DejaVuSans-30" x="63.623047"/>
       <use xlink:href="#DejaVuSans-30" x="127.246094"/>
       <use xlink:href="#DejaVuSans-30" x="190.869141"/>
       <use xlink:href="#DejaVuSans-30" x="254.492188"/>
      </g>
     </g>
    </g>
    <g id="text_6">
     <!-- Time (s) -->
     <g transform="translate(362.316094 274.316562) scale(0.1 -0.1)">
      <defs>
       <path id="DejaVuSans-54" d="M -19 4666 
L 3928 4666 
L 3928 4134 
L 2272 4134 
L 2272 0 
L 1638 0 
L 1638 4134 
L -19 4134 
L -19 4666 
z
" transform="scale(0.015625)"/>
       <path id="DejaVuSans-69" d="M 603 3500 
L 1178 3500 
L 1178 0 
L 603 0 
L 603 3500 
z
M 603 4863 
L 1178 4863 
L 1178 4134 
L 603 4134 
L 603 4863 
z
" transform="scale(0.015625)"/>
       <path id="DejaVuSans-6d" d="M 3328 2828 
Q 3544 3216 3844 3400 
Q 4144 3584 4550 3584 
Q 5097 3584 5394 3201 
Q 5691 2819 5691 2113 
L 5691 0 
L 5113 0 
L 5113 2094 
Q 5113 2597 4934 2840 
Q 4756 3084 4391 3084 
Q 3944 3084 3684 2787 
Q 3425 2491 3425 1978 
L 3425 0 
L 2847 0 
L 2847 2094 
Q 2847 2600 2669 2842 
Q 2491 3084 2119 3084 
Q 1678 3084 1418 2786 
Q 1159 2488 1159 1978 
L 1159 0 
L 581 0 
L 581 3500 
L 1159 3500 
L 1159 2956 
Q 1356 3278 1631 3431 
Q 1906 3584 2284 3584 
Q 2666 3584 2933 3390 
Q 3200 3197 3328 2828 
z
" transform="scale(0.015625)"/>
       <path id="DejaVuSans-65" d="M 3597 1894 
L 3597 1613 
L 953 1613 
Q 991 1019 1311 708 
Q 1631 397 2203 397 
Q 2534 397 2845 478 
Q 3156 559 3463 722 
L 3463 178 
Q 3153 47 2828 -22 
Q 2503 -91 2169 -91 
Q 1331 -91 842 396 
Q 353 884 353 1716 
Q 353 2575 817 3079 
Q 1281 3584 2069 3584 
Q 2775 3584 3186 3129 
Q 3597 2675 3597 1894 
z
M 3022 2063 
Q 3016 2534 2758 2815 
Q 2500 3097 2075 3097 
Q 1594 3097 1305 2825 
Q 1016 2553 972 2059 
L 3022 2063 
z
" transform="scale(0.015625)"/>
       <path id="DejaVuSans-20" transform="scale(0.015625)"/>
       <path id="DejaVuSans-28" d="M 1984 4856 
Q 1566 4138 1362 3434 
Q 1159 2731 1159 2009 
Q 1159 1288 1364 580 
Q 1569 -128 1984 -844 
L 1484 -844 
Q 1016 -109 783 600 
Q 550 1309 550 2009 
Q 550 2706 781 3412 
Q 1013 4119 1484 4856 
L 1984 4856 
z
" transform="scale(0.015625)"/>
       <path id="DejaVuSans-73" d="M 2834 3397 
L 2834 2853 
Q 2591 2978 2328 3040 
Q 2066 3103 1784 3103 
Q 1356 3103 1142 2972 
Q 928 2841 928 2578 
Q 928 2378 1081 2264 
Q 1234 2150 1697 2047 
L 1894 2003 
Q 2506 1872 2764 1633 
Q 3022 1394 3022 966 
Q 3022 478 2636 193 
Q 2250 -91 1575 -91 
Q 1294 -91 989 -36 
Q 684 19 347 128 
L 347 722 
Q 666 556 975 473 
Q 1284 391 1588 391 
Q 1994 391 2212 530 
Q 2431 669 2431 922 
Q 2431 1156 2273 1281 
Q 2116 1406 1581 1522 
L 1381 1569 
Q 847 1681 609 1914 
Q 372 2147 372 2553 
Q 372 3047 722 3315 
Q 1072 3584 1716 3584 
Q 2034 3584 2315 3537 
Q 2597 3491 2834 3397 
z
" transform="scale(0.015625)"/>
       <path id="DejaVuSans-29" d="M 513 4856 
L 1013 4856 
Q 1481 4119 1714 3412 
Q 1947 2706 1947 2009 
Q 1947 1309 1714 600 
Q 1481 -109 1013 -844 
L 513 -844 
Q 928 -128 1133 580 
Q 1338 1288 1338 2009 
Q 1338 2731 1133 3434 
Q 928 4138 513 4856 
z
" transform="scale(0.015625)"/>
      </defs>
      <use xlink:href="#DejaVuSans-54"/>
      <use xlink:href="#DejaVuSans-69" x="57.958984"/>
      <use xlink:href="#DejaVuSans-6d" x="85.742188"/>
      <use xlink:href="#DejaVuSans-65" x="183.154297"/>
      <use xlink:href="#DejaVuSans-20" x="244.677734"/>
      <use xlink:href="#DejaVuSans-28" x="276.464844"/>
      <use xlink:href="#DejaVuSans-73" x="315.478516"/>
      <use xlink:href="#DejaVuSans-29" x="367.578125"/>
     </g>
    </g>
   </g>
   <g id="matplotlib.axis_2">
    <g id="ytick_1">
     <g id="line2d_11">
      <path d="M 56.09 240.75 
L 709.2 240.75 
" clip-path="url(#pd9b949a52e)" style="fill: none; stroke: #b0b0b0; stroke-width: 0.8; stroke-linecap: square"/>
     </g>
     <g id="line2d_12">
      <defs>
       <path id="me7b142969d" d="M 0 0 
L -3.5 0 
" style="stroke: #000000; stroke-width: 0.8"/>
      </defs>
      <g>
       <use xlink:href="#me7b142969d" x="56.09" y="240.75" style="stroke: #000000; stroke-width: 0.8"/>
      </g>
     </g>
     <g id="text_7">
      <!-- −0.6 -->
      <g transform="translate(24.807188 244.549219) scale(0.1 -0.1)">
       <defs>
        <path id="DejaVuSans-2212" d="M 678 2272 
L 4684 2272 
L 4684 1741 
L 678 1741 
L 678 2272 
z
" transform="scale(0.015625)"/>
        <path id="DejaVuSans-2e" d="M 684 794 
L 1344 794 
L 1344 0 
L 684 0 
L 684 794 
z
" transform="scale(0.015625)"/>
        <path id="DejaVuSans-36" d="M 2113 2584 
Q 1688 2584 1439 2293 
Q 1191 2003 1191 1497 
Q 1191 994 1439 701 
Q 1688 409 2113 409 
Q 2538 409 2786 701 
Q 3034 994 3034 1497 
Q 3034 2003 2786 2293 
Q 2538 2584 2113 2584 
z
M 3366 4563 
L 3366 3988 
Q 3128 4100 2886 4159 
Q 2644 4219 2406 4219 
Q 1781 4219 1451 3797 
Q 1122 3375 1075 2522 
Q 1259 2794 1537 2939 
Q 1816 3084 2150 3084 
Q 2853 3084 3261 2657 
Q 3669 2231 3669 1497 
Q 3669 778 3244 343 
Q 2819 -91 2113 -91 
Q 1303 -91 875 529 
Q 447 1150 447 2328 
Q 447 3434 972 4092 
Q 1497 4750 2381 4750 
Q 2619 4750 2861 4703 
Q 3103 4656 3366 4563 
z
" transform="scale(0.015625)"/>
       </defs>
       <use xlink:href="#DejaVuSans-2212"/>
       <use xlink:href="#DejaVuSans-30" x="83.789062"/>
       <use xlink:href="#DejaVuSans-2e" x="147.412109"/>
       <use xlink:href="#DejaVuSans-36" x="179.199219"/>
      </g>
     </g>
    </g>
    <g id="ytick_2">
     <g id="line2d_13">
      <path d="M 56.09 214.25 
L 709.2 214.25 
" clip-path="url(#pd9b949a52e)" style="fill: none; stroke: #b0b0b0; stroke-width: 0.8; stroke-linecap: square"/>
     </g>
     <g id="line2d_14">
      <g>
       <use xlink:href="#me7b142969d" x="56.09" y="214.25" style="stroke: #000000; stroke-width: 0.8"/>
      </g>
     </g>
     <g id="text_8">
      <!-- −0.4 -->
      <g transform="translate(24.807188 218.049219) scale(0.1 -0.1)">
       <use xlink:href="#DejaVuSans-2212"/>
       <use xlink:href="#DejaVuSans-30" x="83.789062"/>
       <use xlink:href="#DejaVuSans-2e" x="147.412109"/>
       <use xlink:href="#DejaVuSans-34" x="179.199219"/>
      </g>
     </g>
    </g>
    <g id="ytick_3">
     <g id="line2d_15">
      <path d="M 56.09 187.5 
L 709.2 187.5 
" clip-path="url(#pd9b949a52e)" style="fill: none; stroke: #b0b0b0; stroke-width: 0.8; stroke-linecap: square"/>
     </g>
     <g id="line2d_16">
      <g>
       <use xlink:href="#me7b142969d" x="56.09" y="187.5" style="stroke: #000000; stroke-width: 0.8"/>
      </g>
     </g>
     <g id="text_9">
      <!-- −0.2 -->
      <g transform="translate(24.807188 191.299219) scale(0.1 -0.1)">
       <use xlink:href="#DejaVuSans-2212"/>
       <use xlink:href="#DejaVuSans-30" x="83.789062"/>
       <use xlink:href="#DejaVuSans-2e" x="147.412109"/>
       <use xlink:href="#DejaVuSans-32" x="179.199219"/>
      </g>
     </g>
    </g>
    <g id="ytick_4">
     <g id="line2d_17">
      <path d="M 56.09 161 
L 709.2 161 
" clip-path="url(#pd9b949a52e)" style="fill: none; stroke: #b0b0b0; stroke-width: 0.8; stroke-linecap: square"/>
     </g>
     <g id="line2d_18">
      <g>
       <use xlink:href="#me7b142969d" x="56.09" y="161" style="stroke: #000000; stroke-width: 0.8"/>
      </g>
     </g>
     <g id="text_10">
      <!-- 0.0 -->
      <g transform="translate(33.186875 164.799219) scale(0.1 -0.1)">
       <use xlink:href="#DejaVuSans-30"/>
       <use xlink:href="#DejaVuSans-2e" x="63.623047"/>
       <use xlink:href="#DejaVuSans-30" x="95.410156"/>
      </g>
     </g>
    </g>
    <g id="ytick_5">
     <g id="line2d_19">
      <path d="M 56.09 134.25 
L 709.2 134.25 
" clip-path="url(#pd9b949a52e)" style="fill: none; stroke: #b0b0b0; stroke-width: 0.8; stroke-linecap: square"/>
     </g>
     <g id="line2d_20">
      <g>
       <use xlink:href="#me7b142969d" x="56.09" y="134.25" style="stroke: #000000; stroke-width: 0.8"/>
      </g>
     </g>
     <g id="text_11">
      <!-- 0.2 -->
      <g transform="translate(33.186875 138.049219) scale(0.1 -0.1)">
       <use xlink:href="#DejaVuSans-30"/>
       <use xlink:href="#DejaVuSans-2e" x="63.623047"/>
       <use xlink:href="#DejaVuSans-32" x="95.410156"/>
      </g>
     </g>
    </g>
    <g id="ytick_6">
     <g id="line2d_21">
      <path d="M 56.09 107.75 
L 709.2 107.75 
" clip-path="url(#pd9b949a52e)" style="fill: none; stroke: #b0b0b0; stroke-width: 0.8; stroke-linecap: square"/>
     </g>
     <g id="line2d_22">
      <g>
       <use xlink:href="#me7b142969d" x="56.09" y="107.75" style="stroke: #000000; stroke-width: 0.8"/>
      </g>
     </g>
     <g id="text_12">
      <!-- 0.4 -->
      <g transform="translate(33.186875 111.549219) scale(0.1 -0.1)">
       <use xlink:href="#DejaVuSans-30"/>
       <use xlink:href="#DejaVuSans-2e" x="63.623047"/>
       <use xlink:href="#DejaVuSans-34" x="95.410156"/>
      </g>
     </g>
    </g>
    <g id="ytick_7">
     <g id="line2d_23">
      <path d="M 56.09 81 
L 709.2 81 
" clip-path="url(#pd9b949a52e)" style="fill: none; stroke: #b0b0b0; stroke-width: 0.8; stroke-linecap: square"/>
     </g>
     <g id="line2d_24">
      <g>
       <use xlink:href="#me7b142969d" x="56.09" y="81" style="stroke: #000000; stroke-width: 0.8"/>
      </g>
     </g>
     <g id="text_13">
      <!-- 0.6 -->
      <g transform="translate(33.186875 84.799219) scale(0.1 -0.1)">
       <use xlink:href="#DejaVuSans-30"/>
       <use xlink:href="#DejaVuSans-2e" x="63.623047"/>
       <use xlink:href="#DejaVuSans-36" x="95.410156"/>
      </g>
     </g>
    </g>
    <g id="ytick_8">
     <g id="line2d_25">
      <path d="M 56.09 54.5 
L 709.2 54.5 
" clip-path="url(#pd9b949a52e)" style="fill: none; stroke: #b0b0b0; stroke-width: 0.8; stroke-linecap: square"/>
     </g>
     <g id="line2d_26">
      <g>
       <use xlink:href="#me7b142969d" x="56.09" y="54.5" style="stroke: #000000; stroke-width: 0.8"/>
      </g>
     </g>
     <g id="text_14">
      <!-- 0.8 -->
      <g transform="translate(33.186875 58.299219) scale(0.1 -0.1)">
       <defs>
        <path id="DejaVuSans-38" d="M 2034 2216 
Q 1584 2216 1326 1975 
Q 1069 1734 1069 1313 
Q 1069 891 1326 650 
Q 1584 409 2034 409 
Q 2484 409 2743 651 
Q 3003 894 3003 1313 
Q 3003 1734 2745 1975 
Q 2488 2216 2034 2216 
z
M 1403 2484 
Q 997 2584 770 2862 
Q 544 3141 544 3541 
Q 544 4100 942 4425 
Q 1341 4750 2034 4750 
Q 2731 4750 3128 4425 
Q 3525 4100 3525 3541 
Q 3525 3141 3298 2862 
Q 3072 2584 2669 2484 
Q 3125 2378 3379 2068 
Q 3634 1759 3634 1313 
Q 3634 634 3220 271 
Q 2806 -91 2034 -91 
Q 1263 -91 848 271 
Q 434 634 434 1313 
Q 434 1759 690 2068 
Q 947 2378 1403 2484 
z
M 1172 3481 
Q 1172 3119 1398 2916 
Q 1625 2713 2034 2713 
Q 2441 2713 2670 2916 
Q 2900 3119 2900 3481 
Q 2900 3844 2670 4047 
Q 2441 4250 2034 4250 
Q 1625 4250 1398 4047 
Q 1172 3844 1172 3481 
z
" transform="scale(0.015625)"/>
       </defs>
       <use xlink:href="#DejaVuSans-30"/>
       <use xlink:href="#DejaVuSans-2e" x="63.623047"/>
       <use xlink:href="#DejaVuSans-38" x="95.410156"/>
      </g>
     </g>
    </g>
    <g id="text_15">
     <!-- Delta Value -->
     <g transform="translate(18.7275 170.580156) rotate(-90) scale(0.1 -0.1)">
      <defs>
       <path id="DejaVuSans-44" d="M 1259 4147 
L 1259 519 
L 2022 519 
Q 2988 519 3436 956 
Q 3884 1394 3884 2338 
Q 3884 3275 3436 3711 
Q 2988 4147 2022 4147 
L 1259 4147 
z
M 628 4666 
L 1925 4666 
Q 3281 4666 3915 4102 
Q 4550 3538 4550 2338 
Q 4550 1131 3912 565 
Q 3275 0 1925 0 
L 628 0 
L 628 4666 
z
" transform="scale(0.015625)"/>
       <path id="DejaVuSans-6c" d="M 603 4863 
L 1178 4863 
L 1178 0 
L 603 0 
L 603 4863 
z
" transform="scale(0.015625)"/>
       <path id="DejaVuSans-74" d="M 1172 4494 
L 1172 3500 
L 2356 3500 
L 2356 3053 
L 1172 3053 
L 1172 1153 
Q 1172 725 1289 603 
Q 1406 481 1766 481 
L 2356 481 
L 2356 0 
L 1766 0 
Q 1100 0 847 248 
Q 594 497 594 1153 
L 594 3053 
L 172 3053 
L 172 3500 
L 594 3500 
L 594 4494 
L 1172 4494 
z
" transform="scale(0.015625)"/>
       <path id="DejaVuSans-61" d="M 2194 1759 
Q 1497 1759 1228 1600 
Q 959 1441 959 1056 
Q 959 750 1161 570 
Q 1363 391 1709 391 
Q 2188 391 2477 730 
Q 2766 1069 2766 1631 
L 2766 1759 
L 2194 1759 
z
M 3341 1997 
L 3341 0 
L 2766 0 
L 2766 531 
Q 2569 213 2275 61 
Q 1981 -91 1556 -91 
Q 1019 -91 701 211 
Q 384 513 384 1019 
Q 384 1609 779 1909 
Q 1175 2209 1959 2209 
L 2766 2209 
L 2766 2266 
Q 2766 2663 2505 2880 
Q 2244 3097 1772 3097 
Q 1472 3097 1187 3025 
Q 903 2953 641 2809 
L 641 3341 
Q 956 3463 1253 3523 
Q 1550 3584 1831 3584 
Q 2591 3584 2966 3190 
Q 3341 2797 3341 1997 
z
" transform="scale(0.015625)"/>
       <path id="DejaVuSans-56" d="M 1831 0 
L 50 4666 
L 709 4666 
L 2188 738 
L 3669 4666 
L 4325 4666 
L 2547 0 
L 1831 0 
z
" transform="scale(0.015625)"/>
       <path id="DejaVuSans-75" d="M 544 1381 
L 544 3500 
L 1119 3500 
L 1119 1403 
Q 1119 906 1312 657 
Q 1506 409 1894 409 
Q 2359 409 2629 706 
Q 2900 1003 2900 1516 
L 2900 3500 
L 3475 3500 
L 3475 0 
L 2900 0 
L 2900 538 
Q 2691 219 2414 64 
Q 2138 -91 1772 -91 
Q 1169 -91 856 284 
Q 544 659 544 1381 
z
M 1991 3584 
L 1991 3584 
z
" transform="scale(0.015625)"/>
      </defs>
      <use xlink:href="#DejaVuSans-44"/>
      <use xlink:href="#DejaVuSans-65" x="77.001953"/>
      <use xlink:href="#DejaVuSans-6c" x="138.525391"/>
      <use xlink:href="#DejaVuSans-74" x="166.308594"/>
      <use xlink:href="#DejaVuSans-61" x="205.517578"/>
      <use xlink:href="#DejaVuSans-20" x="266.796875"/>
      <use xlink:href="#DejaVuSans-56" x="298.583984"/>
      <use xlink:href="#DejaVuSans-61" x="359.242188"/>
      <use xlink:href="#DejaVuSans-6c" x="420.521484"/>
      <use xlink:href="#DejaVuSans-75" x="448.304688"/>
      <use xlink:href="#DejaVuSans-65" x="511.683594"/>
     </g>
    </g>
    <g id="text_16">
     <!-- 1e−14+1e−1 -->
     <g transform="translate(56.09 34.8) scale(0.1 -0.1)">
      <defs>
       <path id="DejaVuSans-2b" d="M 2944 4013 
L 2944 2272 
L 4684 2272 
L 4684 1741 
L 2944 1741 
L 2944 0 
L 2419 0 
L 2419 1741 
L 678 1741 
L 678 2272 
L 2419 2272 
L 2419 4013 
L 2944 4013 
z
" transform="scale(0.015625)"/>
      </defs>
      <use xlink:href="#DejaVuSans-31"/>
      <use xlink:href="#DejaVuSans-65" x="63.623047"/>
      <use xlink:href="#DejaVuSans-2212" x="125.146484"/>
      <use xlink:href="#DejaVuSans-31" x="208.935547"/>
      <use xlink:href="#DejaVuSans-34" x="272.558594"/>
      <use xlink:href="#DejaVuSans-2b" x="336.181641"/>
      <use xlink:href="#DejaVuSans-31" x="419.970703"/>
      <use xlink:href="#DejaVuSans-65" x="483.59375"/>
      <use xlink:href="#DejaVuSans-2212" x="545.117188"/>
      <use xlink:href="#DejaVuSans-31" x="628.90625"/>
     </g>
    </g>
   </g>
   <g id="line2d_27">
    <path d="M 85.776818 161.25 
L 86.497792 161 
L 87.161088 161.25 
L 87.694609 160.5 
L 88.574197 161.25 
L 89.799852 161.25 
L 90.95341 159.75 
L 91.486931 161.25 
L 92.179066 161.25 
L 92.712586 159.75 
L 93.592174 162.75 
L 94.082437 159.75 
L 94.81783 162.75 
L 95.481126 159.75 
L 98.739928 159.75 
L 99.432062 162.75 
L 99.907905 159.75 
L 100.427006 162.75 
L 101.119141 157 
L 101.638242 165.75 
L 102.330377 159.75 
L 104.017456 159.75 
L 104.565396 165.75 
L 105.257531 159.75 
L 106.94461 159.75 
L 107.463711 165.75 
L 108.155846 159.75 
L 109.842924 159.75 
L 110.362026 165.75 
L 111.05416 159.75 
L 112.077943 159.75 
L 112.770078 165.75 
L 113.289179 154 
L 113.981314 165.75 
L 114.457157 165.75 
L 114.976258 154 
L 115.668393 165.75 
L 116.187494 154 
L 116.879629 165.75 
L 117.355472 165.75 
L 117.874573 154 
L 118.566708 165.75 
L 119.114648 154 
L 119.806783 165.75 
L 120.282625 165.75 
L 120.801727 154 
L 121.493861 165.75 
L 122.012963 154 
L 122.705097 165.75 
L 123.18094 165.75 
L 123.700041 154 
L 124.392176 165.75 
L 124.911277 154 
L 125.603412 165.75 
L 126.079255 165.75 
L 126.627195 154 
L 127.31933 165.75 
L 127.838431 154 
L 128.530566 165.75 
L 129.006409 165.75 
L 129.52551 154 
L 130.217645 165.75 
L 130.736746 154 
L 131.428881 165.75 
L 131.904723 165.75 
L 132.423825 154 
L 133.115959 165.75 
L 133.6639 154 
L 134.356034 165.75 
L 134.831877 165.75 
L 135.350978 154 
L 136.043113 165.75 
L 136.562214 165.75 
L 137.254349 142 
L 137.730192 165.75 
L 139.460529 165.75 
L 140.152664 142 
L 140.628507 165.75 
L 142.387683 165.75 
L 143.079818 142 
L 143.55566 165.75 
L 145.285998 165.75 
L 145.978132 142 
L 146.453975 165.75 
L 148.213151 165.75 
L 148.905286 142 
L 149.381129 165.75 
L 151.111466 165.75 
L 151.803601 142 
L 152.279444 165.75 
L 154.009781 165.75 
L 154.701916 142 
L 155.177758 165.75 
L 156.936935 165.75 
L 157.629069 142 
L 158.104912 165.75 
L 159.835249 165.75 
L 160.527384 142 
L 161.003227 165.75 
L 162.762403 165.75 
L 163.454538 142 
L 163.930381 165.75 
L 165.660718 165.75 
L 166.352853 142 
L 166.828695 165.75 
L 168.559033 165.75 
L 169.251168 142 
L 169.72701 165.75 
L 171.486186 165.75 
L 172.178321 142 
L 172.654164 165.75 
L 174.384501 165.75 
L 175.076636 142 
L 175.552479 165.75 
L 177.311655 165.75 
L 178.00379 142 
L 178.479632 165.75 
L 180.20997 165.75 
L 180.902105 142 
L 181.377947 165.75 
L 182.589183 165.75 
L 183.108284 142 
L 183.800419 189.5 
L 184.276262 142 
L 184.824202 189.5 
L 185.516337 142 
L 186.035438 142 
L 186.727573 189.5 
L 187.203416 142 
L 187.722517 189.5 
L 188.414652 142 
L 188.933753 142 
L 189.625888 189.5 
L 190.101731 142 
L 190.620832 189.5 
L 191.312967 142 
L 191.860907 142 
L 192.553042 189.5 
L 193.028884 142 
L 193.547985 189.5 
L 194.24012 142 
L 194.759221 142 
L 195.451356 189.5 
L 195.927199 142 
L 196.4463 189.5 
L 197.138435 142 
L 197.657536 142 
L 198.349671 189.5 
L 198.825514 142 
L 199.373454 189.5 
L 200.065589 142 
L 200.58469 142 
L 201.276825 189.5 
L 201.752668 142 
L 202.271769 189.5 
L 202.963904 142 
L 203.483005 142 
L 204.17514 189.5 
L 204.650982 142 
L 205.170083 189.5 
L 205.862218 142 
L 206.410158 142 
L 207.102293 189.5 
L 207.578136 142 
L 208.097237 189.5 
L 208.789372 142 
L 209.308473 142 
L 210.000608 189.5 
L 210.476451 142 
L 210.995552 189.5 
L 211.687687 142 
L 212.206788 142 
L 212.898923 189.5 
L 213.374766 142 
L 213.922706 189.5 
L 214.614841 142 
L 215.133942 142 
L 215.826077 189.5 
L 216.301919 142 
L 216.82102 189.5 
L 217.513155 142 
L 218.032256 142 
L 218.724391 189.5 
L 219.200234 142 
L 219.719335 189.5 
L 220.41147 142 
L 220.95941 142 
L 221.651545 189.5 
L 222.127388 142 
L 222.646489 189.5 
L 223.338624 142 
L 223.857725 142 
L 224.54986 189.5 
L 225.025703 142 
L 225.544804 189.5 
L 226.236939 142 
L 226.75604 142 
L 227.448175 189.5 
L 227.924017 142 
L 228.471957 189.5 
L 229.164092 142 
L 229.683193 142 
L 230.375328 189.5 
L 230.851171 142 
L 231.370272 189.5 
L 232.062407 142 
L 232.581508 142 
L 233.273643 189.5 
L 233.749486 142 
L 234.268587 189.5 
L 234.960722 142 
L 235.508662 142 
L 236.200797 189.5 
L 236.67664 142 
L 237.195741 189.5 
L 237.887876 142 
L 238.406977 142 
L 239.099112 189.5 
L 239.574954 142 
L 240.094055 189.5 
L 240.78619 142 
L 241.305292 142 
L 241.997426 189.5 
L 242.473269 142 
L 243.021209 189.5 
L 243.713344 142 
L 244.232445 142 
L 244.92458 189.5 
L 245.400423 142 
L 245.919524 189.5 
L 246.611659 142 
L 247.13076 142 
L 247.822895 189.5 
L 248.298738 142 
L 248.817839 189.5 
L 249.509974 142 
L 250.057914 142 
L 250.750049 189.5 
L 251.225891 142 
L 251.744992 189.5 
L 252.437127 142 
L 252.956229 142 
L 253.648363 189.5 
L 254.124206 142 
L 254.643307 189.5 
L 255.335442 142 
L 255.854543 142 
L 256.546678 189.5 
L 256.993682 142 
L 257.512783 189.5 
L 258.176079 142 
L 258.724019 142 
L 259.603607 189.5 
L 260.093869 142 
L 260.800424 189.5 
L 261.46372 142 
L 261.99724 142 
L 262.876828 189.5 
L 263.367091 142 
L 264.563907 189.5 
L 265.256042 142 
L 265.818402 142 
L 266.553795 189.5 
L 267.217091 142 
L 267.707353 189.5 
L 271.110349 142 
L 271.629451 142 
L 272.321585 189.5 
L 272.797428 142 
L 273.316529 189.5 
L 274.008664 142 
L 274.527765 142 
L 275.2199 189.5 
L 275.695743 142 
L 276.243683 189.5 
L 276.935818 142 
L 277.454919 142 
L 278.147054 189.5 
L 278.622897 142 
L 279.141998 189.5 
L 279.834133 142 
L 281.045369 142 
L 281.521211 236.75 
L 282.040313 142 
L 283.972522 142 
L 284.448365 236.75 
L 284.967466 142 
L 286.870837 142 
L 287.34668 236.75 
L 287.865781 142 
L 289.769152 142 
L 290.244995 236.75 
L 290.792935 142 
L 292.696306 142 
L 293.172148 236.75 
L 293.69125 142 
L 295.59462 142 
L 296.070463 236.75 
L 296.589564 142 
L 298.521774 142 
L 298.997617 236.75 
L 299.516718 142 
L 301.420089 142 
L 301.895932 236.75 
L 302.415033 142 
L 304.318404 142 
L 304.794246 236.75 
L 305.342187 142 
L 307.245557 142 
L 307.7214 236.75 
L 308.240501 142 
L 310.143872 142 
L 310.619715 236.75 
L 311.138816 142 
L 313.071026 142 
L 313.546869 236.75 
L 314.06597 142 
L 315.969341 142 
L 316.445183 236.75 
L 316.964285 142 
L 318.867656 142 
L 319.343498 236.75 
L 319.891438 142 
L 321.794809 142 
L 322.270652 236.75 
L 322.789753 142 
L 324.693124 142 
L 325.168967 236.75 
L 325.688068 142 
L 327.620278 142 
L 328.09612 236.75 
L 328.615222 142 
L 330.518593 142 
L 330.994435 236.75 
L 331.513536 142 
L 333.416907 142 
L 333.89275 236.75 
L 334.44069 142 
L 336.344061 142 
L 336.819904 236.75 
L 337.339005 142 
L 339.242376 142 
L 339.718219 236.75 
L 340.23732 142 
L 342.16953 142 
L 342.645372 236.75 
L 343.164473 142 
L 345.067844 142 
L 345.543687 236.75 
L 346.062788 142 
L 347.966159 142 
L 348.442002 236.75 
L 348.989942 142 
L 350.893313 142 
L 351.369156 236.75 
L 351.888257 142 
L 353.791628 142 
L 354.26747 236.75 
L 354.786571 142 
L 356.718781 142 
L 357.194624 236.75 
L 357.713725 142 
L 359.617096 142 
L 360.092939 236.75 
L 360.61204 142 
L 362.54425 142 
L 363.020093 236.75 
L 363.568033 142 
L 365.471404 142 
L 365.947246 236.75 
L 366.466347 142 
L 368.398557 142 
L 368.8744 236.75 
L 369.393501 142 
L 371.325711 142 
L 371.801554 236.75 
L 372.320655 142 
L 374.224026 142 
L 374.699868 236.75 
L 375.21897 142 
L 377.151179 142 
L 377.627022 236.75 
L 378.174962 142 
L 380.078333 142 
L 380.554176 236.75 
L 381.073277 142 
L 383.005487 142 
L 383.48133 236.75 
L 384.000431 142 
L 385.932641 142 
L 386.408483 236.75 
L 386.927585 142 
L 388.830955 142 
L 389.306798 236.75 
L 389.825899 142 
L 391.758109 142 
L 392.233952 236.75 
L 392.781892 142 
L 394.685263 142 
L 395.161106 236.75 
L 395.680207 142 
L 397.612417 142 
L 398.088259 236.75 
L 398.60736 142 
L 400.53957 142 
L 401.015413 236.75 
L 401.534514 142 
L 403.437885 142 
L 403.913728 236.75 
L 404.432829 142 
L 406.365039 142 
L 406.840882 236.75 
L 407.388822 142 
L 409.292193 142 
L 409.768035 236.75 
L 410.287136 142 
L 412.219346 142 
L 412.695189 236.75 
L 413.21429 142 
L 415.1465 142 
L 415.622343 236.75 
L 416.141444 142 
L 418.044815 142 
L 418.520657 236.75 
L 419.039759 142 
L 420.971968 142 
L 421.447811 236.75 
L 421.995751 142 
L 423.899122 142 
L 424.374965 236.75 
L 424.894066 142 
L 426.826276 142 
L 427.302119 236.75 
L 427.82122 142 
L 429.75343 142 
L 430.229272 236.75 
L 430.748374 142 
L 432.651744 142 
L 433.127587 236.75 
L 433.646688 142 
L 435.578898 142 
L 436.054741 236.75 
L 436.602681 142 
L 438.506052 142 
L 438.981895 236.75 
L 439.500996 142 
L 441.433206 142 
L 441.909048 236.75 
L 442.428149 142 
L 444.360359 142 
L 444.836202 236.75 
L 445.355303 142 
L 447.258674 142 
L 447.734517 236.75 
L 448.253618 142 
L 450.185828 142 
L 450.661671 236.75 
L 451.209611 142 
L 453.112982 142 
L 453.588824 236.75 
L 454.107925 142 
L 456.040135 142 
L 456.515978 236.75 
L 457.035079 142 
L 458.967289 142 
L 459.443132 236.75 
L 459.962233 142 
L 461.865604 142 
L 462.341447 236.75 
L 462.860548 142 
L 464.792758 142 
L 465.2686 236.75 
L 465.81654 142 
L 466.508675 142 
L 467.027776 236.75 
L 467.719911 47.5 
L 468.195754 236.75 
L 468.714855 47.5 
L 469.40699 236.75 
L 469.926091 236.75 
L 470.647065 47.5 
L 471.122908 236.75 
L 471.642009 47.5 
L 472.334144 236.75 
L 472.882084 236.75 
L 473.574219 47.5 
L 474.050061 236.75 
L 474.569163 47.5 
L 475.261297 236.75 
L 475.780399 236.75 
L 476.472533 47.5 
L 476.948376 236.75 
L 477.467477 47.5 
L 478.159612 236.75 
L 478.678713 236.75 
L 479.370848 47.5 
L 479.846691 236.75 
L 480.394631 47.5 
L 481.086766 236.75 
L 481.605867 236.75 
L 482.298002 47.5 
L 482.773845 236.75 
L 483.292946 47.5 
L 483.985081 236.75 
L 484.504182 236.75 
L 485.196317 47.5 
L 485.672159 236.75 
L 486.191261 47.5 
L 486.883395 236.75 
L 487.431336 236.75 
L 488.12347 47.5 
L 488.599313 236.75 
L 489.118414 47.5 
L 489.810549 236.75 
L 490.32965 236.75 
L 491.021785 47.5 
L 491.497628 236.75 
L 492.016729 47.5 
L 492.708864 236.75 
L 493.227965 236.75 
L 493.9201 47.5 
L 494.395943 236.75 
L 494.943883 47.5 
L 495.636018 236.75 
L 496.155119 236.75 
L 496.847254 47.5 
L 497.323096 236.75 
L 497.842198 47.5 
L 498.534332 236.75 
L 499.053434 236.75 
L 499.745569 47.5 
L 500.221411 236.75 
L 500.740512 47.5 
L 501.432647 236.75 
L 501.980587 236.75 
L 502.672722 47.5 
L 503.148565 236.75 
L 503.667666 47.5 
L 504.359801 236.75 
L 504.878902 236.75 
L 505.571037 47.5 
L 506.04688 236.75 
L 506.565981 47.5 
L 507.258116 236.75 
L 507.777217 236.75 
L 508.469352 47.5 
L 508.945195 236.75 
L 509.493135 47.5 
L 510.185269 236.75 
L 510.704371 236.75 
L 511.396506 47.5 
L 511.872348 236.75 
L 512.391449 47.5 
L 513.083584 236.75 
L 513.602685 236.75 
L 514.29482 47.5 
L 514.770663 236.75 
L 515.289764 47.5 
L 515.981899 236.75 
L 516.529839 236.75 
L 517.221974 47.5 
L 517.697817 236.75 
L 518.216918 47.5 
L 518.909053 236.75 
L 519.428154 236.75 
L 520.120289 47.5 
L 520.596132 236.75 
L 521.115233 47.5 
L 521.807368 236.75 
L 522.326469 236.75 
L 523.018604 47.5 
L 523.494446 236.75 
L 524.042386 47.5 
L 524.734521 236.75 
L 525.253622 236.75 
L 525.945757 47.5 
L 526.4216 236.75 
L 526.940701 47.5 
L 527.632836 236.75 
L 528.151937 236.75 
L 528.844072 47.5 
L 529.319915 236.75 
L 529.839016 47.5 
L 530.531151 236.75 
L 531.079091 236.75 
L 531.771226 47.5 
L 532.247069 236.75 
L 532.76617 47.5 
L 533.458305 236.75 
L 533.977406 236.75 
L 534.669541 47.5 
L 535.145383 236.75 
L 535.664484 47.5 
L 536.356619 236.75 
L 536.87572 236.75 
L 537.567855 47.5 
L 538.043698 236.75 
L 538.591638 47.5 
L 539.283773 236.75 
L 539.802874 236.75 
L 540.495009 47.5 
L 540.970852 236.75 
L 541.489953 47.5 
L 542.182088 236.75 
L 542.701189 236.75 
L 543.393324 47.5 
L 543.869167 236.75 
L 544.388268 47.5 
L 545.080403 236.75 
L 545.628343 236.75 
L 546.320478 47.5 
L 546.79632 236.75 
L 547.315421 47.5 
L 548.007556 236.75 
L 548.526657 236.75 
L 549.218792 47.5 
L 549.694635 236.75 
L 550.213736 47.5 
L 550.905871 236.75 
L 551.424972 236.75 
L 552.117107 47.5 
L 552.59295 236.75 
L 553.14089 47.5 
L 553.833025 236.75 
L 554.352126 236.75 
L 555.044261 47.5 
L 555.520104 236.75 
L 556.039205 47.5 
L 556.73134 236.75 
L 557.250441 236.75 
L 557.942576 47.5 
L 558.418418 236.75 
L 558.937519 47.5 
L 559.629654 236.75 
L 560.177594 236.75 
L 560.869729 47.5 
L 561.345572 236.75 
L 561.864673 47.5 
L 562.556808 236.75 
L 563.075909 236.75 
L 563.768044 47.5 
L 564.243887 236.75 
L 564.762988 47.5 
L 565.455123 236.75 
L 565.974224 236.75 
L 566.666359 47.5 
L 567.142202 236.75 
L 567.690142 47.5 
L 568.382277 236.75 
L 568.901378 236.75 
L 569.593513 47.5 
L 570.069355 236.75 
L 570.588456 47.5 
L 571.280591 236.75 
L 571.799692 236.75 
L 572.491827 47.5 
L 572.96767 236.75 
L 573.486771 47.5 
L 574.178906 236.75 
L 574.726846 236.75 
L 575.418981 47.5 
L 575.894824 236.75 
L 576.413925 47.5 
L 577.10606 236.75 
L 577.625161 236.75 
L 578.317296 47.5 
L 578.793139 236.75 
L 579.31224 47.5 
L 580.004375 236.75 
L 580.523476 236.75 
L 581.215611 47.5 
L 581.691453 236.75 
L 582.239393 47.5 
L 582.931528 236.75 
L 583.450629 236.75 
L 584.142764 47.5 
L 584.618607 236.75 
L 585.137708 47.5 
L 585.829843 236.75 
L 586.348944 236.75 
L 587.041079 47.5 
L 587.516922 236.75 
L 588.036023 47.5 
L 588.728158 236.75 
L 589.276098 236.75 
L 589.968233 47.5 
L 590.444076 236.75 
L 590.963177 47.5 
L 591.655312 236.75 
L 592.174413 236.75 
L 592.866548 47.5 
L 593.34239 236.75 
L 593.861492 47.5 
L 594.553626 236.75 
L 595.072728 236.75 
L 595.764862 47.5 
L 596.240705 236.75 
L 596.788645 47.5 
L 597.48078 236.75 
L 597.999881 236.75 
L 598.692016 47.5 
L 599.167859 236.75 
L 599.68696 47.5 
L 600.379095 236.75 
L 600.898196 236.75 
L 601.590331 47.5 
L 602.066174 236.75 
L 602.585275 47.5 
L 603.27741 236.75 
L 603.82535 236.75 
L 604.517485 47.5 
L 604.993327 236.75 
L 605.512429 47.5 
L 606.204563 236.75 
L 606.723665 236.75 
L 607.415799 47.5 
L 607.891642 236.75 
L 608.410743 47.5 
L 609.102878 236.75 
L 609.621979 236.75 
L 610.314114 47.5 
L 610.789957 236.75 
L 611.309058 47.5 
L 611.972354 236.75 
L 612.520294 236.75 
L 613.399882 47.5 
L 613.846886 236.75 
L 614.380407 47.5 
L 615.259995 236.75 
L 615.822354 236.75 
L 617.192204 47.5 
L 617.668047 236.75 
L 618.201568 47.5 
L 618.908122 236.75 
L 619.643515 236.75 
L 620.306811 47.5 
L 620.797074 236.75 
L 621.503628 47.5 
L 624.935463 236.75 
L 625.454564 236.75 
L 626.146699 47.5 
L 626.622542 236.75 
L 627.141643 47.5 
L 627.833778 236.75 
L 628.352879 236.75 
L 629.045014 47.5 
L 629.520857 236.75 
L 630.068797 47.5 
L 630.760932 236.75 
L 631.280033 236.75 
L 631.972168 47.5 
L 632.448011 236.75 
L 632.967112 47.5 
L 633.659247 236.75 
L 634.178348 236.75 
L 634.870483 47.5 
L 635.346325 236.75 
L 635.865427 47.5 
L 636.557561 236.75 
L 637.105501 236.75 
L 637.797636 47.5 
L 638.273479 236.75 
L 638.79258 47.5 
L 639.484715 236.75 
L 640.003816 236.75 
L 640.695951 47.5 
L 641.171794 236.75 
L 641.690895 47.5 
L 642.38303 236.75 
L 642.902131 236.75 
L 643.594266 47.5 
L 644.070109 236.75 
L 644.618049 47.5 
L 645.310184 236.75 
L 645.829285 236.75 
L 646.52142 47.5 
L 646.997262 236.75 
L 647.516364 47.5 
L 648.208498 236.75 
L 648.7276 236.75 
L 649.419734 47.5 
L 649.895577 236.75 
L 650.414678 47.5 
L 651.106813 236.75 
L 651.654753 236.75 
L 652.346888 47.5 
L 652.822731 236.75 
L 653.341832 47.5 
L 654.033967 236.75 
L 654.553068 236.75 
L 655.245203 47.5 
L 655.721046 236.75 
L 656.240147 47.5 
L 656.932282 236.75 
L 657.451383 236.75 
L 658.143518 47.5 
L 658.61936 236.75 
L 659.167301 47.5 
L 659.859435 236.75 
L 660.378537 236.75 
L 661.070671 47.5 
L 661.546514 236.75 
L 662.065615 47.5 
L 662.75775 236.75 
L 663.276851 236.75 
L 663.968986 47.5 
L 664.444829 236.75 
L 664.96393 47.5 
L 665.656065 236.75 
L 666.204005 236.75 
L 666.89614 47.5 
L 667.371983 236.75 
L 667.891084 47.5 
L 668.583219 236.75 
L 669.10232 236.75 
L 669.794455 47.5 
L 670.270297 236.75 
L 670.789399 47.5 
L 671.481533 236.75 
L 672.000635 236.75 
L 672.692769 47.5 
L 673.168612 236.75 
L 673.716552 47.5 
L 674.408687 236.75 
L 674.927788 236.75 
L 675.619923 47.5 
L 676.095766 236.75 
L 676.614867 47.5 
L 677.307002 236.75 
L 677.826103 236.75 
L 678.518238 47.5 
L 678.994081 236.75 
L 679.513182 47.5 
L 679.513182 47.5 
" clip-path="url(#pd9b949a52e)" style="fill: none; stroke: #1f77b4; stroke-width: 1.5; stroke-linecap: square"/>
   </g>
   <g id="patch_3">
    <path d="M 56.09 246.25 
L 56.09 38 
" style="fill: none; stroke: #000000; stroke-width: 0.8; stroke-linejoin: miter; stroke-linecap: square"/>
   </g>
   <g id="patch_4">
    <path d="M 709.2 246.25 
L 709.2 38 
" style="fill: none; stroke: #000000; stroke-width: 0.8; stroke-linejoin: miter; stroke-linecap: square"/>
   </g>
   <g id="patch_5">
    <path d="M 56.09 246.04 
L 709.2 246.04 
" style="fill: none; stroke: #000000; stroke-width: 0.8; stroke-linejoin: miter; stroke-linecap: square"/>
   </g>
   <g id="patch_6">
    <path d="M 56.09 37.8 
L 709.2 37.8 
" style="fill: none; stroke: #000000; stroke-width: 0.8; stroke-linejoin: miter; stroke-linecap: square"/>
   </g>
   <g id="text_17">
    <!-- packetSentToPeerMulticast:vector(packetBytes) (HandoverShowcase.ap2.wlan[0].mac.dcf) -->
    <g transform="translate(110.281563 21.201563) scale(0.12 -0.12)">
     <defs>
      <path id="DejaVuSans-70" d="M 1159 525 
L 1159 -1331 
L 581 -1331 
L 581 3500 
L 1159 3500 
L 1159 2969 
Q 1341 3281 1617 3432 
Q 1894 3584 2278 3584 
Q 2916 3584 3314 3078 
Q 3713 2572 3713 1747 
Q 3713 922 3314 415 
Q 2916 -91 2278 -91 
Q 1894 -91 1617 61 
Q 1341 213 1159 525 
z
M 3116 1747 
Q 3116 2381 2855 2742 
Q 2594 3103 2138 3103 
Q 1681 3103 1420 2742 
Q 1159 2381 1159 1747 
Q 1159 1113 1420 752 
Q 1681 391 2138 391 
Q 2594 391 2855 752 
Q 3116 1113 3116 1747 
z
" transform="scale(0.015625)"/>
      <path id="DejaVuSans-63" d="M 3122 3366 
L 3122 2828 
Q 2878 2963 2633 3030 
Q 2388 3097 2138 3097 
Q 1578 3097 1268 2742 
Q 959 2388 959 1747 
Q 959 1106 1268 751 
Q 1578 397 2138 397 
Q 2388 397 2633 464 
Q 2878 531 3122 666 
L 3122 134 
Q 2881 22 2623 -34 
Q 2366 -91 2075 -91 
Q 1284 -91 818 406 
Q 353 903 353 1747 
Q 353 2603 823 3093 
Q 1294 3584 2113 3584 
Q 2378 3584 2631 3529 
Q 2884 3475 3122 3366 
z
" transform="scale(0.015625)"/>
      <path id="DejaVuSans-6b" d="M 581 4863 
L 1159 4863 
L 1159 1991 
L 2875 3500 
L 3609 3500 
L 1753 1863 
L 3688 0 
L 2938 0 
L 1159 1709 
L 1159 0 
L 581 0 
L 581 4863 
z
" transform="scale(0.015625)"/>
      <path id="DejaVuSans-53" d="M 3425 4513 
L 3425 3897 
Q 3066 4069 2747 4153 
Q 2428 4238 2131 4238 
Q 1616 4238 1336 4038 
Q 1056 3838 1056 3469 
Q 1056 3159 1242 3001 
Q 1428 2844 1947 2747 
L 2328 2669 
Q 3034 2534 3370 2195 
Q 3706 1856 3706 1288 
Q 3706 609 3251 259 
Q 2797 -91 1919 -91 
Q 1588 -91 1214 -16 
Q 841 59 441 206 
L 441 856 
Q 825 641 1194 531 
Q 1563 422 1919 422 
Q 2459 422 2753 634 
Q 3047 847 3047 1241 
Q 3047 1584 2836 1778 
Q 2625 1972 2144 2069 
L 1759 2144 
Q 1053 2284 737 2584 
Q 422 2884 422 3419 
Q 422 4038 858 4394 
Q 1294 4750 2059 4750 
Q 2388 4750 2728 4690 
Q 3069 4631 3425 4513 
z
" transform="scale(0.015625)"/>
      <path id="DejaVuSans-6e" d="M 3513 2113 
L 3513 0 
L 2938 0 
L 2938 2094 
Q 2938 2591 2744 2837 
Q 2550 3084 2163 3084 
Q 1697 3084 1428 2787 
Q 1159 2491 1159 1978 
L 1159 0 
L 581 0 
L 581 3500 
L 1159 3500 
L 1159 2956 
Q 1366 3272 1645 3428 
Q 1925 3584 2291 3584 
Q 2894 3584 3203 3211 
Q 3513 2838 3513 2113 
z
" transform="scale(0.015625)"/>
      <path id="DejaVuSans-6f" d="M 1959 3097 
Q 1497 3097 1228 2736 
Q 959 2375 959 1747 
Q 959 1119 1226 758 
Q 1494 397 1959 397 
Q 2419 397 2687 759 
Q 2956 1122 2956 1747 
Q 2956 2369 2687 2733 
Q 2419 3097 1959 3097 
z
M 1959 3584 
Q 2709 3584 3137 3096 
Q 3566 2609 3566 1747 
Q 3566 888 3137 398 
Q 2709 -91 1959 -91 
Q 1206 -91 779 398 
Q 353 888 353 1747 
Q 353 2609 779 3096 
Q 1206 3584 1959 3584 
z
" transform="scale(0.015625)"/>
      <path id="DejaVuSans-50" d="M 1259 4147 
L 1259 2394 
L 2053 2394 
Q 2494 2394 2734 2622 
Q 2975 2850 2975 3272 
Q 2975 3691 2734 3919 
Q 2494 4147 2053 4147 
L 1259 4147 
z
M 628 4666 
L 2053 4666 
Q 2838 4666 3239 4311 
Q 3641 3956 3641 3272 
Q 3641 2581 3239 2228 
Q 2838 1875 2053 1875 
L 1259 1875 
L 1259 0 
L 628 0 
L 628 4666 
z
" transform="scale(0.015625)"/>
      <path id="DejaVuSans-72" d="M 2631 2963 
Q 2534 3019 2420 3045 
Q 2306 3072 2169 3072 
Q 1681 3072 1420 2755 
Q 1159 2438 1159 1844 
L 1159 0 
L 581 0 
L 581 3500 
L 1159 3500 
L 1159 2956 
Q 1341 3275 1631 3429 
Q 1922 3584 2338 3584 
Q 2397 3584 2469 3576 
Q 2541 3569 2628 3553 
L 2631 2963 
z
" transform="scale(0.015625)"/>
      <path id="DejaVuSans-4d" d="M 628 4666 
L 1569 4666 
L 2759 1491 
L 3956 4666 
L 4897 4666 
L 4897 0 
L 4281 0 
L 4281 4097 
L 3078 897 
L 2444 897 
L 1241 4097 
L 1241 0 
L 628 0 
L 628 4666 
z
" transform="scale(0.015625)"/>
      <path id="DejaVuSans-3a" d="M 750 794 
L 1409 794 
L 1409 0 
L 750 0 
L 750 794 
z
M 750 3309 
L 1409 3309 
L 1409 2516 
L 750 2516 
L 750 3309 
z
" transform="scale(0.015625)"/>
      <path id="DejaVuSans-76" d="M 191 3500 
L 800 3500 
L 1894 563 
L 2988 3500 
L 3597 3500 
L 2284 0 
L 1503 0 
L 191 3500 
z
" transform="scale(0.015625)"/>
      <path id="DejaVuSans-42" d="M 1259 2228 
L 1259 519 
L 2272 519 
Q 2781 519 3026 730 
Q 3272 941 3272 1375 
Q 3272 1813 3026 2020 
Q 2781 2228 2272 2228 
L 1259 2228 
z
M 1259 4147 
L 1259 2741 
L 2194 2741 
Q 2656 2741 2882 2914 
Q 3109 3088 3109 3444 
Q 3109 3797 2882 3972 
Q 2656 4147 2194 4147 
L 1259 4147 
z
M 628 4666 
L 2241 4666 
Q 2963 4666 3353 4366 
Q 3744 4066 3744 3513 
Q 3744 3084 3544 2831 
Q 3344 2578 2956 2516 
Q 3422 2416 3680 2098 
Q 3938 1781 3938 1306 
Q 3938 681 3513 340 
Q 3088 0 2303 0 
L 628 0 
L 628 4666 
z
" transform="scale(0.015625)"/>
      <path id="DejaVuSans-79" d="M 2059 -325 
Q 1816 -950 1584 -1140 
Q 1353 -1331 966 -1331 
L 506 -1331 
L 506 -850 
L 844 -850 
Q 1081 -850 1212 -737 
Q 1344 -625 1503 -206 
L 1606 56 
L 191 3500 
L 800 3500 
L 1894 763 
L 2988 3500 
L 3597 3500 
L 2059 -325 
z
" transform="scale(0.015625)"/>
      <path id="DejaVuSans-48" d="M 628 4666 
L 1259 4666 
L 1259 2753 
L 3553 2753 
L 3553 4666 
L 4184 4666 
L 4184 0 
L 3553 0 
L 3553 2222 
L 1259 2222 
L 1259 0 
L 628 0 
L 628 4666 
z
" transform="scale(0.015625)"/>
      <path id="DejaVuSans-64" d="M 2906 2969 
L 2906 4863 
L 3481 4863 
L 3481 0 
L 2906 0 
L 2906 525 
Q 2725 213 2448 61 
Q 2172 -91 1784 -91 
Q 1150 -91 751 415 
Q 353 922 353 1747 
Q 353 2572 751 3078 
Q 1150 3584 1784 3584 
Q 2172 3584 2448 3432 
Q 2725 3281 2906 2969 
z
M 947 1747 
Q 947 1113 1208 752 
Q 1469 391 1925 391 
Q 2381 391 2643 752 
Q 2906 1113 2906 1747 
Q 2906 2381 2643 2742 
Q 2381 3103 1925 3103 
Q 1469 3103 1208 2742 
Q 947 2381 947 1747 
z
" transform="scale(0.015625)"/>
      <path id="DejaVuSans-68" d="M 3513 2113 
L 3513 0 
L 2938 0 
L 2938 2094 
Q 2938 2591 2744 2837 
Q 2550 3084 2163 3084 
Q 1697 3084 1428 2787 
Q 1159 2491 1159 1978 
L 1159 0 
L 581 0 
L 581 4863 
L 1159 4863 
L 1159 2956 
Q 1366 3272 1645 3428 
Q 1925 3584 2291 3584 
Q 2894 3584 3203 3211 
Q 3513 2838 3513 2113 
z
" transform="scale(0.015625)"/>
      <path id="DejaVuSans-77" d="M 269 3500 
L 844 3500 
L 1563 769 
L 2278 3500 
L 2956 3500 
L 3675 769 
L 4391 3500 
L 4966 3500 
L 4050 0 
L 3372 0 
L 2619 2869 
L 1863 0 
L 1184 0 
L 269 3500 
z
" transform="scale(0.015625)"/>
      <path id="DejaVuSans-5b" d="M 550 4863 
L 1875 4863 
L 1875 4416 
L 1125 4416 
L 1125 -397 
L 1875 -397 
L 1875 -844 
L 550 -844 
L 550 4863 
z
" transform="scale(0.015625)"/>
      <path id="DejaVuSans-5d" d="M 1947 4863 
L 1947 -844 
L 622 -844 
L 622 -397 
L 1369 -397 
L 1369 4416 
L 622 4416 
L 622 4863 
L 1947 4863 
z
" transform="scale(0.015625)"/>
      <path id="DejaVuSans-66" d="M 2375 4863 
L 2375 4384 
L 1825 4384 
Q 1516 4384 1395 4259 
Q 1275 4134 1275 3809 
L 1275 3500 
L 2222 3500 
L 2222 3053 
L 1275 3053 
L 1275 0 
L 697 0 
L 697 3053 
L 147 3053 
L 147 3500 
L 697 3500 
L 697 3744 
Q 697 4328 969 4595 
Q 1241 4863 1831 4863 
L 2375 4863 
z
" transform="scale(0.015625)"/>
     </defs>
     <use xlink:href="#DejaVuSans-70"/>
     <use xlink:href="#DejaVuSans-61" x="63.476562"/>
     <use xlink:href="#DejaVuSans-63" x="124.755859"/>
     <use xlink:href="#DejaVuSans-6b" x="179.736328"/>
     <use xlink:href="#DejaVuSans-65" x="234.021484"/>
     <use xlink:href="#DejaVuSans-74" x="295.544922"/>
     <use xlink:href="#DejaVuSans-53" x="334.753906"/>
     <use xlink:href="#DejaVuSans-65" x="398.230469"/>
     <use xlink:href="#DejaVuSans-6e" x="459.753906"/>
     <use xlink:href="#DejaVuSans-74" x="523.132812"/>
     <use xlink:href="#DejaVuSans-54" x="562.341797"/>
     <use xlink:href="#DejaVuSans-6f" x="606.425781"/>
     <use xlink:href="#DejaVuSans-50" x="667.607422"/>
     <use xlink:href="#DejaVuSans-65" x="724.285156"/>
     <use xlink:href="#DejaVuSans-65" x="785.808594"/>
     <use xlink:href="#DejaVuSans-72" x="847.332031"/>
     <use xlink:href="#DejaVuSans-4d" x="888.445312"/>
     <use xlink:href="#DejaVuSans-75" x="974.724609"/>
     <use xlink:href="#DejaVuSans-6c" x="1038.103516"/>
     <use xlink:href="#DejaVuSans-74" x="1065.886719"/>
     <use xlink:href="#DejaVuSans-69" x="1105.095703"/>
     <use xlink:href="#DejaVuSans-63" x="1132.878906"/>
     <use xlink:href="#DejaVuSans-61" x="1187.859375"/>
     <use xlink:href="#DejaVuSans-73" x="1249.138672"/>
     <use xlink:href="#DejaVuSans-74" x="1301.238281"/>
     <use xlink:href="#DejaVuSans-3a" x="1340.447266"/>
     <use xlink:href="#DejaVuSans-76" x="1374.138672"/>
     <use xlink:href="#DejaVuSans-65" x="1433.318359"/>
     <use xlink:href="#DejaVuSans-63" x="1494.841797"/>
     <use xlink:href="#DejaVuSans-74" x="1549.822266"/>
     <use xlink:href="#DejaVuSans-6f" x="1589.03125"/>
     <use xlink:href="#DejaVuSans-72" x="1650.212891"/>
     <use xlink:href="#DejaVuSans-28" x="1691.326172"/>
     <use xlink:href="#DejaVuSans-70" x="1730.339844"/>
     <use xlink:href="#DejaVuSans-61" x="1793.816406"/>
     <use xlink:href="#DejaVuSans-63" x="1855.095703"/>
     <use xlink:href="#DejaVuSans-6b" x="1910.076172"/>
     <use xlink:href="#DejaVuSans-65" x="1964.361328"/>
     <use xlink:href="#DejaVuSans-74" x="2025.884766"/>
     <use xlink:href="#DejaVuSans-42" x="2065.09375"/>
     <use xlink:href="#DejaVuSans-79" x="2133.697266"/>
     <use xlink:href="#DejaVuSans-74" x="2192.876953"/>
     <use xlink:href="#DejaVuSans-65" x="2232.085938"/>
     <use xlink:href="#DejaVuSans-73" x="2293.609375"/>
     <use xlink:href="#DejaVuSans-29" x="2345.708984"/>
     <use xlink:href="#DejaVuSans-20" x="2384.722656"/>
     <use xlink:href="#DejaVuSans-28" x="2416.509766"/>
     <use xlink:href="#DejaVuSans-48" x="2455.523438"/>
     <use xlink:href="#DejaVuSans-61" x="2530.71875"/>
     <use xlink:href="#DejaVuSans-6e" x="2591.998047"/>
     <use xlink:href="#DejaVuSans-64" x="2655.376953"/>
     <use xlink:href="#DejaVuSans-6f" x="2718.853516"/>
     <use xlink:href="#DejaVuSans-76" x="2780.035156"/>
     <use xlink:href="#DejaVuSans-65" x="2839.214844"/>
     <use xlink:href="#DejaVuSans-72" x="2900.738281"/>
     <use xlink:href="#DejaVuSans-53" x="2941.851562"/>
     <use xlink:href="#DejaVuSans-68" x="3005.328125"/>
     <use xlink:href="#DejaVuSans-6f" x="3068.707031"/>
     <use xlink:href="#DejaVuSans-77" x="3129.888672"/>
     <use xlink:href="#DejaVuSans-63" x="3211.675781"/>
     <use xlink:href="#DejaVuSans-61" x="3266.65625"/>
     <use xlink:href="#DejaVuSans-73" x="3327.935547"/>
     <use xlink:href="#DejaVuSans-65" x="3380.035156"/>
     <use xlink:href="#DejaVuSans-2e" x="3441.558594"/>
     <use xlink:href="#DejaVuSans-61" x="3473.345703"/>
     <use xlink:href="#DejaVuSans-70" x="3534.625"/>
     <use xlink:href="#DejaVuSans-32" x="3598.101562"/>
     <use xlink:href="#DejaVuSans-2e" x="3661.724609"/>
     <use xlink:href="#DejaVuSans-77" x="3693.511719"/>
     <use xlink:href="#DejaVuSans-6c" x="3775.298828"/>
     <use xlink:href="#DejaVuSans-61" x="3803.082031"/>
     <use xlink:href="#DejaVuSans-6e" x="3864.361328"/>
     <use xlink:href="#DejaVuSans-5b" x="3927.740234"/>
     <use xlink:href="#DejaVuSans-30" x="3966.753906"/>
     <use xlink:href="#DejaVuSans-5d" x="4030.376953"/>
     <use xlink:href="#DejaVuSans-2e" x="4069.390625"/>
     <use xlink:href="#DejaVuSans-6d" x="4101.177734"/>
     <use xlink:href="#DejaVuSans-61" x="4198.589844"/>
     <use xlink:href="#DejaVuSans-63" x="4259.869141"/>
     <use xlink:href="#DejaVuSans-2e" x="4314.849609"/>
     <use xlink:href="#DejaVuSans-64" x="4346.636719"/>
     <use xlink:href="#DejaVuSans-63" x="4410.113281"/>
     <use xlink:href="#DejaVuSans-66" x="4465.09375"/>
     <use xlink:href="#DejaVuSans-29" x="4500.298828"/>
    </g>
   </g>
   <g id="legend_1">
    <g id="patch_7">
     <path d="M 63.09 60.478125 
L 188.572813 60.478125 
Q 190.572813 60.478125 190.572813 58.478125 
L 190.572813 44.8 
Q 190.572813 42.8 188.572813 42.8 
L 63.09 42.8 
Q 61.09 42.8 61.09 44.8 
L 61.09 58.478125 
Q 61.09 60.478125 63.09 60.478125 
z
" style="fill: #ffffff; opacity: 0.8; stroke: #cccccc; stroke-linejoin: miter"/>
    </g>
    <g id="line2d_28">
     <path d="M 65.09 50.898438 
L 75.09 50.898438 
L 85.09 50.898438 
" style="fill: none; stroke: #1f77b4; stroke-width: 1.5; stroke-linecap: square"/>
    </g>
    <g id="text_18">
     <!-- Δvalue per sample -->
     <g transform="translate(93.09 54.398438) scale(0.1 -0.1)">
      <defs>
       <path id="DejaVuSans-394" d="M 2188 4044 
L 906 525 
L 3472 525 
L 2188 4044 
z
M 50 0 
L 1831 4666 
L 2547 4666 
L 4325 0 
L 50 0 
z
" transform="scale(0.015625)"/>
      </defs>
      <use xlink:href="#DejaVuSans-394"/>
      <use xlink:href="#DejaVuSans-76" x="68.408203"/>
      <use xlink:href="#DejaVuSans-61" x="127.587891"/>
      <use xlink:href="#DejaVuSans-6c" x="188.867188"/>
      <use xlink:href="#DejaVuSans-75" x="216.650391"/>
      <use xlink:href="#DejaVuSans-65" x="280.029297"/>
      <use xlink:href="#DejaVuSans-20" x="341.552734"/>
      <use xlink:href="#DejaVuSans-70" x="373.339844"/>
      <use xlink:href="#DejaVuSans-65" x="436.816406"/>
      <use xlink:href="#DejaVuSans-72" x="498.339844"/>
      <use xlink:href="#DejaVuSans-20" x="539.453125"/>
      <use xlink:href="#DejaVuSans-73" x="571.240234"/>
      <use xlink:href="#DejaVuSans-61" x="623.339844"/>
      <use xlink:href="#DejaVuSans-6d" x="684.619141"/>
      <use xlink:href="#DejaVuSans-70" x="782.03125"/>
      <use xlink:href="#DejaVuSans-6c" x="845.507812"/>
      <use xlink:href="#DejaVuSans-65" x="873.291016"/>
     </g>
    </g>
   </g>
  </g>
 </g>
 <defs>
  <clipPath id="pd9b949a52e">
   <rect x="56.09" y="37.8" width="653.11" height="208.24"/>
  </clipPath>
 </defs>
</svg>
