<?xml version="1.0" encoding="utf-8" standalone="no"?>
<!DOCTYPE svg PUBLIC "-//W3C//DTD SVG 1.1//EN"
  "http://www.w3.org/Graphics/SVG/1.1/DTD/svg11.dtd">
<svg xmlns:xlink="http://www.w3.org/1999/xlink" width="720pt" height="288pt" viewBox="0 0 720 288" xmlns="http://www.w3.org/2000/svg" version="1.1">
 <metadata>
  <rdf:RDF xmlns:dc="http://purl.org/dc/elements/1.1/" xmlns:cc="http://creativecommons.org/ns#" xmlns:rdf="http://www.w3.org/1999/02/22-rdf-syntax-ns#">
   <cc:Work>
    <dc:type rdf:resource="http://purl.org/dc/dcmitype/StillImage"/>
    <dc:date>2025-07-27T15:08:48.627878</dc:date>
    <dc:format>image/svg+xml</dc:format>
    <dc:creator>
     <cc:Agent>
      <dc:title>Matplotlib v3.9.2, https://matplotlib.org/</dc:title>
     </cc:Agent>
    </dc:creator>
   </cc:Work>
  </rdf:RDF>
 </metadata>
 <defs>
  <style type="text/css">*{stroke-linejoin: round; stroke-linecap: butt}</style>
 </defs>
 <g id="figure_1">
  <g id="patch_1">
   <path d="M 0 288 
L 720 288 
L 720 0 
L 0 0 
z
" style="fill: #ffffff"/>
  </g>
  <g id="axes_1">
   <g id="patch_2">
    <path d="M 54.02 246.04 
L 709.2 246.04 
L 709.2 26.88 
L 54.02 26.88 
z
" style="fill: #ffffff"/>
   </g>
   <g id="matplotlib.axis_1">
    <g id="xtick_1">
     <g id="line2d_1">
      <path d="M 83.800909 246.04 
L 83.800909 26.88 
" clip-path="url(#p738c64d80e)" style="fill: none; stroke: #b0b0b0; stroke-width: 0.8; stroke-linecap: square"/>
     </g>
     <g id="line2d_2">
      <defs>
       <path id="mb3ee009680" d="M 0 0 
L 0 3.5 
" style="stroke: #000000; stroke-width: 0.8"/>
      </defs>
      <g>
       <use xlink:href="#mb3ee009680" x="83.800909" y="246.04" style="stroke: #000000; stroke-width: 0.8"/>
      </g>
     </g>
     <g id="text_1">
      <!-- 0 -->
      <g transform="translate(80.619659 260.638438) scale(0.1 -0.1)">
       <defs>
        <path id="DejaVuSans-30" d="M 2034 4250 
Q 1547 4250 1301 3770 
Q 1056 3291 1056 2328 
Q 1056 1369 1301 889 
Q 1547 409 2034 409 
Q 2525 409 2770 889 
Q 3016 1369 3016 2328 
Q 3016 3291 2770 3770 
Q 2525 4250 2034 4250 
z
M 2034 4750 
Q 2819 4750 3233 4129 
Q 3647 3509 3647 2328 
Q 3647 1150 3233 529 
Q 2819 -91 2034 -91 
Q 1250 -91 836 529 
Q 422 1150 422 2328 
Q 422 3509 836 4129 
Q 1250 4750 2034 4750 
z
" transform="scale(0.015625)"/>
       </defs>
       <use xlink:href="#DejaVuSans-30"/>
      </g>
     </g>
    </g>
    <g id="xtick_2">
     <g id="line2d_3">
      <path d="M 228.315814 246.04 
L 228.315814 26.88 
" clip-path="url(#p738c64d80e)" style="fill: none; stroke: #b0b0b0; stroke-width: 0.8; stroke-linecap: square"/>
     </g>
     <g id="line2d_4">
      <g>
       <use xlink:href="#mb3ee009680" x="228.315814" y="246.04" style="stroke: #000000; stroke-width: 0.8"/>
      </g>
     </g>
     <g id="text_2">
      <!-- 10000 -->
      <g transform="translate(212.409564 260.638438) scale(0.1 -0.1)">
       <defs>
        <path id="DejaVuSans-31" d="M 794 531 
L 1825 531 
L 1825 4091 
L 703 3866 
L 703 4441 
L 1819 4666 
L 2450 4666 
L 2450 531 
L 3481 531 
L 3481 0 
L 794 0 
L 794 531 
z
" transform="scale(0.015625)"/>
       </defs>
       <use xlink:href="#DejaVuSans-31"/>
       <use xlink:href="#DejaVuSans-30" x="63.623047"/>
       <use xlink:href="#DejaVuSans-30" x="127.246094"/>
       <use xlink:href="#DejaVuSans-30" x="190.869141"/>
       <use xlink:href="#DejaVuSans-30" x="254.492188"/>
      </g>
     </g>
    </g>
    <g id="xtick_3">
     <g id="line2d_5">
      <path d="M 372.83072 246.04 
L 372.83072 26.88 
" clip-path="url(#p738c64d80e)" style="fill: none; stroke: #b0b0b0; stroke-width: 0.8; stroke-linecap: square"/>
     </g>
     <g id="line2d_6">
      <g>
       <use xlink:href="#mb3ee009680" x="372.83072" y="246.04" style="stroke: #000000; stroke-width: 0.8"/>
      </g>
     </g>
     <g id="text_3">
      <!-- 20000 -->
      <g transform="translate(356.92447 260.638438) scale(0.1 -0.1)">
       <defs>
        <path id="DejaVuSans-32" d="M 1228 531 
L 3431 531 
L 3431 0 
L 469 0 
L 469 531 
Q 828 903 1448 1529 
Q 2069 2156 2228 2338 
Q 2531 2678 2651 2914 
Q 2772 3150 2772 3378 
Q 2772 3750 2511 3984 
Q 2250 4219 1831 4219 
Q 1534 4219 1204 4116 
Q 875 4013 500 3803 
L 500 4441 
Q 881 4594 1212 4672 
Q 1544 4750 1819 4750 
Q 2544 4750 2975 4387 
Q 3406 4025 3406 3419 
Q 3406 3131 3298 2873 
Q 3191 2616 2906 2266 
Q 2828 2175 2409 1742 
Q 1991 1309 1228 531 
z
" transform="scale(0.015625)"/>
       </defs>
       <use xlink:href="#DejaVuSans-32"/>
       <use xlink:href="#DejaVuSans-30" x="63.623047"/>
       <use xlink:href="#DejaVuSans-30" x="127.246094"/>
       <use xlink:href="#DejaVuSans-30" x="190.869141"/>
       <use xlink:href="#DejaVuSans-30" x="254.492188"/>
      </g>
     </g>
    </g>
    <g id="xtick_4">
     <g id="line2d_7">
      <path d="M 517.345625 246.04 
L 517.345625 26.88 
" clip-path="url(#p738c64d80e)" style="fill: none; stroke: #b0b0b0; stroke-width: 0.8; stroke-linecap: square"/>
     </g>
     <g id="line2d_8">
      <g>
       <use xlink:href="#mb3ee009680" x="517.345625" y="246.04" style="stroke: #000000; stroke-width: 0.8"/>
      </g>
     </g>
     <g id="text_4">
      <!-- 30000 -->
      <g transform="translate(501.439375 260.638438) scale(0.1 -0.1)">
       <defs>
        <path id="DejaVuSans-33" d="M 2597 2516 
Q 3050 2419 3304 2112 
Q 3559 1806 3559 1356 
Q 3559 666 3084 287 
Q 2609 -91 1734 -91 
Q 1441 -91 1130 -33 
Q 819 25 488 141 
L 488 750 
Q 750 597 1062 519 
Q 1375 441 1716 441 
Q 2309 441 2620 675 
Q 2931 909 2931 1356 
Q 2931 1769 2642 2001 
Q 2353 2234 1838 2234 
L 1294 2234 
L 1294 2753 
L 1863 2753 
Q 2328 2753 2575 2939 
Q 2822 3125 2822 3475 
Q 2822 3834 2567 4026 
Q 2313 4219 1838 4219 
Q 1578 4219 1281 4162 
Q 984 4106 628 3988 
L 628 4550 
Q 988 4650 1302 4700 
Q 1616 4750 1894 4750 
Q 2613 4750 3031 4423 
Q 3450 4097 3450 3541 
Q 3450 3153 3228 2886 
Q 3006 2619 2597 2516 
z
" transform="scale(0.015625)"/>
       </defs>
       <use xlink:href="#DejaVuSans-33"/>
       <use xlink:href="#DejaVuSans-30" x="63.623047"/>
       <use xlink:href="#DejaVuSans-30" x="127.246094"/>
       <use xlink:href="#DejaVuSans-30" x="190.869141"/>
       <use xlink:href="#DejaVuSans-30" x="254.492188"/>
      </g>
     </g>
    </g>
    <g id="xtick_5">
     <g id="line2d_9">
      <path d="M 661.86053 246.04 
L 661.86053 26.88 
" clip-path="url(#p738c64d80e)" style="fill: none; stroke: #b0b0b0; stroke-width: 0.8; stroke-linecap: square"/>
     </g>
     <g id="line2d_10">
      <g>
       <use xlink:href="#mb3ee009680" x="661.86053" y="246.04" style="stroke: #000000; stroke-width: 0.8"/>
      </g>
     </g>
     <g id="text_5">
      <!-- 40000 -->
      <g transform="translate(645.95428 260.638438) scale(0.1 -0.1)">
       <defs>
        <path id="DejaVuSans-34" d="M 2419 4116 
L 825 1625 
L 2419 1625 
L 2419 4116 
z
M 2253 4666 
L 3047 4666 
L 3047 1625 
L 3713 1625 
L 3713 1100 
L 3047 1100 
L 3047 0 
L 2419 0 
L 2419 1100 
L 313 1100 
L 313 1709 
L 2253 4666 
z
" transform="scale(0.015625)"/>
       </defs>
       <use xlink:href="#DejaVuSans-34"/>
       <use xlink:href="#DejaVuSans-30" x="63.623047"/>
       <use xlink:href="#DejaVuSans-30" x="127.246094"/>
       <use xlink:href="#DejaVuSans-30" x="190.869141"/>
       <use xlink:href="#DejaVuSans-30" x="254.492188"/>
      </g>
     </g>
    </g>
    <g id="text_6">
     <!-- Time (s) -->
     <g transform="translate(361.281094 274.316562) scale(0.1 -0.1)">
      <defs>
       <path id="DejaVuSans-54" d="M -19 4666 
L 3928 4666 
L 3928 4134 
L 2272 4134 
L 2272 0 
L 1638 0 
L 1638 4134 
L -19 4134 
L -19 4666 
z
" transform="scale(0.015625)"/>
       <path id="DejaVuSans-69" d="M 603 3500 
L 1178 3500 
L 1178 0 
L 603 0 
L 603 3500 
z
M 603 4863 
L 1178 4863 
L 1178 4134 
L 603 4134 
L 603 4863 
z
" transform="scale(0.015625)"/>
       <path id="DejaVuSans-6d" d="M 3328 2828 
Q 3544 3216 3844 3400 
Q 4144 3584 4550 3584 
Q 5097 3584 5394 3201 
Q 5691 2819 5691 2113 
L 5691 0 
L 5113 0 
L 5113 2094 
Q 5113 2597 4934 2840 
Q 4756 3084 4391 3084 
Q 3944 3084 3684 2787 
Q 3425 2491 3425 1978 
L 3425 0 
L 2847 0 
L 2847 2094 
Q 2847 2600 2669 2842 
Q 2491 3084 2119 3084 
Q 1678 3084 1418 2786 
Q 1159 2488 1159 1978 
L 1159 0 
L 581 0 
L 581 3500 
L 1159 3500 
L 1159 2956 
Q 1356 3278 1631 3431 
Q 1906 3584 2284 3584 
Q 2666 3584 2933 3390 
Q 3200 3197 3328 2828 
z
" transform="scale(0.015625)"/>
       <path id="DejaVuSans-65" d="M 3597 1894 
L 3597 1613 
L 953 1613 
Q 991 1019 1311 708 
Q 1631 397 2203 397 
Q 2534 397 2845 478 
Q 3156 559 3463 722 
L 3463 178 
Q 3153 47 2828 -22 
Q 2503 -91 2169 -91 
Q 1331 -91 842 396 
Q 353 884 353 1716 
Q 353 2575 817 3079 
Q 1281 3584 2069 3584 
Q 2775 3584 3186 3129 
Q 3597 2675 3597 1894 
z
M 3022 2063 
Q 3016 2534 2758 2815 
Q 2500 3097 2075 3097 
Q 1594 3097 1305 2825 
Q 1016 2553 972 2059 
L 3022 2063 
z
" transform="scale(0.015625)"/>
       <path id="DejaVuSans-20" transform="scale(0.015625)"/>
       <path id="DejaVuSans-28" d="M 1984 4856 
Q 1566 4138 1362 3434 
Q 1159 2731 1159 2009 
Q 1159 1288 1364 580 
Q 1569 -128 1984 -844 
L 1484 -844 
Q 1016 -109 783 600 
Q 550 1309 550 2009 
Q 550 2706 781 3412 
Q 1013 4119 1484 4856 
L 1984 4856 
z
" transform="scale(0.015625)"/>
       <path id="DejaVuSans-73" d="M 2834 3397 
L 2834 2853 
Q 2591 2978 2328 3040 
Q 2066 3103 1784 3103 
Q 1356 3103 1142 2972 
Q 928 2841 928 2578 
Q 928 2378 1081 2264 
Q 1234 2150 1697 2047 
L 1894 2003 
Q 2506 1872 2764 1633 
Q 3022 1394 3022 966 
Q 3022 478 2636 193 
Q 2250 -91 1575 -91 
Q 1294 -91 989 -36 
Q 684 19 347 128 
L 347 722 
Q 666 556 975 473 
Q 1284 391 1588 391 
Q 1994 391 2212 530 
Q 2431 669 2431 922 
Q 2431 1156 2273 1281 
Q 2116 1406 1581 1522 
L 1381 1569 
Q 847 1681 609 1914 
Q 372 2147 372 2553 
Q 372 3047 722 3315 
Q 1072 3584 1716 3584 
Q 2034 3584 2315 3537 
Q 2597 3491 2834 3397 
z
" transform="scale(0.015625)"/>
       <path id="DejaVuSans-29" d="M 513 4856 
L 1013 4856 
Q 1481 4119 1714 3412 
Q 1947 2706 1947 2009 
Q 1947 1309 1714 600 
Q 1481 -109 1013 -844 
L 513 -844 
Q 928 -128 1133 580 
Q 1338 1288 1338 2009 
Q 1338 2731 1133 3434 
Q 928 4138 513 4856 
z
" transform="scale(0.015625)"/>
      </defs>
      <use xlink:href="#DejaVuSans-54"/>
      <use xlink:href="#DejaVuSans-69" x="57.958984"/>
      <use xlink:href="#DejaVuSans-6d" x="85.742188"/>
      <use xlink:href="#DejaVuSans-65" x="183.154297"/>
      <use xlink:href="#DejaVuSans-20" x="244.677734"/>
      <use xlink:href="#DejaVuSans-28" x="276.464844"/>
      <use xlink:href="#DejaVuSans-73" x="315.478516"/>
      <use xlink:href="#DejaVuSans-29" x="367.578125"/>
     </g>
    </g>
   </g>
   <g id="matplotlib.axis_2">
    <g id="ytick_1">
     <g id="line2d_11">
      <path d="M 54.02 236.078182 
L 709.2 236.078182 
" clip-path="url(#p738c64d80e)" style="fill: none; stroke: #b0b0b0; stroke-width: 0.8; stroke-linecap: square"/>
     </g>
     <g id="line2d_12">
      <defs>
       <path id="m8c70d76774" d="M 0 0 
L -3.5 0 
" style="stroke: #000000; stroke-width: 0.8"/>
      </defs>
      <g>
       <use xlink:href="#m8c70d76774" x="54.02" y="236.078182" style="stroke: #000000; stroke-width: 0.8"/>
      </g>
     </g>
     <g id="text_7">
      <!-- 0.00 -->
      <g transform="translate(24.754375 239.877401) scale(0.1 -0.1)">
       <defs>
        <path id="DejaVuSans-2e" d="M 684 794 
L 1344 794 
L 1344 0 
L 684 0 
L 684 794 
z
" transform="scale(0.015625)"/>
       </defs>
       <use xlink:href="#DejaVuSans-30"/>
       <use xlink:href="#DejaVuSans-2e" x="63.623047"/>
       <use xlink:href="#DejaVuSans-30" x="95.410156"/>
       <use xlink:href="#DejaVuSans-30" x="159.033203"/>
      </g>
     </g>
    </g>
    <g id="ytick_2">
     <g id="line2d_13">
      <path d="M 54.02 196.230909 
L 709.2 196.230909 
" clip-path="url(#p738c64d80e)" style="fill: none; stroke: #b0b0b0; stroke-width: 0.8; stroke-linecap: square"/>
     </g>
     <g id="line2d_14">
      <g>
       <use xlink:href="#m8c70d76774" x="54.02" y="196.230909" style="stroke: #000000; stroke-width: 0.8"/>
      </g>
     </g>
     <g id="text_8">
      <!-- 0.02 -->
      <g transform="translate(24.754375 200.030128) scale(0.1 -0.1)">
       <use xlink:href="#DejaVuSans-30"/>
       <use xlink:href="#DejaVuSans-2e" x="63.623047"/>
       <use xlink:href="#DejaVuSans-30" x="95.410156"/>
       <use xlink:href="#DejaVuSans-32" x="159.033203"/>
      </g>
     </g>
    </g>
    <g id="ytick_3">
     <g id="line2d_15">
      <path d="M 54.02 156.383636 
L 709.2 156.383636 
" clip-path="url(#p738c64d80e)" style="fill: none; stroke: #b0b0b0; stroke-width: 0.8; stroke-linecap: square"/>
     </g>
     <g id="line2d_16">
      <g>
       <use xlink:href="#m8c70d76774" x="54.02" y="156.383636" style="stroke: #000000; stroke-width: 0.8"/>
      </g>
     </g>
     <g id="text_9">
      <!-- 0.04 -->
      <g transform="translate(24.754375 160.182855) scale(0.1 -0.1)">
       <use xlink:href="#DejaVuSans-30"/>
       <use xlink:href="#DejaVuSans-2e" x="63.623047"/>
       <use xlink:href="#DejaVuSans-30" x="95.410156"/>
       <use xlink:href="#DejaVuSans-34" x="159.033203"/>
      </g>
     </g>
    </g>
    <g id="ytick_4">
     <g id="line2d_17">
      <path d="M 54.02 116.536364 
L 709.2 116.536364 
" clip-path="url(#p738c64d80e)" style="fill: none; stroke: #b0b0b0; stroke-width: 0.8; stroke-linecap: square"/>
     </g>
     <g id="line2d_18">
      <g>
       <use xlink:href="#m8c70d76774" x="54.02" y="116.536364" style="stroke: #000000; stroke-width: 0.8"/>
      </g>
     </g>
     <g id="text_10">
      <!-- 0.06 -->
      <g transform="translate(24.754375 120.335582) scale(0.1 -0.1)">
       <defs>
        <path id="DejaVuSans-36" d="M 2113 2584 
Q 1688 2584 1439 2293 
Q 1191 2003 1191 1497 
Q 1191 994 1439 701 
Q 1688 409 2113 409 
Q 2538 409 2786 701 
Q 3034 994 3034 1497 
Q 3034 2003 2786 2293 
Q 2538 2584 2113 2584 
z
M 3366 4563 
L 3366 3988 
Q 3128 4100 2886 4159 
Q 2644 4219 2406 4219 
Q 1781 4219 1451 3797 
Q 1122 3375 1075 2522 
Q 1259 2794 1537 2939 
Q 1816 3084 2150 3084 
Q 2853 3084 3261 2657 
Q 3669 2231 3669 1497 
Q 3669 778 3244 343 
Q 2819 -91 2113 -91 
Q 1303 -91 875 529 
Q 447 1150 447 2328 
Q 447 3434 972 4092 
Q 1497 4750 2381 4750 
Q 2619 4750 2861 4703 
Q 3103 4656 3366 4563 
z
" transform="scale(0.015625)"/>
       </defs>
       <use xlink:href="#DejaVuSans-30"/>
       <use xlink:href="#DejaVuSans-2e" x="63.623047"/>
       <use xlink:href="#DejaVuSans-30" x="95.410156"/>
       <use xlink:href="#DejaVuSans-36" x="159.033203"/>
      </g>
     </g>
    </g>
    <g id="ytick_5">
     <g id="line2d_19">
      <path d="M 54.02 76.689091 
L 709.2 76.689091 
" clip-path="url(#p738c64d80e)" style="fill: none; stroke: #b0b0b0; stroke-width: 0.8; stroke-linecap: square"/>
     </g>
     <g id="line2d_20">
      <g>
       <use xlink:href="#m8c70d76774" x="54.02" y="76.689091" style="stroke: #000000; stroke-width: 0.8"/>
      </g>
     </g>
     <g id="text_11">
      <!-- 0.08 -->
      <g transform="translate(24.754375 80.48831) scale(0.1 -0.1)">
       <defs>
        <path id="DejaVuSans-38" d="M 2034 2216 
Q 1584 2216 1326 1975 
Q 1069 1734 1069 1313 
Q 1069 891 1326 650 
Q 1584 409 2034 409 
Q 2484 409 2743 651 
Q 3003 894 3003 1313 
Q 3003 1734 2745 1975 
Q 2488 2216 2034 2216 
z
M 1403 2484 
Q 997 2584 770 2862 
Q 544 3141 544 3541 
Q 544 4100 942 4425 
Q 1341 4750 2034 4750 
Q 2731 4750 3128 4425 
Q 3525 4100 3525 3541 
Q 3525 3141 3298 2862 
Q 3072 2584 2669 2484 
Q 3125 2378 3379 2068 
Q 3634 1759 3634 1313 
Q 3634 634 3220 271 
Q 2806 -91 2034 -91 
Q 1263 -91 848 271 
Q 434 634 434 1313 
Q 434 1759 690 2068 
Q 947 2378 1403 2484 
z
M 1172 3481 
Q 1172 3119 1398 2916 
Q 1625 2713 2034 2713 
Q 2441 2713 2670 2916 
Q 2900 3119 2900 3481 
Q 2900 3844 2670 4047 
Q 2441 4250 2034 4250 
Q 1625 4250 1398 4047 
Q 1172 3844 1172 3481 
z
" transform="scale(0.015625)"/>
       </defs>
       <use xlink:href="#DejaVuSans-30"/>
       <use xlink:href="#DejaVuSans-2e" x="63.623047"/>
       <use xlink:href="#DejaVuSans-30" x="95.410156"/>
       <use xlink:href="#DejaVuSans-38" x="159.033203"/>
      </g>
     </g>
    </g>
    <g id="ytick_6">
     <g id="line2d_21">
      <path d="M 54.02 36.841818 
L 709.2 36.841818 
" clip-path="url(#p738c64d80e)" style="fill: none; stroke: #b0b0b0; stroke-width: 0.8; stroke-linecap: square"/>
     </g>
     <g id="line2d_22">
      <g>
       <use xlink:href="#m8c70d76774" x="54.02" y="36.841818" style="stroke: #000000; stroke-width: 0.8"/>
      </g>
     </g>
     <g id="text_12">
      <!-- 0.10 -->
      <g transform="translate(24.754375 40.641037) scale(0.1 -0.1)">
       <use xlink:href="#DejaVuSans-30"/>
       <use xlink:href="#DejaVuSans-2e" x="63.623047"/>
       <use xlink:href="#DejaVuSans-31" x="95.410156"/>
       <use xlink:href="#DejaVuSans-30" x="159.033203"/>
      </g>
     </g>
    </g>
    <g id="text_13">
     <!-- Delta Value -->
     <g transform="translate(18.674688 165.120156) rotate(-90) scale(0.1 -0.1)">
      <defs>
       <path id="DejaVuSans-44" d="M 1259 4147 
L 1259 519 
L 2022 519 
Q 2988 519 3436 956 
Q 3884 1394 3884 2338 
Q 3884 3275 3436 3711 
Q 2988 4147 2022 4147 
L 1259 4147 
z
M 628 4666 
L 1925 4666 
Q 3281 4666 3915 4102 
Q 4550 3538 4550 2338 
Q 4550 1131 3912 565 
Q 3275 0 1925 0 
L 628 0 
L 628 4666 
z
" transform="scale(0.015625)"/>
       <path id="DejaVuSans-6c" d="M 603 4863 
L 1178 4863 
L 1178 0 
L 603 0 
L 603 4863 
z
" transform="scale(0.015625)"/>
       <path id="DejaVuSans-74" d="M 1172 4494 
L 1172 3500 
L 2356 3500 
L 2356 3053 
L 1172 3053 
L 1172 1153 
Q 1172 725 1289 603 
Q 1406 481 1766 481 
L 2356 481 
L 2356 0 
L 1766 0 
Q 1100 0 847 248 
Q 594 497 594 1153 
L 594 3053 
L 172 3053 
L 172 3500 
L 594 3500 
L 594 4494 
L 1172 4494 
z
" transform="scale(0.015625)"/>
       <path id="DejaVuSans-61" d="M 2194 1759 
Q 1497 1759 1228 1600 
Q 959 1441 959 1056 
Q 959 750 1161 570 
Q 1363 391 1709 391 
Q 2188 391 2477 730 
Q 2766 1069 2766 1631 
L 2766 1759 
L 2194 1759 
z
M 3341 1997 
L 3341 0 
L 2766 0 
L 2766 531 
Q 2569 213 2275 61 
Q 1981 -91 1556 -91 
Q 1019 -91 701 211 
Q 384 513 384 1019 
Q 384 1609 779 1909 
Q 1175 2209 1959 2209 
L 2766 2209 
L 2766 2266 
Q 2766 2663 2505 2880 
Q 2244 3097 1772 3097 
Q 1472 3097 1187 3025 
Q 903 2953 641 2809 
L 641 3341 
Q 956 3463 1253 3523 
Q 1550 3584 1831 3584 
Q 2591 3584 2966 3190 
Q 3341 2797 3341 1997 
z
" transform="scale(0.015625)"/>
       <path id="DejaVuSans-56" d="M 1831 0 
L 50 4666 
L 709 4666 
L 2188 738 
L 3669 4666 
L 4325 4666 
L 2547 0 
L 1831 0 
z
" transform="scale(0.015625)"/>
       <path id="DejaVuSans-75" d="M 544 1381 
L 544 3500 
L 1119 3500 
L 1119 1403 
Q 1119 906 1312 657 
Q 1506 409 1894 409 
Q 2359 409 2629 706 
Q 2900 1003 2900 1516 
L 2900 3500 
L 3475 3500 
L 3475 0 
L 2900 0 
L 2900 538 
Q 2691 219 2414 64 
Q 2138 -91 1772 -91 
Q 1169 -91 856 284 
Q 544 659 544 1381 
z
M 1991 3584 
L 1991 3584 
z
" transform="scale(0.015625)"/>
      </defs>
      <use xlink:href="#DejaVuSans-44"/>
      <use xlink:href="#DejaVuSans-65" x="77.001953"/>
      <use xlink:href="#DejaVuSans-6c" x="138.525391"/>
      <use xlink:href="#DejaVuSans-74" x="166.308594"/>
      <use xlink:href="#DejaVuSans-61" x="205.517578"/>
      <use xlink:href="#DejaVuSans-20" x="266.796875"/>
      <use xlink:href="#DejaVuSans-56" x="298.583984"/>
      <use xlink:href="#DejaVuSans-61" x="359.242188"/>
      <use xlink:href="#DejaVuSans-6c" x="420.521484"/>
      <use xlink:href="#DejaVuSans-75" x="448.304688"/>
      <use xlink:href="#DejaVuSans-65" x="511.683594"/>
     </g>
    </g>
   </g>
   <g id="line2d_23">
    <path d="M 83.800909 236.078182 
L 84.335614 36.841818 
L 84.364517 236.078182 
L 85.058189 36.841818 
L 85.087092 236.078182 
L 85.722957 36.841818 
L 85.75186 236.078182 
L 86.257662 36.841818 
L 86.286565 236.078182 
L 87.139203 36.841818 
L 87.168106 236.078182 
L 87.630554 36.841818 
L 87.659457 236.078182 
L 88.36758 36.841818 
L 88.396483 236.078182 
L 89.523699 36.841818 
L 89.552602 236.078182 
L 90.058404 36.841818 
L 90.087307 236.078182 
L 90.752076 36.841818 
L 90.780979 236.078182 
L 91.286781 36.841818 
L 91.315684 236.078182 
L 92.168322 36.841818 
L 92.197225 236.078182 
L 92.659673 36.841818 
L 92.688576 236.078182 
L 93.396699 36.841818 
L 93.425602 236.078182 
L 94.061467 36.841818 
L 94.09037 236.078182 
L 97.327504 36.841818 
L 97.356407 236.078182 
L 98.021176 36.841818 
L 98.050079 236.078182 
L 98.498075 36.841818 
L 98.526978 236.078182 
L 99.018329 36.841818 
L 99.047232 236.078182 
L 99.712 36.841818 
L 99.740903 236.078182 
L 100.232254 36.841818 
L 100.261157 236.078182 
L 100.925925 36.841818 
L 100.954828 236.078182 
L 101.402825 36.841818 
L 101.431728 236.078182 
L 101.923078 36.841818 
L 101.951981 236.078182 
L 102.61675 36.841818 
L 102.645653 236.078182 
L 103.165906 36.841818 
L 103.194809 236.078182 
L 103.859578 36.841818 
L 103.888481 236.078182 
L 104.336477 36.841818 
L 104.36538 236.078182 
L 104.856731 36.841818 
L 104.885634 236.078182 
L 105.550402 36.841818 
L 105.579305 236.078182 
L 106.070656 36.841818 
L 106.099559 236.078182 
L 106.764328 36.841818 
L 106.793231 236.078182 
L 107.241227 36.841818 
L 107.27013 236.078182 
L 107.76148 36.841818 
L 107.790383 236.078182 
L 108.455152 36.841818 
L 108.484055 236.078182 
L 108.975406 36.841818 
L 109.004309 236.078182 
L 109.669077 36.841818 
L 109.69798 236.078182 
L 110.145976 36.841818 
L 110.174879 236.078182 
L 110.695133 36.841818 
L 110.724036 236.078182 
L 111.388804 36.841818 
L 111.417707 236.078182 
L 111.909058 36.841818 
L 111.937961 236.078182 
L 112.60273 36.841818 
L 112.631633 236.078182 
L 113.079629 36.841818 
L 113.108532 236.078182 
L 113.599883 36.841818 
L 113.628786 236.078182 
L 114.293554 36.841818 
L 114.322457 236.078182 
L 114.813808 36.841818 
L 114.842711 236.078182 
L 115.507479 36.841818 
L 115.536382 236.078182 
L 115.984378 36.841818 
L 116.013281 236.078182 
L 116.504632 36.841818 
L 116.533535 236.078182 
L 117.198304 36.841818 
L 117.227207 236.078182 
L 117.74746 36.841818 
L 117.776363 236.078182 
L 118.441132 36.841818 
L 118.470035 236.078182 
L 118.918031 36.841818 
L 118.946934 236.078182 
L 119.438285 36.841818 
L 119.467188 236.078182 
L 120.131956 36.841818 
L 120.160859 236.078182 
L 120.65221 36.841818 
L 120.681113 236.078182 
L 121.345881 36.841818 
L 121.374784 236.078182 
L 121.822781 36.841818 
L 121.851684 236.078182 
L 122.343034 36.841818 
L 122.371937 236.078182 
L 123.036706 36.841818 
L 123.065609 236.078182 
L 123.55696 36.841818 
L 123.585862 236.078182 
L 124.250631 36.841818 
L 124.279534 236.078182 
L 124.72753 36.841818 
L 124.756433 236.078182 
L 125.276687 36.841818 
L 125.30559 236.078182 
L 125.970358 36.841818 
L 125.999261 236.078182 
L 126.490612 36.841818 
L 126.519515 236.078182 
L 127.184284 36.841818 
L 127.213187 236.078182 
L 127.661183 36.841818 
L 127.690086 236.078182 
L 128.181436 36.841818 
L 128.210339 236.078182 
L 128.875108 36.841818 
L 128.904011 236.078182 
L 129.395362 36.841818 
L 129.424265 236.078182 
L 130.089033 36.841818 
L 130.117936 236.078182 
L 130.565932 36.841818 
L 130.594835 236.078182 
L 131.086186 36.841818 
L 131.115089 236.078182 
L 131.779858 36.841818 
L 131.808761 236.078182 
L 132.329014 36.841818 
L 132.357917 236.078182 
L 133.022686 36.841818 
L 133.051589 236.078182 
L 133.499585 36.841818 
L 133.528488 236.078182 
L 134.019839 36.841818 
L 134.048742 236.078182 
L 134.71351 36.841818 
L 134.742413 236.078182 
L 135.233764 36.841818 
L 135.262667 236.078182 
L 135.927435 36.841818 
L 135.956338 236.078182 
L 136.404335 36.841818 
L 136.433238 236.078182 
L 136.924588 36.841818 
L 136.953491 236.078182 
L 137.61826 36.841818 
L 137.647163 236.078182 
L 138.138513 36.841818 
L 138.167416 236.078182 
L 138.832185 36.841818 
L 138.861088 236.078182 
L 139.309084 36.841818 
L 139.337987 236.078182 
L 139.858241 36.841818 
L 139.887144 236.078182 
L 140.551912 36.841818 
L 140.580815 236.078182 
L 141.072166 36.841818 
L 141.101069 236.078182 
L 141.765838 36.841818 
L 141.794741 236.078182 
L 142.242737 36.841818 
L 142.27164 236.078182 
L 142.76299 36.841818 
L 142.791893 236.078182 
L 143.456662 36.841818 
L 143.485565 236.078182 
L 143.976916 36.841818 
L 144.005819 236.078182 
L 144.670587 36.841818 
L 144.69949 236.078182 
L 145.147486 36.841818 
L 145.176389 236.078182 
L 145.66774 36.841818 
L 145.696643 236.078182 
L 146.361412 36.841818 
L 146.390315 236.078182 
L 146.910568 36.841818 
L 146.939471 236.078182 
L 147.60424 36.841818 
L 147.633143 236.078182 
L 148.081139 36.841818 
L 148.110042 236.078182 
L 148.601393 36.841818 
L 148.630296 236.078182 
L 149.295064 36.841818 
L 149.323967 236.078182 
L 149.815318 36.841818 
L 149.844221 236.078182 
L 150.508989 36.841818 
L 150.537892 236.078182 
L 150.985889 36.841818 
L 151.014792 236.078182 
L 151.506142 36.841818 
L 151.535045 236.078182 
L 152.199814 36.841818 
L 152.228717 236.078182 
L 152.720067 36.841818 
L 152.74897 236.078182 
L 153.413739 36.841818 
L 153.442642 236.078182 
L 153.890638 36.841818 
L 153.919541 236.078182 
L 154.439795 36.841818 
L 154.468698 236.078182 
L 155.133466 36.841818 
L 155.162369 236.078182 
L 155.65372 36.841818 
L 155.682623 236.078182 
L 156.347392 36.841818 
L 156.376294 236.078182 
L 156.824291 36.841818 
L 156.853194 236.078182 
L 157.344544 36.841818 
L 157.373447 236.078182 
L 158.038216 36.841818 
L 158.067119 236.078182 
L 158.55847 36.841818 
L 158.587373 236.078182 
L 159.252141 36.841818 
L 159.281044 236.078182 
L 159.72904 36.841818 
L 159.757943 236.078182 
L 160.249294 36.841818 
L 160.278197 236.078182 
L 160.942965 36.841818 
L 160.971868 236.078182 
L 161.492122 36.841818 
L 161.521025 236.078182 
L 162.185794 36.841818 
L 162.214697 236.078182 
L 162.662693 36.841818 
L 162.691596 236.078182 
L 163.182947 36.841818 
L 163.21185 236.078182 
L 163.876618 36.841818 
L 163.905521 236.078182 
L 164.396872 36.841818 
L 164.425775 236.078182 
L 165.090543 36.841818 
L 165.119446 236.078182 
L 165.567442 36.841818 
L 165.596345 236.078182 
L 166.087696 36.841818 
L 166.116599 236.078182 
L 166.781368 36.841818 
L 166.810271 236.078182 
L 167.301621 36.841818 
L 167.330524 236.078182 
L 167.995293 36.841818 
L 168.024196 236.078182 
L 168.472192 36.841818 
L 168.501095 236.078182 
L 169.021349 36.841818 
L 169.050252 236.078182 
L 169.71502 36.841818 
L 169.743923 236.078182 
L 170.235274 36.841818 
L 170.264177 236.078182 
L 170.928945 36.841818 
L 170.957848 236.078182 
L 171.405845 36.841818 
L 171.434748 236.078182 
L 171.926098 36.841818 
L 171.955001 236.078182 
L 172.61977 36.841818 
L 172.648673 236.078182 
L 173.140023 36.841818 
L 173.168926 236.078182 
L 173.833695 36.841818 
L 173.862598 236.078182 
L 174.310594 36.841818 
L 174.339497 236.078182 
L 174.830848 36.841818 
L 174.859751 236.078182 
L 175.524519 36.841818 
L 175.553422 236.078182 
L 176.073676 36.841818 
L 176.102579 236.078182 
L 176.767348 36.841818 
L 176.796251 236.078182 
L 177.244247 36.841818 
L 177.27315 236.078182 
L 177.7645 36.841818 
L 177.793403 236.078182 
L 178.458172 36.841818 
L 178.487075 236.078182 
L 178.978426 36.841818 
L 179.007329 236.078182 
L 179.672097 36.841818 
L 179.701 236.078182 
L 180.148996 36.841818 
L 180.177899 236.078182 
L 180.66925 36.841818 
L 180.698153 236.078182 
L 181.362922 36.841818 
L 181.391825 236.078182 
L 181.883175 36.841818 
L 181.912078 236.078182 
L 182.576847 36.841818 
L 182.60575 236.078182 
L 183.053746 36.841818 
L 183.082649 236.078182 
L 183.602903 36.841818 
L 183.631806 236.078182 
L 184.296574 36.841818 
L 184.325477 236.078182 
L 184.816828 36.841818 
L 184.845731 236.078182 
L 185.510499 36.841818 
L 185.539402 236.078182 
L 185.987399 36.841818 
L 186.016302 236.078182 
L 186.507652 36.841818 
L 186.536555 236.078182 
L 187.201324 36.841818 
L 187.230227 236.078182 
L 187.721577 36.841818 
L 187.75048 236.078182 
L 188.415249 36.841818 
L 188.444152 236.078182 
L 188.892148 36.841818 
L 188.921051 236.078182 
L 189.412402 36.841818 
L 189.441305 236.078182 
L 190.106073 36.841818 
L 190.134976 236.078182 
L 190.65523 36.841818 
L 190.684133 236.078182 
L 191.348902 36.841818 
L 191.377805 236.078182 
L 191.825801 36.841818 
L 191.854704 236.078182 
L 192.346054 36.841818 
L 192.374957 236.078182 
L 193.039726 36.841818 
L 193.068629 236.078182 
L 193.55998 36.841818 
L 193.588883 236.078182 
L 194.253651 36.841818 
L 194.282554 236.078182 
L 194.73055 36.841818 
L 194.759453 236.078182 
L 195.250804 36.841818 
L 195.279707 236.078182 
L 195.944476 36.841818 
L 195.973379 236.078182 
L 196.464729 36.841818 
L 196.493632 236.078182 
L 197.158401 36.841818 
L 197.187304 236.078182 
L 197.6353 36.841818 
L 197.664203 236.078182 
L 198.184457 36.841818 
L 198.21336 236.078182 
L 198.878128 36.841818 
L 198.907031 236.078182 
L 199.398382 36.841818 
L 199.427285 236.078182 
L 200.092053 36.841818 
L 200.120956 236.078182 
L 200.568952 36.841818 
L 200.597855 236.078182 
L 201.089206 36.841818 
L 201.118109 236.078182 
L 201.782878 36.841818 
L 201.811781 236.078182 
L 202.303131 36.841818 
L 202.332034 236.078182 
L 202.996803 36.841818 
L 203.025706 236.078182 
L 203.473702 36.841818 
L 203.502605 236.078182 
L 203.993956 36.841818 
L 204.022859 236.078182 
L 204.687627 36.841818 
L 204.71653 236.078182 
L 205.236784 36.841818 
L 205.265687 236.078182 
L 205.930455 36.841818 
L 205.959358 236.078182 
L 206.407355 36.841818 
L 206.436258 236.078182 
L 206.927608 36.841818 
L 206.956511 236.078182 
L 207.62128 36.841818 
L 207.650183 236.078182 
L 208.141534 36.841818 
L 208.170437 236.078182 
L 208.835205 36.841818 
L 208.864108 236.078182 
L 209.312104 36.841818 
L 209.341007 236.078182 
L 209.832358 36.841818 
L 209.861261 236.078182 
L 210.526029 36.841818 
L 210.554932 236.078182 
L 211.046283 36.841818 
L 211.075186 236.078182 
L 211.739955 36.841818 
L 211.768858 236.078182 
L 212.216854 36.841818 
L 212.245757 236.078182 
L 212.76601 36.841818 
L 212.794913 236.078182 
L 213.459682 36.841818 
L 213.488585 236.078182 
L 213.979936 36.841818 
L 214.008839 236.078182 
L 214.673607 36.841818 
L 214.70251 236.078182 
L 215.150506 36.841818 
L 215.179409 236.078182 
L 215.67076 36.841818 
L 215.699663 236.078182 
L 216.364432 36.841818 
L 216.393335 236.078182 
L 216.884685 36.841818 
L 216.913588 236.078182 
L 217.578357 36.841818 
L 217.60726 236.078182 
L 218.055256 36.841818 
L 218.084159 236.078182 
L 218.57551 36.841818 
L 218.604413 236.078182 
L 219.269181 36.841818 
L 219.298084 236.078182 
L 219.818338 36.841818 
L 219.847241 236.078182 
L 220.512009 36.841818 
L 220.540912 236.078182 
L 220.988909 36.841818 
L 221.017812 236.078182 
L 221.509162 36.841818 
L 221.538065 236.078182 
L 222.202834 36.841818 
L 222.231737 236.078182 
L 222.723087 36.841818 
L 222.75199 236.078182 
L 223.416759 36.841818 
L 223.445662 236.078182 
L 223.893658 36.841818 
L 223.922561 236.078182 
L 224.413912 36.841818 
L 224.442815 236.078182 
L 225.107583 36.841818 
L 225.136486 236.078182 
L 225.627837 36.841818 
L 225.65674 236.078182 
L 226.321509 36.841818 
L 226.350412 236.078182 
L 226.798408 36.841818 
L 226.827311 236.078182 
L 227.347564 36.841818 
L 227.376467 236.078182 
L 228.041236 36.841818 
L 228.070139 236.078182 
L 228.56149 36.841818 
L 228.590393 236.078182 
L 229.255161 36.841818 
L 229.284064 236.078182 
L 229.73206 36.841818 
L 229.760963 236.078182 
L 230.252314 36.841818 
L 230.281217 236.078182 
L 230.945986 36.841818 
L 230.974889 236.078182 
L 231.466239 36.841818 
L 231.495142 236.078182 
L 232.159911 36.841818 
L 232.188814 236.078182 
L 232.63681 36.841818 
L 232.665713 236.078182 
L 233.157064 36.841818 
L 233.185967 236.078182 
L 233.850735 36.841818 
L 233.879638 236.078182 
L 234.399892 36.841818 
L 234.428795 236.078182 
L 235.093563 36.841818 
L 235.122466 236.078182 
L 235.570463 36.841818 
L 235.599366 236.078182 
L 236.090716 36.841818 
L 236.119619 236.078182 
L 236.784388 36.841818 
L 236.813291 236.078182 
L 237.304641 36.841818 
L 237.333544 236.078182 
L 237.998313 36.841818 
L 238.027216 236.078182 
L 238.475212 36.841818 
L 238.504115 236.078182 
L 238.995466 36.841818 
L 239.024369 236.078182 
L 239.689137 36.841818 
L 239.71804 236.078182 
L 240.209391 36.841818 
L 240.238294 236.078182 
L 240.903063 36.841818 
L 240.931966 236.078182 
L 241.379962 36.841818 
L 241.408865 236.078182 
L 241.929118 36.841818 
L 241.958021 236.078182 
L 242.62279 36.841818 
L 242.651693 236.078182 
L 243.143044 36.841818 
L 243.171947 236.078182 
L 243.836715 36.841818 
L 243.865618 236.078182 
L 244.313614 36.841818 
L 244.342517 236.078182 
L 244.833868 36.841818 
L 244.862771 236.078182 
L 245.52754 36.841818 
L 245.556442 236.078182 
L 246.047793 36.841818 
L 246.076696 236.078182 
L 246.741465 36.841818 
L 246.770368 236.078182 
L 247.218364 36.841818 
L 247.247267 236.078182 
L 247.738618 36.841818 
L 247.767521 236.078182 
L 248.432289 36.841818 
L 248.461192 236.078182 
L 248.981446 36.841818 
L 249.010349 236.078182 
L 249.675117 36.841818 
L 249.70402 236.078182 
L 250.152016 36.841818 
L 250.180919 236.078182 
L 250.67227 36.841818 
L 250.701173 236.078182 
L 251.365942 36.841818 
L 251.394845 236.078182 
L 251.886195 36.841818 
L 251.915098 236.078182 
L 252.579867 36.841818 
L 252.60877 236.078182 
L 253.056766 36.841818 
L 253.085669 236.078182 
L 253.57702 36.841818 
L 253.605923 236.078182 
L 254.270691 36.841818 
L 254.299594 236.078182 
L 254.790945 36.841818 
L 254.819848 236.078182 
L 255.484616 36.841818 
L 255.513519 236.078182 
L 255.932613 36.841818 
L 255.961516 236.078182 
L 256.452866 36.841818 
L 256.481769 236.078182 
L 257.117635 36.841818 
L 257.146538 236.078182 
L 257.666792 36.841818 
L 257.695695 236.078182 
L 258.548332 36.841818 
L 258.577235 236.078182 
L 259.039683 36.841818 
L 259.068586 236.078182 
L 259.747806 36.841818 
L 259.776709 236.078182 
L 260.412575 36.841818 
L 260.441478 236.078182 
L 260.94728 36.841818 
L 260.976183 236.078182 
L 261.828821 36.841818 
L 261.857724 236.078182 
L 262.320171 36.841818 
L 262.349074 236.078182 
L 262.999392 69.533752 
L 263.057198 235.659785 
L 263.519645 203.804644 
L 263.548548 236.078182 
L 264.213317 36.841818 
L 264.24222 236.078182 
L 264.776925 36.841818 
L 264.805828 236.078182 
L 265.513951 36.841818 
L 265.542854 236.078182 
L 266.178719 36.841818 
L 266.207622 236.078182 
L 266.67007 36.841818 
L 266.698973 236.078182 
L 267.262581 169.143997 
L 267.580514 235.611969 
L 268.144122 234.60567 
L 268.389798 235.851052 
L 269.011212 235.362768 
L 269.256887 235.811205 
L 270.080622 106.924247 
L 270.109525 236.078182 
L 270.600876 36.841818 
L 270.629779 236.078182 
L 271.294547 36.841818 
L 271.32345 236.078182 
L 271.771446 36.841818 
L 271.800349 236.078182 
L 272.2917 36.841818 
L 272.320603 236.078182 
L 272.985371 36.841818 
L 273.014274 236.078182 
L 273.505625 36.841818 
L 273.534528 236.078182 
L 274.199297 36.841818 
L 274.2282 236.078182 
L 274.676196 36.841818 
L 274.705099 236.078182 
L 275.225353 36.841818 
L 275.254256 236.078182 
L 275.919024 36.841818 
L 275.947927 236.078182 
L 276.439278 36.841818 
L 276.468181 236.078182 
L 277.132949 36.841818 
L 277.161852 236.078182 
L 277.609848 36.841818 
L 277.638751 236.078182 
L 278.130102 36.841818 
L 278.159005 236.078182 
L 278.823774 36.841818 
L 278.852677 236.078182 
L 279.344027 36.841818 
L 279.37293 236.078182 
L 280.037699 36.841818 
L 280.066602 236.078182 
L 280.514598 36.841818 
L 280.543501 236.078182 
L 281.034852 36.841818 
L 281.063755 236.078182 
L 281.728523 36.841818 
L 281.757426 236.078182 
L 282.27768 36.841818 
L 282.306583 236.078182 
L 282.971351 36.841818 
L 283.000254 236.078182 
L 283.448251 36.841818 
L 283.477154 236.078182 
L 283.968504 36.841818 
L 283.997407 236.078182 
L 284.662176 36.841818 
L 284.691079 236.078182 
L 285.182429 36.841818 
L 285.211332 236.078182 
L 285.876101 36.841818 
L 285.905004 236.078182 
L 286.353 36.841818 
L 286.381903 236.078182 
L 286.873254 36.841818 
L 286.902157 236.078182 
L 287.566925 36.841818 
L 287.595828 236.078182 
L 288.087179 36.841818 
L 288.116082 236.078182 
L 288.780851 36.841818 
L 288.809754 236.078182 
L 289.25775 36.841818 
L 289.286653 236.078182 
L 289.806906 36.841818 
L 289.835809 236.078182 
L 290.500578 36.841818 
L 290.529481 236.078182 
L 291.020832 36.841818 
L 291.049735 236.078182 
L 291.714503 36.841818 
L 291.743406 236.078182 
L 292.191402 36.841818 
L 292.220305 236.078182 
L 292.711656 36.841818 
L 292.740559 236.078182 
L 293.405328 36.841818 
L 293.434231 236.078182 
L 293.925581 36.841818 
L 293.954484 236.078182 
L 294.619253 36.841818 
L 294.648156 236.078182 
L 295.096152 36.841818 
L 295.125055 236.078182 
L 295.616406 36.841818 
L 295.645309 236.078182 
L 296.310077 36.841818 
L 296.33898 236.078182 
L 296.859234 36.841818 
L 296.888137 236.078182 
L 297.552905 36.841818 
L 297.581808 236.078182 
L 298.029805 36.841818 
L 298.058708 236.078182 
L 298.550058 36.841818 
L 298.578961 236.078182 
L 299.24373 36.841818 
L 299.272633 236.078182 
L 299.763983 36.841818 
L 299.792886 236.078182 
L 300.457655 36.841818 
L 300.486558 236.078182 
L 300.934554 36.841818 
L 300.963457 236.078182 
L 301.454808 36.841818 
L 301.483711 236.078182 
L 302.148479 36.841818 
L 302.177382 236.078182 
L 302.668733 36.841818 
L 302.697636 236.078182 
L 303.362405 36.841818 
L 303.391308 236.078182 
L 303.839304 36.841818 
L 303.868207 236.078182 
L 304.38846 36.841818 
L 304.417363 236.078182 
L 305.082132 36.841818 
L 305.111035 236.078182 
L 305.602386 36.841818 
L 305.631289 236.078182 
L 306.296057 36.841818 
L 306.32496 236.078182 
L 306.772956 36.841818 
L 306.801859 236.078182 
L 307.29321 36.841818 
L 307.322113 236.078182 
L 307.986882 36.841818 
L 308.015785 236.078182 
L 308.507135 36.841818 
L 308.536038 236.078182 
L 309.200807 36.841818 
L 309.22971 236.078182 
L 309.677706 36.841818 
L 309.706609 236.078182 
L 310.19796 36.841818 
L 310.226863 236.078182 
L 310.891631 36.841818 
L 310.920534 236.078182 
L 311.440788 36.841818 
L 311.469691 236.078182 
L 312.134459 36.841818 
L 312.163362 236.078182 
L 312.611359 36.841818 
L 312.640261 236.078182 
L 313.131612 36.841818 
L 313.160515 236.078182 
L 313.825284 36.841818 
L 313.854187 236.078182 
L 314.345537 36.841818 
L 314.37444 236.078182 
L 315.039209 36.841818 
L 315.068112 236.078182 
L 315.516108 36.841818 
L 315.545011 236.078182 
L 316.036362 36.841818 
L 316.065265 236.078182 
L 316.730033 36.841818 
L 316.758936 236.078182 
L 317.250287 36.841818 
L 317.27919 236.078182 
L 317.943959 36.841818 
L 317.972861 236.078182 
L 318.420858 36.841818 
L 318.449761 236.078182 
L 318.970014 36.841818 
L 318.998917 236.078182 
L 319.663686 36.841818 
L 319.692589 236.078182 
L 320.18394 36.841818 
L 320.212843 236.078182 
L 320.877611 36.841818 
L 320.906514 236.078182 
L 321.35451 36.841818 
L 321.383413 236.078182 
L 321.874764 36.841818 
L 321.903667 236.078182 
L 322.568435 36.841818 
L 322.597338 236.078182 
L 323.088689 36.841818 
L 323.117592 236.078182 
L 323.782361 36.841818 
L 323.811264 236.078182 
L 324.25926 36.841818 
L 324.288163 236.078182 
L 324.779514 36.841818 
L 324.808417 236.078182 
L 325.473185 36.841818 
L 325.502088 236.078182 
L 326.022342 36.841818 
L 326.051245 236.078182 
L 326.716013 36.841818 
L 326.744916 236.078182 
L 327.192912 36.841818 
L 327.221815 236.078182 
L 327.713166 36.841818 
L 327.742069 236.078182 
L 328.406838 36.841818 
L 328.435741 236.078182 
L 328.927091 36.841818 
L 328.955994 236.078182 
L 329.620763 36.841818 
L 329.649666 236.078182 
L 330.097662 36.841818 
L 330.126565 236.078182 
L 330.617916 36.841818 
L 330.646819 236.078182 
L 331.311587 36.841818 
L 331.34049 236.078182 
L 331.831841 36.841818 
L 331.860744 236.078182 
L 332.525512 36.841818 
L 332.554415 236.078182 
L 333.002412 36.841818 
L 333.031315 236.078182 
L 333.551568 36.841818 
L 333.580471 236.078182 
L 334.24524 36.841818 
L 334.274143 236.078182 
L 334.765493 36.841818 
L 334.794396 236.078182 
L 335.459165 36.841818 
L 335.488068 236.078182 
L 335.936064 36.841818 
L 335.964967 236.078182 
L 336.456318 36.841818 
L 336.485221 236.078182 
L 337.149989 36.841818 
L 337.178892 236.078182 
L 337.670243 36.841818 
L 337.699146 236.078182 
L 338.363915 36.841818 
L 338.392818 236.078182 
L 338.840814 36.841818 
L 338.869717 236.078182 
L 339.361067 36.841818 
L 339.38997 236.078182 
L 340.054739 36.841818 
L 340.083642 236.078182 
L 340.603896 36.841818 
L 340.632799 236.078182 
L 341.297567 36.841818 
L 341.32647 236.078182 
L 341.774466 36.841818 
L 341.803369 236.078182 
L 342.29472 36.841818 
L 342.323623 236.078182 
L 342.988392 36.841818 
L 343.017295 236.078182 
L 343.508645 36.841818 
L 343.537548 236.078182 
L 344.202317 36.841818 
L 344.23122 236.078182 
L 344.679216 36.841818 
L 344.708119 236.078182 
L 345.19947 36.841818 
L 345.228373 236.078182 
L 345.893141 36.841818 
L 345.922044 236.078182 
L 346.413395 36.841818 
L 346.442298 236.078182 
L 347.107066 36.841818 
L 347.135969 236.078182 
L 347.583966 36.841818 
L 347.612869 236.078182 
L 348.133122 36.841818 
L 348.162025 236.078182 
L 348.826794 36.841818 
L 348.855697 236.078182 
L 349.347047 36.841818 
L 349.37595 236.078182 
L 350.040719 36.841818 
L 350.069622 236.078182 
L 350.517618 36.841818 
L 350.546521 236.078182 
L 351.037872 36.841818 
L 351.066775 236.078182 
L 351.731543 36.841818 
L 351.760446 236.078182 
L 352.251797 36.841818 
L 352.2807 236.078182 
L 352.945469 36.841818 
L 352.974372 236.078182 
L 353.422368 36.841818 
L 353.451271 236.078182 
L 353.942621 36.841818 
L 353.971524 236.078182 
L 354.636293 36.841818 
L 354.665196 236.078182 
L 355.18545 36.841818 
L 355.214353 236.078182 
L 355.879121 36.841818 
L 355.908024 236.078182 
L 356.35602 36.841818 
L 356.384923 236.078182 
L 356.876274 36.841818 
L 356.905177 236.078182 
L 357.569946 36.841818 
L 357.598848 236.078182 
L 358.090199 36.841818 
L 358.119102 236.078182 
L 358.783871 36.841818 
L 358.812774 236.078182 
L 359.26077 36.841818 
L 359.289673 236.078182 
L 359.781024 36.841818 
L 359.809927 236.078182 
L 360.503598 36.841818 
L 360.532501 236.078182 
L 361.023852 36.841818 
L 361.052755 236.078182 
L 361.717523 36.841818 
L 361.746426 236.078182 
L 362.194422 36.841818 
L 362.223325 236.078182 
L 362.743579 36.841818 
L 362.772482 236.078182 
L 363.437251 36.841818 
L 363.466154 236.078182 
L 363.957504 36.841818 
L 363.986407 236.078182 
L 364.651176 36.841818 
L 364.680079 236.078182 
L 365.128075 36.841818 
L 365.156978 236.078182 
L 365.648329 36.841818 
L 365.677232 236.078182 
L 366.342 36.841818 
L 366.370903 236.078182 
L 366.862254 36.841818 
L 366.891157 236.078182 
L 367.584828 36.841818 
L 367.613731 236.078182 
L 368.061728 36.841818 
L 368.090631 236.078182 
L 368.581981 36.841818 
L 368.610884 236.078182 
L 369.275653 36.841818 
L 369.304556 236.078182 
L 369.824809 36.841818 
L 369.853712 236.078182 
L 370.518481 36.841818 
L 370.547384 236.078182 
L 370.99538 36.841818 
L 371.024283 236.078182 
L 371.515634 36.841818 
L 371.544537 236.078182 
L 372.209305 36.841818 
L 372.238208 236.078182 
L 372.729559 36.841818 
L 372.758462 236.078182 
L 373.423231 36.841818 
L 373.452134 236.078182 
L 373.90013 36.841818 
L 373.929033 236.078182 
L 374.420383 36.841818 
L 374.449286 236.078182 
L 375.142958 36.841818 
L 375.171861 236.078182 
L 375.663212 36.841818 
L 375.692115 236.078182 
L 376.356883 36.841818 
L 376.385786 236.078182 
L 376.833782 36.841818 
L 376.862685 236.078182 
L 377.382939 36.841818 
L 377.411842 236.078182 
L 378.076611 36.841818 
L 378.105514 236.078182 
L 378.596864 36.841818 
L 378.625767 236.078182 
L 379.290536 36.841818 
L 379.319439 236.078182 
L 379.767435 36.841818 
L 379.796338 236.078182 
L 380.287689 36.841818 
L 380.316592 236.078182 
L 380.98136 36.841818 
L 381.010263 236.078182 
L 381.501614 36.841818 
L 381.530517 236.078182 
L 382.224188 36.841818 
L 382.253091 236.078182 
L 382.701088 36.841818 
L 382.729991 236.078182 
L 383.221341 36.841818 
L 383.250244 236.078182 
L 383.915013 36.841818 
L 383.943916 236.078182 
L 384.464169 36.841818 
L 384.493072 236.078182 
L 385.157841 36.841818 
L 385.186744 236.078182 
L 385.63474 36.841818 
L 385.663643 236.078182 
L 386.154994 36.841818 
L 386.183897 236.078182 
L 386.848665 36.841818 
L 386.877568 236.078182 
L 387.368919 36.841818 
L 387.397822 236.078182 
L 388.062591 36.841818 
L 388.091493 236.078182 
L 388.53949 36.841818 
L 388.568393 236.078182 
L 389.059743 36.841818 
L 389.088646 236.078182 
L 389.782318 36.841818 
L 389.811221 236.078182 
L 390.302572 36.841818 
L 390.331475 236.078182 
L 390.996243 36.841818 
L 391.025146 236.078182 
L 391.473142 36.841818 
L 391.502045 236.078182 
L 392.022299 36.841818 
L 392.051202 236.078182 
L 392.71597 36.841818 
L 392.744873 236.078182 
L 393.236224 36.841818 
L 393.265127 236.078182 
L 393.929896 36.841818 
L 393.958799 236.078182 
L 394.406795 36.841818 
L 394.435698 236.078182 
L 394.927049 36.841818 
L 394.955951 236.078182 
L 395.62072 36.841818 
L 395.649623 236.078182 
L 396.140974 36.841818 
L 396.169877 236.078182 
L 396.863548 36.841818 
L 396.892451 236.078182 
L 397.340447 36.841818 
L 397.36935 236.078182 
L 397.860701 36.841818 
L 397.889604 236.078182 
L 398.554373 36.841818 
L 398.583276 236.078182 
L 399.103529 36.841818 
L 399.132432 236.078182 
L 399.797201 36.841818 
L 399.826104 236.078182 
L 400.2741 36.841818 
L 400.303003 236.078182 
L 400.794354 36.841818 
L 400.823257 236.078182 
L 401.488025 36.841818 
L 401.516928 236.078182 
L 402.008279 36.841818 
L 402.037182 236.078182 
L 402.70195 36.841818 
L 402.730853 236.078182 
L 403.17885 36.841818 
L 403.207753 236.078182 
L 403.699103 36.841818 
L 403.728006 236.078182 
L 404.421678 36.841818 
L 404.450581 236.078182 
L 404.941931 36.841818 
L 404.970834 236.078182 
L 405.635603 36.841818 
L 405.664506 236.078182 
L 406.112502 36.841818 
L 406.141405 236.078182 
L 406.661659 36.841818 
L 406.690562 236.078182 
L 407.35533 36.841818 
L 407.384233 236.078182 
L 407.875584 36.841818 
L 407.904487 236.078182 
L 408.569256 36.841818 
L 408.598159 236.078182 
L 409.046155 36.841818 
L 409.075058 236.078182 
L 409.566408 36.841818 
L 409.595311 236.078182 
L 410.26008 36.841818 
L 410.288983 236.078182 
L 410.780334 36.841818 
L 410.809237 236.078182 
L 411.502908 36.841818 
L 411.531811 236.078182 
L 411.979807 36.841818 
L 412.00871 236.078182 
L 412.500061 36.841818 
L 412.528964 236.078182 
L 413.193733 36.841818 
L 413.222636 236.078182 
L 413.742889 36.841818 
L 413.771792 236.078182 
L 414.436561 36.841818 
L 414.465464 236.078182 
L 414.91346 36.841818 
L 414.942363 236.078182 
L 415.433714 36.841818 
L 415.462617 236.078182 
L 416.127385 36.841818 
L 416.156288 236.078182 
L 416.647639 36.841818 
L 416.676542 236.078182 
L 417.34131 36.841818 
L 417.370213 236.078182 
L 417.81821 36.841818 
L 417.847112 236.078182 
L 418.338463 36.841818 
L 418.367366 236.078182 
L 419.061038 36.841818 
L 419.089941 236.078182 
L 419.581291 36.841818 
L 419.610194 236.078182 
L 420.274963 36.841818 
L 420.303866 236.078182 
L 420.751862 36.841818 
L 420.780765 236.078182 
L 421.301019 36.841818 
L 421.329922 236.078182 
L 421.99469 36.841818 
L 422.023593 236.078182 
L 422.514944 36.841818 
L 422.543847 236.078182 
L 423.208615 36.841818 
L 423.237518 236.078182 
L 423.685515 36.841818 
L 423.714418 236.078182 
L 424.205768 36.841818 
L 424.234671 236.078182 
L 424.89944 36.841818 
L 424.928343 236.078182 
L 425.419694 36.841818 
L 425.448596 236.078182 
L 426.142268 36.841818 
L 426.171171 236.078182 
L 426.619167 36.841818 
L 426.64807 236.078182 
L 427.139421 36.841818 
L 427.168324 236.078182 
L 427.833092 36.841818 
L 427.861995 236.078182 
L 428.382249 36.841818 
L 428.411152 236.078182 
L 429.075921 36.841818 
L 429.104824 236.078182 
L 429.55282 36.841818 
L 429.581723 236.078182 
L 430.073073 36.841818 
L 430.101976 236.078182 
L 430.766745 36.841818 
L 430.795648 236.078182 
L 431.286999 36.841818 
L 431.315902 236.078182 
L 431.98067 36.841818 
L 432.009573 236.078182 
L 432.457569 36.841818 
L 432.486472 236.078182 
L 432.977823 36.841818 
L 433.006726 236.078182 
L 433.700398 36.841818 
L 433.729301 236.078182 
L 434.220651 36.841818 
L 434.249554 236.078182 
L 434.914323 36.841818 
L 434.943226 236.078182 
L 435.391222 36.841818 
L 435.420125 236.078182 
L 435.940379 36.841818 
L 435.969282 236.078182 
L 436.63405 36.841818 
L 436.662953 236.078182 
L 437.154304 36.841818 
L 437.183207 236.078182 
L 437.847975 36.841818 
L 437.876878 236.078182 
L 438.324875 36.841818 
L 438.353778 236.078182 
L 438.845128 36.841818 
L 438.874031 236.078182 
L 439.5388 36.841818 
L 439.567703 236.078182 
L 440.059053 36.841818 
L 440.087956 236.078182 
L 440.781628 36.841818 
L 440.810531 236.078182 
L 441.258527 36.841818 
L 441.28743 236.078182 
L 441.778781 36.841818 
L 441.807684 236.078182 
L 442.472452 36.841818 
L 442.501355 236.078182 
L 443.021609 36.841818 
L 443.050512 236.078182 
L 443.715281 36.841818 
L 443.744183 236.078182 
L 444.19218 36.841818 
L 444.221083 236.078182 
L 444.712433 36.841818 
L 444.741336 236.078182 
L 445.406105 36.841818 
L 445.435008 236.078182 
L 445.926359 36.841818 
L 445.955262 236.078182 
L 446.62003 36.841818 
L 446.648933 236.078182 
L 447.096929 36.841818 
L 447.125832 236.078182 
L 447.617183 36.841818 
L 447.646086 236.078182 
L 448.339757 36.841818 
L 448.36866 236.078182 
L 448.860011 36.841818 
L 448.888914 236.078182 
L 449.553683 36.841818 
L 449.582586 236.078182 
L 450.030582 36.841818 
L 450.059485 236.078182 
L 450.579739 36.841818 
L 450.608641 236.078182 
L 451.27341 36.841818 
L 451.302313 236.078182 
L 451.793664 36.841818 
L 451.822567 236.078182 
L 452.487335 36.841818 
L 452.516238 236.078182 
L 452.964234 36.841818 
L 452.993137 236.078182 
L 453.484488 36.841818 
L 453.513391 236.078182 
L 454.17816 36.841818 
L 454.207063 236.078182 
L 454.698413 36.841818 
L 454.727316 236.078182 
L 455.420988 36.841818 
L 455.449891 236.078182 
L 455.897887 36.841818 
L 455.92679 236.078182 
L 456.418141 36.841818 
L 456.447044 236.078182 
L 457.111812 36.841818 
L 457.140715 236.078182 
L 457.660969 36.841818 
L 457.689872 236.078182 
L 458.35464 36.841818 
L 458.383543 236.078182 
L 458.83154 36.841818 
L 458.860443 236.078182 
L 459.351793 36.841818 
L 459.380696 236.078182 
L 460.045465 36.841818 
L 460.074368 236.078182 
L 460.565718 36.841818 
L 460.594621 236.078182 
L 461.25939 36.841818 
L 461.288293 236.078182 
L 461.736289 36.841818 
L 461.765192 236.078182 
L 462.256543 36.841818 
L 462.285446 236.078182 
L 462.979117 36.841818 
L 463.00802 236.078182 
L 463.499371 36.841818 
L 463.528274 236.078182 
L 464.193043 36.841818 
L 464.221946 236.078182 
L 464.669942 36.841818 
L 464.698845 236.078182 
L 465.219098 36.841818 
L 465.248001 236.078182 
L 465.91277 36.841818 
L 465.941673 236.078182 
L 466.433024 36.841818 
L 466.461927 236.078182 
L 467.126695 36.841818 
L 467.155598 236.078182 
L 467.603594 36.841818 
L 467.632497 236.078182 
L 468.123848 36.841818 
L 468.152751 236.078182 
L 468.81752 36.841818 
L 468.846423 236.078182 
L 469.337773 36.841818 
L 469.366676 236.078182 
L 470.060348 36.841818 
L 470.089251 236.078182 
L 470.537247 36.841818 
L 470.56615 236.078182 
L 471.057501 36.841818 
L 471.086404 236.078182 
L 471.751172 36.841818 
L 471.780075 236.078182 
L 472.300329 36.841818 
L 472.329232 236.078182 
L 472.994 36.841818 
L 473.022903 236.078182 
L 473.470899 36.841818 
L 473.499802 236.078182 
L 473.991153 36.841818 
L 474.020056 236.078182 
L 474.684825 36.841818 
L 474.713728 236.078182 
L 475.205078 36.841818 
L 475.233981 236.078182 
L 475.89875 36.841818 
L 475.927653 236.078182 
L 476.375649 36.841818 
L 476.404552 236.078182 
L 476.895903 36.841818 
L 476.924806 236.078182 
L 477.589574 36.841818 
L 477.618477 236.078182 
L 478.109828 36.841818 
L 478.138731 236.078182 
L 478.803499 36.841818 
L 478.832402 236.078182 
L 479.280399 36.841818 
L 479.309302 236.078182 
L 479.829555 36.841818 
L 479.858458 236.078182 
L 480.523227 36.841818 
L 480.55213 236.078182 
L 481.043481 36.841818 
L 481.072384 236.078182 
L 481.737152 36.841818 
L 481.766055 236.078182 
L 482.214051 36.841818 
L 482.242954 236.078182 
L 482.734305 36.841818 
L 482.763208 236.078182 
L 483.427976 36.841818 
L 483.456879 236.078182 
L 483.94823 36.841818 
L 483.977133 236.078182 
L 484.641902 36.841818 
L 484.670805 236.078182 
L 485.118801 36.841818 
L 485.147704 236.078182 
L 485.639055 36.841818 
L 485.667957 236.078182 
L 486.332726 36.841818 
L 486.361629 236.078182 
L 486.881883 36.841818 
L 486.910786 236.078182 
L 487.575554 36.841818 
L 487.604457 236.078182 
L 488.052453 36.841818 
L 488.081356 236.078182 
L 488.572707 36.841818 
L 488.60161 236.078182 
L 489.266379 36.841818 
L 489.295282 236.078182 
L 489.786632 36.841818 
L 489.815535 236.078182 
L 490.480304 36.841818 
L 490.509207 236.078182 
L 490.957203 36.841818 
L 490.986106 236.078182 
L 491.477457 36.841818 
L 491.50636 236.078182 
L 492.171128 36.841818 
L 492.200031 236.078182 
L 492.691382 36.841818 
L 492.720285 236.078182 
L 493.385053 36.841818 
L 493.413956 236.078182 
L 493.861953 36.841818 
L 493.890856 236.078182 
L 494.411109 36.841818 
L 494.440012 236.078182 
L 495.104781 36.841818 
L 495.133684 236.078182 
L 495.625034 36.841818 
L 495.653937 236.078182 
L 496.318706 36.841818 
L 496.347609 236.078182 
L 496.795605 36.841818 
L 496.824508 236.078182 
L 497.315859 36.841818 
L 497.344762 236.078182 
L 498.00953 36.841818 
L 498.038433 236.078182 
L 498.529784 36.841818 
L 498.558687 236.078182 
L 499.223456 36.841818 
L 499.252359 236.078182 
L 499.700355 36.841818 
L 499.729258 236.078182 
L 500.220608 36.841818 
L 500.249511 236.078182 
L 500.91428 36.841818 
L 500.943183 236.078182 
L 501.463437 36.841818 
L 501.49234 236.078182 
L 502.157108 36.841818 
L 502.186011 236.078182 
L 502.634007 36.841818 
L 502.66291 236.078182 
L 503.154261 36.841818 
L 503.183164 236.078182 
L 503.847933 36.841818 
L 503.876836 236.078182 
L 504.368186 36.841818 
L 504.397089 236.078182 
L 505.061858 36.841818 
L 505.090761 236.078182 
L 505.538757 36.841818 
L 505.56766 236.078182 
L 506.059011 36.841818 
L 506.087914 236.078182 
L 506.752682 36.841818 
L 506.781585 236.078182 
L 507.272936 36.841818 
L 507.301839 236.078182 
L 507.966607 36.841818 
L 507.99551 236.078182 
L 508.443507 36.841818 
L 508.47241 236.078182 
L 508.992663 36.841818 
L 509.021566 236.078182 
L 509.686335 36.841818 
L 509.715238 236.078182 
L 510.206588 36.841818 
L 510.235491 236.078182 
L 510.90026 36.841818 
L 510.929163 236.078182 
L 511.377159 36.841818 
L 511.406062 236.078182 
L 511.897413 36.841818 
L 511.926316 236.078182 
L 512.591084 36.841818 
L 512.619987 236.078182 
L 513.111338 36.841818 
L 513.140241 236.078182 
L 513.80501 36.841818 
L 513.833913 236.078182 
L 514.281909 36.841818 
L 514.310812 236.078182 
L 514.802162 36.841818 
L 514.831065 236.078182 
L 515.495834 36.841818 
L 515.524737 236.078182 
L 516.044991 36.841818 
L 516.073894 236.078182 
L 516.738662 36.841818 
L 516.767565 236.078182 
L 517.215561 36.841818 
L 517.244464 236.078182 
L 517.735815 36.841818 
L 517.764718 236.078182 
L 518.429487 36.841818 
L 518.458389 236.078182 
L 518.94974 36.841818 
L 518.978643 236.078182 
L 519.643412 36.841818 
L 519.672315 236.078182 
L 520.120311 36.841818 
L 520.149214 236.078182 
L 520.640565 36.841818 
L 520.669468 236.078182 
L 521.334236 36.841818 
L 521.363139 236.078182 
L 521.85449 36.841818 
L 521.883393 236.078182 
L 522.548161 36.841818 
L 522.577064 236.078182 
L 523.02506 36.841818 
L 523.053963 236.078182 
L 523.574217 36.841818 
L 523.60312 236.078182 
L 524.267889 36.841818 
L 524.296792 236.078182 
L 524.788142 36.841818 
L 524.817045 236.078182 
L 525.481814 36.841818 
L 525.510717 236.078182 
L 525.958713 36.841818 
L 525.987616 236.078182 
L 526.478967 36.841818 
L 526.50787 236.078182 
L 527.172638 36.841818 
L 527.201541 236.078182 
L 527.692892 36.841818 
L 527.721795 236.078182 
L 528.386563 36.841818 
L 528.415466 236.078182 
L 528.863463 36.841818 
L 528.892366 236.078182 
L 529.383716 36.841818 
L 529.412619 236.078182 
L 530.077388 36.841818 
L 530.106291 236.078182 
L 530.626545 36.841818 
L 530.655447 236.078182 
L 531.320216 36.841818 
L 531.349119 236.078182 
L 531.797115 36.841818 
L 531.826018 236.078182 
L 532.317369 36.841818 
L 532.346272 236.078182 
L 533.01104 36.841818 
L 533.039943 236.078182 
L 533.531294 36.841818 
L 533.560197 236.078182 
L 534.224966 36.841818 
L 534.253869 236.078182 
L 534.701865 36.841818 
L 534.730768 236.078182 
L 535.222118 36.841818 
L 535.251021 236.078182 
L 535.91579 36.841818 
L 535.944693 236.078182 
L 536.436044 36.841818 
L 536.464947 236.078182 
L 537.129715 36.841818 
L 537.158618 236.078182 
L 537.606614 36.841818 
L 537.635517 236.078182 
L 538.155771 36.841818 
L 538.184674 236.078182 
L 538.849443 36.841818 
L 538.878346 236.078182 
L 539.369696 36.841818 
L 539.398599 236.078182 
L 540.063368 36.841818 
L 540.092271 236.078182 
L 540.540267 36.841818 
L 540.56917 236.078182 
L 541.060521 36.841818 
L 541.089424 236.078182 
L 541.754192 36.841818 
L 541.783095 236.078182 
L 542.274446 36.841818 
L 542.303349 236.078182 
L 542.968117 36.841818 
L 542.99702 236.078182 
L 543.445017 36.841818 
L 543.47392 236.078182 
L 543.96527 36.841818 
L 543.994173 236.078182 
L 544.658942 36.841818 
L 544.687845 236.078182 
L 545.208098 36.841818 
L 545.237001 236.078182 
L 545.90177 36.841818 
L 545.930673 236.078182 
L 546.378669 36.841818 
L 546.407572 236.078182 
L 546.898923 36.841818 
L 546.927826 236.078182 
L 547.592594 36.841818 
L 547.621497 236.078182 
L 548.112848 36.841818 
L 548.141751 236.078182 
L 548.80652 36.841818 
L 548.835423 236.078182 
L 549.283419 36.841818 
L 549.312322 236.078182 
L 549.803672 36.841818 
L 549.832575 236.078182 
L 550.497344 36.841818 
L 550.526247 236.078182 
L 551.017598 36.841818 
L 551.046501 236.078182 
L 551.711269 36.841818 
L 551.740172 236.078182 
L 552.188168 36.841818 
L 552.217071 236.078182 
L 552.737325 36.841818 
L 552.766228 236.078182 
L 553.430997 36.841818 
L 553.4599 236.078182 
L 553.95125 36.841818 
L 553.980153 236.078182 
L 554.644922 36.841818 
L 554.673825 236.078182 
L 555.121821 36.841818 
L 555.150724 236.078182 
L 555.642075 36.841818 
L 555.670978 236.078182 
L 556.335746 36.841818 
L 556.364649 236.078182 
L 556.856 36.841818 
L 556.884903 236.078182 
L 557.549671 36.841818 
L 557.578574 236.078182 
L 558.026571 36.841818 
L 558.055474 236.078182 
L 558.546824 36.841818 
L 558.575727 236.078182 
L 559.240496 36.841818 
L 559.269399 236.078182 
L 559.789652 36.841818 
L 559.818555 236.078182 
L 560.483324 36.841818 
L 560.512227 236.078182 
L 560.960223 36.841818 
L 560.989126 236.078182 
L 561.480477 36.841818 
L 561.50938 236.078182 
L 562.174148 36.841818 
L 562.203051 236.078182 
L 562.694402 36.841818 
L 562.723305 236.078182 
L 563.388074 36.841818 
L 563.416976 236.078182 
L 563.864973 36.841818 
L 563.893876 236.078182 
L 564.385226 36.841818 
L 564.414129 236.078182 
L 565.078898 36.841818 
L 565.107801 236.078182 
L 565.599152 36.841818 
L 565.628055 236.078182 
L 566.292823 36.841818 
L 566.321726 236.078182 
L 566.769722 36.841818 
L 566.798625 236.078182 
L 567.318879 36.841818 
L 567.347782 236.078182 
L 568.01255 36.841818 
L 568.041453 236.078182 
L 568.532804 36.841818 
L 568.561707 236.078182 
L 569.226476 36.841818 
L 569.255379 236.078182 
L 569.703375 36.841818 
L 569.732278 236.078182 
L 570.223629 36.841818 
L 570.252532 236.078182 
L 570.9173 36.841818 
L 570.946203 236.078182 
L 571.437554 36.841818 
L 571.466457 236.078182 
L 572.131225 36.841818 
L 572.160128 236.078182 
L 572.608124 36.841818 
L 572.637027 236.078182 
L 573.128378 36.841818 
L 573.157281 236.078182 
L 573.82205 36.841818 
L 573.850953 236.078182 
L 574.371206 36.841818 
L 574.400109 236.078182 
L 575.064878 36.841818 
L 575.093781 236.078182 
L 575.541777 36.841818 
L 575.57068 236.078182 
L 576.062031 36.841818 
L 576.090934 236.078182 
L 576.755702 36.841818 
L 576.784605 236.078182 
L 577.275956 36.841818 
L 577.304859 236.078182 
L 577.969627 36.841818 
L 577.99853 236.078182 
L 578.446527 36.841818 
L 578.47543 236.078182 
L 578.96678 36.841818 
L 578.995683 236.078182 
L 579.660452 36.841818 
L 579.689355 236.078182 
L 580.180706 36.841818 
L 580.209608 236.078182 
L 580.874377 36.841818 
L 580.90328 236.078182 
L 581.351276 36.841818 
L 581.380179 236.078182 
L 581.900433 36.841818 
L 581.929336 236.078182 
L 582.594104 36.841818 
L 582.623007 236.078182 
L 583.114358 36.841818 
L 583.143261 236.078182 
L 583.80803 36.841818 
L 583.836933 236.078182 
L 584.284929 36.841818 
L 584.313832 236.078182 
L 584.805182 36.841818 
L 584.834085 236.078182 
L 585.498854 36.841818 
L 585.527757 236.078182 
L 586.019108 36.841818 
L 586.048011 236.078182 
L 586.712779 36.841818 
L 586.741682 236.078182 
L 587.189678 36.841818 
L 587.218581 236.078182 
L 587.709932 36.841818 
L 587.738835 236.078182 
L 588.403604 36.841818 
L 588.432507 236.078182 
L 588.95276 36.841818 
L 588.981663 236.078182 
L 589.646432 36.841818 
L 589.675335 236.078182 
L 590.123331 36.841818 
L 590.152234 236.078182 
L 590.643585 36.841818 
L 590.672488 236.078182 
L 591.337256 36.841818 
L 591.366159 236.078182 
L 591.85751 36.841818 
L 591.886413 236.078182 
L 592.551181 36.841818 
L 592.580084 236.078182 
L 593.028081 36.841818 
L 593.056984 236.078182 
L 593.548334 36.841818 
L 593.577237 236.078182 
L 594.242006 36.841818 
L 594.270909 236.078182 
L 594.762259 36.841818 
L 594.791162 236.078182 
L 595.455931 36.841818 
L 595.484834 236.078182 
L 595.93283 36.841818 
L 595.961733 236.078182 
L 596.481987 36.841818 
L 596.51089 236.078182 
L 597.175658 36.841818 
L 597.204561 236.078182 
L 597.695912 36.841818 
L 597.724815 236.078182 
L 598.389584 36.841818 
L 598.418487 236.078182 
L 598.866483 36.841818 
L 598.895386 236.078182 
L 599.386736 36.841818 
L 599.415639 236.078182 
L 600.080408 36.841818 
L 600.109311 236.078182 
L 600.600662 36.841818 
L 600.629565 236.078182 
L 601.294333 36.841818 
L 601.323236 236.078182 
L 601.771232 36.841818 
L 601.800135 236.078182 
L 602.291486 36.841818 
L 602.320389 236.078182 
L 602.985158 36.841818 
L 603.014061 236.078182 
L 603.534314 36.841818 
L 603.563217 236.078182 
L 604.227986 36.841818 
L 604.256889 236.078182 
L 604.704885 36.841818 
L 604.733788 236.078182 
L 605.225139 36.841818 
L 605.254042 236.078182 
L 605.91881 36.841818 
L 605.947713 236.078182 
L 606.439064 36.841818 
L 606.467967 236.078182 
L 607.132735 36.841818 
L 607.161638 236.078182 
L 607.609635 36.841818 
L 607.638537 236.078182 
L 608.129888 36.841818 
L 608.158791 236.078182 
L 608.82356 36.841818 
L 608.852463 236.078182 
L 609.343813 36.841818 
L 609.372716 236.078182 
L 610.037485 36.841818 
L 610.066388 236.078182 
L 610.514384 36.841818 
L 610.543287 236.078182 
L 611.034638 36.841818 
L 611.063541 236.078182 
L 611.699406 36.841818 
L 611.728309 236.078182 
L 612.248563 36.841818 
L 612.277466 236.078182 
L 613.130104 36.841818 
L 613.159007 236.078182 
L 613.5781 36.841818 
L 613.607003 236.078182 
L 614.112805 36.841818 
L 614.141708 236.078182 
L 614.994346 36.841818 
L 615.023249 236.078182 
L 615.557954 36.841818 
L 615.586857 236.078182 
L 616.930846 36.841818 
L 616.959749 236.078182 
L 617.407745 36.841818 
L 617.436648 236.078182 
L 617.94245 36.841818 
L 617.971353 236.078182 
L 618.650573 36.841818 
L 618.679476 236.078182 
L 619.387599 36.841818 
L 619.416502 236.078182 
L 620.052368 36.841818 
L 620.081271 236.078182 
L 620.543719 36.841818 
L 620.572622 236.078182 
L 621.251842 36.841818 
L 621.280745 236.078182 
L 624.691296 36.841818 
L 624.720199 236.078182 
L 625.21155 36.841818 
L 625.240453 236.078182 
L 625.905222 36.841818 
L 625.934124 236.078182 
L 626.382121 36.841818 
L 626.411024 236.078182 
L 626.902374 36.841818 
L 626.931277 236.078182 
L 627.596046 36.841818 
L 627.624949 236.078182 
L 628.1163 36.841818 
L 628.145203 236.078182 
L 628.809971 36.841818 
L 628.838874 236.078182 
L 629.28687 36.841818 
L 629.315773 236.078182 
L 629.836027 36.841818 
L 629.86493 236.078182 
L 630.529698 36.841818 
L 630.558601 236.078182 
L 631.049952 36.841818 
L 631.078855 236.078182 
L 631.743624 36.841818 
L 631.772527 236.078182 
L 632.220523 36.841818 
L 632.249426 236.078182 
L 632.740777 36.841818 
L 632.76968 236.078182 
L 633.434448 36.841818 
L 633.463351 236.078182 
L 633.954702 36.841818 
L 633.983605 236.078182 
L 634.648373 36.841818 
L 634.677276 236.078182 
L 635.125272 36.841818 
L 635.154175 236.078182 
L 635.645526 36.841818 
L 635.674429 236.078182 
L 636.339198 36.841818 
L 636.368101 236.078182 
L 636.888354 36.841818 
L 636.917257 236.078182 
L 637.582026 36.841818 
L 637.610929 236.078182 
L 638.058925 36.841818 
L 638.087828 236.078182 
L 638.579179 36.841818 
L 638.608082 236.078182 
L 639.27285 36.841818 
L 639.301753 236.078182 
L 639.793104 36.841818 
L 639.822007 236.078182 
L 640.486775 36.841818 
L 640.515678 236.078182 
L 640.963675 36.841818 
L 640.992578 236.078182 
L 641.483928 36.841818 
L 641.512831 236.078182 
L 642.1776 36.841818 
L 642.206503 236.078182 
L 642.697853 36.841818 
L 642.726756 236.078182 
L 643.391525 36.841818 
L 643.420428 236.078182 
L 643.868424 36.841818 
L 643.897327 236.078182 
L 644.417581 36.841818 
L 644.446484 236.078182 
L 645.111252 36.841818 
L 645.140155 236.078182 
L 645.631506 36.841818 
L 645.660409 236.078182 
L 646.325178 36.841818 
L 646.354081 236.078182 
L 646.802077 36.841818 
L 646.83098 236.078182 
L 647.32233 36.841818 
L 647.351233 236.078182 
L 648.016002 36.841818 
L 648.044905 236.078182 
L 648.536256 36.841818 
L 648.565159 236.078182 
L 649.229927 36.841818 
L 649.25883 236.078182 
L 649.706826 36.841818 
L 649.735729 236.078182 
L 650.22708 36.841818 
L 650.255983 236.078182 
L 650.920752 36.841818 
L 650.949655 236.078182 
L 651.469908 36.841818 
L 651.498811 236.078182 
L 652.16358 36.841818 
L 652.192483 236.078182 
L 652.640479 36.841818 
L 652.669382 236.078182 
L 653.160733 36.841818 
L 653.189636 236.078182 
L 653.854404 36.841818 
L 653.883307 236.078182 
L 654.374658 36.841818 
L 654.403561 236.078182 
L 655.068329 36.841818 
L 655.097232 236.078182 
L 655.545229 36.841818 
L 655.574132 236.078182 
L 656.065482 36.841818 
L 656.094385 236.078182 
L 656.759154 36.841818 
L 656.788057 236.078182 
L 657.279407 36.841818 
L 657.30831 236.078182 
L 657.973079 36.841818 
L 658.001982 236.078182 
L 658.449978 36.841818 
L 658.478881 236.078182 
L 658.999135 36.841818 
L 659.028038 236.078182 
L 659.692806 36.841818 
L 659.721709 236.078182 
L 660.21306 36.841818 
L 660.241963 236.078182 
L 660.906732 36.841818 
L 660.935635 236.078182 
L 661.383631 36.841818 
L 661.412534 236.078182 
L 661.903884 36.841818 
L 661.932787 236.078182 
L 662.597556 36.841818 
L 662.626459 236.078182 
L 663.11781 36.841818 
L 663.146713 236.078182 
L 663.811481 36.841818 
L 663.840384 236.078182 
L 664.28838 36.841818 
L 664.317283 236.078182 
L 664.808634 36.841818 
L 664.837537 236.078182 
L 665.502306 36.841818 
L 665.531209 236.078182 
L 666.051462 36.841818 
L 666.080365 236.078182 
L 666.745134 36.841818 
L 666.774037 236.078182 
L 667.222033 36.841818 
L 667.250936 236.078182 
L 667.742287 36.841818 
L 667.77119 236.078182 
L 668.435958 36.841818 
L 668.464861 236.078182 
L 668.956212 36.841818 
L 668.985115 236.078182 
L 669.649883 36.841818 
L 669.678786 236.078182 
L 670.126783 36.841818 
L 670.155685 236.078182 
L 670.647036 36.841818 
L 670.675939 236.078182 
L 671.340708 36.841818 
L 671.369611 236.078182 
L 671.860961 36.841818 
L 671.889864 236.078182 
L 672.554633 36.841818 
L 672.583536 236.078182 
L 673.031532 36.841818 
L 673.060435 236.078182 
L 673.580689 36.841818 
L 673.609592 236.078182 
L 674.27436 36.841818 
L 674.303263 236.078182 
L 674.794614 36.841818 
L 674.823517 236.078182 
L 675.488285 36.841818 
L 675.517188 236.078182 
L 675.965185 36.841818 
L 675.994088 236.078182 
L 676.485438 36.841818 
L 676.514341 236.078182 
L 677.17911 36.841818 
L 677.208013 236.078182 
L 677.699364 36.841818 
L 677.728267 236.078182 
L 678.393035 36.841818 
L 678.421938 236.078182 
L 678.869934 36.841818 
L 678.898837 236.078182 
L 679.390188 36.841818 
L 679.419091 236.078182 
L 679.419091 236.078182 
" clip-path="url(#p738c64d80e)" style="fill: none; stroke: #1f77b4; stroke-width: 1.5; stroke-linecap: square"/>
   </g>
   <g id="patch_3">
    <path d="M 54.02 246.04 
L 54.02 26.88 
" style="fill: none; stroke: #000000; stroke-width: 0.8; stroke-linejoin: miter; stroke-linecap: square"/>
   </g>
   <g id="patch_4">
    <path d="M 709.2 246.04 
L 709.2 26.88 
" style="fill: none; stroke: #000000; stroke-width: 0.8; stroke-linejoin: miter; stroke-linecap: square"/>
   </g>
   <g id="patch_5">
    <path d="M 54.02 246.04 
L 709.2 246.04 
" style="fill: none; stroke: #000000; stroke-width: 0.8; stroke-linejoin: miter; stroke-linecap: square"/>
   </g>
   <g id="patch_6">
    <path d="M 54.02 26.88 
L 709.2 26.88 
" style="fill: none; stroke: #000000; stroke-width: 0.8; stroke-linejoin: miter; stroke-linecap: square"/>
   </g>
   <g id="text_14">
    <!-- queueLength:vector (HandoverShowcase.ap2.wlan[0].mac.dcf.channelAccess.pendingQueue) -->
    <g transform="translate(100.020625 20.88) scale(0.12 -0.12)">
     <defs>
      <path id="DejaVuSans-71" d="M 947 1747 
Q 947 1113 1208 752 
Q 1469 391 1925 391 
Q 2381 391 2643 752 
Q 2906 1113 2906 1747 
Q 2906 2381 2643 2742 
Q 2381 3103 1925 3103 
Q 1469 3103 1208 2742 
Q 947 2381 947 1747 
z
M 2906 525 
Q 2725 213 2448 61 
Q 2172 -91 1784 -91 
Q 1150 -91 751 415 
Q 353 922 353 1747 
Q 353 2572 751 3078 
Q 1150 3584 1784 3584 
Q 2172 3584 2448 3432 
Q 2725 3281 2906 2969 
L 2906 3500 
L 3481 3500 
L 3481 -1331 
L 2906 -1331 
L 2906 525 
z
" transform="scale(0.015625)"/>
      <path id="DejaVuSans-4c" d="M 628 4666 
L 1259 4666 
L 1259 531 
L 3531 531 
L 3531 0 
L 628 0 
L 628 4666 
z
" transform="scale(0.015625)"/>
      <path id="DejaVuSans-6e" d="M 3513 2113 
L 3513 0 
L 2938 0 
L 2938 2094 
Q 2938 2591 2744 2837 
Q 2550 3084 2163 3084 
Q 1697 3084 1428 2787 
Q 1159 2491 1159 1978 
L 1159 0 
L 581 0 
L 581 3500 
L 1159 3500 
L 1159 2956 
Q 1366 3272 1645 3428 
Q 1925 3584 2291 3584 
Q 2894 3584 3203 3211 
Q 3513 2838 3513 2113 
z
" transform="scale(0.015625)"/>
      <path id="DejaVuSans-67" d="M 2906 1791 
Q 2906 2416 2648 2759 
Q 2391 3103 1925 3103 
Q 1463 3103 1205 2759 
Q 947 2416 947 1791 
Q 947 1169 1205 825 
Q 1463 481 1925 481 
Q 2391 481 2648 825 
Q 2906 1169 2906 1791 
z
M 3481 434 
Q 3481 -459 3084 -895 
Q 2688 -1331 1869 -1331 
Q 1566 -1331 1297 -1286 
Q 1028 -1241 775 -1147 
L 775 -588 
Q 1028 -725 1275 -790 
Q 1522 -856 1778 -856 
Q 2344 -856 2625 -561 
Q 2906 -266 2906 331 
L 2906 616 
Q 2728 306 2450 153 
Q 2172 0 1784 0 
Q 1141 0 747 490 
Q 353 981 353 1791 
Q 353 2603 747 3093 
Q 1141 3584 1784 3584 
Q 2172 3584 2450 3431 
Q 2728 3278 2906 2969 
L 2906 3500 
L 3481 3500 
L 3481 434 
z
" transform="scale(0.015625)"/>
      <path id="DejaVuSans-68" d="M 3513 2113 
L 3513 0 
L 2938 0 
L 2938 2094 
Q 2938 2591 2744 2837 
Q 2550 3084 2163 3084 
Q 1697 3084 1428 2787 
Q 1159 2491 1159 1978 
L 1159 0 
L 581 0 
L 581 4863 
L 1159 4863 
L 1159 2956 
Q 1366 3272 1645 3428 
Q 1925 3584 2291 3584 
Q 2894 3584 3203 3211 
Q 3513 2838 3513 2113 
z
" transform="scale(0.015625)"/>
      <path id="DejaVuSans-3a" d="M 750 794 
L 1409 794 
L 1409 0 
L 750 0 
L 750 794 
z
M 750 3309 
L 1409 3309 
L 1409 2516 
L 750 2516 
L 750 3309 
z
" transform="scale(0.015625)"/>
      <path id="DejaVuSans-76" d="M 191 3500 
L 800 3500 
L 1894 563 
L 2988 3500 
L 3597 3500 
L 2284 0 
L 1503 0 
L 191 3500 
z
" transform="scale(0.015625)"/>
      <path id="DejaVuSans-63" d="M 3122 3366 
L 3122 2828 
Q 2878 2963 2633 3030 
Q 2388 3097 2138 3097 
Q 1578 3097 1268 2742 
Q 959 2388 959 1747 
Q 959 1106 1268 751 
Q 1578 397 2138 397 
Q 2388 397 2633 464 
Q 2878 531 3122 666 
L 3122 134 
Q 2881 22 2623 -34 
Q 2366 -91 2075 -91 
Q 1284 -91 818 406 
Q 353 903 353 1747 
Q 353 2603 823 3093 
Q 1294 3584 2113 3584 
Q 2378 3584 2631 3529 
Q 2884 3475 3122 3366 
z
" transform="scale(0.015625)"/>
      <path id="DejaVuSans-6f" d="M 1959 3097 
Q 1497 3097 1228 2736 
Q 959 2375 959 1747 
Q 959 1119 1226 758 
Q 1494 397 1959 397 
Q 2419 397 2687 759 
Q 2956 1122 2956 1747 
Q 2956 2369 2687 2733 
Q 2419 3097 1959 3097 
z
M 1959 3584 
Q 2709 3584 3137 3096 
Q 3566 2609 3566 1747 
Q 3566 888 3137 398 
Q 2709 -91 1959 -91 
Q 1206 -91 779 398 
Q 353 888 353 1747 
Q 353 2609 779 3096 
Q 1206 3584 1959 3584 
z
" transform="scale(0.015625)"/>
      <path id="DejaVuSans-72" d="M 2631 2963 
Q 2534 3019 2420 3045 
Q 2306 3072 2169 3072 
Q 1681 3072 1420 2755 
Q 1159 2438 1159 1844 
L 1159 0 
L 581 0 
L 581 3500 
L 1159 3500 
L 1159 2956 
Q 1341 3275 1631 3429 
Q 1922 3584 2338 3584 
Q 2397 3584 2469 3576 
Q 2541 3569 2628 3553 
L 2631 2963 
z
" transform="scale(0.015625)"/>
      <path id="DejaVuSans-48" d="M 628 4666 
L 1259 4666 
L 1259 2753 
L 3553 2753 
L 3553 4666 
L 4184 4666 
L 4184 0 
L 3553 0 
L 3553 2222 
L 1259 2222 
L 1259 0 
L 628 0 
L 628 4666 
z
" transform="scale(0.015625)"/>
      <path id="DejaVuSans-64" d="M 2906 2969 
L 2906 4863 
L 3481 4863 
L 3481 0 
L 2906 0 
L 2906 525 
Q 2725 213 2448 61 
Q 2172 -91 1784 -91 
Q 1150 -91 751 415 
Q 353 922 353 1747 
Q 353 2572 751 3078 
Q 1150 3584 1784 3584 
Q 2172 3584 2448 3432 
Q 2725 3281 2906 2969 
z
M 947 1747 
Q 947 1113 1208 752 
Q 1469 391 1925 391 
Q 2381 391 2643 752 
Q 2906 1113 2906 1747 
Q 2906 2381 2643 2742 
Q 2381 3103 1925 3103 
Q 1469 3103 1208 2742 
Q 947 2381 947 1747 
z
" transform="scale(0.015625)"/>
      <path id="DejaVuSans-53" d="M 3425 4513 
L 3425 3897 
Q 3066 4069 2747 4153 
Q 2428 4238 2131 4238 
Q 1616 4238 1336 4038 
Q 1056 3838 1056 3469 
Q 1056 3159 1242 3001 
Q 1428 2844 1947 2747 
L 2328 2669 
Q 3034 2534 3370 2195 
Q 3706 1856 3706 1288 
Q 3706 609 3251 259 
Q 2797 -91 1919 -91 
Q 1588 -91 1214 -16 
Q 841 59 441 206 
L 441 856 
Q 825 641 1194 531 
Q 1563 422 1919 422 
Q 2459 422 2753 634 
Q 3047 847 3047 1241 
Q 3047 1584 2836 1778 
Q 2625 1972 2144 2069 
L 1759 2144 
Q 1053 2284 737 2584 
Q 422 2884 422 3419 
Q 422 4038 858 4394 
Q 1294 4750 2059 4750 
Q 2388 4750 2728 4690 
Q 3069 4631 3425 4513 
z
" transform="scale(0.015625)"/>
      <path id="DejaVuSans-77" d="M 269 3500 
L 844 3500 
L 1563 769 
L 2278 3500 
L 2956 3500 
L 3675 769 
L 4391 3500 
L 4966 3500 
L 4050 0 
L 3372 0 
L 2619 2869 
L 1863 0 
L 1184 0 
L 269 3500 
z
" transform="scale(0.015625)"/>
      <path id="DejaVuSans-70" d="M 1159 525 
L 1159 -1331 
L 581 -1331 
L 581 3500 
L 1159 3500 
L 1159 2969 
Q 1341 3281 1617 3432 
Q 1894 3584 2278 3584 
Q 2916 3584 3314 3078 
Q 3713 2572 3713 1747 
Q 3713 922 3314 415 
Q 2916 -91 2278 -91 
Q 1894 -91 1617 61 
Q 1341 213 1159 525 
z
M 3116 1747 
Q 3116 2381 2855 2742 
Q 2594 3103 2138 3103 
Q 1681 3103 1420 2742 
Q 1159 2381 1159 1747 
Q 1159 1113 1420 752 
Q 1681 391 2138 391 
Q 2594 391 2855 752 
Q 3116 1113 3116 1747 
z
" transform="scale(0.015625)"/>
      <path id="DejaVuSans-5b" d="M 550 4863 
L 1875 4863 
L 1875 4416 
L 1125 4416 
L 1125 -397 
L 1875 -397 
L 1875 -844 
L 550 -844 
L 550 4863 
z
" transform="scale(0.015625)"/>
      <path id="DejaVuSans-5d" d="M 1947 4863 
L 1947 -844 
L 622 -844 
L 622 -397 
L 1369 -397 
L 1369 4416 
L 622 4416 
L 622 4863 
L 1947 4863 
z
" transform="scale(0.015625)"/>
      <path id="DejaVuSans-66" d="M 2375 4863 
L 2375 4384 
L 1825 4384 
Q 1516 4384 1395 4259 
Q 1275 4134 1275 3809 
L 1275 3500 
L 2222 3500 
L 2222 3053 
L 1275 3053 
L 1275 0 
L 697 0 
L 697 3053 
L 147 3053 
L 147 3500 
L 697 3500 
L 697 3744 
Q 697 4328 969 4595 
Q 1241 4863 1831 4863 
L 2375 4863 
z
" transform="scale(0.015625)"/>
      <path id="DejaVuSans-41" d="M 2188 4044 
L 1331 1722 
L 3047 1722 
L 2188 4044 
z
M 1831 4666 
L 2547 4666 
L 4325 0 
L 3669 0 
L 3244 1197 
L 1141 1197 
L 716 0 
L 50 0 
L 1831 4666 
z
" transform="scale(0.015625)"/>
      <path id="DejaVuSans-51" d="M 2522 4238 
Q 1834 4238 1429 3725 
Q 1025 3213 1025 2328 
Q 1025 1447 1429 934 
Q 1834 422 2522 422 
Q 3209 422 3611 934 
Q 4013 1447 4013 2328 
Q 4013 3213 3611 3725 
Q 3209 4238 2522 4238 
z
M 3406 84 
L 4238 -825 
L 3475 -825 
L 2784 -78 
Q 2681 -84 2626 -87 
Q 2572 -91 2522 -91 
Q 1538 -91 948 567 
Q 359 1225 359 2328 
Q 359 3434 948 4092 
Q 1538 4750 2522 4750 
Q 3503 4750 4090 4092 
Q 4678 3434 4678 2328 
Q 4678 1516 4351 937 
Q 4025 359 3406 84 
z
" transform="scale(0.015625)"/>
     </defs>
     <use xlink:href="#DejaVuSans-71"/>
     <use xlink:href="#DejaVuSans-75" x="63.476562"/>
     <use xlink:href="#DejaVuSans-65" x="126.855469"/>
     <use xlink:href="#DejaVuSans-75" x="188.378906"/>
     <use xlink:href="#DejaVuSans-65" x="251.757812"/>
     <use xlink:href="#DejaVuSans-4c" x="313.28125"/>
     <use xlink:href="#DejaVuSans-65" x="367.244141"/>
     <use xlink:href="#DejaVuSans-6e" x="428.767578"/>
     <use xlink:href="#DejaVuSans-67" x="492.146484"/>
     <use xlink:href="#DejaVuSans-74" x="555.623047"/>
     <use xlink:href="#DejaVuSans-68" x="594.832031"/>
     <use xlink:href="#DejaVuSans-3a" x="658.210938"/>
     <use xlink:href="#DejaVuSans-76" x="691.902344"/>
     <use xlink:href="#DejaVuSans-65" x="751.082031"/>
     <use xlink:href="#DejaVuSans-63" x="812.605469"/>
     <use xlink:href="#DejaVuSans-74" x="867.585938"/>
     <use xlink:href="#DejaVuSans-6f" x="906.794922"/>
     <use xlink:href="#DejaVuSans-72" x="967.976562"/>
     <use xlink:href="#DejaVuSans-20" x="1009.089844"/>
     <use xlink:href="#DejaVuSans-28" x="1040.876953"/>
     <use xlink:href="#DejaVuSans-48" x="1079.890625"/>
     <use xlink:href="#DejaVuSans-61" x="1155.085938"/>
     <use xlink:href="#DejaVuSans-6e" x="1216.365234"/>
     <use xlink:href="#DejaVuSans-64" x="1279.744141"/>
     <use xlink:href="#DejaVuSans-6f" x="1343.220703"/>
     <use xlink:href="#DejaVuSans-76" x="1404.402344"/>
     <use xlink:href="#DejaVuSans-65" x="1463.582031"/>
     <use xlink:href="#DejaVuSans-72" x="1525.105469"/>
     <use xlink:href="#DejaVuSans-53" x="1566.21875"/>
     <use xlink:href="#DejaVuSans-68" x="1629.695312"/>
     <use xlink:href="#DejaVuSans-6f" x="1693.074219"/>
     <use xlink:href="#DejaVuSans-77" x="1754.255859"/>
     <use xlink:href="#DejaVuSans-63" x="1836.042969"/>
     <use xlink:href="#DejaVuSans-61" x="1891.023438"/>
     <use xlink:href="#DejaVuSans-73" x="1952.302734"/>
     <use xlink:href="#DejaVuSans-65" x="2004.402344"/>
     <use xlink:href="#DejaVuSans-2e" x="2065.925781"/>
     <use xlink:href="#DejaVuSans-61" x="2097.712891"/>
     <use xlink:href="#DejaVuSans-70" x="2158.992188"/>
     <use xlink:href="#DejaVuSans-32" x="2222.46875"/>
     <use xlink:href="#DejaVuSans-2e" x="2286.091797"/>
     <use xlink:href="#DejaVuSans-77" x="2317.878906"/>
     <use xlink:href="#DejaVuSans-6c" x="2399.666016"/>
     <use xlink:href="#DejaVuSans-61" x="2427.449219"/>
     <use xlink:href="#DejaVuSans-6e" x="2488.728516"/>
     <use xlink:href="#DejaVuSans-5b" x="2552.107422"/>
     <use xlink:href="#DejaVuSans-30" x="2591.121094"/>
     <use xlink:href="#DejaVuSans-5d" x="2654.744141"/>
     <use xlink:href="#DejaVuSans-2e" x="2693.757812"/>
     <use xlink:href="#DejaVuSans-6d" x="2725.544922"/>
     <use xlink:href="#DejaVuSans-61" x="2822.957031"/>
     <use xlink:href="#DejaVuSans-63" x="2884.236328"/>
     <use xlink:href="#DejaVuSans-2e" x="2939.216797"/>
     <use xlink:href="#DejaVuSans-64" x="2971.003906"/>
     <use xlink:href="#DejaVuSans-63" x="3034.480469"/>
     <use xlink:href="#DejaVuSans-66" x="3089.460938"/>
     <use xlink:href="#DejaVuSans-2e" x="3117.416016"/>
     <use xlink:href="#DejaVuSans-63" x="3149.203125"/>
     <use xlink:href="#DejaVuSans-68" x="3204.183594"/>
     <use xlink:href="#DejaVuSans-61" x="3267.5625"/>
     <use xlink:href="#DejaVuSans-6e" x="3328.841797"/>
     <use xlink:href="#DejaVuSans-6e" x="3392.220703"/>
     <use xlink:href="#DejaVuSans-65" x="3455.599609"/>
     <use xlink:href="#DejaVuSans-6c" x="3517.123047"/>
     <use xlink:href="#DejaVuSans-41" x="3544.90625"/>
     <use xlink:href="#DejaVuSans-63" x="3611.564453"/>
     <use xlink:href="#DejaVuSans-63" x="3666.544922"/>
     <use xlink:href="#DejaVuSans-65" x="3721.525391"/>
     <use xlink:href="#DejaVuSans-73" x="3783.048828"/>
     <use xlink:href="#DejaVuSans-73" x="3835.148438"/>
     <use xlink:href="#DejaVuSans-2e" x="3887.248047"/>
     <use xlink:href="#DejaVuSans-70" x="3919.035156"/>
     <use xlink:href="#DejaVuSans-65" x="3982.511719"/>
     <use xlink:href="#DejaVuSans-6e" x="4044.035156"/>
     <use xlink:href="#DejaVuSans-64" x="4107.414062"/>
     <use xlink:href="#DejaVuSans-69" x="4170.890625"/>
     <use xlink:href="#DejaVuSans-6e" x="4198.673828"/>
     <use xlink:href="#DejaVuSans-67" x="4262.052734"/>
     <use xlink:href="#DejaVuSans-51" x="4325.529297"/>
     <use xlink:href="#DejaVuSans-75" x="4404.240234"/>
     <use xlink:href="#DejaVuSans-65" x="4467.619141"/>
     <use xlink:href="#DejaVuSans-75" x="4529.142578"/>
     <use xlink:href="#DejaVuSans-65" x="4592.521484"/>
     <use xlink:href="#DejaVuSans-29" x="4654.044922"/>
    </g>
   </g>
   <g id="legend_1">
    <g id="patch_7">
     <path d="M 576.717187 145.299062 
L 702.2 145.299062 
Q 704.2 145.299062 704.2 143.299062 
L 704.2 129.620937 
Q 704.2 127.620937 702.2 127.620937 
L 576.717187 127.620937 
Q 574.717187 127.620937 574.717187 129.620937 
L 574.717187 143.299062 
Q 574.717187 145.299062 576.717187 145.299062 
z
" style="fill: #ffffff; opacity: 0.8; stroke: #cccccc; stroke-linejoin: miter"/>
    </g>
    <g id="line2d_24">
     <path d="M 578.717187 135.719375 
L 588.717187 135.719375 
L 598.717187 135.719375 
" style="fill: none; stroke: #1f77b4; stroke-width: 1.5; stroke-linecap: square"/>
    </g>
    <g id="text_15">
     <!-- value per sample -->
     <g transform="translate(606.717187 139.219375) scale(0.1 -0.1)">
      <defs>
       <path id="DejaVuSans-394" d="M 2188 4044 
L 906 525 
L 3472 525 
L 2188 4044 
z
M 50 0 
L 1831 4666 
L 2547 4666 
L 4325 0 
L 50 0 
z
" transform="scale(0.015625)"/>
      </defs>
      <use xlink:href="#DejaVuSans-394"/>
      <use xlink:href="#DejaVuSans-76" x="68.408203"/>
      <use xlink:href="#DejaVuSans-61" x="127.587891"/>
      <use xlink:href="#DejaVuSans-6c" x="188.867188"/>
      <use xlink:href="#DejaVuSans-75" x="216.650391"/>
      <use xlink:href="#DejaVuSans-65" x="280.029297"/>
      <use xlink:href="#DejaVuSans-20" x="341.552734"/>
      <use xlink:href="#DejaVuSans-70" x="373.339844"/>
      <use xlink:href="#DejaVuSans-65" x="436.816406"/>
      <use xlink:href="#DejaVuSans-72" x="498.339844"/>
      <use xlink:href="#DejaVuSans-20" x="539.453125"/>
      <use xlink:href="#DejaVuSans-73" x="571.240234"/>
      <use xlink:href="#DejaVuSans-61" x="623.339844"/>
      <use xlink:href="#DejaVuSans-6d" x="684.619141"/>
      <use xlink:href="#DejaVuSans-70" x="782.03125"/>
      <use xlink:href="#DejaVuSans-6c" x="845.507812"/>
      <use xlink:href="#DejaVuSans-65" x="873.291016"/>
     </g>
    </g>
   </g>
  </g>
 </g>
 <defs>
  <clipPath id="p738c64d80e">
   <rect x="54.02" y="26.88" width="655.18" height="219.16"/>
  </clipPath>
 </defs>
</svg>
