<?xml version="1.0" encoding="utf-8" standalone="no"?>
<!DOCTYPE svg PUBLIC "-//W3C//DTD SVG 1.1//EN"
  "http://www.w3.org/Graphics/SVG/1.1/DTD/svg11.dtd">
<svg xmlns:xlink="http://www.w3.org/1999/xlink" width="720pt" height="288pt" viewBox="0 0 720 288" xmlns="http://www.w3.org/2000/svg" version="1.1">
 <metadata>
  <rdf:RDF xmlns:dc="http://purl.org/dc/elements/1.1/" xmlns:cc="http://creativecommons.org/ns#" xmlns:rdf="http://www.w3.org/1999/02/22-rdf-syntax-ns#">
   <cc:Work>
    <dc:type rdf:resource="http://purl.org/dc/dcmitype/StillImage"/>
    <dc:date>2025-07-27T15:08:44.361771</dc:date>
    <dc:format>image/svg+xml</dc:format>
    <dc:creator>
     <cc:Agent>
      <dc:title>Matplotlib v3.9.2, https://matplotlib.org/</dc:title>
     </cc:Agent>
    </dc:creator>
   </cc:Work>
  </rdf:RDF>
 </metadata>
 <defs>
  <style type="text/css">*{stroke-linejoin: round; stroke-linecap: butt}</style>
 </defs>
 <g id="figure_1">
  <g id="patch_1">
   <path d="M 0 288 
L 720 288 
L 720 0 
L 0 0 
z
" style="fill: #ffffff"/>
  </g>
  <g id="axes_1">
   <g id="patch_2">
    <path d="M 54.02 246.04 
L 709.2 246.04 
L 709.2 26.88 
L 54.02 26.88 
z
" style="fill: #ffffff"/>
   </g>
   <g id="matplotlib.axis_1">
    <g id="xtick_1">
     <g id="line2d_1">
      <path d="M 83.786439 246.04 
L 83.786439 26.88 
" clip-path="url(#pb2456ef3ec)" style="fill: none; stroke: #b0b0b0; stroke-width: 0.8; stroke-linecap: square"/>
     </g>
     <g id="line2d_2">
      <defs>
       <path id="m5c324b4b1b" d="M 0 0 
L 0 3.5 
" style="stroke: #000000; stroke-width: 0.8"/>
      </defs>
      <g>
       <use xlink:href="#m5c324b4b1b" x="83.786439" y="246.04" style="stroke: #000000; stroke-width: 0.8"/>
      </g>
     </g>
     <g id="text_1">
      <!-- 0 -->
      <g transform="translate(80.605189 260.638438) scale(0.1 -0.1)">
       <defs>
        <path id="DejaVuSans-30" d="M 2034 4250 
Q 1547 4250 1301 3770 
Q 1056 3291 1056 2328 
Q 1056 1369 1301 889 
Q 1547 409 2034 409 
Q 2525 409 2770 889 
Q 3016 1369 3016 2328 
Q 3016 3291 2770 3770 
Q 2525 4250 2034 4250 
z
M 2034 4750 
Q 2819 4750 3233 4129 
Q 3647 3509 3647 2328 
Q 3647 1150 3233 529 
Q 2819 -91 2034 -91 
Q 1250 -91 836 529 
Q 422 1150 422 2328 
Q 422 3509 836 4129 
Q 1250 4750 2034 4750 
z
" transform="scale(0.015625)"/>
       </defs>
       <use xlink:href="#DejaVuSans-30"/>
      </g>
     </g>
    </g>
    <g id="xtick_2">
     <g id="line2d_3">
      <path d="M 228.483906 246.04 
L 228.483906 26.88 
" clip-path="url(#pb2456ef3ec)" style="fill: none; stroke: #b0b0b0; stroke-width: 0.8; stroke-linecap: square"/>
     </g>
     <g id="line2d_4">
      <g>
       <use xlink:href="#m5c324b4b1b" x="228.483906" y="246.04" style="stroke: #000000; stroke-width: 0.8"/>
      </g>
     </g>
     <g id="text_2">
      <!-- 10000 -->
      <g transform="translate(212.577656 260.638438) scale(0.1 -0.1)">
       <defs>
        <path id="DejaVuSans-31" d="M 794 531 
L 1825 531 
L 1825 4091 
L 703 3866 
L 703 4441 
L 1819 4666 
L 2450 4666 
L 2450 531 
L 3481 531 
L 3481 0 
L 794 0 
L 794 531 
z
" transform="scale(0.015625)"/>
       </defs>
       <use xlink:href="#DejaVuSans-31"/>
       <use xlink:href="#DejaVuSans-30" x="63.623047"/>
       <use xlink:href="#DejaVuSans-30" x="127.246094"/>
       <use xlink:href="#DejaVuSans-30" x="190.869141"/>
       <use xlink:href="#DejaVuSans-30" x="254.492188"/>
      </g>
     </g>
    </g>
    <g id="xtick_3">
     <g id="line2d_5">
      <path d="M 373.181373 246.04 
L 373.181373 26.88 
" clip-path="url(#pb2456ef3ec)" style="fill: none; stroke: #b0b0b0; stroke-width: 0.8; stroke-linecap: square"/>
     </g>
     <g id="line2d_6">
      <g>
       <use xlink:href="#m5c324b4b1b" x="373.181373" y="246.04" style="stroke: #000000; stroke-width: 0.8"/>
      </g>
     </g>
     <g id="text_3">
      <!-- 20000 -->
      <g transform="translate(357.275123 260.638438) scale(0.1 -0.1)">
       <defs>
        <path id="DejaVuSans-32" d="M 1228 531 
L 3431 531 
L 3431 0 
L 469 0 
L 469 531 
Q 828 903 1448 1529 
Q 2069 2156 2228 2338 
Q 2531 2678 2651 2914 
Q 2772 3150 2772 3378 
Q 2772 3750 2511 3984 
Q 2250 4219 1831 4219 
Q 1534 4219 1204 4116 
Q 875 4013 500 3803 
L 500 4441 
Q 881 4594 1212 4672 
Q 1544 4750 1819 4750 
Q 2544 4750 2975 4387 
Q 3406 4025 3406 3419 
Q 3406 3131 3298 2873 
Q 3191 2616 2906 2266 
Q 2828 2175 2409 1742 
Q 1991 1309 1228 531 
z
" transform="scale(0.015625)"/>
       </defs>
       <use xlink:href="#DejaVuSans-32"/>
       <use xlink:href="#DejaVuSans-30" x="63.623047"/>
       <use xlink:href="#DejaVuSans-30" x="127.246094"/>
       <use xlink:href="#DejaVuSans-30" x="190.869141"/>
       <use xlink:href="#DejaVuSans-30" x="254.492188"/>
      </g>
     </g>
    </g>
    <g id="xtick_4">
     <g id="line2d_7">
      <path d="M 517.878839 246.04 
L 517.878839 26.88 
" clip-path="url(#pb2456ef3ec)" style="fill: none; stroke: #b0b0b0; stroke-width: 0.8; stroke-linecap: square"/>
     </g>
     <g id="line2d_8">
      <g>
       <use xlink:href="#m5c324b4b1b" x="517.878839" y="246.04" style="stroke: #000000; stroke-width: 0.8"/>
      </g>
     </g>
     <g id="text_4">
      <!-- 30000 -->
      <g transform="translate(501.972589 260.638438) scale(0.1 -0.1)">
       <defs>
        <path id="DejaVuSans-33" d="M 2597 2516 
Q 3050 2419 3304 2112 
Q 3559 1806 3559 1356 
Q 3559 666 3084 287 
Q 2609 -91 1734 -91 
Q 1441 -91 1130 -33 
Q 819 25 488 141 
L 488 750 
Q 750 597 1062 519 
Q 1375 441 1716 441 
Q 2309 441 2620 675 
Q 2931 909 2931 1356 
Q 2931 1769 2642 2001 
Q 2353 2234 1838 2234 
L 1294 2234 
L 1294 2753 
L 1863 2753 
Q 2328 2753 2575 2939 
Q 2822 3125 2822 3475 
Q 2822 3834 2567 4026 
Q 2313 4219 1838 4219 
Q 1578 4219 1281 4162 
Q 984 4106 628 3988 
L 628 4550 
Q 988 4650 1302 4700 
Q 1616 4750 1894 4750 
Q 2613 4750 3031 4423 
Q 3450 4097 3450 3541 
Q 3450 3153 3228 2886 
Q 3006 2619 2597 2516 
z
" transform="scale(0.015625)"/>
       </defs>
       <use xlink:href="#DejaVuSans-33"/>
       <use xlink:href="#DejaVuSans-30" x="63.623047"/>
       <use xlink:href="#DejaVuSans-30" x="127.246094"/>
       <use xlink:href="#DejaVuSans-30" x="190.869141"/>
       <use xlink:href="#DejaVuSans-30" x="254.492188"/>
      </g>
     </g>
    </g>
    <g id="xtick_5">
     <g id="line2d_9">
      <path d="M 662.576306 246.04 
L 662.576306 26.88 
" clip-path="url(#pb2456ef3ec)" style="fill: none; stroke: #b0b0b0; stroke-width: 0.8; stroke-linecap: square"/>
     </g>
     <g id="line2d_10">
      <g>
       <use xlink:href="#m5c324b4b1b" x="662.576306" y="246.04" style="stroke: #000000; stroke-width: 0.8"/>
      </g>
     </g>
     <g id="text_5">
      <!-- 40000 -->
      <g transform="translate(646.670056 260.638438) scale(0.1 -0.1)">
       <defs>
        <path id="DejaVuSans-34" d="M 2419 4116 
L 825 1625 
L 2419 1625 
L 2419 4116 
z
M 2253 4666 
L 3047 4666 
L 3047 1625 
L 3713 1625 
L 3713 1100 
L 3047 1100 
L 3047 0 
L 2419 0 
L 2419 1100 
L 313 1100 
L 313 1709 
L 2253 4666 
z
" transform="scale(0.015625)"/>
       </defs>
       <use xlink:href="#DejaVuSans-34"/>
       <use xlink:href="#DejaVuSans-30" x="63.623047"/>
       <use xlink:href="#DejaVuSans-30" x="127.246094"/>
       <use xlink:href="#DejaVuSans-30" x="190.869141"/>
       <use xlink:href="#DejaVuSans-30" x="254.492188"/>
      </g>
     </g>
    </g>
    <g id="text_6">
     <!-- Time (s) -->
     <g transform="translate(361.281094 274.316562) scale(0.1 -0.1)">
      <defs>
       <path id="DejaVuSans-54" d="M -19 4666 
L 3928 4666 
L 3928 4134 
L 2272 4134 
L 2272 0 
L 1638 0 
L 1638 4134 
L -19 4134 
L -19 4666 
z
" transform="scale(0.015625)"/>
       <path id="DejaVuSans-69" d="M 603 3500 
L 1178 3500 
L 1178 0 
L 603 0 
L 603 3500 
z
M 603 4863 
L 1178 4863 
L 1178 4134 
L 603 4134 
L 603 4863 
z
" transform="scale(0.015625)"/>
       <path id="DejaVuSans-6d" d="M 3328 2828 
Q 3544 3216 3844 3400 
Q 4144 3584 4550 3584 
Q 5097 3584 5394 3201 
Q 5691 2819 5691 2113 
L 5691 0 
L 5113 0 
L 5113 2094 
Q 5113 2597 4934 2840 
Q 4756 3084 4391 3084 
Q 3944 3084 3684 2787 
Q 3425 2491 3425 1978 
L 3425 0 
L 2847 0 
L 2847 2094 
Q 2847 2600 2669 2842 
Q 2491 3084 2119 3084 
Q 1678 3084 1418 2786 
Q 1159 2488 1159 1978 
L 1159 0 
L 581 0 
L 581 3500 
L 1159 3500 
L 1159 2956 
Q 1356 3278 1631 3431 
Q 1906 3584 2284 3584 
Q 2666 3584 2933 3390 
Q 3200 3197 3328 2828 
z
" transform="scale(0.015625)"/>
       <path id="DejaVuSans-65" d="M 3597 1894 
L 3597 1613 
L 953 1613 
Q 991 1019 1311 708 
Q 1631 397 2203 397 
Q 2534 397 2845 478 
Q 3156 559 3463 722 
L 3463 178 
Q 3153 47 2828 -22 
Q 2503 -91 2169 -91 
Q 1331 -91 842 396 
Q 353 884 353 1716 
Q 353 2575 817 3079 
Q 1281 3584 2069 3584 
Q 2775 3584 3186 3129 
Q 3597 2675 3597 1894 
z
M 3022 2063 
Q 3016 2534 2758 2815 
Q 2500 3097 2075 3097 
Q 1594 3097 1305 2825 
Q 1016 2553 972 2059 
L 3022 2063 
z
" transform="scale(0.015625)"/>
       <path id="DejaVuSans-20" transform="scale(0.015625)"/>
       <path id="DejaVuSans-28" d="M 1984 4856 
Q 1566 4138 1362 3434 
Q 1159 2731 1159 2009 
Q 1159 1288 1364 580 
Q 1569 -128 1984 -844 
L 1484 -844 
Q 1016 -109 783 600 
Q 550 1309 550 2009 
Q 550 2706 781 3412 
Q 1013 4119 1484 4856 
L 1984 4856 
z
" transform="scale(0.015625)"/>
       <path id="DejaVuSans-73" d="M 2834 3397 
L 2834 2853 
Q 2591 2978 2328 3040 
Q 2066 3103 1784 3103 
Q 1356 3103 1142 2972 
Q 928 2841 928 2578 
Q 928 2378 1081 2264 
Q 1234 2150 1697 2047 
L 1894 2003 
Q 2506 1872 2764 1633 
Q 3022 1394 3022 966 
Q 3022 478 2636 193 
Q 2250 -91 1575 -91 
Q 1294 -91 989 -36 
Q 684 19 347 128 
L 347 722 
Q 666 556 975 473 
Q 1284 391 1588 391 
Q 1994 391 2212 530 
Q 2431 669 2431 922 
Q 2431 1156 2273 1281 
Q 2116 1406 1581 1522 
L 1381 1569 
Q 847 1681 609 1914 
Q 372 2147 372 2553 
Q 372 3047 722 3315 
Q 1072 3584 1716 3584 
Q 2034 3584 2315 3537 
Q 2597 3491 2834 3397 
z
" transform="scale(0.015625)"/>
       <path id="DejaVuSans-29" d="M 513 4856 
L 1013 4856 
Q 1481 4119 1714 3412 
Q 1947 2706 1947 2009 
Q 1947 1309 1714 600 
Q 1481 -109 1013 -844 
L 513 -844 
Q 928 -128 1133 580 
Q 1338 1288 1338 2009 
Q 1338 2731 1133 3434 
Q 928 4138 513 4856 
z
" transform="scale(0.015625)"/>
      </defs>
      <use xlink:href="#DejaVuSans-54"/>
      <use xlink:href="#DejaVuSans-69" x="57.958984"/>
      <use xlink:href="#DejaVuSans-6d" x="85.742188"/>
      <use xlink:href="#DejaVuSans-65" x="183.154297"/>
      <use xlink:href="#DejaVuSans-20" x="244.677734"/>
      <use xlink:href="#DejaVuSans-28" x="276.464844"/>
      <use xlink:href="#DejaVuSans-73" x="315.478516"/>
      <use xlink:href="#DejaVuSans-29" x="367.578125"/>
     </g>
    </g>
   </g>
   <g id="matplotlib.axis_2">
    <g id="ytick_1">
     <g id="line2d_11">
      <path d="M 54.02 236.078182 
L 709.2 236.078182 
" clip-path="url(#pb2456ef3ec)" style="fill: none; stroke: #b0b0b0; stroke-width: 0.8; stroke-linecap: square"/>
     </g>
     <g id="line2d_12">
      <defs>
       <path id="md44b2d54c8" d="M 0 0 
L -3.5 0 
" style="stroke: #000000; stroke-width: 0.8"/>
      </defs>
      <g>
       <use xlink:href="#md44b2d54c8" x="54.02" y="236.078182" style="stroke: #000000; stroke-width: 0.8"/>
      </g>
     </g>
     <g id="text_7">
      <!-- 0.00 -->
      <g transform="translate(24.754375 239.877401) scale(0.1 -0.1)">
       <defs>
        <path id="DejaVuSans-2e" d="M 684 794 
L 1344 794 
L 1344 0 
L 684 0 
L 684 794 
z
" transform="scale(0.015625)"/>
       </defs>
       <use xlink:href="#DejaVuSans-30"/>
       <use xlink:href="#DejaVuSans-2e" x="63.623047"/>
       <use xlink:href="#DejaVuSans-30" x="95.410156"/>
       <use xlink:href="#DejaVuSans-30" x="159.033203"/>
      </g>
     </g>
    </g>
    <g id="ytick_2">
     <g id="line2d_13">
      <path d="M 54.02 196.224851 
L 709.2 196.224851 
" clip-path="url(#pb2456ef3ec)" style="fill: none; stroke: #b0b0b0; stroke-width: 0.8; stroke-linecap: square"/>
     </g>
     <g id="line2d_14">
      <g>
       <use xlink:href="#md44b2d54c8" x="54.02" y="196.224851" style="stroke: #000000; stroke-width: 0.8"/>
      </g>
     </g>
     <g id="text_8">
      <!-- 0.05 -->
      <g transform="translate(24.754375 200.02407) scale(0.1 -0.1)">
       <defs>
        <path id="DejaVuSans-35" d="M 691 4666 
L 3169 4666 
L 3169 4134 
L 1269 4134 
L 1269 2991 
Q 1406 3038 1543 3061 
Q 1681 3084 1819 3084 
Q 2600 3084 3056 2656 
Q 3513 2228 3513 1497 
Q 3513 744 3044 326 
Q 2575 -91 1722 -91 
Q 1428 -91 1123 -41 
Q 819 9 494 109 
L 494 744 
Q 775 591 1075 516 
Q 1375 441 1709 441 
Q 2250 441 2565 725 
Q 2881 1009 2881 1497 
Q 2881 1984 2565 2268 
Q 2250 2553 1709 2553 
Q 1456 2553 1204 2497 
Q 953 2441 691 2322 
L 691 4666 
z
" transform="scale(0.015625)"/>
       </defs>
       <use xlink:href="#DejaVuSans-30"/>
       <use xlink:href="#DejaVuSans-2e" x="63.623047"/>
       <use xlink:href="#DejaVuSans-30" x="95.410156"/>
       <use xlink:href="#DejaVuSans-35" x="159.033203"/>
      </g>
     </g>
    </g>
    <g id="ytick_3">
     <g id="line2d_15">
      <path d="M 54.02 156.371521 
L 709.2 156.371521 
" clip-path="url(#pb2456ef3ec)" style="fill: none; stroke: #b0b0b0; stroke-width: 0.8; stroke-linecap: square"/>
     </g>
     <g id="line2d_16">
      <g>
       <use xlink:href="#md44b2d54c8" x="54.02" y="156.371521" style="stroke: #000000; stroke-width: 0.8"/>
      </g>
     </g>
     <g id="text_9">
      <!-- 0.10 -->
      <g transform="translate(24.754375 160.17074) scale(0.1 -0.1)">
       <use xlink:href="#DejaVuSans-30"/>
       <use xlink:href="#DejaVuSans-2e" x="63.623047"/>
       <use xlink:href="#DejaVuSans-31" x="95.410156"/>
       <use xlink:href="#DejaVuSans-30" x="159.033203"/>
      </g>
     </g>
    </g>
    <g id="ytick_4">
     <g id="line2d_17">
      <path d="M 54.02 116.518191 
L 709.2 116.518191 
" clip-path="url(#pb2456ef3ec)" style="fill: none; stroke: #b0b0b0; stroke-width: 0.8; stroke-linecap: square"/>
     </g>
     <g id="line2d_18">
      <g>
       <use xlink:href="#md44b2d54c8" x="54.02" y="116.518191" style="stroke: #000000; stroke-width: 0.8"/>
      </g>
     </g>
     <g id="text_10">
      <!-- 0.15 -->
      <g transform="translate(24.754375 120.317409) scale(0.1 -0.1)">
       <use xlink:href="#DejaVuSans-30"/>
       <use xlink:href="#DejaVuSans-2e" x="63.623047"/>
       <use xlink:href="#DejaVuSans-31" x="95.410156"/>
       <use xlink:href="#DejaVuSans-35" x="159.033203"/>
      </g>
     </g>
    </g>
    <g id="ytick_5">
     <g id="line2d_19">
      <path d="M 54.02 76.66486 
L 709.2 76.66486 
" clip-path="url(#pb2456ef3ec)" style="fill: none; stroke: #b0b0b0; stroke-width: 0.8; stroke-linecap: square"/>
     </g>
     <g id="line2d_20">
      <g>
       <use xlink:href="#md44b2d54c8" x="54.02" y="76.66486" style="stroke: #000000; stroke-width: 0.8"/>
      </g>
     </g>
     <g id="text_11">
      <!-- 0.20 -->
      <g transform="translate(24.754375 80.464079) scale(0.1 -0.1)">
       <use xlink:href="#DejaVuSans-30"/>
       <use xlink:href="#DejaVuSans-2e" x="63.623047"/>
       <use xlink:href="#DejaVuSans-32" x="95.410156"/>
       <use xlink:href="#DejaVuSans-30" x="159.033203"/>
      </g>
     </g>
    </g>
    <g id="ytick_6">
     <g id="line2d_21">
      <path d="M 54.02 36.81153 
L 709.2 36.81153 
" clip-path="url(#pb2456ef3ec)" style="fill: none; stroke: #b0b0b0; stroke-width: 0.8; stroke-linecap: square"/>
     </g>
     <g id="line2d_22">
      <g>
       <use xlink:href="#md44b2d54c8" x="54.02" y="36.81153" style="stroke: #000000; stroke-width: 0.8"/>
      </g>
     </g>
     <g id="text_12">
      <!-- 0.25 -->
      <g transform="translate(24.754375 40.610748) scale(0.1 -0.1)">
       <use xlink:href="#DejaVuSans-30"/>
       <use xlink:href="#DejaVuSans-2e" x="63.623047"/>
       <use xlink:href="#DejaVuSans-32" x="95.410156"/>
       <use xlink:href="#DejaVuSans-35" x="159.033203"/>
      </g>
     </g>
    </g>
    <g id="text_13">
     <!-- Delta Value -->
     <g transform="translate(18.674688 165.120156) rotate(-90) scale(0.1 -0.1)">
      <defs>
       <path id="DejaVuSans-44" d="M 1259 4147 
L 1259 519 
L 2022 519 
Q 2988 519 3436 956 
Q 3884 1394 3884 2338 
Q 3884 3275 3436 3711 
Q 2988 4147 2022 4147 
L 1259 4147 
z
M 628 4666 
L 1925 4666 
Q 3281 4666 3915 4102 
Q 4550 3538 4550 2338 
Q 4550 1131 3912 565 
Q 3275 0 1925 0 
L 628 0 
L 628 4666 
z
" transform="scale(0.015625)"/>
       <path id="DejaVuSans-6c" d="M 603 4863 
L 1178 4863 
L 1178 0 
L 603 0 
L 603 4863 
z
" transform="scale(0.015625)"/>
       <path id="DejaVuSans-74" d="M 1172 4494 
L 1172 3500 
L 2356 3500 
L 2356 3053 
L 1172 3053 
L 1172 1153 
Q 1172 725 1289 603 
Q 1406 481 1766 481 
L 2356 481 
L 2356 0 
L 1766 0 
Q 1100 0 847 248 
Q 594 497 594 1153 
L 594 3053 
L 172 3053 
L 172 3500 
L 594 3500 
L 594 4494 
L 1172 4494 
z
" transform="scale(0.015625)"/>
       <path id="DejaVuSans-61" d="M 2194 1759 
Q 1497 1759 1228 1600 
Q 959 1441 959 1056 
Q 959 750 1161 570 
Q 1363 391 1709 391 
Q 2188 391 2477 730 
Q 2766 1069 2766 1631 
L 2766 1759 
L 2194 1759 
z
M 3341 1997 
L 3341 0 
L 2766 0 
L 2766 531 
Q 2569 213 2275 61 
Q 1981 -91 1556 -91 
Q 1019 -91 701 211 
Q 384 513 384 1019 
Q 384 1609 779 1909 
Q 1175 2209 1959 2209 
L 2766 2209 
L 2766 2266 
Q 2766 2663 2505 2880 
Q 2244 3097 1772 3097 
Q 1472 3097 1187 3025 
Q 903 2953 641 2809 
L 641 3341 
Q 956 3463 1253 3523 
Q 1550 3584 1831 3584 
Q 2591 3584 2966 3190 
Q 3341 2797 3341 1997 
z
" transform="scale(0.015625)"/>
       <path id="DejaVuSans-56" d="M 1831 0 
L 50 4666 
L 709 4666 
L 2188 738 
L 3669 4666 
L 4325 4666 
L 2547 0 
L 1831 0 
z
" transform="scale(0.015625)"/>
       <path id="DejaVuSans-75" d="M 544 1381 
L 544 3500 
L 1119 3500 
L 1119 1403 
Q 1119 906 1312 657 
Q 1506 409 1894 409 
Q 2359 409 2629 706 
Q 2900 1003 2900 1516 
L 2900 3500 
L 3475 3500 
L 3475 0 
L 2900 0 
L 2900 538 
Q 2691 219 2414 64 
Q 2138 -91 1772 -91 
Q 1169 -91 856 284 
Q 544 659 544 1381 
z
M 1991 3584 
L 1991 3584 
z
" transform="scale(0.015625)"/>
      </defs>
      <use xlink:href="#DejaVuSans-44"/>
      <use xlink:href="#DejaVuSans-65" x="77.001953"/>
      <use xlink:href="#DejaVuSans-6c" x="138.525391"/>
      <use xlink:href="#DejaVuSans-74" x="166.308594"/>
      <use xlink:href="#DejaVuSans-61" x="205.517578"/>
      <use xlink:href="#DejaVuSans-20" x="266.796875"/>
      <use xlink:href="#DejaVuSans-56" x="298.583984"/>
      <use xlink:href="#DejaVuSans-61" x="359.242188"/>
      <use xlink:href="#DejaVuSans-6c" x="420.521484"/>
      <use xlink:href="#DejaVuSans-75" x="448.304688"/>
      <use xlink:href="#DejaVuSans-65" x="511.683594"/>
     </g>
    </g>
   </g>
   <g id="line2d_23">
    <path d="M 83.800909 236.078182 
L 83.858788 236.047893 
L 83.873258 236.078182 
L 85.45046 36.841818 
L 85.537279 236.078182 
L 87.100011 36.841818 
L 87.18683 236.078182 
L 89.256004 36.841818 
L 89.342822 236.078182 
L 90.905555 36.841818 
L 90.992373 236.078182 
L 92.598515 36.841818 
L 92.685334 236.078182 
L 96.765802 36.841818 
L 96.852621 236.078182 
L 98.227247 36.841818 
L 98.314065 236.078182 
L 99.674221 36.841818 
L 99.76104 236.078182 
L 101.135666 36.841818 
L 101.222484 236.078182 
L 102.61158 36.841818 
L 102.698398 236.078182 
L 104.073024 36.841818 
L 104.159843 236.078182 
L 105.519999 36.841818 
L 105.606817 236.078182 
L 106.981443 36.841818 
L 107.068262 236.078182 
L 108.428418 36.841818 
L 108.515236 236.078182 
L 109.918802 36.841818 
L 110.00562 236.078182 
L 111.365776 36.841818 
L 111.452595 236.078182 
L 112.827221 36.841818 
L 112.914039 236.078182 
L 114.274196 36.841818 
L 114.361014 236.078182 
L 115.73564 36.841818 
L 115.822458 236.078182 
L 117.211554 36.841818 
L 117.298373 236.078182 
L 118.672999 36.841818 
L 118.759817 236.078182 
L 120.119973 36.841818 
L 120.206792 236.078182 
L 121.581418 36.841818 
L 121.668236 236.078182 
L 123.028392 36.841818 
L 123.115211 236.078182 
L 124.518776 36.841818 
L 124.605595 236.078182 
L 125.965751 36.841818 
L 126.052569 236.078182 
L 127.427195 36.841818 
L 127.514014 236.078182 
L 128.87417 36.841818 
L 128.960988 236.078182 
L 130.335614 36.841818 
L 130.422433 236.078182 
L 131.811529 36.841818 
L 131.898347 236.078182 
L 133.272973 36.841818 
L 133.359791 236.078182 
L 134.719948 36.841818 
L 134.806766 236.078182 
L 136.181392 36.841818 
L 136.26821 236.078182 
L 137.628367 36.841818 
L 137.715185 236.078182 
L 139.118751 36.841818 
L 139.205569 236.078182 
L 140.565725 36.841818 
L 140.652544 236.078182 
L 142.02717 36.841818 
L 142.113988 236.078182 
L 143.474144 36.841818 
L 143.560963 236.078182 
L 144.935589 36.841818 
L 145.022407 236.078182 
L 146.411503 36.841818 
L 146.498321 236.078182 
L 147.872947 36.841818 
L 147.959766 236.078182 
L 149.319922 36.841818 
L 149.40674 236.078182 
L 150.781366 36.841818 
L 150.868185 236.078182 
L 152.228341 36.841818 
L 152.31516 236.078182 
L 153.718725 36.841818 
L 153.805543 236.078182 
L 155.1657 36.841818 
L 155.252518 236.078182 
L 156.627144 36.841818 
L 156.713963 236.078182 
L 158.074119 36.841818 
L 158.160937 236.078182 
L 159.535563 36.841818 
L 159.622382 236.078182 
L 161.011477 36.841818 
L 161.098296 236.078182 
L 162.472922 36.841818 
L 162.55974 236.078182 
L 163.919896 36.841818 
L 164.006715 236.078182 
L 165.381341 36.841818 
L 165.468159 236.078182 
L 166.828315 36.841818 
L 166.915134 236.078182 
L 168.318699 36.841818 
L 168.405518 236.078182 
L 169.765674 36.841818 
L 169.852492 236.078182 
L 171.227118 36.841818 
L 171.313937 236.078182 
L 172.674093 36.841818 
L 172.760912 236.078182 
L 174.135537 36.841818 
L 174.222356 236.078182 
L 175.611452 36.841818 
L 175.69827 236.078182 
L 177.072896 36.841818 
L 177.159715 236.078182 
L 178.519871 36.841818 
L 178.606689 236.078182 
L 179.981315 36.841818 
L 180.068134 236.078182 
L 181.42829 36.841818 
L 181.515108 236.078182 
L 182.918674 36.841818 
L 183.005492 236.078182 
L 184.365648 36.841818 
L 184.452467 236.078182 
L 185.827093 36.841818 
L 185.913911 236.078182 
L 187.274067 36.841818 
L 187.360886 236.078182 
L 188.735512 36.841818 
L 188.82233 236.078182 
L 190.211426 36.841818 
L 190.298245 236.078182 
L 191.67287 36.841818 
L 191.759689 236.078182 
L 193.119845 36.841818 
L 193.206664 236.078182 
L 194.58129 36.841818 
L 194.668108 236.078182 
L 196.028264 36.841818 
L 196.115083 236.078182 
L 197.518648 36.841818 
L 197.605467 236.078182 
L 198.965623 36.841818 
L 199.052441 236.078182 
L 200.427067 36.841818 
L 200.513886 236.078182 
L 201.874042 36.841818 
L 201.96086 236.078182 
L 203.335486 36.841818 
L 203.422305 236.078182 
L 204.8114 36.841818 
L 204.898219 236.078182 
L 206.272845 36.841818 
L 206.359663 236.078182 
L 207.719819 36.841818 
L 207.806638 236.078182 
L 209.181264 36.841818 
L 209.268082 236.078182 
L 210.628239 36.841818 
L 210.715057 236.078182 
L 212.118622 36.841818 
L 212.205441 236.078182 
L 213.565597 36.841818 
L 213.652416 236.078182 
L 215.027042 36.841818 
L 215.11386 236.078182 
L 216.474016 36.841818 
L 216.560835 236.078182 
L 217.935461 36.841818 
L 218.022279 236.078182 
L 219.411375 36.841818 
L 219.498193 236.078182 
L 220.872819 36.841818 
L 220.959638 236.078182 
L 222.319794 36.841818 
L 222.406612 236.078182 
L 223.781238 36.841818 
L 223.868057 236.078182 
L 225.228213 36.841818 
L 225.315031 236.078182 
L 226.718597 36.841818 
L 226.805415 236.078182 
L 228.165572 36.841818 
L 228.25239 236.078182 
L 229.627016 36.841818 
L 229.713834 236.078182 
L 231.073991 36.841818 
L 231.160809 236.078182 
L 232.535435 36.841818 
L 232.622254 236.078182 
L 234.011349 36.841818 
L 234.098168 236.078182 
L 235.472794 36.841818 
L 235.559612 236.078182 
L 236.919768 36.841818 
L 237.006587 236.078182 
L 238.381213 36.841818 
L 238.468031 236.078182 
L 239.828187 36.841818 
L 239.915006 236.078182 
L 241.318571 36.841818 
L 241.40539 236.078182 
L 242.765546 36.841818 
L 242.852364 236.078182 
L 244.22699 36.841818 
L 244.313809 236.078182 
L 245.673965 36.841818 
L 245.760783 236.078182 
L 247.135409 36.841818 
L 247.222228 236.078182 
L 248.611324 36.841818 
L 248.698142 236.078182 
L 250.072768 36.841818 
L 250.159586 236.078182 
L 251.519743 36.841818 
L 251.606561 236.078182 
L 252.981187 36.841818 
L 253.068006 236.078182 
L 254.428162 36.841818 
L 254.51498 236.078182 
L 255.860667 36.841818 
L 255.947485 236.078182 
L 257.495748 36.841818 
L 257.582566 236.078182 
L 259.159769 36.841818 
L 259.246587 236.078182 
L 260.780381 36.841818 
L 260.867199 236.078182 
L 262.965312 36.841818 
L 263.052131 236.078182 
L 264.470166 36.841818 
L 264.556984 236.078182 
L 266.278884 36.841818 
L 266.293354 236.078182 
L 266.568279 236.078182 
L 270.258065 36.841818 
L 270.344883 236.078182 
L 271.748448 36.841818 
L 271.835267 236.078182 
L 273.166484 36.841818 
L 273.253302 236.078182 
L 274.685807 36.841818 
L 274.772626 236.078182 
L 276.103842 36.841818 
L 276.190661 236.078182 
L 277.594226 36.841818 
L 277.681045 236.078182 
L 279.012261 36.841818 
L 279.09908 236.078182 
L 280.502645 36.841818 
L 280.589464 236.078182 
L 281.94962 36.841818 
L 282.036438 236.078182 
L 283.440004 36.841818 
L 283.526822 236.078182 
L 284.858039 36.841818 
L 284.944857 236.078182 
L 286.348423 36.841818 
L 286.435241 236.078182 
L 287.766458 36.841818 
L 287.853277 236.078182 
L 289.285781 36.841818 
L 289.3726 236.078182 
L 290.703817 36.841818 
L 290.790635 236.078182 
L 292.194201 36.841818 
L 292.281019 236.078182 
L 293.612236 36.841818 
L 293.699054 236.078182 
L 295.10262 36.841818 
L 295.189438 236.078182 
L 296.549594 36.841818 
L 296.636413 236.078182 
L 298.039978 36.841818 
L 298.126797 236.078182 
L 299.458013 36.841818 
L 299.544832 236.078182 
L 300.948397 36.841818 
L 301.035216 236.078182 
L 302.366432 36.841818 
L 302.453251 236.078182 
L 303.885756 36.841818 
L 303.972574 236.078182 
L 305.303791 36.841818 
L 305.390609 236.078182 
L 306.794175 36.841818 
L 306.880993 236.078182 
L 308.21221 36.841818 
L 308.299029 236.078182 
L 309.702594 36.841818 
L 309.789412 236.078182 
L 311.149569 36.841818 
L 311.236387 236.078182 
L 312.639953 36.841818 
L 312.726771 236.078182 
L 314.057988 36.841818 
L 314.144806 236.078182 
L 315.548372 36.841818 
L 315.63519 236.078182 
L 316.966407 36.841818 
L 317.053225 236.078182 
L 318.48573 36.841818 
L 318.572549 236.078182 
L 319.903765 36.841818 
L 319.990584 236.078182 
L 321.394149 36.841818 
L 321.480968 236.078182 
L 322.812184 36.841818 
L 322.899003 236.078182 
L 324.302568 36.841818 
L 324.389387 236.078182 
L 325.749543 36.841818 
L 325.836361 236.078182 
L 327.239927 36.841818 
L 327.326745 236.078182 
L 328.657962 36.841818 
L 328.744781 236.078182 
L 330.148346 36.841818 
L 330.235164 236.078182 
L 331.566381 36.841818 
L 331.6532 236.078182 
L 333.085705 36.841818 
L 333.172523 236.078182 
L 334.50374 36.841818 
L 334.590558 236.078182 
L 335.994124 36.841818 
L 336.080942 236.078182 
L 337.412159 36.841818 
L 337.498977 236.078182 
L 338.902543 36.841818 
L 338.989361 236.078182 
L 340.349517 36.841818 
L 340.436336 236.078182 
L 341.839901 36.841818 
L 341.92672 236.078182 
L 343.257936 36.841818 
L 343.344755 236.078182 
L 344.74832 36.841818 
L 344.835139 236.078182 
L 346.166356 36.841818 
L 346.253174 236.078182 
L 347.685679 36.841818 
L 347.772497 236.078182 
L 349.103714 36.841818 
L 349.190533 236.078182 
L 350.594098 36.841818 
L 350.680917 236.078182 
L 352.012133 36.841818 
L 352.098952 236.078182 
L 353.502517 36.841818 
L 353.589336 236.078182 
L 354.949492 36.841818 
L 355.03631 236.078182 
L 356.439876 36.841818 
L 356.526694 236.078182 
L 357.857911 36.841818 
L 357.944729 236.078182 
L 359.348295 36.841818 
L 359.435113 236.078182 
L 360.795269 36.841818 
L 360.882088 236.078182 
L 362.314593 36.841818 
L 362.401411 236.078182 
L 363.732628 36.841818 
L 363.819446 236.078182 
L 365.223012 36.841818 
L 365.30983 236.078182 
L 366.641047 36.841818 
L 366.727866 236.078182 
L 368.16037 36.841818 
L 368.247189 236.078182 
L 369.607345 36.841818 
L 369.694164 236.078182 
L 371.097729 36.841818 
L 371.184548 236.078182 
L 372.515764 36.841818 
L 372.602583 236.078182 
L 374.006148 36.841818 
L 374.092967 236.078182 
L 375.453123 36.841818 
L 375.539941 236.078182 
L 376.972446 36.841818 
L 377.059265 236.078182 
L 378.390481 36.841818 
L 378.4773 236.078182 
L 379.880865 36.841818 
L 379.967684 236.078182 
L 381.2989 36.841818 
L 381.385719 236.078182 
L 382.818224 36.841818 
L 382.905042 236.078182 
L 384.265199 36.841818 
L 384.352017 236.078182 
L 385.755582 36.841818 
L 385.842401 236.078182 
L 387.173618 36.841818 
L 387.260436 236.078182 
L 388.664001 36.841818 
L 388.75082 236.078182 
L 390.110976 36.841818 
L 390.197795 236.078182 
L 391.6303 36.841818 
L 391.717118 236.078182 
L 393.048335 36.841818 
L 393.135153 236.078182 
L 394.538719 36.841818 
L 394.625537 236.078182 
L 395.956754 36.841818 
L 396.043572 236.078182 
L 397.476077 36.841818 
L 397.562896 236.078182 
L 398.923052 36.841818 
L 399.00987 236.078182 
L 400.413436 36.841818 
L 400.500254 236.078182 
L 401.831471 36.841818 
L 401.918289 236.078182 
L 403.321855 36.841818 
L 403.408673 236.078182 
L 404.76883 36.841818 
L 404.855648 236.078182 
L 406.288153 36.841818 
L 406.374971 236.078182 
L 407.706188 36.841818 
L 407.793007 236.078182 
L 409.196572 36.841818 
L 409.28339 236.078182 
L 410.614607 36.841818 
L 410.701426 236.078182 
L 412.133931 36.841818 
L 412.220749 236.078182 
L 413.580905 36.841818 
L 413.667724 236.078182 
L 415.071289 36.841818 
L 415.158108 236.078182 
L 416.489324 36.841818 
L 416.576143 236.078182 
L 417.979708 36.841818 
L 418.066527 236.078182 
L 419.426683 36.841818 
L 419.513501 236.078182 
L 420.946006 36.841818 
L 421.032825 236.078182 
L 422.364041 36.841818 
L 422.45086 236.078182 
L 423.854425 36.841818 
L 423.941244 236.078182 
L 425.272461 36.841818 
L 425.359279 236.078182 
L 426.791784 36.841818 
L 426.878602 236.078182 
L 428.238759 36.841818 
L 428.325577 236.078182 
L 429.729143 36.841818 
L 429.815961 236.078182 
L 431.147178 36.841818 
L 431.233996 236.078182 
L 432.637562 36.841818 
L 432.72438 236.078182 
L 434.084536 36.841818 
L 434.171355 236.078182 
L 435.60386 36.841818 
L 435.690678 236.078182 
L 437.021895 36.841818 
L 437.108713 236.078182 
L 438.512279 36.841818 
L 438.599097 236.078182 
L 439.930314 36.841818 
L 440.017132 236.078182 
L 441.449637 36.841818 
L 441.536456 236.078182 
L 442.896612 36.841818 
L 442.98343 236.078182 
L 444.386996 36.841818 
L 444.473814 236.078182 
L 445.805031 36.841818 
L 445.89185 236.078182 
L 447.295415 36.841818 
L 447.382233 236.078182 
L 448.74239 36.841818 
L 448.829208 236.078182 
L 450.261713 36.841818 
L 450.348532 236.078182 
L 451.679748 36.841818 
L 451.766567 236.078182 
L 453.170132 36.841818 
L 453.256951 236.078182 
L 454.588167 36.841818 
L 454.674986 236.078182 
L 456.107491 36.841818 
L 456.194309 236.078182 
L 457.554465 36.841818 
L 457.641284 236.078182 
L 459.044849 36.841818 
L 459.131668 236.078182 
L 460.462884 36.841818 
L 460.549703 236.078182 
L 461.953268 36.841818 
L 462.040087 236.078182 
L 463.400243 36.841818 
L 463.487061 236.078182 
L 464.919566 36.841818 
L 465.006385 236.078182 
L 466.337602 36.841818 
L 466.42442 236.078182 
L 467.827985 36.841818 
L 467.914804 236.078182 
L 469.246021 36.841818 
L 469.332839 236.078182 
L 470.765344 36.841818 
L 470.852163 236.078182 
L 472.212319 36.841818 
L 472.299137 236.078182 
L 473.702703 36.841818 
L 473.789521 236.078182 
L 475.120738 36.841818 
L 475.207556 236.078182 
L 476.611122 36.841818 
L 476.69794 236.078182 
L 478.029157 36.841818 
L 478.115975 236.078182 
L 479.54848 36.841818 
L 479.635299 236.078182 
L 480.966515 36.841818 
L 481.053334 236.078182 
L 482.456899 36.841818 
L 482.543718 236.078182 
L 483.874935 36.841818 
L 483.961753 236.078182 
L 485.365318 36.841818 
L 485.452137 236.078182 
L 486.812293 36.841818 
L 486.899112 236.078182 
L 488.302677 36.841818 
L 488.389495 236.078182 
L 489.720712 36.841818 
L 489.807531 236.078182 
L 491.211096 36.841818 
L 491.297915 236.078182 
L 492.629131 36.841818 
L 492.71595 236.078182 
L 494.148455 36.841818 
L 494.235273 236.078182 
L 495.56649 36.841818 
L 495.653308 236.078182 
L 497.056874 36.841818 
L 497.143692 236.078182 
L 498.474909 36.841818 
L 498.561727 236.078182 
L 499.965293 36.841818 
L 500.052111 236.078182 
L 501.412267 36.841818 
L 501.499086 236.078182 
L 502.902651 36.841818 
L 502.98947 236.078182 
L 504.320687 36.841818 
L 504.407505 236.078182 
L 505.81107 36.841818 
L 505.897889 236.078182 
L 507.229106 36.841818 
L 507.315924 236.078182 
L 508.748429 36.841818 
L 508.835248 236.078182 
L 510.166464 36.841818 
L 510.253283 236.078182 
L 511.656848 36.841818 
L 511.743667 236.078182 
L 513.074883 36.841818 
L 513.161702 236.078182 
L 514.565267 36.841818 
L 514.652086 236.078182 
L 516.012242 36.841818 
L 516.09906 236.078182 
L 517.502626 36.841818 
L 517.589444 236.078182 
L 518.920661 36.841818 
L 519.007479 236.078182 
L 520.411045 36.841818 
L 520.497863 236.078182 
L 521.82908 36.841818 
L 521.915899 236.078182 
L 523.348403 36.841818 
L 523.435222 236.078182 
L 524.766439 36.841818 
L 524.853257 236.078182 
L 526.256822 36.841818 
L 526.343641 236.078182 
L 527.674858 36.841818 
L 527.761676 236.078182 
L 529.165242 36.841818 
L 529.25206 236.078182 
L 530.612216 36.841818 
L 530.699035 236.078182 
L 532.1026 36.841818 
L 532.189419 236.078182 
L 533.520635 36.841818 
L 533.607454 236.078182 
L 535.011019 36.841818 
L 535.097838 236.078182 
L 536.429054 36.841818 
L 536.515873 236.078182 
L 537.948378 36.841818 
L 538.035196 236.078182 
L 539.366413 36.841818 
L 539.453231 236.078182 
L 540.856797 36.841818 
L 540.943615 236.078182 
L 542.274832 36.841818 
L 542.361651 236.078182 
L 543.765216 36.841818 
L 543.852034 236.078182 
L 545.212191 36.841818 
L 545.299009 236.078182 
L 546.702575 36.841818 
L 546.789393 236.078182 
L 548.12061 36.841818 
L 548.207428 236.078182 
L 549.610994 36.841818 
L 549.697812 236.078182 
L 551.029029 36.841818 
L 551.115847 236.078182 
L 552.548352 36.841818 
L 552.635171 236.078182 
L 553.966387 36.841818 
L 554.053206 236.078182 
L 555.456771 36.841818 
L 555.54359 236.078182 
L 556.874806 36.841818 
L 556.961625 236.078182 
L 558.36519 36.841818 
L 558.452009 236.078182 
L 559.812165 36.841818 
L 559.898983 236.078182 
L 561.302549 36.841818 
L 561.389367 236.078182 
L 562.720584 36.841818 
L 562.807403 236.078182 
L 564.210968 36.841818 
L 564.297786 236.078182 
L 565.629003 36.841818 
L 565.715822 236.078182 
L 567.148327 36.841818 
L 567.235145 236.078182 
L 568.566362 36.841818 
L 568.65318 236.078182 
L 570.056746 36.841818 
L 570.143564 236.078182 
L 571.474781 36.841818 
L 571.561599 236.078182 
L 572.965165 36.841818 
L 573.051983 236.078182 
L 574.412139 36.841818 
L 574.498958 236.078182 
L 575.902523 36.841818 
L 575.989342 236.078182 
L 577.320558 36.841818 
L 577.407377 236.078182 
L 578.810942 36.841818 
L 578.897761 236.078182 
L 580.228978 36.841818 
L 580.315796 236.078182 
L 581.748301 36.841818 
L 581.835119 236.078182 
L 583.166336 36.841818 
L 583.253155 236.078182 
L 584.65672 36.841818 
L 584.743539 236.078182 
L 586.074755 36.841818 
L 586.161574 236.078182 
L 587.565139 36.841818 
L 587.651958 236.078182 
L 589.012114 36.841818 
L 589.098932 236.078182 
L 590.502498 36.841818 
L 590.589316 236.078182 
L 591.920533 36.841818 
L 592.007351 236.078182 
L 593.410917 36.841818 
L 593.497735 236.078182 
L 594.828952 36.841818 
L 594.91577 236.078182 
L 596.348275 36.841818 
L 596.435094 236.078182 
L 597.76631 36.841818 
L 597.853129 236.078182 
L 599.256694 36.841818 
L 599.343513 236.078182 
L 600.67473 36.841818 
L 600.761548 236.078182 
L 602.165113 36.841818 
L 602.251932 236.078182 
L 603.612088 36.841818 
L 603.698907 236.078182 
L 605.102472 36.841818 
L 605.189291 236.078182 
L 606.520507 36.841818 
L 606.607326 236.078182 
L 608.010891 36.841818 
L 608.09771 236.078182 
L 609.428926 36.841818 
L 609.515745 236.078182 
L 610.890371 36.841818 
L 610.977189 236.078182 
L 612.525452 36.841818 
L 612.612271 236.078182 
L 614.189473 36.841818 
L 614.276291 236.078182 
L 616.330995 36.841818 
L 616.417814 236.078182 
L 617.80691 36.841818 
L 617.893728 236.078182 
L 619.456461 36.841818 
L 619.543279 236.078182 
L 621.120482 36.841818 
L 621.2073 236.078182 
L 625.316708 36.841818 
L 625.403527 236.078182 
L 626.778153 36.841818 
L 626.864971 236.078182 
L 628.225127 36.841818 
L 628.311946 236.078182 
L 629.715511 36.841818 
L 629.80233 236.078182 
L 631.162486 36.841818 
L 631.249304 236.078182 
L 632.62393 36.841818 
L 632.710749 236.078182 
L 634.070905 36.841818 
L 634.157723 236.078182 
L 635.532349 36.841818 
L 635.619168 236.078182 
L 637.008263 36.841818 
L 637.095082 236.078182 
L 638.469708 36.841818 
L 638.556526 236.078182 
L 639.916683 36.841818 
L 640.003501 236.078182 
L 641.378127 36.841818 
L 641.464945 236.078182 
L 642.825102 36.841818 
L 642.91192 236.078182 
L 644.315486 36.841818 
L 644.402304 236.078182 
L 645.76246 36.841818 
L 645.849279 236.078182 
L 647.223905 36.841818 
L 647.310723 236.078182 
L 648.670879 36.841818 
L 648.757698 236.078182 
L 650.132324 36.841818 
L 650.219142 236.078182 
L 651.608238 36.841818 
L 651.695056 236.078182 
L 653.069682 36.841818 
L 653.156501 236.078182 
L 654.516657 36.841818 
L 654.603475 236.078182 
L 655.978101 36.841818 
L 656.06492 236.078182 
L 657.425076 36.841818 
L 657.511894 236.078182 
L 658.91546 36.841818 
L 659.002278 236.078182 
L 660.362435 36.841818 
L 660.449253 236.078182 
L 661.823879 36.841818 
L 661.910697 236.078182 
L 663.270854 36.841818 
L 663.357672 236.078182 
L 664.732298 36.841818 
L 664.819117 236.078182 
L 666.208212 36.841818 
L 666.295031 236.078182 
L 667.669657 36.841818 
L 667.756475 236.078182 
L 669.116631 36.841818 
L 669.20345 236.078182 
L 670.578076 36.841818 
L 670.664894 236.078182 
L 672.02505 36.841818 
L 672.111869 236.078182 
L 673.515434 36.841818 
L 673.602253 236.078182 
L 674.962409 36.841818 
L 675.049227 236.078182 
L 676.423853 36.841818 
L 676.510672 236.078182 
L 677.870828 36.841818 
L 677.957646 236.078182 
L 679.332272 36.841818 
L 679.419091 236.078182 
L 679.419091 236.078182 
" clip-path="url(#pb2456ef3ec)" style="fill: none; stroke: #1f77b4; stroke-width: 1.5; stroke-linecap: square"/>
   </g>
   <g id="patch_3">
    <path d="M 54.02 246.04 
L 54.02 26.88 
" style="fill: none; stroke: #000000; stroke-width: 0.8; stroke-linejoin: miter; stroke-linecap: square"/>
   </g>
   <g id="patch_4">
    <path d="M 709.2 246.04 
L 709.2 26.88 
" style="fill: none; stroke: #000000; stroke-width: 0.8; stroke-linejoin: miter; stroke-linecap: square"/>
   </g>
   <g id="patch_5">
    <path d="M 54.02 246.04 
L 709.2 246.04 
" style="fill: none; stroke: #000000; stroke-width: 0.8; stroke-linejoin: miter; stroke-linecap: square"/>
   </g>
   <g id="patch_6">
    <path d="M 54.02 26.88 
L 709.2 26.88 
" style="fill: none; stroke: #000000; stroke-width: 0.8; stroke-linejoin: miter; stroke-linecap: square"/>
   </g>
   <g id="text_14">
    <!-- transmissionState:vector (HandoverShowcase.host2.wlan[0].radio) -->
    <g transform="translate(180.26125 20.88) scale(0.12 -0.12)">
     <defs>
      <path id="DejaVuSans-72" d="M 2631 2963 
Q 2534 3019 2420 3045 
Q 2306 3072 2169 3072 
Q 1681 3072 1420 2755 
Q 1159 2438 1159 1844 
L 1159 0 
L 581 0 
L 581 3500 
L 1159 3500 
L 1159 2956 
Q 1341 3275 1631 3429 
Q 1922 3584 2338 3584 
Q 2397 3584 2469 3576 
Q 2541 3569 2628 3553 
L 2631 2963 
z
" transform="scale(0.015625)"/>
      <path id="DejaVuSans-6e" d="M 3513 2113 
L 3513 0 
L 2938 0 
L 2938 2094 
Q 2938 2591 2744 2837 
Q 2550 3084 2163 3084 
Q 1697 3084 1428 2787 
Q 1159 2491 1159 1978 
L 1159 0 
L 581 0 
L 581 3500 
L 1159 3500 
L 1159 2956 
Q 1366 3272 1645 3428 
Q 1925 3584 2291 3584 
Q 2894 3584 3203 3211 
Q 3513 2838 3513 2113 
z
" transform="scale(0.015625)"/>
      <path id="DejaVuSans-6f" d="M 1959 3097 
Q 1497 3097 1228 2736 
Q 959 2375 959 1747 
Q 959 1119 1226 758 
Q 1494 397 1959 397 
Q 2419 397 2687 759 
Q 2956 1122 2956 1747 
Q 2956 2369 2687 2733 
Q 2419 3097 1959 3097 
z
M 1959 3584 
Q 2709 3584 3137 3096 
Q 3566 2609 3566 1747 
Q 3566 888 3137 398 
Q 2709 -91 1959 -91 
Q 1206 -91 779 398 
Q 353 888 353 1747 
Q 353 2609 779 3096 
Q 1206 3584 1959 3584 
z
" transform="scale(0.015625)"/>
      <path id="DejaVuSans-53" d="M 3425 4513 
L 3425 3897 
Q 3066 4069 2747 4153 
Q 2428 4238 2131 4238 
Q 1616 4238 1336 4038 
Q 1056 3838 1056 3469 
Q 1056 3159 1242 3001 
Q 1428 2844 1947 2747 
L 2328 2669 
Q 3034 2534 3370 2195 
Q 3706 1856 3706 1288 
Q 3706 609 3251 259 
Q 2797 -91 1919 -91 
Q 1588 -91 1214 -16 
Q 841 59 441 206 
L 441 856 
Q 825 641 1194 531 
Q 1563 422 1919 422 
Q 2459 422 2753 634 
Q 3047 847 3047 1241 
Q 3047 1584 2836 1778 
Q 2625 1972 2144 2069 
L 1759 2144 
Q 1053 2284 737 2584 
Q 422 2884 422 3419 
Q 422 4038 858 4394 
Q 1294 4750 2059 4750 
Q 2388 4750 2728 4690 
Q 3069 4631 3425 4513 
z
" transform="scale(0.015625)"/>
      <path id="DejaVuSans-3a" d="M 750 794 
L 1409 794 
L 1409 0 
L 750 0 
L 750 794 
z
M 750 3309 
L 1409 3309 
L 1409 2516 
L 750 2516 
L 750 3309 
z
" transform="scale(0.015625)"/>
      <path id="DejaVuSans-76" d="M 191 3500 
L 800 3500 
L 1894 563 
L 2988 3500 
L 3597 3500 
L 2284 0 
L 1503 0 
L 191 3500 
z
" transform="scale(0.015625)"/>
      <path id="DejaVuSans-63" d="M 3122 3366 
L 3122 2828 
Q 2878 2963 2633 3030 
Q 2388 3097 2138 3097 
Q 1578 3097 1268 2742 
Q 959 2388 959 1747 
Q 959 1106 1268 751 
Q 1578 397 2138 397 
Q 2388 397 2633 464 
Q 2878 531 3122 666 
L 3122 134 
Q 2881 22 2623 -34 
Q 2366 -91 2075 -91 
Q 1284 -91 818 406 
Q 353 903 353 1747 
Q 353 2603 823 3093 
Q 1294 3584 2113 3584 
Q 2378 3584 2631 3529 
Q 2884 3475 3122 3366 
z
" transform="scale(0.015625)"/>
      <path id="DejaVuSans-48" d="M 628 4666 
L 1259 4666 
L 1259 2753 
L 3553 2753 
L 3553 4666 
L 4184 4666 
L 4184 0 
L 3553 0 
L 3553 2222 
L 1259 2222 
L 1259 0 
L 628 0 
L 628 4666 
z
" transform="scale(0.015625)"/>
      <path id="DejaVuSans-64" d="M 2906 2969 
L 2906 4863 
L 3481 4863 
L 3481 0 
L 2906 0 
L 2906 525 
Q 2725 213 2448 61 
Q 2172 -91 1784 -91 
Q 1150 -91 751 415 
Q 353 922 353 1747 
Q 353 2572 751 3078 
Q 1150 3584 1784 3584 
Q 2172 3584 2448 3432 
Q 2725 3281 2906 2969 
z
M 947 1747 
Q 947 1113 1208 752 
Q 1469 391 1925 391 
Q 2381 391 2643 752 
Q 2906 1113 2906 1747 
Q 2906 2381 2643 2742 
Q 2381 3103 1925 3103 
Q 1469 3103 1208 2742 
Q 947 2381 947 1747 
z
" transform="scale(0.015625)"/>
      <path id="DejaVuSans-68" d="M 3513 2113 
L 3513 0 
L 2938 0 
L 2938 2094 
Q 2938 2591 2744 2837 
Q 2550 3084 2163 3084 
Q 1697 3084 1428 2787 
Q 1159 2491 1159 1978 
L 1159 0 
L 581 0 
L 581 4863 
L 1159 4863 
L 1159 2956 
Q 1366 3272 1645 3428 
Q 1925 3584 2291 3584 
Q 2894 3584 3203 3211 
Q 3513 2838 3513 2113 
z
" transform="scale(0.015625)"/>
      <path id="DejaVuSans-77" d="M 269 3500 
L 844 3500 
L 1563 769 
L 2278 3500 
L 2956 3500 
L 3675 769 
L 4391 3500 
L 4966 3500 
L 4050 0 
L 3372 0 
L 2619 2869 
L 1863 0 
L 1184 0 
L 269 3500 
z
" transform="scale(0.015625)"/>
      <path id="DejaVuSans-5b" d="M 550 4863 
L 1875 4863 
L 1875 4416 
L 1125 4416 
L 1125 -397 
L 1875 -397 
L 1875 -844 
L 550 -844 
L 550 4863 
z
" transform="scale(0.015625)"/>
      <path id="DejaVuSans-5d" d="M 1947 4863 
L 1947 -844 
L 622 -844 
L 622 -397 
L 1369 -397 
L 1369 4416 
L 622 4416 
L 622 4863 
L 1947 4863 
z
" transform="scale(0.015625)"/>
     </defs>
     <use xlink:href="#DejaVuSans-74"/>
     <use xlink:href="#DejaVuSans-72" x="39.208984"/>
     <use xlink:href="#DejaVuSans-61" x="80.322266"/>
     <use xlink:href="#DejaVuSans-6e" x="141.601562"/>
     <use xlink:href="#DejaVuSans-73" x="204.980469"/>
     <use xlink:href="#DejaVuSans-6d" x="257.080078"/>
     <use xlink:href="#DejaVuSans-69" x="354.492188"/>
     <use xlink:href="#DejaVuSans-73" x="382.275391"/>
     <use xlink:href="#DejaVuSans-73" x="434.375"/>
     <use xlink:href="#DejaVuSans-69" x="486.474609"/>
     <use xlink:href="#DejaVuSans-6f" x="514.257812"/>
     <use xlink:href="#DejaVuSans-6e" x="575.439453"/>
     <use xlink:href="#DejaVuSans-53" x="638.818359"/>
     <use xlink:href="#DejaVuSans-74" x="702.294922"/>
     <use xlink:href="#DejaVuSans-61" x="741.503906"/>
     <use xlink:href="#DejaVuSans-74" x="802.783203"/>
     <use xlink:href="#DejaVuSans-65" x="841.992188"/>
     <use xlink:href="#DejaVuSans-3a" x="903.515625"/>
     <use xlink:href="#DejaVuSans-76" x="937.207031"/>
     <use xlink:href="#DejaVuSans-65" x="996.386719"/>
     <use xlink:href="#DejaVuSans-63" x="1057.910156"/>
     <use xlink:href="#DejaVuSans-74" x="1112.890625"/>
     <use xlink:href="#DejaVuSans-6f" x="1152.099609"/>
     <use xlink:href="#DejaVuSans-72" x="1213.28125"/>
     <use xlink:href="#DejaVuSans-20" x="1254.394531"/>
     <use xlink:href="#DejaVuSans-28" x="1286.181641"/>
     <use xlink:href="#DejaVuSans-48" x="1325.195312"/>
     <use xlink:href="#DejaVuSans-61" x="1400.390625"/>
     <use xlink:href="#DejaVuSans-6e" x="1461.669922"/>
     <use xlink:href="#DejaVuSans-64" x="1525.048828"/>
     <use xlink:href="#DejaVuSans-6f" x="1588.525391"/>
     <use xlink:href="#DejaVuSans-76" x="1649.707031"/>
     <use xlink:href="#DejaVuSans-65" x="1708.886719"/>
     <use xlink:href="#DejaVuSans-72" x="1770.410156"/>
     <use xlink:href="#DejaVuSans-53" x="1811.523438"/>
     <use xlink:href="#DejaVuSans-68" x="1875"/>
     <use xlink:href="#DejaVuSans-6f" x="1938.378906"/>
     <use xlink:href="#DejaVuSans-77" x="1999.560547"/>
     <use xlink:href="#DejaVuSans-63" x="2081.347656"/>
     <use xlink:href="#DejaVuSans-61" x="2136.328125"/>
     <use xlink:href="#DejaVuSans-73" x="2197.607422"/>
     <use xlink:href="#DejaVuSans-65" x="2249.707031"/>
     <use xlink:href="#DejaVuSans-2e" x="2311.230469"/>
     <use xlink:href="#DejaVuSans-68" x="2343.017578"/>
     <use xlink:href="#DejaVuSans-6f" x="2406.396484"/>
     <use xlink:href="#DejaVuSans-73" x="2467.578125"/>
     <use xlink:href="#DejaVuSans-74" x="2519.677734"/>
     <use xlink:href="#DejaVuSans-32" x="2558.886719"/>
     <use xlink:href="#DejaVuSans-2e" x="2622.509766"/>
     <use xlink:href="#DejaVuSans-77" x="2654.296875"/>
     <use xlink:href="#DejaVuSans-6c" x="2736.083984"/>
     <use xlink:href="#DejaVuSans-61" x="2763.867188"/>
     <use xlink:href="#DejaVuSans-6e" x="2825.146484"/>
     <use xlink:href="#DejaVuSans-5b" x="2888.525391"/>
     <use xlink:href="#DejaVuSans-30" x="2927.539062"/>
     <use xlink:href="#DejaVuSans-5d" x="2991.162109"/>
     <use xlink:href="#DejaVuSans-2e" x="3030.175781"/>
     <use xlink:href="#DejaVuSans-72" x="3061.962891"/>
     <use xlink:href="#DejaVuSans-61" x="3103.076172"/>
     <use xlink:href="#DejaVuSans-64" x="3164.355469"/>
     <use xlink:href="#DejaVuSans-69" x="3227.832031"/>
     <use xlink:href="#DejaVuSans-6f" x="3255.615234"/>
     <use xlink:href="#DejaVuSans-29" x="3316.796875"/>
    </g>
   </g>
   <g id="legend_1">
    <g id="patch_7">
     <path d="M 576.717188 145.299062 
L 702.2 145.299062 
Q 704.2 145.299062 704.2 143.299062 
L 704.2 129.620937 
Q 704.2 127.620937 702.2 127.620937 
L 576.717188 127.620937 
Q 574.717188 127.620937 574.717188 129.620937 
L 574.717188 143.299062 
Q 574.717188 145.299062 576.717188 145.299062 
z
" style="fill: #ffffff; opacity: 0.8; stroke: #cccccc; stroke-linejoin: miter"/>
    </g>
    <g id="line2d_24">
     <path d="M 578.717188 135.719375 
L 588.717188 135.719375 
L 598.717188 135.719375 
" style="fill: none; stroke: #1f77b4; stroke-width: 1.5; stroke-linecap: square"/>
    </g>
    <g id="text_15">
     <!-- Δvalue per sample -->
     <g transform="translate(606.717188 139.219375) scale(0.1 -0.1)">
      <defs>
       <path id="DejaVuSans-394" d="M 2188 4044 
L 906 525 
L 3472 525 
L 2188 4044 
z
M 50 0 
L 1831 4666 
L 2547 4666 
L 4325 0 
L 50 0 
z
" transform="scale(0.015625)"/>
       <path id="DejaVuSans-70" d="M 1159 525 
L 1159 -1331 
L 581 -1331 
L 581 3500 
L 1159 3500 
L 1159 2969 
Q 1341 3281 1617 3432 
Q 1894 3584 2278 3584 
Q 2916 3584 3314 3078 
Q 3713 2572 3713 1747 
Q 3713 922 3314 415 
Q 2916 -91 2278 -91 
Q 1894 -91 1617 61 
Q 1341 213 1159 525 
z
M 3116 1747 
Q 3116 2381 2855 2742 
Q 2594 3103 2138 3103 
Q 1681 3103 1420 2742 
Q 1159 2381 1159 1747 
Q 1159 1113 1420 752 
Q 1681 391 2138 391 
Q 2594 391 2855 752 
Q 3116 1113 3116 1747 
z
" transform="scale(0.015625)"/>
      </defs>
      <use xlink:href="#DejaVuSans-394"/>
      <use xlink:href="#DejaVuSans-76" x="68.408203"/>
      <use xlink:href="#DejaVuSans-61" x="127.587891"/>
      <use xlink:href="#DejaVuSans-6c" x="188.867188"/>
      <use xlink:href="#DejaVuSans-75" x="216.650391"/>
      <use xlink:href="#DejaVuSans-65" x="280.029297"/>
      <use xlink:href="#DejaVuSans-20" x="341.552734"/>
      <use xlink:href="#DejaVuSans-70" x="373.339844"/>
      <use xlink:href="#DejaVuSans-65" x="436.816406"/>
      <use xlink:href="#DejaVuSans-72" x="498.339844"/>
      <use xlink:href="#DejaVuSans-20" x="539.453125"/>
      <use xlink:href="#DejaVuSans-73" x="571.240234"/>
      <use xlink:href="#DejaVuSans-61" x="623.339844"/>
      <use xlink:href="#DejaVuSans-6d" x="684.619141"/>
      <use xlink:href="#DejaVuSans-70" x="782.03125"/>
      <use xlink:href="#DejaVuSans-6c" x="845.507812"/>
      <use xlink:href="#DejaVuSans-65" x="873.291016"/>
     </g>
    </g>
   </g>
  </g>
 </g>
 <defs>
  <clipPath id="pb2456ef3ec">
   <rect x="54.02" y="26.88" width="655.18" height="219.16"/>
  </clipPath>
 </defs>
</svg>
