<?xml version="1.0" encoding="utf-8" standalone="no"?>
<!DOCTYPE svg PUBLIC "-//W3C//DTD SVG 1.1//EN"
  "http://www.w3.org/Graphics/SVG/1.1/DTD/svg11.dtd">
<svg xmlns:xlink="http://www.w3.org/1999/xlink" width="720pt" height="288pt" viewBox="0 0 720 288" xmlns="http://www.w3.org/2000/svg" version="1.1">
 <metadata>
  <rdf:RDF xmlns:dc="http://purl.org/dc/elements/1.1/" xmlns:cc="http://creativecommons.org/ns#" xmlns:rdf="http://www.w3.org/1999/02/22-rdf-syntax-ns#">
   <cc:Work>
    <dc:type rdf:resource="http://purl.org/dc/dcmitype/StillImage"/>
    <dc:date>2025-07-27T15:08:49.483748</dc:date>
    <dc:format>image/svg+xml</dc:format>
    <dc:creator>
     <cc:Agent>
      <dc:title>Matplotlib v3.9.2, https://matplotlib.org/</dc:title>
     </cc:Agent>
    </dc:creator>
   </cc:Work>
  </rdf:RDF>
 </metadata>
 <defs>
  <style type="text/css">*{stroke-linejoin: round; stroke-linecap: butt}</style>
 </defs>
 <g id="figure_1">
  <g id="patch_1">
   <path d="M 0 288 
L 720 288 
L 720 0 
L 0 0 
z
" style="fill: #ffffff"/>
  </g>
  <g id="axes_1">
   <g id="patch_2">
    <path d="M 56.09 246.04 
L 709.2 246.04 
L 709.2 37.8 
L 56.09 37.8 
z
" style="fill: #ffffff"/>
   </g>
   <g id="matplotlib.axis_1">
    <g id="xtick_1">
     <g id="line2d_1">
      <path d="M 85.055757 246.04 
L 85.055757 37.8 
" clip-path="url(#p3ba9b42cf0)" style="fill: none; stroke: #b0b0b0; stroke-width: 0.8; stroke-linecap: square"/>
     </g>
     <g id="line2d_2">
      <defs>
       <path id="m469dacb2fc" d="M 0 0 
L 0 3.5 
" style="stroke: #000000; stroke-width: 0.8"/>
      </defs>
      <g>
       <use xlink:href="#m469dacb2fc" x="85.055757" y="246.04" style="stroke: #000000; stroke-width: 0.8"/>
      </g>
     </g>
     <g id="text_1">
      <!-- 0 -->
      <g transform="translate(81.874507 260.638438) scale(0.1 -0.1)">
       <defs>
        <path id="DejaVuSans-30" d="M 2034 4250 
Q 1547 4250 1301 3770 
Q 1056 3291 1056 2328 
Q 1056 1369 1301 889 
Q 1547 409 2034 409 
Q 2525 409 2770 889 
Q 3016 1369 3016 2328 
Q 3016 3291 2770 3770 
Q 2525 4250 2034 4250 
z
M 2034 4750 
Q 2819 4750 3233 4129 
Q 3647 3509 3647 2328 
Q 3647 1150 3233 529 
Q 2819 -91 2034 -91 
Q 1250 -91 836 529 
Q 422 1150 422 2328 
Q 422 3509 836 4129 
Q 1250 4750 2034 4750 
z
" transform="scale(0.015625)"/>
       </defs>
       <use xlink:href="#DejaVuSans-30"/>
      </g>
     </g>
    </g>
    <g id="xtick_2">
     <g id="line2d_3">
      <path d="M 229.268033 246.04 
L 229.268033 37.8 
" clip-path="url(#p3ba9b42cf0)" style="fill: none; stroke: #b0b0b0; stroke-width: 0.8; stroke-linecap: square"/>
     </g>
     <g id="line2d_4">
      <g>
       <use xlink:href="#m469dacb2fc" x="229.268033" y="246.04" style="stroke: #000000; stroke-width: 0.8"/>
      </g>
     </g>
     <g id="text_2">
      <!-- 10000 -->
      <g transform="translate(213.361783 260.638438) scale(0.1 -0.1)">
       <defs>
        <path id="DejaVuSans-31" d="M 794 531 
L 1825 531 
L 1825 4091 
L 703 3866 
L 703 4441 
L 1819 4666 
L 2450 4666 
L 2450 531 
L 3481 531 
L 3481 0 
L 794 0 
L 794 531 
z
" transform="scale(0.015625)"/>
       </defs>
       <use xlink:href="#DejaVuSans-31"/>
       <use xlink:href="#DejaVuSans-30" x="63.623047"/>
       <use xlink:href="#DejaVuSans-30" x="127.246094"/>
       <use xlink:href="#DejaVuSans-30" x="190.869141"/>
       <use xlink:href="#DejaVuSans-30" x="254.492188"/>
      </g>
     </g>
    </g>
    <g id="xtick_3">
     <g id="line2d_5">
      <path d="M 373.48031 246.04 
L 373.48031 37.8 
" clip-path="url(#p3ba9b42cf0)" style="fill: none; stroke: #b0b0b0; stroke-width: 0.8; stroke-linecap: square"/>
     </g>
     <g id="line2d_6">
      <g>
       <use xlink:href="#m469dacb2fc" x="373.48031" y="246.04" style="stroke: #000000; stroke-width: 0.8"/>
      </g>
     </g>
     <g id="text_3">
      <!-- 20000 -->
      <g transform="translate(357.57406 260.638438) scale(0.1 -0.1)">
       <defs>
        <path id="DejaVuSans-32" d="M 1228 531 
L 3431 531 
L 3431 0 
L 469 0 
L 469 531 
Q 828 903 1448 1529 
Q 2069 2156 2228 2338 
Q 2531 2678 2651 2914 
Q 2772 3150 2772 3378 
Q 2772 3750 2511 3984 
Q 2250 4219 1831 4219 
Q 1534 4219 1204 4116 
Q 875 4013 500 3803 
L 500 4441 
Q 881 4594 1212 4672 
Q 1544 4750 1819 4750 
Q 2544 4750 2975 4387 
Q 3406 4025 3406 3419 
Q 3406 3131 3298 2873 
Q 3191 2616 2906 2266 
Q 2828 2175 2409 1742 
Q 1991 1309 1228 531 
z
" transform="scale(0.015625)"/>
       </defs>
       <use xlink:href="#DejaVuSans-32"/>
       <use xlink:href="#DejaVuSans-30" x="63.623047"/>
       <use xlink:href="#DejaVuSans-30" x="127.246094"/>
       <use xlink:href="#DejaVuSans-30" x="190.869141"/>
       <use xlink:href="#DejaVuSans-30" x="254.492188"/>
      </g>
     </g>
    </g>
    <g id="xtick_4">
     <g id="line2d_7">
      <path d="M 517.692586 246.04 
L 517.692586 37.8 
" clip-path="url(#p3ba9b42cf0)" style="fill: none; stroke: #b0b0b0; stroke-width: 0.8; stroke-linecap: square"/>
     </g>
     <g id="line2d_8">
      <g>
       <use xlink:href="#m469dacb2fc" x="517.692586" y="246.04" style="stroke: #000000; stroke-width: 0.8"/>
      </g>
     </g>
     <g id="text_4">
      <!-- 30000 -->
      <g transform="translate(501.786336 260.638438) scale(0.1 -0.1)">
       <defs>
        <path id="DejaVuSans-33" d="M 2597 2516 
Q 3050 2419 3304 2112 
Q 3559 1806 3559 1356 
Q 3559 666 3084 287 
Q 2609 -91 1734 -91 
Q 1441 -91 1130 -33 
Q 819 25 488 141 
L 488 750 
Q 750 597 1062 519 
Q 1375 441 1716 441 
Q 2309 441 2620 675 
Q 2931 909 2931 1356 
Q 2931 1769 2642 2001 
Q 2353 2234 1838 2234 
L 1294 2234 
L 1294 2753 
L 1863 2753 
Q 2328 2753 2575 2939 
Q 2822 3125 2822 3475 
Q 2822 3834 2567 4026 
Q 2313 4219 1838 4219 
Q 1578 4219 1281 4162 
Q 984 4106 628 3988 
L 628 4550 
Q 988 4650 1302 4700 
Q 1616 4750 1894 4750 
Q 2613 4750 3031 4423 
Q 3450 4097 3450 3541 
Q 3450 3153 3228 2886 
Q 3006 2619 2597 2516 
z
" transform="scale(0.015625)"/>
       </defs>
       <use xlink:href="#DejaVuSans-33"/>
       <use xlink:href="#DejaVuSans-30" x="63.623047"/>
       <use xlink:href="#DejaVuSans-30" x="127.246094"/>
       <use xlink:href="#DejaVuSans-30" x="190.869141"/>
       <use xlink:href="#DejaVuSans-30" x="254.492188"/>
      </g>
     </g>
    </g>
    <g id="xtick_5">
     <g id="line2d_9">
      <path d="M 661.904863 246.04 
L 661.904863 37.8 
" clip-path="url(#p3ba9b42cf0)" style="fill: none; stroke: #b0b0b0; stroke-width: 0.8; stroke-linecap: square"/>
     </g>
     <g id="line2d_10">
      <g>
       <use xlink:href="#m469dacb2fc" x="661.904863" y="246.04" style="stroke: #000000; stroke-width: 0.8"/>
      </g>
     </g>
     <g id="text_5">
      <!-- 40000 -->
      <g transform="translate(645.998613 260.638438) scale(0.1 -0.1)">
       <defs>
        <path id="DejaVuSans-34" d="M 2419 4116 
L 825 1625 
L 2419 1625 
L 2419 4116 
z
M 2253 4666 
L 3047 4666 
L 3047 1625 
L 3713 1625 
L 3713 1100 
L 3047 1100 
L 3047 0 
L 2419 0 
L 2419 1100 
L 313 1100 
L 313 1709 
L 2253 4666 
z
" transform="scale(0.015625)"/>
       </defs>
       <use xlink:href="#DejaVuSans-34"/>
       <use xlink:href="#DejaVuSans-30" x="63.623047"/>
       <use xlink:href="#DejaVuSans-30" x="127.246094"/>
       <use xlink:href="#DejaVuSans-30" x="190.869141"/>
       <use xlink:href="#DejaVuSans-30" x="254.492188"/>
      </g>
     </g>
    </g>
    <g id="text_6">
     <!-- Time (s) -->
     <g transform="translate(362.316094 274.316562) scale(0.1 -0.1)">
      <defs>
       <path id="DejaVuSans-54" d="M -19 4666 
L 3928 4666 
L 3928 4134 
L 2272 4134 
L 2272 0 
L 1638 0 
L 1638 4134 
L -19 4134 
L -19 4666 
z
" transform="scale(0.015625)"/>
       <path id="DejaVuSans-69" d="M 603 3500 
L 1178 3500 
L 1178 0 
L 603 0 
L 603 3500 
z
M 603 4863 
L 1178 4863 
L 1178 4134 
L 603 4134 
L 603 4863 
z
" transform="scale(0.015625)"/>
       <path id="DejaVuSans-6d" d="M 3328 2828 
Q 3544 3216 3844 3400 
Q 4144 3584 4550 3584 
Q 5097 3584 5394 3201 
Q 5691 2819 5691 2113 
L 5691 0 
L 5113 0 
L 5113 2094 
Q 5113 2597 4934 2840 
Q 4756 3084 4391 3084 
Q 3944 3084 3684 2787 
Q 3425 2491 3425 1978 
L 3425 0 
L 2847 0 
L 2847 2094 
Q 2847 2600 2669 2842 
Q 2491 3084 2119 3084 
Q 1678 3084 1418 2786 
Q 1159 2488 1159 1978 
L 1159 0 
L 581 0 
L 581 3500 
L 1159 3500 
L 1159 2956 
Q 1356 3278 1631 3431 
Q 1906 3584 2284 3584 
Q 2666 3584 2933 3390 
Q 3200 3197 3328 2828 
z
" transform="scale(0.015625)"/>
       <path id="DejaVuSans-65" d="M 3597 1894 
L 3597 1613 
L 953 1613 
Q 991 1019 1311 708 
Q 1631 397 2203 397 
Q 2534 397 2845 478 
Q 3156 559 3463 722 
L 3463 178 
Q 3153 47 2828 -22 
Q 2503 -91 2169 -91 
Q 1331 -91 842 396 
Q 353 884 353 1716 
Q 353 2575 817 3079 
Q 1281 3584 2069 3584 
Q 2775 3584 3186 3129 
Q 3597 2675 3597 1894 
z
M 3022 2063 
Q 3016 2534 2758 2815 
Q 2500 3097 2075 3097 
Q 1594 3097 1305 2825 
Q 1016 2553 972 2059 
L 3022 2063 
z
" transform="scale(0.015625)"/>
       <path id="DejaVuSans-20" transform="scale(0.015625)"/>
       <path id="DejaVuSans-28" d="M 1984 4856 
Q 1566 4138 1362 3434 
Q 1159 2731 1159 2009 
Q 1159 1288 1364 580 
Q 1569 -128 1984 -844 
L 1484 -844 
Q 1016 -109 783 600 
Q 550 1309 550 2009 
Q 550 2706 781 3412 
Q 1013 4119 1484 4856 
L 1984 4856 
z
" transform="scale(0.015625)"/>
       <path id="DejaVuSans-73" d="M 2834 3397 
L 2834 2853 
Q 2591 2978 2328 3040 
Q 2066 3103 1784 3103 
Q 1356 3103 1142 2972 
Q 928 2841 928 2578 
Q 928 2378 1081 2264 
Q 1234 2150 1697 2047 
L 1894 2003 
Q 2506 1872 2764 1633 
Q 3022 1394 3022 966 
Q 3022 478 2636 193 
Q 2250 -91 1575 -91 
Q 1294 -91 989 -36 
Q 684 19 347 128 
L 347 722 
Q 666 556 975 473 
Q 1284 391 1588 391 
Q 1994 391 2212 530 
Q 2431 669 2431 922 
Q 2431 1156 2273 1281 
Q 2116 1406 1581 1522 
L 1381 1569 
Q 847 1681 609 1914 
Q 372 2147 372 2553 
Q 372 3047 722 3315 
Q 1072 3584 1716 3584 
Q 2034 3584 2315 3537 
Q 2597 3491 2834 3397 
z
" transform="scale(0.015625)"/>
       <path id="DejaVuSans-29" d="M 513 4856 
L 1013 4856 
Q 1481 4119 1714 3412 
Q 1947 2706 1947 2009 
Q 1947 1309 1714 600 
Q 1481 -109 1013 -844 
L 513 -844 
Q 928 -128 1133 580 
Q 1338 1288 1338 2009 
Q 1338 2731 1133 3434 
Q 928 4138 513 4856 
z
" transform="scale(0.015625)"/>
      </defs>
      <use xlink:href="#DejaVuSans-54"/>
      <use xlink:href="#DejaVuSans-69" x="57.958984"/>
      <use xlink:href="#DejaVuSans-6d" x="85.742188"/>
      <use xlink:href="#DejaVuSans-65" x="183.154297"/>
      <use xlink:href="#DejaVuSans-20" x="244.677734"/>
      <use xlink:href="#DejaVuSans-28" x="276.464844"/>
      <use xlink:href="#DejaVuSans-73" x="315.478516"/>
      <use xlink:href="#DejaVuSans-29" x="367.578125"/>
     </g>
    </g>
   </g>
   <g id="matplotlib.axis_2">
    <g id="ytick_1">
     <g id="line2d_11">
      <path d="M 56.09 240.75 
L 709.2 240.75 
" clip-path="url(#p3ba9b42cf0)" style="fill: none; stroke: #b0b0b0; stroke-width: 0.8; stroke-linecap: square"/>
     </g>
     <g id="line2d_12">
      <defs>
       <path id="m1079da23ce" d="M 0 0 
L -3.5 0 
" style="stroke: #000000; stroke-width: 0.8"/>
      </defs>
      <g>
       <use xlink:href="#m1079da23ce" x="56.09" y="240.75" style="stroke: #000000; stroke-width: 0.8"/>
      </g>
     </g>
     <g id="text_7">
      <!-- −0.6 -->
      <g transform="translate(24.807188 244.549219) scale(0.1 -0.1)">
       <defs>
        <path id="DejaVuSans-2212" d="M 678 2272 
L 4684 2272 
L 4684 1741 
L 678 1741 
L 678 2272 
z
" transform="scale(0.015625)"/>
        <path id="DejaVuSans-2e" d="M 684 794 
L 1344 794 
L 1344 0 
L 684 0 
L 684 794 
z
" transform="scale(0.015625)"/>
        <path id="DejaVuSans-36" d="M 2113 2584 
Q 1688 2584 1439 2293 
Q 1191 2003 1191 1497 
Q 1191 994 1439 701 
Q 1688 409 2113 409 
Q 2538 409 2786 701 
Q 3034 994 3034 1497 
Q 3034 2003 2786 2293 
Q 2538 2584 2113 2584 
z
M 3366 4563 
L 3366 3988 
Q 3128 4100 2886 4159 
Q 2644 4219 2406 4219 
Q 1781 4219 1451 3797 
Q 1122 3375 1075 2522 
Q 1259 2794 1537 2939 
Q 1816 3084 2150 3084 
Q 2853 3084 3261 2657 
Q 3669 2231 3669 1497 
Q 3669 778 3244 343 
Q 2819 -91 2113 -91 
Q 1303 -91 875 529 
Q 447 1150 447 2328 
Q 447 3434 972 4092 
Q 1497 4750 2381 4750 
Q 2619 4750 2861 4703 
Q 3103 4656 3366 4563 
z
" transform="scale(0.015625)"/>
       </defs>
       <use xlink:href="#DejaVuSans-2212"/>
       <use xlink:href="#DejaVuSans-30" x="83.789062"/>
       <use xlink:href="#DejaVuSans-2e" x="147.412109"/>
       <use xlink:href="#DejaVuSans-36" x="179.199219"/>
      </g>
     </g>
    </g>
    <g id="ytick_2">
     <g id="line2d_13">
      <path d="M 56.09 214.25 
L 709.2 214.25 
" clip-path="url(#p3ba9b42cf0)" style="fill: none; stroke: #b0b0b0; stroke-width: 0.8; stroke-linecap: square"/>
     </g>
     <g id="line2d_14">
      <g>
       <use xlink:href="#m1079da23ce" x="56.09" y="214.25" style="stroke: #000000; stroke-width: 0.8"/>
      </g>
     </g>
     <g id="text_8">
      <!-- −0.4 -->
      <g transform="translate(24.807188 218.049219) scale(0.1 -0.1)">
       <use xlink:href="#DejaVuSans-2212"/>
       <use xlink:href="#DejaVuSans-30" x="83.789062"/>
       <use xlink:href="#DejaVuSans-2e" x="147.412109"/>
       <use xlink:href="#DejaVuSans-34" x="179.199219"/>
      </g>
     </g>
    </g>
    <g id="ytick_3">
     <g id="line2d_15">
      <path d="M 56.09 187.5 
L 709.2 187.5 
" clip-path="url(#p3ba9b42cf0)" style="fill: none; stroke: #b0b0b0; stroke-width: 0.8; stroke-linecap: square"/>
     </g>
     <g id="line2d_16">
      <g>
       <use xlink:href="#m1079da23ce" x="56.09" y="187.5" style="stroke: #000000; stroke-width: 0.8"/>
      </g>
     </g>
     <g id="text_9">
      <!-- −0.2 -->
      <g transform="translate(24.807188 191.299219) scale(0.1 -0.1)">
       <use xlink:href="#DejaVuSans-2212"/>
       <use xlink:href="#DejaVuSans-30" x="83.789062"/>
       <use xlink:href="#DejaVuSans-2e" x="147.412109"/>
       <use xlink:href="#DejaVuSans-32" x="179.199219"/>
      </g>
     </g>
    </g>
    <g id="ytick_4">
     <g id="line2d_17">
      <path d="M 56.09 161 
L 709.2 161 
" clip-path="url(#p3ba9b42cf0)" style="fill: none; stroke: #b0b0b0; stroke-width: 0.8; stroke-linecap: square"/>
     </g>
     <g id="line2d_18">
      <g>
       <use xlink:href="#m1079da23ce" x="56.09" y="161" style="stroke: #000000; stroke-width: 0.8"/>
      </g>
     </g>
     <g id="text_10">
      <!-- 0.0 -->
      <g transform="translate(33.186875 164.799219) scale(0.1 -0.1)">
       <use xlink:href="#DejaVuSans-30"/>
       <use xlink:href="#DejaVuSans-2e" x="63.623047"/>
       <use xlink:href="#DejaVuSans-30" x="95.410156"/>
      </g>
     </g>
    </g>
    <g id="ytick_5">
     <g id="line2d_19">
      <path d="M 56.09 134.25 
L 709.2 134.25 
" clip-path="url(#p3ba9b42cf0)" style="fill: none; stroke: #b0b0b0; stroke-width: 0.8; stroke-linecap: square"/>
     </g>
     <g id="line2d_20">
      <g>
       <use xlink:href="#m1079da23ce" x="56.09" y="134.25" style="stroke: #000000; stroke-width: 0.8"/>
      </g>
     </g>
     <g id="text_11">
      <!-- 0.2 -->
      <g transform="translate(33.186875 138.049219) scale(0.1 -0.1)">
       <use xlink:href="#DejaVuSans-30"/>
       <use xlink:href="#DejaVuSans-2e" x="63.623047"/>
       <use xlink:href="#DejaVuSans-32" x="95.410156"/>
      </g>
     </g>
    </g>
    <g id="ytick_6">
     <g id="line2d_21">
      <path d="M 56.09 107.75 
L 709.2 107.75 
" clip-path="url(#p3ba9b42cf0)" style="fill: none; stroke: #b0b0b0; stroke-width: 0.8; stroke-linecap: square"/>
     </g>
     <g id="line2d_22">
      <g>
       <use xlink:href="#m1079da23ce" x="56.09" y="107.75" style="stroke: #000000; stroke-width: 0.8"/>
      </g>
     </g>
     <g id="text_12">
      <!-- 0.4 -->
      <g transform="translate(33.186875 111.549219) scale(0.1 -0.1)">
       <use xlink:href="#DejaVuSans-30"/>
       <use xlink:href="#DejaVuSans-2e" x="63.623047"/>
       <use xlink:href="#DejaVuSans-34" x="95.410156"/>
      </g>
     </g>
    </g>
    <g id="ytick_7">
     <g id="line2d_23">
      <path d="M 56.09 81 
L 709.2 81 
" clip-path="url(#p3ba9b42cf0)" style="fill: none; stroke: #b0b0b0; stroke-width: 0.8; stroke-linecap: square"/>
     </g>
     <g id="line2d_24">
      <g>
       <use xlink:href="#m1079da23ce" x="56.09" y="81" style="stroke: #000000; stroke-width: 0.8"/>
      </g>
     </g>
     <g id="text_13">
      <!-- 0.6 -->
      <g transform="translate(33.186875 84.799219) scale(0.1 -0.1)">
       <use xlink:href="#DejaVuSans-30"/>
       <use xlink:href="#DejaVuSans-2e" x="63.623047"/>
       <use xlink:href="#DejaVuSans-36" x="95.410156"/>
      </g>
     </g>
    </g>
    <g id="ytick_8">
     <g id="line2d_25">
      <path d="M 56.09 54.5 
L 709.2 54.5 
" clip-path="url(#p3ba9b42cf0)" style="fill: none; stroke: #b0b0b0; stroke-width: 0.8; stroke-linecap: square"/>
     </g>
     <g id="line2d_26">
      <g>
       <use xlink:href="#m1079da23ce" x="56.09" y="54.5" style="stroke: #000000; stroke-width: 0.8"/>
      </g>
     </g>
     <g id="text_14">
      <!-- 0.8 -->
      <g transform="translate(33.186875 58.299219) scale(0.1 -0.1)">
       <defs>
        <path id="DejaVuSans-38" d="M 2034 2216 
Q 1584 2216 1326 1975 
Q 1069 1734 1069 1313 
Q 1069 891 1326 650 
Q 1584 409 2034 409 
Q 2484 409 2743 651 
Q 3003 894 3003 1313 
Q 3003 1734 2745 1975 
Q 2488 2216 2034 2216 
z
M 1403 2484 
Q 997 2584 770 2862 
Q 544 3141 544 3541 
Q 544 4100 942 4425 
Q 1341 4750 2034 4750 
Q 2731 4750 3128 4425 
Q 3525 4100 3525 3541 
Q 3525 3141 3298 2862 
Q 3072 2584 2669 2484 
Q 3125 2378 3379 2068 
Q 3634 1759 3634 1313 
Q 3634 634 3220 271 
Q 2806 -91 2034 -91 
Q 1263 -91 848 271 
Q 434 634 434 1313 
Q 434 1759 690 2068 
Q 947 2378 1403 2484 
z
M 1172 3481 
Q 1172 3119 1398 2916 
Q 1625 2713 2034 2713 
Q 2441 2713 2670 2916 
Q 2900 3119 2900 3481 
Q 2900 3844 2670 4047 
Q 2441 4250 2034 4250 
Q 1625 4250 1398 4047 
Q 1172 3844 1172 3481 
z
" transform="scale(0.015625)"/>
       </defs>
       <use xlink:href="#DejaVuSans-30"/>
       <use xlink:href="#DejaVuSans-2e" x="63.623047"/>
       <use xlink:href="#DejaVuSans-38" x="95.410156"/>
      </g>
     </g>
    </g>
    <g id="text_15">
     <!-- Delta Value -->
     <g transform="translate(18.7275 170.580156) rotate(-90) scale(0.1 -0.1)">
      <defs>
       <path id="DejaVuSans-44" d="M 1259 4147 
L 1259 519 
L 2022 519 
Q 2988 519 3436 956 
Q 3884 1394 3884 2338 
Q 3884 3275 3436 3711 
Q 2988 4147 2022 4147 
L 1259 4147 
z
M 628 4666 
L 1925 4666 
Q 3281 4666 3915 4102 
Q 4550 3538 4550 2338 
Q 4550 1131 3912 565 
Q 3275 0 1925 0 
L 628 0 
L 628 4666 
z
" transform="scale(0.015625)"/>
       <path id="DejaVuSans-6c" d="M 603 4863 
L 1178 4863 
L 1178 0 
L 603 0 
L 603 4863 
z
" transform="scale(0.015625)"/>
       <path id="DejaVuSans-74" d="M 1172 4494 
L 1172 3500 
L 2356 3500 
L 2356 3053 
L 1172 3053 
L 1172 1153 
Q 1172 725 1289 603 
Q 1406 481 1766 481 
L 2356 481 
L 2356 0 
L 1766 0 
Q 1100 0 847 248 
Q 594 497 594 1153 
L 594 3053 
L 172 3053 
L 172 3500 
L 594 3500 
L 594 4494 
L 1172 4494 
z
" transform="scale(0.015625)"/>
       <path id="DejaVuSans-61" d="M 2194 1759 
Q 1497 1759 1228 1600 
Q 959 1441 959 1056 
Q 959 750 1161 570 
Q 1363 391 1709 391 
Q 2188 391 2477 730 
Q 2766 1069 2766 1631 
L 2766 1759 
L 2194 1759 
z
M 3341 1997 
L 3341 0 
L 2766 0 
L 2766 531 
Q 2569 213 2275 61 
Q 1981 -91 1556 -91 
Q 1019 -91 701 211 
Q 384 513 384 1019 
Q 384 1609 779 1909 
Q 1175 2209 1959 2209 
L 2766 2209 
L 2766 2266 
Q 2766 2663 2505 2880 
Q 2244 3097 1772 3097 
Q 1472 3097 1187 3025 
Q 903 2953 641 2809 
L 641 3341 
Q 956 3463 1253 3523 
Q 1550 3584 1831 3584 
Q 2591 3584 2966 3190 
Q 3341 2797 3341 1997 
z
" transform="scale(0.015625)"/>
       <path id="DejaVuSans-56" d="M 1831 0 
L 50 4666 
L 709 4666 
L 2188 738 
L 3669 4666 
L 4325 4666 
L 2547 0 
L 1831 0 
z
" transform="scale(0.015625)"/>
       <path id="DejaVuSans-75" d="M 544 1381 
L 544 3500 
L 1119 3500 
L 1119 1403 
Q 1119 906 1312 657 
Q 1506 409 1894 409 
Q 2359 409 2629 706 
Q 2900 1003 2900 1516 
L 2900 3500 
L 3475 3500 
L 3475 0 
L 2900 0 
L 2900 538 
Q 2691 219 2414 64 
Q 2138 -91 1772 -91 
Q 1169 -91 856 284 
Q 544 659 544 1381 
z
M 1991 3584 
L 1991 3584 
z
" transform="scale(0.015625)"/>
      </defs>
      <use xlink:href="#DejaVuSans-44"/>
      <use xlink:href="#DejaVuSans-65" x="77.001953"/>
      <use xlink:href="#DejaVuSans-6c" x="138.525391"/>
      <use xlink:href="#DejaVuSans-74" x="166.308594"/>
      <use xlink:href="#DejaVuSans-61" x="205.517578"/>
      <use xlink:href="#DejaVuSans-20" x="266.796875"/>
      <use xlink:href="#DejaVuSans-56" x="298.583984"/>
      <use xlink:href="#DejaVuSans-61" x="359.242188"/>
      <use xlink:href="#DejaVuSans-6c" x="420.521484"/>
      <use xlink:href="#DejaVuSans-75" x="448.304688"/>
      <use xlink:href="#DejaVuSans-65" x="511.683594"/>
     </g>
    </g>
    <g id="text_16">
     <!-- 1e−14+1e−1 -->
     <g transform="translate(56.09 34.8) scale(0.1 -0.1)">
      <defs>
       <path id="DejaVuSans-2b" d="M 2944 4013 
L 2944 2272 
L 4684 2272 
L 4684 1741 
L 2944 1741 
L 2944 0 
L 2419 0 
L 2419 1741 
L 678 1741 
L 678 2272 
L 2419 2272 
L 2419 4013 
L 2944 4013 
z
" transform="scale(0.015625)"/>
      </defs>
      <use xlink:href="#DejaVuSans-31"/>
      <use xlink:href="#DejaVuSans-65" x="63.623047"/>
      <use xlink:href="#DejaVuSans-2212" x="125.146484"/>
      <use xlink:href="#DejaVuSans-31" x="208.935547"/>
      <use xlink:href="#DejaVuSans-34" x="272.558594"/>
      <use xlink:href="#DejaVuSans-2b" x="336.181641"/>
      <use xlink:href="#DejaVuSans-31" x="419.970703"/>
      <use xlink:href="#DejaVuSans-65" x="483.59375"/>
      <use xlink:href="#DejaVuSans-2212" x="545.117188"/>
      <use xlink:href="#DejaVuSans-31" x="628.90625"/>
     </g>
    </g>
   </g>
   <g id="line2d_27">
    <path d="M 85.776818 161 
L 86.440195 161.25 
L 86.97378 160.5 
L 87.853475 161.25 
L 89.079279 161.25 
L 90.232978 159.75 
L 90.766563 161.25 
L 91.458782 161.25 
L 91.992367 159.75 
L 92.872062 162.75 
L 93.362384 159.75 
L 94.097867 162.75 
L 94.761243 159.75 
L 98.02044 159.75 
L 98.712659 162.75 
L 99.18856 159.75 
L 99.707724 162.75 
L 100.399943 159.75 
L 101.611326 159.75 
L 102.087227 165.75 
L 102.606391 159.75 
L 104.538835 159.75 
L 105.014736 165.75 
L 105.5339 159.75 
L 107.437502 159.75 
L 107.913403 165.75 
L 108.432567 159.75 
L 110.336169 159.75 
L 110.812069 165.75 
L 111.360076 159.75 
L 112.052295 159.75 
L 112.571459 165.75 
L 113.263678 154 
L 113.739579 165.75 
L 114.258743 154 
L 114.950962 165.75 
L 115.470126 165.75 
L 116.162345 154 
L 116.638245 165.75 
L 117.15741 154 
L 117.849628 165.75 
L 118.397635 165.75 
L 119.089854 154 
L 119.565755 165.75 
L 120.084919 154 
L 120.777138 165.75 
L 121.296302 165.75 
L 121.988521 154 
L 122.464421 165.75 
L 122.983586 154 
L 123.675804 165.75 
L 124.194969 165.75 
L 124.887188 154 
L 125.363088 165.75 
L 125.911095 154 
L 126.603314 165.75 
L 127.122478 165.75 
L 127.814697 154 
L 128.290597 165.75 
L 128.809761 154 
L 129.50198 165.75 
L 130.021145 165.75 
L 130.713364 154 
L 131.189264 165.75 
L 131.708428 154 
L 132.400647 165.75 
L 132.948654 165.75 
L 133.640873 154 
L 134.116773 165.75 
L 134.635937 154 
L 135.328156 165.75 
L 136.53954 165.75 
L 137.01544 142 
L 137.534604 165.75 
L 139.438206 165.75 
L 139.914107 142 
L 140.462113 165.75 
L 142.365715 165.75 
L 142.841616 142 
L 143.36078 165.75 
L 145.264382 165.75 
L 145.740283 142 
L 146.259447 165.75 
L 148.191891 165.75 
L 148.667792 142 
L 149.186956 165.75 
L 151.090558 165.75 
L 151.566459 142 
L 152.085623 165.75 
L 153.989225 165.75 
L 154.465125 142 
L 155.013132 165.75 
L 156.916734 165.75 
L 157.392635 142 
L 157.911799 165.75 
L 159.815401 165.75 
L 160.291301 142 
L 160.810466 165.75 
L 162.74291 165.75 
L 163.218811 142 
L 163.737975 165.75 
L 165.641577 165.75 
L 166.117477 142 
L 166.636642 165.75 
L 168.540244 165.75 
L 169.016144 142 
L 169.564151 165.75 
L 171.467753 165.75 
L 171.943653 142 
L 172.462818 165.75 
L 174.36642 165.75 
L 174.84232 142 
L 175.361484 165.75 
L 177.293929 165.75 
L 177.769829 142 
L 178.288994 165.75 
L 180.192596 165.75 
L 180.668496 142 
L 181.18766 165.75 
L 181.879879 165.75 
L 182.399043 142 
L 183.091262 189.5 
L 183.567163 142 
L 184.11517 189.5 
L 184.807388 142 
L 185.326553 142 
L 186.018772 189.5 
L 186.494672 142 
L 187.013836 189.5 
L 187.706055 142 
L 188.225219 142 
L 188.917438 189.5 
L 189.393339 142 
L 189.912503 189.5 
L 190.604722 142 
L 191.152729 142 
L 191.844948 189.5 
L 192.320848 142 
L 192.840012 189.5 
L 193.532231 142 
L 194.051395 142 
L 194.743614 189.5 
L 195.219515 142 
L 195.738679 189.5 
L 196.430898 142 
L 196.950062 142 
L 197.642281 189.5 
L 198.118182 142 
L 198.666188 189.5 
L 199.358407 142 
L 199.877571 142 
L 200.56979 189.5 
L 201.045691 142 
L 201.564855 189.5 
L 202.257074 142 
L 202.776238 142 
L 203.468457 189.5 
L 203.944358 142 
L 204.463522 189.5 
L 205.155741 142 
L 205.703747 142 
L 206.395966 189.5 
L 206.871867 142 
L 207.391031 189.5 
L 208.08325 142 
L 208.602414 142 
L 209.294633 189.5 
L 209.770534 142 
L 210.289698 189.5 
L 210.981917 142 
L 211.501081 142 
L 212.1933 189.5 
L 212.6692 142 
L 213.217207 189.5 
L 213.909426 142 
L 214.42859 142 
L 215.120809 189.5 
L 215.596709 142 
L 216.115874 189.5 
L 216.808093 142 
L 217.327257 142 
L 218.019476 189.5 
L 218.495376 142 
L 219.01454 189.5 
L 219.706759 142 
L 220.254766 142 
L 220.946985 189.5 
L 221.422885 142 
L 221.94205 189.5 
L 222.634269 142 
L 223.153433 142 
L 223.845652 189.5 
L 224.321552 142 
L 224.840716 189.5 
L 225.532935 142 
L 226.0521 142 
L 226.744318 189.5 
L 227.220219 142 
L 227.768226 189.5 
L 228.460445 142 
L 228.979609 142 
L 229.671828 189.5 
L 230.147728 142 
L 230.666892 189.5 
L 231.359111 142 
L 231.878276 142 
L 232.570494 189.5 
L 233.046395 142 
L 233.565559 189.5 
L 234.257778 142 
L 234.805785 142 
L 235.498004 189.5 
L 235.973904 142 
L 236.493068 189.5 
L 237.185287 142 
L 237.704451 142 
L 238.39667 189.5 
L 238.872571 142 
L 239.391735 189.5 
L 240.083954 142 
L 240.603118 142 
L 241.295337 189.5 
L 241.771238 142 
L 242.319244 189.5 
L 243.011463 142 
L 243.530627 142 
L 244.222846 189.5 
L 244.698747 142 
L 245.217911 189.5 
L 245.91013 142 
L 246.429294 142 
L 247.121513 189.5 
L 247.597414 142 
L 248.116578 189.5 
L 248.808797 142 
L 249.356803 142 
L 250.049022 189.5 
L 250.524923 142 
L 251.044087 189.5 
L 251.736306 142 
L 252.25547 142 
L 252.947689 189.5 
L 253.42359 142 
L 253.942754 189.5 
L 254.634973 142 
L 255.154137 142 
L 255.846356 189.5 
L 256.293414 142 
L 256.812578 189.5 
L 257.475955 142 
L 258.023961 142 
L 258.903656 189.5 
L 259.393978 142 
L 260.100618 189.5 
L 260.763995 142 
L 261.29758 142 
L 262.177275 189.5 
L 262.667597 142 
L 263.864558 189.5 
L 264.556777 142 
L 265.119205 142 
L 265.854688 189.5 
L 266.518064 142 
L 267.008386 189.5 
L 270.411796 142 
L 270.93096 142 
L 271.623179 189.5 
L 272.099079 142 
L 272.618244 189.5 
L 273.310463 142 
L 273.829627 142 
L 274.521846 189.5 
L 274.997746 142 
L 275.545753 189.5 
L 276.237972 142 
L 276.757136 142 
L 277.449355 189.5 
L 277.925255 142 
L 278.44442 189.5 
L 279.136639 142 
L 280.348022 142 
L 280.823922 236.75 
L 281.343086 142 
L 283.275531 142 
L 283.751431 236.75 
L 284.270596 142 
L 286.174198 142 
L 286.650098 236.75 
L 287.169262 142 
L 289.072864 142 
L 289.548765 236.75 
L 290.096772 142 
L 292.000374 142 
L 292.476274 236.75 
L 292.995438 142 
L 294.89904 142 
L 295.374941 236.75 
L 295.894105 142 
L 297.82655 142 
L 298.30245 236.75 
L 298.821614 142 
L 300.725216 142 
L 301.201117 236.75 
L 301.720281 142 
L 303.623883 142 
L 304.099784 236.75 
L 304.64779 142 
L 306.551392 142 
L 307.027293 236.75 
L 307.546457 142 
L 309.450059 142 
L 309.92596 236.75 
L 310.445124 142 
L 312.377568 142 
L 312.853469 236.75 
L 313.372633 142 
L 315.276235 142 
L 315.752136 236.75 
L 316.2713 142 
L 318.174902 142 
L 318.650802 236.75 
L 319.198809 142 
L 321.102411 142 
L 321.578312 236.75 
L 322.097476 142 
L 324.001078 142 
L 324.476978 236.75 
L 324.996142 142 
L 326.928587 142 
L 327.404487 236.75 
L 327.923652 142 
L 329.827254 142 
L 330.303154 236.75 
L 330.822318 142 
L 332.72592 142 
L 333.201821 236.75 
L 333.749828 142 
L 335.65343 142 
L 336.12933 236.75 
L 336.648494 142 
L 338.552096 142 
L 339.027997 236.75 
L 339.547161 142 
L 341.479606 142 
L 341.955506 236.75 
L 342.47467 142 
L 344.378272 142 
L 344.854173 236.75 
L 345.373337 142 
L 347.276939 142 
L 347.75284 236.75 
L 348.300846 142 
L 350.204448 142 
L 350.680349 236.75 
L 351.199513 142 
L 353.103115 142 
L 353.579016 236.75 
L 354.09818 142 
L 356.030624 142 
L 356.506525 236.75 
L 357.025689 142 
L 358.929291 142 
L 359.405192 236.75 
L 359.924356 142 
L 361.8568 142 
L 362.332701 236.75 
L 362.880708 142 
L 364.78431 142 
L 365.26021 236.75 
L 365.779374 142 
L 367.711819 142 
L 368.187719 236.75 
L 368.706883 142 
L 370.639328 142 
L 371.115228 236.75 
L 371.634393 142 
L 373.537995 142 
L 374.013895 236.75 
L 374.533059 142 
L 376.465504 142 
L 376.941404 236.75 
L 377.489411 142 
L 379.393013 142 
L 379.868914 236.75 
L 380.388078 142 
L 382.320522 142 
L 382.796423 236.75 
L 383.315587 142 
L 385.248032 142 
L 385.723932 236.75 
L 386.243096 142 
L 388.146698 142 
L 388.622599 236.75 
L 389.141763 142 
L 391.074208 142 
L 391.550108 236.75 
L 392.098115 142 
L 394.001717 142 
L 394.477617 236.75 
L 394.996781 142 
L 396.929226 142 
L 397.405127 236.75 
L 397.924291 142 
L 399.856735 142 
L 400.332636 236.75 
L 400.8518 142 
L 402.755402 142 
L 403.231302 236.75 
L 403.750467 142 
L 405.682911 142 
L 406.158812 236.75 
L 406.706818 142 
L 408.61042 142 
L 409.086321 236.75 
L 409.605485 142 
L 411.53793 142 
L 412.01383 236.75 
L 412.532994 142 
L 414.465439 142 
L 414.941339 236.75 
L 415.460504 142 
L 417.364106 142 
L 417.840006 236.75 
L 418.35917 142 
L 420.291615 142 
L 420.767515 236.75 
L 421.315522 142 
L 423.219124 142 
L 423.695025 236.75 
L 424.214189 142 
L 426.146633 142 
L 426.622534 236.75 
L 427.141698 142 
L 429.074142 142 
L 429.550043 236.75 
L 430.069207 142 
L 431.972809 142 
L 432.44871 236.75 
L 432.967874 142 
L 434.900318 142 
L 435.376219 236.75 
L 435.924226 142 
L 437.827828 142 
L 438.303728 236.75 
L 438.822892 142 
L 440.755337 142 
L 441.231237 236.75 
L 441.750402 142 
L 443.682846 142 
L 444.158747 236.75 
L 444.677911 142 
L 446.581513 142 
L 447.057413 236.75 
L 447.576578 142 
L 449.509022 142 
L 449.984923 236.75 
L 450.532929 142 
L 452.436531 142 
L 452.912432 236.75 
L 453.431596 142 
L 455.36404 142 
L 455.839941 236.75 
L 456.359105 142 
L 458.29155 142 
L 458.76745 236.75 
L 459.286614 142 
L 461.190216 142 
L 461.666117 236.75 
L 462.185281 142 
L 464.117726 142 
L 464.593626 236.75 
L 465.141633 142 
L 465.833852 142 
L 466.353016 236.75 
L 467.045235 47.5 
L 467.521135 236.75 
L 468.0403 47.5 
L 468.732518 236.75 
L 469.251683 236.75 
L 469.972744 47.5 
L 470.448645 236.75 
L 470.967809 47.5 
L 471.660028 236.75 
L 472.208034 236.75 
L 472.900253 47.5 
L 473.376154 236.75 
L 473.895318 47.5 
L 474.587537 236.75 
L 475.106701 236.75 
L 475.79892 47.5 
L 476.274821 236.75 
L 476.793985 47.5 
L 477.486204 236.75 
L 478.005368 236.75 
L 478.697587 47.5 
L 479.173487 236.75 
L 479.721494 47.5 
L 480.413713 236.75 
L 480.932877 236.75 
L 481.625096 47.5 
L 482.100996 236.75 
L 482.620161 47.5 
L 483.31238 236.75 
L 483.831544 236.75 
L 484.523763 47.5 
L 484.999663 236.75 
L 485.518827 47.5 
L 486.211046 236.75 
L 486.759053 236.75 
L 487.451272 47.5 
L 487.927172 236.75 
L 488.446337 47.5 
L 489.138556 236.75 
L 489.65772 236.75 
L 490.349939 47.5 
L 490.825839 236.75 
L 491.345003 47.5 
L 492.037222 236.75 
L 492.556387 236.75 
L 493.248605 47.5 
L 493.724506 236.75 
L 494.272513 47.5 
L 494.964732 236.75 
L 495.483896 236.75 
L 496.176115 47.5 
L 496.652015 236.75 
L 497.171179 47.5 
L 497.863398 236.75 
L 498.382563 236.75 
L 499.074781 47.5 
L 499.550682 236.75 
L 500.069846 47.5 
L 500.762065 236.75 
L 501.310072 236.75 
L 502.002291 47.5 
L 502.478191 236.75 
L 502.997355 47.5 
L 503.689574 236.75 
L 504.208738 236.75 
L 504.900957 47.5 
L 505.376858 236.75 
L 505.896022 47.5 
L 506.588241 236.75 
L 507.107405 236.75 
L 507.799624 47.5 
L 508.275525 236.75 
L 508.823531 47.5 
L 509.51575 236.75 
L 510.034914 236.75 
L 510.727133 47.5 
L 511.203034 236.75 
L 511.722198 47.5 
L 512.414417 236.75 
L 512.933581 236.75 
L 513.6258 47.5 
L 514.101701 236.75 
L 514.620865 47.5 
L 515.313084 236.75 
L 515.86109 236.75 
L 516.553309 47.5 
L 517.02921 236.75 
L 517.548374 47.5 
L 518.240593 236.75 
L 518.759757 236.75 
L 519.451976 47.5 
L 519.927877 236.75 
L 520.447041 47.5 
L 521.13926 236.75 
L 521.658424 236.75 
L 522.350643 47.5 
L 522.826543 236.75 
L 523.37455 47.5 
L 524.066769 236.75 
L 524.585933 236.75 
L 525.278152 47.5 
L 525.754053 236.75 
L 526.273217 47.5 
L 526.965436 236.75 
L 527.4846 236.75 
L 528.176819 47.5 
L 528.652719 236.75 
L 529.171884 47.5 
L 529.864102 236.75 
L 530.412109 236.75 
L 531.104328 47.5 
L 531.580229 236.75 
L 532.099393 47.5 
L 532.791612 236.75 
L 533.310776 236.75 
L 534.002995 47.5 
L 534.478895 236.75 
L 534.99806 47.5 
L 535.690278 236.75 
L 536.209443 236.75 
L 536.901662 47.5 
L 537.377562 236.75 
L 537.925569 47.5 
L 538.617788 236.75 
L 539.136952 236.75 
L 539.829171 47.5 
L 540.305071 236.75 
L 540.824235 47.5 
L 541.516454 236.75 
L 542.035619 236.75 
L 542.727838 47.5 
L 543.203738 236.75 
L 543.722902 47.5 
L 544.415121 236.75 
L 544.963128 236.75 
L 545.655347 47.5 
L 546.131247 236.75 
L 546.650411 47.5 
L 547.34263 236.75 
L 547.861795 236.75 
L 548.554014 47.5 
L 549.029914 236.75 
L 549.549078 47.5 
L 550.241297 236.75 
L 550.760461 236.75 
L 551.45268 47.5 
L 551.928581 236.75 
L 552.476587 47.5 
L 553.168806 236.75 
L 553.687971 236.75 
L 554.380189 47.5 
L 554.85609 236.75 
L 555.375254 47.5 
L 556.067473 236.75 
L 556.586637 236.75 
L 557.278856 47.5 
L 557.754757 236.75 
L 558.273921 47.5 
L 558.96614 236.75 
L 559.514147 236.75 
L 560.206365 47.5 
L 560.682266 236.75 
L 561.20143 47.5 
L 561.893649 236.75 
L 562.412813 236.75 
L 563.105032 47.5 
L 563.580933 236.75 
L 564.100097 47.5 
L 564.792316 236.75 
L 565.31148 236.75 
L 566.003699 47.5 
L 566.479599 236.75 
L 567.027606 47.5 
L 567.719825 236.75 
L 568.238989 236.75 
L 568.931208 47.5 
L 569.407109 236.75 
L 569.926273 47.5 
L 570.618492 236.75 
L 571.137656 236.75 
L 571.829875 47.5 
L 572.305775 236.75 
L 572.82494 47.5 
L 573.517159 236.75 
L 574.065165 236.75 
L 574.757384 47.5 
L 575.233285 236.75 
L 575.752449 47.5 
L 576.444668 236.75 
L 576.963832 236.75 
L 577.656051 47.5 
L 578.131951 236.75 
L 578.651116 47.5 
L 579.343335 236.75 
L 579.862499 236.75 
L 580.554718 47.5 
L 581.030618 236.75 
L 581.578625 47.5 
L 582.270844 236.75 
L 582.790008 236.75 
L 583.482227 47.5 
L 583.958127 236.75 
L 584.477292 47.5 
L 585.169511 236.75 
L 585.688675 236.75 
L 586.380894 47.5 
L 586.856794 236.75 
L 587.375958 47.5 
L 588.068177 236.75 
L 588.616184 236.75 
L 589.308403 47.5 
L 589.784303 236.75 
L 590.303468 47.5 
L 590.995686 236.75 
L 591.514851 236.75 
L 592.20707 47.5 
L 592.68297 236.75 
L 593.202134 47.5 
L 593.894353 236.75 
L 594.413517 236.75 
L 595.105736 47.5 
L 595.581637 236.75 
L 596.129644 47.5 
L 596.821862 236.75 
L 597.341027 236.75 
L 598.033246 47.5 
L 598.509146 236.75 
L 599.02831 47.5 
L 599.720529 236.75 
L 600.239693 236.75 
L 600.931912 47.5 
L 601.407813 236.75 
L 601.926977 47.5 
L 602.619196 236.75 
L 603.167203 236.75 
L 603.859422 47.5 
L 604.335322 236.75 
L 604.854486 47.5 
L 605.546705 236.75 
L 606.065869 236.75 
L 606.758088 47.5 
L 607.233989 236.75 
L 607.753153 47.5 
L 608.445372 236.75 
L 608.964536 236.75 
L 609.656755 47.5 
L 610.132656 236.75 
L 610.65182 47.5 
L 611.315196 236.75 
L 611.863203 236.75 
L 612.742898 47.5 
L 613.189956 236.75 
L 613.723541 47.5 
L 614.603236 236.75 
L 615.165664 236.75 
L 616.535681 47.5 
L 617.011581 236.75 
L 617.545167 47.5 
L 618.251807 236.75 
L 618.987289 236.75 
L 619.650666 47.5 
L 620.140988 236.75 
L 620.847628 47.5 
L 624.27988 236.75 
L 624.799044 236.75 
L 625.491263 47.5 
L 625.967164 236.75 
L 626.486328 47.5 
L 627.178547 236.75 
L 627.697711 236.75 
L 628.38993 47.5 
L 628.86583 236.75 
L 629.413837 47.5 
L 630.106056 236.75 
L 630.62522 236.75 
L 631.317439 47.5 
L 631.79334 236.75 
L 632.312504 47.5 
L 633.004723 236.75 
L 633.523887 236.75 
L 634.216106 47.5 
L 634.692006 236.75 
L 635.21117 47.5 
L 635.903389 236.75 
L 636.451396 236.75 
L 637.143615 47.5 
L 637.619515 236.75 
L 638.13868 47.5 
L 638.830899 236.75 
L 639.350063 236.75 
L 640.042282 47.5 
L 640.518182 236.75 
L 641.037346 47.5 
L 641.729565 236.75 
L 642.24873 236.75 
L 642.940948 47.5 
L 643.416849 236.75 
L 643.964856 47.5 
L 644.657075 236.75 
L 645.176239 236.75 
L 645.868458 47.5 
L 646.344358 236.75 
L 646.863522 47.5 
L 647.555741 236.75 
L 648.074906 236.75 
L 648.767124 47.5 
L 649.243025 236.75 
L 649.762189 47.5 
L 650.454408 236.75 
L 651.002415 236.75 
L 651.694634 47.5 
L 652.170534 236.75 
L 652.689698 47.5 
L 653.381917 236.75 
L 653.901082 236.75 
L 654.5933 47.5 
L 655.069201 236.75 
L 655.588365 47.5 
L 656.280584 236.75 
L 656.799748 236.75 
L 657.491967 47.5 
L 657.967868 236.75 
L 658.515874 47.5 
L 659.208093 236.75 
L 659.727257 236.75 
L 660.419476 47.5 
L 660.895377 236.75 
L 661.414541 47.5 
L 662.10676 236.75 
L 662.625924 236.75 
L 663.318143 47.5 
L 663.794044 236.75 
L 664.313208 47.5 
L 665.005427 236.75 
L 665.553433 236.75 
L 666.245652 47.5 
L 666.721553 236.75 
L 667.240717 47.5 
L 667.932936 236.75 
L 668.4521 236.75 
L 669.144319 47.5 
L 669.62022 236.75 
L 670.139384 47.5 
L 670.831603 236.75 
L 671.350767 236.75 
L 672.042986 47.5 
L 672.518886 236.75 
L 673.066893 47.5 
L 673.759112 236.75 
L 674.278276 236.75 
L 674.970495 47.5 
L 675.446396 236.75 
L 675.96556 47.5 
L 676.657779 236.75 
L 677.176943 236.75 
L 677.869162 47.5 
L 678.345062 236.75 
L 678.864227 47.5 
L 679.513182 236.75 
L 679.513182 236.75 
" clip-path="url(#p3ba9b42cf0)" style="fill: none; stroke: #1f77b4; stroke-width: 1.5; stroke-linecap: square"/>
   </g>
   <g id="patch_3">
    <path d="M 56.09 246.25 
L 56.09 38 
" style="fill: none; stroke: #000000; stroke-width: 0.8; stroke-linejoin: miter; stroke-linecap: square"/>
   </g>
   <g id="patch_4">
    <path d="M 709.2 246.25 
L 709.2 38 
" style="fill: none; stroke: #000000; stroke-width: 0.8; stroke-linejoin: miter; stroke-linecap: square"/>
   </g>
   <g id="patch_5">
    <path d="M 56.09 246.04 
L 709.2 246.04 
" style="fill: none; stroke: #000000; stroke-width: 0.8; stroke-linejoin: miter; stroke-linecap: square"/>
   </g>
   <g id="patch_6">
    <path d="M 56.09 37.8 
L 709.2 37.8 
" style="fill: none; stroke: #000000; stroke-width: 0.8; stroke-linejoin: miter; stroke-linecap: square"/>
   </g>
   <g id="text_17">
    <!-- outgoingDataRate:vector (HandoverShowcase.ap2.wlan[0].mac.dcf.channelAccess.pendingQueue) -->
    <g transform="translate(85.884062 21.201563) scale(0.12 -0.12)">
     <defs>
      <path id="DejaVuSans-6f" d="M 1959 3097 
Q 1497 3097 1228 2736 
Q 959 2375 959 1747 
Q 959 1119 1226 758 
Q 1494 397 1959 397 
Q 2419 397 2687 759 
Q 2956 1122 2956 1747 
Q 2956 2369 2687 2733 
Q 2419 3097 1959 3097 
z
M 1959 3584 
Q 2709 3584 3137 3096 
Q 3566 2609 3566 1747 
Q 3566 888 3137 398 
Q 2709 -91 1959 -91 
Q 1206 -91 779 398 
Q 353 888 353 1747 
Q 353 2609 779 3096 
Q 1206 3584 1959 3584 
z
" transform="scale(0.015625)"/>
      <path id="DejaVuSans-67" d="M 2906 1791 
Q 2906 2416 2648 2759 
Q 2391 3103 1925 3103 
Q 1463 3103 1205 2759 
Q 947 2416 947 1791 
Q 947 1169 1205 825 
Q 1463 481 1925 481 
Q 2391 481 2648 825 
Q 2906 1169 2906 1791 
z
M 3481 434 
Q 3481 -459 3084 -895 
Q 2688 -1331 1869 -1331 
Q 1566 -1331 1297 -1286 
Q 1028 -1241 775 -1147 
L 775 -588 
Q 1028 -725 1275 -790 
Q 1522 -856 1778 -856 
Q 2344 -856 2625 -561 
Q 2906 -266 2906 331 
L 2906 616 
Q 2728 306 2450 153 
Q 2172 0 1784 0 
Q 1141 0 747 490 
Q 353 981 353 1791 
Q 353 2603 747 3093 
Q 1141 3584 1784 3584 
Q 2172 3584 2450 3431 
Q 2728 3278 2906 2969 
L 2906 3500 
L 3481 3500 
L 3481 434 
z
" transform="scale(0.015625)"/>
      <path id="DejaVuSans-6e" d="M 3513 2113 
L 3513 0 
L 2938 0 
L 2938 2094 
Q 2938 2591 2744 2837 
Q 2550 3084 2163 3084 
Q 1697 3084 1428 2787 
Q 1159 2491 1159 1978 
L 1159 0 
L 581 0 
L 581 3500 
L 1159 3500 
L 1159 2956 
Q 1366 3272 1645 3428 
Q 1925 3584 2291 3584 
Q 2894 3584 3203 3211 
Q 3513 2838 3513 2113 
z
" transform="scale(0.015625)"/>
      <path id="DejaVuSans-52" d="M 2841 2188 
Q 3044 2119 3236 1894 
Q 3428 1669 3622 1275 
L 4263 0 
L 3584 0 
L 2988 1197 
Q 2756 1666 2539 1819 
Q 2322 1972 1947 1972 
L 1259 1972 
L 1259 0 
L 628 0 
L 628 4666 
L 2053 4666 
Q 2853 4666 3247 4331 
Q 3641 3997 3641 3322 
Q 3641 2881 3436 2590 
Q 3231 2300 2841 2188 
z
M 1259 4147 
L 1259 2491 
L 2053 2491 
Q 2509 2491 2742 2702 
Q 2975 2913 2975 3322 
Q 2975 3731 2742 3939 
Q 2509 4147 2053 4147 
L 1259 4147 
z
" transform="scale(0.015625)"/>
      <path id="DejaVuSans-3a" d="M 750 794 
L 1409 794 
L 1409 0 
L 750 0 
L 750 794 
z
M 750 3309 
L 1409 3309 
L 1409 2516 
L 750 2516 
L 750 3309 
z
" transform="scale(0.015625)"/>
      <path id="DejaVuSans-76" d="M 191 3500 
L 800 3500 
L 1894 563 
L 2988 3500 
L 3597 3500 
L 2284 0 
L 1503 0 
L 191 3500 
z
" transform="scale(0.015625)"/>
      <path id="DejaVuSans-63" d="M 3122 3366 
L 3122 2828 
Q 2878 2963 2633 3030 
Q 2388 3097 2138 3097 
Q 1578 3097 1268 2742 
Q 959 2388 959 1747 
Q 959 1106 1268 751 
Q 1578 397 2138 397 
Q 2388 397 2633 464 
Q 2878 531 3122 666 
L 3122 134 
Q 2881 22 2623 -34 
Q 2366 -91 2075 -91 
Q 1284 -91 818 406 
Q 353 903 353 1747 
Q 353 2603 823 3093 
Q 1294 3584 2113 3584 
Q 2378 3584 2631 3529 
Q 2884 3475 3122 3366 
z
" transform="scale(0.015625)"/>
      <path id="DejaVuSans-72" d="M 2631 2963 
Q 2534 3019 2420 3045 
Q 2306 3072 2169 3072 
Q 1681 3072 1420 2755 
Q 1159 2438 1159 1844 
L 1159 0 
L 581 0 
L 581 3500 
L 1159 3500 
L 1159 2956 
Q 1341 3275 1631 3429 
Q 1922 3584 2338 3584 
Q 2397 3584 2469 3576 
Q 2541 3569 2628 3553 
L 2631 2963 
z
" transform="scale(0.015625)"/>
      <path id="DejaVuSans-48" d="M 628 4666 
L 1259 4666 
L 1259 2753 
L 3553 2753 
L 3553 4666 
L 4184 4666 
L 4184 0 
L 3553 0 
L 3553 2222 
L 1259 2222 
L 1259 0 
L 628 0 
L 628 4666 
z
" transform="scale(0.015625)"/>
      <path id="DejaVuSans-64" d="M 2906 2969 
L 2906 4863 
L 3481 4863 
L 3481 0 
L 2906 0 
L 2906 525 
Q 2725 213 2448 61 
Q 2172 -91 1784 -91 
Q 1150 -91 751 415 
Q 353 922 353 1747 
Q 353 2572 751 3078 
Q 1150 3584 1784 3584 
Q 2172 3584 2448 3432 
Q 2725 3281 2906 2969 
z
M 947 1747 
Q 947 1113 1208 752 
Q 1469 391 1925 391 
Q 2381 391 2643 752 
Q 2906 1113 2906 1747 
Q 2906 2381 2643 2742 
Q 2381 3103 1925 3103 
Q 1469 3103 1208 2742 
Q 947 2381 947 1747 
z
" transform="scale(0.015625)"/>
      <path id="DejaVuSans-53" d="M 3425 4513 
L 3425 3897 
Q 3066 4069 2747 4153 
Q 2428 4238 2131 4238 
Q 1616 4238 1336 4038 
Q 1056 3838 1056 3469 
Q 1056 3159 1242 3001 
Q 1428 2844 1947 2747 
L 2328 2669 
Q 3034 2534 3370 2195 
Q 3706 1856 3706 1288 
Q 3706 609 3251 259 
Q 2797 -91 1919 -91 
Q 1588 -91 1214 -16 
Q 841 59 441 206 
L 441 856 
Q 825 641 1194 531 
Q 1563 422 1919 422 
Q 2459 422 2753 634 
Q 3047 847 3047 1241 
Q 3047 1584 2836 1778 
Q 2625 1972 2144 2069 
L 1759 2144 
Q 1053 2284 737 2584 
Q 422 2884 422 3419 
Q 422 4038 858 4394 
Q 1294 4750 2059 4750 
Q 2388 4750 2728 4690 
Q 3069 4631 3425 4513 
z
" transform="scale(0.015625)"/>
      <path id="DejaVuSans-68" d="M 3513 2113 
L 3513 0 
L 2938 0 
L 2938 2094 
Q 2938 2591 2744 2837 
Q 2550 3084 2163 3084 
Q 1697 3084 1428 2787 
Q 1159 2491 1159 1978 
L 1159 0 
L 581 0 
L 581 4863 
L 1159 4863 
L 1159 2956 
Q 1366 3272 1645 3428 
Q 1925 3584 2291 3584 
Q 2894 3584 3203 3211 
Q 3513 2838 3513 2113 
z
" transform="scale(0.015625)"/>
      <path id="DejaVuSans-77" d="M 269 3500 
L 844 3500 
L 1563 769 
L 2278 3500 
L 2956 3500 
L 3675 769 
L 4391 3500 
L 4966 3500 
L 4050 0 
L 3372 0 
L 2619 2869 
L 1863 0 
L 1184 0 
L 269 3500 
z
" transform="scale(0.015625)"/>
      <path id="DejaVuSans-70" d="M 1159 525 
L 1159 -1331 
L 581 -1331 
L 581 3500 
L 1159 3500 
L 1159 2969 
Q 1341 3281 1617 3432 
Q 1894 3584 2278 3584 
Q 2916 3584 3314 3078 
Q 3713 2572 3713 1747 
Q 3713 922 3314 415 
Q 2916 -91 2278 -91 
Q 1894 -91 1617 61 
Q 1341 213 1159 525 
z
M 3116 1747 
Q 3116 2381 2855 2742 
Q 2594 3103 2138 3103 
Q 1681 3103 1420 2742 
Q 1159 2381 1159 1747 
Q 1159 1113 1420 752 
Q 1681 391 2138 391 
Q 2594 391 2855 752 
Q 3116 1113 3116 1747 
z
" transform="scale(0.015625)"/>
      <path id="DejaVuSans-5b" d="M 550 4863 
L 1875 4863 
L 1875 4416 
L 1125 4416 
L 1125 -397 
L 1875 -397 
L 1875 -844 
L 550 -844 
L 550 4863 
z
" transform="scale(0.015625)"/>
      <path id="DejaVuSans-5d" d="M 1947 4863 
L 1947 -844 
L 622 -844 
L 622 -397 
L 1369 -397 
L 1369 4416 
L 622 4416 
L 622 4863 
L 1947 4863 
z
" transform="scale(0.015625)"/>
      <path id="DejaVuSans-66" d="M 2375 4863 
L 2375 4384 
L 1825 4384 
Q 1516 4384 1395 4259 
Q 1275 4134 1275 3809 
L 1275 3500 
L 2222 3500 
L 2222 3053 
L 1275 3053 
L 1275 0 
L 697 0 
L 697 3053 
L 147 3053 
L 147 3500 
L 697 3500 
L 697 3744 
Q 697 4328 969 4595 
Q 1241 4863 1831 4863 
L 2375 4863 
z
" transform="scale(0.015625)"/>
      <path id="DejaVuSans-41" d="M 2188 4044 
L 1331 1722 
L 3047 1722 
L 2188 4044 
z
M 1831 4666 
L 2547 4666 
L 4325 0 
L 3669 0 
L 3244 1197 
L 1141 1197 
L 716 0 
L 50 0 
L 1831 4666 
z
" transform="scale(0.015625)"/>
      <path id="DejaVuSans-51" d="M 2522 4238 
Q 1834 4238 1429 3725 
Q 1025 3213 1025 2328 
Q 1025 1447 1429 934 
Q 1834 422 2522 422 
Q 3209 422 3611 934 
Q 4013 1447 4013 2328 
Q 4013 3213 3611 3725 
Q 3209 4238 2522 4238 
z
M 3406 84 
L 4238 -825 
L 3475 -825 
L 2784 -78 
Q 2681 -84 2626 -87 
Q 2572 -91 2522 -91 
Q 1538 -91 948 567 
Q 359 1225 359 2328 
Q 359 3434 948 4092 
Q 1538 4750 2522 4750 
Q 3503 4750 4090 4092 
Q 4678 3434 4678 2328 
Q 4678 1516 4351 937 
Q 4025 359 3406 84 
z
" transform="scale(0.015625)"/>
     </defs>
     <use xlink:href="#DejaVuSans-6f"/>
     <use xlink:href="#DejaVuSans-75" x="61.181641"/>
     <use xlink:href="#DejaVuSans-74" x="124.560547"/>
     <use xlink:href="#DejaVuSans-67" x="163.769531"/>
     <use xlink:href="#DejaVuSans-6f" x="227.246094"/>
     <use xlink:href="#DejaVuSans-69" x="288.427734"/>
     <use xlink:href="#DejaVuSans-6e" x="316.210938"/>
     <use xlink:href="#DejaVuSans-67" x="379.589844"/>
     <use xlink:href="#DejaVuSans-44" x="443.066406"/>
     <use xlink:href="#DejaVuSans-61" x="520.068359"/>
     <use xlink:href="#DejaVuSans-74" x="581.347656"/>
     <use xlink:href="#DejaVuSans-61" x="620.556641"/>
     <use xlink:href="#DejaVuSans-52" x="681.835938"/>
     <use xlink:href="#DejaVuSans-61" x="749.068359"/>
     <use xlink:href="#DejaVuSans-74" x="810.347656"/>
     <use xlink:href="#DejaVuSans-65" x="849.556641"/>
     <use xlink:href="#DejaVuSans-3a" x="911.080078"/>
     <use xlink:href="#DejaVuSans-76" x="944.771484"/>
     <use xlink:href="#DejaVuSans-65" x="1003.951172"/>
     <use xlink:href="#DejaVuSans-63" x="1065.474609"/>
     <use xlink:href="#DejaVuSans-74" x="1120.455078"/>
     <use xlink:href="#DejaVuSans-6f" x="1159.664062"/>
     <use xlink:href="#DejaVuSans-72" x="1220.845703"/>
     <use xlink:href="#DejaVuSans-20" x="1261.958984"/>
     <use xlink:href="#DejaVuSans-28" x="1293.746094"/>
     <use xlink:href="#DejaVuSans-48" x="1332.759766"/>
     <use xlink:href="#DejaVuSans-61" x="1407.955078"/>
     <use xlink:href="#DejaVuSans-6e" x="1469.234375"/>
     <use xlink:href="#DejaVuSans-64" x="1532.613281"/>
     <use xlink:href="#DejaVuSans-6f" x="1596.089844"/>
     <use xlink:href="#DejaVuSans-76" x="1657.271484"/>
     <use xlink:href="#DejaVuSans-65" x="1716.451172"/>
     <use xlink:href="#DejaVuSans-72" x="1777.974609"/>
     <use xlink:href="#DejaVuSans-53" x="1819.087891"/>
     <use xlink:href="#DejaVuSans-68" x="1882.564453"/>
     <use xlink:href="#DejaVuSans-6f" x="1945.943359"/>
     <use xlink:href="#DejaVuSans-77" x="2007.125"/>
     <use xlink:href="#DejaVuSans-63" x="2088.912109"/>
     <use xlink:href="#DejaVuSans-61" x="2143.892578"/>
     <use xlink:href="#DejaVuSans-73" x="2205.171875"/>
     <use xlink:href="#DejaVuSans-65" x="2257.271484"/>
     <use xlink:href="#DejaVuSans-2e" x="2318.794922"/>
     <use xlink:href="#DejaVuSans-61" x="2350.582031"/>
     <use xlink:href="#DejaVuSans-70" x="2411.861328"/>
     <use xlink:href="#DejaVuSans-32" x="2475.337891"/>
     <use xlink:href="#DejaVuSans-2e" x="2538.960938"/>
     <use xlink:href="#DejaVuSans-77" x="2570.748047"/>
     <use xlink:href="#DejaVuSans-6c" x="2652.535156"/>
     <use xlink:href="#DejaVuSans-61" x="2680.318359"/>
     <use xlink:href="#DejaVuSans-6e" x="2741.597656"/>
     <use xlink:href="#DejaVuSans-5b" x="2804.976562"/>
     <use xlink:href="#DejaVuSans-30" x="2843.990234"/>
     <use xlink:href="#DejaVuSans-5d" x="2907.613281"/>
     <use xlink:href="#DejaVuSans-2e" x="2946.626953"/>
     <use xlink:href="#DejaVuSans-6d" x="2978.414062"/>
     <use xlink:href="#DejaVuSans-61" x="3075.826172"/>
     <use xlink:href="#DejaVuSans-63" x="3137.105469"/>
     <use xlink:href="#DejaVuSans-2e" x="3192.085938"/>
     <use xlink:href="#DejaVuSans-64" x="3223.873047"/>
     <use xlink:href="#DejaVuSans-63" x="3287.349609"/>
     <use xlink:href="#DejaVuSans-66" x="3342.330078"/>
     <use xlink:href="#DejaVuSans-2e" x="3370.285156"/>
     <use xlink:href="#DejaVuSans-63" x="3402.072266"/>
     <use xlink:href="#DejaVuSans-68" x="3457.052734"/>
     <use xlink:href="#DejaVuSans-61" x="3520.431641"/>
     <use xlink:href="#DejaVuSans-6e" x="3581.710938"/>
     <use xlink:href="#DejaVuSans-6e" x="3645.089844"/>
     <use xlink:href="#DejaVuSans-65" x="3708.46875"/>
     <use xlink:href="#DejaVuSans-6c" x="3769.992188"/>
     <use xlink:href="#DejaVuSans-41" x="3797.775391"/>
     <use xlink:href="#DejaVuSans-63" x="3864.433594"/>
     <use xlink:href="#DejaVuSans-63" x="3919.414062"/>
     <use xlink:href="#DejaVuSans-65" x="3974.394531"/>
     <use xlink:href="#DejaVuSans-73" x="4035.917969"/>
     <use xlink:href="#DejaVuSans-73" x="4088.017578"/>
     <use xlink:href="#DejaVuSans-2e" x="4140.117188"/>
     <use xlink:href="#DejaVuSans-70" x="4171.904297"/>
     <use xlink:href="#DejaVuSans-65" x="4235.380859"/>
     <use xlink:href="#DejaVuSans-6e" x="4296.904297"/>
     <use xlink:href="#DejaVuSans-64" x="4360.283203"/>
     <use xlink:href="#DejaVuSans-69" x="4423.759766"/>
     <use xlink:href="#DejaVuSans-6e" x="4451.542969"/>
     <use xlink:href="#DejaVuSans-67" x="4514.921875"/>
     <use xlink:href="#DejaVuSans-51" x="4578.398438"/>
     <use xlink:href="#DejaVuSans-75" x="4657.109375"/>
     <use xlink:href="#DejaVuSans-65" x="4720.488281"/>
     <use xlink:href="#DejaVuSans-75" x="4782.011719"/>
     <use xlink:href="#DejaVuSans-65" x="4845.390625"/>
     <use xlink:href="#DejaVuSans-29" x="4906.914062"/>
    </g>
   </g>
   <g id="legend_1">
    <g id="patch_7">
     <path d="M 63.09 60.478125 
L 188.572813 60.478125 
Q 190.572813 60.478125 190.572813 58.478125 
L 190.572813 44.8 
Q 190.572813 42.8 188.572813 42.8 
L 63.09 42.8 
Q 61.09 42.8 61.09 44.8 
L 61.09 58.478125 
Q 61.09 60.478125 63.09 60.478125 
z
" style="fill: #ffffff; opacity: 0.8; stroke: #cccccc; stroke-linejoin: miter"/>
    </g>
    <g id="line2d_28">
     <path d="M 65.09 50.898438 
L 75.09 50.898438 
L 85.09 50.898438 
" style="fill: none; stroke: #1f77b4; stroke-width: 1.5; stroke-linecap: square"/>
    </g>
    <g id="text_18">
     <!-- Δvalue per sample -->
     <g transform="translate(93.09 54.398438) scale(0.1 -0.1)">
      <defs>
       <path id="DejaVuSans-394" d="M 2188 4044 
L 906 525 
L 3472 525 
L 2188 4044 
z
M 50 0 
L 1831 4666 
L 2547 4666 
L 4325 0 
L 50 0 
z
" transform="scale(0.015625)"/>
      </defs>
      <use xlink:href="#DejaVuSans-394"/>
      <use xlink:href="#DejaVuSans-76" x="68.408203"/>
      <use xlink:href="#DejaVuSans-61" x="127.587891"/>
      <use xlink:href="#DejaVuSans-6c" x="188.867188"/>
      <use xlink:href="#DejaVuSans-75" x="216.650391"/>
      <use xlink:href="#DejaVuSans-65" x="280.029297"/>
      <use xlink:href="#DejaVuSans-20" x="341.552734"/>
      <use xlink:href="#DejaVuSans-70" x="373.339844"/>
      <use xlink:href="#DejaVuSans-65" x="436.816406"/>
      <use xlink:href="#DejaVuSans-72" x="498.339844"/>
      <use xlink:href="#DejaVuSans-20" x="539.453125"/>
      <use xlink:href="#DejaVuSans-73" x="571.240234"/>
      <use xlink:href="#DejaVuSans-61" x="623.339844"/>
      <use xlink:href="#DejaVuSans-6d" x="684.619141"/>
      <use xlink:href="#DejaVuSans-70" x="782.03125"/>
      <use xlink:href="#DejaVuSans-6c" x="845.507812"/>
      <use xlink:href="#DejaVuSans-65" x="873.291016"/>
     </g>
    </g>
   </g>
  </g>
 </g>
 <defs>
  <clipPath id="p3ba9b42cf0">
   <rect x="56.09" y="37.8" width="653.11" height="208.24"/>
  </clipPath>
 </defs>
</svg>
