<?xml version="1.0" encoding="utf-8" standalone="no"?>
<!DOCTYPE svg PUBLIC "-//W3C//DTD SVG 1.1//EN"
  "http://www.w3.org/Graphics/SVG/1.1/DTD/svg11.dtd">
<svg xmlns:xlink="http://www.w3.org/1999/xlink" width="720pt" height="288pt" viewBox="0 0 720 288" xmlns="http://www.w3.org/2000/svg" version="1.1">
 <metadata>
  <rdf:RDF xmlns:dc="http://purl.org/dc/elements/1.1/" xmlns:cc="http://creativecommons.org/ns#" xmlns:rdf="http://www.w3.org/1999/02/22-rdf-syntax-ns#">
   <cc:Work>
    <dc:type rdf:resource="http://purl.org/dc/dcmitype/StillImage"/>
    <dc:date>2025-07-27T15:08:46.028585</dc:date>
    <dc:format>image/svg+xml</dc:format>
    <dc:creator>
     <cc:Agent>
      <dc:title>Matplotlib v3.9.2, https://matplotlib.org/</dc:title>
     </cc:Agent>
    </dc:creator>
   </cc:Work>
  </rdf:RDF>
 </metadata>
 <defs>
  <style type="text/css">*{stroke-linejoin: round; stroke-linecap: butt}</style>
 </defs>
 <g id="figure_1">
  <g id="patch_1">
   <path d="M 0 288 
L 720 288 
L 720 0 
L 0 0 
z
" style="fill: #ffffff"/>
  </g>
  <g id="axes_1">
   <g id="patch_2">
    <path d="M 54.02 246.04 
L 709.2 246.04 
L 709.2 26.88 
L 54.02 26.88 
z
" style="fill: #ffffff"/>
   </g>
   <g id="matplotlib.axis_1">
    <g id="xtick_1">
     <g id="line2d_1">
      <path d="M 83.800909 246.04 
L 83.800909 26.88 
" clip-path="url(#p30dd6fef5f)" style="fill: none; stroke: #b0b0b0; stroke-width: 0.8; stroke-linecap: square"/>
     </g>
     <g id="line2d_2">
      <defs>
       <path id="m4c0dd8d99f" d="M 0 0 
L 0 3.5 
" style="stroke: #000000; stroke-width: 0.8"/>
      </defs>
      <g>
       <use xlink:href="#m4c0dd8d99f" x="83.800909" y="246.04" style="stroke: #000000; stroke-width: 0.8"/>
      </g>
     </g>
     <g id="text_1">
      <!-- 0 -->
      <g transform="translate(80.619659 260.638438) scale(0.1 -0.1)">
       <defs>
        <path id="DejaVuSans-30" d="M 2034 4250 
Q 1547 4250 1301 3770 
Q 1056 3291 1056 2328 
Q 1056 1369 1301 889 
Q 1547 409 2034 409 
Q 2525 409 2770 889 
Q 3016 1369 3016 2328 
Q 3016 3291 2770 3770 
Q 2525 4250 2034 4250 
z
M 2034 4750 
Q 2819 4750 3233 4129 
Q 3647 3509 3647 2328 
Q 3647 1150 3233 529 
Q 2819 -91 2034 -91 
Q 1250 -91 836 529 
Q 422 1150 422 2328 
Q 422 3509 836 4129 
Q 1250 4750 2034 4750 
z
" transform="scale(0.015625)"/>
       </defs>
       <use xlink:href="#DejaVuSans-30"/>
      </g>
     </g>
    </g>
    <g id="xtick_2">
     <g id="line2d_3">
      <path d="M 228.214201 246.04 
L 228.214201 26.88 
" clip-path="url(#p30dd6fef5f)" style="fill: none; stroke: #b0b0b0; stroke-width: 0.8; stroke-linecap: square"/>
     </g>
     <g id="line2d_4">
      <g>
       <use xlink:href="#m4c0dd8d99f" x="228.214201" y="246.04" style="stroke: #000000; stroke-width: 0.8"/>
      </g>
     </g>
     <g id="text_2">
      <!-- 10000 -->
      <g transform="translate(212.307951 260.638438) scale(0.1 -0.1)">
       <defs>
        <path id="DejaVuSans-31" d="M 794 531 
L 1825 531 
L 1825 4091 
L 703 3866 
L 703 4441 
L 1819 4666 
L 2450 4666 
L 2450 531 
L 3481 531 
L 3481 0 
L 794 0 
L 794 531 
z
" transform="scale(0.015625)"/>
       </defs>
       <use xlink:href="#DejaVuSans-31"/>
       <use xlink:href="#DejaVuSans-30" x="63.623047"/>
       <use xlink:href="#DejaVuSans-30" x="127.246094"/>
       <use xlink:href="#DejaVuSans-30" x="190.869141"/>
       <use xlink:href="#DejaVuSans-30" x="254.492188"/>
      </g>
     </g>
    </g>
    <g id="xtick_3">
     <g id="line2d_5">
      <path d="M 372.627493 246.04 
L 372.627493 26.88 
" clip-path="url(#p30dd6fef5f)" style="fill: none; stroke: #b0b0b0; stroke-width: 0.8; stroke-linecap: square"/>
     </g>
     <g id="line2d_6">
      <g>
       <use xlink:href="#m4c0dd8d99f" x="372.627493" y="246.04" style="stroke: #000000; stroke-width: 0.8"/>
      </g>
     </g>
     <g id="text_3">
      <!-- 20000 -->
      <g transform="translate(356.721243 260.638438) scale(0.1 -0.1)">
       <defs>
        <path id="DejaVuSans-32" d="M 1228 531 
L 3431 531 
L 3431 0 
L 469 0 
L 469 531 
Q 828 903 1448 1529 
Q 2069 2156 2228 2338 
Q 2531 2678 2651 2914 
Q 2772 3150 2772 3378 
Q 2772 3750 2511 3984 
Q 2250 4219 1831 4219 
Q 1534 4219 1204 4116 
Q 875 4013 500 3803 
L 500 4441 
Q 881 4594 1212 4672 
Q 1544 4750 1819 4750 
Q 2544 4750 2975 4387 
Q 3406 4025 3406 3419 
Q 3406 3131 3298 2873 
Q 3191 2616 2906 2266 
Q 2828 2175 2409 1742 
Q 1991 1309 1228 531 
z
" transform="scale(0.015625)"/>
       </defs>
       <use xlink:href="#DejaVuSans-32"/>
       <use xlink:href="#DejaVuSans-30" x="63.623047"/>
       <use xlink:href="#DejaVuSans-30" x="127.246094"/>
       <use xlink:href="#DejaVuSans-30" x="190.869141"/>
       <use xlink:href="#DejaVuSans-30" x="254.492188"/>
      </g>
     </g>
    </g>
    <g id="xtick_4">
     <g id="line2d_7">
      <path d="M 517.040785 246.04 
L 517.040785 26.88 
" clip-path="url(#p30dd6fef5f)" style="fill: none; stroke: #b0b0b0; stroke-width: 0.8; stroke-linecap: square"/>
     </g>
     <g id="line2d_8">
      <g>
       <use xlink:href="#m4c0dd8d99f" x="517.040785" y="246.04" style="stroke: #000000; stroke-width: 0.8"/>
      </g>
     </g>
     <g id="text_4">
      <!-- 30000 -->
      <g transform="translate(501.134535 260.638438) scale(0.1 -0.1)">
       <defs>
        <path id="DejaVuSans-33" d="M 2597 2516 
Q 3050 2419 3304 2112 
Q 3559 1806 3559 1356 
Q 3559 666 3084 287 
Q 2609 -91 1734 -91 
Q 1441 -91 1130 -33 
Q 819 25 488 141 
L 488 750 
Q 750 597 1062 519 
Q 1375 441 1716 441 
Q 2309 441 2620 675 
Q 2931 909 2931 1356 
Q 2931 1769 2642 2001 
Q 2353 2234 1838 2234 
L 1294 2234 
L 1294 2753 
L 1863 2753 
Q 2328 2753 2575 2939 
Q 2822 3125 2822 3475 
Q 2822 3834 2567 4026 
Q 2313 4219 1838 4219 
Q 1578 4219 1281 4162 
Q 984 4106 628 3988 
L 628 4550 
Q 988 4650 1302 4700 
Q 1616 4750 1894 4750 
Q 2613 4750 3031 4423 
Q 3450 4097 3450 3541 
Q 3450 3153 3228 2886 
Q 3006 2619 2597 2516 
z
" transform="scale(0.015625)"/>
       </defs>
       <use xlink:href="#DejaVuSans-33"/>
       <use xlink:href="#DejaVuSans-30" x="63.623047"/>
       <use xlink:href="#DejaVuSans-30" x="127.246094"/>
       <use xlink:href="#DejaVuSans-30" x="190.869141"/>
       <use xlink:href="#DejaVuSans-30" x="254.492188"/>
      </g>
     </g>
    </g>
    <g id="xtick_5">
     <g id="line2d_9">
      <path d="M 661.454077 246.04 
L 661.454077 26.88 
" clip-path="url(#p30dd6fef5f)" style="fill: none; stroke: #b0b0b0; stroke-width: 0.8; stroke-linecap: square"/>
     </g>
     <g id="line2d_10">
      <g>
       <use xlink:href="#m4c0dd8d99f" x="661.454077" y="246.04" style="stroke: #000000; stroke-width: 0.8"/>
      </g>
     </g>
     <g id="text_5">
      <!-- 40000 -->
      <g transform="translate(645.547827 260.638438) scale(0.1 -0.1)">
       <defs>
        <path id="DejaVuSans-34" d="M 2419 4116 
L 825 1625 
L 2419 1625 
L 2419 4116 
z
M 2253 4666 
L 3047 4666 
L 3047 1625 
L 3713 1625 
L 3713 1100 
L 3047 1100 
L 3047 0 
L 2419 0 
L 2419 1100 
L 313 1100 
L 313 1709 
L 2253 4666 
z
" transform="scale(0.015625)"/>
       </defs>
       <use xlink:href="#DejaVuSans-34"/>
       <use xlink:href="#DejaVuSans-30" x="63.623047"/>
       <use xlink:href="#DejaVuSans-30" x="127.246094"/>
       <use xlink:href="#DejaVuSans-30" x="190.869141"/>
       <use xlink:href="#DejaVuSans-30" x="254.492188"/>
      </g>
     </g>
    </g>
    <g id="text_6">
     <!-- Time (s) -->
     <g transform="translate(361.281094 274.316562) scale(0.1 -0.1)">
      <defs>
       <path id="DejaVuSans-54" d="M -19 4666 
L 3928 4666 
L 3928 4134 
L 2272 4134 
L 2272 0 
L 1638 0 
L 1638 4134 
L -19 4134 
L -19 4666 
z
" transform="scale(0.015625)"/>
       <path id="DejaVuSans-69" d="M 603 3500 
L 1178 3500 
L 1178 0 
L 603 0 
L 603 3500 
z
M 603 4863 
L 1178 4863 
L 1178 4134 
L 603 4134 
L 603 4863 
z
" transform="scale(0.015625)"/>
       <path id="DejaVuSans-6d" d="M 3328 2828 
Q 3544 3216 3844 3400 
Q 4144 3584 4550 3584 
Q 5097 3584 5394 3201 
Q 5691 2819 5691 2113 
L 5691 0 
L 5113 0 
L 5113 2094 
Q 5113 2597 4934 2840 
Q 4756 3084 4391 3084 
Q 3944 3084 3684 2787 
Q 3425 2491 3425 1978 
L 3425 0 
L 2847 0 
L 2847 2094 
Q 2847 2600 2669 2842 
Q 2491 3084 2119 3084 
Q 1678 3084 1418 2786 
Q 1159 2488 1159 1978 
L 1159 0 
L 581 0 
L 581 3500 
L 1159 3500 
L 1159 2956 
Q 1356 3278 1631 3431 
Q 1906 3584 2284 3584 
Q 2666 3584 2933 3390 
Q 3200 3197 3328 2828 
z
" transform="scale(0.015625)"/>
       <path id="DejaVuSans-65" d="M 3597 1894 
L 3597 1613 
L 953 1613 
Q 991 1019 1311 708 
Q 1631 397 2203 397 
Q 2534 397 2845 478 
Q 3156 559 3463 722 
L 3463 178 
Q 3153 47 2828 -22 
Q 2503 -91 2169 -91 
Q 1331 -91 842 396 
Q 353 884 353 1716 
Q 353 2575 817 3079 
Q 1281 3584 2069 3584 
Q 2775 3584 3186 3129 
Q 3597 2675 3597 1894 
z
M 3022 2063 
Q 3016 2534 2758 2815 
Q 2500 3097 2075 3097 
Q 1594 3097 1305 2825 
Q 1016 2553 972 2059 
L 3022 2063 
z
" transform="scale(0.015625)"/>
       <path id="DejaVuSans-20" transform="scale(0.015625)"/>
       <path id="DejaVuSans-28" d="M 1984 4856 
Q 1566 4138 1362 3434 
Q 1159 2731 1159 2009 
Q 1159 1288 1364 580 
Q 1569 -128 1984 -844 
L 1484 -844 
Q 1016 -109 783 600 
Q 550 1309 550 2009 
Q 550 2706 781 3412 
Q 1013 4119 1484 4856 
L 1984 4856 
z
" transform="scale(0.015625)"/>
       <path id="DejaVuSans-73" d="M 2834 3397 
L 2834 2853 
Q 2591 2978 2328 3040 
Q 2066 3103 1784 3103 
Q 1356 3103 1142 2972 
Q 928 2841 928 2578 
Q 928 2378 1081 2264 
Q 1234 2150 1697 2047 
L 1894 2003 
Q 2506 1872 2764 1633 
Q 3022 1394 3022 966 
Q 3022 478 2636 193 
Q 2250 -91 1575 -91 
Q 1294 -91 989 -36 
Q 684 19 347 128 
L 347 722 
Q 666 556 975 473 
Q 1284 391 1588 391 
Q 1994 391 2212 530 
Q 2431 669 2431 922 
Q 2431 1156 2273 1281 
Q 2116 1406 1581 1522 
L 1381 1569 
Q 847 1681 609 1914 
Q 372 2147 372 2553 
Q 372 3047 722 3315 
Q 1072 3584 1716 3584 
Q 2034 3584 2315 3537 
Q 2597 3491 2834 3397 
z
" transform="scale(0.015625)"/>
       <path id="DejaVuSans-29" d="M 513 4856 
L 1013 4856 
Q 1481 4119 1714 3412 
Q 1947 2706 1947 2009 
Q 1947 1309 1714 600 
Q 1481 -109 1013 -844 
L 513 -844 
Q 928 -128 1133 580 
Q 1338 1288 1338 2009 
Q 1338 2731 1133 3434 
Q 928 4138 513 4856 
z
" transform="scale(0.015625)"/>
      </defs>
      <use xlink:href="#DejaVuSans-54"/>
      <use xlink:href="#DejaVuSans-69" x="57.958984"/>
      <use xlink:href="#DejaVuSans-6d" x="85.742188"/>
      <use xlink:href="#DejaVuSans-65" x="183.154297"/>
      <use xlink:href="#DejaVuSans-20" x="244.677734"/>
      <use xlink:href="#DejaVuSans-28" x="276.464844"/>
      <use xlink:href="#DejaVuSans-73" x="315.478516"/>
      <use xlink:href="#DejaVuSans-29" x="367.578125"/>
     </g>
    </g>
   </g>
   <g id="matplotlib.axis_2">
    <g id="ytick_1">
     <g id="line2d_11">
      <path d="M 54.02 236.078182 
L 709.2 236.078182 
" clip-path="url(#p30dd6fef5f)" style="fill: none; stroke: #b0b0b0; stroke-width: 0.8; stroke-linecap: square"/>
     </g>
     <g id="line2d_12">
      <defs>
       <path id="m0ef74bb2e0" d="M 0 0 
L -3.5 0 
" style="stroke: #000000; stroke-width: 0.8"/>
      </defs>
      <g>
       <use xlink:href="#m0ef74bb2e0" x="54.02" y="236.078182" style="stroke: #000000; stroke-width: 0.8"/>
      </g>
     </g>
     <g id="text_7">
      <!-- 0.00 -->
      <g transform="translate(24.754375 239.877401) scale(0.1 -0.1)">
       <defs>
        <path id="DejaVuSans-2e" d="M 684 794 
L 1344 794 
L 1344 0 
L 684 0 
L 684 794 
z
" transform="scale(0.015625)"/>
       </defs>
       <use xlink:href="#DejaVuSans-30"/>
       <use xlink:href="#DejaVuSans-2e" x="63.623047"/>
       <use xlink:href="#DejaVuSans-30" x="95.410156"/>
       <use xlink:href="#DejaVuSans-30" x="159.033203"/>
      </g>
     </g>
    </g>
    <g id="ytick_2">
     <g id="line2d_13">
      <path d="M 54.02 196.230909 
L 709.2 196.230909 
" clip-path="url(#p30dd6fef5f)" style="fill: none; stroke: #b0b0b0; stroke-width: 0.8; stroke-linecap: square"/>
     </g>
     <g id="line2d_14">
      <g>
       <use xlink:href="#m0ef74bb2e0" x="54.02" y="196.230909" style="stroke: #000000; stroke-width: 0.8"/>
      </g>
     </g>
     <g id="text_8">
      <!-- 0.02 -->
      <g transform="translate(24.754375 200.030128) scale(0.1 -0.1)">
       <use xlink:href="#DejaVuSans-30"/>
       <use xlink:href="#DejaVuSans-2e" x="63.623047"/>
       <use xlink:href="#DejaVuSans-30" x="95.410156"/>
       <use xlink:href="#DejaVuSans-32" x="159.033203"/>
      </g>
     </g>
    </g>
    <g id="ytick_3">
     <g id="line2d_15">
      <path d="M 54.02 156.383636 
L 709.2 156.383636 
" clip-path="url(#p30dd6fef5f)" style="fill: none; stroke: #b0b0b0; stroke-width: 0.8; stroke-linecap: square"/>
     </g>
     <g id="line2d_16">
      <g>
       <use xlink:href="#m0ef74bb2e0" x="54.02" y="156.383636" style="stroke: #000000; stroke-width: 0.8"/>
      </g>
     </g>
     <g id="text_9">
      <!-- 0.04 -->
      <g transform="translate(24.754375 160.182855) scale(0.1 -0.1)">
       <use xlink:href="#DejaVuSans-30"/>
       <use xlink:href="#DejaVuSans-2e" x="63.623047"/>
       <use xlink:href="#DejaVuSans-30" x="95.410156"/>
       <use xlink:href="#DejaVuSans-34" x="159.033203"/>
      </g>
     </g>
    </g>
    <g id="ytick_4">
     <g id="line2d_17">
      <path d="M 54.02 116.536364 
L 709.2 116.536364 
" clip-path="url(#p30dd6fef5f)" style="fill: none; stroke: #b0b0b0; stroke-width: 0.8; stroke-linecap: square"/>
     </g>
     <g id="line2d_18">
      <g>
       <use xlink:href="#m0ef74bb2e0" x="54.02" y="116.536364" style="stroke: #000000; stroke-width: 0.8"/>
      </g>
     </g>
     <g id="text_10">
      <!-- 0.06 -->
      <g transform="translate(24.754375 120.335582) scale(0.1 -0.1)">
       <defs>
        <path id="DejaVuSans-36" d="M 2113 2584 
Q 1688 2584 1439 2293 
Q 1191 2003 1191 1497 
Q 1191 994 1439 701 
Q 1688 409 2113 409 
Q 2538 409 2786 701 
Q 3034 994 3034 1497 
Q 3034 2003 2786 2293 
Q 2538 2584 2113 2584 
z
M 3366 4563 
L 3366 3988 
Q 3128 4100 2886 4159 
Q 2644 4219 2406 4219 
Q 1781 4219 1451 3797 
Q 1122 3375 1075 2522 
Q 1259 2794 1537 2939 
Q 1816 3084 2150 3084 
Q 2853 3084 3261 2657 
Q 3669 2231 3669 1497 
Q 3669 778 3244 343 
Q 2819 -91 2113 -91 
Q 1303 -91 875 529 
Q 447 1150 447 2328 
Q 447 3434 972 4092 
Q 1497 4750 2381 4750 
Q 2619 4750 2861 4703 
Q 3103 4656 3366 4563 
z
" transform="scale(0.015625)"/>
       </defs>
       <use xlink:href="#DejaVuSans-30"/>
       <use xlink:href="#DejaVuSans-2e" x="63.623047"/>
       <use xlink:href="#DejaVuSans-30" x="95.410156"/>
       <use xlink:href="#DejaVuSans-36" x="159.033203"/>
      </g>
     </g>
    </g>
    <g id="ytick_5">
     <g id="line2d_19">
      <path d="M 54.02 76.689091 
L 709.2 76.689091 
" clip-path="url(#p30dd6fef5f)" style="fill: none; stroke: #b0b0b0; stroke-width: 0.8; stroke-linecap: square"/>
     </g>
     <g id="line2d_20">
      <g>
       <use xlink:href="#m0ef74bb2e0" x="54.02" y="76.689091" style="stroke: #000000; stroke-width: 0.8"/>
      </g>
     </g>
     <g id="text_11">
      <!-- 0.08 -->
      <g transform="translate(24.754375 80.48831) scale(0.1 -0.1)">
       <defs>
        <path id="DejaVuSans-38" d="M 2034 2216 
Q 1584 2216 1326 1975 
Q 1069 1734 1069 1313 
Q 1069 891 1326 650 
Q 1584 409 2034 409 
Q 2484 409 2743 651 
Q 3003 894 3003 1313 
Q 3003 1734 2745 1975 
Q 2488 2216 2034 2216 
z
M 1403 2484 
Q 997 2584 770 2862 
Q 544 3141 544 3541 
Q 544 4100 942 4425 
Q 1341 4750 2034 4750 
Q 2731 4750 3128 4425 
Q 3525 4100 3525 3541 
Q 3525 3141 3298 2862 
Q 3072 2584 2669 2484 
Q 3125 2378 3379 2068 
Q 3634 1759 3634 1313 
Q 3634 634 3220 271 
Q 2806 -91 2034 -91 
Q 1263 -91 848 271 
Q 434 634 434 1313 
Q 434 1759 690 2068 
Q 947 2378 1403 2484 
z
M 1172 3481 
Q 1172 3119 1398 2916 
Q 1625 2713 2034 2713 
Q 2441 2713 2670 2916 
Q 2900 3119 2900 3481 
Q 2900 3844 2670 4047 
Q 2441 4250 2034 4250 
Q 1625 4250 1398 4047 
Q 1172 3844 1172 3481 
z
" transform="scale(0.015625)"/>
       </defs>
       <use xlink:href="#DejaVuSans-30"/>
       <use xlink:href="#DejaVuSans-2e" x="63.623047"/>
       <use xlink:href="#DejaVuSans-30" x="95.410156"/>
       <use xlink:href="#DejaVuSans-38" x="159.033203"/>
      </g>
     </g>
    </g>
    <g id="ytick_6">
     <g id="line2d_21">
      <path d="M 54.02 36.841818 
L 709.2 36.841818 
" clip-path="url(#p30dd6fef5f)" style="fill: none; stroke: #b0b0b0; stroke-width: 0.8; stroke-linecap: square"/>
     </g>
     <g id="line2d_22">
      <g>
       <use xlink:href="#m0ef74bb2e0" x="54.02" y="36.841818" style="stroke: #000000; stroke-width: 0.8"/>
      </g>
     </g>
     <g id="text_12">
      <!-- 0.10 -->
      <g transform="translate(24.754375 40.641037) scale(0.1 -0.1)">
       <use xlink:href="#DejaVuSans-30"/>
       <use xlink:href="#DejaVuSans-2e" x="63.623047"/>
       <use xlink:href="#DejaVuSans-31" x="95.410156"/>
       <use xlink:href="#DejaVuSans-30" x="159.033203"/>
      </g>
     </g>
    </g>
    <g id="text_13">
     <!-- Delta Value -->
     <g transform="translate(18.674688 165.120156) rotate(-90) scale(0.1 -0.1)">
      <defs>
       <path id="DejaVuSans-44" d="M 1259 4147 
L 1259 519 
L 2022 519 
Q 2988 519 3436 956 
Q 3884 1394 3884 2338 
Q 3884 3275 3436 3711 
Q 2988 4147 2022 4147 
L 1259 4147 
z
M 628 4666 
L 1925 4666 
Q 3281 4666 3915 4102 
Q 4550 3538 4550 2338 
Q 4550 1131 3912 565 
Q 3275 0 1925 0 
L 628 0 
L 628 4666 
z
" transform="scale(0.015625)"/>
       <path id="DejaVuSans-6c" d="M 603 4863 
L 1178 4863 
L 1178 0 
L 603 0 
L 603 4863 
z
" transform="scale(0.015625)"/>
       <path id="DejaVuSans-74" d="M 1172 4494 
L 1172 3500 
L 2356 3500 
L 2356 3053 
L 1172 3053 
L 1172 1153 
Q 1172 725 1289 603 
Q 1406 481 1766 481 
L 2356 481 
L 2356 0 
L 1766 0 
Q 1100 0 847 248 
Q 594 497 594 1153 
L 594 3053 
L 172 3053 
L 172 3500 
L 594 3500 
L 594 4494 
L 1172 4494 
z
" transform="scale(0.015625)"/>
       <path id="DejaVuSans-61" d="M 2194 1759 
Q 1497 1759 1228 1600 
Q 959 1441 959 1056 
Q 959 750 1161 570 
Q 1363 391 1709 391 
Q 2188 391 2477 730 
Q 2766 1069 2766 1631 
L 2766 1759 
L 2194 1759 
z
M 3341 1997 
L 3341 0 
L 2766 0 
L 2766 531 
Q 2569 213 2275 61 
Q 1981 -91 1556 -91 
Q 1019 -91 701 211 
Q 384 513 384 1019 
Q 384 1609 779 1909 
Q 1175 2209 1959 2209 
L 2766 2209 
L 2766 2266 
Q 2766 2663 2505 2880 
Q 2244 3097 1772 3097 
Q 1472 3097 1187 3025 
Q 903 2953 641 2809 
L 641 3341 
Q 956 3463 1253 3523 
Q 1550 3584 1831 3584 
Q 2591 3584 2966 3190 
Q 3341 2797 3341 1997 
z
" transform="scale(0.015625)"/>
       <path id="DejaVuSans-56" d="M 1831 0 
L 50 4666 
L 709 4666 
L 2188 738 
L 3669 4666 
L 4325 4666 
L 2547 0 
L 1831 0 
z
" transform="scale(0.015625)"/>
       <path id="DejaVuSans-75" d="M 544 1381 
L 544 3500 
L 1119 3500 
L 1119 1403 
Q 1119 906 1312 657 
Q 1506 409 1894 409 
Q 2359 409 2629 706 
Q 2900 1003 2900 1516 
L 2900 3500 
L 3475 3500 
L 3475 0 
L 2900 0 
L 2900 538 
Q 2691 219 2414 64 
Q 2138 -91 1772 -91 
Q 1169 -91 856 284 
Q 544 659 544 1381 
z
M 1991 3584 
L 1991 3584 
z
" transform="scale(0.015625)"/>
      </defs>
      <use xlink:href="#DejaVuSans-44"/>
      <use xlink:href="#DejaVuSans-65" x="77.001953"/>
      <use xlink:href="#DejaVuSans-6c" x="138.525391"/>
      <use xlink:href="#DejaVuSans-74" x="166.308594"/>
      <use xlink:href="#DejaVuSans-61" x="205.517578"/>
      <use xlink:href="#DejaVuSans-20" x="266.796875"/>
      <use xlink:href="#DejaVuSans-56" x="298.583984"/>
      <use xlink:href="#DejaVuSans-61" x="359.242188"/>
      <use xlink:href="#DejaVuSans-6c" x="420.521484"/>
      <use xlink:href="#DejaVuSans-75" x="448.304688"/>
      <use xlink:href="#DejaVuSans-65" x="511.683594"/>
     </g>
    </g>
   </g>
   <g id="line2d_23">
    <path d="M 83.800909 236.078182 
L 84.046412 58.404572 
L 84.060853 236.078182 
L 84.609624 36.841818 
L 84.624065 236.078182 
L 85.490545 36.841818 
L 85.504986 236.078182 
L 86.024874 36.841818 
L 86.039315 236.078182 
L 86.891354 36.841818 
L 86.905795 236.078182 
L 87.353476 36.841818 
L 87.367917 236.078182 
L 87.887805 36.841818 
L 87.902247 236.078182 
L 88.768726 152.125684 
L 88.81205 235.380855 
L 89.259732 121.491644 
L 89.274173 236.078182 
L 89.794061 36.841818 
L 89.808502 236.078182 
L 90.487245 36.841818 
L 90.501686 236.078182 
L 91.007132 36.841818 
L 91.021574 236.078182 
L 91.714757 36.841818 
L 91.729199 236.078182 
L 92.422383 36.841818 
L 92.436824 236.078182 
L 93.144449 36.841818 
L 93.15889 236.078182 
L 93.823192 36.841818 
L 93.837633 236.078182 
L 94.516375 152.11774 
L 94.574141 236.058258 
L 94.67523 236.010441 
L 95.32509 234.527085 
L 95.382855 236.058258 
L 95.483944 236.010441 
L 95.556151 235.540244 
L 96.19157 235.005252 
L 96.249335 236.058258 
L 96.350424 236.010441 
L 96.422631 235.062076 
L 97.014725 125.462483 
L 97.029167 236.078182 
L 97.534613 36.841818 
L 97.549054 236.078182 
L 98.227797 36.841818 
L 98.242238 236.078182 
L 98.747685 36.841818 
L 98.762126 236.078182 
L 99.440869 36.841818 
L 99.45531 236.078182 
L 99.917432 36.841818 
L 99.931874 236.078182 
L 100.43732 36.841818 
L 100.451762 236.078182 
L 101.130504 36.841818 
L 101.144945 236.078182 
L 101.650392 36.841818 
L 101.664833 236.078182 
L 102.343576 36.841818 
L 102.358017 236.078182 
L 102.82014 36.841818 
L 102.834581 236.078182 
L 103.36891 36.841818 
L 103.383351 236.078182 
L 104.062094 36.841818 
L 104.076535 236.078182 
L 104.581982 36.841818 
L 104.596423 236.078182 
L 105.275166 36.841818 
L 105.289607 236.078182 
L 105.751729 36.841818 
L 105.766171 236.078182 
L 106.271617 36.841818 
L 106.286059 236.078182 
L 106.964801 36.841818 
L 106.979242 236.078182 
L 107.484689 36.841818 
L 107.49913 236.078182 
L 108.177873 36.841818 
L 108.192314 236.078182 
L 108.654437 36.841818 
L 108.668878 236.078182 
L 109.174325 36.841818 
L 109.188766 236.078182 
L 109.867508 36.841818 
L 109.88195 236.078182 
L 110.416279 36.841818 
L 110.43072 236.078182 
L 111.109463 36.841818 
L 111.123904 236.078182 
L 111.586026 36.841818 
L 111.600468 236.078182 
L 112.105914 36.841818 
L 112.120356 236.078182 
L 112.799098 36.841818 
L 112.813539 236.078182 
L 113.318986 36.841818 
L 113.333427 236.078182 
L 114.01217 36.841818 
L 114.026611 236.078182 
L 114.488734 36.841818 
L 114.503175 236.078182 
L 115.008622 36.841818 
L 115.023063 236.078182 
L 115.701805 36.841818 
L 115.716247 236.078182 
L 116.221693 36.841818 
L 116.236134 236.078182 
L 116.914877 36.841818 
L 116.929318 236.078182 
L 117.391441 36.841818 
L 117.405882 236.078182 
L 117.940211 36.841818 
L 117.954653 236.078182 
L 118.633395 36.841818 
L 118.647836 236.078182 
L 119.153283 36.841818 
L 119.167724 236.078182 
L 119.846467 36.841818 
L 119.860908 236.078182 
L 120.323031 36.841818 
L 120.337472 236.078182 
L 120.842919 36.841818 
L 120.85736 236.078182 
L 121.536102 36.841818 
L 121.550544 236.078182 
L 122.05599 36.841818 
L 122.070431 236.078182 
L 122.749174 36.841818 
L 122.763615 236.078182 
L 123.225738 36.841818 
L 123.240179 236.078182 
L 123.745626 36.841818 
L 123.760067 236.078182 
L 124.438809 36.841818 
L 124.453251 236.078182 
L 124.98758 36.841818 
L 125.002021 236.078182 
L 125.680764 36.841818 
L 125.695205 236.078182 
L 126.157328 36.841818 
L 126.171769 236.078182 
L 126.677216 36.841818 
L 126.691657 236.078182 
L 127.370399 36.841818 
L 127.384841 236.078182 
L 127.890287 36.841818 
L 127.904728 236.078182 
L 128.583471 36.841818 
L 128.597912 236.078182 
L 129.060035 36.841818 
L 129.074476 236.078182 
L 129.579923 36.841818 
L 129.594364 236.078182 
L 130.273106 36.841818 
L 130.287548 236.078182 
L 130.792994 36.841818 
L 130.807436 236.078182 
L 131.486178 36.841818 
L 131.500619 236.078182 
L 131.962742 36.841818 
L 131.977183 236.078182 
L 132.511513 36.841818 
L 132.525954 236.078182 
L 133.204696 36.841818 
L 133.219138 236.078182 
L 133.724584 36.841818 
L 133.739025 236.078182 
L 134.417768 36.841818 
L 134.432209 236.078182 
L 134.894332 36.841818 
L 134.908773 236.078182 
L 135.41422 36.841818 
L 135.428661 236.078182 
L 136.107403 36.841818 
L 136.121845 236.078182 
L 136.627291 36.841818 
L 136.641733 236.078182 
L 137.320475 36.841818 
L 137.334916 236.078182 
L 137.797039 36.841818 
L 137.81148 236.078182 
L 138.316927 36.841818 
L 138.331368 236.078182 
L 139.010111 36.841818 
L 139.024552 236.078182 
L 139.558881 36.841818 
L 139.573322 236.078182 
L 140.252065 36.841818 
L 140.266506 236.078182 
L 140.728629 36.841818 
L 140.74307 236.078182 
L 141.248517 36.841818 
L 141.262958 236.078182 
L 141.9417 36.841818 
L 141.956142 236.078182 
L 142.461588 36.841818 
L 142.47603 236.078182 
L 143.154772 36.841818 
L 143.169213 236.078182 
L 143.631336 36.841818 
L 143.645777 236.078182 
L 144.151224 36.841818 
L 144.165665 236.078182 
L 144.844408 36.841818 
L 144.858849 236.078182 
L 145.364296 36.841818 
L 145.378737 236.078182 
L 146.057479 36.841818 
L 146.071921 236.078182 
L 146.534043 36.841818 
L 146.548484 236.078182 
L 147.082814 36.841818 
L 147.097255 236.078182 
L 147.775997 36.841818 
L 147.790439 236.078182 
L 148.295885 36.841818 
L 148.310327 236.078182 
L 148.989069 36.841818 
L 149.00351 236.078182 
L 149.465633 36.841818 
L 149.480074 236.078182 
L 149.985521 36.841818 
L 149.999962 236.078182 
L 150.678705 36.841818 
L 150.693146 236.078182 
L 151.198593 36.841818 
L 151.213034 236.078182 
L 151.891776 36.841818 
L 151.906218 236.078182 
L 152.36834 36.841818 
L 152.382781 236.078182 
L 152.888228 36.841818 
L 152.902669 236.078182 
L 153.581412 36.841818 
L 153.595853 236.078182 
L 154.130182 36.841818 
L 154.144624 236.078182 
L 154.823366 36.841818 
L 154.837807 236.078182 
L 155.29993 36.841818 
L 155.314371 236.078182 
L 155.819818 36.841818 
L 155.834259 236.078182 
L 156.513002 36.841818 
L 156.527443 236.078182 
L 157.03289 36.841818 
L 157.047331 236.078182 
L 157.726073 36.841818 
L 157.740515 236.078182 
L 158.202637 36.841818 
L 158.217078 236.078182 
L 158.722525 36.841818 
L 158.736966 236.078182 
L 159.415709 36.841818 
L 159.43015 236.078182 
L 159.935597 36.841818 
L 159.950038 236.078182 
L 160.62878 36.841818 
L 160.643222 236.078182 
L 161.105344 36.841818 
L 161.119786 236.078182 
L 161.654115 36.841818 
L 161.668556 236.078182 
L 162.347299 36.841818 
L 162.36174 236.078182 
L 162.867186 36.841818 
L 162.881628 236.078182 
L 163.56037 36.841818 
L 163.574812 236.078182 
L 164.036934 36.841818 
L 164.051375 236.078182 
L 164.556822 36.841818 
L 164.571263 236.078182 
L 165.250006 36.841818 
L 165.264447 236.078182 
L 165.769894 36.841818 
L 165.784335 236.078182 
L 166.463077 36.841818 
L 166.477519 236.078182 
L 166.939641 36.841818 
L 166.954083 236.078182 
L 167.459529 36.841818 
L 167.473971 236.078182 
L 168.152713 36.841818 
L 168.167154 236.078182 
L 168.701483 36.841818 
L 168.715925 236.078182 
L 169.394667 36.841818 
L 169.409109 236.078182 
L 169.871231 36.841818 
L 169.885672 236.078182 
L 170.391119 36.841818 
L 170.40556 236.078182 
L 171.084303 36.841818 
L 171.098744 236.078182 
L 171.604191 36.841818 
L 171.618632 236.078182 
L 172.297374 36.841818 
L 172.311816 236.078182 
L 172.773938 36.841818 
L 172.78838 236.078182 
L 173.293826 36.841818 
L 173.308268 236.078182 
L 173.98701 36.841818 
L 174.001451 236.078182 
L 174.506898 36.841818 
L 174.521339 236.078182 
L 175.200082 36.841818 
L 175.214523 236.078182 
L 175.676646 36.841818 
L 175.691087 236.078182 
L 176.225416 36.841818 
L 176.239857 236.078182 
L 176.9186 36.841818 
L 176.933041 236.078182 
L 177.438488 36.841818 
L 177.452929 236.078182 
L 178.131671 36.841818 
L 178.146113 236.078182 
L 178.608235 36.841818 
L 178.622677 236.078182 
L 179.128123 36.841818 
L 179.142565 236.078182 
L 179.821307 36.841818 
L 179.835748 236.078182 
L 180.341195 36.841818 
L 180.355636 236.078182 
L 181.034379 36.841818 
L 181.04882 236.078182 
L 181.510943 36.841818 
L 181.525384 236.078182 
L 182.03083 36.841818 
L 182.045272 236.078182 
L 182.724014 36.841818 
L 182.738455 236.078182 
L 183.272785 36.841818 
L 183.287226 236.078182 
L 183.965968 36.841818 
L 183.98041 236.078182 
L 184.442532 36.841818 
L 184.456974 236.078182 
L 184.96242 36.841818 
L 184.976862 236.078182 
L 185.655604 36.841818 
L 185.670045 236.078182 
L 186.175492 36.841818 
L 186.189933 236.078182 
L 186.868676 36.841818 
L 186.883117 236.078182 
L 187.34524 36.841818 
L 187.359681 236.078182 
L 187.865127 36.841818 
L 187.879569 236.078182 
L 188.558311 36.841818 
L 188.572752 236.078182 
L 189.078199 36.841818 
L 189.09264 236.078182 
L 189.771383 36.841818 
L 189.785824 236.078182 
L 190.247947 36.841818 
L 190.262388 236.078182 
L 190.796717 36.841818 
L 190.811159 236.078182 
L 191.489901 36.841818 
L 191.504342 236.078182 
L 192.009789 36.841818 
L 192.02423 236.078182 
L 192.702973 36.841818 
L 192.717414 236.078182 
L 193.179537 36.841818 
L 193.193978 236.078182 
L 193.699424 36.841818 
L 193.713866 236.078182 
L 194.392608 36.841818 
L 194.407049 236.078182 
L 194.912496 36.841818 
L 194.926937 236.078182 
L 195.60568 36.841818 
L 195.620121 236.078182 
L 196.082244 36.841818 
L 196.096685 236.078182 
L 196.602132 36.841818 
L 196.616573 236.078182 
L 197.295315 36.841818 
L 197.309757 236.078182 
L 197.844086 36.841818 
L 197.858527 236.078182 
L 198.53727 36.841818 
L 198.551711 236.078182 
L 199.013834 36.841818 
L 199.028275 236.078182 
L 199.533721 36.841818 
L 199.548163 236.078182 
L 200.226905 36.841818 
L 200.241346 236.078182 
L 200.746793 36.841818 
L 200.761234 236.078182 
L 201.439977 36.841818 
L 201.454418 236.078182 
L 201.916541 36.841818 
L 201.930982 236.078182 
L 202.436429 36.841818 
L 202.45087 236.078182 
L 203.129612 36.841818 
L 203.144054 236.078182 
L 203.6495 36.841818 
L 203.663942 236.078182 
L 204.342684 36.841818 
L 204.357125 236.078182 
L 204.819248 36.841818 
L 204.833689 236.078182 
L 205.368018 36.841818 
L 205.38246 236.078182 
L 206.061202 36.841818 
L 206.075643 236.078182 
L 206.58109 36.841818 
L 206.595531 236.078182 
L 207.274274 36.841818 
L 207.288715 236.078182 
L 207.750838 36.841818 
L 207.765279 236.078182 
L 208.270726 36.841818 
L 208.285167 236.078182 
L 208.963909 36.841818 
L 208.978351 236.078182 
L 209.483797 36.841818 
L 209.498239 236.078182 
L 210.176981 36.841818 
L 210.191422 236.078182 
L 210.653545 36.841818 
L 210.667986 236.078182 
L 211.173433 36.841818 
L 211.187874 236.078182 
L 211.866616 36.841818 
L 211.881058 236.078182 
L 212.415387 36.841818 
L 212.429828 236.078182 
L 213.108571 36.841818 
L 213.123012 236.078182 
L 213.585135 36.841818 
L 213.599576 236.078182 
L 214.105023 36.841818 
L 214.119464 236.078182 
L 214.798206 36.841818 
L 214.812648 236.078182 
L 215.318094 36.841818 
L 215.332536 236.078182 
L 216.011278 36.841818 
L 216.025719 236.078182 
L 216.487842 36.841818 
L 216.502283 236.078182 
L 217.00773 36.841818 
L 217.022171 236.078182 
L 217.700913 36.841818 
L 217.715355 236.078182 
L 218.220801 36.841818 
L 218.235243 236.078182 
L 218.913985 36.841818 
L 218.928426 236.078182 
L 219.390549 36.841818 
L 219.40499 236.078182 
L 219.93932 36.841818 
L 219.953761 236.078182 
L 220.632503 36.841818 
L 220.646945 236.078182 
L 221.152391 36.841818 
L 221.166833 236.078182 
L 221.845575 36.841818 
L 221.860016 236.078182 
L 222.322139 36.841818 
L 222.33658 236.078182 
L 222.842027 36.841818 
L 222.856468 236.078182 
L 223.53521 36.841818 
L 223.549652 236.078182 
L 224.055098 36.841818 
L 224.06954 236.078182 
L 224.748282 36.841818 
L 224.762723 236.078182 
L 225.224846 36.841818 
L 225.239287 236.078182 
L 225.744734 36.841818 
L 225.759175 236.078182 
L 226.437918 36.841818 
L 226.452359 236.078182 
L 226.986688 36.841818 
L 227.00113 236.078182 
L 227.679872 36.841818 
L 227.694313 236.078182 
L 228.156436 36.841818 
L 228.170877 236.078182 
L 228.676324 36.841818 
L 228.690765 236.078182 
L 229.369507 36.841818 
L 229.383949 236.078182 
L 229.889395 36.841818 
L 229.903837 236.078182 
L 230.582579 36.841818 
L 230.59702 236.078182 
L 231.059143 36.841818 
L 231.073584 236.078182 
L 231.579031 36.841818 
L 231.593472 236.078182 
L 232.272215 36.841818 
L 232.286656 236.078182 
L 232.792103 36.841818 
L 232.806544 236.078182 
L 233.485286 36.841818 
L 233.499728 236.078182 
L 233.96185 36.841818 
L 233.976292 236.078182 
L 234.510621 36.841818 
L 234.525062 236.078182 
L 235.203804 36.841818 
L 235.218246 236.078182 
L 235.723692 36.841818 
L 235.738134 236.078182 
L 236.416876 36.841818 
L 236.431317 236.078182 
L 236.89344 36.841818 
L 236.907881 236.078182 
L 237.413328 36.841818 
L 237.427769 236.078182 
L 238.106512 36.841818 
L 238.120953 236.078182 
L 238.6264 36.841818 
L 238.640841 236.078182 
L 239.319583 36.841818 
L 239.334025 236.078182 
L 239.796147 36.841818 
L 239.810589 236.078182 
L 240.316035 36.841818 
L 240.330476 236.078182 
L 241.009219 36.841818 
L 241.02366 236.078182 
L 241.557989 36.841818 
L 241.572431 236.078182 
L 242.251173 36.841818 
L 242.265614 236.078182 
L 242.727737 36.841818 
L 242.742178 236.078182 
L 243.247625 36.841818 
L 243.262066 236.078182 
L 243.940809 36.841818 
L 243.95525 236.078182 
L 244.460697 36.841818 
L 244.475138 236.078182 
L 245.15388 36.841818 
L 245.168322 236.078182 
L 245.630444 36.841818 
L 245.644886 236.078182 
L 246.150332 36.841818 
L 246.164773 236.078182 
L 246.843516 36.841818 
L 246.857957 236.078182 
L 247.363404 36.841818 
L 247.377845 236.078182 
L 248.056587 36.841818 
L 248.071029 236.078182 
L 248.533151 36.841818 
L 248.547593 236.078182 
L 249.081922 36.841818 
L 249.096363 236.078182 
L 249.775106 36.841818 
L 249.789547 236.078182 
L 250.294994 36.841818 
L 250.309435 236.078182 
L 250.988177 36.841818 
L 251.002619 236.078182 
L 251.464741 36.841818 
L 251.479183 236.078182 
L 251.984629 36.841818 
L 251.99907 236.078182 
L 252.677813 36.841818 
L 252.692254 236.078182 
L 253.197701 36.841818 
L 253.212142 236.078182 
L 253.890884 36.841818 
L 253.905326 236.078182 
L 254.367448 36.841818 
L 254.38189 236.078182 
L 254.887336 36.841818 
L 254.901778 236.078182 
L 255.58052 36.841818 
L 255.594961 236.078182 
L 256.100408 36.841818 
L 256.114849 236.078182 
L 256.764709 36.841818 
L 256.77915 236.078182 
L 257.270156 36.841818 
L 257.284597 236.078182 
L 257.977781 36.841818 
L 257.992222 236.078182 
L 258.642082 36.841818 
L 258.656523 236.078182 
L 259.176411 36.841818 
L 259.190852 236.078182 
L 260.057332 36.841818 
L 260.071773 236.078182 
L 260.548337 36.841818 
L 260.562779 236.078182 
L 261.255962 36.841818 
L 261.270404 236.078182 
L 261.920264 36.841818 
L 261.934705 236.078182 
L 262.483475 36.841818 
L 262.497917 236.078182 
L 263.855402 36.841818 
L 263.869843 236.078182 
L 264.346407 36.841818 
L 264.360848 236.078182 
L 264.895177 36.841818 
L 264.909619 236.078182 
L 265.602802 36.841818 
L 265.617244 236.078182 
L 266.310428 36.841818 
L 266.324869 236.078182 
L 269.718581 36.841818 
L 269.733023 236.078182 
L 270.195145 36.841818 
L 270.209586 236.078182 
L 270.715033 36.841818 
L 270.729474 236.078182 
L 271.408217 36.841818 
L 271.422658 236.078182 
L 271.928105 36.841818 
L 271.942546 236.078182 
L 272.621288 36.841818 
L 272.63573 236.078182 
L 273.097852 36.841818 
L 273.112294 236.078182 
L 273.61774 36.841818 
L 273.632182 236.078182 
L 274.310924 36.841818 
L 274.325365 236.078182 
L 274.859695 36.841818 
L 274.874136 236.078182 
L 275.552878 36.841818 
L 275.56732 236.078182 
L 276.029442 36.841818 
L 276.043883 236.078182 
L 276.54933 36.841818 
L 276.563771 236.078182 
L 277.242514 36.841818 
L 277.256955 236.078182 
L 277.762402 36.841818 
L 277.776843 236.078182 
L 278.455585 36.841818 
L 278.470027 236.078182 
L 278.932149 36.841818 
L 278.946591 236.078182 
L 279.452037 36.841818 
L 279.466479 236.078182 
L 280.145221 36.841818 
L 280.159662 236.078182 
L 280.665109 36.841818 
L 280.67955 236.078182 
L 281.358293 36.841818 
L 281.372734 236.078182 
L 281.834857 36.841818 
L 281.849298 236.078182 
L 282.383627 36.841818 
L 282.398068 236.078182 
L 283.076811 36.841818 
L 283.091252 236.078182 
L 283.596699 36.841818 
L 283.61114 236.078182 
L 284.289882 36.841818 
L 284.304324 236.078182 
L 284.766446 36.841818 
L 284.780888 236.078182 
L 285.286334 36.841818 
L 285.300776 236.078182 
L 285.979518 36.841818 
L 285.993959 236.078182 
L 286.499406 36.841818 
L 286.513847 236.078182 
L 287.19259 36.841818 
L 287.207031 236.078182 
L 287.669154 36.841818 
L 287.683595 236.078182 
L 288.189041 36.841818 
L 288.203483 236.078182 
L 288.882225 36.841818 
L 288.896666 236.078182 
L 289.430996 36.841818 
L 289.445437 236.078182 
L 290.124179 36.841818 
L 290.138621 236.078182 
L 290.600743 36.841818 
L 290.615185 236.078182 
L 291.120631 36.841818 
L 291.135073 236.078182 
L 291.813815 36.841818 
L 291.828256 236.078182 
L 292.333703 36.841818 
L 292.348144 236.078182 
L 293.026887 36.841818 
L 293.041328 236.078182 
L 293.503451 36.841818 
L 293.517892 236.078182 
L 294.023338 36.841818 
L 294.03778 236.078182 
L 294.716522 36.841818 
L 294.730963 236.078182 
L 295.23641 36.841818 
L 295.250851 236.078182 
L 295.929594 36.841818 
L 295.944035 236.078182 
L 296.406158 36.841818 
L 296.420599 236.078182 
L 296.954928 36.841818 
L 296.96937 236.078182 
L 297.648112 36.841818 
L 297.662553 236.078182 
L 298.168 36.841818 
L 298.182441 236.078182 
L 298.861184 36.841818 
L 298.875625 236.078182 
L 299.337748 36.841818 
L 299.352189 236.078182 
L 299.857635 36.841818 
L 299.872077 236.078182 
L 300.550819 36.841818 
L 300.56526 236.078182 
L 301.070707 36.841818 
L 301.085148 236.078182 
L 301.763891 36.841818 
L 301.778332 236.078182 
L 302.240455 36.841818 
L 302.254896 236.078182 
L 302.760343 36.841818 
L 302.774784 236.078182 
L 303.453526 36.841818 
L 303.467968 236.078182 
L 304.002297 36.841818 
L 304.016738 236.078182 
L 304.695481 36.841818 
L 304.709922 236.078182 
L 305.172045 36.841818 
L 305.186486 236.078182 
L 305.691932 36.841818 
L 305.706374 236.078182 
L 306.385116 36.841818 
L 306.399557 236.078182 
L 306.905004 36.841818 
L 306.919445 236.078182 
L 307.598188 36.841818 
L 307.612629 236.078182 
L 308.074752 36.841818 
L 308.089193 236.078182 
L 308.59464 36.841818 
L 308.609081 236.078182 
L 309.287823 36.841818 
L 309.302265 236.078182 
L 309.807711 36.841818 
L 309.822153 236.078182 
L 310.500895 36.841818 
L 310.515336 236.078182 
L 310.977459 36.841818 
L 310.9919 236.078182 
L 311.526229 36.841818 
L 311.540671 236.078182 
L 312.219413 36.841818 
L 312.233854 236.078182 
L 312.739301 36.841818 
L 312.753742 236.078182 
L 313.432485 36.841818 
L 313.446926 236.078182 
L 313.909049 36.841818 
L 313.92349 236.078182 
L 314.428937 36.841818 
L 314.443378 236.078182 
L 315.12212 36.841818 
L 315.136562 236.078182 
L 315.642008 36.841818 
L 315.65645 236.078182 
L 316.335192 36.841818 
L 316.349633 236.078182 
L 316.811756 36.841818 
L 316.826197 236.078182 
L 317.331644 36.841818 
L 317.346085 236.078182 
L 318.024828 36.841818 
L 318.039269 236.078182 
L 318.573598 36.841818 
L 318.588039 236.078182 
L 319.266782 36.841818 
L 319.281223 236.078182 
L 319.743346 36.841818 
L 319.757787 236.078182 
L 320.263234 36.841818 
L 320.277675 236.078182 
L 320.956417 36.841818 
L 320.970859 236.078182 
L 321.476305 36.841818 
L 321.490747 236.078182 
L 322.169489 36.841818 
L 322.18393 236.078182 
L 322.646053 36.841818 
L 322.660494 236.078182 
L 323.165941 36.841818 
L 323.180382 236.078182 
L 323.859125 36.841818 
L 323.873566 236.078182 
L 324.379012 36.841818 
L 324.393454 236.078182 
L 325.072196 36.841818 
L 325.086637 236.078182 
L 325.54876 36.841818 
L 325.563201 236.078182 
L 326.097531 36.841818 
L 326.111972 236.078182 
L 326.790714 36.841818 
L 326.805156 236.078182 
L 327.310602 36.841818 
L 327.325044 236.078182 
L 328.003786 36.841818 
L 328.018227 236.078182 
L 328.48035 36.841818 
L 328.494791 236.078182 
L 329.000238 36.841818 
L 329.014679 236.078182 
L 329.693422 36.841818 
L 329.707863 236.078182 
L 330.213309 36.841818 
L 330.227751 236.078182 
L 330.906493 36.841818 
L 330.920934 236.078182 
L 331.383057 36.841818 
L 331.397498 236.078182 
L 331.902945 36.841818 
L 331.917386 236.078182 
L 332.596129 36.841818 
L 332.61057 236.078182 
L 333.144899 36.841818 
L 333.159341 236.078182 
L 333.838083 36.841818 
L 333.852524 236.078182 
L 334.314647 36.841818 
L 334.329088 236.078182 
L 334.834535 36.841818 
L 334.848976 236.078182 
L 335.527719 36.841818 
L 335.54216 236.078182 
L 336.047606 36.841818 
L 336.062048 236.078182 
L 336.74079 36.841818 
L 336.755231 236.078182 
L 337.217354 36.841818 
L 337.231795 236.078182 
L 337.737242 36.841818 
L 337.751683 236.078182 
L 338.430426 36.841818 
L 338.444867 236.078182 
L 338.950314 36.841818 
L 338.964755 236.078182 
L 339.643497 36.841818 
L 339.657939 236.078182 
L 340.120061 36.841818 
L 340.134503 236.078182 
L 340.668832 36.841818 
L 340.683273 236.078182 
L 341.362015 36.841818 
L 341.376457 236.078182 
L 341.881903 36.841818 
L 341.896345 236.078182 
L 342.575087 36.841818 
L 342.589528 236.078182 
L 343.051651 36.841818 
L 343.066092 236.078182 
L 343.571539 36.841818 
L 343.58598 236.078182 
L 344.264723 36.841818 
L 344.279164 236.078182 
L 344.784611 36.841818 
L 344.799052 236.078182 
L 345.477794 36.841818 
L 345.492236 236.078182 
L 345.954358 36.841818 
L 345.9688 236.078182 
L 346.474246 36.841818 
L 346.488687 236.078182 
L 347.16743 36.841818 
L 347.181871 236.078182 
L 347.7162 36.841818 
L 347.730642 236.078182 
L 348.409384 36.841818 
L 348.423825 236.078182 
L 348.885948 36.841818 
L 348.900389 236.078182 
L 349.405836 36.841818 
L 349.420277 236.078182 
L 350.09902 36.841818 
L 350.113461 236.078182 
L 350.618908 36.841818 
L 350.633349 236.078182 
L 351.312091 36.841818 
L 351.326533 236.078182 
L 351.788655 36.841818 
L 351.803097 236.078182 
L 352.308543 36.841818 
L 352.322984 236.078182 
L 353.001727 36.841818 
L 353.016168 236.078182 
L 353.521615 36.841818 
L 353.536056 236.078182 
L 354.214798 36.841818 
L 354.22924 236.078182 
L 354.691362 36.841818 
L 354.705804 236.078182 
L 355.240133 36.841818 
L 355.254574 236.078182 
L 355.933317 36.841818 
L 355.947758 236.078182 
L 356.453205 36.841818 
L 356.467646 236.078182 
L 357.146388 36.841818 
L 357.16083 236.078182 
L 357.622952 36.841818 
L 357.637394 236.078182 
L 358.14284 36.841818 
L 358.157281 236.078182 
L 358.836024 36.841818 
L 358.850465 236.078182 
L 359.355912 36.841818 
L 359.370353 236.078182 
L 360.077978 36.841818 
L 360.092419 236.078182 
L 360.554542 36.841818 
L 360.568983 236.078182 
L 361.07443 36.841818 
L 361.088871 236.078182 
L 361.767614 36.841818 
L 361.782055 236.078182 
L 362.316384 36.841818 
L 362.330826 236.078182 
L 363.009568 36.841818 
L 363.024009 236.078182 
L 363.486132 36.841818 
L 363.500573 236.078182 
L 364.00602 36.841818 
L 364.020461 236.078182 
L 364.699203 36.841818 
L 364.713645 236.078182 
L 365.219091 36.841818 
L 365.233533 236.078182 
L 365.912275 36.841818 
L 365.926716 236.078182 
L 366.388839 36.841818 
L 366.40328 236.078182 
L 366.908727 36.841818 
L 366.923168 236.078182 
L 367.630793 36.841818 
L 367.645235 236.078182 
L 368.150681 36.841818 
L 368.165123 236.078182 
L 368.843865 36.841818 
L 368.858306 236.078182 
L 369.320429 36.841818 
L 369.33487 236.078182 
L 369.869199 36.841818 
L 369.883641 236.078182 
L 370.562383 36.841818 
L 370.576824 236.078182 
L 371.082271 36.841818 
L 371.096712 236.078182 
L 371.775455 36.841818 
L 371.789896 236.078182 
L 372.252019 36.841818 
L 372.26646 236.078182 
L 372.771907 36.841818 
L 372.786348 236.078182 
L 373.46509 36.841818 
L 373.479532 236.078182 
L 373.984978 36.841818 
L 373.99942 236.078182 
L 374.707045 36.841818 
L 374.721486 236.078182 
L 375.183609 36.841818 
L 375.19805 236.078182 
L 375.703496 36.841818 
L 375.717938 236.078182 
L 376.39668 36.841818 
L 376.411121 236.078182 
L 376.945451 36.841818 
L 376.959892 236.078182 
L 377.638634 36.841818 
L 377.653076 236.078182 
L 378.115198 36.841818 
L 378.12964 236.078182 
L 378.635086 36.841818 
L 378.649528 236.078182 
L 379.32827 36.841818 
L 379.342711 236.078182 
L 379.848158 36.841818 
L 379.862599 236.078182 
L 380.541342 36.841818 
L 380.555783 236.078182 
L 381.017906 36.841818 
L 381.032347 236.078182 
L 381.537793 36.841818 
L 381.552235 236.078182 
L 382.25986 36.841818 
L 382.274301 236.078182 
L 382.779748 36.841818 
L 382.794189 236.078182 
L 383.472931 36.841818 
L 383.487373 236.078182 
L 383.949495 36.841818 
L 383.963937 236.078182 
L 384.498266 36.841818 
L 384.512707 236.078182 
L 385.19145 36.841818 
L 385.205891 236.078182 
L 385.711337 36.841818 
L 385.725779 236.078182 
L 386.404521 36.841818 
L 386.418963 236.078182 
L 386.881085 36.841818 
L 386.895526 236.078182 
L 387.400973 36.841818 
L 387.415414 236.078182 
L 388.094157 36.841818 
L 388.108598 236.078182 
L 388.614045 36.841818 
L 388.628486 236.078182 
L 389.336111 36.841818 
L 389.350552 236.078182 
L 389.812675 36.841818 
L 389.827116 236.078182 
L 390.332563 36.841818 
L 390.347004 236.078182 
L 391.025747 36.841818 
L 391.040188 236.078182 
L 391.574517 36.841818 
L 391.588958 236.078182 
L 392.267701 36.841818 
L 392.282142 236.078182 
L 392.744265 36.841818 
L 392.758706 236.078182 
L 393.264153 36.841818 
L 393.278594 236.078182 
L 393.957336 36.841818 
L 393.971778 236.078182 
L 394.477224 36.841818 
L 394.491666 236.078182 
L 395.170408 36.841818 
L 395.184849 236.078182 
L 395.646972 36.841818 
L 395.661413 236.078182 
L 396.16686 36.841818 
L 396.181301 236.078182 
L 396.888926 36.841818 
L 396.903368 236.078182 
L 397.408814 36.841818 
L 397.423255 236.078182 
L 398.101998 36.841818 
L 398.116439 236.078182 
L 398.578562 36.841818 
L 398.593003 236.078182 
L 399.127332 36.841818 
L 399.141774 236.078182 
L 399.820516 36.841818 
L 399.834957 236.078182 
L 400.340404 36.841818 
L 400.354845 236.078182 
L 401.033588 36.841818 
L 401.048029 236.078182 
L 401.510152 36.841818 
L 401.524593 236.078182 
L 402.030039 36.841818 
L 402.044481 236.078182 
L 402.723223 36.841818 
L 402.737665 236.078182 
L 403.243111 36.841818 
L 403.257552 236.078182 
L 403.965178 36.841818 
L 403.979619 236.078182 
L 404.441741 36.841818 
L 404.456183 236.078182 
L 404.961629 36.841818 
L 404.976071 236.078182 
L 405.654813 36.841818 
L 405.669254 236.078182 
L 406.203584 36.841818 
L 406.218025 236.078182 
L 406.896767 36.841818 
L 406.911209 236.078182 
L 407.373331 36.841818 
L 407.387773 236.078182 
L 407.893219 36.841818 
L 407.90766 236.078182 
L 408.586403 36.841818 
L 408.600844 236.078182 
L 409.106291 36.841818 
L 409.120732 236.078182 
L 409.799475 36.841818 
L 409.813916 236.078182 
L 410.276038 36.841818 
L 410.29048 236.078182 
L 410.795926 36.841818 
L 410.810368 236.078182 
L 411.517993 36.841818 
L 411.532434 236.078182 
L 412.037881 36.841818 
L 412.052322 236.078182 
L 412.731064 36.841818 
L 412.745506 236.078182 
L 413.207628 36.841818 
L 413.22207 236.078182 
L 413.756399 36.841818 
L 413.77084 236.078182 
L 414.449583 36.841818 
L 414.464024 236.078182 
L 414.96947 36.841818 
L 414.983912 236.078182 
L 415.662654 36.841818 
L 415.677096 236.078182 
L 416.139218 36.841818 
L 416.153659 236.078182 
L 416.659106 36.841818 
L 416.673547 236.078182 
L 417.35229 36.841818 
L 417.366731 236.078182 
L 417.872178 36.841818 
L 417.886619 236.078182 
L 418.594244 36.841818 
L 418.608685 236.078182 
L 419.070808 36.841818 
L 419.085249 236.078182 
L 419.590696 36.841818 
L 419.605137 236.078182 
L 420.28388 36.841818 
L 420.298321 236.078182 
L 420.83265 36.841818 
L 420.847091 236.078182 
L 421.525834 36.841818 
L 421.540275 236.078182 
L 422.002398 36.841818 
L 422.016839 236.078182 
L 422.522286 36.841818 
L 422.536727 236.078182 
L 423.215469 36.841818 
L 423.229911 236.078182 
L 423.735357 36.841818 
L 423.749799 236.078182 
L 424.428541 36.841818 
L 424.442982 236.078182 
L 424.905105 36.841818 
L 424.919546 236.078182 
L 425.424993 36.841818 
L 425.439434 236.078182 
L 426.147059 36.841818 
L 426.161501 236.078182 
L 426.666947 36.841818 
L 426.681388 236.078182 
L 427.360131 36.841818 
L 427.374572 236.078182 
L 427.836695 36.841818 
L 427.851136 236.078182 
L 428.385465 36.841818 
L 428.399907 236.078182 
L 429.078649 36.841818 
L 429.09309 236.078182 
L 429.598537 36.841818 
L 429.612978 236.078182 
L 430.291721 36.841818 
L 430.306162 236.078182 
L 430.768285 36.841818 
L 430.782726 236.078182 
L 431.288172 36.841818 
L 431.302614 236.078182 
L 431.981356 36.841818 
L 431.995798 236.078182 
L 432.501244 36.841818 
L 432.515685 236.078182 
L 433.223311 36.841818 
L 433.237752 236.078182 
L 433.699874 36.841818 
L 433.714316 236.078182 
L 434.219762 36.841818 
L 434.234204 236.078182 
L 434.912946 36.841818 
L 434.927387 236.078182 
L 435.461717 36.841818 
L 435.476158 236.078182 
L 436.1549 36.841818 
L 436.169342 236.078182 
L 436.631464 36.841818 
L 436.645906 236.078182 
L 437.151352 36.841818 
L 437.165793 236.078182 
L 437.844536 36.841818 
L 437.858977 236.078182 
L 438.364424 36.841818 
L 438.378865 236.078182 
L 439.057608 36.841818 
L 439.072049 236.078182 
L 439.534171 36.841818 
L 439.548613 236.078182 
L 440.054059 36.841818 
L 440.068501 236.078182 
L 440.776126 36.841818 
L 440.790567 236.078182 
L 441.296014 36.841818 
L 441.310455 236.078182 
L 441.989197 36.841818 
L 442.003639 236.078182 
L 442.465761 36.841818 
L 442.480203 236.078182 
L 443.014532 36.841818 
L 443.028973 236.078182 
L 443.707716 36.841818 
L 443.722157 236.078182 
L 444.227603 36.841818 
L 444.242045 236.078182 
L 444.920787 36.841818 
L 444.935229 236.078182 
L 445.397351 36.841818 
L 445.411792 236.078182 
L 445.917239 36.841818 
L 445.93168 236.078182 
L 446.610423 36.841818 
L 446.624864 236.078182 
L 447.130311 36.841818 
L 447.144752 236.078182 
L 447.852377 36.841818 
L 447.866818 236.078182 
L 448.328941 36.841818 
L 448.343382 236.078182 
L 448.848829 36.841818 
L 448.86327 236.078182 
L 449.542013 36.841818 
L 449.556454 236.078182 
L 450.090783 36.841818 
L 450.105224 236.078182 
L 450.783967 36.841818 
L 450.798408 236.078182 
L 451.260531 36.841818 
L 451.274972 236.078182 
L 451.780419 36.841818 
L 451.79486 236.078182 
L 452.473602 36.841818 
L 452.488044 236.078182 
L 452.99349 36.841818 
L 453.007932 236.078182 
L 453.686674 36.841818 
L 453.701115 236.078182 
L 454.163238 36.841818 
L 454.177679 236.078182 
L 454.683126 36.841818 
L 454.697567 236.078182 
L 455.405192 36.841818 
L 455.419634 236.078182 
L 455.92508 36.841818 
L 455.939521 236.078182 
L 456.618264 36.841818 
L 456.632705 236.078182 
L 457.094828 36.841818 
L 457.109269 236.078182 
L 457.643598 36.841818 
L 457.65804 236.078182 
L 458.336782 36.841818 
L 458.351223 236.078182 
L 458.85667 36.841818 
L 458.871111 236.078182 
L 459.549854 36.841818 
L 459.564295 236.078182 
L 460.026418 36.841818 
L 460.040859 236.078182 
L 460.546305 36.841818 
L 460.560747 236.078182 
L 461.239489 36.841818 
L 461.253931 236.078182 
L 461.759377 36.841818 
L 461.773818 236.078182 
L 462.481444 36.841818 
L 462.495885 236.078182 
L 462.958007 36.841818 
L 462.972449 236.078182 
L 463.477895 36.841818 
L 463.492337 236.078182 
L 464.171079 36.841818 
L 464.18552 236.078182 
L 464.71985 36.841818 
L 464.734291 236.078182 
L 465.413033 36.841818 
L 465.427475 236.078182 
L 465.889597 36.841818 
L 465.904039 236.078182 
L 466.409485 36.841818 
L 466.423926 236.078182 
L 467.102669 36.841818 
L 467.11711 236.078182 
L 467.622557 36.841818 
L 467.636998 236.078182 
L 468.315741 36.841818 
L 468.330182 236.078182 
L 468.792304 36.841818 
L 468.806746 236.078182 
L 469.312192 36.841818 
L 469.326634 236.078182 
L 470.034259 36.841818 
L 470.0487 236.078182 
L 470.554147 36.841818 
L 470.568588 236.078182 
L 471.24733 36.841818 
L 471.261772 236.078182 
L 471.723894 36.841818 
L 471.738336 236.078182 
L 472.272665 36.841818 
L 472.287106 236.078182 
L 472.965849 36.841818 
L 472.98029 236.078182 
L 473.485736 36.841818 
L 473.500178 236.078182 
L 474.17892 36.841818 
L 474.193362 236.078182 
L 474.655484 36.841818 
L 474.669925 236.078182 
L 475.175372 36.841818 
L 475.189813 236.078182 
L 475.868556 36.841818 
L 475.882997 236.078182 
L 476.388444 36.841818 
L 476.402885 236.078182 
L 477.081627 36.841818 
L 477.096069 236.078182 
L 477.558191 36.841818 
L 477.572633 236.078182 
L 478.078079 36.841818 
L 478.09252 236.078182 
L 478.771263 36.841818 
L 478.785704 236.078182 
L 479.320033 36.841818 
L 479.334475 236.078182 
L 480.013217 36.841818 
L 480.027659 236.078182 
L 480.489781 36.841818 
L 480.504222 236.078182 
L 481.009669 36.841818 
L 481.02411 236.078182 
L 481.702853 36.841818 
L 481.717294 236.078182 
L 482.222741 36.841818 
L 482.237182 236.078182 
L 482.915924 36.841818 
L 482.930366 236.078182 
L 483.392488 36.841818 
L 483.40693 236.078182 
L 483.912376 36.841818 
L 483.926817 236.078182 
L 484.60556 36.841818 
L 484.620001 236.078182 
L 485.125448 36.841818 
L 485.139889 236.078182 
L 485.818632 36.841818 
L 485.833073 236.078182 
L 486.295195 36.841818 
L 486.309637 236.078182 
L 486.843966 36.841818 
L 486.858407 236.078182 
L 487.53715 36.841818 
L 487.551591 236.078182 
L 488.057038 36.841818 
L 488.071479 236.078182 
L 488.750221 36.841818 
L 488.764663 236.078182 
L 489.226785 36.841818 
L 489.241227 236.078182 
L 489.746673 36.841818 
L 489.761114 236.078182 
L 490.439857 36.841818 
L 490.454298 236.078182 
L 490.959745 36.841818 
L 490.974186 236.078182 
L 491.652929 36.841818 
L 491.66737 236.078182 
L 492.129492 36.841818 
L 492.143934 236.078182 
L 492.64938 36.841818 
L 492.663822 236.078182 
L 493.342564 36.841818 
L 493.357005 236.078182 
L 493.891335 36.841818 
L 493.905776 236.078182 
L 494.584518 36.841818 
L 494.59896 236.078182 
L 495.061082 36.841818 
L 495.075524 236.078182 
L 495.58097 36.841818 
L 495.595411 236.078182 
L 496.274154 36.841818 
L 496.288595 236.078182 
L 496.794042 36.841818 
L 496.808483 236.078182 
L 497.487226 36.841818 
L 497.501667 236.078182 
L 497.963789 36.841818 
L 497.978231 236.078182 
L 498.483677 36.841818 
L 498.498119 236.078182 
L 499.176861 36.841818 
L 499.191302 236.078182 
L 499.696749 36.841818 
L 499.71119 236.078182 
L 500.389933 36.841818 
L 500.404374 236.078182 
L 500.866497 36.841818 
L 500.880938 236.078182 
L 501.415267 36.841818 
L 501.429708 236.078182 
L 502.108451 36.841818 
L 502.122892 236.078182 
L 502.628339 36.841818 
L 502.64278 236.078182 
L 503.321523 36.841818 
L 503.335964 236.078182 
L 503.798086 36.841818 
L 503.812528 236.078182 
L 504.317974 36.841818 
L 504.332416 236.078182 
L 505.011158 36.841818 
L 505.025599 236.078182 
L 505.531046 36.841818 
L 505.545487 236.078182 
L 506.22423 36.841818 
L 506.238671 236.078182 
L 506.700794 36.841818 
L 506.715235 236.078182 
L 507.220681 36.841818 
L 507.235123 236.078182 
L 507.913865 36.841818 
L 507.928307 236.078182 
L 508.462636 36.841818 
L 508.477077 236.078182 
L 509.15582 36.841818 
L 509.170261 236.078182 
L 509.632383 36.841818 
L 509.646825 236.078182 
L 510.152271 36.841818 
L 510.166713 236.078182 
L 510.845455 36.841818 
L 510.859896 236.078182 
L 511.365343 36.841818 
L 511.379784 236.078182 
L 512.058527 36.841818 
L 512.072968 236.078182 
L 512.535091 36.841818 
L 512.549532 236.078182 
L 513.054978 36.841818 
L 513.06942 236.078182 
L 513.748162 36.841818 
L 513.762604 236.078182 
L 514.26805 36.841818 
L 514.282491 236.078182 
L 514.961234 36.841818 
L 514.975675 236.078182 
L 515.437798 36.841818 
L 515.452239 236.078182 
L 515.986568 36.841818 
L 516.00101 236.078182 
L 516.679752 36.841818 
L 516.694193 236.078182 
L 517.19964 36.841818 
L 517.214081 236.078182 
L 517.892824 36.841818 
L 517.907265 236.078182 
L 518.369388 36.841818 
L 518.383829 236.078182 
L 518.889275 36.841818 
L 518.903717 236.078182 
L 519.582459 36.841818 
L 519.596901 236.078182 
L 520.102347 36.841818 
L 520.116788 236.078182 
L 520.795531 36.841818 
L 520.809972 236.078182 
L 521.272095 36.841818 
L 521.286536 236.078182 
L 521.791983 36.841818 
L 521.806424 236.078182 
L 522.485166 36.841818 
L 522.499608 236.078182 
L 523.033937 36.841818 
L 523.048378 236.078182 
L 523.727121 36.841818 
L 523.741562 236.078182 
L 524.203685 36.841818 
L 524.218126 236.078182 
L 524.723572 36.841818 
L 524.738014 236.078182 
L 525.416756 36.841818 
L 525.431198 236.078182 
L 525.936644 36.841818 
L 525.951085 236.078182 
L 526.629828 36.841818 
L 526.644269 236.078182 
L 527.106392 36.841818 
L 527.120833 236.078182 
L 527.62628 36.841818 
L 527.640721 236.078182 
L 528.319463 36.841818 
L 528.333905 236.078182 
L 528.839351 36.841818 
L 528.853793 236.078182 
L 529.532535 36.841818 
L 529.546976 236.078182 
L 530.009099 36.841818 
L 530.02354 236.078182 
L 530.557869 36.841818 
L 530.572311 236.078182 
L 531.251053 36.841818 
L 531.265495 236.078182 
L 531.770941 36.841818 
L 531.785382 236.078182 
L 532.464125 36.841818 
L 532.478566 236.078182 
L 532.940689 36.841818 
L 532.95513 236.078182 
L 533.460577 36.841818 
L 533.475018 236.078182 
L 534.15376 36.841818 
L 534.168202 236.078182 
L 534.673648 36.841818 
L 534.68809 236.078182 
L 535.366832 36.841818 
L 535.381273 236.078182 
L 535.843396 36.841818 
L 535.857837 236.078182 
L 536.363284 36.841818 
L 536.377725 236.078182 
L 537.056468 36.841818 
L 537.070909 236.078182 
L 537.605238 36.841818 
L 537.619679 236.078182 
L 538.298422 36.841818 
L 538.312863 236.078182 
L 538.774986 36.841818 
L 538.789427 236.078182 
L 539.294874 36.841818 
L 539.309315 236.078182 
L 539.988057 36.841818 
L 540.002499 236.078182 
L 540.507945 36.841818 
L 540.522387 236.078182 
L 541.201129 36.841818 
L 541.21557 236.078182 
L 541.677693 36.841818 
L 541.692134 236.078182 
L 542.197581 36.841818 
L 542.212022 236.078182 
L 542.890765 36.841818 
L 542.905206 236.078182 
L 543.410652 36.841818 
L 543.425094 236.078182 
L 544.103836 36.841818 
L 544.118278 236.078182 
L 544.5804 36.841818 
L 544.594841 236.078182 
L 545.129171 36.841818 
L 545.143612 236.078182 
L 545.822354 36.841818 
L 545.836796 236.078182 
L 546.342242 36.841818 
L 546.356684 236.078182 
L 547.035426 36.841818 
L 547.049867 236.078182 
L 547.51199 36.841818 
L 547.526431 236.078182 
L 548.031878 36.841818 
L 548.046319 236.078182 
L 548.725062 36.841818 
L 548.739503 236.078182 
L 549.244949 36.841818 
L 549.259391 236.078182 
L 549.938133 36.841818 
L 549.952575 236.078182 
L 550.414697 36.841818 
L 550.429138 236.078182 
L 550.934585 36.841818 
L 550.949026 236.078182 
L 551.627769 36.841818 
L 551.64221 236.078182 
L 552.176539 36.841818 
L 552.190981 236.078182 
L 552.869723 36.841818 
L 552.884164 236.078182 
L 553.346287 36.841818 
L 553.360728 236.078182 
L 553.866175 36.841818 
L 553.880616 236.078182 
L 554.559359 36.841818 
L 554.5738 236.078182 
L 555.079246 36.841818 
L 555.093688 236.078182 
L 555.77243 36.841818 
L 555.786872 236.078182 
L 556.248994 36.841818 
L 556.263435 236.078182 
L 556.768882 36.841818 
L 556.783323 236.078182 
L 557.462066 36.841818 
L 557.476507 236.078182 
L 557.981954 36.841818 
L 557.996395 236.078182 
L 558.675137 36.841818 
L 558.689579 236.078182 
L 559.151701 36.841818 
L 559.166143 236.078182 
L 559.700472 36.841818 
L 559.714913 236.078182 
L 560.393656 36.841818 
L 560.408097 236.078182 
L 560.913543 36.841818 
L 560.927985 236.078182 
L 561.606727 36.841818 
L 561.621169 236.078182 
L 562.083291 36.841818 
L 562.097732 236.078182 
L 562.603179 36.841818 
L 562.61762 236.078182 
L 563.296363 36.841818 
L 563.310804 236.078182 
L 563.816251 36.841818 
L 563.830692 236.078182 
L 564.509434 36.841818 
L 564.523876 236.078182 
L 564.985998 36.841818 
L 565.00044 236.078182 
L 565.505886 36.841818 
L 565.520327 236.078182 
L 566.19907 36.841818 
L 566.213511 236.078182 
L 566.74784 36.841818 
L 566.762282 236.078182 
L 567.441024 36.841818 
L 567.455466 236.078182 
L 567.917588 36.841818 
L 567.932029 236.078182 
L 568.437476 36.841818 
L 568.451917 236.078182 
L 569.13066 36.841818 
L 569.145101 236.078182 
L 569.650548 36.841818 
L 569.664989 236.078182 
L 570.343731 36.841818 
L 570.358173 236.078182 
L 570.820295 36.841818 
L 570.834737 236.078182 
L 571.340183 36.841818 
L 571.354624 236.078182 
L 572.033367 36.841818 
L 572.047808 236.078182 
L 572.553255 36.841818 
L 572.567696 236.078182 
L 573.246439 36.841818 
L 573.26088 236.078182 
L 573.723002 36.841818 
L 573.737444 236.078182 
L 574.271773 36.841818 
L 574.286214 236.078182 
L 574.964957 36.841818 
L 574.979398 236.078182 
L 575.484845 36.841818 
L 575.499286 236.078182 
L 576.178028 36.841818 
L 576.19247 236.078182 
L 576.654592 36.841818 
L 576.669034 236.078182 
L 577.17448 36.841818 
L 577.188921 236.078182 
L 577.867664 36.841818 
L 577.882105 236.078182 
L 578.387552 36.841818 
L 578.401993 236.078182 
L 579.080736 36.841818 
L 579.095177 236.078182 
L 579.557299 36.841818 
L 579.571741 236.078182 
L 580.077187 36.841818 
L 580.091629 236.078182 
L 580.770371 36.841818 
L 580.784812 236.078182 
L 581.319142 36.841818 
L 581.333583 236.078182 
L 582.012325 36.841818 
L 582.026767 236.078182 
L 582.488889 36.841818 
L 582.503331 236.078182 
L 583.008777 36.841818 
L 583.023218 236.078182 
L 583.701961 36.841818 
L 583.716402 236.078182 
L 584.221849 36.841818 
L 584.23629 236.078182 
L 584.915033 36.841818 
L 584.929474 236.078182 
L 585.391596 36.841818 
L 585.406038 236.078182 
L 585.911484 36.841818 
L 585.925926 236.078182 
L 586.604668 36.841818 
L 586.619109 236.078182 
L 587.124556 36.841818 
L 587.138997 236.078182 
L 587.81774 36.841818 
L 587.832181 236.078182 
L 588.294304 36.841818 
L 588.308745 236.078182 
L 588.843074 36.841818 
L 588.857515 236.078182 
L 589.536258 36.841818 
L 589.550699 236.078182 
L 590.056146 36.841818 
L 590.070587 236.078182 
L 590.74933 36.841818 
L 590.763771 236.078182 
L 591.225893 36.841818 
L 591.240335 236.078182 
L 591.745781 36.841818 
L 591.760223 236.078182 
L 592.438965 36.841818 
L 592.453406 236.078182 
L 592.958853 36.841818 
L 592.973294 236.078182 
L 593.652037 36.841818 
L 593.666478 236.078182 
L 594.128601 36.841818 
L 594.143042 236.078182 
L 594.648488 36.841818 
L 594.66293 236.078182 
L 595.341672 36.841818 
L 595.356114 236.078182 
L 595.890443 36.841818 
L 595.904884 236.078182 
L 596.583627 36.841818 
L 596.598068 236.078182 
L 597.06019 36.841818 
L 597.074632 236.078182 
L 597.580078 36.841818 
L 597.59452 236.078182 
L 598.273262 36.841818 
L 598.287703 236.078182 
L 598.79315 36.841818 
L 598.807591 236.078182 
L 599.486334 36.841818 
L 599.500775 236.078182 
L 599.962898 36.841818 
L 599.977339 236.078182 
L 600.482785 36.841818 
L 600.497227 236.078182 
L 601.175969 36.841818 
L 601.190411 236.078182 
L 601.695857 36.841818 
L 601.710298 236.078182 
L 602.389041 36.841818 
L 602.403482 236.078182 
L 602.865605 36.841818 
L 602.880046 236.078182 
L 603.414375 36.841818 
L 603.428817 236.078182 
L 604.107559 36.841818 
L 604.122 236.078182 
L 604.627447 36.841818 
L 604.641888 236.078182 
L 605.320631 36.841818 
L 605.335072 236.078182 
L 605.797195 36.841818 
L 605.811636 236.078182 
L 606.317082 36.841818 
L 606.331524 236.078182 
L 607.010266 36.841818 
L 607.024708 236.078182 
L 607.530154 36.841818 
L 607.544595 236.078182 
L 608.223338 36.841818 
L 608.237779 236.078182 
L 608.699902 36.841818 
L 608.714343 236.078182 
L 609.21979 36.841818 
L 609.234231 236.078182 
L 609.912973 36.841818 
L 609.927415 236.078182 
L 610.432861 36.841818 
L 610.447303 236.078182 
L 611.097162 36.841818 
L 611.111604 236.078182 
L 611.602609 36.841818 
L 611.61705 236.078182 
L 612.310234 36.841818 
L 612.324675 236.078182 
L 612.974535 36.841818 
L 612.988977 236.078182 
L 613.508864 36.841818 
L 613.523306 236.078182 
L 614.389785 36.841818 
L 614.404227 236.078182 
L 614.880791 36.841818 
L 614.895232 236.078182 
L 615.588416 103.427837 
L 615.63174 234.902687 
L 616.079421 170.667657 
L 616.093862 236.078182 
L 616.772605 36.841818 
L 616.787046 236.078182 
L 617.306934 36.841818 
L 617.321375 236.078182 
L 618.043442 36.841818 
L 618.057883 236.078182 
L 618.707743 36.841818 
L 618.722184 236.078182 
L 619.227631 36.841818 
L 619.242072 236.078182 
L 619.935256 36.841818 
L 619.949697 236.078182 
L 620.642881 36.841818 
L 620.657322 236.078182 
L 621.552685 103.419916 
L 621.61045 236.058258 
L 621.711539 236.010441 
L 621.783746 235.30116 
L 622.361399 234.844756 
L 622.419165 236.058258 
L 622.520254 236.010441 
L 622.59246 235.699633 
L 623.227879 234.525978 
L 623.285644 236.058258 
L 623.386734 236.010441 
L 623.45894 234.86284 
L 624.051035 174.919619 
L 624.065476 236.078182 
L 624.527599 36.841818 
L 624.54204 236.078182 
L 625.047486 36.841818 
L 625.061928 236.078182 
L 625.74067 36.841818 
L 625.755112 236.078182 
L 626.260558 36.841818 
L 626.274999 236.078182 
L 626.953742 36.841818 
L 626.968183 236.078182 
L 627.430306 36.841818 
L 627.444747 236.078182 
L 627.950194 36.841818 
L 627.964635 236.078182 
L 628.643377 36.841818 
L 628.657819 236.078182 
L 629.192148 36.841818 
L 629.206589 236.078182 
L 629.885332 36.841818 
L 629.899773 236.078182 
L 630.361896 36.841818 
L 630.376337 236.078182 
L 630.881783 36.841818 
L 630.896225 236.078182 
L 631.574967 36.841818 
L 631.589409 236.078182 
L 632.094855 36.841818 
L 632.109296 236.078182 
L 632.788039 36.841818 
L 632.80248 236.078182 
L 633.264603 36.841818 
L 633.279044 236.078182 
L 633.784491 36.841818 
L 633.798932 236.078182 
L 634.477674 36.841818 
L 634.492116 236.078182 
L 634.997562 36.841818 
L 635.012004 236.078182 
L 635.690746 36.841818 
L 635.705187 236.078182 
L 636.16731 36.841818 
L 636.181751 236.078182 
L 636.71608 36.841818 
L 636.730522 236.078182 
L 637.409264 36.841818 
L 637.423706 236.078182 
L 637.929152 36.841818 
L 637.943593 236.078182 
L 638.622336 36.841818 
L 638.636777 236.078182 
L 639.0989 36.841818 
L 639.113341 236.078182 
L 639.618788 36.841818 
L 639.633229 236.078182 
L 640.311971 36.841818 
L 640.326413 236.078182 
L 640.831859 36.841818 
L 640.846301 236.078182 
L 641.525043 36.841818 
L 641.539484 236.078182 
L 642.001607 36.841818 
L 642.016048 236.078182 
L 642.521495 36.841818 
L 642.535936 236.078182 
L 643.214679 36.841818 
L 643.22912 236.078182 
L 643.763449 36.841818 
L 643.77789 236.078182 
L 644.456633 36.841818 
L 644.471074 236.078182 
L 644.933197 36.841818 
L 644.947638 236.078182 
L 645.453085 36.841818 
L 645.467526 236.078182 
L 646.146268 36.841818 
L 646.16071 236.078182 
L 646.666156 36.841818 
L 646.680598 236.078182 
L 647.35934 36.841818 
L 647.373781 236.078182 
L 647.835904 36.841818 
L 647.850345 236.078182 
L 648.355792 36.841818 
L 648.370233 236.078182 
L 649.048976 36.841818 
L 649.063417 236.078182 
L 649.568863 36.841818 
L 649.583305 236.078182 
L 650.262047 36.841818 
L 650.276489 236.078182 
L 650.738611 36.841818 
L 650.753052 236.078182 
L 651.287382 36.841818 
L 651.301823 236.078182 
L 651.980565 36.841818 
L 651.995007 236.078182 
L 652.500453 36.841818 
L 652.514895 236.078182 
L 653.193637 36.841818 
L 653.208078 236.078182 
L 653.670201 36.841818 
L 653.684642 236.078182 
L 654.190089 36.841818 
L 654.20453 236.078182 
L 654.883273 36.841818 
L 654.897714 236.078182 
L 655.40316 36.841818 
L 655.417602 236.078182 
L 656.096344 36.841818 
L 656.110786 236.078182 
L 656.572908 36.841818 
L 656.587349 236.078182 
L 657.092796 36.841818 
L 657.107237 236.078182 
L 657.78598 36.841818 
L 657.800421 236.078182 
L 658.33475 36.841818 
L 658.349192 236.078182 
L 659.027934 36.841818 
L 659.042375 236.078182 
L 659.504498 36.841818 
L 659.518939 236.078182 
L 660.024386 36.841818 
L 660.038827 236.078182 
L 660.71757 36.841818 
L 660.732011 236.078182 
L 661.237457 36.841818 
L 661.251899 236.078182 
L 661.930641 36.841818 
L 661.945083 236.078182 
L 662.407205 36.841818 
L 662.421646 236.078182 
L 662.927093 36.841818 
L 662.941534 236.078182 
L 663.620277 36.841818 
L 663.634718 236.078182 
L 664.140165 36.841818 
L 664.154606 236.078182 
L 664.833348 36.841818 
L 664.84779 236.078182 
L 665.309912 36.841818 
L 665.324354 236.078182 
L 665.858683 36.841818 
L 665.873124 236.078182 
L 666.551867 36.841818 
L 666.566308 236.078182 
L 667.071754 36.841818 
L 667.086196 236.078182 
L 667.764938 36.841818 
L 667.77938 236.078182 
L 668.241502 36.841818 
L 668.255943 236.078182 
L 668.76139 36.841818 
L 668.775831 236.078182 
L 669.454574 36.841818 
L 669.469015 236.078182 
L 669.974462 36.841818 
L 669.988903 236.078182 
L 670.667645 36.841818 
L 670.682087 236.078182 
L 671.144209 36.841818 
L 671.158651 236.078182 
L 671.664097 36.841818 
L 671.678538 236.078182 
L 672.357281 36.841818 
L 672.371722 236.078182 
L 672.906051 36.841818 
L 672.920493 236.078182 
L 673.599235 36.841818 
L 673.613677 236.078182 
L 674.075799 36.841818 
L 674.09024 236.078182 
L 674.595687 36.841818 
L 674.610128 236.078182 
L 675.288871 36.841818 
L 675.303312 236.078182 
L 675.808759 36.841818 
L 675.8232 236.078182 
L 676.501942 36.841818 
L 676.516384 236.078182 
L 676.978506 36.841818 
L 676.992948 236.078182 
L 677.498394 36.841818 
L 677.512835 236.078182 
L 678.191578 36.841818 
L 678.206019 236.078182 
L 678.711466 36.841818 
L 678.725907 236.078182 
L 679.40465 36.841818 
L 679.419091 236.078182 
L 679.419091 236.078182 
" clip-path="url(#p30dd6fef5f)" style="fill: none; stroke: #1f77b4; stroke-width: 1.5; stroke-linecap: square"/>
   </g>
   <g id="patch_3">
    <path d="M 54.02 246.04 
L 54.02 26.88 
" style="fill: none; stroke: #000000; stroke-width: 0.8; stroke-linejoin: miter; stroke-linecap: square"/>
   </g>
   <g id="patch_4">
    <path d="M 709.2 246.04 
L 709.2 26.88 
" style="fill: none; stroke: #000000; stroke-width: 0.8; stroke-linejoin: miter; stroke-linecap: square"/>
   </g>
   <g id="patch_5">
    <path d="M 54.02 246.04 
L 709.2 246.04 
" style="fill: none; stroke: #000000; stroke-width: 0.8; stroke-linejoin: miter; stroke-linecap: square"/>
   </g>
   <g id="patch_6">
    <path d="M 54.02 26.88 
L 709.2 26.88 
" style="fill: none; stroke: #000000; stroke-width: 0.8; stroke-linejoin: miter; stroke-linecap: square"/>
   </g>
   <g id="text_14">
    <!-- backoffActive:vector (HandoverShowcase.ap1.wlan[0].mac.dcf.channelAccess.contention) -->
    <g transform="translate(111.007188 20.88) scale(0.12 -0.12)">
     <defs>
      <path id="DejaVuSans-62" d="M 3116 1747 
Q 3116 2381 2855 2742 
Q 2594 3103 2138 3103 
Q 1681 3103 1420 2742 
Q 1159 2381 1159 1747 
Q 1159 1113 1420 752 
Q 1681 391 2138 391 
Q 2594 391 2855 752 
Q 3116 1113 3116 1747 
z
M 1159 2969 
Q 1341 3281 1617 3432 
Q 1894 3584 2278 3584 
Q 2916 3584 3314 3078 
Q 3713 2572 3713 1747 
Q 3713 922 3314 415 
Q 2916 -91 2278 -91 
Q 1894 -91 1617 61 
Q 1341 213 1159 525 
L 1159 0 
L 581 0 
L 581 4863 
L 1159 4863 
L 1159 2969 
z
" transform="scale(0.015625)"/>
      <path id="DejaVuSans-63" d="M 3122 3366 
L 3122 2828 
Q 2878 2963 2633 3030 
Q 2388 3097 2138 3097 
Q 1578 3097 1268 2742 
Q 959 2388 959 1747 
Q 959 1106 1268 751 
Q 1578 397 2138 397 
Q 2388 397 2633 464 
Q 2878 531 3122 666 
L 3122 134 
Q 2881 22 2623 -34 
Q 2366 -91 2075 -91 
Q 1284 -91 818 406 
Q 353 903 353 1747 
Q 353 2603 823 3093 
Q 1294 3584 2113 3584 
Q 2378 3584 2631 3529 
Q 2884 3475 3122 3366 
z
" transform="scale(0.015625)"/>
      <path id="DejaVuSans-6b" d="M 581 4863 
L 1159 4863 
L 1159 1991 
L 2875 3500 
L 3609 3500 
L 1753 1863 
L 3688 0 
L 2938 0 
L 1159 1709 
L 1159 0 
L 581 0 
L 581 4863 
z
" transform="scale(0.015625)"/>
      <path id="DejaVuSans-6f" d="M 1959 3097 
Q 1497 3097 1228 2736 
Q 959 2375 959 1747 
Q 959 1119 1226 758 
Q 1494 397 1959 397 
Q 2419 397 2687 759 
Q 2956 1122 2956 1747 
Q 2956 2369 2687 2733 
Q 2419 3097 1959 3097 
z
M 1959 3584 
Q 2709 3584 3137 3096 
Q 3566 2609 3566 1747 
Q 3566 888 3137 398 
Q 2709 -91 1959 -91 
Q 1206 -91 779 398 
Q 353 888 353 1747 
Q 353 2609 779 3096 
Q 1206 3584 1959 3584 
z
" transform="scale(0.015625)"/>
      <path id="DejaVuSans-66" d="M 2375 4863 
L 2375 4384 
L 1825 4384 
Q 1516 4384 1395 4259 
Q 1275 4134 1275 3809 
L 1275 3500 
L 2222 3500 
L 2222 3053 
L 1275 3053 
L 1275 0 
L 697 0 
L 697 3053 
L 147 3053 
L 147 3500 
L 697 3500 
L 697 3744 
Q 697 4328 969 4595 
Q 1241 4863 1831 4863 
L 2375 4863 
z
" transform="scale(0.015625)"/>
      <path id="DejaVuSans-41" d="M 2188 4044 
L 1331 1722 
L 3047 1722 
L 2188 4044 
z
M 1831 4666 
L 2547 4666 
L 4325 0 
L 3669 0 
L 3244 1197 
L 1141 1197 
L 716 0 
L 50 0 
L 1831 4666 
z
" transform="scale(0.015625)"/>
      <path id="DejaVuSans-76" d="M 191 3500 
L 800 3500 
L 1894 563 
L 2988 3500 
L 3597 3500 
L 2284 0 
L 1503 0 
L 191 3500 
z
" transform="scale(0.015625)"/>
      <path id="DejaVuSans-3a" d="M 750 794 
L 1409 794 
L 1409 0 
L 750 0 
L 750 794 
z
M 750 3309 
L 1409 3309 
L 1409 2516 
L 750 2516 
L 750 3309 
z
" transform="scale(0.015625)"/>
      <path id="DejaVuSans-72" d="M 2631 2963 
Q 2534 3019 2420 3045 
Q 2306 3072 2169 3072 
Q 1681 3072 1420 2755 
Q 1159 2438 1159 1844 
L 1159 0 
L 581 0 
L 581 3500 
L 1159 3500 
L 1159 2956 
Q 1341 3275 1631 3429 
Q 1922 3584 2338 3584 
Q 2397 3584 2469 3576 
Q 2541 3569 2628 3553 
L 2631 2963 
z
" transform="scale(0.015625)"/>
      <path id="DejaVuSans-48" d="M 628 4666 
L 1259 4666 
L 1259 2753 
L 3553 2753 
L 3553 4666 
L 4184 4666 
L 4184 0 
L 3553 0 
L 3553 2222 
L 1259 2222 
L 1259 0 
L 628 0 
L 628 4666 
z
" transform="scale(0.015625)"/>
      <path id="DejaVuSans-6e" d="M 3513 2113 
L 3513 0 
L 2938 0 
L 2938 2094 
Q 2938 2591 2744 2837 
Q 2550 3084 2163 3084 
Q 1697 3084 1428 2787 
Q 1159 2491 1159 1978 
L 1159 0 
L 581 0 
L 581 3500 
L 1159 3500 
L 1159 2956 
Q 1366 3272 1645 3428 
Q 1925 3584 2291 3584 
Q 2894 3584 3203 3211 
Q 3513 2838 3513 2113 
z
" transform="scale(0.015625)"/>
      <path id="DejaVuSans-64" d="M 2906 2969 
L 2906 4863 
L 3481 4863 
L 3481 0 
L 2906 0 
L 2906 525 
Q 2725 213 2448 61 
Q 2172 -91 1784 -91 
Q 1150 -91 751 415 
Q 353 922 353 1747 
Q 353 2572 751 3078 
Q 1150 3584 1784 3584 
Q 2172 3584 2448 3432 
Q 2725 3281 2906 2969 
z
M 947 1747 
Q 947 1113 1208 752 
Q 1469 391 1925 391 
Q 2381 391 2643 752 
Q 2906 1113 2906 1747 
Q 2906 2381 2643 2742 
Q 2381 3103 1925 3103 
Q 1469 3103 1208 2742 
Q 947 2381 947 1747 
z
" transform="scale(0.015625)"/>
      <path id="DejaVuSans-53" d="M 3425 4513 
L 3425 3897 
Q 3066 4069 2747 4153 
Q 2428 4238 2131 4238 
Q 1616 4238 1336 4038 
Q 1056 3838 1056 3469 
Q 1056 3159 1242 3001 
Q 1428 2844 1947 2747 
L 2328 2669 
Q 3034 2534 3370 2195 
Q 3706 1856 3706 1288 
Q 3706 609 3251 259 
Q 2797 -91 1919 -91 
Q 1588 -91 1214 -16 
Q 841 59 441 206 
L 441 856 
Q 825 641 1194 531 
Q 1563 422 1919 422 
Q 2459 422 2753 634 
Q 3047 847 3047 1241 
Q 3047 1584 2836 1778 
Q 2625 1972 2144 2069 
L 1759 2144 
Q 1053 2284 737 2584 
Q 422 2884 422 3419 
Q 422 4038 858 4394 
Q 1294 4750 2059 4750 
Q 2388 4750 2728 4690 
Q 3069 4631 3425 4513 
z
" transform="scale(0.015625)"/>
      <path id="DejaVuSans-68" d="M 3513 2113 
L 3513 0 
L 2938 0 
L 2938 2094 
Q 2938 2591 2744 2837 
Q 2550 3084 2163 3084 
Q 1697 3084 1428 2787 
Q 1159 2491 1159 1978 
L 1159 0 
L 581 0 
L 581 4863 
L 1159 4863 
L 1159 2956 
Q 1366 3272 1645 3428 
Q 1925 3584 2291 3584 
Q 2894 3584 3203 3211 
Q 3513 2838 3513 2113 
z
" transform="scale(0.015625)"/>
      <path id="DejaVuSans-77" d="M 269 3500 
L 844 3500 
L 1563 769 
L 2278 3500 
L 2956 3500 
L 3675 769 
L 4391 3500 
L 4966 3500 
L 4050 0 
L 3372 0 
L 2619 2869 
L 1863 0 
L 1184 0 
L 269 3500 
z
" transform="scale(0.015625)"/>
      <path id="DejaVuSans-70" d="M 1159 525 
L 1159 -1331 
L 581 -1331 
L 581 3500 
L 1159 3500 
L 1159 2969 
Q 1341 3281 1617 3432 
Q 1894 3584 2278 3584 
Q 2916 3584 3314 3078 
Q 3713 2572 3713 1747 
Q 3713 922 3314 415 
Q 2916 -91 2278 -91 
Q 1894 -91 1617 61 
Q 1341 213 1159 525 
z
M 3116 1747 
Q 3116 2381 2855 2742 
Q 2594 3103 2138 3103 
Q 1681 3103 1420 2742 
Q 1159 2381 1159 1747 
Q 1159 1113 1420 752 
Q 1681 391 2138 391 
Q 2594 391 2855 752 
Q 3116 1113 3116 1747 
z
" transform="scale(0.015625)"/>
      <path id="DejaVuSans-5b" d="M 550 4863 
L 1875 4863 
L 1875 4416 
L 1125 4416 
L 1125 -397 
L 1875 -397 
L 1875 -844 
L 550 -844 
L 550 4863 
z
" transform="scale(0.015625)"/>
      <path id="DejaVuSans-5d" d="M 1947 4863 
L 1947 -844 
L 622 -844 
L 622 -397 
L 1369 -397 
L 1369 4416 
L 622 4416 
L 622 4863 
L 1947 4863 
z
" transform="scale(0.015625)"/>
     </defs>
     <use xlink:href="#DejaVuSans-62"/>
     <use xlink:href="#DejaVuSans-61" x="63.476562"/>
     <use xlink:href="#DejaVuSans-63" x="124.755859"/>
     <use xlink:href="#DejaVuSans-6b" x="179.736328"/>
     <use xlink:href="#DejaVuSans-6f" x="234.021484"/>
     <use xlink:href="#DejaVuSans-66" x="295.203125"/>
     <use xlink:href="#DejaVuSans-66" x="330.408203"/>
     <use xlink:href="#DejaVuSans-41" x="365.613281"/>
     <use xlink:href="#DejaVuSans-63" x="432.271484"/>
     <use xlink:href="#DejaVuSans-74" x="487.251953"/>
     <use xlink:href="#DejaVuSans-69" x="526.460938"/>
     <use xlink:href="#DejaVuSans-76" x="554.244141"/>
     <use xlink:href="#DejaVuSans-65" x="613.423828"/>
     <use xlink:href="#DejaVuSans-3a" x="674.947266"/>
     <use xlink:href="#DejaVuSans-76" x="708.638672"/>
     <use xlink:href="#DejaVuSans-65" x="767.818359"/>
     <use xlink:href="#DejaVuSans-63" x="829.341797"/>
     <use xlink:href="#DejaVuSans-74" x="884.322266"/>
     <use xlink:href="#DejaVuSans-6f" x="923.53125"/>
     <use xlink:href="#DejaVuSans-72" x="984.712891"/>
     <use xlink:href="#DejaVuSans-20" x="1025.826172"/>
     <use xlink:href="#DejaVuSans-28" x="1057.613281"/>
     <use xlink:href="#DejaVuSans-48" x="1096.626953"/>
     <use xlink:href="#DejaVuSans-61" x="1171.822266"/>
     <use xlink:href="#DejaVuSans-6e" x="1233.101562"/>
     <use xlink:href="#DejaVuSans-64" x="1296.480469"/>
     <use xlink:href="#DejaVuSans-6f" x="1359.957031"/>
     <use xlink:href="#DejaVuSans-76" x="1421.138672"/>
     <use xlink:href="#DejaVuSans-65" x="1480.318359"/>
     <use xlink:href="#DejaVuSans-72" x="1541.841797"/>
     <use xlink:href="#DejaVuSans-53" x="1582.955078"/>
     <use xlink:href="#DejaVuSans-68" x="1646.431641"/>
     <use xlink:href="#DejaVuSans-6f" x="1709.810547"/>
     <use xlink:href="#DejaVuSans-77" x="1770.992188"/>
     <use xlink:href="#DejaVuSans-63" x="1852.779297"/>
     <use xlink:href="#DejaVuSans-61" x="1907.759766"/>
     <use xlink:href="#DejaVuSans-73" x="1969.039062"/>
     <use xlink:href="#DejaVuSans-65" x="2021.138672"/>
     <use xlink:href="#DejaVuSans-2e" x="2082.662109"/>
     <use xlink:href="#DejaVuSans-61" x="2114.449219"/>
     <use xlink:href="#DejaVuSans-70" x="2175.728516"/>
     <use xlink:href="#DejaVuSans-31" x="2239.205078"/>
     <use xlink:href="#DejaVuSans-2e" x="2302.828125"/>
     <use xlink:href="#DejaVuSans-77" x="2334.615234"/>
     <use xlink:href="#DejaVuSans-6c" x="2416.402344"/>
     <use xlink:href="#DejaVuSans-61" x="2444.185547"/>
     <use xlink:href="#DejaVuSans-6e" x="2505.464844"/>
     <use xlink:href="#DejaVuSans-5b" x="2568.84375"/>
     <use xlink:href="#DejaVuSans-30" x="2607.857422"/>
     <use xlink:href="#DejaVuSans-5d" x="2671.480469"/>
     <use xlink:href="#DejaVuSans-2e" x="2710.494141"/>
     <use xlink:href="#DejaVuSans-6d" x="2742.28125"/>
     <use xlink:href="#DejaVuSans-61" x="2839.693359"/>
     <use xlink:href="#DejaVuSans-63" x="2900.972656"/>
     <use xlink:href="#DejaVuSans-2e" x="2955.953125"/>
     <use xlink:href="#DejaVuSans-64" x="2987.740234"/>
     <use xlink:href="#DejaVuSans-63" x="3051.216797"/>
     <use xlink:href="#DejaVuSans-66" x="3106.197266"/>
     <use xlink:href="#DejaVuSans-2e" x="3134.152344"/>
     <use xlink:href="#DejaVuSans-63" x="3165.939453"/>
     <use xlink:href="#DejaVuSans-68" x="3220.919922"/>
     <use xlink:href="#DejaVuSans-61" x="3284.298828"/>
     <use xlink:href="#DejaVuSans-6e" x="3345.578125"/>
     <use xlink:href="#DejaVuSans-6e" x="3408.957031"/>
     <use xlink:href="#DejaVuSans-65" x="3472.335938"/>
     <use xlink:href="#DejaVuSans-6c" x="3533.859375"/>
     <use xlink:href="#DejaVuSans-41" x="3561.642578"/>
     <use xlink:href="#DejaVuSans-63" x="3628.300781"/>
     <use xlink:href="#DejaVuSans-63" x="3683.28125"/>
     <use xlink:href="#DejaVuSans-65" x="3738.261719"/>
     <use xlink:href="#DejaVuSans-73" x="3799.785156"/>
     <use xlink:href="#DejaVuSans-73" x="3851.884766"/>
     <use xlink:href="#DejaVuSans-2e" x="3903.984375"/>
     <use xlink:href="#DejaVuSans-63" x="3935.771484"/>
     <use xlink:href="#DejaVuSans-6f" x="3990.751953"/>
     <use xlink:href="#DejaVuSans-6e" x="4051.933594"/>
     <use xlink:href="#DejaVuSans-74" x="4115.3125"/>
     <use xlink:href="#DejaVuSans-65" x="4154.521484"/>
     <use xlink:href="#DejaVuSans-6e" x="4216.044922"/>
     <use xlink:href="#DejaVuSans-74" x="4279.423828"/>
     <use xlink:href="#DejaVuSans-69" x="4318.632812"/>
     <use xlink:href="#DejaVuSans-6f" x="4346.416016"/>
     <use xlink:href="#DejaVuSans-6e" x="4407.597656"/>
     <use xlink:href="#DejaVuSans-29" x="4470.976562"/>
    </g>
   </g>
   <g id="legend_1">
    <g id="patch_7">
     <path d="M 576.717187 145.299062 
L 702.2 145.299062 
Q 704.2 145.299062 704.2 143.299062 
L 704.2 129.620937 
Q 704.2 127.620937 702.2 127.620937 
L 576.717187 127.620937 
Q 574.717187 127.620937 574.717187 129.620937 
L 574.717187 143.299062 
Q 574.717187 145.299062 576.717187 145.299062 
z
" style="fill: #ffffff; opacity: 0.8; stroke: #cccccc; stroke-linejoin: miter"/>
    </g>
    <g id="line2d_24">
     <path d="M 578.717187 135.719375 
L 588.717187 135.719375 
L 598.717187 135.719375 
" style="fill: none; stroke: #1f77b4; stroke-width: 1.5; stroke-linecap: square"/>
    </g>
    <g id="text_15">
     <!-- value per sample -->
     <g transform="translate(606.717187 139.219375) scale(0.1 -0.1)">
      <defs>
       <path id="DejaVuSans-394" d="M 2188 4044 
L 906 525 
L 3472 525 
L 2188 4044 
z
M 50 0 
L 1831 4666 
L 2547 4666 
L 4325 0 
L 50 0 
z
" transform="scale(0.015625)"/>
      </defs>
      <use xlink:href="#DejaVuSans-394"/>
      <use xlink:href="#DejaVuSans-76" x="68.408203"/>
      <use xlink:href="#DejaVuSans-61" x="127.587891"/>
      <use xlink:href="#DejaVuSans-6c" x="188.867188"/>
      <use xlink:href="#DejaVuSans-75" x="216.650391"/>
      <use xlink:href="#DejaVuSans-65" x="280.029297"/>
      <use xlink:href="#DejaVuSans-20" x="341.552734"/>
      <use xlink:href="#DejaVuSans-70" x="373.339844"/>
      <use xlink:href="#DejaVuSans-65" x="436.816406"/>
      <use xlink:href="#DejaVuSans-72" x="498.339844"/>
      <use xlink:href="#DejaVuSans-20" x="539.453125"/>
      <use xlink:href="#DejaVuSans-73" x="571.240234"/>
      <use xlink:href="#DejaVuSans-61" x="623.339844"/>
      <use xlink:href="#DejaVuSans-6d" x="684.619141"/>
      <use xlink:href="#DejaVuSans-70" x="782.03125"/>
      <use xlink:href="#DejaVuSans-6c" x="845.507812"/>
      <use xlink:href="#DejaVuSans-65" x="873.291016"/>
     </g>
    </g>
   </g>
  </g>
 </g>
 <defs>
  <clipPath id="p30dd6fef5f">
   <rect x="54.02" y="26.88" width="655.18" height="219.16"/>
  </clipPath>
 </defs>
</svg>
