<?xml version="1.0" encoding="utf-8" standalone="no"?>
<!DOCTYPE svg PUBLIC "-//W3C//DTD SVG 1.1//EN"
  "http://www.w3.org/Graphics/SVG/1.1/DTD/svg11.dtd">
<svg xmlns:xlink="http://www.w3.org/1999/xlink" width="720pt" height="288pt" viewBox="0 0 720 288" xmlns="http://www.w3.org/2000/svg" version="1.1">
 <metadata>
  <rdf:RDF xmlns:dc="http://purl.org/dc/elements/1.1/" xmlns:cc="http://creativecommons.org/ns#" xmlns:rdf="http://www.w3.org/1999/02/22-rdf-syntax-ns#">
   <cc:Work>
    <dc:type rdf:resource="http://purl.org/dc/dcmitype/StillImage"/>
    <dc:date>2025-07-27T15:08:50.023371</dc:date>
    <dc:format>image/svg+xml</dc:format>
    <dc:creator>
     <cc:Agent>
      <dc:title>Matplotlib v3.9.2, https://matplotlib.org/</dc:title>
     </cc:Agent>
    </dc:creator>
   </cc:Work>
  </rdf:RDF>
 </metadata>
 <defs>
  <style type="text/css">*{stroke-linejoin: round; stroke-linecap: butt}</style>
 </defs>
 <g id="figure_1">
  <g id="patch_1">
   <path d="M 0 288 
L 720 288 
L 720 0 
L 0 0 
z
" style="fill: #ffffff"/>
  </g>
  <g id="axes_1">
   <g id="patch_2">
    <path d="M 54.02 246.04 
L 709.2 246.04 
L 709.2 26.88 
L 54.02 26.88 
z
" style="fill: #ffffff"/>
   </g>
   <g id="matplotlib.axis_1">
    <g id="xtick_1">
     <g id="line2d_1">
      <path d="M 83.800909 246.04 
L 83.800909 26.88 
" clip-path="url(#p012337344b)" style="fill: none; stroke: #b0b0b0; stroke-width: 0.8; stroke-linecap: square"/>
     </g>
     <g id="line2d_2">
      <defs>
       <path id="mf7e493c125" d="M 0 0 
L 0 3.5 
" style="stroke: #000000; stroke-width: 0.8"/>
      </defs>
      <g>
       <use xlink:href="#mf7e493c125" x="83.800909" y="246.04" style="stroke: #000000; stroke-width: 0.8"/>
      </g>
     </g>
     <g id="text_1">
      <!-- 0 -->
      <g transform="translate(80.619659 260.638438) scale(0.1 -0.1)">
       <defs>
        <path id="DejaVuSans-30" d="M 2034 4250 
Q 1547 4250 1301 3770 
Q 1056 3291 1056 2328 
Q 1056 1369 1301 889 
Q 1547 409 2034 409 
Q 2525 409 2770 889 
Q 3016 1369 3016 2328 
Q 3016 3291 2770 3770 
Q 2525 4250 2034 4250 
z
M 2034 4750 
Q 2819 4750 3233 4129 
Q 3647 3509 3647 2328 
Q 3647 1150 3233 529 
Q 2819 -91 2034 -91 
Q 1250 -91 836 529 
Q 422 1150 422 2328 
Q 422 3509 836 4129 
Q 1250 4750 2034 4750 
z
" transform="scale(0.015625)"/>
       </defs>
       <use xlink:href="#DejaVuSans-30"/>
      </g>
     </g>
    </g>
    <g id="xtick_2">
     <g id="line2d_3">
      <path d="M 228.319321 246.04 
L 228.319321 26.88 
" clip-path="url(#p012337344b)" style="fill: none; stroke: #b0b0b0; stroke-width: 0.8; stroke-linecap: square"/>
     </g>
     <g id="line2d_4">
      <g>
       <use xlink:href="#mf7e493c125" x="228.319321" y="246.04" style="stroke: #000000; stroke-width: 0.8"/>
      </g>
     </g>
     <g id="text_2">
      <!-- 10000 -->
      <g transform="translate(212.413071 260.638438) scale(0.1 -0.1)">
       <defs>
        <path id="DejaVuSans-31" d="M 794 531 
L 1825 531 
L 1825 4091 
L 703 3866 
L 703 4441 
L 1819 4666 
L 2450 4666 
L 2450 531 
L 3481 531 
L 3481 0 
L 794 0 
L 794 531 
z
" transform="scale(0.015625)"/>
       </defs>
       <use xlink:href="#DejaVuSans-31"/>
       <use xlink:href="#DejaVuSans-30" x="63.623047"/>
       <use xlink:href="#DejaVuSans-30" x="127.246094"/>
       <use xlink:href="#DejaVuSans-30" x="190.869141"/>
       <use xlink:href="#DejaVuSans-30" x="254.492188"/>
      </g>
     </g>
    </g>
    <g id="xtick_3">
     <g id="line2d_5">
      <path d="M 372.837732 246.04 
L 372.837732 26.88 
" clip-path="url(#p012337344b)" style="fill: none; stroke: #b0b0b0; stroke-width: 0.8; stroke-linecap: square"/>
     </g>
     <g id="line2d_6">
      <g>
       <use xlink:href="#mf7e493c125" x="372.837732" y="246.04" style="stroke: #000000; stroke-width: 0.8"/>
      </g>
     </g>
     <g id="text_3">
      <!-- 20000 -->
      <g transform="translate(356.931482 260.638438) scale(0.1 -0.1)">
       <defs>
        <path id="DejaVuSans-32" d="M 1228 531 
L 3431 531 
L 3431 0 
L 469 0 
L 469 531 
Q 828 903 1448 1529 
Q 2069 2156 2228 2338 
Q 2531 2678 2651 2914 
Q 2772 3150 2772 3378 
Q 2772 3750 2511 3984 
Q 2250 4219 1831 4219 
Q 1534 4219 1204 4116 
Q 875 4013 500 3803 
L 500 4441 
Q 881 4594 1212 4672 
Q 1544 4750 1819 4750 
Q 2544 4750 2975 4387 
Q 3406 4025 3406 3419 
Q 3406 3131 3298 2873 
Q 3191 2616 2906 2266 
Q 2828 2175 2409 1742 
Q 1991 1309 1228 531 
z
" transform="scale(0.015625)"/>
       </defs>
       <use xlink:href="#DejaVuSans-32"/>
       <use xlink:href="#DejaVuSans-30" x="63.623047"/>
       <use xlink:href="#DejaVuSans-30" x="127.246094"/>
       <use xlink:href="#DejaVuSans-30" x="190.869141"/>
       <use xlink:href="#DejaVuSans-30" x="254.492188"/>
      </g>
     </g>
    </g>
    <g id="xtick_4">
     <g id="line2d_7">
      <path d="M 517.356144 246.04 
L 517.356144 26.88 
" clip-path="url(#p012337344b)" style="fill: none; stroke: #b0b0b0; stroke-width: 0.8; stroke-linecap: square"/>
     </g>
     <g id="line2d_8">
      <g>
       <use xlink:href="#mf7e493c125" x="517.356144" y="246.04" style="stroke: #000000; stroke-width: 0.8"/>
      </g>
     </g>
     <g id="text_4">
      <!-- 30000 -->
      <g transform="translate(501.449894 260.638438) scale(0.1 -0.1)">
       <defs>
        <path id="DejaVuSans-33" d="M 2597 2516 
Q 3050 2419 3304 2112 
Q 3559 1806 3559 1356 
Q 3559 666 3084 287 
Q 2609 -91 1734 -91 
Q 1441 -91 1130 -33 
Q 819 25 488 141 
L 488 750 
Q 750 597 1062 519 
Q 1375 441 1716 441 
Q 2309 441 2620 675 
Q 2931 909 2931 1356 
Q 2931 1769 2642 2001 
Q 2353 2234 1838 2234 
L 1294 2234 
L 1294 2753 
L 1863 2753 
Q 2328 2753 2575 2939 
Q 2822 3125 2822 3475 
Q 2822 3834 2567 4026 
Q 2313 4219 1838 4219 
Q 1578 4219 1281 4162 
Q 984 4106 628 3988 
L 628 4550 
Q 988 4650 1302 4700 
Q 1616 4750 1894 4750 
Q 2613 4750 3031 4423 
Q 3450 4097 3450 3541 
Q 3450 3153 3228 2886 
Q 3006 2619 2597 2516 
z
" transform="scale(0.015625)"/>
       </defs>
       <use xlink:href="#DejaVuSans-33"/>
       <use xlink:href="#DejaVuSans-30" x="63.623047"/>
       <use xlink:href="#DejaVuSans-30" x="127.246094"/>
       <use xlink:href="#DejaVuSans-30" x="190.869141"/>
       <use xlink:href="#DejaVuSans-30" x="254.492188"/>
      </g>
     </g>
    </g>
    <g id="xtick_5">
     <g id="line2d_9">
      <path d="M 661.874556 246.04 
L 661.874556 26.88 
" clip-path="url(#p012337344b)" style="fill: none; stroke: #b0b0b0; stroke-width: 0.8; stroke-linecap: square"/>
     </g>
     <g id="line2d_10">
      <g>
       <use xlink:href="#mf7e493c125" x="661.874556" y="246.04" style="stroke: #000000; stroke-width: 0.8"/>
      </g>
     </g>
     <g id="text_5">
      <!-- 40000 -->
      <g transform="translate(645.968306 260.638438) scale(0.1 -0.1)">
       <defs>
        <path id="DejaVuSans-34" d="M 2419 4116 
L 825 1625 
L 2419 1625 
L 2419 4116 
z
M 2253 4666 
L 3047 4666 
L 3047 1625 
L 3713 1625 
L 3713 1100 
L 3047 1100 
L 3047 0 
L 2419 0 
L 2419 1100 
L 313 1100 
L 313 1709 
L 2253 4666 
z
" transform="scale(0.015625)"/>
       </defs>
       <use xlink:href="#DejaVuSans-34"/>
       <use xlink:href="#DejaVuSans-30" x="63.623047"/>
       <use xlink:href="#DejaVuSans-30" x="127.246094"/>
       <use xlink:href="#DejaVuSans-30" x="190.869141"/>
       <use xlink:href="#DejaVuSans-30" x="254.492188"/>
      </g>
     </g>
    </g>
    <g id="text_6">
     <!-- Time (s) -->
     <g transform="translate(361.281094 274.316562) scale(0.1 -0.1)">
      <defs>
       <path id="DejaVuSans-54" d="M -19 4666 
L 3928 4666 
L 3928 4134 
L 2272 4134 
L 2272 0 
L 1638 0 
L 1638 4134 
L -19 4134 
L -19 4666 
z
" transform="scale(0.015625)"/>
       <path id="DejaVuSans-69" d="M 603 3500 
L 1178 3500 
L 1178 0 
L 603 0 
L 603 3500 
z
M 603 4863 
L 1178 4863 
L 1178 4134 
L 603 4134 
L 603 4863 
z
" transform="scale(0.015625)"/>
       <path id="DejaVuSans-6d" d="M 3328 2828 
Q 3544 3216 3844 3400 
Q 4144 3584 4550 3584 
Q 5097 3584 5394 3201 
Q 5691 2819 5691 2113 
L 5691 0 
L 5113 0 
L 5113 2094 
Q 5113 2597 4934 2840 
Q 4756 3084 4391 3084 
Q 3944 3084 3684 2787 
Q 3425 2491 3425 1978 
L 3425 0 
L 2847 0 
L 2847 2094 
Q 2847 2600 2669 2842 
Q 2491 3084 2119 3084 
Q 1678 3084 1418 2786 
Q 1159 2488 1159 1978 
L 1159 0 
L 581 0 
L 581 3500 
L 1159 3500 
L 1159 2956 
Q 1356 3278 1631 3431 
Q 1906 3584 2284 3584 
Q 2666 3584 2933 3390 
Q 3200 3197 3328 2828 
z
" transform="scale(0.015625)"/>
       <path id="DejaVuSans-65" d="M 3597 1894 
L 3597 1613 
L 953 1613 
Q 991 1019 1311 708 
Q 1631 397 2203 397 
Q 2534 397 2845 478 
Q 3156 559 3463 722 
L 3463 178 
Q 3153 47 2828 -22 
Q 2503 -91 2169 -91 
Q 1331 -91 842 396 
Q 353 884 353 1716 
Q 353 2575 817 3079 
Q 1281 3584 2069 3584 
Q 2775 3584 3186 3129 
Q 3597 2675 3597 1894 
z
M 3022 2063 
Q 3016 2534 2758 2815 
Q 2500 3097 2075 3097 
Q 1594 3097 1305 2825 
Q 1016 2553 972 2059 
L 3022 2063 
z
" transform="scale(0.015625)"/>
       <path id="DejaVuSans-20" transform="scale(0.015625)"/>
       <path id="DejaVuSans-28" d="M 1984 4856 
Q 1566 4138 1362 3434 
Q 1159 2731 1159 2009 
Q 1159 1288 1364 580 
Q 1569 -128 1984 -844 
L 1484 -844 
Q 1016 -109 783 600 
Q 550 1309 550 2009 
Q 550 2706 781 3412 
Q 1013 4119 1484 4856 
L 1984 4856 
z
" transform="scale(0.015625)"/>
       <path id="DejaVuSans-73" d="M 2834 3397 
L 2834 2853 
Q 2591 2978 2328 3040 
Q 2066 3103 1784 3103 
Q 1356 3103 1142 2972 
Q 928 2841 928 2578 
Q 928 2378 1081 2264 
Q 1234 2150 1697 2047 
L 1894 2003 
Q 2506 1872 2764 1633 
Q 3022 1394 3022 966 
Q 3022 478 2636 193 
Q 2250 -91 1575 -91 
Q 1294 -91 989 -36 
Q 684 19 347 128 
L 347 722 
Q 666 556 975 473 
Q 1284 391 1588 391 
Q 1994 391 2212 530 
Q 2431 669 2431 922 
Q 2431 1156 2273 1281 
Q 2116 1406 1581 1522 
L 1381 1569 
Q 847 1681 609 1914 
Q 372 2147 372 2553 
Q 372 3047 722 3315 
Q 1072 3584 1716 3584 
Q 2034 3584 2315 3537 
Q 2597 3491 2834 3397 
z
" transform="scale(0.015625)"/>
       <path id="DejaVuSans-29" d="M 513 4856 
L 1013 4856 
Q 1481 4119 1714 3412 
Q 1947 2706 1947 2009 
Q 1947 1309 1714 600 
Q 1481 -109 1013 -844 
L 513 -844 
Q 928 -128 1133 580 
Q 1338 1288 1338 2009 
Q 1338 2731 1133 3434 
Q 928 4138 513 4856 
z
" transform="scale(0.015625)"/>
      </defs>
      <use xlink:href="#DejaVuSans-54"/>
      <use xlink:href="#DejaVuSans-69" x="57.958984"/>
      <use xlink:href="#DejaVuSans-6d" x="85.742188"/>
      <use xlink:href="#DejaVuSans-65" x="183.154297"/>
      <use xlink:href="#DejaVuSans-20" x="244.677734"/>
      <use xlink:href="#DejaVuSans-28" x="276.464844"/>
      <use xlink:href="#DejaVuSans-73" x="315.478516"/>
      <use xlink:href="#DejaVuSans-29" x="367.578125"/>
     </g>
    </g>
   </g>
   <g id="matplotlib.axis_2">
    <g id="ytick_1">
     <g id="line2d_11">
      <path d="M 54.02 236.078182 
L 709.2 236.078182 
" clip-path="url(#p012337344b)" style="fill: none; stroke: #b0b0b0; stroke-width: 0.8; stroke-linecap: square"/>
     </g>
     <g id="line2d_12">
      <defs>
       <path id="m9d991e5ff2" d="M 0 0 
L -3.5 0 
" style="stroke: #000000; stroke-width: 0.8"/>
      </defs>
      <g>
       <use xlink:href="#m9d991e5ff2" x="54.02" y="236.078182" style="stroke: #000000; stroke-width: 0.8"/>
      </g>
     </g>
     <g id="text_7">
      <!-- 0.00 -->
      <g transform="translate(24.754375 239.877401) scale(0.1 -0.1)">
       <defs>
        <path id="DejaVuSans-2e" d="M 684 794 
L 1344 794 
L 1344 0 
L 684 0 
L 684 794 
z
" transform="scale(0.015625)"/>
       </defs>
       <use xlink:href="#DejaVuSans-30"/>
       <use xlink:href="#DejaVuSans-2e" x="63.623047"/>
       <use xlink:href="#DejaVuSans-30" x="95.410156"/>
       <use xlink:href="#DejaVuSans-30" x="159.033203"/>
      </g>
     </g>
    </g>
    <g id="ytick_2">
     <g id="line2d_13">
      <path d="M 54.02 196.230909 
L 709.2 196.230909 
" clip-path="url(#p012337344b)" style="fill: none; stroke: #b0b0b0; stroke-width: 0.8; stroke-linecap: square"/>
     </g>
     <g id="line2d_14">
      <g>
       <use xlink:href="#m9d991e5ff2" x="54.02" y="196.230909" style="stroke: #000000; stroke-width: 0.8"/>
      </g>
     </g>
     <g id="text_8">
      <!-- 0.02 -->
      <g transform="translate(24.754375 200.030128) scale(0.1 -0.1)">
       <use xlink:href="#DejaVuSans-30"/>
       <use xlink:href="#DejaVuSans-2e" x="63.623047"/>
       <use xlink:href="#DejaVuSans-30" x="95.410156"/>
       <use xlink:href="#DejaVuSans-32" x="159.033203"/>
      </g>
     </g>
    </g>
    <g id="ytick_3">
     <g id="line2d_15">
      <path d="M 54.02 156.383636 
L 709.2 156.383636 
" clip-path="url(#p012337344b)" style="fill: none; stroke: #b0b0b0; stroke-width: 0.8; stroke-linecap: square"/>
     </g>
     <g id="line2d_16">
      <g>
       <use xlink:href="#m9d991e5ff2" x="54.02" y="156.383636" style="stroke: #000000; stroke-width: 0.8"/>
      </g>
     </g>
     <g id="text_9">
      <!-- 0.04 -->
      <g transform="translate(24.754375 160.182855) scale(0.1 -0.1)">
       <use xlink:href="#DejaVuSans-30"/>
       <use xlink:href="#DejaVuSans-2e" x="63.623047"/>
       <use xlink:href="#DejaVuSans-30" x="95.410156"/>
       <use xlink:href="#DejaVuSans-34" x="159.033203"/>
      </g>
     </g>
    </g>
    <g id="ytick_4">
     <g id="line2d_17">
      <path d="M 54.02 116.536364 
L 709.2 116.536364 
" clip-path="url(#p012337344b)" style="fill: none; stroke: #b0b0b0; stroke-width: 0.8; stroke-linecap: square"/>
     </g>
     <g id="line2d_18">
      <g>
       <use xlink:href="#m9d991e5ff2" x="54.02" y="116.536364" style="stroke: #000000; stroke-width: 0.8"/>
      </g>
     </g>
     <g id="text_10">
      <!-- 0.06 -->
      <g transform="translate(24.754375 120.335582) scale(0.1 -0.1)">
       <defs>
        <path id="DejaVuSans-36" d="M 2113 2584 
Q 1688 2584 1439 2293 
Q 1191 2003 1191 1497 
Q 1191 994 1439 701 
Q 1688 409 2113 409 
Q 2538 409 2786 701 
Q 3034 994 3034 1497 
Q 3034 2003 2786 2293 
Q 2538 2584 2113 2584 
z
M 3366 4563 
L 3366 3988 
Q 3128 4100 2886 4159 
Q 2644 4219 2406 4219 
Q 1781 4219 1451 3797 
Q 1122 3375 1075 2522 
Q 1259 2794 1537 2939 
Q 1816 3084 2150 3084 
Q 2853 3084 3261 2657 
Q 3669 2231 3669 1497 
Q 3669 778 3244 343 
Q 2819 -91 2113 -91 
Q 1303 -91 875 529 
Q 447 1150 447 2328 
Q 447 3434 972 4092 
Q 1497 4750 2381 4750 
Q 2619 4750 2861 4703 
Q 3103 4656 3366 4563 
z
" transform="scale(0.015625)"/>
       </defs>
       <use xlink:href="#DejaVuSans-30"/>
       <use xlink:href="#DejaVuSans-2e" x="63.623047"/>
       <use xlink:href="#DejaVuSans-30" x="95.410156"/>
       <use xlink:href="#DejaVuSans-36" x="159.033203"/>
      </g>
     </g>
    </g>
    <g id="ytick_5">
     <g id="line2d_19">
      <path d="M 54.02 76.689091 
L 709.2 76.689091 
" clip-path="url(#p012337344b)" style="fill: none; stroke: #b0b0b0; stroke-width: 0.8; stroke-linecap: square"/>
     </g>
     <g id="line2d_20">
      <g>
       <use xlink:href="#m9d991e5ff2" x="54.02" y="76.689091" style="stroke: #000000; stroke-width: 0.8"/>
      </g>
     </g>
     <g id="text_11">
      <!-- 0.08 -->
      <g transform="translate(24.754375 80.48831) scale(0.1 -0.1)">
       <defs>
        <path id="DejaVuSans-38" d="M 2034 2216 
Q 1584 2216 1326 1975 
Q 1069 1734 1069 1313 
Q 1069 891 1326 650 
Q 1584 409 2034 409 
Q 2484 409 2743 651 
Q 3003 894 3003 1313 
Q 3003 1734 2745 1975 
Q 2488 2216 2034 2216 
z
M 1403 2484 
Q 997 2584 770 2862 
Q 544 3141 544 3541 
Q 544 4100 942 4425 
Q 1341 4750 2034 4750 
Q 2731 4750 3128 4425 
Q 3525 4100 3525 3541 
Q 3525 3141 3298 2862 
Q 3072 2584 2669 2484 
Q 3125 2378 3379 2068 
Q 3634 1759 3634 1313 
Q 3634 634 3220 271 
Q 2806 -91 2034 -91 
Q 1263 -91 848 271 
Q 434 634 434 1313 
Q 434 1759 690 2068 
Q 947 2378 1403 2484 
z
M 1172 3481 
Q 1172 3119 1398 2916 
Q 1625 2713 2034 2713 
Q 2441 2713 2670 2916 
Q 2900 3119 2900 3481 
Q 2900 3844 2670 4047 
Q 2441 4250 2034 4250 
Q 1625 4250 1398 4047 
Q 1172 3844 1172 3481 
z
" transform="scale(0.015625)"/>
       </defs>
       <use xlink:href="#DejaVuSans-30"/>
       <use xlink:href="#DejaVuSans-2e" x="63.623047"/>
       <use xlink:href="#DejaVuSans-30" x="95.410156"/>
       <use xlink:href="#DejaVuSans-38" x="159.033203"/>
      </g>
     </g>
    </g>
    <g id="ytick_6">
     <g id="line2d_21">
      <path d="M 54.02 36.841818 
L 709.2 36.841818 
" clip-path="url(#p012337344b)" style="fill: none; stroke: #b0b0b0; stroke-width: 0.8; stroke-linecap: square"/>
     </g>
     <g id="line2d_22">
      <g>
       <use xlink:href="#m9d991e5ff2" x="54.02" y="36.841818" style="stroke: #000000; stroke-width: 0.8"/>
      </g>
     </g>
     <g id="text_12">
      <!-- 0.10 -->
      <g transform="translate(24.754375 40.641037) scale(0.1 -0.1)">
       <use xlink:href="#DejaVuSans-30"/>
       <use xlink:href="#DejaVuSans-2e" x="63.623047"/>
       <use xlink:href="#DejaVuSans-31" x="95.410156"/>
       <use xlink:href="#DejaVuSans-30" x="159.033203"/>
      </g>
     </g>
    </g>
    <g id="text_13">
     <!-- Delta Value -->
     <g transform="translate(18.674688 165.120156) rotate(-90) scale(0.1 -0.1)">
      <defs>
       <path id="DejaVuSans-44" d="M 1259 4147 
L 1259 519 
L 2022 519 
Q 2988 519 3436 956 
Q 3884 1394 3884 2338 
Q 3884 3275 3436 3711 
Q 2988 4147 2022 4147 
L 1259 4147 
z
M 628 4666 
L 1925 4666 
Q 3281 4666 3915 4102 
Q 4550 3538 4550 2338 
Q 4550 1131 3912 565 
Q 3275 0 1925 0 
L 628 0 
L 628 4666 
z
" transform="scale(0.015625)"/>
       <path id="DejaVuSans-6c" d="M 603 4863 
L 1178 4863 
L 1178 0 
L 603 0 
L 603 4863 
z
" transform="scale(0.015625)"/>
       <path id="DejaVuSans-74" d="M 1172 4494 
L 1172 3500 
L 2356 3500 
L 2356 3053 
L 1172 3053 
L 1172 1153 
Q 1172 725 1289 603 
Q 1406 481 1766 481 
L 2356 481 
L 2356 0 
L 1766 0 
Q 1100 0 847 248 
Q 594 497 594 1153 
L 594 3053 
L 172 3053 
L 172 3500 
L 594 3500 
L 594 4494 
L 1172 4494 
z
" transform="scale(0.015625)"/>
       <path id="DejaVuSans-61" d="M 2194 1759 
Q 1497 1759 1228 1600 
Q 959 1441 959 1056 
Q 959 750 1161 570 
Q 1363 391 1709 391 
Q 2188 391 2477 730 
Q 2766 1069 2766 1631 
L 2766 1759 
L 2194 1759 
z
M 3341 1997 
L 3341 0 
L 2766 0 
L 2766 531 
Q 2569 213 2275 61 
Q 1981 -91 1556 -91 
Q 1019 -91 701 211 
Q 384 513 384 1019 
Q 384 1609 779 1909 
Q 1175 2209 1959 2209 
L 2766 2209 
L 2766 2266 
Q 2766 2663 2505 2880 
Q 2244 3097 1772 3097 
Q 1472 3097 1187 3025 
Q 903 2953 641 2809 
L 641 3341 
Q 956 3463 1253 3523 
Q 1550 3584 1831 3584 
Q 2591 3584 2966 3190 
Q 3341 2797 3341 1997 
z
" transform="scale(0.015625)"/>
       <path id="DejaVuSans-56" d="M 1831 0 
L 50 4666 
L 709 4666 
L 2188 738 
L 3669 4666 
L 4325 4666 
L 2547 0 
L 1831 0 
z
" transform="scale(0.015625)"/>
       <path id="DejaVuSans-75" d="M 544 1381 
L 544 3500 
L 1119 3500 
L 1119 1403 
Q 1119 906 1312 657 
Q 1506 409 1894 409 
Q 2359 409 2629 706 
Q 2900 1003 2900 1516 
L 2900 3500 
L 3475 3500 
L 3475 0 
L 2900 0 
L 2900 538 
Q 2691 219 2414 64 
Q 2138 -91 1772 -91 
Q 1169 -91 856 284 
Q 544 659 544 1381 
z
M 1991 3584 
L 1991 3584 
z
" transform="scale(0.015625)"/>
      </defs>
      <use xlink:href="#DejaVuSans-44"/>
      <use xlink:href="#DejaVuSans-65" x="77.001953"/>
      <use xlink:href="#DejaVuSans-6c" x="138.525391"/>
      <use xlink:href="#DejaVuSans-74" x="166.308594"/>
      <use xlink:href="#DejaVuSans-61" x="205.517578"/>
      <use xlink:href="#DejaVuSans-20" x="266.796875"/>
      <use xlink:href="#DejaVuSans-56" x="298.583984"/>
      <use xlink:href="#DejaVuSans-61" x="359.242188"/>
      <use xlink:href="#DejaVuSans-6c" x="420.521484"/>
      <use xlink:href="#DejaVuSans-75" x="448.304688"/>
      <use xlink:href="#DejaVuSans-65" x="511.683594"/>
     </g>
    </g>
   </g>
   <g id="line2d_23">
    <path d="M 83.800909 236.078182 
L 84.335627 36.841818 
L 84.350079 236.078182 
L 85.058219 36.841818 
L 85.072671 236.078182 
L 85.723004 36.841818 
L 85.737456 236.078182 
L 86.257722 36.841818 
L 86.272174 236.078182 
L 87.139284 36.841818 
L 87.153736 236.078182 
L 87.630647 36.841818 
L 87.645099 236.078182 
L 88.367691 36.841818 
L 88.382143 236.078182 
L 89.523838 36.841818 
L 89.53829 236.078182 
L 90.058556 36.841818 
L 90.073008 236.078182 
L 90.752245 36.841818 
L 90.766697 236.078182 
L 91.286963 36.841818 
L 91.301415 236.078182 
L 92.168525 36.841818 
L 92.182977 236.078182 
L 92.659888 36.841818 
L 92.67434 236.078182 
L 93.396932 36.841818 
L 93.411383 236.078182 
L 94.061716 36.841818 
L 94.076168 236.078182 
L 97.327832 36.841818 
L 97.342284 236.078182 
L 98.021521 36.841818 
L 98.035973 236.078182 
L 98.498432 36.841818 
L 98.512883 236.078182 
L 99.018698 36.841818 
L 99.03315 236.078182 
L 99.712386 36.841818 
L 99.726838 236.078182 
L 100.232652 36.841818 
L 100.247104 236.078182 
L 100.926341 36.841818 
L 100.940793 236.078182 
L 101.403252 36.841818 
L 101.417703 236.078182 
L 101.923518 36.841818 
L 101.93797 236.078182 
L 102.617206 36.841818 
L 102.631658 236.078182 
L 103.166376 36.841818 
L 103.180828 236.078182 
L 103.860065 36.841818 
L 103.874516 236.078182 
L 104.336975 36.841818 
L 104.351427 236.078182 
L 104.857242 36.841818 
L 104.871694 236.078182 
L 105.55093 36.841818 
L 105.565382 236.078182 
L 106.071196 36.841818 
L 106.085648 236.078182 
L 106.764885 36.841818 
L 106.779337 236.078182 
L 107.241795 36.841818 
L 107.256247 236.078182 
L 107.762062 36.841818 
L 107.776514 236.078182 
L 108.45575 36.841818 
L 108.470202 236.078182 
L 108.976016 36.841818 
L 108.990468 236.078182 
L 109.669705 36.841818 
L 109.684157 236.078182 
L 110.146616 36.841818 
L 110.161067 236.078182 
L 110.695786 36.841818 
L 110.710237 236.078182 
L 111.389474 36.841818 
L 111.403926 236.078182 
L 111.90974 36.841818 
L 111.924192 236.078182 
L 112.603429 36.841818 
L 112.61788 236.078182 
L 113.080339 36.841818 
L 113.094791 236.078182 
L 113.600606 36.841818 
L 113.615057 236.078182 
L 114.294294 36.841818 
L 114.308746 236.078182 
L 114.81456 36.841818 
L 114.829012 236.078182 
L 115.508249 36.841818 
L 115.5227 236.078182 
L 115.985159 36.841818 
L 115.999611 236.078182 
L 116.505426 36.841818 
L 116.519877 236.078182 
L 117.199114 36.841818 
L 117.213566 236.078182 
L 117.748284 36.841818 
L 117.762736 236.078182 
L 118.441972 36.841818 
L 118.456424 236.078182 
L 118.918883 36.841818 
L 118.933335 236.078182 
L 119.439149 36.841818 
L 119.453601 236.078182 
L 120.132838 36.841818 
L 120.14729 236.078182 
L 120.653104 36.841818 
L 120.667556 236.078182 
L 121.346792 36.841818 
L 121.361244 236.078182 
L 121.823703 36.841818 
L 121.838155 236.078182 
L 122.343969 36.841818 
L 122.358421 236.078182 
L 123.037658 36.841818 
L 123.05211 236.078182 
L 123.557924 36.841818 
L 123.572376 236.078182 
L 124.251613 36.841818 
L 124.266064 236.078182 
L 124.728523 36.841818 
L 124.742975 236.078182 
L 125.277693 36.841818 
L 125.292145 236.078182 
L 125.971382 36.841818 
L 125.985833 236.078182 
L 126.491648 36.841818 
L 126.5061 236.078182 
L 127.185336 36.841818 
L 127.199788 236.078182 
L 127.662247 36.841818 
L 127.676699 236.078182 
L 128.182513 36.841818 
L 128.196965 236.078182 
L 128.876202 36.841818 
L 128.890654 236.078182 
L 129.396468 36.841818 
L 129.41092 236.078182 
L 130.090156 36.841818 
L 130.104608 236.078182 
L 130.567067 36.841818 
L 130.581519 236.078182 
L 131.087333 36.841818 
L 131.101785 236.078182 
L 131.781022 36.841818 
L 131.795474 236.078182 
L 132.330192 36.841818 
L 132.344644 236.078182 
L 133.02388 36.841818 
L 133.038332 236.078182 
L 133.500791 36.841818 
L 133.515243 236.078182 
L 134.021057 36.841818 
L 134.035509 236.078182 
L 134.714746 36.841818 
L 134.729197 236.078182 
L 135.235012 36.841818 
L 135.249464 236.078182 
L 135.9287 36.841818 
L 135.943152 236.078182 
L 136.405611 36.841818 
L 136.420063 236.078182 
L 136.925877 36.841818 
L 136.940329 236.078182 
L 137.619566 36.841818 
L 137.634017 236.078182 
L 138.139832 36.841818 
L 138.154284 236.078182 
L 138.83352 36.841818 
L 138.847972 236.078182 
L 139.310431 36.841818 
L 139.324883 236.078182 
L 139.859601 36.841818 
L 139.874053 236.078182 
L 140.553289 36.841818 
L 140.567741 236.078182 
L 141.073556 36.841818 
L 141.088007 236.078182 
L 141.767244 36.841818 
L 141.781696 236.078182 
L 142.244155 36.841818 
L 142.258607 236.078182 
L 142.764421 36.841818 
L 142.778873 236.078182 
L 143.458109 36.841818 
L 143.472561 236.078182 
L 143.978376 36.841818 
L 143.992828 236.078182 
L 144.672064 36.841818 
L 144.686516 236.078182 
L 145.148975 36.841818 
L 145.163427 236.078182 
L 145.669241 36.841818 
L 145.683693 236.078182 
L 146.362929 36.841818 
L 146.377381 236.078182 
L 146.912099 36.841818 
L 146.926551 236.078182 
L 147.605788 36.841818 
L 147.62024 236.078182 
L 148.082699 36.841818 
L 148.09715 236.078182 
L 148.602965 36.841818 
L 148.617417 236.078182 
L 149.296653 36.841818 
L 149.311105 236.078182 
L 149.81692 36.841818 
L 149.831371 236.078182 
L 150.510608 36.841818 
L 150.52506 236.078182 
L 150.987519 36.841818 
L 151.001971 236.078182 
L 151.507785 36.841818 
L 151.522237 236.078182 
L 152.201473 36.841818 
L 152.215925 236.078182 
L 152.72174 36.841818 
L 152.736191 236.078182 
L 153.415428 36.841818 
L 153.42988 236.078182 
L 153.892339 36.841818 
L 153.906791 236.078182 
L 154.441509 36.841818 
L 154.455961 236.078182 
L 155.135197 36.841818 
L 155.149649 236.078182 
L 155.655463 36.841818 
L 155.669915 236.078182 
L 156.349152 36.841818 
L 156.363604 236.078182 
L 156.826063 36.841818 
L 156.840514 236.078182 
L 157.346329 36.841818 
L 157.360781 236.078182 
L 158.040017 36.841818 
L 158.054469 236.078182 
L 158.560283 36.841818 
L 158.574735 236.078182 
L 159.253972 36.841818 
L 159.268424 236.078182 
L 159.730883 36.841818 
L 159.745334 236.078182 
L 160.251149 36.841818 
L 160.265601 236.078182 
L 160.944837 36.841818 
L 160.959289 236.078182 
L 161.494007 36.841818 
L 161.508459 236.078182 
L 162.187696 36.841818 
L 162.202147 236.078182 
L 162.664606 36.841818 
L 162.679058 236.078182 
L 163.184873 36.841818 
L 163.199324 236.078182 
L 163.878561 36.841818 
L 163.893013 236.078182 
L 164.398827 36.841818 
L 164.413279 236.078182 
L 165.092516 36.841818 
L 165.106967 236.078182 
L 165.569426 36.841818 
L 165.583878 236.078182 
L 166.089693 36.841818 
L 166.104145 236.078182 
L 166.783381 36.841818 
L 166.797833 236.078182 
L 167.303647 36.841818 
L 167.318099 236.078182 
L 167.997336 36.841818 
L 168.011788 236.078182 
L 168.474246 36.841818 
L 168.488698 236.078182 
L 169.023416 36.841818 
L 169.037868 236.078182 
L 169.717105 36.841818 
L 169.731557 236.078182 
L 170.237371 36.841818 
L 170.251823 236.078182 
L 170.931059 36.841818 
L 170.945511 236.078182 
L 171.40797 36.841818 
L 171.422422 236.078182 
L 171.928237 36.841818 
L 171.942688 236.078182 
L 172.621925 36.841818 
L 172.636377 236.078182 
L 173.142191 36.841818 
L 173.156643 236.078182 
L 173.83588 36.841818 
L 173.850331 236.078182 
L 174.31279 36.841818 
L 174.327242 236.078182 
L 174.833057 36.841818 
L 174.847508 236.078182 
L 175.526745 36.841818 
L 175.541197 236.078182 
L 176.075915 36.841818 
L 176.090367 236.078182 
L 176.769603 36.841818 
L 176.784055 236.078182 
L 177.246514 36.841818 
L 177.260966 236.078182 
L 177.76678 36.841818 
L 177.781232 236.078182 
L 178.460469 36.841818 
L 178.474921 236.078182 
L 178.980735 36.841818 
L 178.995187 236.078182 
L 179.674423 36.841818 
L 179.688875 236.078182 
L 180.151334 36.841818 
L 180.165786 236.078182 
L 180.6716 36.841818 
L 180.686052 236.078182 
L 181.365289 36.841818 
L 181.379741 236.078182 
L 181.885555 36.841818 
L 181.900007 236.078182 
L 182.579243 36.841818 
L 182.593695 236.078182 
L 183.056154 36.841818 
L 183.070606 236.078182 
L 183.605324 36.841818 
L 183.619776 236.078182 
L 184.299013 36.841818 
L 184.313464 236.078182 
L 184.819279 36.841818 
L 184.833731 236.078182 
L 185.512967 36.841818 
L 185.527419 236.078182 
L 185.989878 36.841818 
L 186.00433 236.078182 
L 186.510144 36.841818 
L 186.524596 236.078182 
L 187.203833 36.841818 
L 187.218284 236.078182 
L 187.724099 36.841818 
L 187.738551 236.078182 
L 188.417787 36.841818 
L 188.432239 236.078182 
L 188.894698 36.841818 
L 188.90915 236.078182 
L 189.414964 36.841818 
L 189.429416 236.078182 
L 190.108653 36.841818 
L 190.123105 236.078182 
L 190.657823 36.841818 
L 190.672275 236.078182 
L 191.351511 36.841818 
L 191.365963 236.078182 
L 191.828422 36.841818 
L 191.842874 236.078182 
L 192.348688 36.841818 
L 192.36314 236.078182 
L 193.042376 36.841818 
L 193.056828 236.078182 
L 193.562643 36.841818 
L 193.577095 236.078182 
L 194.256331 36.841818 
L 194.270783 236.078182 
L 194.733242 36.841818 
L 194.747694 236.078182 
L 195.253508 36.841818 
L 195.26796 236.078182 
L 195.947197 36.841818 
L 195.961648 236.078182 
L 196.467463 36.841818 
L 196.481915 236.078182 
L 197.161151 36.841818 
L 197.175603 236.078182 
L 197.638062 36.841818 
L 197.652514 236.078182 
L 198.187232 36.841818 
L 198.201684 236.078182 
L 198.88092 36.841818 
L 198.895372 236.078182 
L 199.401187 36.841818 
L 199.415638 236.078182 
L 200.094875 36.841818 
L 200.109327 236.078182 
L 200.571786 36.841818 
L 200.586238 236.078182 
L 201.092052 36.841818 
L 201.106504 236.078182 
L 201.78574 36.841818 
L 201.800192 236.078182 
L 202.306007 36.841818 
L 202.320458 236.078182 
L 202.999695 36.841818 
L 203.014147 236.078182 
L 203.476606 36.841818 
L 203.491058 236.078182 
L 203.996872 36.841818 
L 204.011324 236.078182 
L 204.69056 36.841818 
L 204.705012 236.078182 
L 205.23973 36.841818 
L 205.254182 236.078182 
L 205.933419 36.841818 
L 205.947871 236.078182 
L 206.41033 36.841818 
L 206.424781 236.078182 
L 206.930596 36.841818 
L 206.945048 236.078182 
L 207.624284 36.841818 
L 207.638736 236.078182 
L 208.14455 36.841818 
L 208.159002 236.078182 
L 208.838239 36.841818 
L 208.852691 236.078182 
L 209.31515 36.841818 
L 209.329601 236.078182 
L 209.835416 36.841818 
L 209.849868 236.078182 
L 210.529104 36.841818 
L 210.543556 236.078182 
L 211.049371 36.841818 
L 211.063822 236.078182 
L 211.743059 36.841818 
L 211.757511 236.078182 
L 212.21997 36.841818 
L 212.234422 236.078182 
L 212.76914 36.841818 
L 212.783591 236.078182 
L 213.462828 36.841818 
L 213.47728 236.078182 
L 213.983094 36.841818 
L 213.997546 236.078182 
L 214.676783 36.841818 
L 214.691235 236.078182 
L 215.153693 36.841818 
L 215.168145 236.078182 
L 215.67396 36.841818 
L 215.688412 236.078182 
L 216.367648 36.841818 
L 216.3821 236.078182 
L 216.887914 36.841818 
L 216.902366 236.078182 
L 217.581603 36.841818 
L 217.596055 236.078182 
L 218.058514 36.841818 
L 218.072965 236.078182 
L 218.57878 36.841818 
L 218.593232 236.078182 
L 219.272468 36.841818 
L 219.28692 236.078182 
L 219.821638 36.841818 
L 219.83609 236.078182 
L 220.515327 36.841818 
L 220.529778 236.078182 
L 220.992237 36.841818 
L 221.006689 236.078182 
L 221.512504 36.841818 
L 221.526955 236.078182 
L 222.206192 36.841818 
L 222.220644 236.078182 
L 222.726458 36.841818 
L 222.74091 236.078182 
L 223.420147 36.841818 
L 223.434598 236.078182 
L 223.897057 36.841818 
L 223.911509 236.078182 
L 224.417324 36.841818 
L 224.431775 236.078182 
L 225.111012 36.841818 
L 225.125464 236.078182 
L 225.631278 36.841818 
L 225.64573 236.078182 
L 226.324967 36.841818 
L 226.339419 236.078182 
L 226.801877 36.841818 
L 226.816329 236.078182 
L 227.351047 36.841818 
L 227.365499 236.078182 
L 228.044736 36.841818 
L 228.059188 236.078182 
L 228.565002 36.841818 
L 228.579454 236.078182 
L 229.25869 36.841818 
L 229.273142 236.078182 
L 229.735601 36.841818 
L 229.750053 236.078182 
L 230.255867 36.841818 
L 230.270319 236.078182 
L 230.949556 36.841818 
L 230.964008 236.078182 
L 231.469822 36.841818 
L 231.484274 236.078182 
L 232.163511 36.841818 
L 232.177962 236.078182 
L 232.640421 36.841818 
L 232.654873 236.078182 
L 233.160688 36.841818 
L 233.175139 236.078182 
L 233.854376 36.841818 
L 233.868828 236.078182 
L 234.403546 36.841818 
L 234.417998 236.078182 
L 235.097234 36.841818 
L 235.111686 236.078182 
L 235.574145 36.841818 
L 235.588597 236.078182 
L 236.094411 36.841818 
L 236.108863 236.078182 
L 236.7881 36.841818 
L 236.802552 236.078182 
L 237.308366 36.841818 
L 237.322818 236.078182 
L 238.002054 36.841818 
L 238.016506 236.078182 
L 238.478965 36.841818 
L 238.493417 236.078182 
L 238.999231 36.841818 
L 239.013683 236.078182 
L 239.69292 36.841818 
L 239.707372 236.078182 
L 240.213186 36.841818 
L 240.227638 236.078182 
L 240.906874 36.841818 
L 240.921326 236.078182 
L 241.383785 36.841818 
L 241.398237 236.078182 
L 241.932955 36.841818 
L 241.947407 236.078182 
L 242.626644 36.841818 
L 242.641095 236.078182 
L 243.14691 36.841818 
L 243.161362 236.078182 
L 243.840598 36.841818 
L 243.85505 236.078182 
L 244.317509 36.841818 
L 244.331961 236.078182 
L 244.837775 36.841818 
L 244.852227 236.078182 
L 245.531464 36.841818 
L 245.545915 236.078182 
L 246.05173 36.841818 
L 246.066182 236.078182 
L 246.745418 36.841818 
L 246.75987 236.078182 
L 247.222329 36.841818 
L 247.236781 236.078182 
L 247.742595 36.841818 
L 247.757047 236.078182 
L 248.436284 36.841818 
L 248.450735 236.078182 
L 248.985454 36.841818 
L 248.999905 236.078182 
L 249.679142 36.841818 
L 249.693594 236.078182 
L 250.156053 36.841818 
L 250.170505 236.078182 
L 250.676319 36.841818 
L 250.690771 236.078182 
L 251.370007 36.841818 
L 251.384459 236.078182 
L 251.890274 36.841818 
L 251.904726 236.078182 
L 252.583962 36.841818 
L 252.598414 236.078182 
L 253.060873 36.841818 
L 253.075325 236.078182 
L 253.581139 36.841818 
L 253.595591 236.078182 
L 254.274827 36.841818 
L 254.289279 236.078182 
L 254.795094 36.841818 
L 254.809546 236.078182 
L 255.488782 36.841818 
L 255.503234 236.078182 
L 255.936789 36.841818 
L 255.951241 236.078182 
L 256.457056 36.841818 
L 256.471507 236.078182 
L 257.12184 36.841818 
L 257.136292 236.078182 
L 257.67101 36.841818 
L 257.685462 236.078182 
L 258.552572 36.841818 
L 258.567024 236.078182 
L 259.043935 36.841818 
L 259.058387 236.078182 
L 259.752075 36.841818 
L 259.766527 236.078182 
L 260.41686 36.841818 
L 260.431312 236.078182 
L 260.951578 36.841818 
L 260.96603 236.078182 
L 261.83314 36.841818 
L 261.847592 236.078182 
L 262.324503 36.841818 
L 262.338955 236.078182 
L 263.00374 69.533752 
L 263.047095 235.659785 
L 263.524006 203.804644 
L 263.538458 236.078182 
L 264.217694 36.841818 
L 264.232146 236.078182 
L 264.781316 36.841818 
L 264.795768 236.078182 
L 265.51836 36.841818 
L 265.532812 236.078182 
L 266.183145 36.841818 
L 266.197596 236.078182 
L 266.674507 36.841818 
L 266.688959 236.078182 
L 267.267033 169.143997 
L 267.32484 236.058258 
L 267.498262 236.010441 
L 267.570521 235.699633 
L 268.148595 234.60567 
L 268.206402 236.058258 
L 268.307565 236.010441 
L 269.015705 235.362768 
L 269.073513 236.058258 
L 269.174676 236.010441 
L 269.246935 235.898869 
L 270.085142 106.924247 
L 270.099594 236.078182 
L 270.605408 36.841818 
L 270.61986 236.078182 
L 271.299096 36.841818 
L 271.313548 236.078182 
L 271.776007 36.841818 
L 271.790459 236.078182 
L 272.296273 36.841818 
L 272.310725 236.078182 
L 272.989962 36.841818 
L 273.004414 236.078182 
L 273.510228 36.841818 
L 273.52468 236.078182 
L 274.203916 36.841818 
L 274.218368 236.078182 
L 274.680827 36.841818 
L 274.695279 236.078182 
L 275.229997 36.841818 
L 275.244449 236.078182 
L 275.923686 36.841818 
L 275.938137 236.078182 
L 276.443952 36.841818 
L 276.458404 236.078182 
L 277.13764 36.841818 
L 277.152092 236.078182 
L 277.614551 36.841818 
L 277.629003 236.078182 
L 278.134817 36.841818 
L 278.149269 236.078182 
L 278.828506 36.841818 
L 278.842957 236.078182 
L 279.348772 36.841818 
L 279.363224 236.078182 
L 280.04246 36.841818 
L 280.056912 236.078182 
L 280.519371 36.841818 
L 280.533823 236.078182 
L 281.039637 36.841818 
L 281.054089 236.078182 
L 281.733326 36.841818 
L 281.747778 236.078182 
L 282.282496 36.841818 
L 282.296948 236.078182 
L 282.976184 36.841818 
L 282.990636 236.078182 
L 283.453095 36.841818 
L 283.467547 236.078182 
L 283.973361 36.841818 
L 283.987813 236.078182 
L 284.667049 36.841818 
L 284.681501 236.078182 
L 285.187316 36.841818 
L 285.201768 236.078182 
L 285.881004 36.841818 
L 285.895456 236.078182 
L 286.357915 36.841818 
L 286.372367 236.078182 
L 286.878181 36.841818 
L 286.892633 236.078182 
L 287.57187 36.841818 
L 287.586321 236.078182 
L 288.092136 36.841818 
L 288.106588 236.078182 
L 288.785824 36.841818 
L 288.800276 236.078182 
L 289.262735 36.841818 
L 289.277187 236.078182 
L 289.811905 36.841818 
L 289.826357 236.078182 
L 290.505593 36.841818 
L 290.520045 236.078182 
L 291.02586 36.841818 
L 291.040311 236.078182 
L 291.719548 36.841818 
L 291.734 236.078182 
L 292.196459 36.841818 
L 292.210911 236.078182 
L 292.716725 36.841818 
L 292.731177 236.078182 
L 293.410413 36.841818 
L 293.424865 236.078182 
L 293.93068 36.841818 
L 293.945131 236.078182 
L 294.624368 36.841818 
L 294.63882 236.078182 
L 295.101279 36.841818 
L 295.115731 236.078182 
L 295.621545 36.841818 
L 295.635997 236.078182 
L 296.315233 36.841818 
L 296.329685 236.078182 
L 296.864403 36.841818 
L 296.878855 236.078182 
L 297.558092 36.841818 
L 297.572544 236.078182 
L 298.035003 36.841818 
L 298.049454 236.078182 
L 298.555269 36.841818 
L 298.569721 236.078182 
L 299.248957 36.841818 
L 299.263409 236.078182 
L 299.769223 36.841818 
L 299.783675 236.078182 
L 300.462912 36.841818 
L 300.477364 236.078182 
L 300.939823 36.841818 
L 300.954274 236.078182 
L 301.460089 36.841818 
L 301.474541 236.078182 
L 302.153777 36.841818 
L 302.168229 236.078182 
L 302.674044 36.841818 
L 302.688495 236.078182 
L 303.367732 36.841818 
L 303.382184 236.078182 
L 303.844643 36.841818 
L 303.859095 236.078182 
L 304.393813 36.841818 
L 304.408264 236.078182 
L 305.087501 36.841818 
L 305.101953 236.078182 
L 305.607767 36.841818 
L 305.622219 236.078182 
L 306.301456 36.841818 
L 306.315908 236.078182 
L 306.778366 36.841818 
L 306.792818 236.078182 
L 307.298633 36.841818 
L 307.313085 236.078182 
L 307.992321 36.841818 
L 308.006773 236.078182 
L 308.512587 36.841818 
L 308.527039 236.078182 
L 309.206276 36.841818 
L 309.220728 236.078182 
L 309.683187 36.841818 
L 309.697638 236.078182 
L 310.203453 36.841818 
L 310.217905 236.078182 
L 310.897141 36.841818 
L 310.911593 236.078182 
L 311.446311 36.841818 
L 311.460763 236.078182 
L 312.14 36.841818 
L 312.154451 236.078182 
L 312.61691 36.841818 
L 312.631362 236.078182 
L 313.137177 36.841818 
L 313.151628 236.078182 
L 313.830865 36.841818 
L 313.845317 236.078182 
L 314.351131 36.841818 
L 314.365583 236.078182 
L 315.04482 36.841818 
L 315.059271 236.078182 
L 315.52173 36.841818 
L 315.536182 236.078182 
L 316.041997 36.841818 
L 316.056448 236.078182 
L 316.735685 36.841818 
L 316.750137 236.078182 
L 317.255951 36.841818 
L 317.270403 236.078182 
L 317.94964 36.841818 
L 317.964092 236.078182 
L 318.42655 36.841818 
L 318.441002 236.078182 
L 318.97572 36.841818 
L 318.990172 236.078182 
L 319.669409 36.841818 
L 319.683861 236.078182 
L 320.189675 36.841818 
L 320.204127 236.078182 
L 320.883363 36.841818 
L 320.897815 236.078182 
L 321.360274 36.841818 
L 321.374726 236.078182 
L 321.88054 36.841818 
L 321.894992 236.078182 
L 322.574229 36.841818 
L 322.588681 236.078182 
L 323.094495 36.841818 
L 323.108947 236.078182 
L 323.788183 36.841818 
L 323.802635 236.078182 
L 324.265094 36.841818 
L 324.279546 236.078182 
L 324.785361 36.841818 
L 324.799812 236.078182 
L 325.479049 36.841818 
L 325.493501 236.078182 
L 326.028219 36.841818 
L 326.042671 236.078182 
L 326.721907 36.841818 
L 326.736359 236.078182 
L 327.198818 36.841818 
L 327.21327 236.078182 
L 327.719084 36.841818 
L 327.733536 236.078182 
L 328.412773 36.841818 
L 328.427225 236.078182 
L 328.933039 36.841818 
L 328.947491 236.078182 
L 329.626727 36.841818 
L 329.641179 236.078182 
L 330.103638 36.841818 
L 330.11809 236.078182 
L 330.623904 36.841818 
L 330.638356 236.078182 
L 331.317593 36.841818 
L 331.332045 236.078182 
L 331.837859 36.841818 
L 331.852311 236.078182 
L 332.531547 36.841818 
L 332.545999 236.078182 
L 333.008458 36.841818 
L 333.02291 236.078182 
L 333.557628 36.841818 
L 333.57208 236.078182 
L 334.251316 36.841818 
L 334.265768 236.078182 
L 334.771583 36.841818 
L 334.786035 236.078182 
L 335.465271 36.841818 
L 335.479723 236.078182 
L 335.942182 36.841818 
L 335.956634 236.078182 
L 336.462448 36.841818 
L 336.4769 236.078182 
L 337.156137 36.841818 
L 337.170588 236.078182 
L 337.676403 36.841818 
L 337.690855 236.078182 
L 338.370091 36.841818 
L 338.384543 236.078182 
L 338.847002 36.841818 
L 338.861454 236.078182 
L 339.367268 36.841818 
L 339.38172 236.078182 
L 340.060957 36.841818 
L 340.075408 236.078182 
L 340.610127 36.841818 
L 340.624578 236.078182 
L 341.303815 36.841818 
L 341.318267 236.078182 
L 341.780726 36.841818 
L 341.795178 236.078182 
L 342.300992 36.841818 
L 342.315444 236.078182 
L 342.99468 36.841818 
L 343.009132 236.078182 
L 343.514947 36.841818 
L 343.529399 236.078182 
L 344.208635 36.841818 
L 344.223087 236.078182 
L 344.685546 36.841818 
L 344.699998 236.078182 
L 345.205812 36.841818 
L 345.220264 236.078182 
L 345.8995 36.841818 
L 345.913952 236.078182 
L 346.419767 36.841818 
L 346.434219 236.078182 
L 347.113455 36.841818 
L 347.127907 236.078182 
L 347.590366 36.841818 
L 347.604818 236.078182 
L 348.139536 36.841818 
L 348.153988 236.078182 
L 348.833224 36.841818 
L 348.847676 236.078182 
L 349.353491 36.841818 
L 349.367942 236.078182 
L 350.047179 36.841818 
L 350.061631 236.078182 
L 350.52409 36.841818 
L 350.538541 236.078182 
L 351.044356 36.841818 
L 351.058808 236.078182 
L 351.738044 36.841818 
L 351.752496 236.078182 
L 352.258311 36.841818 
L 352.272762 236.078182 
L 352.951999 36.841818 
L 352.966451 236.078182 
L 353.42891 36.841818 
L 353.443362 236.078182 
L 353.949176 36.841818 
L 353.963628 236.078182 
L 354.642864 36.841818 
L 354.657316 236.078182 
L 355.192034 36.841818 
L 355.206486 236.078182 
L 355.885723 36.841818 
L 355.900175 236.078182 
L 356.362633 36.841818 
L 356.377085 236.078182 
L 356.8829 36.841818 
L 356.897352 236.078182 
L 357.576588 36.841818 
L 357.59104 236.078182 
L 358.096854 36.841818 
L 358.111306 236.078182 
L 358.790543 36.841818 
L 358.804995 236.078182 
L 359.267454 36.841818 
L 359.281905 236.078182 
L 359.78772 36.841818 
L 359.802172 236.078182 
L 360.510312 36.841818 
L 360.524764 236.078182 
L 361.030578 36.841818 
L 361.04503 236.078182 
L 361.724267 36.841818 
L 361.738718 236.078182 
L 362.201177 36.841818 
L 362.215629 236.078182 
L 362.750347 36.841818 
L 362.764799 236.078182 
L 363.444036 36.841818 
L 363.458487 236.078182 
L 363.964302 36.841818 
L 363.978754 236.078182 
L 364.65799 36.841818 
L 364.672442 236.078182 
L 365.134901 36.841818 
L 365.149353 236.078182 
L 365.655167 36.841818 
L 365.669619 236.078182 
L 366.348856 36.841818 
L 366.363308 236.078182 
L 366.869122 36.841818 
L 366.883574 236.078182 
L 367.591714 36.841818 
L 367.606166 236.078182 
L 368.068625 36.841818 
L 368.083077 236.078182 
L 368.588891 36.841818 
L 368.603343 236.078182 
L 369.282579 36.841818 
L 369.297031 236.078182 
L 369.831749 36.841818 
L 369.846201 236.078182 
L 370.525438 36.841818 
L 370.53989 236.078182 
L 371.002349 36.841818 
L 371.0168 236.078182 
L 371.522615 36.841818 
L 371.537067 236.078182 
L 372.216303 36.841818 
L 372.230755 236.078182 
L 372.73657 36.841818 
L 372.751021 236.078182 
L 373.430258 36.841818 
L 373.44471 236.078182 
L 373.907169 36.841818 
L 373.92162 236.078182 
L 374.427435 36.841818 
L 374.441887 236.078182 
L 375.150027 36.841818 
L 375.164479 236.078182 
L 375.670293 36.841818 
L 375.684745 236.078182 
L 376.363982 36.841818 
L 376.378433 236.078182 
L 376.840892 36.841818 
L 376.855344 236.078182 
L 377.390062 36.841818 
L 377.404514 236.078182 
L 378.083751 36.841818 
L 378.098203 236.078182 
L 378.604017 36.841818 
L 378.618469 236.078182 
L 379.297705 36.841818 
L 379.312157 236.078182 
L 379.774616 36.841818 
L 379.789068 236.078182 
L 380.294882 36.841818 
L 380.309334 236.078182 
L 380.988571 36.841818 
L 381.003023 236.078182 
L 381.508837 36.841818 
L 381.523289 236.078182 
L 382.231429 36.841818 
L 382.245881 236.078182 
L 382.70834 36.841818 
L 382.722792 236.078182 
L 383.228606 36.841818 
L 383.243058 236.078182 
L 383.922295 36.841818 
L 383.936746 236.078182 
L 384.471465 36.841818 
L 384.485916 236.078182 
L 385.165153 36.841818 
L 385.179605 236.078182 
L 385.642064 36.841818 
L 385.656516 236.078182 
L 386.16233 36.841818 
L 386.176782 236.078182 
L 386.856018 36.841818 
L 386.87047 236.078182 
L 387.376285 36.841818 
L 387.390736 236.078182 
L 388.069973 36.841818 
L 388.084425 236.078182 
L 388.546884 36.841818 
L 388.561336 236.078182 
L 389.06715 36.841818 
L 389.081602 236.078182 
L 389.789742 36.841818 
L 389.804194 236.078182 
L 390.310008 36.841818 
L 390.32446 236.078182 
L 391.003697 36.841818 
L 391.018149 236.078182 
L 391.480608 36.841818 
L 391.495059 236.078182 
L 392.029777 36.841818 
L 392.044229 236.078182 
L 392.723466 36.841818 
L 392.737918 236.078182 
L 393.243732 36.841818 
L 393.258184 236.078182 
L 393.937421 36.841818 
L 393.951872 236.078182 
L 394.414331 36.841818 
L 394.428783 236.078182 
L 394.934598 36.841818 
L 394.949049 236.078182 
L 395.628286 36.841818 
L 395.642738 236.078182 
L 396.148552 36.841818 
L 396.163004 236.078182 
L 396.871144 36.841818 
L 396.885596 236.078182 
L 397.348055 36.841818 
L 397.362507 236.078182 
L 397.868321 36.841818 
L 397.882773 236.078182 
L 398.56201 36.841818 
L 398.576462 236.078182 
L 399.11118 36.841818 
L 399.125631 236.078182 
L 399.804868 36.841818 
L 399.81932 236.078182 
L 400.281779 36.841818 
L 400.296231 236.078182 
L 400.802045 36.841818 
L 400.816497 236.078182 
L 401.495733 36.841818 
L 401.510185 236.078182 
L 402.016 36.841818 
L 402.030452 236.078182 
L 402.709688 36.841818 
L 402.72414 236.078182 
L 403.186599 36.841818 
L 403.201051 236.078182 
L 403.706865 36.841818 
L 403.721317 236.078182 
L 404.429457 36.841818 
L 404.443909 236.078182 
L 404.949723 36.841818 
L 404.964175 236.078182 
L 405.643412 36.841818 
L 405.657864 236.078182 
L 406.120323 36.841818 
L 406.134774 236.078182 
L 406.669493 36.841818 
L 406.683944 236.078182 
L 407.363181 36.841818 
L 407.377633 236.078182 
L 407.883447 36.841818 
L 407.897899 236.078182 
L 408.577136 36.841818 
L 408.591587 236.078182 
L 409.054046 36.841818 
L 409.068498 236.078182 
L 409.574313 36.841818 
L 409.588764 236.078182 
L 410.268001 36.841818 
L 410.282453 236.078182 
L 410.788267 36.841818 
L 410.802719 236.078182 
L 411.510859 36.841818 
L 411.525311 236.078182 
L 411.98777 36.841818 
L 412.002222 236.078182 
L 412.508036 36.841818 
L 412.522488 236.078182 
L 413.201725 36.841818 
L 413.216177 236.078182 
L 413.750895 36.841818 
L 413.765347 236.078182 
L 414.444583 36.841818 
L 414.459035 236.078182 
L 414.921494 36.841818 
L 414.935946 236.078182 
L 415.44176 36.841818 
L 415.456212 236.078182 
L 416.135449 36.841818 
L 416.1499 236.078182 
L 416.655715 36.841818 
L 416.670167 236.078182 
L 417.349403 36.841818 
L 417.363855 236.078182 
L 417.826314 36.841818 
L 417.840766 236.078182 
L 418.34658 36.841818 
L 418.361032 236.078182 
L 419.069172 36.841818 
L 419.083624 236.078182 
L 419.589439 36.841818 
L 419.60389 236.078182 
L 420.283127 36.841818 
L 420.297579 236.078182 
L 420.760038 36.841818 
L 420.77449 236.078182 
L 421.309208 36.841818 
L 421.32366 236.078182 
L 422.002896 36.841818 
L 422.017348 236.078182 
L 422.523162 36.841818 
L 422.537614 236.078182 
L 423.216851 36.841818 
L 423.231303 236.078182 
L 423.693761 36.841818 
L 423.708213 236.078182 
L 424.214028 36.841818 
L 424.22848 236.078182 
L 424.907716 36.841818 
L 424.922168 236.078182 
L 425.427982 36.841818 
L 425.442434 236.078182 
L 426.150574 36.841818 
L 426.165026 236.078182 
L 426.627485 36.841818 
L 426.641937 236.078182 
L 427.147752 36.841818 
L 427.162203 236.078182 
L 427.84144 36.841818 
L 427.855892 236.078182 
L 428.39061 36.841818 
L 428.405062 236.078182 
L 429.084298 36.841818 
L 429.09875 236.078182 
L 429.561209 36.841818 
L 429.575661 236.078182 
L 430.081475 36.841818 
L 430.095927 236.078182 
L 430.775164 36.841818 
L 430.789615 236.078182 
L 431.29543 36.841818 
L 431.309882 236.078182 
L 431.989118 36.841818 
L 432.00357 236.078182 
L 432.466029 36.841818 
L 432.480481 236.078182 
L 432.986295 36.841818 
L 433.000747 236.078182 
L 433.708887 36.841818 
L 433.723339 236.078182 
L 434.229154 36.841818 
L 434.243606 236.078182 
L 434.922842 36.841818 
L 434.937294 236.078182 
L 435.399753 36.841818 
L 435.414205 236.078182 
L 435.948923 36.841818 
L 435.963375 236.078182 
L 436.642611 36.841818 
L 436.657063 236.078182 
L 437.162877 36.841818 
L 437.177329 236.078182 
L 437.856566 36.841818 
L 437.871018 236.078182 
L 438.333477 36.841818 
L 438.347928 236.078182 
L 438.853743 36.841818 
L 438.868195 236.078182 
L 439.547431 36.841818 
L 439.561883 236.078182 
L 440.067698 36.841818 
L 440.082149 236.078182 
L 440.79029 36.841818 
L 440.804741 236.078182 
L 441.2672 36.841818 
L 441.281652 236.078182 
L 441.787467 36.841818 
L 441.801918 236.078182 
L 442.481155 36.841818 
L 442.495607 236.078182 
L 443.030325 36.841818 
L 443.044777 236.078182 
L 443.724013 36.841818 
L 443.738465 236.078182 
L 444.200924 36.841818 
L 444.215376 236.078182 
L 444.72119 36.841818 
L 444.735642 236.078182 
L 445.414879 36.841818 
L 445.429331 236.078182 
L 445.935145 36.841818 
L 445.949597 236.078182 
L 446.628833 36.841818 
L 446.643285 236.078182 
L 447.105744 36.841818 
L 447.120196 236.078182 
L 447.62601 36.841818 
L 447.640462 236.078182 
L 448.348603 36.841818 
L 448.363054 236.078182 
L 448.868869 36.841818 
L 448.883321 236.078182 
L 449.562557 36.841818 
L 449.577009 236.078182 
L 450.039468 36.841818 
L 450.05392 236.078182 
L 450.588638 36.841818 
L 450.60309 236.078182 
L 451.282326 36.841818 
L 451.296778 236.078182 
L 451.802593 36.841818 
L 451.817044 236.078182 
L 452.496281 36.841818 
L 452.510733 236.078182 
L 452.973192 36.841818 
L 452.987644 236.078182 
L 453.493458 36.841818 
L 453.50791 236.078182 
L 454.187146 36.841818 
L 454.201598 236.078182 
L 454.707413 36.841818 
L 454.721864 236.078182 
L 455.430005 36.841818 
L 455.444457 236.078182 
L 455.906915 36.841818 
L 455.921367 236.078182 
L 456.427182 36.841818 
L 456.441634 236.078182 
L 457.12087 36.841818 
L 457.135322 236.078182 
L 457.67004 36.841818 
L 457.684492 236.078182 
L 458.363728 36.841818 
L 458.37818 236.078182 
L 458.840639 36.841818 
L 458.855091 236.078182 
L 459.360905 36.841818 
L 459.375357 236.078182 
L 460.054594 36.841818 
L 460.069046 236.078182 
L 460.57486 36.841818 
L 460.589312 236.078182 
L 461.268549 36.841818 
L 461.283 236.078182 
L 461.745459 36.841818 
L 461.759911 236.078182 
L 462.265726 36.841818 
L 462.280177 236.078182 
L 462.988318 36.841818 
L 463.002769 236.078182 
L 463.508584 36.841818 
L 463.523036 236.078182 
L 464.202272 36.841818 
L 464.216724 236.078182 
L 464.679183 36.841818 
L 464.693635 236.078182 
L 465.228353 36.841818 
L 465.242805 236.078182 
L 465.922041 36.841818 
L 465.936493 236.078182 
L 466.442308 36.841818 
L 466.456759 236.078182 
L 467.135996 36.841818 
L 467.150448 236.078182 
L 467.612907 36.841818 
L 467.627359 236.078182 
L 468.133173 36.841818 
L 468.147625 236.078182 
L 468.826861 36.841818 
L 468.841313 236.078182 
L 469.347128 36.841818 
L 469.36158 236.078182 
L 470.06972 36.841818 
L 470.084172 236.078182 
L 470.546631 36.841818 
L 470.561082 236.078182 
L 471.066897 36.841818 
L 471.081349 236.078182 
L 471.760585 36.841818 
L 471.775037 236.078182 
L 472.309755 36.841818 
L 472.324207 236.078182 
L 473.003444 36.841818 
L 473.017895 236.078182 
L 473.480354 36.841818 
L 473.494806 236.078182 
L 474.000621 36.841818 
L 474.015072 236.078182 
L 474.694309 36.841818 
L 474.708761 236.078182 
L 475.214575 36.841818 
L 475.229027 236.078182 
L 475.908264 36.841818 
L 475.922715 236.078182 
L 476.385174 36.841818 
L 476.399626 236.078182 
L 476.905441 36.841818 
L 476.919892 236.078182 
L 477.599129 36.841818 
L 477.613581 236.078182 
L 478.119395 36.841818 
L 478.133847 236.078182 
L 478.813084 36.841818 
L 478.827536 236.078182 
L 479.289994 36.841818 
L 479.304446 236.078182 
L 479.839164 36.841818 
L 479.853616 236.078182 
L 480.532853 36.841818 
L 480.547305 236.078182 
L 481.053119 36.841818 
L 481.067571 236.078182 
L 481.746807 36.841818 
L 481.761259 236.078182 
L 482.223718 36.841818 
L 482.23817 236.078182 
L 482.743984 36.841818 
L 482.758436 236.078182 
L 483.437673 36.841818 
L 483.452125 236.078182 
L 483.957939 36.841818 
L 483.972391 236.078182 
L 484.651628 36.841818 
L 484.666079 236.078182 
L 485.128538 36.841818 
L 485.14299 236.078182 
L 485.648805 36.841818 
L 485.663256 236.078182 
L 486.342493 36.841818 
L 486.356945 236.078182 
L 486.891663 36.841818 
L 486.906115 236.078182 
L 487.585351 36.841818 
L 487.599803 236.078182 
L 488.062262 36.841818 
L 488.076714 236.078182 
L 488.582528 36.841818 
L 488.59698 236.078182 
L 489.276217 36.841818 
L 489.290669 236.078182 
L 489.796483 36.841818 
L 489.810935 236.078182 
L 490.490171 36.841818 
L 490.504623 236.078182 
L 490.967082 36.841818 
L 490.981534 236.078182 
L 491.487348 36.841818 
L 491.5018 236.078182 
L 492.181037 36.841818 
L 492.195489 236.078182 
L 492.701303 36.841818 
L 492.715755 236.078182 
L 493.394991 36.841818 
L 493.409443 236.078182 
L 493.871902 36.841818 
L 493.886354 236.078182 
L 494.421072 36.841818 
L 494.435524 236.078182 
L 495.114761 36.841818 
L 495.129212 236.078182 
L 495.635027 36.841818 
L 495.649479 236.078182 
L 496.328715 36.841818 
L 496.343167 236.078182 
L 496.805626 36.841818 
L 496.820078 236.078182 
L 497.325892 36.841818 
L 497.340344 236.078182 
L 498.019581 36.841818 
L 498.034032 236.078182 
L 498.539847 36.841818 
L 498.554299 236.078182 
L 499.233535 36.841818 
L 499.247987 236.078182 
L 499.710446 36.841818 
L 499.724898 236.078182 
L 500.230712 36.841818 
L 500.245164 236.078182 
L 500.924401 36.841818 
L 500.938853 236.078182 
L 501.473571 36.841818 
L 501.488022 236.078182 
L 502.167259 36.841818 
L 502.181711 236.078182 
L 502.64417 36.841818 
L 502.658622 236.078182 
L 503.164436 36.841818 
L 503.178888 236.078182 
L 503.858124 36.841818 
L 503.872576 236.078182 
L 504.378391 36.841818 
L 504.392843 236.078182 
L 505.072079 36.841818 
L 505.086531 236.078182 
L 505.54899 36.841818 
L 505.563442 236.078182 
L 506.069256 36.841818 
L 506.083708 236.078182 
L 506.762944 36.841818 
L 506.777396 236.078182 
L 507.283211 36.841818 
L 507.297663 236.078182 
L 507.976899 36.841818 
L 507.991351 236.078182 
L 508.45381 36.841818 
L 508.468262 236.078182 
L 509.00298 36.841818 
L 509.017432 236.078182 
L 509.696668 36.841818 
L 509.71112 236.078182 
L 510.216935 36.841818 
L 510.231386 236.078182 
L 510.910623 36.841818 
L 510.925075 236.078182 
L 511.387534 36.841818 
L 511.401986 236.078182 
L 511.9078 36.841818 
L 511.922252 236.078182 
L 512.601488 36.841818 
L 512.61594 236.078182 
L 513.121755 36.841818 
L 513.136206 236.078182 
L 513.815443 36.841818 
L 513.829895 236.078182 
L 514.292354 36.841818 
L 514.306806 236.078182 
L 514.81262 36.841818 
L 514.827072 236.078182 
L 515.506308 36.841818 
L 515.52076 236.078182 
L 516.055478 36.841818 
L 516.06993 236.078182 
L 516.749167 36.841818 
L 516.763619 236.078182 
L 517.226078 36.841818 
L 517.240529 236.078182 
L 517.746344 36.841818 
L 517.760796 236.078182 
L 518.440032 36.841818 
L 518.454484 236.078182 
L 518.960298 36.841818 
L 518.97475 236.078182 
L 519.653987 36.841818 
L 519.668439 236.078182 
L 520.130898 36.841818 
L 520.145349 236.078182 
L 520.651164 36.841818 
L 520.665616 236.078182 
L 521.344852 36.841818 
L 521.359304 236.078182 
L 521.865119 36.841818 
L 521.87957 236.078182 
L 522.558807 36.841818 
L 522.573259 236.078182 
L 523.035718 36.841818 
L 523.050169 236.078182 
L 523.584888 36.841818 
L 523.599339 236.078182 
L 524.278576 36.841818 
L 524.293028 236.078182 
L 524.798842 36.841818 
L 524.813294 236.078182 
L 525.492531 36.841818 
L 525.506982 236.078182 
L 525.969441 36.841818 
L 525.983893 236.078182 
L 526.489708 36.841818 
L 526.50416 236.078182 
L 527.183396 36.841818 
L 527.197848 236.078182 
L 527.703662 36.841818 
L 527.718114 236.078182 
L 528.397351 36.841818 
L 528.411803 236.078182 
L 528.874261 36.841818 
L 528.888713 236.078182 
L 529.394528 36.841818 
L 529.40898 236.078182 
L 530.088216 36.841818 
L 530.102668 236.078182 
L 530.637386 36.841818 
L 530.651838 236.078182 
L 531.331074 36.841818 
L 531.345526 236.078182 
L 531.807985 36.841818 
L 531.822437 236.078182 
L 532.328252 36.841818 
L 532.342703 236.078182 
L 533.02194 36.841818 
L 533.036392 236.078182 
L 533.542206 36.841818 
L 533.556658 236.078182 
L 534.235895 36.841818 
L 534.250346 236.078182 
L 534.712805 36.841818 
L 534.727257 236.078182 
L 535.233072 36.841818 
L 535.247523 236.078182 
L 535.92676 36.841818 
L 535.941212 236.078182 
L 536.447026 36.841818 
L 536.461478 236.078182 
L 537.140715 36.841818 
L 537.155166 236.078182 
L 537.617625 36.841818 
L 537.632077 236.078182 
L 538.166795 36.841818 
L 538.181247 236.078182 
L 538.860484 36.841818 
L 538.874936 236.078182 
L 539.38075 36.841818 
L 539.395202 236.078182 
L 540.074438 36.841818 
L 540.08889 236.078182 
L 540.551349 36.841818 
L 540.565801 236.078182 
L 541.071615 36.841818 
L 541.086067 236.078182 
L 541.765304 36.841818 
L 541.779756 236.078182 
L 542.28557 36.841818 
L 542.300022 236.078182 
L 542.979258 36.841818 
L 542.99371 236.078182 
L 543.456169 36.841818 
L 543.470621 236.078182 
L 543.976436 36.841818 
L 543.990887 236.078182 
L 544.670124 36.841818 
L 544.684576 236.078182 
L 545.219294 36.841818 
L 545.233746 236.078182 
L 545.912982 36.841818 
L 545.927434 236.078182 
L 546.389893 36.841818 
L 546.404345 236.078182 
L 546.910159 36.841818 
L 546.924611 236.078182 
L 547.603848 36.841818 
L 547.618299 236.078182 
L 548.124114 36.841818 
L 548.138566 236.078182 
L 548.817802 36.841818 
L 548.832254 236.078182 
L 549.294713 36.841818 
L 549.309165 236.078182 
L 549.814979 36.841818 
L 549.829431 236.078182 
L 550.508668 36.841818 
L 550.52312 236.078182 
L 551.028934 36.841818 
L 551.043386 236.078182 
L 551.722622 36.841818 
L 551.737074 236.078182 
L 552.199533 36.841818 
L 552.213985 236.078182 
L 552.748703 36.841818 
L 552.763155 236.078182 
L 553.442391 36.841818 
L 553.456843 236.078182 
L 553.962658 36.841818 
L 553.97711 236.078182 
L 554.656346 36.841818 
L 554.670798 236.078182 
L 555.133257 36.841818 
L 555.147709 236.078182 
L 555.653523 36.841818 
L 555.667975 236.078182 
L 556.347212 36.841818 
L 556.361663 236.078182 
L 556.867478 36.841818 
L 556.88193 236.078182 
L 557.561166 36.841818 
L 557.575618 236.078182 
L 558.038077 36.841818 
L 558.052529 236.078182 
L 558.558343 36.841818 
L 558.572795 236.078182 
L 559.252032 36.841818 
L 559.266483 236.078182 
L 559.801202 36.841818 
L 559.815653 236.078182 
L 560.49489 36.841818 
L 560.509342 236.078182 
L 560.971801 36.841818 
L 560.986253 236.078182 
L 561.492067 36.841818 
L 561.506519 236.078182 
L 562.185755 36.841818 
L 562.200207 236.078182 
L 562.706022 36.841818 
L 562.720473 236.078182 
L 563.39971 36.841818 
L 563.414162 236.078182 
L 563.876621 36.841818 
L 563.891073 236.078182 
L 564.396887 36.841818 
L 564.411339 236.078182 
L 565.090575 36.841818 
L 565.105027 236.078182 
L 565.610842 36.841818 
L 565.625294 236.078182 
L 566.30453 36.841818 
L 566.318982 236.078182 
L 566.781441 36.841818 
L 566.795893 236.078182 
L 567.330611 36.841818 
L 567.345063 236.078182 
L 568.024299 36.841818 
L 568.038751 236.078182 
L 568.544565 36.841818 
L 568.559017 236.078182 
L 569.238254 36.841818 
L 569.252706 236.078182 
L 569.715165 36.841818 
L 569.729616 236.078182 
L 570.235431 36.841818 
L 570.249883 236.078182 
L 570.929119 36.841818 
L 570.943571 236.078182 
L 571.449386 36.841818 
L 571.463837 236.078182 
L 572.143074 36.841818 
L 572.157526 236.078182 
L 572.619985 36.841818 
L 572.634437 236.078182 
L 573.140251 36.841818 
L 573.154703 236.078182 
L 573.833939 36.841818 
L 573.848391 236.078182 
L 574.383109 36.841818 
L 574.397561 236.078182 
L 575.076798 36.841818 
L 575.09125 236.078182 
L 575.553708 36.841818 
L 575.56816 236.078182 
L 576.073975 36.841818 
L 576.088427 236.078182 
L 576.767663 36.841818 
L 576.782115 236.078182 
L 577.287929 36.841818 
L 577.302381 236.078182 
L 577.981618 36.841818 
L 577.99607 236.078182 
L 578.458529 36.841818 
L 578.47298 236.078182 
L 578.978795 36.841818 
L 578.993247 236.078182 
L 579.672483 36.841818 
L 579.686935 236.078182 
L 580.192749 36.841818 
L 580.207201 236.078182 
L 580.886438 36.841818 
L 580.90089 236.078182 
L 581.363349 36.841818 
L 581.3778 236.078182 
L 581.912519 36.841818 
L 581.92697 236.078182 
L 582.606207 36.841818 
L 582.620659 236.078182 
L 583.126473 36.841818 
L 583.140925 236.078182 
L 583.820162 36.841818 
L 583.834613 236.078182 
L 584.297072 36.841818 
L 584.311524 236.078182 
L 584.817339 36.841818 
L 584.83179 236.078182 
L 585.511027 36.841818 
L 585.525479 236.078182 
L 586.031293 36.841818 
L 586.045745 236.078182 
L 586.724982 36.841818 
L 586.739434 236.078182 
L 587.201892 36.841818 
L 587.216344 236.078182 
L 587.722159 36.841818 
L 587.736611 236.078182 
L 588.415847 36.841818 
L 588.430299 236.078182 
L 588.965017 36.841818 
L 588.979469 236.078182 
L 589.658705 36.841818 
L 589.673157 236.078182 
L 590.135616 36.841818 
L 590.150068 236.078182 
L 590.655882 36.841818 
L 590.670334 236.078182 
L 591.349571 36.841818 
L 591.364023 236.078182 
L 591.869837 36.841818 
L 591.884289 236.078182 
L 592.563526 36.841818 
L 592.577977 236.078182 
L 593.040436 36.841818 
L 593.054888 236.078182 
L 593.560703 36.841818 
L 593.575154 236.078182 
L 594.254391 36.841818 
L 594.268843 236.078182 
L 594.774657 36.841818 
L 594.789109 236.078182 
L 595.468346 36.841818 
L 595.482797 236.078182 
L 595.945256 36.841818 
L 595.959708 236.078182 
L 596.494426 36.841818 
L 596.508878 236.078182 
L 597.188115 36.841818 
L 597.202567 236.078182 
L 597.708381 36.841818 
L 597.722833 236.078182 
L 598.402069 36.841818 
L 598.416521 236.078182 
L 598.87898 36.841818 
L 598.893432 236.078182 
L 599.399246 36.841818 
L 599.413698 236.078182 
L 600.092935 36.841818 
L 600.107387 236.078182 
L 600.613201 36.841818 
L 600.627653 236.078182 
L 601.306889 36.841818 
L 601.321341 236.078182 
L 601.7838 36.841818 
L 601.798252 236.078182 
L 602.304066 36.841818 
L 602.318518 236.078182 
L 602.997755 36.841818 
L 603.012207 236.078182 
L 603.546925 36.841818 
L 603.561377 236.078182 
L 604.240613 36.841818 
L 604.255065 236.078182 
L 604.717524 36.841818 
L 604.731976 236.078182 
L 605.23779 36.841818 
L 605.252242 236.078182 
L 605.931479 36.841818 
L 605.94593 236.078182 
L 606.451745 36.841818 
L 606.466197 236.078182 
L 607.145433 36.841818 
L 607.159885 236.078182 
L 607.622344 36.841818 
L 607.636796 236.078182 
L 608.14261 36.841818 
L 608.157062 236.078182 
L 608.836299 36.841818 
L 608.85075 236.078182 
L 609.356565 36.841818 
L 609.371017 236.078182 
L 610.050253 36.841818 
L 610.064705 236.078182 
L 610.527164 36.841818 
L 610.541616 236.078182 
L 611.04743 36.841818 
L 611.061882 236.078182 
L 611.712215 36.841818 
L 611.726667 236.078182 
L 612.261385 36.841818 
L 612.275837 236.078182 
L 613.142947 36.841818 
L 613.157399 236.078182 
L 613.590954 36.841818 
L 613.605406 236.078182 
L 614.125673 36.841818 
L 614.140124 236.078182 
L 615.007235 36.841818 
L 615.021687 236.078182 
L 615.570857 36.841818 
L 615.585308 236.078182 
L 616.943782 36.841818 
L 616.958233 236.078182 
L 617.420692 36.841818 
L 617.435144 236.078182 
L 617.95541 36.841818 
L 617.969862 236.078182 
L 618.663551 36.841818 
L 618.678002 236.078182 
L 619.400595 36.841818 
L 619.415046 236.078182 
L 620.065379 36.841818 
L 620.079831 236.078182 
L 620.556742 36.841818 
L 620.571194 236.078182 
L 621.264882 36.841818 
L 621.279334 236.078182 
L 624.70442 36.841818 
L 624.718872 236.078182 
L 625.224687 36.841818 
L 625.239138 236.078182 
L 625.918375 36.841818 
L 625.932827 236.078182 
L 626.395286 36.841818 
L 626.409738 236.078182 
L 626.915552 36.841818 
L 626.930004 236.078182 
L 627.60924 36.841818 
L 627.623692 236.078182 
L 628.129507 36.841818 
L 628.143958 236.078182 
L 628.823195 36.841818 
L 628.837647 236.078182 
L 629.300106 36.841818 
L 629.314558 236.078182 
L 629.849276 36.841818 
L 629.863728 236.078182 
L 630.542964 36.841818 
L 630.557416 236.078182 
L 631.06323 36.841818 
L 631.077682 236.078182 
L 631.756919 36.841818 
L 631.771371 236.078182 
L 632.23383 36.841818 
L 632.248281 236.078182 
L 632.754096 36.841818 
L 632.768548 236.078182 
L 633.447784 36.841818 
L 633.462236 236.078182 
L 633.96805 36.841818 
L 633.982502 236.078182 
L 634.661739 36.841818 
L 634.676191 236.078182 
L 635.13865 36.841818 
L 635.153101 236.078182 
L 635.658916 36.841818 
L 635.673368 236.078182 
L 636.352604 36.841818 
L 636.367056 236.078182 
L 636.901774 36.841818 
L 636.916226 236.078182 
L 637.595463 36.841818 
L 637.609914 236.078182 
L 638.072373 36.841818 
L 638.086825 236.078182 
L 638.59264 36.841818 
L 638.607091 236.078182 
L 639.286328 36.841818 
L 639.30078 236.078182 
L 639.806594 36.841818 
L 639.821046 236.078182 
L 640.500283 36.841818 
L 640.514734 236.078182 
L 640.977193 36.841818 
L 640.991645 236.078182 
L 641.49746 36.841818 
L 641.511912 236.078182 
L 642.191148 36.841818 
L 642.2056 236.078182 
L 642.711414 36.841818 
L 642.725866 236.078182 
L 643.405103 36.841818 
L 643.419555 236.078182 
L 643.882013 36.841818 
L 643.896465 236.078182 
L 644.431183 36.841818 
L 644.445635 236.078182 
L 645.124872 36.841818 
L 645.139324 236.078182 
L 645.645138 36.841818 
L 645.65959 236.078182 
L 646.338826 36.841818 
L 646.353278 236.078182 
L 646.815737 36.841818 
L 646.830189 236.078182 
L 647.336004 36.841818 
L 647.350455 236.078182 
L 648.029692 36.841818 
L 648.044144 236.078182 
L 648.549958 36.841818 
L 648.56441 236.078182 
L 649.243647 36.841818 
L 649.258098 236.078182 
L 649.720557 36.841818 
L 649.735009 236.078182 
L 650.240824 36.841818 
L 650.255275 236.078182 
L 650.934512 36.841818 
L 650.948964 236.078182 
L 651.483682 36.841818 
L 651.498134 236.078182 
L 652.17737 36.841818 
L 652.191822 236.078182 
L 652.654281 36.841818 
L 652.668733 236.078182 
L 653.174547 36.841818 
L 653.188999 236.078182 
L 653.868236 36.841818 
L 653.882688 236.078182 
L 654.388502 36.841818 
L 654.402954 236.078182 
L 655.08219 36.841818 
L 655.096642 236.078182 
L 655.559101 36.841818 
L 655.573553 236.078182 
L 656.079367 36.841818 
L 656.093819 236.078182 
L 656.773056 36.841818 
L 656.787508 236.078182 
L 657.293322 36.841818 
L 657.307774 236.078182 
L 657.98701 36.841818 
L 658.001462 236.078182 
L 658.463921 36.841818 
L 658.478373 236.078182 
L 659.013091 36.841818 
L 659.027543 236.078182 
L 659.70678 36.841818 
L 659.721231 236.078182 
L 660.227046 36.841818 
L 660.241498 236.078182 
L 660.920734 36.841818 
L 660.935186 236.078182 
L 661.397645 36.841818 
L 661.412097 236.078182 
L 661.917911 36.841818 
L 661.932363 236.078182 
L 662.6116 36.841818 
L 662.626051 236.078182 
L 663.131866 36.841818 
L 663.146318 236.078182 
L 663.825554 36.841818 
L 663.840006 236.078182 
L 664.302465 36.841818 
L 664.316917 236.078182 
L 664.822731 36.841818 
L 664.837183 236.078182 
L 665.51642 36.841818 
L 665.530872 236.078182 
L 666.06559 36.841818 
L 666.080042 236.078182 
L 666.759278 36.841818 
L 666.77373 236.078182 
L 667.236189 36.841818 
L 667.250641 236.078182 
L 667.756455 36.841818 
L 667.770907 236.078182 
L 668.450143 36.841818 
L 668.464595 236.078182 
L 668.97041 36.841818 
L 668.984862 236.078182 
L 669.664098 36.841818 
L 669.67855 236.078182 
L 670.141009 36.841818 
L 670.155461 236.078182 
L 670.661275 36.841818 
L 670.675727 236.078182 
L 671.354964 36.841818 
L 671.369415 236.078182 
L 671.87523 36.841818 
L 671.889682 236.078182 
L 672.568918 36.841818 
L 672.58337 236.078182 
L 673.045829 36.841818 
L 673.060281 236.078182 
L 673.594999 36.841818 
L 673.609451 236.078182 
L 674.288687 36.841818 
L 674.303139 236.078182 
L 674.808954 36.841818 
L 674.823405 236.078182 
L 675.502642 36.841818 
L 675.517094 236.078182 
L 675.979553 36.841818 
L 675.994005 236.078182 
L 676.499819 36.841818 
L 676.514271 236.078182 
L 677.193507 36.841818 
L 677.207959 236.078182 
L 677.713774 36.841818 
L 677.728225 236.078182 
L 678.407462 36.841818 
L 678.421914 236.078182 
L 678.884373 36.841818 
L 678.898825 236.078182 
L 679.404639 36.841818 
L 679.419091 236.078182 
L 679.419091 236.078182 
" clip-path="url(#p012337344b)" style="fill: none; stroke: #1f77b4; stroke-width: 1.5; stroke-linecap: square"/>
   </g>
   <g id="patch_3">
    <path d="M 54.02 246.04 
L 54.02 26.88 
" style="fill: none; stroke: #000000; stroke-width: 0.8; stroke-linejoin: miter; stroke-linecap: square"/>
   </g>
   <g id="patch_4">
    <path d="M 709.2 246.04 
L 709.2 26.88 
" style="fill: none; stroke: #000000; stroke-width: 0.8; stroke-linejoin: miter; stroke-linecap: square"/>
   </g>
   <g id="patch_5">
    <path d="M 54.02 246.04 
L 709.2 246.04 
" style="fill: none; stroke: #000000; stroke-width: 0.8; stroke-linejoin: miter; stroke-linecap: square"/>
   </g>
   <g id="patch_6">
    <path d="M 54.02 26.88 
L 709.2 26.88 
" style="fill: none; stroke: #000000; stroke-width: 0.8; stroke-linejoin: miter; stroke-linecap: square"/>
   </g>
   <g id="text_14">
    <!-- backoffActive:vector (HandoverShowcase.ap2.wlan[0].mac.dcf.channelAccess.contention) -->
    <g transform="translate(111.007188 20.88) scale(0.12 -0.12)">
     <defs>
      <path id="DejaVuSans-62" d="M 3116 1747 
Q 3116 2381 2855 2742 
Q 2594 3103 2138 3103 
Q 1681 3103 1420 2742 
Q 1159 2381 1159 1747 
Q 1159 1113 1420 752 
Q 1681 391 2138 391 
Q 2594 391 2855 752 
Q 3116 1113 3116 1747 
z
M 1159 2969 
Q 1341 3281 1617 3432 
Q 1894 3584 2278 3584 
Q 2916 3584 3314 3078 
Q 3713 2572 3713 1747 
Q 3713 922 3314 415 
Q 2916 -91 2278 -91 
Q 1894 -91 1617 61 
Q 1341 213 1159 525 
L 1159 0 
L 581 0 
L 581 4863 
L 1159 4863 
L 1159 2969 
z
" transform="scale(0.015625)"/>
      <path id="DejaVuSans-63" d="M 3122 3366 
L 3122 2828 
Q 2878 2963 2633 3030 
Q 2388 3097 2138 3097 
Q 1578 3097 1268 2742 
Q 959 2388 959 1747 
Q 959 1106 1268 751 
Q 1578 397 2138 397 
Q 2388 397 2633 464 
Q 2878 531 3122 666 
L 3122 134 
Q 2881 22 2623 -34 
Q 2366 -91 2075 -91 
Q 1284 -91 818 406 
Q 353 903 353 1747 
Q 353 2603 823 3093 
Q 1294 3584 2113 3584 
Q 2378 3584 2631 3529 
Q 2884 3475 3122 3366 
z
" transform="scale(0.015625)"/>
      <path id="DejaVuSans-6b" d="M 581 4863 
L 1159 4863 
L 1159 1991 
L 2875 3500 
L 3609 3500 
L 1753 1863 
L 3688 0 
L 2938 0 
L 1159 1709 
L 1159 0 
L 581 0 
L 581 4863 
z
" transform="scale(0.015625)"/>
      <path id="DejaVuSans-6f" d="M 1959 3097 
Q 1497 3097 1228 2736 
Q 959 2375 959 1747 
Q 959 1119 1226 758 
Q 1494 397 1959 397 
Q 2419 397 2687 759 
Q 2956 1122 2956 1747 
Q 2956 2369 2687 2733 
Q 2419 3097 1959 3097 
z
M 1959 3584 
Q 2709 3584 3137 3096 
Q 3566 2609 3566 1747 
Q 3566 888 3137 398 
Q 2709 -91 1959 -91 
Q 1206 -91 779 398 
Q 353 888 353 1747 
Q 353 2609 779 3096 
Q 1206 3584 1959 3584 
z
" transform="scale(0.015625)"/>
      <path id="DejaVuSans-66" d="M 2375 4863 
L 2375 4384 
L 1825 4384 
Q 1516 4384 1395 4259 
Q 1275 4134 1275 3809 
L 1275 3500 
L 2222 3500 
L 2222 3053 
L 1275 3053 
L 1275 0 
L 697 0 
L 697 3053 
L 147 3053 
L 147 3500 
L 697 3500 
L 697 3744 
Q 697 4328 969 4595 
Q 1241 4863 1831 4863 
L 2375 4863 
z
" transform="scale(0.015625)"/>
      <path id="DejaVuSans-41" d="M 2188 4044 
L 1331 1722 
L 3047 1722 
L 2188 4044 
z
M 1831 4666 
L 2547 4666 
L 4325 0 
L 3669 0 
L 3244 1197 
L 1141 1197 
L 716 0 
L 50 0 
L 1831 4666 
z
" transform="scale(0.015625)"/>
      <path id="DejaVuSans-76" d="M 191 3500 
L 800 3500 
L 1894 563 
L 2988 3500 
L 3597 3500 
L 2284 0 
L 1503 0 
L 191 3500 
z
" transform="scale(0.015625)"/>
      <path id="DejaVuSans-3a" d="M 750 794 
L 1409 794 
L 1409 0 
L 750 0 
L 750 794 
z
M 750 3309 
L 1409 3309 
L 1409 2516 
L 750 2516 
L 750 3309 
z
" transform="scale(0.015625)"/>
      <path id="DejaVuSans-72" d="M 2631 2963 
Q 2534 3019 2420 3045 
Q 2306 3072 2169 3072 
Q 1681 3072 1420 2755 
Q 1159 2438 1159 1844 
L 1159 0 
L 581 0 
L 581 3500 
L 1159 3500 
L 1159 2956 
Q 1341 3275 1631 3429 
Q 1922 3584 2338 3584 
Q 2397 3584 2469 3576 
Q 2541 3569 2628 3553 
L 2631 2963 
z
" transform="scale(0.015625)"/>
      <path id="DejaVuSans-48" d="M 628 4666 
L 1259 4666 
L 1259 2753 
L 3553 2753 
L 3553 4666 
L 4184 4666 
L 4184 0 
L 3553 0 
L 3553 2222 
L 1259 2222 
L 1259 0 
L 628 0 
L 628 4666 
z
" transform="scale(0.015625)"/>
      <path id="DejaVuSans-6e" d="M 3513 2113 
L 3513 0 
L 2938 0 
L 2938 2094 
Q 2938 2591 2744 2837 
Q 2550 3084 2163 3084 
Q 1697 3084 1428 2787 
Q 1159 2491 1159 1978 
L 1159 0 
L 581 0 
L 581 3500 
L 1159 3500 
L 1159 2956 
Q 1366 3272 1645 3428 
Q 1925 3584 2291 3584 
Q 2894 3584 3203 3211 
Q 3513 2838 3513 2113 
z
" transform="scale(0.015625)"/>
      <path id="DejaVuSans-64" d="M 2906 2969 
L 2906 4863 
L 3481 4863 
L 3481 0 
L 2906 0 
L 2906 525 
Q 2725 213 2448 61 
Q 2172 -91 1784 -91 
Q 1150 -91 751 415 
Q 353 922 353 1747 
Q 353 2572 751 3078 
Q 1150 3584 1784 3584 
Q 2172 3584 2448 3432 
Q 2725 3281 2906 2969 
z
M 947 1747 
Q 947 1113 1208 752 
Q 1469 391 1925 391 
Q 2381 391 2643 752 
Q 2906 1113 2906 1747 
Q 2906 2381 2643 2742 
Q 2381 3103 1925 3103 
Q 1469 3103 1208 2742 
Q 947 2381 947 1747 
z
" transform="scale(0.015625)"/>
      <path id="DejaVuSans-53" d="M 3425 4513 
L 3425 3897 
Q 3066 4069 2747 4153 
Q 2428 4238 2131 4238 
Q 1616 4238 1336 4038 
Q 1056 3838 1056 3469 
Q 1056 3159 1242 3001 
Q 1428 2844 1947 2747 
L 2328 2669 
Q 3034 2534 3370 2195 
Q 3706 1856 3706 1288 
Q 3706 609 3251 259 
Q 2797 -91 1919 -91 
Q 1588 -91 1214 -16 
Q 841 59 441 206 
L 441 856 
Q 825 641 1194 531 
Q 1563 422 1919 422 
Q 2459 422 2753 634 
Q 3047 847 3047 1241 
Q 3047 1584 2836 1778 
Q 2625 1972 2144 2069 
L 1759 2144 
Q 1053 2284 737 2584 
Q 422 2884 422 3419 
Q 422 4038 858 4394 
Q 1294 4750 2059 4750 
Q 2388 4750 2728 4690 
Q 3069 4631 3425 4513 
z
" transform="scale(0.015625)"/>
      <path id="DejaVuSans-68" d="M 3513 2113 
L 3513 0 
L 2938 0 
L 2938 2094 
Q 2938 2591 2744 2837 
Q 2550 3084 2163 3084 
Q 1697 3084 1428 2787 
Q 1159 2491 1159 1978 
L 1159 0 
L 581 0 
L 581 4863 
L 1159 4863 
L 1159 2956 
Q 1366 3272 1645 3428 
Q 1925 3584 2291 3584 
Q 2894 3584 3203 3211 
Q 3513 2838 3513 2113 
z
" transform="scale(0.015625)"/>
      <path id="DejaVuSans-77" d="M 269 3500 
L 844 3500 
L 1563 769 
L 2278 3500 
L 2956 3500 
L 3675 769 
L 4391 3500 
L 4966 3500 
L 4050 0 
L 3372 0 
L 2619 2869 
L 1863 0 
L 1184 0 
L 269 3500 
z
" transform="scale(0.015625)"/>
      <path id="DejaVuSans-70" d="M 1159 525 
L 1159 -1331 
L 581 -1331 
L 581 3500 
L 1159 3500 
L 1159 2969 
Q 1341 3281 1617 3432 
Q 1894 3584 2278 3584 
Q 2916 3584 3314 3078 
Q 3713 2572 3713 1747 
Q 3713 922 3314 415 
Q 2916 -91 2278 -91 
Q 1894 -91 1617 61 
Q 1341 213 1159 525 
z
M 3116 1747 
Q 3116 2381 2855 2742 
Q 2594 3103 2138 3103 
Q 1681 3103 1420 2742 
Q 1159 2381 1159 1747 
Q 1159 1113 1420 752 
Q 1681 391 2138 391 
Q 2594 391 2855 752 
Q 3116 1113 3116 1747 
z
" transform="scale(0.015625)"/>
      <path id="DejaVuSans-5b" d="M 550 4863 
L 1875 4863 
L 1875 4416 
L 1125 4416 
L 1125 -397 
L 1875 -397 
L 1875 -844 
L 550 -844 
L 550 4863 
z
" transform="scale(0.015625)"/>
      <path id="DejaVuSans-5d" d="M 1947 4863 
L 1947 -844 
L 622 -844 
L 622 -397 
L 1369 -397 
L 1369 4416 
L 622 4416 
L 622 4863 
L 1947 4863 
z
" transform="scale(0.015625)"/>
     </defs>
     <use xlink:href="#DejaVuSans-62"/>
     <use xlink:href="#DejaVuSans-61" x="63.476562"/>
     <use xlink:href="#DejaVuSans-63" x="124.755859"/>
     <use xlink:href="#DejaVuSans-6b" x="179.736328"/>
     <use xlink:href="#DejaVuSans-6f" x="234.021484"/>
     <use xlink:href="#DejaVuSans-66" x="295.203125"/>
     <use xlink:href="#DejaVuSans-66" x="330.408203"/>
     <use xlink:href="#DejaVuSans-41" x="365.613281"/>
     <use xlink:href="#DejaVuSans-63" x="432.271484"/>
     <use xlink:href="#DejaVuSans-74" x="487.251953"/>
     <use xlink:href="#DejaVuSans-69" x="526.460938"/>
     <use xlink:href="#DejaVuSans-76" x="554.244141"/>
     <use xlink:href="#DejaVuSans-65" x="613.423828"/>
     <use xlink:href="#DejaVuSans-3a" x="674.947266"/>
     <use xlink:href="#DejaVuSans-76" x="708.638672"/>
     <use xlink:href="#DejaVuSans-65" x="767.818359"/>
     <use xlink:href="#DejaVuSans-63" x="829.341797"/>
     <use xlink:href="#DejaVuSans-74" x="884.322266"/>
     <use xlink:href="#DejaVuSans-6f" x="923.53125"/>
     <use xlink:href="#DejaVuSans-72" x="984.712891"/>
     <use xlink:href="#DejaVuSans-20" x="1025.826172"/>
     <use xlink:href="#DejaVuSans-28" x="1057.613281"/>
     <use xlink:href="#DejaVuSans-48" x="1096.626953"/>
     <use xlink:href="#DejaVuSans-61" x="1171.822266"/>
     <use xlink:href="#DejaVuSans-6e" x="1233.101562"/>
     <use xlink:href="#DejaVuSans-64" x="1296.480469"/>
     <use xlink:href="#DejaVuSans-6f" x="1359.957031"/>
     <use xlink:href="#DejaVuSans-76" x="1421.138672"/>
     <use xlink:href="#DejaVuSans-65" x="1480.318359"/>
     <use xlink:href="#DejaVuSans-72" x="1541.841797"/>
     <use xlink:href="#DejaVuSans-53" x="1582.955078"/>
     <use xlink:href="#DejaVuSans-68" x="1646.431641"/>
     <use xlink:href="#DejaVuSans-6f" x="1709.810547"/>
     <use xlink:href="#DejaVuSans-77" x="1770.992188"/>
     <use xlink:href="#DejaVuSans-63" x="1852.779297"/>
     <use xlink:href="#DejaVuSans-61" x="1907.759766"/>
     <use xlink:href="#DejaVuSans-73" x="1969.039062"/>
     <use xlink:href="#DejaVuSans-65" x="2021.138672"/>
     <use xlink:href="#DejaVuSans-2e" x="2082.662109"/>
     <use xlink:href="#DejaVuSans-61" x="2114.449219"/>
     <use xlink:href="#DejaVuSans-70" x="2175.728516"/>
     <use xlink:href="#DejaVuSans-32" x="2239.205078"/>
     <use xlink:href="#DejaVuSans-2e" x="2302.828125"/>
     <use xlink:href="#DejaVuSans-77" x="2334.615234"/>
     <use xlink:href="#DejaVuSans-6c" x="2416.402344"/>
     <use xlink:href="#DejaVuSans-61" x="2444.185547"/>
     <use xlink:href="#DejaVuSans-6e" x="2505.464844"/>
     <use xlink:href="#DejaVuSans-5b" x="2568.84375"/>
     <use xlink:href="#DejaVuSans-30" x="2607.857422"/>
     <use xlink:href="#DejaVuSans-5d" x="2671.480469"/>
     <use xlink:href="#DejaVuSans-2e" x="2710.494141"/>
     <use xlink:href="#DejaVuSans-6d" x="2742.28125"/>
     <use xlink:href="#DejaVuSans-61" x="2839.693359"/>
     <use xlink:href="#DejaVuSans-63" x="2900.972656"/>
     <use xlink:href="#DejaVuSans-2e" x="2955.953125"/>
     <use xlink:href="#DejaVuSans-64" x="2987.740234"/>
     <use xlink:href="#DejaVuSans-63" x="3051.216797"/>
     <use xlink:href="#DejaVuSans-66" x="3106.197266"/>
     <use xlink:href="#DejaVuSans-2e" x="3134.152344"/>
     <use xlink:href="#DejaVuSans-63" x="3165.939453"/>
     <use xlink:href="#DejaVuSans-68" x="3220.919922"/>
     <use xlink:href="#DejaVuSans-61" x="3284.298828"/>
     <use xlink:href="#DejaVuSans-6e" x="3345.578125"/>
     <use xlink:href="#DejaVuSans-6e" x="3408.957031"/>
     <use xlink:href="#DejaVuSans-65" x="3472.335938"/>
     <use xlink:href="#DejaVuSans-6c" x="3533.859375"/>
     <use xlink:href="#DejaVuSans-41" x="3561.642578"/>
     <use xlink:href="#DejaVuSans-63" x="3628.300781"/>
     <use xlink:href="#DejaVuSans-63" x="3683.28125"/>
     <use xlink:href="#DejaVuSans-65" x="3738.261719"/>
     <use xlink:href="#DejaVuSans-73" x="3799.785156"/>
     <use xlink:href="#DejaVuSans-73" x="3851.884766"/>
     <use xlink:href="#DejaVuSans-2e" x="3903.984375"/>
     <use xlink:href="#DejaVuSans-63" x="3935.771484"/>
     <use xlink:href="#DejaVuSans-6f" x="3990.751953"/>
     <use xlink:href="#DejaVuSans-6e" x="4051.933594"/>
     <use xlink:href="#DejaVuSans-74" x="4115.3125"/>
     <use xlink:href="#DejaVuSans-65" x="4154.521484"/>
     <use xlink:href="#DejaVuSans-6e" x="4216.044922"/>
     <use xlink:href="#DejaVuSans-74" x="4279.423828"/>
     <use xlink:href="#DejaVuSans-69" x="4318.632812"/>
     <use xlink:href="#DejaVuSans-6f" x="4346.416016"/>
     <use xlink:href="#DejaVuSans-6e" x="4407.597656"/>
     <use xlink:href="#DejaVuSans-29" x="4470.976562"/>
    </g>
   </g>
   <g id="legend_1">
    <g id="patch_7">
     <path d="M 576.717188 145.299062 
L 702.2 145.299062 
Q 704.2 145.299062 704.2 143.299062 
L 704.2 129.620937 
Q 704.2 127.620937 702.2 127.620937 
L 576.717188 127.620937 
Q 574.717188 127.620937 574.717188 129.620937 
L 574.717188 143.299062 
Q 574.717188 145.299062 576.717188 145.299062 
z
" style="fill: #ffffff; opacity: 0.8; stroke: #cccccc; stroke-linejoin: miter"/>
    </g>
    <g id="line2d_24">
     <path d="M 578.717188 135.719375 
L 588.717188 135.719375 
L 598.717188 135.719375 
" style="fill: none; stroke: #1f77b4; stroke-width: 1.5; stroke-linecap: square"/>
    </g>
    <g id="text_15">
     <!-- value per sample -->
     <g transform="translate(606.717188 139.219375) scale(0.1 -0.1)">
      <defs>
       <path id="DejaVuSans-394" d="M 2188 4044 
L 906 525 
L 3472 525 
L 2188 4044 
z
M 50 0 
L 1831 4666 
L 2547 4666 
L 4325 0 
L 50 0 
z
" transform="scale(0.015625)"/>
      </defs>
      <use xlink:href="#DejaVuSans-394"/>
      <use xlink:href="#DejaVuSans-76" x="68.408203"/>
      <use xlink:href="#DejaVuSans-61" x="127.587891"/>
      <use xlink:href="#DejaVuSans-6c" x="188.867188"/>
      <use xlink:href="#DejaVuSans-75" x="216.650391"/>
      <use xlink:href="#DejaVuSans-65" x="280.029297"/>
      <use xlink:href="#DejaVuSans-20" x="341.552734"/>
      <use xlink:href="#DejaVuSans-70" x="373.339844"/>
      <use xlink:href="#DejaVuSans-65" x="436.816406"/>
      <use xlink:href="#DejaVuSans-72" x="498.339844"/>
      <use xlink:href="#DejaVuSans-20" x="539.453125"/>
      <use xlink:href="#DejaVuSans-73" x="571.240234"/>
      <use xlink:href="#DejaVuSans-61" x="623.339844"/>
      <use xlink:href="#DejaVuSans-6d" x="684.619141"/>
      <use xlink:href="#DejaVuSans-70" x="782.03125"/>
      <use xlink:href="#DejaVuSans-6c" x="845.507812"/>
      <use xlink:href="#DejaVuSans-65" x="873.291016"/>
     </g>
    </g>
   </g>
  </g>
 </g>
 <defs>
  <clipPath id="p012337344b">
   <rect x="54.02" y="26.88" width="655.18" height="219.16"/>
  </clipPath>
 </defs>
</svg>
