<?xml version="1.0" encoding="utf-8" standalone="no"?>
<!DOCTYPE svg PUBLIC "-//W3C//DTD SVG 1.1//EN"
  "http://www.w3.org/Graphics/SVG/1.1/DTD/svg11.dtd">
<svg xmlns:xlink="http://www.w3.org/1999/xlink" width="720pt" height="288pt" viewBox="0 0 720 288" xmlns="http://www.w3.org/2000/svg" version="1.1">
 <metadata>
  <rdf:RDF xmlns:dc="http://purl.org/dc/elements/1.1/" xmlns:cc="http://creativecommons.org/ns#" xmlns:rdf="http://www.w3.org/1999/02/22-rdf-syntax-ns#">
   <cc:Work>
    <dc:type rdf:resource="http://purl.org/dc/dcmitype/StillImage"/>
    <dc:date>2025-07-27T15:08:42.271663</dc:date>
    <dc:format>image/svg+xml</dc:format>
    <dc:creator>
     <cc:Agent>
      <dc:title>Matplotlib v3.9.2, https://matplotlib.org/</dc:title>
     </cc:Agent>
    </dc:creator>
   </cc:Work>
  </rdf:RDF>
 </metadata>
 <defs>
  <style type="text/css">*{stroke-linejoin: round; stroke-linecap: butt}</style>
 </defs>
 <g id="figure_1">
  <g id="patch_1">
   <path d="M 0 288 
L 720 288 
L 720 0 
L 0 0 
z
" style="fill: #ffffff"/>
  </g>
  <g id="axes_1">
   <g id="patch_2">
    <path d="M 56.09 246.04 
L 709.2 246.04 
L 709.2 37.8 
L 56.09 37.8 
z
" style="fill: #ffffff"/>
   </g>
   <g id="matplotlib.axis_1">
    <g id="xtick_1">
     <g id="line2d_1">
      <path d="M 84.114501 246.04 
L 84.114501 37.8 
" clip-path="url(#pbc2ee03251)" style="fill: none; stroke: #b0b0b0; stroke-width: 0.8; stroke-linecap: square"/>
     </g>
     <g id="line2d_2">
      <defs>
       <path id="mf8d25c62cc" d="M 0 0 
L 0 3.5 
" style="stroke: #000000; stroke-width: 0.8"/>
      </defs>
      <g>
       <use xlink:href="#mf8d25c62cc" x="84.114501" y="246.04" style="stroke: #000000; stroke-width: 0.8"/>
      </g>
     </g>
     <g id="text_1">
      <!-- 0 -->
      <g transform="translate(80.933251 260.638438) scale(0.1 -0.1)">
       <defs>
        <path id="DejaVuSans-30" d="M 2034 4250 
Q 1547 4250 1301 3770 
Q 1056 3291 1056 2328 
Q 1056 1369 1301 889 
Q 1547 409 2034 409 
Q 2525 409 2770 889 
Q 3016 1369 3016 2328 
Q 3016 3291 2770 3770 
Q 2525 4250 2034 4250 
z
M 2034 4750 
Q 2819 4750 3233 4129 
Q 3647 3509 3647 2328 
Q 3647 1150 3233 529 
Q 2819 -91 2034 -91 
Q 1250 -91 836 529 
Q 422 1150 422 2328 
Q 422 3509 836 4129 
Q 1250 4750 2034 4750 
z
" transform="scale(0.015625)"/>
       </defs>
       <use xlink:href="#DejaVuSans-30"/>
      </g>
     </g>
    </g>
    <g id="xtick_2">
     <g id="line2d_3">
      <path d="M 228.663829 246.04 
L 228.663829 37.8 
" clip-path="url(#pbc2ee03251)" style="fill: none; stroke: #b0b0b0; stroke-width: 0.8; stroke-linecap: square"/>
     </g>
     <g id="line2d_4">
      <g>
       <use xlink:href="#mf8d25c62cc" x="228.663829" y="246.04" style="stroke: #000000; stroke-width: 0.8"/>
      </g>
     </g>
     <g id="text_2">
      <!-- 10000 -->
      <g transform="translate(212.757579 260.638438) scale(0.1 -0.1)">
       <defs>
        <path id="DejaVuSans-31" d="M 794 531 
L 1825 531 
L 1825 4091 
L 703 3866 
L 703 4441 
L 1819 4666 
L 2450 4666 
L 2450 531 
L 3481 531 
L 3481 0 
L 794 0 
L 794 531 
z
" transform="scale(0.015625)"/>
       </defs>
       <use xlink:href="#DejaVuSans-31"/>
       <use xlink:href="#DejaVuSans-30" x="63.623047"/>
       <use xlink:href="#DejaVuSans-30" x="127.246094"/>
       <use xlink:href="#DejaVuSans-30" x="190.869141"/>
       <use xlink:href="#DejaVuSans-30" x="254.492188"/>
      </g>
     </g>
    </g>
    <g id="xtick_3">
     <g id="line2d_5">
      <path d="M 373.213156 246.04 
L 373.213156 37.8 
" clip-path="url(#pbc2ee03251)" style="fill: none; stroke: #b0b0b0; stroke-width: 0.8; stroke-linecap: square"/>
     </g>
     <g id="line2d_6">
      <g>
       <use xlink:href="#mf8d25c62cc" x="373.213156" y="246.04" style="stroke: #000000; stroke-width: 0.8"/>
      </g>
     </g>
     <g id="text_3">
      <!-- 20000 -->
      <g transform="translate(357.306906 260.638438) scale(0.1 -0.1)">
       <defs>
        <path id="DejaVuSans-32" d="M 1228 531 
L 3431 531 
L 3431 0 
L 469 0 
L 469 531 
Q 828 903 1448 1529 
Q 2069 2156 2228 2338 
Q 2531 2678 2651 2914 
Q 2772 3150 2772 3378 
Q 2772 3750 2511 3984 
Q 2250 4219 1831 4219 
Q 1534 4219 1204 4116 
Q 875 4013 500 3803 
L 500 4441 
Q 881 4594 1212 4672 
Q 1544 4750 1819 4750 
Q 2544 4750 2975 4387 
Q 3406 4025 3406 3419 
Q 3406 3131 3298 2873 
Q 3191 2616 2906 2266 
Q 2828 2175 2409 1742 
Q 1991 1309 1228 531 
z
" transform="scale(0.015625)"/>
       </defs>
       <use xlink:href="#DejaVuSans-32"/>
       <use xlink:href="#DejaVuSans-30" x="63.623047"/>
       <use xlink:href="#DejaVuSans-30" x="127.246094"/>
       <use xlink:href="#DejaVuSans-30" x="190.869141"/>
       <use xlink:href="#DejaVuSans-30" x="254.492188"/>
      </g>
     </g>
    </g>
    <g id="xtick_4">
     <g id="line2d_7">
      <path d="M 517.762484 246.04 
L 517.762484 37.8 
" clip-path="url(#pbc2ee03251)" style="fill: none; stroke: #b0b0b0; stroke-width: 0.8; stroke-linecap: square"/>
     </g>
     <g id="line2d_8">
      <g>
       <use xlink:href="#mf8d25c62cc" x="517.762484" y="246.04" style="stroke: #000000; stroke-width: 0.8"/>
      </g>
     </g>
     <g id="text_4">
      <!-- 30000 -->
      <g transform="translate(501.856234 260.638438) scale(0.1 -0.1)">
       <defs>
        <path id="DejaVuSans-33" d="M 2597 2516 
Q 3050 2419 3304 2112 
Q 3559 1806 3559 1356 
Q 3559 666 3084 287 
Q 2609 -91 1734 -91 
Q 1441 -91 1130 -33 
Q 819 25 488 141 
L 488 750 
Q 750 597 1062 519 
Q 1375 441 1716 441 
Q 2309 441 2620 675 
Q 2931 909 2931 1356 
Q 2931 1769 2642 2001 
Q 2353 2234 1838 2234 
L 1294 2234 
L 1294 2753 
L 1863 2753 
Q 2328 2753 2575 2939 
Q 2822 3125 2822 3475 
Q 2822 3834 2567 4026 
Q 2313 4219 1838 4219 
Q 1578 4219 1281 4162 
Q 984 4106 628 3988 
L 628 4550 
Q 988 4650 1302 4700 
Q 1616 4750 1894 4750 
Q 2613 4750 3031 4423 
Q 3450 4097 3450 3541 
Q 3450 3153 3228 2886 
Q 3006 2619 2597 2516 
z
" transform="scale(0.015625)"/>
       </defs>
       <use xlink:href="#DejaVuSans-33"/>
       <use xlink:href="#DejaVuSans-30" x="63.623047"/>
       <use xlink:href="#DejaVuSans-30" x="127.246094"/>
       <use xlink:href="#DejaVuSans-30" x="190.869141"/>
       <use xlink:href="#DejaVuSans-30" x="254.492188"/>
      </g>
     </g>
    </g>
    <g id="xtick_5">
     <g id="line2d_9">
      <path d="M 662.311812 246.04 
L 662.311812 37.8 
" clip-path="url(#pbc2ee03251)" style="fill: none; stroke: #b0b0b0; stroke-width: 0.8; stroke-linecap: square"/>
     </g>
     <g id="line2d_10">
      <g>
       <use xlink:href="#mf8d25c62cc" x="662.311812" y="246.04" style="stroke: #000000; stroke-width: 0.8"/>
      </g>
     </g>
     <g id="text_5">
      <!-- 40000 -->
      <g transform="translate(646.405562 260.638438) scale(0.1 -0.1)">
       <defs>
        <path id="DejaVuSans-34" d="M 2419 4116 
L 825 1625 
L 2419 1625 
L 2419 4116 
z
M 2253 4666 
L 3047 4666 
L 3047 1625 
L 3713 1625 
L 3713 1100 
L 3047 1100 
L 3047 0 
L 2419 0 
L 2419 1100 
L 313 1100 
L 313 1709 
L 2253 4666 
z
" transform="scale(0.015625)"/>
       </defs>
       <use xlink:href="#DejaVuSans-34"/>
       <use xlink:href="#DejaVuSans-30" x="63.623047"/>
       <use xlink:href="#DejaVuSans-30" x="127.246094"/>
       <use xlink:href="#DejaVuSans-30" x="190.869141"/>
       <use xlink:href="#DejaVuSans-30" x="254.492188"/>
      </g>
     </g>
    </g>
    <g id="text_6">
     <!-- Time (s) -->
     <g transform="translate(362.316094 274.316562) scale(0.1 -0.1)">
      <defs>
       <path id="DejaVuSans-54" d="M -19 4666 
L 3928 4666 
L 3928 4134 
L 2272 4134 
L 2272 0 
L 1638 0 
L 1638 4134 
L -19 4134 
L -19 4666 
z
" transform="scale(0.015625)"/>
       <path id="DejaVuSans-69" d="M 603 3500 
L 1178 3500 
L 1178 0 
L 603 0 
L 603 3500 
z
M 603 4863 
L 1178 4863 
L 1178 4134 
L 603 4134 
L 603 4863 
z
" transform="scale(0.015625)"/>
       <path id="DejaVuSans-6d" d="M 3328 2828 
Q 3544 3216 3844 3400 
Q 4144 3584 4550 3584 
Q 5097 3584 5394 3201 
Q 5691 2819 5691 2113 
L 5691 0 
L 5113 0 
L 5113 2094 
Q 5113 2597 4934 2840 
Q 4756 3084 4391 3084 
Q 3944 3084 3684 2787 
Q 3425 2491 3425 1978 
L 3425 0 
L 2847 0 
L 2847 2094 
Q 2847 2600 2669 2842 
Q 2491 3084 2119 3084 
Q 1678 3084 1418 2786 
Q 1159 2488 1159 1978 
L 1159 0 
L 581 0 
L 581 3500 
L 1159 3500 
L 1159 2956 
Q 1356 3278 1631 3431 
Q 1906 3584 2284 3584 
Q 2666 3584 2933 3390 
Q 3200 3197 3328 2828 
z
" transform="scale(0.015625)"/>
       <path id="DejaVuSans-65" d="M 3597 1894 
L 3597 1613 
L 953 1613 
Q 991 1019 1311 708 
Q 1631 397 2203 397 
Q 2534 397 2845 478 
Q 3156 559 3463 722 
L 3463 178 
Q 3153 47 2828 -22 
Q 2503 -91 2169 -91 
Q 1331 -91 842 396 
Q 353 884 353 1716 
Q 353 2575 817 3079 
Q 1281 3584 2069 3584 
Q 2775 3584 3186 3129 
Q 3597 2675 3597 1894 
z
M 3022 2063 
Q 3016 2534 2758 2815 
Q 2500 3097 2075 3097 
Q 1594 3097 1305 2825 
Q 1016 2553 972 2059 
L 3022 2063 
z
" transform="scale(0.015625)"/>
       <path id="DejaVuSans-20" transform="scale(0.015625)"/>
       <path id="DejaVuSans-28" d="M 1984 4856 
Q 1566 4138 1362 3434 
Q 1159 2731 1159 2009 
Q 1159 1288 1364 580 
Q 1569 -128 1984 -844 
L 1484 -844 
Q 1016 -109 783 600 
Q 550 1309 550 2009 
Q 550 2706 781 3412 
Q 1013 4119 1484 4856 
L 1984 4856 
z
" transform="scale(0.015625)"/>
       <path id="DejaVuSans-73" d="M 2834 3397 
L 2834 2853 
Q 2591 2978 2328 3040 
Q 2066 3103 1784 3103 
Q 1356 3103 1142 2972 
Q 928 2841 928 2578 
Q 928 2378 1081 2264 
Q 1234 2150 1697 2047 
L 1894 2003 
Q 2506 1872 2764 1633 
Q 3022 1394 3022 966 
Q 3022 478 2636 193 
Q 2250 -91 1575 -91 
Q 1294 -91 989 -36 
Q 684 19 347 128 
L 347 722 
Q 666 556 975 473 
Q 1284 391 1588 391 
Q 1994 391 2212 530 
Q 2431 669 2431 922 
Q 2431 1156 2273 1281 
Q 2116 1406 1581 1522 
L 1381 1569 
Q 847 1681 609 1914 
Q 372 2147 372 2553 
Q 372 3047 722 3315 
Q 1072 3584 1716 3584 
Q 2034 3584 2315 3537 
Q 2597 3491 2834 3397 
z
" transform="scale(0.015625)"/>
       <path id="DejaVuSans-29" d="M 513 4856 
L 1013 4856 
Q 1481 4119 1714 3412 
Q 1947 2706 1947 2009 
Q 1947 1309 1714 600 
Q 1481 -109 1013 -844 
L 513 -844 
Q 928 -128 1133 580 
Q 1338 1288 1338 2009 
Q 1338 2731 1133 3434 
Q 928 4138 513 4856 
z
" transform="scale(0.015625)"/>
      </defs>
      <use xlink:href="#DejaVuSans-54"/>
      <use xlink:href="#DejaVuSans-69" x="57.958984"/>
      <use xlink:href="#DejaVuSans-6d" x="85.742188"/>
      <use xlink:href="#DejaVuSans-65" x="183.154297"/>
      <use xlink:href="#DejaVuSans-20" x="244.677734"/>
      <use xlink:href="#DejaVuSans-28" x="276.464844"/>
      <use xlink:href="#DejaVuSans-73" x="315.478516"/>
      <use xlink:href="#DejaVuSans-29" x="367.578125"/>
     </g>
    </g>
   </g>
   <g id="matplotlib.axis_2">
    <g id="ytick_1">
     <g id="line2d_11">
      <path d="M 56.09 240.75 
L 709.2 240.75 
" clip-path="url(#pbc2ee03251)" style="fill: none; stroke: #b0b0b0; stroke-width: 0.8; stroke-linecap: square"/>
     </g>
     <g id="line2d_12">
      <defs>
       <path id="mc2885b6241" d="M 0 0 
L -3.5 0 
" style="stroke: #000000; stroke-width: 0.8"/>
      </defs>
      <g>
       <use xlink:href="#mc2885b6241" x="56.09" y="240.75" style="stroke: #000000; stroke-width: 0.8"/>
      </g>
     </g>
     <g id="text_7">
      <!-- −0.6 -->
      <g transform="translate(24.807188 244.549219) scale(0.1 -0.1)">
       <defs>
        <path id="DejaVuSans-2212" d="M 678 2272 
L 4684 2272 
L 4684 1741 
L 678 1741 
L 678 2272 
z
" transform="scale(0.015625)"/>
        <path id="DejaVuSans-2e" d="M 684 794 
L 1344 794 
L 1344 0 
L 684 0 
L 684 794 
z
" transform="scale(0.015625)"/>
        <path id="DejaVuSans-36" d="M 2113 2584 
Q 1688 2584 1439 2293 
Q 1191 2003 1191 1497 
Q 1191 994 1439 701 
Q 1688 409 2113 409 
Q 2538 409 2786 701 
Q 3034 994 3034 1497 
Q 3034 2003 2786 2293 
Q 2538 2584 2113 2584 
z
M 3366 4563 
L 3366 3988 
Q 3128 4100 2886 4159 
Q 2644 4219 2406 4219 
Q 1781 4219 1451 3797 
Q 1122 3375 1075 2522 
Q 1259 2794 1537 2939 
Q 1816 3084 2150 3084 
Q 2853 3084 3261 2657 
Q 3669 2231 3669 1497 
Q 3669 778 3244 343 
Q 2819 -91 2113 -91 
Q 1303 -91 875 529 
Q 447 1150 447 2328 
Q 447 3434 972 4092 
Q 1497 4750 2381 4750 
Q 2619 4750 2861 4703 
Q 3103 4656 3366 4563 
z
" transform="scale(0.015625)"/>
       </defs>
       <use xlink:href="#DejaVuSans-2212"/>
       <use xlink:href="#DejaVuSans-30" x="83.789062"/>
       <use xlink:href="#DejaVuSans-2e" x="147.412109"/>
       <use xlink:href="#DejaVuSans-36" x="179.199219"/>
      </g>
     </g>
    </g>
    <g id="ytick_2">
     <g id="line2d_13">
      <path d="M 56.09 214.25 
L 709.2 214.25 
" clip-path="url(#pbc2ee03251)" style="fill: none; stroke: #b0b0b0; stroke-width: 0.8; stroke-linecap: square"/>
     </g>
     <g id="line2d_14">
      <g>
       <use xlink:href="#mc2885b6241" x="56.09" y="214.25" style="stroke: #000000; stroke-width: 0.8"/>
      </g>
     </g>
     <g id="text_8">
      <!-- −0.4 -->
      <g transform="translate(24.807188 218.049219) scale(0.1 -0.1)">
       <use xlink:href="#DejaVuSans-2212"/>
       <use xlink:href="#DejaVuSans-30" x="83.789062"/>
       <use xlink:href="#DejaVuSans-2e" x="147.412109"/>
       <use xlink:href="#DejaVuSans-34" x="179.199219"/>
      </g>
     </g>
    </g>
    <g id="ytick_3">
     <g id="line2d_15">
      <path d="M 56.09 187.5 
L 709.2 187.5 
" clip-path="url(#pbc2ee03251)" style="fill: none; stroke: #b0b0b0; stroke-width: 0.8; stroke-linecap: square"/>
     </g>
     <g id="line2d_16">
      <g>
       <use xlink:href="#mc2885b6241" x="56.09" y="187.5" style="stroke: #000000; stroke-width: 0.8"/>
      </g>
     </g>
     <g id="text_9">
      <!-- −0.2 -->
      <g transform="translate(24.807188 191.299219) scale(0.1 -0.1)">
       <use xlink:href="#DejaVuSans-2212"/>
       <use xlink:href="#DejaVuSans-30" x="83.789062"/>
       <use xlink:href="#DejaVuSans-2e" x="147.412109"/>
       <use xlink:href="#DejaVuSans-32" x="179.199219"/>
      </g>
     </g>
    </g>
    <g id="ytick_4">
     <g id="line2d_17">
      <path d="M 56.09 161 
L 709.2 161 
" clip-path="url(#pbc2ee03251)" style="fill: none; stroke: #b0b0b0; stroke-width: 0.8; stroke-linecap: square"/>
     </g>
     <g id="line2d_18">
      <g>
       <use xlink:href="#mc2885b6241" x="56.09" y="161" style="stroke: #000000; stroke-width: 0.8"/>
      </g>
     </g>
     <g id="text_10">
      <!-- 0.0 -->
      <g transform="translate(33.186875 164.799219) scale(0.1 -0.1)">
       <use xlink:href="#DejaVuSans-30"/>
       <use xlink:href="#DejaVuSans-2e" x="63.623047"/>
       <use xlink:href="#DejaVuSans-30" x="95.410156"/>
      </g>
     </g>
    </g>
    <g id="ytick_5">
     <g id="line2d_19">
      <path d="M 56.09 134.25 
L 709.2 134.25 
" clip-path="url(#pbc2ee03251)" style="fill: none; stroke: #b0b0b0; stroke-width: 0.8; stroke-linecap: square"/>
     </g>
     <g id="line2d_20">
      <g>
       <use xlink:href="#mc2885b6241" x="56.09" y="134.25" style="stroke: #000000; stroke-width: 0.8"/>
      </g>
     </g>
     <g id="text_11">
      <!-- 0.2 -->
      <g transform="translate(33.186875 138.049219) scale(0.1 -0.1)">
       <use xlink:href="#DejaVuSans-30"/>
       <use xlink:href="#DejaVuSans-2e" x="63.623047"/>
       <use xlink:href="#DejaVuSans-32" x="95.410156"/>
      </g>
     </g>
    </g>
    <g id="ytick_6">
     <g id="line2d_21">
      <path d="M 56.09 107.75 
L 709.2 107.75 
" clip-path="url(#pbc2ee03251)" style="fill: none; stroke: #b0b0b0; stroke-width: 0.8; stroke-linecap: square"/>
     </g>
     <g id="line2d_22">
      <g>
       <use xlink:href="#mc2885b6241" x="56.09" y="107.75" style="stroke: #000000; stroke-width: 0.8"/>
      </g>
     </g>
     <g id="text_12">
      <!-- 0.4 -->
      <g transform="translate(33.186875 111.549219) scale(0.1 -0.1)">
       <use xlink:href="#DejaVuSans-30"/>
       <use xlink:href="#DejaVuSans-2e" x="63.623047"/>
       <use xlink:href="#DejaVuSans-34" x="95.410156"/>
      </g>
     </g>
    </g>
    <g id="ytick_7">
     <g id="line2d_23">
      <path d="M 56.09 81 
L 709.2 81 
" clip-path="url(#pbc2ee03251)" style="fill: none; stroke: #b0b0b0; stroke-width: 0.8; stroke-linecap: square"/>
     </g>
     <g id="line2d_24">
      <g>
       <use xlink:href="#mc2885b6241" x="56.09" y="81" style="stroke: #000000; stroke-width: 0.8"/>
      </g>
     </g>
     <g id="text_13">
      <!-- 0.6 -->
      <g transform="translate(33.186875 84.799219) scale(0.1 -0.1)">
       <use xlink:href="#DejaVuSans-30"/>
       <use xlink:href="#DejaVuSans-2e" x="63.623047"/>
       <use xlink:href="#DejaVuSans-36" x="95.410156"/>
      </g>
     </g>
    </g>
    <g id="ytick_8">
     <g id="line2d_25">
      <path d="M 56.09 54.5 
L 709.2 54.5 
" clip-path="url(#pbc2ee03251)" style="fill: none; stroke: #b0b0b0; stroke-width: 0.8; stroke-linecap: square"/>
     </g>
     <g id="line2d_26">
      <g>
       <use xlink:href="#mc2885b6241" x="56.09" y="54.5" style="stroke: #000000; stroke-width: 0.8"/>
      </g>
     </g>
     <g id="text_14">
      <!-- 0.8 -->
      <g transform="translate(33.186875 58.299219) scale(0.1 -0.1)">
       <defs>
        <path id="DejaVuSans-38" d="M 2034 2216 
Q 1584 2216 1326 1975 
Q 1069 1734 1069 1313 
Q 1069 891 1326 650 
Q 1584 409 2034 409 
Q 2484 409 2743 651 
Q 3003 894 3003 1313 
Q 3003 1734 2745 1975 
Q 2488 2216 2034 2216 
z
M 1403 2484 
Q 997 2584 770 2862 
Q 544 3141 544 3541 
Q 544 4100 942 4425 
Q 1341 4750 2034 4750 
Q 2731 4750 3128 4425 
Q 3525 4100 3525 3541 
Q 3525 3141 3298 2862 
Q 3072 2584 2669 2484 
Q 3125 2378 3379 2068 
Q 3634 1759 3634 1313 
Q 3634 634 3220 271 
Q 2806 -91 2034 -91 
Q 1263 -91 848 271 
Q 434 634 434 1313 
Q 434 1759 690 2068 
Q 947 2378 1403 2484 
z
M 1172 3481 
Q 1172 3119 1398 2916 
Q 1625 2713 2034 2713 
Q 2441 2713 2670 2916 
Q 2900 3119 2900 3481 
Q 2900 3844 2670 4047 
Q 2441 4250 2034 4250 
Q 1625 4250 1398 4047 
Q 1172 3844 1172 3481 
z
" transform="scale(0.015625)"/>
       </defs>
       <use xlink:href="#DejaVuSans-30"/>
       <use xlink:href="#DejaVuSans-2e" x="63.623047"/>
       <use xlink:href="#DejaVuSans-38" x="95.410156"/>
      </g>
     </g>
    </g>
    <g id="text_15">
     <!-- Delta Value -->
     <g transform="translate(18.7275 170.580156) rotate(-90) scale(0.1 -0.1)">
      <defs>
       <path id="DejaVuSans-44" d="M 1259 4147 
L 1259 519 
L 2022 519 
Q 2988 519 3436 956 
Q 3884 1394 3884 2338 
Q 3884 3275 3436 3711 
Q 2988 4147 2022 4147 
L 1259 4147 
z
M 628 4666 
L 1925 4666 
Q 3281 4666 3915 4102 
Q 4550 3538 4550 2338 
Q 4550 1131 3912 565 
Q 3275 0 1925 0 
L 628 0 
L 628 4666 
z
" transform="scale(0.015625)"/>
       <path id="DejaVuSans-6c" d="M 603 4863 
L 1178 4863 
L 1178 0 
L 603 0 
L 603 4863 
z
" transform="scale(0.015625)"/>
       <path id="DejaVuSans-74" d="M 1172 4494 
L 1172 3500 
L 2356 3500 
L 2356 3053 
L 1172 3053 
L 1172 1153 
Q 1172 725 1289 603 
Q 1406 481 1766 481 
L 2356 481 
L 2356 0 
L 1766 0 
Q 1100 0 847 248 
Q 594 497 594 1153 
L 594 3053 
L 172 3053 
L 172 3500 
L 594 3500 
L 594 4494 
L 1172 4494 
z
" transform="scale(0.015625)"/>
       <path id="DejaVuSans-61" d="M 2194 1759 
Q 1497 1759 1228 1600 
Q 959 1441 959 1056 
Q 959 750 1161 570 
Q 1363 391 1709 391 
Q 2188 391 2477 730 
Q 2766 1069 2766 1631 
L 2766 1759 
L 2194 1759 
z
M 3341 1997 
L 3341 0 
L 2766 0 
L 2766 531 
Q 2569 213 2275 61 
Q 1981 -91 1556 -91 
Q 1019 -91 701 211 
Q 384 513 384 1019 
Q 384 1609 779 1909 
Q 1175 2209 1959 2209 
L 2766 2209 
L 2766 2266 
Q 2766 2663 2505 2880 
Q 2244 3097 1772 3097 
Q 1472 3097 1187 3025 
Q 903 2953 641 2809 
L 641 3341 
Q 956 3463 1253 3523 
Q 1550 3584 1831 3584 
Q 2591 3584 2966 3190 
Q 3341 2797 3341 1997 
z
" transform="scale(0.015625)"/>
       <path id="DejaVuSans-56" d="M 1831 0 
L 50 4666 
L 709 4666 
L 2188 738 
L 3669 4666 
L 4325 4666 
L 2547 0 
L 1831 0 
z
" transform="scale(0.015625)"/>
       <path id="DejaVuSans-75" d="M 544 1381 
L 544 3500 
L 1119 3500 
L 1119 1403 
Q 1119 906 1312 657 
Q 1506 409 1894 409 
Q 2359 409 2629 706 
Q 2900 1003 2900 1516 
L 2900 3500 
L 3475 3500 
L 3475 0 
L 2900 0 
L 2900 538 
Q 2691 219 2414 64 
Q 2138 -91 1772 -91 
Q 1169 -91 856 284 
Q 544 659 544 1381 
z
M 1991 3584 
L 1991 3584 
z
" transform="scale(0.015625)"/>
      </defs>
      <use xlink:href="#DejaVuSans-44"/>
      <use xlink:href="#DejaVuSans-65" x="77.001953"/>
      <use xlink:href="#DejaVuSans-6c" x="138.525391"/>
      <use xlink:href="#DejaVuSans-74" x="166.308594"/>
      <use xlink:href="#DejaVuSans-61" x="205.517578"/>
      <use xlink:href="#DejaVuSans-20" x="266.796875"/>
      <use xlink:href="#DejaVuSans-56" x="298.583984"/>
      <use xlink:href="#DejaVuSans-61" x="359.242188"/>
      <use xlink:href="#DejaVuSans-6c" x="420.521484"/>
      <use xlink:href="#DejaVuSans-75" x="448.304688"/>
      <use xlink:href="#DejaVuSans-65" x="511.683594"/>
     </g>
    </g>
    <g id="text_16">
     <!-- 1e−14+1e−1 -->
     <g transform="translate(56.09 34.8) scale(0.1 -0.1)">
      <defs>
       <path id="DejaVuSans-2b" d="M 2944 4013 
L 2944 2272 
L 4684 2272 
L 4684 1741 
L 2944 1741 
L 2944 0 
L 2419 0 
L 2419 1741 
L 678 1741 
L 678 2272 
L 2419 2272 
L 2419 4013 
L 2944 4013 
z
" transform="scale(0.015625)"/>
      </defs>
      <use xlink:href="#DejaVuSans-31"/>
      <use xlink:href="#DejaVuSans-65" x="63.623047"/>
      <use xlink:href="#DejaVuSans-2212" x="125.146484"/>
      <use xlink:href="#DejaVuSans-31" x="208.935547"/>
      <use xlink:href="#DejaVuSans-34" x="272.558594"/>
      <use xlink:href="#DejaVuSans-2b" x="336.181641"/>
      <use xlink:href="#DejaVuSans-31" x="419.970703"/>
      <use xlink:href="#DejaVuSans-65" x="483.59375"/>
      <use xlink:href="#DejaVuSans-2212" x="545.117188"/>
      <use xlink:href="#DejaVuSans-31" x="628.90625"/>
     </g>
    </g>
   </g>
   <g id="line2d_27">
    <path d="M 85.776818 161 
L 85.776818 161.25 
L 85.776818 160.5 
L 87.424681 161.25 
L 87.424681 161.25 
L 89.578466 161.25 
L 89.578466 159.75 
L 89.578466 161.25 
L 91.226328 161.25 
L 91.226328 159.75 
L 92.917555 162.75 
L 92.917555 159.75 
L 92.917555 162.75 
L 97.080576 159.75 
L 98.540524 162.75 
L 98.540524 159.75 
L 98.540524 162.75 
L 99.986017 159.75 
L 99.986017 159.75 
L 101.445965 159.75 
L 101.445965 165.75 
L 101.445965 159.75 
L 104.380317 159.75 
L 104.380317 165.75 
L 104.380317 159.75 
L 107.285758 159.75 
L 107.285758 165.75 
L 107.285758 159.75 
L 110.22011 159.75 
L 110.22011 165.75 
L 110.22011 159.75 
L 111.665603 159.75 
L 111.665603 165.75 
L 113.125551 154 
L 113.125551 165.75 
L 113.125551 154 
L 114.571044 165.75 
L 114.571044 165.75 
L 116.030992 154 
L 116.030992 165.75 
L 116.030992 154 
L 117.505396 165.75 
L 117.505396 165.75 
L 118.965344 154 
L 118.965344 165.75 
L 118.965344 154 
L 120.410837 165.75 
L 120.410837 165.75 
L 121.870785 154 
L 121.870785 165.75 
L 121.870785 154 
L 123.316279 165.75 
L 123.316279 165.75 
L 124.805137 154 
L 124.805137 165.75 
L 124.805137 154 
L 126.25063 165.75 
L 126.25063 165.75 
L 127.710578 154 
L 127.710578 165.75 
L 127.710578 154 
L 129.156071 165.75 
L 129.156071 165.75 
L 130.61602 154 
L 130.61602 165.75 
L 130.61602 154 
L 132.090423 165.75 
L 132.090423 165.75 
L 133.550371 154 
L 133.550371 165.75 
L 133.550371 154 
L 134.995864 165.75 
L 134.995864 165.75 
L 136.455812 165.75 
L 136.455812 142 
L 136.455812 165.75 
L 139.390164 165.75 
L 139.390164 142 
L 139.390164 165.75 
L 142.295605 165.75 
L 142.295605 142 
L 142.295605 165.75 
L 145.201047 165.75 
L 145.201047 142 
L 145.201047 165.75 
L 148.135398 165.75 
L 148.135398 142 
L 148.135398 165.75 
L 151.04084 165.75 
L 151.04084 142 
L 151.04084 165.75 
L 153.975191 165.75 
L 153.975191 142 
L 153.975191 165.75 
L 156.880632 165.75 
L 156.880632 142 
L 156.880632 165.75 
L 159.786074 165.75 
L 159.786074 142 
L 159.786074 165.75 
L 162.720425 165.75 
L 162.720425 142 
L 162.720425 165.75 
L 165.625867 165.75 
L 165.625867 142 
L 165.625867 165.75 
L 168.560218 165.75 
L 168.560218 142 
L 168.560218 165.75 
L 171.46566 165.75 
L 171.46566 142 
L 171.46566 165.75 
L 174.371101 165.75 
L 174.371101 142 
L 174.371101 165.75 
L 177.305452 165.75 
L 177.305452 142 
L 177.305452 165.75 
L 180.210894 165.75 
L 180.210894 142 
L 180.210894 165.75 
L 181.656387 165.75 
L 181.656387 142 
L 183.145245 189.5 
L 183.145245 142 
L 183.145245 189.5 
L 184.590739 142 
L 184.590739 142 
L 186.050687 189.5 
L 186.050687 142 
L 186.050687 189.5 
L 187.49618 142 
L 187.49618 142 
L 188.956128 189.5 
L 188.956128 142 
L 188.956128 189.5 
L 190.430531 142 
L 190.430531 142 
L 191.89048 189.5 
L 191.89048 142 
L 191.89048 189.5 
L 193.335973 142 
L 193.335973 142 
L 194.795921 189.5 
L 194.795921 142 
L 194.795921 189.5 
L 196.241414 142 
L 196.241414 142 
L 197.730273 189.5 
L 197.730273 142 
L 197.730273 189.5 
L 199.175766 142 
L 199.175766 142 
L 200.635714 189.5 
L 200.635714 142 
L 200.635714 189.5 
L 202.081207 142 
L 202.081207 142 
L 203.541155 189.5 
L 203.541155 142 
L 203.541155 189.5 
L 205.015559 142 
L 205.015559 142 
L 206.475507 189.5 
L 206.475507 142 
L 206.475507 189.5 
L 207.921 142 
L 207.921 142 
L 209.380948 189.5 
L 209.380948 142 
L 209.380948 189.5 
L 210.826442 142 
L 210.826442 142 
L 212.3153 189.5 
L 212.3153 142 
L 212.3153 189.5 
L 213.760793 142 
L 213.760793 142 
L 215.220741 189.5 
L 215.220741 142 
L 215.220741 189.5 
L 216.666234 142 
L 216.666234 142 
L 218.126183 189.5 
L 218.126183 142 
L 218.126183 189.5 
L 219.600586 142 
L 219.600586 142 
L 221.060534 189.5 
L 221.060534 142 
L 221.060534 189.5 
L 222.506027 142 
L 222.506027 142 
L 223.965975 189.5 
L 223.965975 142 
L 223.965975 189.5 
L 225.411469 142 
L 225.411469 142 
L 226.900327 189.5 
L 226.900327 142 
L 226.900327 189.5 
L 228.34582 142 
L 228.34582 142 
L 229.805768 189.5 
L 229.805768 142 
L 229.805768 189.5 
L 231.251262 142 
L 231.251262 142 
L 232.71121 189.5 
L 232.71121 142 
L 232.71121 189.5 
L 234.185613 142 
L 234.185613 142 
L 235.645561 189.5 
L 235.645561 142 
L 235.645561 189.5 
L 237.091054 142 
L 237.091054 142 
L 238.551003 189.5 
L 238.551003 142 
L 238.551003 189.5 
L 239.996496 142 
L 239.996496 142 
L 241.485354 189.5 
L 241.485354 142 
L 241.485354 189.5 
L 242.930847 142 
L 242.930847 142 
L 244.390795 189.5 
L 244.390795 142 
L 244.390795 189.5 
L 245.836289 142 
L 245.836289 142 
L 247.296237 189.5 
L 247.296237 142 
L 247.296237 189.5 
L 248.77064 142 
L 248.77064 142 
L 250.230588 189.5 
L 250.230588 142 
L 250.230588 189.5 
L 251.676082 142 
L 251.676082 142 
L 253.13603 189.5 
L 253.13603 142 
L 253.13603 189.5 
L 254.581523 142 
L 254.581523 142 
L 256.012561 189.5 
L 256.012561 142 
L 256.012561 189.5 
L 257.645969 142 
L 257.645969 142 
L 259.308286 189.5 
L 259.308286 142 
L 259.308286 189.5 
L 260.927239 142 
L 260.927239 142 
L 263.109933 189.5 
L 263.109933 142 
L 263.109933 189.5 
L 264.613246 142 
L 264.613246 142 
L 266.420113 189.5 
L 266.420113 142 
L 266.420113 189.5 
L 270.39522 142 
L 270.39522 142 
L 271.884078 189.5 
L 271.884078 142 
L 271.884078 189.5 
L 273.300661 142 
L 273.300661 142 
L 274.818429 189.5 
L 274.818429 142 
L 274.818429 189.5 
L 276.235012 142 
L 276.235012 142 
L 277.72387 189.5 
L 277.72387 142 
L 277.72387 189.5 
L 279.140454 142 
L 279.140454 142 
L 280.629312 142 
L 280.629312 236.75 
L 280.629312 142 
L 283.563663 142 
L 283.563663 236.75 
L 283.563663 142 
L 286.469105 142 
L 286.469105 236.75 
L 286.469105 142 
L 289.403456 142 
L 289.403456 236.75 
L 289.403456 142 
L 292.308898 142 
L 292.308898 236.75 
L 292.308898 142 
L 295.214339 142 
L 295.214339 236.75 
L 295.214339 142 
L 298.14869 142 
L 298.14869 236.75 
L 298.14869 142 
L 301.054132 142 
L 301.054132 236.75 
L 301.054132 142 
L 303.988483 142 
L 303.988483 236.75 
L 303.988483 142 
L 306.893925 142 
L 306.893925 236.75 
L 306.893925 142 
L 309.799366 142 
L 309.799366 236.75 
L 309.799366 142 
L 312.733718 142 
L 312.733718 236.75 
L 312.733718 142 
L 315.639159 142 
L 315.639159 236.75 
L 315.639159 142 
L 318.57351 142 
L 318.57351 236.75 
L 318.57351 142 
L 321.478952 142 
L 321.478952 236.75 
L 321.478952 142 
L 324.384393 142 
L 324.384393 236.75 
L 324.384393 142 
L 327.318745 142 
L 327.318745 236.75 
L 327.318745 142 
L 330.224186 142 
L 330.224186 236.75 
L 330.224186 142 
L 333.158538 142 
L 333.158538 236.75 
L 333.158538 142 
L 336.063979 142 
L 336.063979 236.75 
L 336.063979 142 
L 338.969421 142 
L 338.969421 236.75 
L 338.969421 142 
L 341.903772 142 
L 341.903772 236.75 
L 341.903772 142 
L 344.809213 142 
L 344.809213 236.75 
L 344.809213 142 
L 347.743565 142 
L 347.743565 236.75 
L 347.743565 142 
L 350.649006 142 
L 350.649006 236.75 
L 350.649006 142 
L 353.554448 142 
L 353.554448 236.75 
L 353.554448 142 
L 356.488799 142 
L 356.488799 236.75 
L 356.488799 142 
L 359.394241 142 
L 359.394241 236.75 
L 359.394241 142 
L 362.357502 142 
L 362.357502 236.75 
L 362.357502 142 
L 365.262943 142 
L 365.262943 236.75 
L 365.262943 142 
L 368.197295 142 
L 368.197295 236.75 
L 368.197295 142 
L 371.131646 142 
L 371.131646 236.75 
L 371.131646 142 
L 374.037088 142 
L 374.037088 236.75 
L 374.037088 142 
L 377.000349 142 
L 377.000349 236.75 
L 377.000349 142 
L 379.90579 142 
L 379.90579 236.75 
L 379.90579 142 
L 382.840142 142 
L 382.840142 236.75 
L 382.840142 142 
L 385.774493 142 
L 385.774493 236.75 
L 385.774493 142 
L 388.679934 142 
L 388.679934 236.75 
L 388.679934 142 
L 391.643196 142 
L 391.643196 236.75 
L 391.643196 142 
L 394.548637 142 
L 394.548637 236.75 
L 394.548637 142 
L 397.482988 142 
L 397.482988 236.75 
L 397.482988 142 
L 400.41734 142 
L 400.41734 236.75 
L 400.41734 142 
L 403.322781 142 
L 403.322781 236.75 
L 403.322781 142 
L 406.286043 142 
L 406.286043 236.75 
L 406.286043 142 
L 409.191484 142 
L 409.191484 236.75 
L 409.191484 142 
L 412.125835 142 
L 412.125835 236.75 
L 412.125835 142 
L 415.060187 142 
L 415.060187 236.75 
L 415.060187 142 
L 417.965628 142 
L 417.965628 236.75 
L 417.965628 142 
L 420.928889 142 
L 420.928889 236.75 
L 420.928889 142 
L 423.834331 142 
L 423.834331 236.75 
L 423.834331 142 
L 426.768682 142 
L 426.768682 236.75 
L 426.768682 142 
L 429.703034 142 
L 429.703034 236.75 
L 429.703034 142 
L 432.608475 142 
L 432.608475 236.75 
L 432.608475 142 
L 435.571736 142 
L 435.571736 236.75 
L 435.571736 142 
L 438.477178 142 
L 438.477178 236.75 
L 438.477178 142 
L 441.411529 142 
L 441.411529 236.75 
L 441.411529 142 
L 444.345881 142 
L 444.345881 236.75 
L 444.345881 142 
L 447.251322 142 
L 447.251322 236.75 
L 447.251322 142 
L 450.214583 142 
L 450.214583 236.75 
L 450.214583 142 
L 453.120025 142 
L 453.120025 236.75 
L 453.120025 142 
L 456.054376 142 
L 456.054376 236.75 
L 456.054376 142 
L 458.988727 142 
L 458.988727 236.75 
L 458.988727 142 
L 461.894169 142 
L 461.894169 236.75 
L 461.894169 142 
L 464.85743 142 
L 464.85743 236.75 
L 464.85743 142 
L 466.274014 142 
L 466.274014 236.75 
L 467.762872 47.5 
L 467.762872 236.75 
L 467.762872 47.5 
L 469.179455 236.75 
L 469.179455 236.75 
L 470.697223 47.5 
L 470.697223 236.75 
L 470.697223 47.5 
L 472.142716 236.75 
L 472.142716 236.75 
L 473.631574 47.5 
L 473.631574 236.75 
L 473.631574 47.5 
L 475.048158 236.75 
L 475.048158 236.75 
L 476.537016 47.5 
L 476.537016 236.75 
L 476.537016 47.5 
L 477.953599 236.75 
L 477.953599 236.75 
L 479.471367 47.5 
L 479.471367 236.75 
L 479.471367 47.5 
L 480.887951 236.75 
L 480.887951 236.75 
L 482.376809 47.5 
L 482.376809 236.75 
L 482.376809 47.5 
L 483.793392 236.75 
L 483.793392 236.75 
L 485.28225 47.5 
L 485.28225 236.75 
L 485.28225 47.5 
L 486.727743 236.75 
L 486.727743 236.75 
L 488.216602 47.5 
L 488.216602 236.75 
L 488.216602 47.5 
L 489.633185 236.75 
L 489.633185 236.75 
L 491.122043 47.5 
L 491.122043 236.75 
L 491.122043 47.5 
L 492.538626 236.75 
L 492.538626 236.75 
L 494.056394 47.5 
L 494.056394 236.75 
L 494.056394 47.5 
L 495.472978 236.75 
L 495.472978 236.75 
L 496.961836 47.5 
L 496.961836 236.75 
L 496.961836 47.5 
L 498.378419 236.75 
L 498.378419 236.75 
L 499.867277 47.5 
L 499.867277 236.75 
L 499.867277 47.5 
L 501.312771 236.75 
L 501.312771 236.75 
L 502.801629 47.5 
L 502.801629 236.75 
L 502.801629 47.5 
L 504.218212 236.75 
L 504.218212 236.75 
L 505.70707 47.5 
L 505.70707 236.75 
L 505.70707 47.5 
L 507.123654 236.75 
L 507.123654 236.75 
L 508.641422 47.5 
L 508.641422 236.75 
L 508.641422 47.5 
L 510.058005 236.75 
L 510.058005 236.75 
L 511.546863 47.5 
L 511.546863 236.75 
L 511.546863 47.5 
L 512.963446 236.75 
L 512.963446 236.75 
L 514.452304 47.5 
L 514.452304 236.75 
L 514.452304 47.5 
L 515.897798 236.75 
L 515.897798 236.75 
L 517.386656 47.5 
L 517.386656 236.75 
L 517.386656 47.5 
L 518.803239 236.75 
L 518.803239 236.75 
L 520.292097 47.5 
L 520.292097 236.75 
L 520.292097 47.5 
L 521.708681 236.75 
L 521.708681 236.75 
L 523.226449 47.5 
L 523.226449 236.75 
L 523.226449 47.5 
L 524.643032 236.75 
L 524.643032 236.75 
L 526.13189 47.5 
L 526.13189 236.75 
L 526.13189 47.5 
L 527.548474 236.75 
L 527.548474 236.75 
L 529.037332 47.5 
L 529.037332 236.75 
L 529.037332 47.5 
L 530.482825 236.75 
L 530.482825 236.75 
L 531.971683 47.5 
L 531.971683 236.75 
L 531.971683 47.5 
L 533.388266 236.75 
L 533.388266 236.75 
L 534.877124 47.5 
L 534.877124 236.75 
L 534.877124 47.5 
L 536.293708 236.75 
L 536.293708 236.75 
L 537.811476 47.5 
L 537.811476 236.75 
L 537.811476 47.5 
L 539.228059 236.75 
L 539.228059 236.75 
L 540.716917 47.5 
L 540.716917 236.75 
L 540.716917 47.5 
L 542.133501 236.75 
L 542.133501 236.75 
L 543.622359 47.5 
L 543.622359 236.75 
L 543.622359 47.5 
L 545.067852 236.75 
L 545.067852 236.75 
L 546.55671 47.5 
L 546.55671 236.75 
L 546.55671 47.5 
L 547.973294 236.75 
L 547.973294 236.75 
L 549.462152 47.5 
L 549.462152 236.75 
L 549.462152 47.5 
L 550.878735 236.75 
L 550.878735 236.75 
L 552.396503 47.5 
L 552.396503 236.75 
L 552.396503 47.5 
L 553.813086 236.75 
L 553.813086 236.75 
L 555.301945 47.5 
L 555.301945 236.75 
L 555.301945 47.5 
L 556.718528 236.75 
L 556.718528 236.75 
L 558.207386 47.5 
L 558.207386 236.75 
L 558.207386 47.5 
L 559.652879 236.75 
L 559.652879 236.75 
L 561.141737 47.5 
L 561.141737 236.75 
L 561.141737 47.5 
L 562.558321 236.75 
L 562.558321 236.75 
L 564.047179 47.5 
L 564.047179 236.75 
L 564.047179 47.5 
L 565.463762 236.75 
L 565.463762 236.75 
L 566.98153 47.5 
L 566.98153 236.75 
L 566.98153 47.5 
L 568.398114 236.75 
L 568.398114 236.75 
L 569.886972 47.5 
L 569.886972 236.75 
L 569.886972 47.5 
L 571.303555 236.75 
L 571.303555 236.75 
L 572.792413 47.5 
L 572.792413 236.75 
L 572.792413 47.5 
L 574.237906 236.75 
L 574.237906 236.75 
L 575.726765 47.5 
L 575.726765 236.75 
L 575.726765 47.5 
L 577.143348 236.75 
L 577.143348 236.75 
L 578.632206 47.5 
L 578.632206 236.75 
L 578.632206 47.5 
L 580.048789 236.75 
L 580.048789 236.75 
L 581.566557 47.5 
L 581.566557 236.75 
L 581.566557 47.5 
L 582.983141 236.75 
L 582.983141 236.75 
L 584.471999 47.5 
L 584.471999 236.75 
L 584.471999 47.5 
L 585.888582 236.75 
L 585.888582 236.75 
L 587.37744 47.5 
L 587.37744 236.75 
L 587.37744 47.5 
L 588.822934 236.75 
L 588.822934 236.75 
L 590.311792 47.5 
L 590.311792 236.75 
L 590.311792 47.5 
L 591.728375 236.75 
L 591.728375 236.75 
L 593.217233 47.5 
L 593.217233 236.75 
L 593.217233 47.5 
L 594.633817 236.75 
L 594.633817 236.75 
L 596.151585 47.5 
L 596.151585 236.75 
L 596.151585 47.5 
L 597.568168 236.75 
L 597.568168 236.75 
L 599.057026 47.5 
L 599.057026 236.75 
L 599.057026 47.5 
L 600.473609 236.75 
L 600.473609 236.75 
L 601.962467 47.5 
L 601.962467 236.75 
L 601.962467 47.5 
L 603.407961 236.75 
L 603.407961 236.75 
L 604.896819 47.5 
L 604.896819 236.75 
L 604.896819 47.5 
L 606.313402 236.75 
L 606.313402 236.75 
L 607.80226 47.5 
L 607.80226 236.75 
L 607.80226 47.5 
L 609.218844 236.75 
L 609.218844 236.75 
L 610.678792 47.5 
L 610.678792 236.75 
L 610.678792 47.5 
L 612.312199 236.75 
L 612.312199 236.75 
L 613.974517 47.5 
L 613.974517 236.75 
L 613.974517 47.5 
L 616.113847 236.75 
L 616.113847 236.75 
L 617.58825 47.5 
L 617.58825 236.75 
L 617.58825 47.5 
L 619.236112 236.75 
L 619.236112 236.75 
L 620.898429 47.5 
L 620.898429 236.75 
L 620.898429 47.5 
L 625.09036 236.75 
L 625.09036 236.75 
L 626.550308 47.5 
L 626.550308 236.75 
L 626.550308 47.5 
L 627.995801 236.75 
L 627.995801 236.75 
L 629.484659 47.5 
L 629.484659 236.75 
L 629.484659 47.5 
L 630.930153 236.75 
L 630.930153 236.75 
L 632.390101 47.5 
L 632.390101 236.75 
L 632.390101 47.5 
L 633.835594 236.75 
L 633.835594 236.75 
L 635.295542 47.5 
L 635.295542 236.75 
L 635.295542 47.5 
L 636.769946 236.75 
L 636.769946 236.75 
L 638.229894 47.5 
L 638.229894 236.75 
L 638.229894 47.5 
L 639.675387 236.75 
L 639.675387 236.75 
L 641.135335 47.5 
L 641.135335 236.75 
L 641.135335 47.5 
L 642.580829 236.75 
L 642.580829 236.75 
L 644.069687 47.5 
L 644.069687 236.75 
L 644.069687 47.5 
L 645.51518 236.75 
L 645.51518 236.75 
L 646.975128 47.5 
L 646.975128 236.75 
L 646.975128 47.5 
L 648.420621 236.75 
L 648.420621 236.75 
L 649.88057 47.5 
L 649.88057 236.75 
L 649.88057 47.5 
L 651.354973 236.75 
L 651.354973 236.75 
L 652.814921 47.5 
L 652.814921 236.75 
L 652.814921 47.5 
L 654.260414 236.75 
L 654.260414 236.75 
L 655.720362 47.5 
L 655.720362 236.75 
L 655.720362 47.5 
L 657.165856 236.75 
L 657.165856 236.75 
L 658.654714 47.5 
L 658.654714 236.75 
L 658.654714 47.5 
L 660.100207 236.75 
L 660.100207 236.75 
L 661.560155 47.5 
L 661.560155 236.75 
L 661.560155 47.5 
L 663.005649 236.75 
L 663.005649 236.75 
L 664.465597 47.5 
L 664.465597 236.75 
L 664.465597 47.5 
L 665.94 236.75 
L 665.94 236.75 
L 667.399948 47.5 
L 667.399948 236.75 
L 667.399948 47.5 
L 668.845441 236.75 
L 668.845441 236.75 
L 670.30539 47.5 
L 670.30539 236.75 
L 670.30539 47.5 
L 671.750883 236.75 
L 671.750883 236.75 
L 673.239741 47.5 
L 673.239741 236.75 
L 673.239741 47.5 
L 674.685234 236.75 
L 674.685234 236.75 
L 676.145182 47.5 
L 676.145182 236.75 
L 676.145182 47.5 
L 677.590676 236.75 
L 677.590676 236.75 
L 679.050624 47.5 
L 679.050624 236.75 
L 679.050624 47.5 
L 679.513182 236.75 
L 679.513182 236.75 
" clip-path="url(#pbc2ee03251)" style="fill: none; stroke: #1f77b4; stroke-width: 1.5; stroke-linecap: square"/>
   </g>
   <g id="patch_3">
    <path d="M 56.09 246.25 
L 56.09 38 
" style="fill: none; stroke: #000000; stroke-width: 0.8; stroke-linejoin: miter; stroke-linecap: square"/>
   </g>
   <g id="patch_4">
    <path d="M 709.2 246.25 
L 709.2 38 
" style="fill: none; stroke: #000000; stroke-width: 0.8; stroke-linejoin: miter; stroke-linecap: square"/>
   </g>
   <g id="patch_5">
    <path d="M 56.09 246.04 
L 709.2 246.04 
" style="fill: none; stroke: #000000; stroke-width: 0.8; stroke-linejoin: miter; stroke-linecap: square"/>
   </g>
   <g id="patch_6">
    <path d="M 56.09 37.8 
L 709.2 37.8 
" style="fill: none; stroke: #000000; stroke-width: 0.8; stroke-linejoin: miter; stroke-linecap: square"/>
   </g>
   <g id="text_17">
    <!-- incomingDataRate:vector (HandoverShowcase.host2.wlan[0].mac.dcf.channelAccess.pendingQueue) -->
    <g transform="translate(79.440625 21.201563) scale(0.12 -0.12)">
     <defs>
      <path id="DejaVuSans-6e" d="M 3513 2113 
L 3513 0 
L 2938 0 
L 2938 2094 
Q 2938 2591 2744 2837 
Q 2550 3084 2163 3084 
Q 1697 3084 1428 2787 
Q 1159 2491 1159 1978 
L 1159 0 
L 581 0 
L 581 3500 
L 1159 3500 
L 1159 2956 
Q 1366 3272 1645 3428 
Q 1925 3584 2291 3584 
Q 2894 3584 3203 3211 
Q 3513 2838 3513 2113 
z
" transform="scale(0.015625)"/>
      <path id="DejaVuSans-63" d="M 3122 3366 
L 3122 2828 
Q 2878 2963 2633 3030 
Q 2388 3097 2138 3097 
Q 1578 3097 1268 2742 
Q 959 2388 959 1747 
Q 959 1106 1268 751 
Q 1578 397 2138 397 
Q 2388 397 2633 464 
Q 2878 531 3122 666 
L 3122 134 
Q 2881 22 2623 -34 
Q 2366 -91 2075 -91 
Q 1284 -91 818 406 
Q 353 903 353 1747 
Q 353 2603 823 3093 
Q 1294 3584 2113 3584 
Q 2378 3584 2631 3529 
Q 2884 3475 3122 3366 
z
" transform="scale(0.015625)"/>
      <path id="DejaVuSans-6f" d="M 1959 3097 
Q 1497 3097 1228 2736 
Q 959 2375 959 1747 
Q 959 1119 1226 758 
Q 1494 397 1959 397 
Q 2419 397 2687 759 
Q 2956 1122 2956 1747 
Q 2956 2369 2687 2733 
Q 2419 3097 1959 3097 
z
M 1959 3584 
Q 2709 3584 3137 3096 
Q 3566 2609 3566 1747 
Q 3566 888 3137 398 
Q 2709 -91 1959 -91 
Q 1206 -91 779 398 
Q 353 888 353 1747 
Q 353 2609 779 3096 
Q 1206 3584 1959 3584 
z
" transform="scale(0.015625)"/>
      <path id="DejaVuSans-67" d="M 2906 1791 
Q 2906 2416 2648 2759 
Q 2391 3103 1925 3103 
Q 1463 3103 1205 2759 
Q 947 2416 947 1791 
Q 947 1169 1205 825 
Q 1463 481 1925 481 
Q 2391 481 2648 825 
Q 2906 1169 2906 1791 
z
M 3481 434 
Q 3481 -459 3084 -895 
Q 2688 -1331 1869 -1331 
Q 1566 -1331 1297 -1286 
Q 1028 -1241 775 -1147 
L 775 -588 
Q 1028 -725 1275 -790 
Q 1522 -856 1778 -856 
Q 2344 -856 2625 -561 
Q 2906 -266 2906 331 
L 2906 616 
Q 2728 306 2450 153 
Q 2172 0 1784 0 
Q 1141 0 747 490 
Q 353 981 353 1791 
Q 353 2603 747 3093 
Q 1141 3584 1784 3584 
Q 2172 3584 2450 3431 
Q 2728 3278 2906 2969 
L 2906 3500 
L 3481 3500 
L 3481 434 
z
" transform="scale(0.015625)"/>
      <path id="DejaVuSans-52" d="M 2841 2188 
Q 3044 2119 3236 1894 
Q 3428 1669 3622 1275 
L 4263 0 
L 3584 0 
L 2988 1197 
Q 2756 1666 2539 1819 
Q 2322 1972 1947 1972 
L 1259 1972 
L 1259 0 
L 628 0 
L 628 4666 
L 2053 4666 
Q 2853 4666 3247 4331 
Q 3641 3997 3641 3322 
Q 3641 2881 3436 2590 
Q 3231 2300 2841 2188 
z
M 1259 4147 
L 1259 2491 
L 2053 2491 
Q 2509 2491 2742 2702 
Q 2975 2913 2975 3322 
Q 2975 3731 2742 3939 
Q 2509 4147 2053 4147 
L 1259 4147 
z
" transform="scale(0.015625)"/>
      <path id="DejaVuSans-3a" d="M 750 794 
L 1409 794 
L 1409 0 
L 750 0 
L 750 794 
z
M 750 3309 
L 1409 3309 
L 1409 2516 
L 750 2516 
L 750 3309 
z
" transform="scale(0.015625)"/>
      <path id="DejaVuSans-76" d="M 191 3500 
L 800 3500 
L 1894 563 
L 2988 3500 
L 3597 3500 
L 2284 0 
L 1503 0 
L 191 3500 
z
" transform="scale(0.015625)"/>
      <path id="DejaVuSans-72" d="M 2631 2963 
Q 2534 3019 2420 3045 
Q 2306 3072 2169 3072 
Q 1681 3072 1420 2755 
Q 1159 2438 1159 1844 
L 1159 0 
L 581 0 
L 581 3500 
L 1159 3500 
L 1159 2956 
Q 1341 3275 1631 3429 
Q 1922 3584 2338 3584 
Q 2397 3584 2469 3576 
Q 2541 3569 2628 3553 
L 2631 2963 
z
" transform="scale(0.015625)"/>
      <path id="DejaVuSans-48" d="M 628 4666 
L 1259 4666 
L 1259 2753 
L 3553 2753 
L 3553 4666 
L 4184 4666 
L 4184 0 
L 3553 0 
L 3553 2222 
L 1259 2222 
L 1259 0 
L 628 0 
L 628 4666 
z
" transform="scale(0.015625)"/>
      <path id="DejaVuSans-64" d="M 2906 2969 
L 2906 4863 
L 3481 4863 
L 3481 0 
L 2906 0 
L 2906 525 
Q 2725 213 2448 61 
Q 2172 -91 1784 -91 
Q 1150 -91 751 415 
Q 353 922 353 1747 
Q 353 2572 751 3078 
Q 1150 3584 1784 3584 
Q 2172 3584 2448 3432 
Q 2725 3281 2906 2969 
z
M 947 1747 
Q 947 1113 1208 752 
Q 1469 391 1925 391 
Q 2381 391 2643 752 
Q 2906 1113 2906 1747 
Q 2906 2381 2643 2742 
Q 2381 3103 1925 3103 
Q 1469 3103 1208 2742 
Q 947 2381 947 1747 
z
" transform="scale(0.015625)"/>
      <path id="DejaVuSans-53" d="M 3425 4513 
L 3425 3897 
Q 3066 4069 2747 4153 
Q 2428 4238 2131 4238 
Q 1616 4238 1336 4038 
Q 1056 3838 1056 3469 
Q 1056 3159 1242 3001 
Q 1428 2844 1947 2747 
L 2328 2669 
Q 3034 2534 3370 2195 
Q 3706 1856 3706 1288 
Q 3706 609 3251 259 
Q 2797 -91 1919 -91 
Q 1588 -91 1214 -16 
Q 841 59 441 206 
L 441 856 
Q 825 641 1194 531 
Q 1563 422 1919 422 
Q 2459 422 2753 634 
Q 3047 847 3047 1241 
Q 3047 1584 2836 1778 
Q 2625 1972 2144 2069 
L 1759 2144 
Q 1053 2284 737 2584 
Q 422 2884 422 3419 
Q 422 4038 858 4394 
Q 1294 4750 2059 4750 
Q 2388 4750 2728 4690 
Q 3069 4631 3425 4513 
z
" transform="scale(0.015625)"/>
      <path id="DejaVuSans-68" d="M 3513 2113 
L 3513 0 
L 2938 0 
L 2938 2094 
Q 2938 2591 2744 2837 
Q 2550 3084 2163 3084 
Q 1697 3084 1428 2787 
Q 1159 2491 1159 1978 
L 1159 0 
L 581 0 
L 581 4863 
L 1159 4863 
L 1159 2956 
Q 1366 3272 1645 3428 
Q 1925 3584 2291 3584 
Q 2894 3584 3203 3211 
Q 3513 2838 3513 2113 
z
" transform="scale(0.015625)"/>
      <path id="DejaVuSans-77" d="M 269 3500 
L 844 3500 
L 1563 769 
L 2278 3500 
L 2956 3500 
L 3675 769 
L 4391 3500 
L 4966 3500 
L 4050 0 
L 3372 0 
L 2619 2869 
L 1863 0 
L 1184 0 
L 269 3500 
z
" transform="scale(0.015625)"/>
      <path id="DejaVuSans-5b" d="M 550 4863 
L 1875 4863 
L 1875 4416 
L 1125 4416 
L 1125 -397 
L 1875 -397 
L 1875 -844 
L 550 -844 
L 550 4863 
z
" transform="scale(0.015625)"/>
      <path id="DejaVuSans-5d" d="M 1947 4863 
L 1947 -844 
L 622 -844 
L 622 -397 
L 1369 -397 
L 1369 4416 
L 622 4416 
L 622 4863 
L 1947 4863 
z
" transform="scale(0.015625)"/>
      <path id="DejaVuSans-66" d="M 2375 4863 
L 2375 4384 
L 1825 4384 
Q 1516 4384 1395 4259 
Q 1275 4134 1275 3809 
L 1275 3500 
L 2222 3500 
L 2222 3053 
L 1275 3053 
L 1275 0 
L 697 0 
L 697 3053 
L 147 3053 
L 147 3500 
L 697 3500 
L 697 3744 
Q 697 4328 969 4595 
Q 1241 4863 1831 4863 
L 2375 4863 
z
" transform="scale(0.015625)"/>
      <path id="DejaVuSans-41" d="M 2188 4044 
L 1331 1722 
L 3047 1722 
L 2188 4044 
z
M 1831 4666 
L 2547 4666 
L 4325 0 
L 3669 0 
L 3244 1197 
L 1141 1197 
L 716 0 
L 50 0 
L 1831 4666 
z
" transform="scale(0.015625)"/>
      <path id="DejaVuSans-70" d="M 1159 525 
L 1159 -1331 
L 581 -1331 
L 581 3500 
L 1159 3500 
L 1159 2969 
Q 1341 3281 1617 3432 
Q 1894 3584 2278 3584 
Q 2916 3584 3314 3078 
Q 3713 2572 3713 1747 
Q 3713 922 3314 415 
Q 2916 -91 2278 -91 
Q 1894 -91 1617 61 
Q 1341 213 1159 525 
z
M 3116 1747 
Q 3116 2381 2855 2742 
Q 2594 3103 2138 3103 
Q 1681 3103 1420 2742 
Q 1159 2381 1159 1747 
Q 1159 1113 1420 752 
Q 1681 391 2138 391 
Q 2594 391 2855 752 
Q 3116 1113 3116 1747 
z
" transform="scale(0.015625)"/>
      <path id="DejaVuSans-51" d="M 2522 4238 
Q 1834 4238 1429 3725 
Q 1025 3213 1025 2328 
Q 1025 1447 1429 934 
Q 1834 422 2522 422 
Q 3209 422 3611 934 
Q 4013 1447 4013 2328 
Q 4013 3213 3611 3725 
Q 3209 4238 2522 4238 
z
M 3406 84 
L 4238 -825 
L 3475 -825 
L 2784 -78 
Q 2681 -84 2626 -87 
Q 2572 -91 2522 -91 
Q 1538 -91 948 567 
Q 359 1225 359 2328 
Q 359 3434 948 4092 
Q 1538 4750 2522 4750 
Q 3503 4750 4090 4092 
Q 4678 3434 4678 2328 
Q 4678 1516 4351 937 
Q 4025 359 3406 84 
z
" transform="scale(0.015625)"/>
     </defs>
     <use xlink:href="#DejaVuSans-69"/>
     <use xlink:href="#DejaVuSans-6e" x="27.783203"/>
     <use xlink:href="#DejaVuSans-63" x="91.162109"/>
     <use xlink:href="#DejaVuSans-6f" x="146.142578"/>
     <use xlink:href="#DejaVuSans-6d" x="207.324219"/>
     <use xlink:href="#DejaVuSans-69" x="304.736328"/>
     <use xlink:href="#DejaVuSans-6e" x="332.519531"/>
     <use xlink:href="#DejaVuSans-67" x="395.898438"/>
     <use xlink:href="#DejaVuSans-44" x="459.375"/>
     <use xlink:href="#DejaVuSans-61" x="536.376953"/>
     <use xlink:href="#DejaVuSans-74" x="597.65625"/>
     <use xlink:href="#DejaVuSans-61" x="636.865234"/>
     <use xlink:href="#DejaVuSans-52" x="698.144531"/>
     <use xlink:href="#DejaVuSans-61" x="765.376953"/>
     <use xlink:href="#DejaVuSans-74" x="826.65625"/>
     <use xlink:href="#DejaVuSans-65" x="865.865234"/>
     <use xlink:href="#DejaVuSans-3a" x="927.388672"/>
     <use xlink:href="#DejaVuSans-76" x="961.080078"/>
     <use xlink:href="#DejaVuSans-65" x="1020.259766"/>
     <use xlink:href="#DejaVuSans-63" x="1081.783203"/>
     <use xlink:href="#DejaVuSans-74" x="1136.763672"/>
     <use xlink:href="#DejaVuSans-6f" x="1175.972656"/>
     <use xlink:href="#DejaVuSans-72" x="1237.154297"/>
     <use xlink:href="#DejaVuSans-20" x="1278.267578"/>
     <use xlink:href="#DejaVuSans-28" x="1310.054688"/>
     <use xlink:href="#DejaVuSans-48" x="1349.068359"/>
     <use xlink:href="#DejaVuSans-61" x="1424.263672"/>
     <use xlink:href="#DejaVuSans-6e" x="1485.542969"/>
     <use xlink:href="#DejaVuSans-64" x="1548.921875"/>
     <use xlink:href="#DejaVuSans-6f" x="1612.398438"/>
     <use xlink:href="#DejaVuSans-76" x="1673.580078"/>
     <use xlink:href="#DejaVuSans-65" x="1732.759766"/>
     <use xlink:href="#DejaVuSans-72" x="1794.283203"/>
     <use xlink:href="#DejaVuSans-53" x="1835.396484"/>
     <use xlink:href="#DejaVuSans-68" x="1898.873047"/>
     <use xlink:href="#DejaVuSans-6f" x="1962.251953"/>
     <use xlink:href="#DejaVuSans-77" x="2023.433594"/>
     <use xlink:href="#DejaVuSans-63" x="2105.220703"/>
     <use xlink:href="#DejaVuSans-61" x="2160.201172"/>
     <use xlink:href="#DejaVuSans-73" x="2221.480469"/>
     <use xlink:href="#DejaVuSans-65" x="2273.580078"/>
     <use xlink:href="#DejaVuSans-2e" x="2335.103516"/>
     <use xlink:href="#DejaVuSans-68" x="2366.890625"/>
     <use xlink:href="#DejaVuSans-6f" x="2430.269531"/>
     <use xlink:href="#DejaVuSans-73" x="2491.451172"/>
     <use xlink:href="#DejaVuSans-74" x="2543.550781"/>
     <use xlink:href="#DejaVuSans-32" x="2582.759766"/>
     <use xlink:href="#DejaVuSans-2e" x="2646.382812"/>
     <use xlink:href="#DejaVuSans-77" x="2678.169922"/>
     <use xlink:href="#DejaVuSans-6c" x="2759.957031"/>
     <use xlink:href="#DejaVuSans-61" x="2787.740234"/>
     <use xlink:href="#DejaVuSans-6e" x="2849.019531"/>
     <use xlink:href="#DejaVuSans-5b" x="2912.398438"/>
     <use xlink:href="#DejaVuSans-30" x="2951.412109"/>
     <use xlink:href="#DejaVuSans-5d" x="3015.035156"/>
     <use xlink:href="#DejaVuSans-2e" x="3054.048828"/>
     <use xlink:href="#DejaVuSans-6d" x="3085.835938"/>
     <use xlink:href="#DejaVuSans-61" x="3183.248047"/>
     <use xlink:href="#DejaVuSans-63" x="3244.527344"/>
     <use xlink:href="#DejaVuSans-2e" x="3299.507812"/>
     <use xlink:href="#DejaVuSans-64" x="3331.294922"/>
     <use xlink:href="#DejaVuSans-63" x="3394.771484"/>
     <use xlink:href="#DejaVuSans-66" x="3449.751953"/>
     <use xlink:href="#DejaVuSans-2e" x="3477.707031"/>
     <use xlink:href="#DejaVuSans-63" x="3509.494141"/>
     <use xlink:href="#DejaVuSans-68" x="3564.474609"/>
     <use xlink:href="#DejaVuSans-61" x="3627.853516"/>
     <use xlink:href="#DejaVuSans-6e" x="3689.132812"/>
     <use xlink:href="#DejaVuSans-6e" x="3752.511719"/>
     <use xlink:href="#DejaVuSans-65" x="3815.890625"/>
     <use xlink:href="#DejaVuSans-6c" x="3877.414062"/>
     <use xlink:href="#DejaVuSans-41" x="3905.197266"/>
     <use xlink:href="#DejaVuSans-63" x="3971.855469"/>
     <use xlink:href="#DejaVuSans-63" x="4026.835938"/>
     <use xlink:href="#DejaVuSans-65" x="4081.816406"/>
     <use xlink:href="#DejaVuSans-73" x="4143.339844"/>
     <use xlink:href="#DejaVuSans-73" x="4195.439453"/>
     <use xlink:href="#DejaVuSans-2e" x="4247.539062"/>
     <use xlink:href="#DejaVuSans-70" x="4279.326172"/>
     <use xlink:href="#DejaVuSans-65" x="4342.802734"/>
     <use xlink:href="#DejaVuSans-6e" x="4404.326172"/>
     <use xlink:href="#DejaVuSans-64" x="4467.705078"/>
     <use xlink:href="#DejaVuSans-69" x="4531.181641"/>
     <use xlink:href="#DejaVuSans-6e" x="4558.964844"/>
     <use xlink:href="#DejaVuSans-67" x="4622.34375"/>
     <use xlink:href="#DejaVuSans-51" x="4685.820312"/>
     <use xlink:href="#DejaVuSans-75" x="4764.53125"/>
     <use xlink:href="#DejaVuSans-65" x="4827.910156"/>
     <use xlink:href="#DejaVuSans-75" x="4889.433594"/>
     <use xlink:href="#DejaVuSans-65" x="4952.8125"/>
     <use xlink:href="#DejaVuSans-29" x="5014.335938"/>
    </g>
   </g>
   <g id="legend_1">
    <g id="patch_7">
     <path d="M 63.09 60.478125 
L 188.572813 60.478125 
Q 190.572813 60.478125 190.572813 58.478125 
L 190.572813 44.8 
Q 190.572813 42.8 188.572813 42.8 
L 63.09 42.8 
Q 61.09 42.8 61.09 44.8 
L 61.09 58.478125 
Q 61.09 60.478125 63.09 60.478125 
z
" style="fill: #ffffff; opacity: 0.8; stroke: #cccccc; stroke-linejoin: miter"/>
    </g>
    <g id="line2d_28">
     <path d="M 65.09 50.898438 
L 75.09 50.898438 
L 85.09 50.898438 
" style="fill: none; stroke: #1f77b4; stroke-width: 1.5; stroke-linecap: square"/>
    </g>
    <g id="text_18">
     <!-- Δvalue per sample -->
     <g transform="translate(93.09 54.398438) scale(0.1 -0.1)">
      <defs>
       <path id="DejaVuSans-394" d="M 2188 4044 
L 906 525 
L 3472 525 
L 2188 4044 
z
M 50 0 
L 1831 4666 
L 2547 4666 
L 4325 0 
L 50 0 
z
" transform="scale(0.015625)"/>
      </defs>
      <use xlink:href="#DejaVuSans-394"/>
      <use xlink:href="#DejaVuSans-76" x="68.408203"/>
      <use xlink:href="#DejaVuSans-61" x="127.587891"/>
      <use xlink:href="#DejaVuSans-6c" x="188.867188"/>
      <use xlink:href="#DejaVuSans-75" x="216.650391"/>
      <use xlink:href="#DejaVuSans-65" x="280.029297"/>
      <use xlink:href="#DejaVuSans-20" x="341.552734"/>
      <use xlink:href="#DejaVuSans-70" x="373.339844"/>
      <use xlink:href="#DejaVuSans-65" x="436.816406"/>
      <use xlink:href="#DejaVuSans-72" x="498.339844"/>
      <use xlink:href="#DejaVuSans-20" x="539.453125"/>
      <use xlink:href="#DejaVuSans-73" x="571.240234"/>
      <use xlink:href="#DejaVuSans-61" x="623.339844"/>
      <use xlink:href="#DejaVuSans-6d" x="684.619141"/>
      <use xlink:href="#DejaVuSans-70" x="782.03125"/>
      <use xlink:href="#DejaVuSans-6c" x="845.507812"/>
      <use xlink:href="#DejaVuSans-65" x="873.291016"/>
     </g>
    </g>
   </g>
  </g>
 </g>
 <defs>
  <clipPath id="pbc2ee03251">
   <rect x="56.09" y="37.8" width="653.11" height="208.24"/>
  </clipPath>
 </defs>
</svg>
