<?xml version="1.0" encoding="utf-8" standalone="no"?>
<!DOCTYPE svg PUBLIC "-//W3C//DTD SVG 1.1//EN"
  "http://www.w3.org/Graphics/SVG/1.1/DTD/svg11.dtd">
<svg xmlns:xlink="http://www.w3.org/1999/xlink" width="720pt" height="288pt" viewBox="0 0 720 288" xmlns="http://www.w3.org/2000/svg" version="1.1">
 <metadata>
  <rdf:RDF xmlns:dc="http://purl.org/dc/elements/1.1/" xmlns:cc="http://creativecommons.org/ns#" xmlns:rdf="http://www.w3.org/1999/02/22-rdf-syntax-ns#">
   <cc:Work>
    <dc:type rdf:resource="http://purl.org/dc/dcmitype/StillImage"/>
    <dc:date>2025-07-27T15:08:51.909146</dc:date>
    <dc:format>image/svg+xml</dc:format>
    <dc:creator>
     <cc:Agent>
      <dc:title>Matplotlib v3.9.2, https://matplotlib.org/</dc:title>
     </cc:Agent>
    </dc:creator>
   </cc:Work>
  </rdf:RDF>
 </metadata>
 <defs>
  <style type="text/css">*{stroke-linejoin: round; stroke-linecap: butt}</style>
 </defs>
 <g id="figure_1">
  <g id="patch_1">
   <path d="M 0 288 
L 720 288 
L 720 0 
L 0 0 
z
" style="fill: #ffffff"/>
  </g>
  <g id="axes_1">
   <g id="patch_2">
    <path d="M 54.02 246.04 
L 709.2 246.04 
L 709.2 26.88 
L 54.02 26.88 
z
" style="fill: #ffffff"/>
   </g>
   <g id="matplotlib.axis_1">
    <g id="xtick_1">
     <g id="line2d_1">
      <path d="M 83.800909 246.04 
L 83.800909 26.88 
" clip-path="url(#p6d9e63b229)" style="fill: none; stroke: #b0b0b0; stroke-width: 0.8; stroke-linecap: square"/>
     </g>
     <g id="line2d_2">
      <defs>
       <path id="me33a054555" d="M 0 0 
L 0 3.5 
" style="stroke: #000000; stroke-width: 0.8"/>
      </defs>
      <g>
       <use xlink:href="#me33a054555" x="83.800909" y="246.04" style="stroke: #000000; stroke-width: 0.8"/>
      </g>
     </g>
     <g id="text_1">
      <!-- 0 -->
      <g transform="translate(80.619659 260.638438) scale(0.1 -0.1)">
       <defs>
        <path id="DejaVuSans-30" d="M 2034 4250 
Q 1547 4250 1301 3770 
Q 1056 3291 1056 2328 
Q 1056 1369 1301 889 
Q 1547 409 2034 409 
Q 2525 409 2770 889 
Q 3016 1369 3016 2328 
Q 3016 3291 2770 3770 
Q 2525 4250 2034 4250 
z
M 2034 4750 
Q 2819 4750 3233 4129 
Q 3647 3509 3647 2328 
Q 3647 1150 3233 529 
Q 2819 -91 2034 -91 
Q 1250 -91 836 529 
Q 422 1150 422 2328 
Q 422 3509 836 4129 
Q 1250 4750 2034 4750 
z
" transform="scale(0.015625)"/>
       </defs>
       <use xlink:href="#DejaVuSans-30"/>
      </g>
     </g>
    </g>
    <g id="xtick_2">
     <g id="line2d_3">
      <path d="M 228.291274 246.04 
L 228.291274 26.88 
" clip-path="url(#p6d9e63b229)" style="fill: none; stroke: #b0b0b0; stroke-width: 0.8; stroke-linecap: square"/>
     </g>
     <g id="line2d_4">
      <g>
       <use xlink:href="#me33a054555" x="228.291274" y="246.04" style="stroke: #000000; stroke-width: 0.8"/>
      </g>
     </g>
     <g id="text_2">
      <!-- 10000 -->
      <g transform="translate(212.385024 260.638438) scale(0.1 -0.1)">
       <defs>
        <path id="DejaVuSans-31" d="M 794 531 
L 1825 531 
L 1825 4091 
L 703 3866 
L 703 4441 
L 1819 4666 
L 2450 4666 
L 2450 531 
L 3481 531 
L 3481 0 
L 794 0 
L 794 531 
z
" transform="scale(0.015625)"/>
       </defs>
       <use xlink:href="#DejaVuSans-31"/>
       <use xlink:href="#DejaVuSans-30" x="63.623047"/>
       <use xlink:href="#DejaVuSans-30" x="127.246094"/>
       <use xlink:href="#DejaVuSans-30" x="190.869141"/>
       <use xlink:href="#DejaVuSans-30" x="254.492188"/>
      </g>
     </g>
    </g>
    <g id="xtick_3">
     <g id="line2d_5">
      <path d="M 372.781639 246.04 
L 372.781639 26.88 
" clip-path="url(#p6d9e63b229)" style="fill: none; stroke: #b0b0b0; stroke-width: 0.8; stroke-linecap: square"/>
     </g>
     <g id="line2d_6">
      <g>
       <use xlink:href="#me33a054555" x="372.781639" y="246.04" style="stroke: #000000; stroke-width: 0.8"/>
      </g>
     </g>
     <g id="text_3">
      <!-- 20000 -->
      <g transform="translate(356.875389 260.638438) scale(0.1 -0.1)">
       <defs>
        <path id="DejaVuSans-32" d="M 1228 531 
L 3431 531 
L 3431 0 
L 469 0 
L 469 531 
Q 828 903 1448 1529 
Q 2069 2156 2228 2338 
Q 2531 2678 2651 2914 
Q 2772 3150 2772 3378 
Q 2772 3750 2511 3984 
Q 2250 4219 1831 4219 
Q 1534 4219 1204 4116 
Q 875 4013 500 3803 
L 500 4441 
Q 881 4594 1212 4672 
Q 1544 4750 1819 4750 
Q 2544 4750 2975 4387 
Q 3406 4025 3406 3419 
Q 3406 3131 3298 2873 
Q 3191 2616 2906 2266 
Q 2828 2175 2409 1742 
Q 1991 1309 1228 531 
z
" transform="scale(0.015625)"/>
       </defs>
       <use xlink:href="#DejaVuSans-32"/>
       <use xlink:href="#DejaVuSans-30" x="63.623047"/>
       <use xlink:href="#DejaVuSans-30" x="127.246094"/>
       <use xlink:href="#DejaVuSans-30" x="190.869141"/>
       <use xlink:href="#DejaVuSans-30" x="254.492188"/>
      </g>
     </g>
    </g>
    <g id="xtick_4">
     <g id="line2d_7">
      <path d="M 517.272004 246.04 
L 517.272004 26.88 
" clip-path="url(#p6d9e63b229)" style="fill: none; stroke: #b0b0b0; stroke-width: 0.8; stroke-linecap: square"/>
     </g>
     <g id="line2d_8">
      <g>
       <use xlink:href="#me33a054555" x="517.272004" y="246.04" style="stroke: #000000; stroke-width: 0.8"/>
      </g>
     </g>
     <g id="text_4">
      <!-- 30000 -->
      <g transform="translate(501.365754 260.638438) scale(0.1 -0.1)">
       <defs>
        <path id="DejaVuSans-33" d="M 2597 2516 
Q 3050 2419 3304 2112 
Q 3559 1806 3559 1356 
Q 3559 666 3084 287 
Q 2609 -91 1734 -91 
Q 1441 -91 1130 -33 
Q 819 25 488 141 
L 488 750 
Q 750 597 1062 519 
Q 1375 441 1716 441 
Q 2309 441 2620 675 
Q 2931 909 2931 1356 
Q 2931 1769 2642 2001 
Q 2353 2234 1838 2234 
L 1294 2234 
L 1294 2753 
L 1863 2753 
Q 2328 2753 2575 2939 
Q 2822 3125 2822 3475 
Q 2822 3834 2567 4026 
Q 2313 4219 1838 4219 
Q 1578 4219 1281 4162 
Q 984 4106 628 3988 
L 628 4550 
Q 988 4650 1302 4700 
Q 1616 4750 1894 4750 
Q 2613 4750 3031 4423 
Q 3450 4097 3450 3541 
Q 3450 3153 3228 2886 
Q 3006 2619 2597 2516 
z
" transform="scale(0.015625)"/>
       </defs>
       <use xlink:href="#DejaVuSans-33"/>
       <use xlink:href="#DejaVuSans-30" x="63.623047"/>
       <use xlink:href="#DejaVuSans-30" x="127.246094"/>
       <use xlink:href="#DejaVuSans-30" x="190.869141"/>
       <use xlink:href="#DejaVuSans-30" x="254.492188"/>
      </g>
     </g>
    </g>
    <g id="xtick_5">
     <g id="line2d_9">
      <path d="M 661.762368 246.04 
L 661.762368 26.88 
" clip-path="url(#p6d9e63b229)" style="fill: none; stroke: #b0b0b0; stroke-width: 0.8; stroke-linecap: square"/>
     </g>
     <g id="line2d_10">
      <g>
       <use xlink:href="#me33a054555" x="661.762368" y="246.04" style="stroke: #000000; stroke-width: 0.8"/>
      </g>
     </g>
     <g id="text_5">
      <!-- 40000 -->
      <g transform="translate(645.856118 260.638438) scale(0.1 -0.1)">
       <defs>
        <path id="DejaVuSans-34" d="M 2419 4116 
L 825 1625 
L 2419 1625 
L 2419 4116 
z
M 2253 4666 
L 3047 4666 
L 3047 1625 
L 3713 1625 
L 3713 1100 
L 3047 1100 
L 3047 0 
L 2419 0 
L 2419 1100 
L 313 1100 
L 313 1709 
L 2253 4666 
z
" transform="scale(0.015625)"/>
       </defs>
       <use xlink:href="#DejaVuSans-34"/>
       <use xlink:href="#DejaVuSans-30" x="63.623047"/>
       <use xlink:href="#DejaVuSans-30" x="127.246094"/>
       <use xlink:href="#DejaVuSans-30" x="190.869141"/>
       <use xlink:href="#DejaVuSans-30" x="254.492188"/>
      </g>
     </g>
    </g>
    <g id="text_6">
     <!-- Time (s) -->
     <g transform="translate(361.281094 274.316562) scale(0.1 -0.1)">
      <defs>
       <path id="DejaVuSans-54" d="M -19 4666 
L 3928 4666 
L 3928 4134 
L 2272 4134 
L 2272 0 
L 1638 0 
L 1638 4134 
L -19 4134 
L -19 4666 
z
" transform="scale(0.015625)"/>
       <path id="DejaVuSans-69" d="M 603 3500 
L 1178 3500 
L 1178 0 
L 603 0 
L 603 3500 
z
M 603 4863 
L 1178 4863 
L 1178 4134 
L 603 4134 
L 603 4863 
z
" transform="scale(0.015625)"/>
       <path id="DejaVuSans-6d" d="M 3328 2828 
Q 3544 3216 3844 3400 
Q 4144 3584 4550 3584 
Q 5097 3584 5394 3201 
Q 5691 2819 5691 2113 
L 5691 0 
L 5113 0 
L 5113 2094 
Q 5113 2597 4934 2840 
Q 4756 3084 4391 3084 
Q 3944 3084 3684 2787 
Q 3425 2491 3425 1978 
L 3425 0 
L 2847 0 
L 2847 2094 
Q 2847 2600 2669 2842 
Q 2491 3084 2119 3084 
Q 1678 3084 1418 2786 
Q 1159 2488 1159 1978 
L 1159 0 
L 581 0 
L 581 3500 
L 1159 3500 
L 1159 2956 
Q 1356 3278 1631 3431 
Q 1906 3584 2284 3584 
Q 2666 3584 2933 3390 
Q 3200 3197 3328 2828 
z
" transform="scale(0.015625)"/>
       <path id="DejaVuSans-65" d="M 3597 1894 
L 3597 1613 
L 953 1613 
Q 991 1019 1311 708 
Q 1631 397 2203 397 
Q 2534 397 2845 478 
Q 3156 559 3463 722 
L 3463 178 
Q 3153 47 2828 -22 
Q 2503 -91 2169 -91 
Q 1331 -91 842 396 
Q 353 884 353 1716 
Q 353 2575 817 3079 
Q 1281 3584 2069 3584 
Q 2775 3584 3186 3129 
Q 3597 2675 3597 1894 
z
M 3022 2063 
Q 3016 2534 2758 2815 
Q 2500 3097 2075 3097 
Q 1594 3097 1305 2825 
Q 1016 2553 972 2059 
L 3022 2063 
z
" transform="scale(0.015625)"/>
       <path id="DejaVuSans-20" transform="scale(0.015625)"/>
       <path id="DejaVuSans-28" d="M 1984 4856 
Q 1566 4138 1362 3434 
Q 1159 2731 1159 2009 
Q 1159 1288 1364 580 
Q 1569 -128 1984 -844 
L 1484 -844 
Q 1016 -109 783 600 
Q 550 1309 550 2009 
Q 550 2706 781 3412 
Q 1013 4119 1484 4856 
L 1984 4856 
z
" transform="scale(0.015625)"/>
       <path id="DejaVuSans-73" d="M 2834 3397 
L 2834 2853 
Q 2591 2978 2328 3040 
Q 2066 3103 1784 3103 
Q 1356 3103 1142 2972 
Q 928 2841 928 2578 
Q 928 2378 1081 2264 
Q 1234 2150 1697 2047 
L 1894 2003 
Q 2506 1872 2764 1633 
Q 3022 1394 3022 966 
Q 3022 478 2636 193 
Q 2250 -91 1575 -91 
Q 1294 -91 989 -36 
Q 684 19 347 128 
L 347 722 
Q 666 556 975 473 
Q 1284 391 1588 391 
Q 1994 391 2212 530 
Q 2431 669 2431 922 
Q 2431 1156 2273 1281 
Q 2116 1406 1581 1522 
L 1381 1569 
Q 847 1681 609 1914 
Q 372 2147 372 2553 
Q 372 3047 722 3315 
Q 1072 3584 1716 3584 
Q 2034 3584 2315 3537 
Q 2597 3491 2834 3397 
z
" transform="scale(0.015625)"/>
       <path id="DejaVuSans-29" d="M 513 4856 
L 1013 4856 
Q 1481 4119 1714 3412 
Q 1947 2706 1947 2009 
Q 1947 1309 1714 600 
Q 1481 -109 1013 -844 
L 513 -844 
Q 928 -128 1133 580 
Q 1338 1288 1338 2009 
Q 1338 2731 1133 3434 
Q 928 4138 513 4856 
z
" transform="scale(0.015625)"/>
      </defs>
      <use xlink:href="#DejaVuSans-54"/>
      <use xlink:href="#DejaVuSans-69" x="57.958984"/>
      <use xlink:href="#DejaVuSans-6d" x="85.742188"/>
      <use xlink:href="#DejaVuSans-65" x="183.154297"/>
      <use xlink:href="#DejaVuSans-20" x="244.677734"/>
      <use xlink:href="#DejaVuSans-28" x="276.464844"/>
      <use xlink:href="#DejaVuSans-73" x="315.478516"/>
      <use xlink:href="#DejaVuSans-29" x="367.578125"/>
     </g>
    </g>
   </g>
   <g id="matplotlib.axis_2">
    <g id="ytick_1">
     <g id="line2d_11">
      <path d="M 54.02 236.078182 
L 709.2 236.078182 
" clip-path="url(#p6d9e63b229)" style="fill: none; stroke: #b0b0b0; stroke-width: 0.8; stroke-linecap: square"/>
     </g>
     <g id="line2d_12">
      <defs>
       <path id="m081dbe8e8c" d="M 0 0 
L -3.5 0 
" style="stroke: #000000; stroke-width: 0.8"/>
      </defs>
      <g>
       <use xlink:href="#m081dbe8e8c" x="54.02" y="236.078182" style="stroke: #000000; stroke-width: 0.8"/>
      </g>
     </g>
     <g id="text_7">
      <!-- 0.00 -->
      <g transform="translate(24.754375 239.877401) scale(0.1 -0.1)">
       <defs>
        <path id="DejaVuSans-2e" d="M 684 794 
L 1344 794 
L 1344 0 
L 684 0 
L 684 794 
z
" transform="scale(0.015625)"/>
       </defs>
       <use xlink:href="#DejaVuSans-30"/>
       <use xlink:href="#DejaVuSans-2e" x="63.623047"/>
       <use xlink:href="#DejaVuSans-30" x="95.410156"/>
       <use xlink:href="#DejaVuSans-30" x="159.033203"/>
      </g>
     </g>
    </g>
    <g id="ytick_2">
     <g id="line2d_13">
      <path d="M 54.02 196.212571 
L 709.2 196.212571 
" clip-path="url(#p6d9e63b229)" style="fill: none; stroke: #b0b0b0; stroke-width: 0.8; stroke-linecap: square"/>
     </g>
     <g id="line2d_14">
      <g>
       <use xlink:href="#m081dbe8e8c" x="54.02" y="196.212571" style="stroke: #000000; stroke-width: 0.8"/>
      </g>
     </g>
     <g id="text_8">
      <!-- 0.02 -->
      <g transform="translate(24.754375 200.01179) scale(0.1 -0.1)">
       <use xlink:href="#DejaVuSans-30"/>
       <use xlink:href="#DejaVuSans-2e" x="63.623047"/>
       <use xlink:href="#DejaVuSans-30" x="95.410156"/>
       <use xlink:href="#DejaVuSans-32" x="159.033203"/>
      </g>
     </g>
    </g>
    <g id="ytick_3">
     <g id="line2d_15">
      <path d="M 54.02 156.34696 
L 709.2 156.34696 
" clip-path="url(#p6d9e63b229)" style="fill: none; stroke: #b0b0b0; stroke-width: 0.8; stroke-linecap: square"/>
     </g>
     <g id="line2d_16">
      <g>
       <use xlink:href="#m081dbe8e8c" x="54.02" y="156.34696" style="stroke: #000000; stroke-width: 0.8"/>
      </g>
     </g>
     <g id="text_9">
      <!-- 0.04 -->
      <g transform="translate(24.754375 160.146179) scale(0.1 -0.1)">
       <use xlink:href="#DejaVuSans-30"/>
       <use xlink:href="#DejaVuSans-2e" x="63.623047"/>
       <use xlink:href="#DejaVuSans-30" x="95.410156"/>
       <use xlink:href="#DejaVuSans-34" x="159.033203"/>
      </g>
     </g>
    </g>
    <g id="ytick_4">
     <g id="line2d_17">
      <path d="M 54.02 116.481349 
L 709.2 116.481349 
" clip-path="url(#p6d9e63b229)" style="fill: none; stroke: #b0b0b0; stroke-width: 0.8; stroke-linecap: square"/>
     </g>
     <g id="line2d_18">
      <g>
       <use xlink:href="#m081dbe8e8c" x="54.02" y="116.481349" style="stroke: #000000; stroke-width: 0.8"/>
      </g>
     </g>
     <g id="text_10">
      <!-- 0.06 -->
      <g transform="translate(24.754375 120.280568) scale(0.1 -0.1)">
       <defs>
        <path id="DejaVuSans-36" d="M 2113 2584 
Q 1688 2584 1439 2293 
Q 1191 2003 1191 1497 
Q 1191 994 1439 701 
Q 1688 409 2113 409 
Q 2538 409 2786 701 
Q 3034 994 3034 1497 
Q 3034 2003 2786 2293 
Q 2538 2584 2113 2584 
z
M 3366 4563 
L 3366 3988 
Q 3128 4100 2886 4159 
Q 2644 4219 2406 4219 
Q 1781 4219 1451 3797 
Q 1122 3375 1075 2522 
Q 1259 2794 1537 2939 
Q 1816 3084 2150 3084 
Q 2853 3084 3261 2657 
Q 3669 2231 3669 1497 
Q 3669 778 3244 343 
Q 2819 -91 2113 -91 
Q 1303 -91 875 529 
Q 447 1150 447 2328 
Q 447 3434 972 4092 
Q 1497 4750 2381 4750 
Q 2619 4750 2861 4703 
Q 3103 4656 3366 4563 
z
" transform="scale(0.015625)"/>
       </defs>
       <use xlink:href="#DejaVuSans-30"/>
       <use xlink:href="#DejaVuSans-2e" x="63.623047"/>
       <use xlink:href="#DejaVuSans-30" x="95.410156"/>
       <use xlink:href="#DejaVuSans-36" x="159.033203"/>
      </g>
     </g>
    </g>
    <g id="ytick_5">
     <g id="line2d_19">
      <path d="M 54.02 76.615738 
L 709.2 76.615738 
" clip-path="url(#p6d9e63b229)" style="fill: none; stroke: #b0b0b0; stroke-width: 0.8; stroke-linecap: square"/>
     </g>
     <g id="line2d_20">
      <g>
       <use xlink:href="#m081dbe8e8c" x="54.02" y="76.615738" style="stroke: #000000; stroke-width: 0.8"/>
      </g>
     </g>
     <g id="text_11">
      <!-- 0.08 -->
      <g transform="translate(24.754375 80.414957) scale(0.1 -0.1)">
       <defs>
        <path id="DejaVuSans-38" d="M 2034 2216 
Q 1584 2216 1326 1975 
Q 1069 1734 1069 1313 
Q 1069 891 1326 650 
Q 1584 409 2034 409 
Q 2484 409 2743 651 
Q 3003 894 3003 1313 
Q 3003 1734 2745 1975 
Q 2488 2216 2034 2216 
z
M 1403 2484 
Q 997 2584 770 2862 
Q 544 3141 544 3541 
Q 544 4100 942 4425 
Q 1341 4750 2034 4750 
Q 2731 4750 3128 4425 
Q 3525 4100 3525 3541 
Q 3525 3141 3298 2862 
Q 3072 2584 2669 2484 
Q 3125 2378 3379 2068 
Q 3634 1759 3634 1313 
Q 3634 634 3220 271 
Q 2806 -91 2034 -91 
Q 1263 -91 848 271 
Q 434 634 434 1313 
Q 434 1759 690 2068 
Q 947 2378 1403 2484 
z
M 1172 3481 
Q 1172 3119 1398 2916 
Q 1625 2713 2034 2713 
Q 2441 2713 2670 2916 
Q 2900 3119 2900 3481 
Q 2900 3844 2670 4047 
Q 2441 4250 2034 4250 
Q 1625 4250 1398 4047 
Q 1172 3844 1172 3481 
z
" transform="scale(0.015625)"/>
       </defs>
       <use xlink:href="#DejaVuSans-30"/>
       <use xlink:href="#DejaVuSans-2e" x="63.623047"/>
       <use xlink:href="#DejaVuSans-30" x="95.410156"/>
       <use xlink:href="#DejaVuSans-38" x="159.033203"/>
      </g>
     </g>
    </g>
    <g id="ytick_6">
     <g id="line2d_21">
      <path d="M 54.02 36.750127 
L 709.2 36.750127 
" clip-path="url(#p6d9e63b229)" style="fill: none; stroke: #b0b0b0; stroke-width: 0.8; stroke-linecap: square"/>
     </g>
     <g id="line2d_22">
      <g>
       <use xlink:href="#m081dbe8e8c" x="54.02" y="36.750127" style="stroke: #000000; stroke-width: 0.8"/>
      </g>
     </g>
     <g id="text_12">
      <!-- 0.10 -->
      <g transform="translate(24.754375 40.549346) scale(0.1 -0.1)">
       <use xlink:href="#DejaVuSans-30"/>
       <use xlink:href="#DejaVuSans-2e" x="63.623047"/>
       <use xlink:href="#DejaVuSans-31" x="95.410156"/>
       <use xlink:href="#DejaVuSans-30" x="159.033203"/>
      </g>
     </g>
    </g>
    <g id="text_13">
     <!-- Delta Value -->
     <g transform="translate(18.674688 165.120156) rotate(-90) scale(0.1 -0.1)">
      <defs>
       <path id="DejaVuSans-44" d="M 1259 4147 
L 1259 519 
L 2022 519 
Q 2988 519 3436 956 
Q 3884 1394 3884 2338 
Q 3884 3275 3436 3711 
Q 2988 4147 2022 4147 
L 1259 4147 
z
M 628 4666 
L 1925 4666 
Q 3281 4666 3915 4102 
Q 4550 3538 4550 2338 
Q 4550 1131 3912 565 
Q 3275 0 1925 0 
L 628 0 
L 628 4666 
z
" transform="scale(0.015625)"/>
       <path id="DejaVuSans-6c" d="M 603 4863 
L 1178 4863 
L 1178 0 
L 603 0 
L 603 4863 
z
" transform="scale(0.015625)"/>
       <path id="DejaVuSans-74" d="M 1172 4494 
L 1172 3500 
L 2356 3500 
L 2356 3053 
L 1172 3053 
L 1172 1153 
Q 1172 725 1289 603 
Q 1406 481 1766 481 
L 2356 481 
L 2356 0 
L 1766 0 
Q 1100 0 847 248 
Q 594 497 594 1153 
L 594 3053 
L 172 3053 
L 172 3500 
L 594 3500 
L 594 4494 
L 1172 4494 
z
" transform="scale(0.015625)"/>
       <path id="DejaVuSans-61" d="M 2194 1759 
Q 1497 1759 1228 1600 
Q 959 1441 959 1056 
Q 959 750 1161 570 
Q 1363 391 1709 391 
Q 2188 391 2477 730 
Q 2766 1069 2766 1631 
L 2766 1759 
L 2194 1759 
z
M 3341 1997 
L 3341 0 
L 2766 0 
L 2766 531 
Q 2569 213 2275 61 
Q 1981 -91 1556 -91 
Q 1019 -91 701 211 
Q 384 513 384 1019 
Q 384 1609 779 1909 
Q 1175 2209 1959 2209 
L 2766 2209 
L 2766 2266 
Q 2766 2663 2505 2880 
Q 2244 3097 1772 3097 
Q 1472 3097 1187 3025 
Q 903 2953 641 2809 
L 641 3341 
Q 956 3463 1253 3523 
Q 1550 3584 1831 3584 
Q 2591 3584 2966 3190 
Q 3341 2797 3341 1997 
z
" transform="scale(0.015625)"/>
       <path id="DejaVuSans-56" d="M 1831 0 
L 50 4666 
L 709 4666 
L 2188 738 
L 3669 4666 
L 4325 4666 
L 2547 0 
L 1831 0 
z
" transform="scale(0.015625)"/>
       <path id="DejaVuSans-75" d="M 544 1381 
L 544 3500 
L 1119 3500 
L 1119 1403 
Q 1119 906 1312 657 
Q 1506 409 1894 409 
Q 2359 409 2629 706 
Q 2900 1003 2900 1516 
L 2900 3500 
L 3475 3500 
L 3475 0 
L 2900 0 
L 2900 538 
Q 2691 219 2414 64 
Q 2138 -91 1772 -91 
Q 1169 -91 856 284 
Q 544 659 544 1381 
z
M 1991 3584 
L 1991 3584 
z
" transform="scale(0.015625)"/>
      </defs>
      <use xlink:href="#DejaVuSans-44"/>
      <use xlink:href="#DejaVuSans-65" x="77.001953"/>
      <use xlink:href="#DejaVuSans-6c" x="138.525391"/>
      <use xlink:href="#DejaVuSans-74" x="166.308594"/>
      <use xlink:href="#DejaVuSans-61" x="205.517578"/>
      <use xlink:href="#DejaVuSans-20" x="266.796875"/>
      <use xlink:href="#DejaVuSans-56" x="298.583984"/>
      <use xlink:href="#DejaVuSans-61" x="359.242188"/>
      <use xlink:href="#DejaVuSans-6c" x="420.521484"/>
      <use xlink:href="#DejaVuSans-75" x="448.304688"/>
      <use xlink:href="#DejaVuSans-65" x="511.683594"/>
     </g>
    </g>
   </g>
   <g id="line2d_23">
    <path d="M 83.800909 236.078182 
L 83.873154 224.773695 
L 83.959848 235.986491 
L 84.378871 36.841818 
L 84.465565 235.986491 
L 85.101322 36.841818 
L 85.188017 235.986491 
L 85.765978 36.841818 
L 85.852672 235.986491 
L 86.300592 36.841818 
L 86.387287 235.986491 
L 87.181984 36.841818 
L 87.268678 235.986491 
L 87.673251 36.841818 
L 87.759945 235.986491 
L 88.410152 36.841818 
L 88.496846 235.986491 
L 89.566075 36.841818 
L 89.652769 235.986491 
L 90.100689 36.841818 
L 90.187383 235.986491 
L 90.794243 36.841818 
L 90.880937 235.986491 
L 91.328857 36.841818 
L 91.415551 235.986491 
L 92.210248 36.841818 
L 92.296943 235.986491 
L 92.701516 36.841818 
L 92.78821 235.986491 
L 93.438416 36.841818 
L 93.525111 235.986491 
L 94.103072 36.841818 
L 94.189766 235.986491 
L 97.368554 36.841818 
L 97.455249 235.986491 
L 98.062108 36.841818 
L 98.148802 235.986491 
L 98.538926 36.841818 
L 98.625621 235.986491 
L 99.059092 36.841818 
L 99.145786 235.986491 
L 99.752645 36.841818 
L 99.83934 235.986491 
L 100.272811 36.841818 
L 100.359505 235.986491 
L 100.966364 36.841818 
L 101.053059 235.986491 
L 101.443183 36.841818 
L 101.529877 235.986491 
L 101.963348 36.841818 
L 102.050042 235.986491 
L 102.656902 36.841818 
L 102.743596 235.986491 
L 103.205965 36.841818 
L 103.292659 235.986491 
L 103.899519 36.841818 
L 103.986213 235.986491 
L 104.376337 36.841818 
L 104.463031 235.986491 
L 104.896502 36.841818 
L 104.983197 235.986491 
L 105.590056 36.841818 
L 105.67675 235.986491 
L 106.110221 36.841818 
L 106.196916 235.986491 
L 106.803775 36.841818 
L 106.890469 235.986491 
L 107.280593 36.841818 
L 107.367288 235.986491 
L 107.800759 36.841818 
L 107.887453 235.986491 
L 108.494312 36.841818 
L 108.581007 235.986491 
L 109.014478 36.841818 
L 109.101172 235.986491 
L 109.708032 36.841818 
L 109.794726 235.986491 
L 110.18485 36.841818 
L 110.271544 235.986491 
L 110.733913 36.841818 
L 110.820607 235.986491 
L 111.427467 36.841818 
L 111.514161 235.986491 
L 111.947632 36.841818 
L 112.034326 235.986491 
L 112.641186 36.841818 
L 112.72788 235.986491 
L 113.118004 36.841818 
L 113.204698 235.986491 
L 113.638169 36.841818 
L 113.724864 235.986491 
L 114.331723 36.841818 
L 114.418417 235.986491 
L 114.851888 36.841818 
L 114.938583 235.986491 
L 115.545442 36.841818 
L 115.632136 235.986491 
L 116.02226 36.841818 
L 116.108955 235.986491 
L 116.542426 36.841818 
L 116.62912 235.986491 
L 117.23598 36.841818 
L 117.322674 235.986491 
L 117.785043 36.841818 
L 117.871737 235.986491 
L 118.478597 36.841818 
L 118.565291 235.986491 
L 118.955415 36.841818 
L 119.042109 235.986491 
L 119.47558 36.841818 
L 119.562274 235.986491 
L 120.169134 36.841818 
L 120.255828 235.986491 
L 120.689299 36.841818 
L 120.775993 235.986491 
L 121.382853 36.841818 
L 121.469547 235.986491 
L 121.859671 36.841818 
L 121.946365 235.986491 
L 122.379836 36.841818 
L 122.466531 235.986491 
L 123.07339 36.841818 
L 123.160084 235.986491 
L 123.593556 36.841818 
L 123.68025 235.986491 
L 124.287109 36.841818 
L 124.373804 235.986491 
L 124.763928 36.841818 
L 124.850622 235.986491 
L 125.312991 36.841818 
L 125.399685 235.986491 
L 126.006545 36.841818 
L 126.093239 235.986491 
L 126.52671 36.841818 
L 126.613404 235.986491 
L 127.220264 36.841818 
L 127.306958 235.986491 
L 127.697082 36.841818 
L 127.783776 235.986491 
L 128.217247 36.841818 
L 128.303941 235.986491 
L 128.910801 36.841818 
L 128.997495 235.986491 
L 129.430966 36.841818 
L 129.517661 235.986491 
L 130.12452 36.841818 
L 130.211214 235.986491 
L 130.601338 36.841818 
L 130.688032 235.986491 
L 131.121504 36.841818 
L 131.208198 235.986491 
L 131.815057 36.841818 
L 131.901752 235.986491 
L 132.364121 36.841818 
L 132.450815 235.986491 
L 133.057674 36.841818 
L 133.144369 235.986491 
L 133.534493 36.841818 
L 133.621187 235.986491 
L 134.054658 36.841818 
L 134.141352 235.986491 
L 134.748212 36.841818 
L 134.834906 235.986491 
L 135.268377 36.841818 
L 135.355071 235.986491 
L 135.961931 36.841818 
L 136.048625 235.986491 
L 136.438749 36.841818 
L 136.525443 235.986491 
L 136.958914 36.841818 
L 137.045609 235.986491 
L 137.652468 36.841818 
L 137.739162 235.986491 
L 138.172633 36.841818 
L 138.259328 235.986491 
L 138.866187 36.841818 
L 138.952881 235.986491 
L 139.343005 36.841818 
L 139.4297 235.986491 
L 139.892069 36.841818 
L 139.978763 235.986491 
L 140.585622 36.841818 
L 140.672317 235.986491 
L 141.105788 36.841818 
L 141.192482 235.986491 
L 141.799342 36.841818 
L 141.886036 235.986491 
L 142.27616 36.841818 
L 142.362854 235.986491 
L 142.796325 36.841818 
L 142.883019 235.986491 
L 143.489879 36.841818 
L 143.576573 235.986491 
L 144.010044 36.841818 
L 144.096738 235.986491 
L 144.703598 36.841818 
L 144.790292 235.986491 
L 145.180416 36.841818 
L 145.26711 235.986491 
L 145.700581 36.841818 
L 145.787276 235.986491 
L 146.394135 36.841818 
L 146.480829 235.986491 
L 146.943199 36.841818 
L 147.029893 235.986491 
L 147.636752 36.841818 
L 147.723446 235.986491 
L 148.11357 36.841818 
L 148.200265 235.986491 
L 148.633736 36.841818 
L 148.72043 235.986491 
L 149.32729 36.841818 
L 149.413984 235.986491 
L 149.847455 36.841818 
L 149.934149 235.986491 
L 150.541009 36.841818 
L 150.627703 235.986491 
L 151.017827 36.841818 
L 151.104521 235.986491 
L 151.537992 36.841818 
L 151.624686 235.986491 
L 152.231546 36.841818 
L 152.31824 235.986491 
L 152.751711 36.841818 
L 152.838405 235.986491 
L 153.445265 36.841818 
L 153.531959 235.986491 
L 153.922083 36.841818 
L 154.008777 235.986491 
L 154.471147 36.841818 
L 154.557841 235.986491 
L 155.1647 36.841818 
L 155.251394 235.986491 
L 155.684866 36.841818 
L 155.77156 235.986491 
L 156.378419 36.841818 
L 156.465114 235.986491 
L 156.855238 36.841818 
L 156.941932 235.986491 
L 157.375403 36.841818 
L 157.462097 235.986491 
L 158.068957 36.841818 
L 158.155651 235.986491 
L 158.589122 36.841818 
L 158.675816 235.986491 
L 159.282676 36.841818 
L 159.36937 235.986491 
L 159.759494 36.841818 
L 159.846188 235.986491 
L 160.279659 36.841818 
L 160.366353 235.986491 
L 160.973213 36.841818 
L 161.059907 235.986491 
L 161.522276 36.841818 
L 161.608971 235.986491 
L 162.21583 36.841818 
L 162.302524 235.986491 
L 162.692648 36.841818 
L 162.779342 235.986491 
L 163.212814 36.841818 
L 163.299508 235.986491 
L 163.906367 36.841818 
L 163.993062 235.986491 
L 164.426533 36.841818 
L 164.513227 235.986491 
L 165.120086 36.841818 
L 165.206781 235.986491 
L 165.596905 36.841818 
L 165.683599 235.986491 
L 166.11707 36.841818 
L 166.203764 235.986491 
L 166.810624 36.841818 
L 166.897318 235.986491 
L 167.330789 36.841818 
L 167.417483 235.986491 
L 168.024343 36.841818 
L 168.111037 235.986491 
L 168.501161 36.841818 
L 168.587855 235.986491 
L 169.050224 36.841818 
L 169.136919 235.986491 
L 169.743778 36.841818 
L 169.830472 235.986491 
L 170.263943 36.841818 
L 170.350638 235.986491 
L 170.957497 36.841818 
L 171.044191 235.986491 
L 171.434315 36.841818 
L 171.52101 235.986491 
L 171.954481 36.841818 
L 172.041175 235.986491 
L 172.648034 36.841818 
L 172.734729 235.986491 
L 173.1682 36.841818 
L 173.254894 235.986491 
L 173.861753 36.841818 
L 173.948448 235.986491 
L 174.338572 36.841818 
L 174.425266 235.986491 
L 174.858737 36.841818 
L 174.945431 235.986491 
L 175.552291 36.841818 
L 175.638985 235.986491 
L 176.101354 36.841818 
L 176.188048 235.986491 
L 176.794908 36.841818 
L 176.881602 235.986491 
L 177.271726 36.841818 
L 177.35842 235.986491 
L 177.791891 36.841818 
L 177.878586 235.986491 
L 178.485445 36.841818 
L 178.572139 235.986491 
L 179.00561 36.841818 
L 179.092305 235.986491 
L 179.699164 36.841818 
L 179.785858 235.986491 
L 180.175982 36.841818 
L 180.262677 235.986491 
L 180.696148 36.841818 
L 180.782842 235.986491 
L 181.389701 36.841818 
L 181.476396 235.986491 
L 181.909867 36.841818 
L 181.996561 235.986491 
L 182.603421 36.841818 
L 182.690115 235.986491 
L 183.080239 36.841818 
L 183.166933 235.986491 
L 183.629302 36.841818 
L 183.715996 235.986491 
L 184.322856 36.841818 
L 184.40955 235.986491 
L 184.843021 36.841818 
L 184.929715 235.986491 
L 185.536575 36.841818 
L 185.623269 235.986491 
L 186.013393 36.841818 
L 186.100087 235.986491 
L 186.533558 36.841818 
L 186.620253 235.986491 
L 187.227112 36.841818 
L 187.313806 235.986491 
L 187.747278 36.841818 
L 187.833972 235.986491 
L 188.440831 36.841818 
L 188.527526 235.986491 
L 188.917649 36.841818 
L 189.004344 235.986491 
L 189.437815 36.841818 
L 189.524509 235.986491 
L 190.131369 36.841818 
L 190.218063 235.986491 
L 190.680432 36.841818 
L 190.767126 235.986491 
L 191.373986 36.841818 
L 191.46068 235.986491 
L 191.850804 36.841818 
L 191.937498 235.986491 
L 192.370969 36.841818 
L 192.457663 235.986491 
L 193.064523 36.841818 
L 193.151217 235.986491 
L 193.584688 36.841818 
L 193.671382 235.986491 
L 194.278242 36.841818 
L 194.364936 235.986491 
L 194.75506 36.841818 
L 194.841754 235.986491 
L 195.275226 36.841818 
L 195.36192 235.986491 
L 195.968779 36.841818 
L 196.055474 235.986491 
L 196.488945 36.841818 
L 196.575639 235.986491 
L 197.182498 36.841818 
L 197.269193 235.986491 
L 197.659317 36.841818 
L 197.746011 235.986491 
L 198.20838 36.841818 
L 198.295074 235.986491 
L 198.901934 36.841818 
L 198.988628 235.986491 
L 199.422099 36.841818 
L 199.508793 235.986491 
L 200.115653 36.841818 
L 200.202347 235.986491 
L 200.592471 36.841818 
L 200.679165 235.986491 
L 201.112636 36.841818 
L 201.19933 235.986491 
L 201.80619 36.841818 
L 201.892884 235.986491 
L 202.326355 36.841818 
L 202.41305 235.986491 
L 203.019909 36.841818 
L 203.106603 235.986491 
L 203.496727 36.841818 
L 203.583422 235.986491 
L 204.016893 36.841818 
L 204.103587 235.986491 
L 204.710446 36.841818 
L 204.797141 235.986491 
L 205.25951 36.841818 
L 205.346204 235.986491 
L 205.953064 36.841818 
L 206.039758 235.986491 
L 206.429882 36.841818 
L 206.516576 235.986491 
L 206.950047 36.841818 
L 207.036741 235.986491 
L 207.643601 36.841818 
L 207.730295 235.986491 
L 208.163766 36.841818 
L 208.25046 235.986491 
L 208.85732 36.841818 
L 208.944014 235.986491 
L 209.334138 36.841818 
L 209.420832 235.986491 
L 209.854303 36.841818 
L 209.940998 235.986491 
L 210.547857 36.841818 
L 210.634551 235.986491 
L 211.068022 36.841818 
L 211.154717 235.986491 
L 211.761576 36.841818 
L 211.84827 235.986491 
L 212.238394 36.841818 
L 212.325089 235.986491 
L 212.787458 36.841818 
L 212.874152 235.986491 
L 213.481012 36.841818 
L 213.567706 235.986491 
L 214.001177 36.841818 
L 214.087871 235.986491 
L 214.694731 36.841818 
L 214.781425 235.986491 
L 215.171549 36.841818 
L 215.258243 235.986491 
L 215.691714 36.841818 
L 215.778408 235.986491 
L 216.385268 36.841818 
L 216.471962 235.986491 
L 216.905433 36.841818 
L 216.992127 235.986491 
L 217.598987 36.841818 
L 217.685681 235.986491 
L 218.075805 36.841818 
L 218.162499 235.986491 
L 218.59597 36.841818 
L 218.682665 235.986491 
L 219.289524 36.841818 
L 219.376218 235.986491 
L 219.838588 36.841818 
L 219.925282 235.986491 
L 220.532141 36.841818 
L 220.618836 235.986491 
L 221.00896 36.841818 
L 221.095654 235.986491 
L 221.529125 36.841818 
L 221.615819 235.986491 
L 222.222679 36.841818 
L 222.309373 235.986491 
L 222.742844 36.841818 
L 222.829538 235.986491 
L 223.436398 36.841818 
L 223.523092 235.986491 
L 223.913216 36.841818 
L 223.99991 235.986491 
L 224.433381 36.841818 
L 224.520075 235.986491 
L 225.126935 36.841818 
L 225.213629 235.986491 
L 225.6471 36.841818 
L 225.733794 235.986491 
L 226.340654 36.841818 
L 226.427348 235.986491 
L 226.817472 36.841818 
L 226.904166 235.986491 
L 227.366536 36.841818 
L 227.45323 235.986491 
L 228.060089 36.841818 
L 228.146784 235.986491 
L 228.580255 36.841818 
L 228.666949 235.986491 
L 229.273808 36.841818 
L 229.360503 235.986491 
L 229.750627 36.841818 
L 229.837321 235.986491 
L 230.270792 36.841818 
L 230.357486 235.986491 
L 230.964346 36.841818 
L 231.05104 235.986491 
L 231.484511 36.841818 
L 231.571205 235.986491 
L 232.178065 36.841818 
L 232.264759 235.986491 
L 232.654883 36.841818 
L 232.741577 235.986491 
L 233.175048 36.841818 
L 233.261742 235.986491 
L 233.868602 36.841818 
L 233.955296 235.986491 
L 234.417665 36.841818 
L 234.50436 235.986491 
L 235.111219 36.841818 
L 235.197913 235.986491 
L 235.588037 36.841818 
L 235.674732 235.986491 
L 236.108203 36.841818 
L 236.194897 235.986491 
L 236.801756 36.841818 
L 236.888451 235.986491 
L 237.321922 36.841818 
L 237.408616 235.986491 
L 238.015475 36.841818 
L 238.10217 235.986491 
L 238.492294 36.841818 
L 238.578988 235.986491 
L 239.012459 36.841818 
L 239.099153 235.986491 
L 239.706013 36.841818 
L 239.792707 235.986491 
L 240.226178 36.841818 
L 240.312872 235.986491 
L 240.919732 36.841818 
L 241.006426 235.986491 
L 241.39655 36.841818 
L 241.483244 235.986491 
L 241.945613 36.841818 
L 242.032308 235.986491 
L 242.639167 36.841818 
L 242.725861 235.986491 
L 243.159332 36.841818 
L 243.246027 235.986491 
L 243.852886 36.841818 
L 243.93958 235.986491 
L 244.329704 36.841818 
L 244.416399 235.986491 
L 244.84987 36.841818 
L 244.936564 235.986491 
L 245.543423 36.841818 
L 245.630118 235.986491 
L 246.063589 36.841818 
L 246.150283 235.986491 
L 246.757143 36.841818 
L 246.843837 235.986491 
L 247.233961 36.841818 
L 247.320655 235.986491 
L 247.754126 36.841818 
L 247.84082 235.986491 
L 248.44768 36.841818 
L 248.534374 235.986491 
L 248.996743 36.841818 
L 249.083437 235.986491 
L 249.690297 36.841818 
L 249.776991 235.986491 
L 250.167115 36.841818 
L 250.253809 235.986491 
L 250.68728 36.841818 
L 250.773975 235.986491 
L 251.380834 36.841818 
L 251.467528 235.986491 
L 251.901 36.841818 
L 251.987694 235.986491 
L 252.594553 36.841818 
L 252.681247 235.986491 
L 253.071371 36.841818 
L 253.158066 235.986491 
L 253.591537 36.841818 
L 253.678231 235.986491 
L 254.285091 36.841818 
L 254.371785 235.986491 
L 254.805256 36.841818 
L 254.89195 235.986491 
L 255.49881 36.841818 
L 255.585504 235.986491 
L 255.94673 36.841818 
L 256.033424 235.986491 
L 256.466895 36.841818 
L 256.553589 235.986491 
L 257.131551 36.841818 
L 257.218245 235.986491 
L 257.680614 36.841818 
L 257.767308 235.986491 
L 258.562005 36.841818 
L 258.6487 235.986491 
L 259.053273 36.841818 
L 259.139967 235.986491 
L 259.761275 36.841818 
L 259.84797 235.986491 
L 260.425931 36.841818 
L 260.512625 235.986491 
L 260.960545 36.841818 
L 261.04724 235.986491 
L 261.841937 36.841818 
L 261.928631 235.986491 
L 262.333204 36.841818 
L 262.419898 235.986491 
L 263.041207 69.130208 
L 263.127901 235.986491 
L 263.532474 203.881483 
L 263.619168 235.986491 
L 264.226028 36.841818 
L 264.312722 235.986491 
L 264.78954 36.841818 
L 264.876234 235.986491 
L 265.526441 36.841818 
L 265.613135 235.986491 
L 266.191097 36.841818 
L 266.277791 235.986491 
L 266.682364 36.841818 
L 266.769058 235.986491 
L 267.289223 169.184952 
L 267.462612 236.01041 
L 267.563755 235.699459 
L 267.650449 235.994464 
L 268.170615 234.668777 
L 268.271758 236.01041 
L 268.372901 235.938652 
L 268.459595 235.994464 
L 269.037557 235.426224 
L 269.1387 236.01041 
L 269.239843 235.898787 
L 269.326538 235.994464 
L 270.092336 106.948527 
L 270.179031 235.986491 
L 270.612502 36.841818 
L 270.699196 235.986491 
L 271.306056 36.841818 
L 271.39275 235.986491 
L 271.782874 36.841818 
L 271.869568 235.986491 
L 272.303039 36.841818 
L 272.389733 235.986491 
L 272.996593 36.841818 
L 273.083287 235.986491 
L 273.516758 36.841818 
L 273.603452 235.986491 
L 274.210312 36.841818 
L 274.297006 235.986491 
L 274.68713 36.841818 
L 274.773824 235.986491 
L 275.236193 36.841818 
L 275.322888 235.986491 
L 275.929747 36.841818 
L 276.016441 235.986491 
L 276.449912 36.841818 
L 276.536607 235.986491 
L 277.143466 36.841818 
L 277.23016 235.986491 
L 277.620284 36.841818 
L 277.706979 235.986491 
L 278.14045 36.841818 
L 278.227144 235.986491 
L 278.834004 36.841818 
L 278.920698 235.986491 
L 279.354169 36.841818 
L 279.440863 235.986491 
L 280.047723 36.841818 
L 280.134417 235.986491 
L 280.524541 36.841818 
L 280.611235 235.986491 
L 281.044706 36.841818 
L 281.1314 235.986491 
L 281.73826 36.841818 
L 281.824954 235.986491 
L 282.287323 36.841818 
L 282.374017 235.986491 
L 282.980877 36.841818 
L 283.067571 235.986491 
L 283.457695 36.841818 
L 283.544389 235.986491 
L 283.97786 36.841818 
L 284.064555 235.986491 
L 284.671414 36.841818 
L 284.758108 235.986491 
L 285.19158 36.841818 
L 285.278274 235.986491 
L 285.885133 36.841818 
L 285.971828 235.986491 
L 286.361952 36.841818 
L 286.448646 235.986491 
L 286.882117 36.841818 
L 286.968811 235.986491 
L 287.575671 36.841818 
L 287.662365 235.986491 
L 288.095836 36.841818 
L 288.18253 235.986491 
L 288.78939 36.841818 
L 288.876084 235.986491 
L 289.266208 36.841818 
L 289.352902 235.986491 
L 289.815271 36.841818 
L 289.901965 235.986491 
L 290.508825 36.841818 
L 290.595519 235.986491 
L 291.02899 36.841818 
L 291.115685 235.986491 
L 291.722544 36.841818 
L 291.809238 235.986491 
L 292.199362 36.841818 
L 292.286056 235.986491 
L 292.719528 36.841818 
L 292.806222 235.986491 
L 293.413081 36.841818 
L 293.499776 235.986491 
L 293.933247 36.841818 
L 294.019941 235.986491 
L 294.6268 36.841818 
L 294.713495 235.986491 
L 295.103619 36.841818 
L 295.190313 235.986491 
L 295.623784 36.841818 
L 295.710478 235.986491 
L 296.317338 36.841818 
L 296.404032 235.986491 
L 296.866401 36.841818 
L 296.953095 235.986491 
L 297.559955 36.841818 
L 297.646649 235.986491 
L 298.036773 36.841818 
L 298.123467 235.986491 
L 298.556938 36.841818 
L 298.643633 235.986491 
L 299.250492 36.841818 
L 299.337186 235.986491 
L 299.770657 36.841818 
L 299.857352 235.986491 
L 300.464211 36.841818 
L 300.550905 235.986491 
L 300.941029 36.841818 
L 301.027724 235.986491 
L 301.461195 36.841818 
L 301.547889 235.986491 
L 302.154748 36.841818 
L 302.241443 235.986491 
L 302.674914 36.841818 
L 302.761608 235.986491 
L 303.368467 36.841818 
L 303.455162 235.986491 
L 303.845286 36.841818 
L 303.93198 235.986491 
L 304.394349 36.841818 
L 304.481043 235.986491 
L 305.087903 36.841818 
L 305.174597 235.986491 
L 305.608068 36.841818 
L 305.694762 235.986491 
L 306.301622 36.841818 
L 306.388316 235.986491 
L 306.77844 36.841818 
L 306.865134 235.986491 
L 307.298605 36.841818 
L 307.3853 235.986491 
L 307.992159 36.841818 
L 308.078853 235.986491 
L 308.512324 36.841818 
L 308.599019 235.986491 
L 309.205878 36.841818 
L 309.292572 235.986491 
L 309.682696 36.841818 
L 309.769391 235.986491 
L 310.202862 36.841818 
L 310.289556 235.986491 
L 310.896415 36.841818 
L 310.98311 235.986491 
L 311.445479 36.841818 
L 311.532173 235.986491 
L 312.139033 36.841818 
L 312.225727 235.986491 
L 312.615851 36.841818 
L 312.702545 235.986491 
L 313.136016 36.841818 
L 313.22271 235.986491 
L 313.82957 36.841818 
L 313.916264 235.986491 
L 314.349735 36.841818 
L 314.436429 235.986491 
L 315.043289 36.841818 
L 315.129983 235.986491 
L 315.520107 36.841818 
L 315.606801 235.986491 
L 316.040272 36.841818 
L 316.126967 235.986491 
L 316.733826 36.841818 
L 316.82052 235.986491 
L 317.253992 36.841818 
L 317.340686 235.986491 
L 317.947545 36.841818 
L 318.034239 235.986491 
L 318.424363 36.841818 
L 318.511058 235.986491 
L 318.973427 36.841818 
L 319.060121 235.986491 
L 319.666981 36.841818 
L 319.753675 235.986491 
L 320.187146 36.841818 
L 320.27384 235.986491 
L 320.8807 36.841818 
L 320.967394 235.986491 
L 321.357518 36.841818 
L 321.444212 235.986491 
L 321.877683 36.841818 
L 321.964377 235.986491 
L 322.571237 36.841818 
L 322.657931 235.986491 
L 323.091402 36.841818 
L 323.178096 235.986491 
L 323.784956 36.841818 
L 323.87165 235.986491 
L 324.261774 36.841818 
L 324.348468 235.986491 
L 324.78194 36.841818 
L 324.868634 235.986491 
L 325.475493 36.841818 
L 325.562187 235.986491 
L 326.024557 36.841818 
L 326.111251 235.986491 
L 326.71811 36.841818 
L 326.804805 235.986491 
L 327.194929 36.841818 
L 327.281623 235.986491 
L 327.715094 36.841818 
L 327.801788 235.986491 
L 328.408648 36.841818 
L 328.495342 235.986491 
L 328.928813 36.841818 
L 329.015507 235.986491 
L 329.622367 36.841818 
L 329.709061 235.986491 
L 330.099185 36.841818 
L 330.185879 235.986491 
L 330.61935 36.841818 
L 330.706044 235.986491 
L 331.312904 36.841818 
L 331.399598 235.986491 
L 331.833069 36.841818 
L 331.919764 235.986491 
L 332.526623 36.841818 
L 332.613317 235.986491 
L 333.003441 36.841818 
L 333.090135 235.986491 
L 333.552505 36.841818 
L 333.639199 235.986491 
L 334.246058 36.841818 
L 334.332753 235.986491 
L 334.766224 36.841818 
L 334.852918 235.986491 
L 335.459777 36.841818 
L 335.546472 235.986491 
L 335.936596 36.841818 
L 336.02329 235.986491 
L 336.456761 36.841818 
L 336.543455 235.986491 
L 337.150315 36.841818 
L 337.237009 235.986491 
L 337.67048 36.841818 
L 337.757174 235.986491 
L 338.364034 36.841818 
L 338.450728 235.986491 
L 338.840852 36.841818 
L 338.927546 235.986491 
L 339.361017 36.841818 
L 339.447712 235.986491 
L 340.054571 36.841818 
L 340.141265 235.986491 
L 340.603634 36.841818 
L 340.690329 235.986491 
L 341.297188 36.841818 
L 341.383882 235.986491 
L 341.774006 36.841818 
L 341.860701 235.986491 
L 342.294172 36.841818 
L 342.380866 235.986491 
L 342.987725 36.841818 
L 343.07442 235.986491 
L 343.507891 36.841818 
L 343.594585 235.986491 
L 344.201445 36.841818 
L 344.288139 235.986491 
L 344.678263 36.841818 
L 344.764957 235.986491 
L 345.198428 36.841818 
L 345.285122 235.986491 
L 345.891982 36.841818 
L 345.978676 235.986491 
L 346.412147 36.841818 
L 346.498841 235.986491 
L 347.105701 36.841818 
L 347.192395 235.986491 
L 347.582519 36.841818 
L 347.669213 235.986491 
L 348.131582 36.841818 
L 348.218277 235.986491 
L 348.825136 36.841818 
L 348.91183 235.986491 
L 349.345302 36.841818 
L 349.431996 235.986491 
L 350.038855 36.841818 
L 350.12555 235.986491 
L 350.515673 36.841818 
L 350.602368 235.986491 
L 351.035839 36.841818 
L 351.122533 235.986491 
L 351.729393 36.841818 
L 351.816087 235.986491 
L 352.249558 36.841818 
L 352.336252 235.986491 
L 352.943112 36.841818 
L 353.029806 235.986491 
L 353.41993 36.841818 
L 353.506624 235.986491 
L 353.940095 36.841818 
L 354.026789 235.986491 
L 354.633649 36.841818 
L 354.720343 235.986491 
L 355.182712 36.841818 
L 355.269406 235.986491 
L 355.876266 36.841818 
L 355.96296 235.986491 
L 356.353084 36.841818 
L 356.439778 235.986491 
L 356.87325 36.841818 
L 356.959944 235.986491 
L 357.566803 36.841818 
L 357.653498 235.986491 
L 358.086969 36.841818 
L 358.173663 235.986491 
L 358.780522 36.841818 
L 358.867217 235.986491 
L 359.257341 36.841818 
L 359.344035 235.986491 
L 359.777506 36.841818 
L 359.8642 235.986491 
L 360.499958 36.841818 
L 360.586652 235.986491 
L 361.020123 36.841818 
L 361.106817 235.986491 
L 361.713677 36.841818 
L 361.800371 235.986491 
L 362.190495 36.841818 
L 362.277189 235.986491 
L 362.739558 36.841818 
L 362.826253 235.986491 
L 363.433112 36.841818 
L 363.519806 235.986491 
L 363.953277 36.841818 
L 364.039972 235.986491 
L 364.646831 36.841818 
L 364.733525 235.986491 
L 365.123649 36.841818 
L 365.210344 235.986491 
L 365.643815 36.841818 
L 365.730509 235.986491 
L 366.337368 36.841818 
L 366.424063 235.986491 
L 366.857534 36.841818 
L 366.944228 235.986491 
L 367.579986 36.841818 
L 367.66668 235.986491 
L 368.056804 36.841818 
L 368.143498 235.986491 
L 368.576969 36.841818 
L 368.663663 235.986491 
L 369.270523 36.841818 
L 369.357217 235.986491 
L 369.819586 36.841818 
L 369.90628 235.986491 
L 370.51314 36.841818 
L 370.599834 235.986491 
L 370.989958 36.841818 
L 371.076652 235.986491 
L 371.510123 36.841818 
L 371.596818 235.986491 
L 372.203677 36.841818 
L 372.290371 235.986491 
L 372.723843 36.841818 
L 372.810537 235.986491 
L 373.417396 36.841818 
L 373.504091 235.986491 
L 373.894215 36.841818 
L 373.980909 235.986491 
L 374.41438 36.841818 
L 374.501074 235.986491 
L 375.136832 36.841818 
L 375.223526 235.986491 
L 375.656997 36.841818 
L 375.743691 235.986491 
L 376.350551 36.841818 
L 376.437245 235.986491 
L 376.827369 36.841818 
L 376.914063 235.986491 
L 377.376432 36.841818 
L 377.463127 235.986491 
L 378.069986 36.841818 
L 378.15668 235.986491 
L 378.590151 36.841818 
L 378.676846 235.986491 
L 379.283705 36.841818 
L 379.370399 235.986491 
L 379.760523 36.841818 
L 379.847218 235.986491 
L 380.280689 36.841818 
L 380.367383 235.986491 
L 380.974242 36.841818 
L 381.060937 235.986491 
L 381.494408 36.841818 
L 381.581102 235.986491 
L 382.21686 36.841818 
L 382.303554 235.986491 
L 382.693678 36.841818 
L 382.780372 235.986491 
L 383.213843 36.841818 
L 383.300537 235.986491 
L 383.907397 36.841818 
L 383.994091 235.986491 
L 384.45646 36.841818 
L 384.543154 235.986491 
L 385.150014 36.841818 
L 385.236708 235.986491 
L 385.626832 36.841818 
L 385.713526 235.986491 
L 386.146997 36.841818 
L 386.233692 235.986491 
L 386.840551 36.841818 
L 386.927245 235.986491 
L 387.360717 36.841818 
L 387.447411 235.986491 
L 388.05427 36.841818 
L 388.140964 235.986491 
L 388.531088 36.841818 
L 388.617783 235.986491 
L 389.051254 36.841818 
L 389.137948 235.986491 
L 389.773706 36.841818 
L 389.8604 235.986491 
L 390.293871 36.841818 
L 390.380565 235.986491 
L 390.987425 36.841818 
L 391.074119 235.986491 
L 391.464243 36.841818 
L 391.550937 235.986491 
L 392.013306 36.841818 
L 392.1 235.986491 
L 392.70686 36.841818 
L 392.793554 235.986491 
L 393.227025 36.841818 
L 393.31372 235.986491 
L 393.920579 36.841818 
L 394.007273 235.986491 
L 394.397397 36.841818 
L 394.484092 235.986491 
L 394.917563 36.841818 
L 395.004257 235.986491 
L 395.611116 36.841818 
L 395.697811 235.986491 
L 396.131282 36.841818 
L 396.217976 235.986491 
L 396.853733 36.841818 
L 396.940428 235.986491 
L 397.330552 36.841818 
L 397.417246 235.986491 
L 397.850717 36.841818 
L 397.937411 235.986491 
L 398.544271 36.841818 
L 398.630965 235.986491 
L 399.093334 36.841818 
L 399.180028 235.986491 
L 399.786888 36.841818 
L 399.873582 235.986491 
L 400.263706 36.841818 
L 400.3504 235.986491 
L 400.783871 36.841818 
L 400.870566 235.986491 
L 401.477425 36.841818 
L 401.564119 235.986491 
L 401.99759 36.841818 
L 402.084285 235.986491 
L 402.691144 36.841818 
L 402.777838 235.986491 
L 403.167962 36.841818 
L 403.254657 235.986491 
L 403.688128 36.841818 
L 403.774822 235.986491 
L 404.41058 36.841818 
L 404.497274 235.986491 
L 404.930745 36.841818 
L 405.017439 235.986491 
L 405.624299 36.841818 
L 405.710993 235.986491 
L 406.101117 36.841818 
L 406.187811 235.986491 
L 406.65018 36.841818 
L 406.736874 235.986491 
L 407.343734 36.841818 
L 407.430428 235.986491 
L 407.863899 36.841818 
L 407.950594 235.986491 
L 408.557453 36.841818 
L 408.644147 235.986491 
L 409.034271 36.841818 
L 409.120965 235.986491 
L 409.554437 36.841818 
L 409.641131 235.986491 
L 410.24799 36.841818 
L 410.334685 235.986491 
L 410.768156 36.841818 
L 410.85485 235.986491 
L 411.490607 36.841818 
L 411.577302 235.986491 
L 411.967426 36.841818 
L 412.05412 235.986491 
L 412.487591 36.841818 
L 412.574285 235.986491 
L 413.181145 36.841818 
L 413.267839 235.986491 
L 413.730208 36.841818 
L 413.816902 235.986491 
L 414.423762 36.841818 
L 414.510456 235.986491 
L 414.90058 36.841818 
L 414.987274 235.986491 
L 415.420745 36.841818 
L 415.50744 235.986491 
L 416.114299 36.841818 
L 416.200993 235.986491 
L 416.634464 36.841818 
L 416.721159 235.986491 
L 417.328018 36.841818 
L 417.414712 235.986491 
L 417.804836 36.841818 
L 417.891531 235.986491 
L 418.325002 36.841818 
L 418.411696 235.986491 
L 419.047454 36.841818 
L 419.134148 235.986491 
L 419.567619 36.841818 
L 419.654313 235.986491 
L 420.261173 36.841818 
L 420.347867 235.986491 
L 420.737991 36.841818 
L 420.824685 235.986491 
L 421.287054 36.841818 
L 421.373748 235.986491 
L 421.980608 36.841818 
L 422.067302 235.986491 
L 422.500773 36.841818 
L 422.587467 235.986491 
L 423.194327 36.841818 
L 423.281021 235.986491 
L 423.671145 36.841818 
L 423.757839 235.986491 
L 424.191311 36.841818 
L 424.278005 235.986491 
L 424.884864 36.841818 
L 424.971558 235.986491 
L 425.40503 36.841818 
L 425.491724 235.986491 
L 426.127481 36.841818 
L 426.214176 235.986491 
L 426.6043 36.841818 
L 426.690994 235.986491 
L 427.124465 36.841818 
L 427.211159 235.986491 
L 427.818019 36.841818 
L 427.904713 235.986491 
L 428.367082 36.841818 
L 428.453776 235.986491 
L 429.060636 36.841818 
L 429.14733 235.986491 
L 429.537454 36.841818 
L 429.624148 235.986491 
L 430.057619 36.841818 
L 430.144314 235.986491 
L 430.751173 36.841818 
L 430.837867 235.986491 
L 431.271338 36.841818 
L 431.358033 235.986491 
L 431.964892 36.841818 
L 432.051586 235.986491 
L 432.44171 36.841818 
L 432.528405 235.986491 
L 432.961876 36.841818 
L 433.04857 235.986491 
L 433.684327 36.841818 
L 433.771022 235.986491 
L 434.204493 36.841818 
L 434.291187 235.986491 
L 434.898047 36.841818 
L 434.984741 235.986491 
L 435.374865 36.841818 
L 435.461559 235.986491 
L 435.923928 36.841818 
L 436.010622 235.986491 
L 436.617482 36.841818 
L 436.704176 235.986491 
L 437.137647 36.841818 
L 437.224341 235.986491 
L 437.831201 36.841818 
L 437.917895 235.986491 
L 438.308019 36.841818 
L 438.394713 235.986491 
L 438.828184 36.841818 
L 438.914879 235.986491 
L 439.521738 36.841818 
L 439.608432 235.986491 
L 440.041904 36.841818 
L 440.128598 235.986491 
L 440.764355 36.841818 
L 440.85105 235.986491 
L 441.241174 36.841818 
L 441.327868 235.986491 
L 441.761339 36.841818 
L 441.848033 235.986491 
L 442.454893 36.841818 
L 442.541587 235.986491 
L 443.003956 36.841818 
L 443.09065 235.986491 
L 443.69751 36.841818 
L 443.784204 235.986491 
L 444.174328 36.841818 
L 444.261022 235.986491 
L 444.694493 36.841818 
L 444.781187 235.986491 
L 445.388047 36.841818 
L 445.474741 235.986491 
L 445.908212 36.841818 
L 445.994907 235.986491 
L 446.601766 36.841818 
L 446.68846 235.986491 
L 447.078584 36.841818 
L 447.165279 235.986491 
L 447.59875 36.841818 
L 447.685444 235.986491 
L 448.321201 36.841818 
L 448.407896 235.986491 
L 448.841367 36.841818 
L 448.928061 235.986491 
L 449.53492 36.841818 
L 449.621615 235.986491 
L 450.011739 36.841818 
L 450.098433 235.986491 
L 450.560802 36.841818 
L 450.647496 235.986491 
L 451.254356 36.841818 
L 451.34105 235.986491 
L 451.774521 36.841818 
L 451.861215 235.986491 
L 452.468075 36.841818 
L 452.554769 235.986491 
L 452.944893 36.841818 
L 453.031587 235.986491 
L 453.465058 36.841818 
L 453.551753 235.986491 
L 454.158612 36.841818 
L 454.245306 235.986491 
L 454.678777 36.841818 
L 454.765472 235.986491 
L 455.401229 36.841818 
L 455.487924 235.986491 
L 455.878048 36.841818 
L 455.964742 235.986491 
L 456.398213 36.841818 
L 456.484907 235.986491 
L 457.091767 36.841818 
L 457.178461 235.986491 
L 457.64083 36.841818 
L 457.727524 235.986491 
L 458.334384 36.841818 
L 458.421078 235.986491 
L 458.811202 36.841818 
L 458.897896 235.986491 
L 459.331367 36.841818 
L 459.418061 235.986491 
L 460.024921 36.841818 
L 460.111615 235.986491 
L 460.545086 36.841818 
L 460.631781 235.986491 
L 461.23864 36.841818 
L 461.325334 235.986491 
L 461.715458 36.841818 
L 461.802152 235.986491 
L 462.235624 36.841818 
L 462.322318 235.986491 
L 462.958075 36.841818 
L 463.04477 235.986491 
L 463.478241 36.841818 
L 463.564935 235.986491 
L 464.171794 36.841818 
L 464.258489 235.986491 
L 464.648613 36.841818 
L 464.735307 235.986491 
L 465.197676 36.841818 
L 465.28437 235.986491 
L 465.89123 36.841818 
L 465.977924 235.986491 
L 466.411395 36.841818 
L 466.498089 235.986491 
L 467.104949 36.841818 
L 467.191643 235.986491 
L 467.581767 36.841818 
L 467.668461 235.986491 
L 468.101932 36.841818 
L 468.188627 235.986491 
L 468.795486 36.841818 
L 468.88218 235.986491 
L 469.315651 36.841818 
L 469.402346 235.986491 
L 470.038103 36.841818 
L 470.124797 235.986491 
L 470.514921 36.841818 
L 470.601616 235.986491 
L 471.035087 36.841818 
L 471.121781 235.986491 
L 471.728641 36.841818 
L 471.815335 235.986491 
L 472.277704 36.841818 
L 472.364398 235.986491 
L 472.971258 36.841818 
L 473.057952 235.986491 
L 473.448076 36.841818 
L 473.53477 235.986491 
L 473.968241 36.841818 
L 474.054935 235.986491 
L 474.661795 36.841818 
L 474.748489 235.986491 
L 475.18196 36.841818 
L 475.268654 235.986491 
L 475.875514 36.841818 
L 475.962208 235.986491 
L 476.352332 36.841818 
L 476.439026 235.986491 
L 476.872498 36.841818 
L 476.959192 235.986491 
L 477.566051 36.841818 
L 477.652745 235.986491 
L 478.086217 36.841818 
L 478.172911 235.986491 
L 478.77977 36.841818 
L 478.866465 235.986491 
L 479.256589 36.841818 
L 479.343283 235.986491 
L 479.805652 36.841818 
L 479.892346 235.986491 
L 480.499206 36.841818 
L 480.5859 235.986491 
L 481.019371 36.841818 
L 481.106065 235.986491 
L 481.712925 36.841818 
L 481.799619 235.986491 
L 482.189743 36.841818 
L 482.276437 235.986491 
L 482.709908 36.841818 
L 482.796602 235.986491 
L 483.403462 36.841818 
L 483.490156 235.986491 
L 483.923627 36.841818 
L 484.010322 235.986491 
L 484.617181 36.841818 
L 484.703875 235.986491 
L 485.093999 36.841818 
L 485.180693 235.986491 
L 485.614165 36.841818 
L 485.700859 235.986491 
L 486.307718 36.841818 
L 486.394413 235.986491 
L 486.856782 36.841818 
L 486.943476 235.986491 
L 487.550335 36.841818 
L 487.63703 235.986491 
L 488.027154 36.841818 
L 488.113848 235.986491 
L 488.547319 36.841818 
L 488.634013 235.986491 
L 489.240873 36.841818 
L 489.327567 235.986491 
L 489.761038 36.841818 
L 489.847732 235.986491 
L 490.454592 36.841818 
L 490.541286 235.986491 
L 490.93141 36.841818 
L 491.018104 235.986491 
L 491.451575 36.841818 
L 491.53827 235.986491 
L 492.145129 36.841818 
L 492.231823 235.986491 
L 492.665294 36.841818 
L 492.751989 235.986491 
L 493.358848 36.841818 
L 493.445542 235.986491 
L 493.835666 36.841818 
L 493.922361 235.986491 
L 494.38473 36.841818 
L 494.471424 235.986491 
L 495.078283 36.841818 
L 495.164978 235.986491 
L 495.598449 36.841818 
L 495.685143 235.986491 
L 496.292003 36.841818 
L 496.378697 235.986491 
L 496.768821 36.841818 
L 496.855515 235.986491 
L 497.288986 36.841818 
L 497.37568 235.986491 
L 497.98254 36.841818 
L 498.069234 235.986491 
L 498.502705 36.841818 
L 498.589399 235.986491 
L 499.196259 36.841818 
L 499.282953 235.986491 
L 499.673077 36.841818 
L 499.759771 235.986491 
L 500.193242 36.841818 
L 500.279937 235.986491 
L 500.886796 36.841818 
L 500.97349 235.986491 
L 501.43586 36.841818 
L 501.522554 235.986491 
L 502.129413 36.841818 
L 502.216108 235.986491 
L 502.606231 36.841818 
L 502.692926 235.986491 
L 503.126397 36.841818 
L 503.213091 235.986491 
L 503.819951 36.841818 
L 503.906645 235.986491 
L 504.340116 36.841818 
L 504.42681 235.986491 
L 505.03367 36.841818 
L 505.120364 235.986491 
L 505.510488 36.841818 
L 505.597182 235.986491 
L 506.030653 36.841818 
L 506.117347 235.986491 
L 506.724207 36.841818 
L 506.810901 235.986491 
L 507.244372 36.841818 
L 507.331066 235.986491 
L 507.937926 36.841818 
L 508.02462 235.986491 
L 508.414744 36.841818 
L 508.501438 235.986491 
L 508.963808 36.841818 
L 509.050502 235.986491 
L 509.657361 36.841818 
L 509.744056 235.986491 
L 510.177527 36.841818 
L 510.264221 235.986491 
L 510.87108 36.841818 
L 510.957775 235.986491 
L 511.347899 36.841818 
L 511.434593 235.986491 
L 511.868064 36.841818 
L 511.954758 235.986491 
L 512.561618 36.841818 
L 512.648312 235.986491 
L 513.081783 36.841818 
L 513.168477 235.986491 
L 513.775337 36.841818 
L 513.862031 235.986491 
L 514.252155 36.841818 
L 514.338849 235.986491 
L 514.77232 36.841818 
L 514.859014 235.986491 
L 515.465874 36.841818 
L 515.552568 235.986491 
L 516.014937 36.841818 
L 516.101632 235.986491 
L 516.708491 36.841818 
L 516.795185 235.986491 
L 517.185309 36.841818 
L 517.272004 235.986491 
L 517.705475 36.841818 
L 517.792169 235.986491 
L 518.399028 36.841818 
L 518.485723 235.986491 
L 518.919194 36.841818 
L 519.005888 235.986491 
L 519.612747 36.841818 
L 519.699442 235.986491 
L 520.089566 36.841818 
L 520.17626 235.986491 
L 520.609731 36.841818 
L 520.696425 235.986491 
L 521.303285 36.841818 
L 521.389979 235.986491 
L 521.82345 36.841818 
L 521.910144 235.986491 
L 522.517004 36.841818 
L 522.603698 235.986491 
L 522.993822 36.841818 
L 523.080516 235.986491 
L 523.542885 36.841818 
L 523.62958 235.986491 
L 524.236439 36.841818 
L 524.323133 235.986491 
L 524.756604 36.841818 
L 524.843299 235.986491 
L 525.450158 36.841818 
L 525.536852 235.986491 
L 525.926976 36.841818 
L 526.013671 235.986491 
L 526.447142 36.841818 
L 526.533836 235.986491 
L 527.140695 36.841818 
L 527.22739 235.986491 
L 527.660861 36.841818 
L 527.747555 235.986491 
L 528.354415 36.841818 
L 528.441109 235.986491 
L 528.831233 36.841818 
L 528.917927 235.986491 
L 529.351398 36.841818 
L 529.438092 235.986491 
L 530.044952 36.841818 
L 530.131646 235.986491 
L 530.594015 36.841818 
L 530.680709 235.986491 
L 531.287569 36.841818 
L 531.374263 235.986491 
L 531.764387 36.841818 
L 531.851081 235.986491 
L 532.284552 36.841818 
L 532.371247 235.986491 
L 532.978106 36.841818 
L 533.0648 235.986491 
L 533.498271 36.841818 
L 533.584966 235.986491 
L 534.191825 36.841818 
L 534.278519 235.986491 
L 534.668643 36.841818 
L 534.755338 235.986491 
L 535.188809 36.841818 
L 535.275503 235.986491 
L 535.882363 36.841818 
L 535.969057 235.986491 
L 536.402528 36.841818 
L 536.489222 235.986491 
L 537.096082 36.841818 
L 537.182776 235.986491 
L 537.5729 36.841818 
L 537.659594 235.986491 
L 538.121963 36.841818 
L 538.208657 235.986491 
L 538.815517 36.841818 
L 538.902211 235.986491 
L 539.335682 36.841818 
L 539.422376 235.986491 
L 540.029236 36.841818 
L 540.11593 235.986491 
L 540.506054 36.841818 
L 540.592748 235.986491 
L 541.026219 36.841818 
L 541.112914 235.986491 
L 541.719773 36.841818 
L 541.806467 235.986491 
L 542.239939 36.841818 
L 542.326633 235.986491 
L 542.933492 36.841818 
L 543.020187 235.986491 
L 543.410311 36.841818 
L 543.497005 235.986491 
L 543.930476 36.841818 
L 544.01717 235.986491 
L 544.62403 36.841818 
L 544.710724 235.986491 
L 545.173093 36.841818 
L 545.259787 235.986491 
L 545.866647 36.841818 
L 545.953341 235.986491 
L 546.343465 36.841818 
L 546.430159 235.986491 
L 546.86363 36.841818 
L 546.950324 235.986491 
L 547.557184 36.841818 
L 547.643878 235.986491 
L 548.077349 36.841818 
L 548.164044 235.986491 
L 548.770903 36.841818 
L 548.857597 235.986491 
L 549.247721 36.841818 
L 549.334415 235.986491 
L 549.767887 36.841818 
L 549.854581 235.986491 
L 550.46144 36.841818 
L 550.548135 235.986491 
L 550.981606 36.841818 
L 551.0683 235.986491 
L 551.675159 36.841818 
L 551.761854 235.986491 
L 552.151978 36.841818 
L 552.238672 235.986491 
L 552.701041 36.841818 
L 552.787735 235.986491 
L 553.394595 36.841818 
L 553.481289 235.986491 
L 553.91476 36.841818 
L 554.001454 235.986491 
L 554.608314 36.841818 
L 554.695008 235.986491 
L 555.085132 36.841818 
L 555.171826 235.986491 
L 555.605297 36.841818 
L 555.691992 235.986491 
L 556.298851 36.841818 
L 556.385545 235.986491 
L 556.819016 36.841818 
L 556.905711 235.986491 
L 557.51257 36.841818 
L 557.599264 235.986491 
L 557.989388 36.841818 
L 558.076083 235.986491 
L 558.509554 36.841818 
L 558.596248 235.986491 
L 559.203107 36.841818 
L 559.289802 235.986491 
L 559.752171 36.841818 
L 559.838865 235.986491 
L 560.445725 36.841818 
L 560.532419 235.986491 
L 560.922543 36.841818 
L 561.009237 235.986491 
L 561.442708 36.841818 
L 561.529402 235.986491 
L 562.136262 36.841818 
L 562.222956 235.986491 
L 562.656427 36.841818 
L 562.743121 235.986491 
L 563.349981 36.841818 
L 563.436675 235.986491 
L 563.826799 36.841818 
L 563.913493 235.986491 
L 564.346964 36.841818 
L 564.433659 235.986491 
L 565.040518 36.841818 
L 565.127212 235.986491 
L 565.560683 36.841818 
L 565.647378 235.986491 
L 566.254237 36.841818 
L 566.340931 235.986491 
L 566.731055 36.841818 
L 566.81775 235.986491 
L 567.280119 36.841818 
L 567.366813 235.986491 
L 567.973673 36.841818 
L 568.060367 235.986491 
L 568.493838 36.841818 
L 568.580532 235.986491 
L 569.187392 36.841818 
L 569.274086 235.986491 
L 569.66421 36.841818 
L 569.750904 235.986491 
L 570.184375 36.841818 
L 570.271069 235.986491 
L 570.877929 36.841818 
L 570.964623 235.986491 
L 571.398094 36.841818 
L 571.484788 235.986491 
L 572.091648 36.841818 
L 572.178342 235.986491 
L 572.568466 36.841818 
L 572.65516 235.986491 
L 573.088631 36.841818 
L 573.175326 235.986491 
L 573.782185 36.841818 
L 573.868879 235.986491 
L 574.331249 36.841818 
L 574.417943 235.986491 
L 575.024802 36.841818 
L 575.111497 235.986491 
L 575.501621 36.841818 
L 575.588315 235.986491 
L 576.021786 36.841818 
L 576.10848 235.986491 
L 576.71534 36.841818 
L 576.802034 235.986491 
L 577.235505 36.841818 
L 577.322199 235.986491 
L 577.929059 36.841818 
L 578.015753 235.986491 
L 578.405877 36.841818 
L 578.492571 235.986491 
L 578.926042 36.841818 
L 579.012736 235.986491 
L 579.619596 36.841818 
L 579.70629 235.986491 
L 580.139761 36.841818 
L 580.226455 235.986491 
L 580.833315 36.841818 
L 580.920009 235.986491 
L 581.310133 36.841818 
L 581.396827 235.986491 
L 581.859197 36.841818 
L 581.945891 235.986491 
L 582.55275 36.841818 
L 582.639445 235.986491 
L 583.072916 36.841818 
L 583.15961 235.986491 
L 583.766469 36.841818 
L 583.853164 235.986491 
L 584.243288 36.841818 
L 584.329982 235.986491 
L 584.763453 36.841818 
L 584.850147 235.986491 
L 585.457007 36.841818 
L 585.543701 235.986491 
L 585.977172 36.841818 
L 586.063866 235.986491 
L 586.670726 36.841818 
L 586.75742 235.986491 
L 587.147544 36.841818 
L 587.234238 235.986491 
L 587.667709 36.841818 
L 587.754403 235.986491 
L 588.361263 36.841818 
L 588.447957 235.986491 
L 588.910326 36.841818 
L 588.997021 235.986491 
L 589.60388 36.841818 
L 589.690574 235.986491 
L 590.080698 36.841818 
L 590.167393 235.986491 
L 590.600864 36.841818 
L 590.687558 235.986491 
L 591.294417 36.841818 
L 591.381112 235.986491 
L 591.814583 36.841818 
L 591.901277 235.986491 
L 592.508136 36.841818 
L 592.594831 235.986491 
L 592.984955 36.841818 
L 593.071649 235.986491 
L 593.50512 36.841818 
L 593.591814 235.986491 
L 594.198674 36.841818 
L 594.285368 235.986491 
L 594.718839 36.841818 
L 594.805533 235.986491 
L 595.412393 36.841818 
L 595.499087 235.986491 
L 595.889211 36.841818 
L 595.975905 235.986491 
L 596.438274 36.841818 
L 596.524969 235.986491 
L 597.131828 36.841818 
L 597.218522 235.986491 
L 597.651993 36.841818 
L 597.738688 235.986491 
L 598.345547 36.841818 
L 598.432241 235.986491 
L 598.822365 36.841818 
L 598.90906 235.986491 
L 599.342531 36.841818 
L 599.429225 235.986491 
L 600.036084 36.841818 
L 600.122779 235.986491 
L 600.55625 36.841818 
L 600.642944 235.986491 
L 601.249804 36.841818 
L 601.336498 235.986491 
L 601.726622 36.841818 
L 601.813316 235.986491 
L 602.246787 36.841818 
L 602.333481 235.986491 
L 602.940341 36.841818 
L 603.027035 235.986491 
L 603.489404 36.841818 
L 603.576098 235.986491 
L 604.182958 36.841818 
L 604.269652 235.986491 
L 604.659776 36.841818 
L 604.74647 235.986491 
L 605.179941 36.841818 
L 605.266636 235.986491 
L 605.873495 36.841818 
L 605.960189 235.986491 
L 606.393661 36.841818 
L 606.480355 235.986491 
L 607.087214 36.841818 
L 607.173909 235.986491 
L 607.564032 36.841818 
L 607.650727 235.986491 
L 608.084198 36.841818 
L 608.170892 235.986491 
L 608.777752 36.841818 
L 608.864446 235.986491 
L 609.297917 36.841818 
L 609.384611 235.986491 
L 609.991471 36.841818 
L 610.078165 235.986491 
L 610.468289 36.841818 
L 610.554983 235.986491 
L 610.988454 36.841818 
L 611.075148 235.986491 
L 611.65311 36.841818 
L 611.739804 235.986491 
L 612.202173 36.841818 
L 612.288867 235.986491 
L 613.083564 36.841818 
L 613.170259 235.986491 
L 613.531485 36.841818 
L 613.618179 235.986491 
L 614.066099 36.841818 
L 614.152793 235.986491 
L 614.94749 36.841818 
L 615.034184 235.986491 
L 615.511003 36.841818 
L 615.597697 235.986491 
L 616.883661 36.841818 
L 616.970355 235.986491 
L 617.360479 36.841818 
L 617.447173 235.986491 
L 617.895094 36.841818 
L 617.981788 235.986491 
L 618.603096 36.841818 
L 618.689791 235.986491 
L 619.339997 36.841818 
L 619.426691 235.986491 
L 620.004653 36.841818 
L 620.091347 235.986491 
L 620.49592 36.841818 
L 620.582614 235.986491 
L 621.203923 36.841818 
L 621.290617 235.986491 
L 624.642794 36.841818 
L 624.729488 235.986491 
L 625.162959 36.841818 
L 625.249653 235.986491 
L 625.856513 36.841818 
L 625.943207 235.986491 
L 626.333331 36.841818 
L 626.420025 235.986491 
L 626.853496 36.841818 
L 626.94019 235.986491 
L 627.54705 36.841818 
L 627.633744 235.986491 
L 628.067215 36.841818 
L 628.153909 235.986491 
L 628.760769 36.841818 
L 628.847463 235.986491 
L 629.237587 36.841818 
L 629.324281 235.986491 
L 629.786651 36.841818 
L 629.873345 235.986491 
L 630.480204 36.841818 
L 630.566899 235.986491 
L 631.00037 36.841818 
L 631.087064 235.986491 
L 631.693923 36.841818 
L 631.780618 235.986491 
L 632.170742 36.841818 
L 632.257436 235.986491 
L 632.690907 36.841818 
L 632.777601 235.986491 
L 633.384461 36.841818 
L 633.471155 235.986491 
L 633.904626 36.841818 
L 633.99132 235.986491 
L 634.59818 36.841818 
L 634.684874 235.986491 
L 635.074998 36.841818 
L 635.161692 235.986491 
L 635.595163 36.841818 
L 635.681857 235.986491 
L 636.288717 36.841818 
L 636.375411 235.986491 
L 636.83778 36.841818 
L 636.924475 235.986491 
L 637.531334 36.841818 
L 637.618028 235.986491 
L 638.008152 36.841818 
L 638.094847 235.986491 
L 638.528318 36.841818 
L 638.615012 235.986491 
L 639.221871 36.841818 
L 639.308566 235.986491 
L 639.742037 36.841818 
L 639.828731 235.986491 
L 640.43559 36.841818 
L 640.522285 235.986491 
L 640.912409 36.841818 
L 640.999103 235.986491 
L 641.432574 36.841818 
L 641.519268 235.986491 
L 642.126128 36.841818 
L 642.212822 235.986491 
L 642.646293 36.841818 
L 642.732987 235.986491 
L 643.339847 36.841818 
L 643.426541 235.986491 
L 643.816665 36.841818 
L 643.903359 235.986491 
L 644.365728 36.841818 
L 644.452423 235.986491 
L 645.059282 36.841818 
L 645.145976 235.986491 
L 645.579447 36.841818 
L 645.666142 235.986491 
L 646.273001 36.841818 
L 646.359695 235.986491 
L 646.749819 36.841818 
L 646.836514 235.986491 
L 647.269985 36.841818 
L 647.356679 235.986491 
L 647.963538 36.841818 
L 648.050233 235.986491 
L 648.483704 36.841818 
L 648.570398 235.986491 
L 649.177258 36.841818 
L 649.263952 235.986491 
L 649.654076 36.841818 
L 649.74077 235.986491 
L 650.174241 36.841818 
L 650.260935 235.986491 
L 650.867795 36.841818 
L 650.954489 235.986491 
L 651.416858 36.841818 
L 651.503552 235.986491 
L 652.110412 36.841818 
L 652.197106 235.986491 
L 652.58723 36.841818 
L 652.673924 235.986491 
L 653.107395 36.841818 
L 653.19409 235.986491 
L 653.800949 36.841818 
L 653.887643 235.986491 
L 654.321115 36.841818 
L 654.407809 235.986491 
L 655.014668 36.841818 
L 655.101363 235.986491 
L 655.491486 36.841818 
L 655.578181 235.986491 
L 656.011652 36.841818 
L 656.098346 235.986491 
L 656.705206 36.841818 
L 656.7919 235.986491 
L 657.225371 36.841818 
L 657.312065 235.986491 
L 657.918925 36.841818 
L 658.005619 235.986491 
L 658.395743 36.841818 
L 658.482437 235.986491 
L 658.944806 36.841818 
L 659.0315 235.986491 
L 659.63836 36.841818 
L 659.725054 235.986491 
L 660.158525 36.841818 
L 660.245219 235.986491 
L 660.852079 36.841818 
L 660.938773 235.986491 
L 661.328897 36.841818 
L 661.415591 235.986491 
L 661.849063 36.841818 
L 661.935757 235.986491 
L 662.542616 36.841818 
L 662.629311 235.986491 
L 663.062782 36.841818 
L 663.149476 235.986491 
L 663.756335 36.841818 
L 663.84303 235.986491 
L 664.233154 36.841818 
L 664.319848 235.986491 
L 664.753319 36.841818 
L 664.840013 235.986491 
L 665.446873 36.841818 
L 665.533567 235.986491 
L 665.995936 36.841818 
L 666.08263 235.986491 
L 666.68949 36.841818 
L 666.776184 235.986491 
L 667.166308 36.841818 
L 667.253002 235.986491 
L 667.686473 36.841818 
L 667.773168 235.986491 
L 668.380027 36.841818 
L 668.466721 235.986491 
L 668.900192 36.841818 
L 668.986887 235.986491 
L 669.593746 36.841818 
L 669.68044 235.986491 
L 670.070564 36.841818 
L 670.157259 235.986491 
L 670.59073 36.841818 
L 670.677424 235.986491 
L 671.284283 36.841818 
L 671.370978 235.986491 
L 671.804449 36.841818 
L 671.891143 235.986491 
L 672.498002 36.841818 
L 672.584697 235.986491 
L 672.974821 36.841818 
L 673.061515 235.986491 
L 673.523884 36.841818 
L 673.610578 235.986491 
L 674.217438 36.841818 
L 674.304132 235.986491 
L 674.737603 36.841818 
L 674.824297 235.986491 
L 675.431157 36.841818 
L 675.517851 235.986491 
L 675.907975 36.841818 
L 675.994669 235.986491 
L 676.42814 36.841818 
L 676.514835 235.986491 
L 677.121694 36.841818 
L 677.208388 235.986491 
L 677.641859 36.841818 
L 677.728554 235.986491 
L 678.335413 36.841818 
L 678.422107 235.986491 
L 678.812231 36.841818 
L 678.898926 235.986491 
L 679.332397 36.841818 
L 679.419091 235.986491 
L 679.419091 235.986491 
" clip-path="url(#p6d9e63b229)" style="fill: none; stroke: #1f77b4; stroke-width: 1.5; stroke-linecap: square"/>
   </g>
   <g id="patch_3">
    <path d="M 54.02 246.04 
L 54.02 26.88 
" style="fill: none; stroke: #000000; stroke-width: 0.8; stroke-linejoin: miter; stroke-linecap: square"/>
   </g>
   <g id="patch_4">
    <path d="M 709.2 246.04 
L 709.2 26.88 
" style="fill: none; stroke: #000000; stroke-width: 0.8; stroke-linejoin: miter; stroke-linecap: square"/>
   </g>
   <g id="patch_5">
    <path d="M 54.02 246.04 
L 709.2 246.04 
" style="fill: none; stroke: #000000; stroke-width: 0.8; stroke-linejoin: miter; stroke-linecap: square"/>
   </g>
   <g id="patch_6">
    <path d="M 54.02 26.88 
L 709.2 26.88 
" style="fill: none; stroke: #000000; stroke-width: 0.8; stroke-linejoin: miter; stroke-linecap: square"/>
   </g>
   <g id="text_14">
    <!-- radioMode:vector (HandoverShowcase.ap2.wlan[0].radio) -->
    <g transform="translate(208.29625 20.88) scale(0.12 -0.12)">
     <defs>
      <path id="DejaVuSans-72" d="M 2631 2963 
Q 2534 3019 2420 3045 
Q 2306 3072 2169 3072 
Q 1681 3072 1420 2755 
Q 1159 2438 1159 1844 
L 1159 0 
L 581 0 
L 581 3500 
L 1159 3500 
L 1159 2956 
Q 1341 3275 1631 3429 
Q 1922 3584 2338 3584 
Q 2397 3584 2469 3576 
Q 2541 3569 2628 3553 
L 2631 2963 
z
" transform="scale(0.015625)"/>
      <path id="DejaVuSans-64" d="M 2906 2969 
L 2906 4863 
L 3481 4863 
L 3481 0 
L 2906 0 
L 2906 525 
Q 2725 213 2448 61 
Q 2172 -91 1784 -91 
Q 1150 -91 751 415 
Q 353 922 353 1747 
Q 353 2572 751 3078 
Q 1150 3584 1784 3584 
Q 2172 3584 2448 3432 
Q 2725 3281 2906 2969 
z
M 947 1747 
Q 947 1113 1208 752 
Q 1469 391 1925 391 
Q 2381 391 2643 752 
Q 2906 1113 2906 1747 
Q 2906 2381 2643 2742 
Q 2381 3103 1925 3103 
Q 1469 3103 1208 2742 
Q 947 2381 947 1747 
z
" transform="scale(0.015625)"/>
      <path id="DejaVuSans-6f" d="M 1959 3097 
Q 1497 3097 1228 2736 
Q 959 2375 959 1747 
Q 959 1119 1226 758 
Q 1494 397 1959 397 
Q 2419 397 2687 759 
Q 2956 1122 2956 1747 
Q 2956 2369 2687 2733 
Q 2419 3097 1959 3097 
z
M 1959 3584 
Q 2709 3584 3137 3096 
Q 3566 2609 3566 1747 
Q 3566 888 3137 398 
Q 2709 -91 1959 -91 
Q 1206 -91 779 398 
Q 353 888 353 1747 
Q 353 2609 779 3096 
Q 1206 3584 1959 3584 
z
" transform="scale(0.015625)"/>
      <path id="DejaVuSans-4d" d="M 628 4666 
L 1569 4666 
L 2759 1491 
L 3956 4666 
L 4897 4666 
L 4897 0 
L 4281 0 
L 4281 4097 
L 3078 897 
L 2444 897 
L 1241 4097 
L 1241 0 
L 628 0 
L 628 4666 
z
" transform="scale(0.015625)"/>
      <path id="DejaVuSans-3a" d="M 750 794 
L 1409 794 
L 1409 0 
L 750 0 
L 750 794 
z
M 750 3309 
L 1409 3309 
L 1409 2516 
L 750 2516 
L 750 3309 
z
" transform="scale(0.015625)"/>
      <path id="DejaVuSans-76" d="M 191 3500 
L 800 3500 
L 1894 563 
L 2988 3500 
L 3597 3500 
L 2284 0 
L 1503 0 
L 191 3500 
z
" transform="scale(0.015625)"/>
      <path id="DejaVuSans-63" d="M 3122 3366 
L 3122 2828 
Q 2878 2963 2633 3030 
Q 2388 3097 2138 3097 
Q 1578 3097 1268 2742 
Q 959 2388 959 1747 
Q 959 1106 1268 751 
Q 1578 397 2138 397 
Q 2388 397 2633 464 
Q 2878 531 3122 666 
L 3122 134 
Q 2881 22 2623 -34 
Q 2366 -91 2075 -91 
Q 1284 -91 818 406 
Q 353 903 353 1747 
Q 353 2603 823 3093 
Q 1294 3584 2113 3584 
Q 2378 3584 2631 3529 
Q 2884 3475 3122 3366 
z
" transform="scale(0.015625)"/>
      <path id="DejaVuSans-48" d="M 628 4666 
L 1259 4666 
L 1259 2753 
L 3553 2753 
L 3553 4666 
L 4184 4666 
L 4184 0 
L 3553 0 
L 3553 2222 
L 1259 2222 
L 1259 0 
L 628 0 
L 628 4666 
z
" transform="scale(0.015625)"/>
      <path id="DejaVuSans-6e" d="M 3513 2113 
L 3513 0 
L 2938 0 
L 2938 2094 
Q 2938 2591 2744 2837 
Q 2550 3084 2163 3084 
Q 1697 3084 1428 2787 
Q 1159 2491 1159 1978 
L 1159 0 
L 581 0 
L 581 3500 
L 1159 3500 
L 1159 2956 
Q 1366 3272 1645 3428 
Q 1925 3584 2291 3584 
Q 2894 3584 3203 3211 
Q 3513 2838 3513 2113 
z
" transform="scale(0.015625)"/>
      <path id="DejaVuSans-53" d="M 3425 4513 
L 3425 3897 
Q 3066 4069 2747 4153 
Q 2428 4238 2131 4238 
Q 1616 4238 1336 4038 
Q 1056 3838 1056 3469 
Q 1056 3159 1242 3001 
Q 1428 2844 1947 2747 
L 2328 2669 
Q 3034 2534 3370 2195 
Q 3706 1856 3706 1288 
Q 3706 609 3251 259 
Q 2797 -91 1919 -91 
Q 1588 -91 1214 -16 
Q 841 59 441 206 
L 441 856 
Q 825 641 1194 531 
Q 1563 422 1919 422 
Q 2459 422 2753 634 
Q 3047 847 3047 1241 
Q 3047 1584 2836 1778 
Q 2625 1972 2144 2069 
L 1759 2144 
Q 1053 2284 737 2584 
Q 422 2884 422 3419 
Q 422 4038 858 4394 
Q 1294 4750 2059 4750 
Q 2388 4750 2728 4690 
Q 3069 4631 3425 4513 
z
" transform="scale(0.015625)"/>
      <path id="DejaVuSans-68" d="M 3513 2113 
L 3513 0 
L 2938 0 
L 2938 2094 
Q 2938 2591 2744 2837 
Q 2550 3084 2163 3084 
Q 1697 3084 1428 2787 
Q 1159 2491 1159 1978 
L 1159 0 
L 581 0 
L 581 4863 
L 1159 4863 
L 1159 2956 
Q 1366 3272 1645 3428 
Q 1925 3584 2291 3584 
Q 2894 3584 3203 3211 
Q 3513 2838 3513 2113 
z
" transform="scale(0.015625)"/>
      <path id="DejaVuSans-77" d="M 269 3500 
L 844 3500 
L 1563 769 
L 2278 3500 
L 2956 3500 
L 3675 769 
L 4391 3500 
L 4966 3500 
L 4050 0 
L 3372 0 
L 2619 2869 
L 1863 0 
L 1184 0 
L 269 3500 
z
" transform="scale(0.015625)"/>
      <path id="DejaVuSans-70" d="M 1159 525 
L 1159 -1331 
L 581 -1331 
L 581 3500 
L 1159 3500 
L 1159 2969 
Q 1341 3281 1617 3432 
Q 1894 3584 2278 3584 
Q 2916 3584 3314 3078 
Q 3713 2572 3713 1747 
Q 3713 922 3314 415 
Q 2916 -91 2278 -91 
Q 1894 -91 1617 61 
Q 1341 213 1159 525 
z
M 3116 1747 
Q 3116 2381 2855 2742 
Q 2594 3103 2138 3103 
Q 1681 3103 1420 2742 
Q 1159 2381 1159 1747 
Q 1159 1113 1420 752 
Q 1681 391 2138 391 
Q 2594 391 2855 752 
Q 3116 1113 3116 1747 
z
" transform="scale(0.015625)"/>
      <path id="DejaVuSans-5b" d="M 550 4863 
L 1875 4863 
L 1875 4416 
L 1125 4416 
L 1125 -397 
L 1875 -397 
L 1875 -844 
L 550 -844 
L 550 4863 
z
" transform="scale(0.015625)"/>
      <path id="DejaVuSans-5d" d="M 1947 4863 
L 1947 -844 
L 622 -844 
L 622 -397 
L 1369 -397 
L 1369 4416 
L 622 4416 
L 622 4863 
L 1947 4863 
z
" transform="scale(0.015625)"/>
     </defs>
     <use xlink:href="#DejaVuSans-72"/>
     <use xlink:href="#DejaVuSans-61" x="41.113281"/>
     <use xlink:href="#DejaVuSans-64" x="102.392578"/>
     <use xlink:href="#DejaVuSans-69" x="165.869141"/>
     <use xlink:href="#DejaVuSans-6f" x="193.652344"/>
     <use xlink:href="#DejaVuSans-4d" x="254.833984"/>
     <use xlink:href="#DejaVuSans-6f" x="341.113281"/>
     <use xlink:href="#DejaVuSans-64" x="402.294922"/>
     <use xlink:href="#DejaVuSans-65" x="465.771484"/>
     <use xlink:href="#DejaVuSans-3a" x="527.294922"/>
     <use xlink:href="#DejaVuSans-76" x="560.986328"/>
     <use xlink:href="#DejaVuSans-65" x="620.166016"/>
     <use xlink:href="#DejaVuSans-63" x="681.689453"/>
     <use xlink:href="#DejaVuSans-74" x="736.669922"/>
     <use xlink:href="#DejaVuSans-6f" x="775.878906"/>
     <use xlink:href="#DejaVuSans-72" x="837.060547"/>
     <use xlink:href="#DejaVuSans-20" x="878.173828"/>
     <use xlink:href="#DejaVuSans-28" x="909.960938"/>
     <use xlink:href="#DejaVuSans-48" x="948.974609"/>
     <use xlink:href="#DejaVuSans-61" x="1024.169922"/>
     <use xlink:href="#DejaVuSans-6e" x="1085.449219"/>
     <use xlink:href="#DejaVuSans-64" x="1148.828125"/>
     <use xlink:href="#DejaVuSans-6f" x="1212.304688"/>
     <use xlink:href="#DejaVuSans-76" x="1273.486328"/>
     <use xlink:href="#DejaVuSans-65" x="1332.666016"/>
     <use xlink:href="#DejaVuSans-72" x="1394.189453"/>
     <use xlink:href="#DejaVuSans-53" x="1435.302734"/>
     <use xlink:href="#DejaVuSans-68" x="1498.779297"/>
     <use xlink:href="#DejaVuSans-6f" x="1562.158203"/>
     <use xlink:href="#DejaVuSans-77" x="1623.339844"/>
     <use xlink:href="#DejaVuSans-63" x="1705.126953"/>
     <use xlink:href="#DejaVuSans-61" x="1760.107422"/>
     <use xlink:href="#DejaVuSans-73" x="1821.386719"/>
     <use xlink:href="#DejaVuSans-65" x="1873.486328"/>
     <use xlink:href="#DejaVuSans-2e" x="1935.009766"/>
     <use xlink:href="#DejaVuSans-61" x="1966.796875"/>
     <use xlink:href="#DejaVuSans-70" x="2028.076172"/>
     <use xlink:href="#DejaVuSans-32" x="2091.552734"/>
     <use xlink:href="#DejaVuSans-2e" x="2155.175781"/>
     <use xlink:href="#DejaVuSans-77" x="2186.962891"/>
     <use xlink:href="#DejaVuSans-6c" x="2268.75"/>
     <use xlink:href="#DejaVuSans-61" x="2296.533203"/>
     <use xlink:href="#DejaVuSans-6e" x="2357.8125"/>
     <use xlink:href="#DejaVuSans-5b" x="2421.191406"/>
     <use xlink:href="#DejaVuSans-30" x="2460.205078"/>
     <use xlink:href="#DejaVuSans-5d" x="2523.828125"/>
     <use xlink:href="#DejaVuSans-2e" x="2562.841797"/>
     <use xlink:href="#DejaVuSans-72" x="2594.628906"/>
     <use xlink:href="#DejaVuSans-61" x="2635.742188"/>
     <use xlink:href="#DejaVuSans-64" x="2697.021484"/>
     <use xlink:href="#DejaVuSans-69" x="2760.498047"/>
     <use xlink:href="#DejaVuSans-6f" x="2788.28125"/>
     <use xlink:href="#DejaVuSans-29" x="2849.462891"/>
    </g>
   </g>
   <g id="legend_1">
    <g id="patch_7">
     <path d="M 576.717188 145.299062 
L 702.2 145.299062 
Q 704.2 145.299062 704.2 143.299062 
L 704.2 129.620937 
Q 704.2 127.620937 702.2 127.620937 
L 576.717188 127.620937 
Q 574.717188 127.620937 574.717188 129.620937 
L 574.717188 143.299062 
Q 574.717188 145.299062 576.717188 145.299062 
z
" style="fill: #ffffff; opacity: 0.8; stroke: #cccccc; stroke-linejoin: miter"/>
    </g>
    <g id="line2d_24">
     <path d="M 578.717188 135.719375 
L 588.717188 135.719375 
L 598.717188 135.719375 
" style="fill: none; stroke: #1f77b4; stroke-width: 1.5; stroke-linecap: square"/>
    </g>
    <g id="text_15">
     <!-- value per sample -->
     <g transform="translate(606.717188 139.219375) scale(0.1 -0.1)">
      <defs>
       <path id="DejaVuSans-394" d="M 2188 4044 
L 906 525 
L 3472 525 
L 2188 4044 
z
M 50 0 
L 1831 4666 
L 2547 4666 
L 4325 0 
L 50 0 
z
" transform="scale(0.015625)"/>
      </defs>
      <use xlink:href="#DejaVuSans-394"/>
      <use xlink:href="#DejaVuSans-76" x="68.408203"/>
      <use xlink:href="#DejaVuSans-61" x="127.587891"/>
      <use xlink:href="#DejaVuSans-6c" x="188.867188"/>
      <use xlink:href="#DejaVuSans-75" x="216.650391"/>
      <use xlink:href="#DejaVuSans-65" x="280.029297"/>
      <use xlink:href="#DejaVuSans-20" x="341.552734"/>
      <use xlink:href="#DejaVuSans-70" x="373.339844"/>
      <use xlink:href="#DejaVuSans-65" x="436.816406"/>
      <use xlink:href="#DejaVuSans-72" x="498.339844"/>
      <use xlink:href="#DejaVuSans-20" x="539.453125"/>
      <use xlink:href="#DejaVuSans-73" x="571.240234"/>
      <use xlink:href="#DejaVuSans-61" x="623.339844"/>
      <use xlink:href="#DejaVuSans-6d" x="684.619141"/>
      <use xlink:href="#DejaVuSans-70" x="782.03125"/>
      <use xlink:href="#DejaVuSans-6c" x="845.507812"/>
      <use xlink:href="#DejaVuSans-65" x="873.291016"/>
     </g>
    </g>
   </g>
  </g>
 </g>
 <defs>
  <clipPath id="p6d9e63b229">
   <rect x="54.02" y="26.88" width="655.18" height="219.16"/>
  </clipPath>
 </defs>
</svg>
