<?xml version="1.0" encoding="utf-8" standalone="no"?>
<!DOCTYPE svg PUBLIC "-//W3C//DTD SVG 1.1//EN"
  "http://www.w3.org/Graphics/SVG/1.1/DTD/svg11.dtd">
<svg xmlns:xlink="http://www.w3.org/1999/xlink" width="720pt" height="288pt" viewBox="0 0 720 288" xmlns="http://www.w3.org/2000/svg" version="1.1">
 <metadata>
  <rdf:RDF xmlns:dc="http://purl.org/dc/elements/1.1/" xmlns:cc="http://creativecommons.org/ns#" xmlns:rdf="http://www.w3.org/1999/02/22-rdf-syntax-ns#">
   <cc:Work>
    <dc:type rdf:resource="http://purl.org/dc/dcmitype/StillImage"/>
    <dc:date>2025-07-27T15:08:41.800708</dc:date>
    <dc:format>image/svg+xml</dc:format>
    <dc:creator>
     <cc:Agent>
      <dc:title>Matplotlib v3.9.2, https://matplotlib.org/</dc:title>
     </cc:Agent>
    </dc:creator>
   </cc:Work>
  </rdf:RDF>
 </metadata>
 <defs>
  <style type="text/css">*{stroke-linejoin: round; stroke-linecap: butt}</style>
 </defs>
 <g id="figure_1">
  <g id="patch_1">
   <path d="M 0 288 
L 720 288 
L 720 0 
L 0 0 
z
" style="fill: #ffffff"/>
  </g>
  <g id="axes_1">
   <g id="patch_2">
    <path d="M 54.02 246.04 
L 709.2 246.04 
L 709.2 26.88 
L 54.02 26.88 
z
" style="fill: #ffffff"/>
   </g>
   <g id="matplotlib.axis_1">
    <g id="xtick_1">
     <g id="line2d_1">
      <path d="M 83.800909 246.04 
L 83.800909 26.88 
" clip-path="url(#p9a93d0d308)" style="fill: none; stroke: #b0b0b0; stroke-width: 0.8; stroke-linecap: square"/>
     </g>
     <g id="line2d_2">
      <defs>
       <path id="m83db13ec6b" d="M 0 0 
L 0 3.5 
" style="stroke: #000000; stroke-width: 0.8"/>
      </defs>
      <g>
       <use xlink:href="#m83db13ec6b" x="83.800909" y="246.04" style="stroke: #000000; stroke-width: 0.8"/>
      </g>
     </g>
     <g id="text_1">
      <!-- 0 -->
      <g transform="translate(80.619659 260.638438) scale(0.1 -0.1)">
       <defs>
        <path id="DejaVuSans-30" d="M 2034 4250 
Q 1547 4250 1301 3770 
Q 1056 3291 1056 2328 
Q 1056 1369 1301 889 
Q 1547 409 2034 409 
Q 2525 409 2770 889 
Q 3016 1369 3016 2328 
Q 3016 3291 2770 3770 
Q 2525 4250 2034 4250 
z
M 2034 4750 
Q 2819 4750 3233 4129 
Q 3647 3509 3647 2328 
Q 3647 1150 3233 529 
Q 2819 -91 2034 -91 
Q 1250 -91 836 529 
Q 422 1150 422 2328 
Q 422 3509 836 4129 
Q 1250 4750 2034 4750 
z
" transform="scale(0.015625)"/>
       </defs>
       <use xlink:href="#DejaVuSans-30"/>
      </g>
     </g>
    </g>
    <g id="xtick_2">
     <g id="line2d_3">
      <path d="M 228.263238 246.04 
L 228.263238 26.88 
" clip-path="url(#p9a93d0d308)" style="fill: none; stroke: #b0b0b0; stroke-width: 0.8; stroke-linecap: square"/>
     </g>
     <g id="line2d_4">
      <g>
       <use xlink:href="#m83db13ec6b" x="228.263238" y="246.04" style="stroke: #000000; stroke-width: 0.8"/>
      </g>
     </g>
     <g id="text_2">
      <!-- 10000 -->
      <g transform="translate(212.356988 260.638438) scale(0.1 -0.1)">
       <defs>
        <path id="DejaVuSans-31" d="M 794 531 
L 1825 531 
L 1825 4091 
L 703 3866 
L 703 4441 
L 1819 4666 
L 2450 4666 
L 2450 531 
L 3481 531 
L 3481 0 
L 794 0 
L 794 531 
z
" transform="scale(0.015625)"/>
       </defs>
       <use xlink:href="#DejaVuSans-31"/>
       <use xlink:href="#DejaVuSans-30" x="63.623047"/>
       <use xlink:href="#DejaVuSans-30" x="127.246094"/>
       <use xlink:href="#DejaVuSans-30" x="190.869141"/>
       <use xlink:href="#DejaVuSans-30" x="254.492188"/>
      </g>
     </g>
    </g>
    <g id="xtick_3">
     <g id="line2d_5">
      <path d="M 372.725567 246.04 
L 372.725567 26.88 
" clip-path="url(#p9a93d0d308)" style="fill: none; stroke: #b0b0b0; stroke-width: 0.8; stroke-linecap: square"/>
     </g>
     <g id="line2d_6">
      <g>
       <use xlink:href="#m83db13ec6b" x="372.725567" y="246.04" style="stroke: #000000; stroke-width: 0.8"/>
      </g>
     </g>
     <g id="text_3">
      <!-- 20000 -->
      <g transform="translate(356.819317 260.638438) scale(0.1 -0.1)">
       <defs>
        <path id="DejaVuSans-32" d="M 1228 531 
L 3431 531 
L 3431 0 
L 469 0 
L 469 531 
Q 828 903 1448 1529 
Q 2069 2156 2228 2338 
Q 2531 2678 2651 2914 
Q 2772 3150 2772 3378 
Q 2772 3750 2511 3984 
Q 2250 4219 1831 4219 
Q 1534 4219 1204 4116 
Q 875 4013 500 3803 
L 500 4441 
Q 881 4594 1212 4672 
Q 1544 4750 1819 4750 
Q 2544 4750 2975 4387 
Q 3406 4025 3406 3419 
Q 3406 3131 3298 2873 
Q 3191 2616 2906 2266 
Q 2828 2175 2409 1742 
Q 1991 1309 1228 531 
z
" transform="scale(0.015625)"/>
       </defs>
       <use xlink:href="#DejaVuSans-32"/>
       <use xlink:href="#DejaVuSans-30" x="63.623047"/>
       <use xlink:href="#DejaVuSans-30" x="127.246094"/>
       <use xlink:href="#DejaVuSans-30" x="190.869141"/>
       <use xlink:href="#DejaVuSans-30" x="254.492188"/>
      </g>
     </g>
    </g>
    <g id="xtick_4">
     <g id="line2d_7">
      <path d="M 517.187896 246.04 
L 517.187896 26.88 
" clip-path="url(#p9a93d0d308)" style="fill: none; stroke: #b0b0b0; stroke-width: 0.8; stroke-linecap: square"/>
     </g>
     <g id="line2d_8">
      <g>
       <use xlink:href="#m83db13ec6b" x="517.187896" y="246.04" style="stroke: #000000; stroke-width: 0.8"/>
      </g>
     </g>
     <g id="text_4">
      <!-- 30000 -->
      <g transform="translate(501.281646 260.638438) scale(0.1 -0.1)">
       <defs>
        <path id="DejaVuSans-33" d="M 2597 2516 
Q 3050 2419 3304 2112 
Q 3559 1806 3559 1356 
Q 3559 666 3084 287 
Q 2609 -91 1734 -91 
Q 1441 -91 1130 -33 
Q 819 25 488 141 
L 488 750 
Q 750 597 1062 519 
Q 1375 441 1716 441 
Q 2309 441 2620 675 
Q 2931 909 2931 1356 
Q 2931 1769 2642 2001 
Q 2353 2234 1838 2234 
L 1294 2234 
L 1294 2753 
L 1863 2753 
Q 2328 2753 2575 2939 
Q 2822 3125 2822 3475 
Q 2822 3834 2567 4026 
Q 2313 4219 1838 4219 
Q 1578 4219 1281 4162 
Q 984 4106 628 3988 
L 628 4550 
Q 988 4650 1302 4700 
Q 1616 4750 1894 4750 
Q 2613 4750 3031 4423 
Q 3450 4097 3450 3541 
Q 3450 3153 3228 2886 
Q 3006 2619 2597 2516 
z
" transform="scale(0.015625)"/>
       </defs>
       <use xlink:href="#DejaVuSans-33"/>
       <use xlink:href="#DejaVuSans-30" x="63.623047"/>
       <use xlink:href="#DejaVuSans-30" x="127.246094"/>
       <use xlink:href="#DejaVuSans-30" x="190.869141"/>
       <use xlink:href="#DejaVuSans-30" x="254.492188"/>
      </g>
     </g>
    </g>
    <g id="xtick_5">
     <g id="line2d_9">
      <path d="M 661.650224 246.04 
L 661.650224 26.88 
" clip-path="url(#p9a93d0d308)" style="fill: none; stroke: #b0b0b0; stroke-width: 0.8; stroke-linecap: square"/>
     </g>
     <g id="line2d_10">
      <g>
       <use xlink:href="#m83db13ec6b" x="661.650224" y="246.04" style="stroke: #000000; stroke-width: 0.8"/>
      </g>
     </g>
     <g id="text_5">
      <!-- 40000 -->
      <g transform="translate(645.743974 260.638438) scale(0.1 -0.1)">
       <defs>
        <path id="DejaVuSans-34" d="M 2419 4116 
L 825 1625 
L 2419 1625 
L 2419 4116 
z
M 2253 4666 
L 3047 4666 
L 3047 1625 
L 3713 1625 
L 3713 1100 
L 3047 1100 
L 3047 0 
L 2419 0 
L 2419 1100 
L 313 1100 
L 313 1709 
L 2253 4666 
z
" transform="scale(0.015625)"/>
       </defs>
       <use xlink:href="#DejaVuSans-34"/>
       <use xlink:href="#DejaVuSans-30" x="63.623047"/>
       <use xlink:href="#DejaVuSans-30" x="127.246094"/>
       <use xlink:href="#DejaVuSans-30" x="190.869141"/>
       <use xlink:href="#DejaVuSans-30" x="254.492188"/>
      </g>
     </g>
    </g>
    <g id="text_6">
     <!-- Time (s) -->
     <g transform="translate(361.281094 274.316562) scale(0.1 -0.1)">
      <defs>
       <path id="DejaVuSans-54" d="M -19 4666 
L 3928 4666 
L 3928 4134 
L 2272 4134 
L 2272 0 
L 1638 0 
L 1638 4134 
L -19 4134 
L -19 4666 
z
" transform="scale(0.015625)"/>
       <path id="DejaVuSans-69" d="M 603 3500 
L 1178 3500 
L 1178 0 
L 603 0 
L 603 3500 
z
M 603 4863 
L 1178 4863 
L 1178 4134 
L 603 4134 
L 603 4863 
z
" transform="scale(0.015625)"/>
       <path id="DejaVuSans-6d" d="M 3328 2828 
Q 3544 3216 3844 3400 
Q 4144 3584 4550 3584 
Q 5097 3584 5394 3201 
Q 5691 2819 5691 2113 
L 5691 0 
L 5113 0 
L 5113 2094 
Q 5113 2597 4934 2840 
Q 4756 3084 4391 3084 
Q 3944 3084 3684 2787 
Q 3425 2491 3425 1978 
L 3425 0 
L 2847 0 
L 2847 2094 
Q 2847 2600 2669 2842 
Q 2491 3084 2119 3084 
Q 1678 3084 1418 2786 
Q 1159 2488 1159 1978 
L 1159 0 
L 581 0 
L 581 3500 
L 1159 3500 
L 1159 2956 
Q 1356 3278 1631 3431 
Q 1906 3584 2284 3584 
Q 2666 3584 2933 3390 
Q 3200 3197 3328 2828 
z
" transform="scale(0.015625)"/>
       <path id="DejaVuSans-65" d="M 3597 1894 
L 3597 1613 
L 953 1613 
Q 991 1019 1311 708 
Q 1631 397 2203 397 
Q 2534 397 2845 478 
Q 3156 559 3463 722 
L 3463 178 
Q 3153 47 2828 -22 
Q 2503 -91 2169 -91 
Q 1331 -91 842 396 
Q 353 884 353 1716 
Q 353 2575 817 3079 
Q 1281 3584 2069 3584 
Q 2775 3584 3186 3129 
Q 3597 2675 3597 1894 
z
M 3022 2063 
Q 3016 2534 2758 2815 
Q 2500 3097 2075 3097 
Q 1594 3097 1305 2825 
Q 1016 2553 972 2059 
L 3022 2063 
z
" transform="scale(0.015625)"/>
       <path id="DejaVuSans-20" transform="scale(0.015625)"/>
       <path id="DejaVuSans-28" d="M 1984 4856 
Q 1566 4138 1362 3434 
Q 1159 2731 1159 2009 
Q 1159 1288 1364 580 
Q 1569 -128 1984 -844 
L 1484 -844 
Q 1016 -109 783 600 
Q 550 1309 550 2009 
Q 550 2706 781 3412 
Q 1013 4119 1484 4856 
L 1984 4856 
z
" transform="scale(0.015625)"/>
       <path id="DejaVuSans-73" d="M 2834 3397 
L 2834 2853 
Q 2591 2978 2328 3040 
Q 2066 3103 1784 3103 
Q 1356 3103 1142 2972 
Q 928 2841 928 2578 
Q 928 2378 1081 2264 
Q 1234 2150 1697 2047 
L 1894 2003 
Q 2506 1872 2764 1633 
Q 3022 1394 3022 966 
Q 3022 478 2636 193 
Q 2250 -91 1575 -91 
Q 1294 -91 989 -36 
Q 684 19 347 128 
L 347 722 
Q 666 556 975 473 
Q 1284 391 1588 391 
Q 1994 391 2212 530 
Q 2431 669 2431 922 
Q 2431 1156 2273 1281 
Q 2116 1406 1581 1522 
L 1381 1569 
Q 847 1681 609 1914 
Q 372 2147 372 2553 
Q 372 3047 722 3315 
Q 1072 3584 1716 3584 
Q 2034 3584 2315 3537 
Q 2597 3491 2834 3397 
z
" transform="scale(0.015625)"/>
       <path id="DejaVuSans-29" d="M 513 4856 
L 1013 4856 
Q 1481 4119 1714 3412 
Q 1947 2706 1947 2009 
Q 1947 1309 1714 600 
Q 1481 -109 1013 -844 
L 513 -844 
Q 928 -128 1133 580 
Q 1338 1288 1338 2009 
Q 1338 2731 1133 3434 
Q 928 4138 513 4856 
z
" transform="scale(0.015625)"/>
      </defs>
      <use xlink:href="#DejaVuSans-54"/>
      <use xlink:href="#DejaVuSans-69" x="57.958984"/>
      <use xlink:href="#DejaVuSans-6d" x="85.742188"/>
      <use xlink:href="#DejaVuSans-65" x="183.154297"/>
      <use xlink:href="#DejaVuSans-20" x="244.677734"/>
      <use xlink:href="#DejaVuSans-28" x="276.464844"/>
      <use xlink:href="#DejaVuSans-73" x="315.478516"/>
      <use xlink:href="#DejaVuSans-29" x="367.578125"/>
     </g>
    </g>
   </g>
   <g id="matplotlib.axis_2">
    <g id="ytick_1">
     <g id="line2d_11">
      <path d="M 54.02 236.078182 
L 709.2 236.078182 
" clip-path="url(#p9a93d0d308)" style="fill: none; stroke: #b0b0b0; stroke-width: 0.8; stroke-linecap: square"/>
     </g>
     <g id="line2d_12">
      <defs>
       <path id="mf015cabe9b" d="M 0 0 
L -3.5 0 
" style="stroke: #000000; stroke-width: 0.8"/>
      </defs>
      <g>
       <use xlink:href="#mf015cabe9b" x="54.02" y="236.078182" style="stroke: #000000; stroke-width: 0.8"/>
      </g>
     </g>
     <g id="text_7">
      <!-- 0.00 -->
      <g transform="translate(24.754375 239.877401) scale(0.1 -0.1)">
       <defs>
        <path id="DejaVuSans-2e" d="M 684 794 
L 1344 794 
L 1344 0 
L 684 0 
L 684 794 
z
" transform="scale(0.015625)"/>
       </defs>
       <use xlink:href="#DejaVuSans-30"/>
       <use xlink:href="#DejaVuSans-2e" x="63.623047"/>
       <use xlink:href="#DejaVuSans-30" x="95.410156"/>
       <use xlink:href="#DejaVuSans-30" x="159.033203"/>
      </g>
     </g>
    </g>
    <g id="ytick_2">
     <g id="line2d_13">
      <path d="M 54.02 196.230909 
L 709.2 196.230909 
" clip-path="url(#p9a93d0d308)" style="fill: none; stroke: #b0b0b0; stroke-width: 0.8; stroke-linecap: square"/>
     </g>
     <g id="line2d_14">
      <g>
       <use xlink:href="#mf015cabe9b" x="54.02" y="196.230909" style="stroke: #000000; stroke-width: 0.8"/>
      </g>
     </g>
     <g id="text_8">
      <!-- 0.05 -->
      <g transform="translate(24.754375 200.030128) scale(0.1 -0.1)">
       <defs>
        <path id="DejaVuSans-35" d="M 691 4666 
L 3169 4666 
L 3169 4134 
L 1269 4134 
L 1269 2991 
Q 1406 3038 1543 3061 
Q 1681 3084 1819 3084 
Q 2600 3084 3056 2656 
Q 3513 2228 3513 1497 
Q 3513 744 3044 326 
Q 2575 -91 1722 -91 
Q 1428 -91 1123 -41 
Q 819 9 494 109 
L 494 744 
Q 775 591 1075 516 
Q 1375 441 1709 441 
Q 2250 441 2565 725 
Q 2881 1009 2881 1497 
Q 2881 1984 2565 2268 
Q 2250 2553 1709 2553 
Q 1456 2553 1204 2497 
Q 953 2441 691 2322 
L 691 4666 
z
" transform="scale(0.015625)"/>
       </defs>
       <use xlink:href="#DejaVuSans-30"/>
       <use xlink:href="#DejaVuSans-2e" x="63.623047"/>
       <use xlink:href="#DejaVuSans-30" x="95.410156"/>
       <use xlink:href="#DejaVuSans-35" x="159.033203"/>
      </g>
     </g>
    </g>
    <g id="ytick_3">
     <g id="line2d_15">
      <path d="M 54.02 156.383636 
L 709.2 156.383636 
" clip-path="url(#p9a93d0d308)" style="fill: none; stroke: #b0b0b0; stroke-width: 0.8; stroke-linecap: square"/>
     </g>
     <g id="line2d_16">
      <g>
       <use xlink:href="#mf015cabe9b" x="54.02" y="156.383636" style="stroke: #000000; stroke-width: 0.8"/>
      </g>
     </g>
     <g id="text_9">
      <!-- 0.10 -->
      <g transform="translate(24.754375 160.182855) scale(0.1 -0.1)">
       <use xlink:href="#DejaVuSans-30"/>
       <use xlink:href="#DejaVuSans-2e" x="63.623047"/>
       <use xlink:href="#DejaVuSans-31" x="95.410156"/>
       <use xlink:href="#DejaVuSans-30" x="159.033203"/>
      </g>
     </g>
    </g>
    <g id="ytick_4">
     <g id="line2d_17">
      <path d="M 54.02 116.536364 
L 709.2 116.536364 
" clip-path="url(#p9a93d0d308)" style="fill: none; stroke: #b0b0b0; stroke-width: 0.8; stroke-linecap: square"/>
     </g>
     <g id="line2d_18">
      <g>
       <use xlink:href="#mf015cabe9b" x="54.02" y="116.536364" style="stroke: #000000; stroke-width: 0.8"/>
      </g>
     </g>
     <g id="text_10">
      <!-- 0.15 -->
      <g transform="translate(24.754375 120.335582) scale(0.1 -0.1)">
       <use xlink:href="#DejaVuSans-30"/>
       <use xlink:href="#DejaVuSans-2e" x="63.623047"/>
       <use xlink:href="#DejaVuSans-31" x="95.410156"/>
       <use xlink:href="#DejaVuSans-35" x="159.033203"/>
      </g>
     </g>
    </g>
    <g id="ytick_5">
     <g id="line2d_19">
      <path d="M 54.02 76.689091 
L 709.2 76.689091 
" clip-path="url(#p9a93d0d308)" style="fill: none; stroke: #b0b0b0; stroke-width: 0.8; stroke-linecap: square"/>
     </g>
     <g id="line2d_20">
      <g>
       <use xlink:href="#mf015cabe9b" x="54.02" y="76.689091" style="stroke: #000000; stroke-width: 0.8"/>
      </g>
     </g>
     <g id="text_11">
      <!-- 0.20 -->
      <g transform="translate(24.754375 80.48831) scale(0.1 -0.1)">
       <use xlink:href="#DejaVuSans-30"/>
       <use xlink:href="#DejaVuSans-2e" x="63.623047"/>
       <use xlink:href="#DejaVuSans-32" x="95.410156"/>
       <use xlink:href="#DejaVuSans-30" x="159.033203"/>
      </g>
     </g>
    </g>
    <g id="ytick_6">
     <g id="line2d_21">
      <path d="M 54.02 36.841818 
L 709.2 36.841818 
" clip-path="url(#p9a93d0d308)" style="fill: none; stroke: #b0b0b0; stroke-width: 0.8; stroke-linecap: square"/>
     </g>
     <g id="line2d_22">
      <g>
       <use xlink:href="#mf015cabe9b" x="54.02" y="36.841818" style="stroke: #000000; stroke-width: 0.8"/>
      </g>
     </g>
     <g id="text_12">
      <!-- 0.25 -->
      <g transform="translate(24.754375 40.641037) scale(0.1 -0.1)">
       <use xlink:href="#DejaVuSans-30"/>
       <use xlink:href="#DejaVuSans-2e" x="63.623047"/>
       <use xlink:href="#DejaVuSans-32" x="95.410156"/>
       <use xlink:href="#DejaVuSans-35" x="159.033203"/>
      </g>
     </g>
    </g>
    <g id="text_13">
     <!-- Delta Value -->
     <g transform="translate(18.674688 165.120156) rotate(-90) scale(0.1 -0.1)">
      <defs>
       <path id="DejaVuSans-44" d="M 1259 4147 
L 1259 519 
L 2022 519 
Q 2988 519 3436 956 
Q 3884 1394 3884 2338 
Q 3884 3275 3436 3711 
Q 2988 4147 2022 4147 
L 1259 4147 
z
M 628 4666 
L 1925 4666 
Q 3281 4666 3915 4102 
Q 4550 3538 4550 2338 
Q 4550 1131 3912 565 
Q 3275 0 1925 0 
L 628 0 
L 628 4666 
z
" transform="scale(0.015625)"/>
       <path id="DejaVuSans-6c" d="M 603 4863 
L 1178 4863 
L 1178 0 
L 603 0 
L 603 4863 
z
" transform="scale(0.015625)"/>
       <path id="DejaVuSans-74" d="M 1172 4494 
L 1172 3500 
L 2356 3500 
L 2356 3053 
L 1172 3053 
L 1172 1153 
Q 1172 725 1289 603 
Q 1406 481 1766 481 
L 2356 481 
L 2356 0 
L 1766 0 
Q 1100 0 847 248 
Q 594 497 594 1153 
L 594 3053 
L 172 3053 
L 172 3500 
L 594 3500 
L 594 4494 
L 1172 4494 
z
" transform="scale(0.015625)"/>
       <path id="DejaVuSans-61" d="M 2194 1759 
Q 1497 1759 1228 1600 
Q 959 1441 959 1056 
Q 959 750 1161 570 
Q 1363 391 1709 391 
Q 2188 391 2477 730 
Q 2766 1069 2766 1631 
L 2766 1759 
L 2194 1759 
z
M 3341 1997 
L 3341 0 
L 2766 0 
L 2766 531 
Q 2569 213 2275 61 
Q 1981 -91 1556 -91 
Q 1019 -91 701 211 
Q 384 513 384 1019 
Q 384 1609 779 1909 
Q 1175 2209 1959 2209 
L 2766 2209 
L 2766 2266 
Q 2766 2663 2505 2880 
Q 2244 3097 1772 3097 
Q 1472 3097 1187 3025 
Q 903 2953 641 2809 
L 641 3341 
Q 956 3463 1253 3523 
Q 1550 3584 1831 3584 
Q 2591 3584 2966 3190 
Q 3341 2797 3341 1997 
z
" transform="scale(0.015625)"/>
       <path id="DejaVuSans-56" d="M 1831 0 
L 50 4666 
L 709 4666 
L 2188 738 
L 3669 4666 
L 4325 4666 
L 2547 0 
L 1831 0 
z
" transform="scale(0.015625)"/>
       <path id="DejaVuSans-75" d="M 544 1381 
L 544 3500 
L 1119 3500 
L 1119 1403 
Q 1119 906 1312 657 
Q 1506 409 1894 409 
Q 2359 409 2629 706 
Q 2900 1003 2900 1516 
L 2900 3500 
L 3475 3500 
L 3475 0 
L 2900 0 
L 2900 538 
Q 2691 219 2414 64 
Q 2138 -91 1772 -91 
Q 1169 -91 856 284 
Q 544 659 544 1381 
z
M 1991 3584 
L 1991 3584 
z
" transform="scale(0.015625)"/>
      </defs>
      <use xlink:href="#DejaVuSans-44"/>
      <use xlink:href="#DejaVuSans-65" x="77.001953"/>
      <use xlink:href="#DejaVuSans-6c" x="138.525391"/>
      <use xlink:href="#DejaVuSans-74" x="166.308594"/>
      <use xlink:href="#DejaVuSans-61" x="205.517578"/>
      <use xlink:href="#DejaVuSans-20" x="266.796875"/>
      <use xlink:href="#DejaVuSans-56" x="298.583984"/>
      <use xlink:href="#DejaVuSans-61" x="359.242188"/>
      <use xlink:href="#DejaVuSans-6c" x="420.521484"/>
      <use xlink:href="#DejaVuSans-75" x="448.304688"/>
      <use xlink:href="#DejaVuSans-65" x="511.683594"/>
     </g>
    </g>
   </g>
   <g id="line2d_23">
    <path d="M 83.800909 236.078182 
L 84.812145 85.247981 
L 84.841038 236.078182 
L 86.473462 36.841818 
L 86.502355 236.078182 
L 88.120333 36.841818 
L 88.149225 236.078182 
L 90.272821 36.841818 
L 90.301714 236.078182 
L 91.919692 36.841818 
L 91.948584 236.078182 
L 93.609901 36.841818 
L 93.638794 236.078182 
L 97.770416 36.841818 
L 97.799309 236.078182 
L 99.229486 36.841818 
L 99.258378 236.078182 
L 100.674109 36.841818 
L 100.703002 236.078182 
L 102.133179 36.841818 
L 102.162071 236.078182 
L 103.606694 36.841818 
L 103.635587 236.078182 
L 105.065764 36.841818 
L 105.094656 236.078182 
L 106.510387 36.841818 
L 106.53928 236.078182 
L 107.969457 36.841818 
L 107.998349 236.078182 
L 109.41408 36.841818 
L 109.442972 236.078182 
L 110.902042 36.841818 
L 110.930934 236.078182 
L 112.346665 36.841818 
L 112.375558 236.078182 
L 113.805735 36.841818 
L 113.834627 236.078182 
L 115.250358 36.841818 
L 115.279251 236.078182 
L 116.709428 36.841818 
L 116.73832 236.078182 
L 118.182943 36.841818 
L 118.211836 236.078182 
L 119.642013 36.841818 
L 119.670905 236.078182 
L 121.086636 36.841818 
L 121.115529 236.078182 
L 122.545706 36.841818 
L 122.574598 236.078182 
L 123.990329 36.841818 
L 124.019221 236.078182 
L 125.478291 36.841818 
L 125.507183 236.078182 
L 126.922914 36.841818 
L 126.951807 236.078182 
L 128.381984 36.841818 
L 128.410876 236.078182 
L 129.826607 36.841818 
L 129.8555 236.078182 
L 131.285677 36.841818 
L 131.314569 236.078182 
L 132.759192 36.841818 
L 132.788085 236.078182 
L 134.218262 36.841818 
L 134.247154 236.078182 
L 135.662885 36.841818 
L 135.691778 236.078182 
L 137.121955 36.841818 
L 137.150847 236.078182 
L 138.566578 36.841818 
L 138.59547 236.078182 
L 140.05454 36.841818 
L 140.083432 236.078182 
L 141.499163 36.841818 
L 141.528056 236.078182 
L 142.958233 36.841818 
L 142.987125 236.078182 
L 144.402856 36.841818 
L 144.431749 236.078182 
L 145.861926 36.841818 
L 145.890818 236.078182 
L 147.335441 36.841818 
L 147.364334 236.078182 
L 148.794511 36.841818 
L 148.823403 236.078182 
L 150.239134 36.841818 
L 150.268027 236.078182 
L 151.698204 36.841818 
L 151.727096 236.078182 
L 153.142827 36.841818 
L 153.171719 236.078182 
L 154.630789 36.841818 
L 154.659681 236.078182 
L 156.075412 36.841818 
L 156.104305 236.078182 
L 157.534482 36.841818 
L 157.563374 236.078182 
L 158.979105 36.841818 
L 159.007997 236.078182 
L 160.438175 36.841818 
L 160.467067 236.078182 
L 161.91169 36.841818 
L 161.940583 236.078182 
L 163.37076 36.841818 
L 163.399652 236.078182 
L 164.815383 36.841818 
L 164.844276 236.078182 
L 166.274453 36.841818 
L 166.303345 236.078182 
L 167.719076 36.841818 
L 167.747968 236.078182 
L 169.207038 36.841818 
L 169.23593 236.078182 
L 170.651661 36.841818 
L 170.680554 236.078182 
L 172.110731 36.841818 
L 172.139623 236.078182 
L 173.555354 36.841818 
L 173.584246 236.078182 
L 175.014424 36.841818 
L 175.043316 236.078182 
L 176.487939 36.841818 
L 176.516832 236.078182 
L 177.947009 36.841818 
L 177.975901 236.078182 
L 179.391632 36.841818 
L 179.420525 236.078182 
L 180.850702 36.841818 
L 180.879594 236.078182 
L 182.295325 36.841818 
L 182.324217 236.078182 
L 183.783287 36.841818 
L 183.812179 236.078182 
L 185.22791 36.841818 
L 185.256803 236.078182 
L 186.68698 36.841818 
L 186.715872 236.078182 
L 188.131603 36.841818 
L 188.160495 236.078182 
L 189.590673 36.841818 
L 189.619565 236.078182 
L 191.064188 36.841818 
L 191.093081 236.078182 
L 192.523258 36.841818 
L 192.55215 236.078182 
L 193.967881 36.841818 
L 193.996774 236.078182 
L 195.426951 36.841818 
L 195.455843 236.078182 
L 196.871574 36.841818 
L 196.900466 236.078182 
L 198.359536 36.841818 
L 198.388428 236.078182 
L 199.804159 36.841818 
L 199.833052 236.078182 
L 201.263229 36.841818 
L 201.292121 236.078182 
L 202.707852 36.841818 
L 202.736744 236.078182 
L 204.166921 36.841818 
L 204.195814 236.078182 
L 205.640437 36.841818 
L 205.66933 236.078182 
L 207.099507 36.841818 
L 207.128399 236.078182 
L 208.54413 36.841818 
L 208.573023 236.078182 
L 210.0032 36.841818 
L 210.032092 236.078182 
L 211.447823 36.841818 
L 211.476715 236.078182 
L 212.935785 36.841818 
L 212.964677 236.078182 
L 214.380408 36.841818 
L 214.409301 236.078182 
L 215.839478 36.841818 
L 215.86837 236.078182 
L 217.284101 36.841818 
L 217.312993 236.078182 
L 218.74317 36.841818 
L 218.772063 236.078182 
L 220.216686 36.841818 
L 220.245579 236.078182 
L 221.675756 36.841818 
L 221.704648 236.078182 
L 223.120379 36.841818 
L 223.149271 236.078182 
L 224.579449 36.841818 
L 224.608341 236.078182 
L 226.024072 36.841818 
L 226.052964 236.078182 
L 227.512034 36.841818 
L 227.540926 236.078182 
L 228.956657 36.841818 
L 228.98555 236.078182 
L 230.415727 36.841818 
L 230.444619 236.078182 
L 231.86035 36.841818 
L 231.889242 236.078182 
L 233.319419 36.841818 
L 233.348312 236.078182 
L 234.792935 36.841818 
L 234.821828 236.078182 
L 236.252005 36.841818 
L 236.280897 236.078182 
L 237.696628 36.841818 
L 237.72552 236.078182 
L 239.155698 36.841818 
L 239.18459 236.078182 
L 240.600321 36.841818 
L 240.629213 236.078182 
L 242.088283 36.841818 
L 242.117175 236.078182 
L 243.532906 36.841818 
L 243.561799 236.078182 
L 244.991976 36.841818 
L 245.020868 236.078182 
L 246.436599 36.841818 
L 246.465491 236.078182 
L 247.895668 36.841818 
L 247.924561 236.078182 
L 249.369184 36.841818 
L 249.398077 236.078182 
L 250.828254 36.841818 
L 250.857146 236.078182 
L 252.272877 36.841818 
L 252.301769 236.078182 
L 253.731947 36.841818 
L 253.760839 236.078182 
L 255.17657 36.841818 
L 255.205462 236.078182 
L 256.606747 36.841818 
L 256.635639 236.078182 
L 258.239171 36.841818 
L 258.268064 236.078182 
L 259.900488 36.841818 
L 259.92938 236.078182 
L 261.518466 36.841818 
L 261.547358 236.078182 
L 263.699847 36.841818 
L 263.72874 236.078182 
L 265.202255 36.841818 
L 265.231148 236.078182 
L 267.008035 36.841818 
L 267.036927 236.078182 
L 270.980749 36.841818 
L 271.009641 236.078182 
L 272.468711 36.841818 
L 272.497603 236.078182 
L 273.884441 36.841818 
L 273.913334 236.078182 
L 275.401296 36.841818 
L 275.430188 236.078182 
L 276.817027 36.841818 
L 276.845919 236.078182 
L 278.304989 36.841818 
L 278.333881 236.078182 
L 279.720719 36.841818 
L 279.749612 236.078182 
L 281.208681 36.841818 
L 281.237574 236.078182 
L 282.653305 36.841818 
L 282.682197 236.078182 
L 284.141267 36.841818 
L 284.170159 236.078182 
L 285.556998 36.841818 
L 285.58589 236.078182 
L 287.04496 36.841818 
L 287.073852 236.078182 
L 288.46069 36.841818 
L 288.489583 236.078182 
L 289.977545 36.841818 
L 290.006437 236.078182 
L 291.393276 36.841818 
L 291.422168 236.078182 
L 292.881238 36.841818 
L 292.91013 236.078182 
L 294.296968 36.841818 
L 294.325861 236.078182 
L 295.78493 36.841818 
L 295.813823 236.078182 
L 297.229554 36.841818 
L 297.258446 236.078182 
L 298.717516 36.841818 
L 298.746408 236.078182 
L 300.133247 36.841818 
L 300.162139 236.078182 
L 301.621209 36.841818 
L 301.650101 236.078182 
L 303.036939 36.841818 
L 303.065832 236.078182 
L 304.553794 36.841818 
L 304.582686 236.078182 
L 305.969525 36.841818 
L 305.998417 236.078182 
L 307.457487 36.841818 
L 307.486379 236.078182 
L 308.873217 36.841818 
L 308.90211 236.078182 
L 310.361179 36.841818 
L 310.390072 236.078182 
L 311.805803 36.841818 
L 311.834695 236.078182 
L 313.293765 36.841818 
L 313.322657 236.078182 
L 314.709496 36.841818 
L 314.738388 236.078182 
L 316.197458 36.841818 
L 316.22635 236.078182 
L 317.613188 36.841818 
L 317.642081 236.078182 
L 319.130043 36.841818 
L 319.158935 236.078182 
L 320.545774 36.841818 
L 320.574666 236.078182 
L 322.033736 36.841818 
L 322.062628 236.078182 
L 323.449466 36.841818 
L 323.478359 236.078182 
L 324.937428 36.841818 
L 324.966321 236.078182 
L 326.382052 36.841818 
L 326.410944 236.078182 
L 327.870014 36.841818 
L 327.898906 236.078182 
L 329.285744 36.841818 
L 329.314637 236.078182 
L 330.773706 36.841818 
L 330.802599 236.078182 
L 332.189437 36.841818 
L 332.21833 236.078182 
L 333.706292 36.841818 
L 333.735184 236.078182 
L 335.122023 36.841818 
L 335.150915 236.078182 
L 336.609985 36.841818 
L 336.638877 236.078182 
L 338.025715 36.841818 
L 338.054608 236.078182 
L 339.513677 36.841818 
L 339.54257 236.078182 
L 340.958301 36.841818 
L 340.987193 236.078182 
L 342.446263 36.841818 
L 342.475155 236.078182 
L 343.861993 36.841818 
L 343.890886 236.078182 
L 345.349955 36.841818 
L 345.378848 236.078182 
L 346.765686 36.841818 
L 346.794579 236.078182 
L 348.282541 36.841818 
L 348.311433 236.078182 
L 349.698272 36.841818 
L 349.727164 236.078182 
L 351.186234 36.841818 
L 351.215126 236.078182 
L 352.601964 36.841818 
L 352.630857 236.078182 
L 354.089926 36.841818 
L 354.118819 236.078182 
L 355.53455 36.841818 
L 355.563442 236.078182 
L 357.022512 36.841818 
L 357.051404 236.078182 
L 358.438242 36.841818 
L 358.467135 236.078182 
L 359.926204 36.841818 
L 359.955097 236.078182 
L 361.370828 36.841818 
L 361.39972 236.078182 
L 362.887682 36.841818 
L 362.916575 236.078182 
L 364.303413 36.841818 
L 364.332305 236.078182 
L 365.791375 36.841818 
L 365.820267 236.078182 
L 367.207106 36.841818 
L 367.235998 236.078182 
L 368.72396 36.841818 
L 368.752853 236.078182 
L 370.168584 36.841818 
L 370.197476 236.078182 
L 371.656546 36.841818 
L 371.685438 236.078182 
L 373.072276 36.841818 
L 373.101169 236.078182 
L 374.560238 36.841818 
L 374.589131 236.078182 
L 376.004862 36.841818 
L 376.033754 236.078182 
L 377.521716 36.841818 
L 377.550609 236.078182 
L 378.937447 36.841818 
L 378.966339 236.078182 
L 380.425409 36.841818 
L 380.454301 236.078182 
L 381.84114 36.841818 
L 381.870032 236.078182 
L 383.357994 36.841818 
L 383.386887 236.078182 
L 384.802617 36.841818 
L 384.83151 236.078182 
L 386.290579 36.841818 
L 386.319472 236.078182 
L 387.70631 36.841818 
L 387.735203 236.078182 
L 389.194272 36.841818 
L 389.223165 236.078182 
L 390.638896 36.841818 
L 390.667788 236.078182 
L 392.15575 36.841818 
L 392.184642 236.078182 
L 393.571481 36.841818 
L 393.600373 236.078182 
L 395.059443 36.841818 
L 395.088335 236.078182 
L 396.475174 36.841818 
L 396.504066 236.078182 
L 397.992028 36.841818 
L 398.020921 236.078182 
L 399.436651 36.841818 
L 399.465544 236.078182 
L 400.924613 36.841818 
L 400.953506 236.078182 
L 402.340344 36.841818 
L 402.369237 236.078182 
L 403.828306 36.841818 
L 403.857199 236.078182 
L 405.272929 36.841818 
L 405.301822 236.078182 
L 406.789784 36.841818 
L 406.818676 236.078182 
L 408.205515 36.841818 
L 408.234407 236.078182 
L 409.693477 36.841818 
L 409.722369 236.078182 
L 411.109208 36.841818 
L 411.1381 236.078182 
L 412.626062 36.841818 
L 412.654954 236.078182 
L 414.070685 36.841818 
L 414.099578 236.078182 
L 415.558647 36.841818 
L 415.58754 236.078182 
L 416.974378 36.841818 
L 417.003271 236.078182 
L 418.46234 36.841818 
L 418.491233 236.078182 
L 419.906963 36.841818 
L 419.935856 236.078182 
L 421.423818 36.841818 
L 421.45271 236.078182 
L 422.839549 36.841818 
L 422.868441 236.078182 
L 424.327511 36.841818 
L 424.356403 236.078182 
L 425.743241 36.841818 
L 425.772134 236.078182 
L 427.260096 36.841818 
L 427.288988 236.078182 
L 428.704719 36.841818 
L 428.733612 236.078182 
L 430.192681 36.841818 
L 430.221574 236.078182 
L 431.608412 36.841818 
L 431.637304 236.078182 
L 433.096374 36.841818 
L 433.125266 236.078182 
L 434.540997 36.841818 
L 434.56989 236.078182 
L 436.057852 36.841818 
L 436.086744 236.078182 
L 437.473583 36.841818 
L 437.502475 236.078182 
L 438.961545 36.841818 
L 438.990437 236.078182 
L 440.377275 36.841818 
L 440.406168 236.078182 
L 441.89413 36.841818 
L 441.923022 236.078182 
L 443.338753 36.841818 
L 443.367646 236.078182 
L 444.826715 36.841818 
L 444.855608 236.078182 
L 446.242446 36.841818 
L 446.271338 236.078182 
L 447.730408 36.841818 
L 447.7593 236.078182 
L 449.175031 36.841818 
L 449.203924 236.078182 
L 450.691886 36.841818 
L 450.720778 236.078182 
L 452.107616 36.841818 
L 452.136509 236.078182 
L 453.595578 36.841818 
L 453.624471 236.078182 
L 455.011309 36.841818 
L 455.040202 236.078182 
L 456.528164 36.841818 
L 456.557056 236.078182 
L 457.972787 36.841818 
L 458.001679 236.078182 
L 459.460749 36.841818 
L 459.489641 236.078182 
L 460.87648 36.841818 
L 460.905372 236.078182 
L 462.364442 36.841818 
L 462.393334 236.078182 
L 463.809065 36.841818 
L 463.837958 236.078182 
L 465.32592 36.841818 
L 465.354812 236.078182 
L 466.74165 36.841818 
L 466.770543 236.078182 
L 468.229612 36.841818 
L 468.258505 236.078182 
L 469.645343 36.841818 
L 469.674236 236.078182 
L 471.162198 36.841818 
L 471.19109 236.078182 
L 472.606821 36.841818 
L 472.635713 236.078182 
L 474.094783 36.841818 
L 474.123675 236.078182 
L 475.510514 36.841818 
L 475.539406 236.078182 
L 476.998476 36.841818 
L 477.027368 236.078182 
L 478.414207 36.841818 
L 478.443099 236.078182 
L 479.931061 36.841818 
L 479.959953 236.078182 
L 481.346792 36.841818 
L 481.375684 236.078182 
L 482.834754 36.841818 
L 482.863646 236.078182 
L 484.250485 36.841818 
L 484.279377 236.078182 
L 485.738447 36.841818 
L 485.767339 236.078182 
L 487.18307 36.841818 
L 487.211962 236.078182 
L 488.671032 36.841818 
L 488.699924 236.078182 
L 490.086763 36.841818 
L 490.115655 236.078182 
L 491.574725 36.841818 
L 491.603617 236.078182 
L 492.990456 36.841818 
L 493.019348 236.078182 
L 494.50731 36.841818 
L 494.536202 236.078182 
L 495.923041 36.841818 
L 495.951933 236.078182 
L 497.411003 36.841818 
L 497.439895 236.078182 
L 498.826734 36.841818 
L 498.855626 236.078182 
L 500.314696 36.841818 
L 500.343588 236.078182 
L 501.759319 36.841818 
L 501.788211 236.078182 
L 503.247281 36.841818 
L 503.276173 236.078182 
L 504.663012 36.841818 
L 504.691904 236.078182 
L 506.150974 36.841818 
L 506.179866 236.078182 
L 507.566705 36.841818 
L 507.595597 236.078182 
L 509.083559 36.841818 
L 509.112451 236.078182 
L 510.49929 36.841818 
L 510.528182 236.078182 
L 511.987252 36.841818 
L 512.016144 236.078182 
L 513.402983 36.841818 
L 513.431875 236.078182 
L 514.890945 36.841818 
L 514.919837 236.078182 
L 516.335568 36.841818 
L 516.36446 236.078182 
L 517.82353 36.841818 
L 517.852422 236.078182 
L 519.239261 36.841818 
L 519.268153 236.078182 
L 520.727223 36.841818 
L 520.756115 236.078182 
L 522.142953 36.841818 
L 522.171846 236.078182 
L 523.659808 36.841818 
L 523.6887 236.078182 
L 525.075539 36.841818 
L 525.104431 236.078182 
L 526.563501 36.841818 
L 526.592393 236.078182 
L 527.979232 36.841818 
L 528.008124 236.078182 
L 529.467194 36.841818 
L 529.496086 236.078182 
L 530.911817 36.841818 
L 530.940709 236.078182 
L 532.399779 36.841818 
L 532.428671 236.078182 
L 533.81551 36.841818 
L 533.844402 236.078182 
L 535.303472 36.841818 
L 535.332364 236.078182 
L 536.719202 36.841818 
L 536.748095 236.078182 
L 538.236057 36.841818 
L 538.264949 236.078182 
L 539.651788 36.841818 
L 539.68068 236.078182 
L 541.13975 36.841818 
L 541.168642 236.078182 
L 542.555481 36.841818 
L 542.584373 236.078182 
L 544.043443 36.841818 
L 544.072335 236.078182 
L 545.488066 36.841818 
L 545.516958 236.078182 
L 546.976028 36.841818 
L 547.00492 236.078182 
L 548.391759 36.841818 
L 548.420651 236.078182 
L 549.879721 36.841818 
L 549.908613 236.078182 
L 551.295451 36.841818 
L 551.324344 236.078182 
L 552.812306 36.841818 
L 552.841198 236.078182 
L 554.228037 36.841818 
L 554.256929 236.078182 
L 555.715999 36.841818 
L 555.744891 236.078182 
L 557.13173 36.841818 
L 557.160622 236.078182 
L 558.619692 36.841818 
L 558.648584 236.078182 
L 560.064315 36.841818 
L 560.093207 236.078182 
L 561.552277 36.841818 
L 561.581169 236.078182 
L 562.968008 36.841818 
L 562.9969 236.078182 
L 564.45597 36.841818 
L 564.484862 236.078182 
L 565.8717 36.841818 
L 565.900593 236.078182 
L 567.388555 36.841818 
L 567.417447 236.078182 
L 568.804286 36.841818 
L 568.833178 236.078182 
L 570.292248 36.841818 
L 570.32114 236.078182 
L 571.707979 36.841818 
L 571.736871 236.078182 
L 573.195941 36.841818 
L 573.224833 236.078182 
L 574.640564 36.841818 
L 574.669456 236.078182 
L 576.128526 36.841818 
L 576.157418 236.078182 
L 577.544257 36.841818 
L 577.573149 236.078182 
L 579.032219 36.841818 
L 579.061111 236.078182 
L 580.447949 36.841818 
L 580.476842 236.078182 
L 581.964804 36.841818 
L 581.993696 236.078182 
L 583.380535 36.841818 
L 583.409427 236.078182 
L 584.868497 36.841818 
L 584.897389 236.078182 
L 586.284228 36.841818 
L 586.31312 236.078182 
L 587.772189 36.841818 
L 587.801082 236.078182 
L 589.216813 36.841818 
L 589.245705 236.078182 
L 590.704775 36.841818 
L 590.733667 236.078182 
L 592.120506 36.841818 
L 592.149398 236.078182 
L 593.608468 36.841818 
L 593.63736 236.078182 
L 595.024198 36.841818 
L 595.053091 236.078182 
L 596.541053 36.841818 
L 596.569945 236.078182 
L 597.956784 36.841818 
L 597.985676 236.078182 
L 599.444746 36.841818 
L 599.473638 236.078182 
L 600.860476 36.841818 
L 600.889369 236.078182 
L 602.348438 36.841818 
L 602.377331 236.078182 
L 603.793062 36.841818 
L 603.821954 236.078182 
L 605.281024 36.841818 
L 605.309916 236.078182 
L 606.696755 36.841818 
L 606.725647 236.078182 
L 608.184717 36.841818 
L 608.213609 236.078182 
L 609.600447 36.841818 
L 609.62934 236.078182 
L 611.059517 36.841818 
L 611.088409 236.078182 
L 612.691941 36.841818 
L 612.720834 236.078182 
L 614.353258 36.841818 
L 614.38215 236.078182 
L 616.4913 36.841818 
L 616.520193 236.078182 
L 617.964816 36.841818 
L 617.993709 236.078182 
L 619.611687 36.841818 
L 619.640579 236.078182 
L 621.273004 36.841818 
L 621.301896 236.078182 
L 625.462411 36.841818 
L 625.491304 236.078182 
L 626.921481 36.841818 
L 626.950373 236.078182 
L 628.366104 36.841818 
L 628.394996 236.078182 
L 629.854066 36.841818 
L 629.882958 236.078182 
L 631.298689 36.841818 
L 631.327582 236.078182 
L 632.757759 36.841818 
L 632.786651 236.078182 
L 634.202382 36.841818 
L 634.231274 236.078182 
L 635.661452 36.841818 
L 635.690344 236.078182 
L 637.134967 36.841818 
L 637.16386 236.078182 
L 638.594037 36.841818 
L 638.622929 236.078182 
L 640.03866 36.841818 
L 640.067553 236.078182 
L 641.49773 36.841818 
L 641.526622 236.078182 
L 642.942353 36.841818 
L 642.971245 236.078182 
L 644.430315 36.841818 
L 644.459207 236.078182 
L 645.874938 36.841818 
L 645.903831 236.078182 
L 647.334008 36.841818 
L 647.3629 236.078182 
L 648.778631 36.841818 
L 648.807523 236.078182 
L 650.2377 36.841818 
L 650.266593 236.078182 
L 651.711216 36.841818 
L 651.740109 236.078182 
L 653.170286 36.841818 
L 653.199178 236.078182 
L 654.614909 36.841818 
L 654.643802 236.078182 
L 656.073979 36.841818 
L 656.102871 236.078182 
L 657.518602 36.841818 
L 657.547494 236.078182 
L 659.006564 36.841818 
L 659.035456 236.078182 
L 660.451187 36.841818 
L 660.48008 236.078182 
L 661.910257 36.841818 
L 661.939149 236.078182 
L 663.35488 36.841818 
L 663.383772 236.078182 
L 664.813949 36.841818 
L 664.842842 236.078182 
L 666.287465 36.841818 
L 666.316358 236.078182 
L 667.746535 36.841818 
L 667.775427 236.078182 
L 669.191158 36.841818 
L 669.22005 236.078182 
L 670.650228 36.841818 
L 670.67912 236.078182 
L 672.094851 36.841818 
L 672.123743 236.078182 
L 673.582813 36.841818 
L 673.611705 236.078182 
L 675.027436 36.841818 
L 675.056329 236.078182 
L 676.486506 36.841818 
L 676.515398 236.078182 
L 677.931129 36.841818 
L 677.960021 236.078182 
L 679.390198 36.841818 
L 679.419091 236.078182 
L 679.419091 236.078182 
" clip-path="url(#p9a93d0d308)" style="fill: none; stroke: #1f77b4; stroke-width: 1.5; stroke-linecap: square"/>
   </g>
   <g id="patch_3">
    <path d="M 54.02 246.04 
L 54.02 26.88 
" style="fill: none; stroke: #000000; stroke-width: 0.8; stroke-linejoin: miter; stroke-linecap: square"/>
   </g>
   <g id="patch_4">
    <path d="M 709.2 246.04 
L 709.2 26.88 
" style="fill: none; stroke: #000000; stroke-width: 0.8; stroke-linejoin: miter; stroke-linecap: square"/>
   </g>
   <g id="patch_5">
    <path d="M 54.02 246.04 
L 709.2 246.04 
" style="fill: none; stroke: #000000; stroke-width: 0.8; stroke-linejoin: miter; stroke-linecap: square"/>
   </g>
   <g id="patch_6">
    <path d="M 54.02 26.88 
L 709.2 26.88 
" style="fill: none; stroke: #000000; stroke-width: 0.8; stroke-linejoin: miter; stroke-linecap: square"/>
   </g>
   <g id="text_14">
    <!-- queueLength:vector (HandoverShowcase.host2.wlan[0].mac.dcf.channelAccess.pendingQueue) -->
    <g transform="translate(94.555 20.88) scale(0.12 -0.12)">
     <defs>
      <path id="DejaVuSans-71" d="M 947 1747 
Q 947 1113 1208 752 
Q 1469 391 1925 391 
Q 2381 391 2643 752 
Q 2906 1113 2906 1747 
Q 2906 2381 2643 2742 
Q 2381 3103 1925 3103 
Q 1469 3103 1208 2742 
Q 947 2381 947 1747 
z
M 2906 525 
Q 2725 213 2448 61 
Q 2172 -91 1784 -91 
Q 1150 -91 751 415 
Q 353 922 353 1747 
Q 353 2572 751 3078 
Q 1150 3584 1784 3584 
Q 2172 3584 2448 3432 
Q 2725 3281 2906 2969 
L 2906 3500 
L 3481 3500 
L 3481 -1331 
L 2906 -1331 
L 2906 525 
z
" transform="scale(0.015625)"/>
      <path id="DejaVuSans-4c" d="M 628 4666 
L 1259 4666 
L 1259 531 
L 3531 531 
L 3531 0 
L 628 0 
L 628 4666 
z
" transform="scale(0.015625)"/>
      <path id="DejaVuSans-6e" d="M 3513 2113 
L 3513 0 
L 2938 0 
L 2938 2094 
Q 2938 2591 2744 2837 
Q 2550 3084 2163 3084 
Q 1697 3084 1428 2787 
Q 1159 2491 1159 1978 
L 1159 0 
L 581 0 
L 581 3500 
L 1159 3500 
L 1159 2956 
Q 1366 3272 1645 3428 
Q 1925 3584 2291 3584 
Q 2894 3584 3203 3211 
Q 3513 2838 3513 2113 
z
" transform="scale(0.015625)"/>
      <path id="DejaVuSans-67" d="M 2906 1791 
Q 2906 2416 2648 2759 
Q 2391 3103 1925 3103 
Q 1463 3103 1205 2759 
Q 947 2416 947 1791 
Q 947 1169 1205 825 
Q 1463 481 1925 481 
Q 2391 481 2648 825 
Q 2906 1169 2906 1791 
z
M 3481 434 
Q 3481 -459 3084 -895 
Q 2688 -1331 1869 -1331 
Q 1566 -1331 1297 -1286 
Q 1028 -1241 775 -1147 
L 775 -588 
Q 1028 -725 1275 -790 
Q 1522 -856 1778 -856 
Q 2344 -856 2625 -561 
Q 2906 -266 2906 331 
L 2906 616 
Q 2728 306 2450 153 
Q 2172 0 1784 0 
Q 1141 0 747 490 
Q 353 981 353 1791 
Q 353 2603 747 3093 
Q 1141 3584 1784 3584 
Q 2172 3584 2450 3431 
Q 2728 3278 2906 2969 
L 2906 3500 
L 3481 3500 
L 3481 434 
z
" transform="scale(0.015625)"/>
      <path id="DejaVuSans-68" d="M 3513 2113 
L 3513 0 
L 2938 0 
L 2938 2094 
Q 2938 2591 2744 2837 
Q 2550 3084 2163 3084 
Q 1697 3084 1428 2787 
Q 1159 2491 1159 1978 
L 1159 0 
L 581 0 
L 581 4863 
L 1159 4863 
L 1159 2956 
Q 1366 3272 1645 3428 
Q 1925 3584 2291 3584 
Q 2894 3584 3203 3211 
Q 3513 2838 3513 2113 
z
" transform="scale(0.015625)"/>
      <path id="DejaVuSans-3a" d="M 750 794 
L 1409 794 
L 1409 0 
L 750 0 
L 750 794 
z
M 750 3309 
L 1409 3309 
L 1409 2516 
L 750 2516 
L 750 3309 
z
" transform="scale(0.015625)"/>
      <path id="DejaVuSans-76" d="M 191 3500 
L 800 3500 
L 1894 563 
L 2988 3500 
L 3597 3500 
L 2284 0 
L 1503 0 
L 191 3500 
z
" transform="scale(0.015625)"/>
      <path id="DejaVuSans-63" d="M 3122 3366 
L 3122 2828 
Q 2878 2963 2633 3030 
Q 2388 3097 2138 3097 
Q 1578 3097 1268 2742 
Q 959 2388 959 1747 
Q 959 1106 1268 751 
Q 1578 397 2138 397 
Q 2388 397 2633 464 
Q 2878 531 3122 666 
L 3122 134 
Q 2881 22 2623 -34 
Q 2366 -91 2075 -91 
Q 1284 -91 818 406 
Q 353 903 353 1747 
Q 353 2603 823 3093 
Q 1294 3584 2113 3584 
Q 2378 3584 2631 3529 
Q 2884 3475 3122 3366 
z
" transform="scale(0.015625)"/>
      <path id="DejaVuSans-6f" d="M 1959 3097 
Q 1497 3097 1228 2736 
Q 959 2375 959 1747 
Q 959 1119 1226 758 
Q 1494 397 1959 397 
Q 2419 397 2687 759 
Q 2956 1122 2956 1747 
Q 2956 2369 2687 2733 
Q 2419 3097 1959 3097 
z
M 1959 3584 
Q 2709 3584 3137 3096 
Q 3566 2609 3566 1747 
Q 3566 888 3137 398 
Q 2709 -91 1959 -91 
Q 1206 -91 779 398 
Q 353 888 353 1747 
Q 353 2609 779 3096 
Q 1206 3584 1959 3584 
z
" transform="scale(0.015625)"/>
      <path id="DejaVuSans-72" d="M 2631 2963 
Q 2534 3019 2420 3045 
Q 2306 3072 2169 3072 
Q 1681 3072 1420 2755 
Q 1159 2438 1159 1844 
L 1159 0 
L 581 0 
L 581 3500 
L 1159 3500 
L 1159 2956 
Q 1341 3275 1631 3429 
Q 1922 3584 2338 3584 
Q 2397 3584 2469 3576 
Q 2541 3569 2628 3553 
L 2631 2963 
z
" transform="scale(0.015625)"/>
      <path id="DejaVuSans-48" d="M 628 4666 
L 1259 4666 
L 1259 2753 
L 3553 2753 
L 3553 4666 
L 4184 4666 
L 4184 0 
L 3553 0 
L 3553 2222 
L 1259 2222 
L 1259 0 
L 628 0 
L 628 4666 
z
" transform="scale(0.015625)"/>
      <path id="DejaVuSans-64" d="M 2906 2969 
L 2906 4863 
L 3481 4863 
L 3481 0 
L 2906 0 
L 2906 525 
Q 2725 213 2448 61 
Q 2172 -91 1784 -91 
Q 1150 -91 751 415 
Q 353 922 353 1747 
Q 353 2572 751 3078 
Q 1150 3584 1784 3584 
Q 2172 3584 2448 3432 
Q 2725 3281 2906 2969 
z
M 947 1747 
Q 947 1113 1208 752 
Q 1469 391 1925 391 
Q 2381 391 2643 752 
Q 2906 1113 2906 1747 
Q 2906 2381 2643 2742 
Q 2381 3103 1925 3103 
Q 1469 3103 1208 2742 
Q 947 2381 947 1747 
z
" transform="scale(0.015625)"/>
      <path id="DejaVuSans-53" d="M 3425 4513 
L 3425 3897 
Q 3066 4069 2747 4153 
Q 2428 4238 2131 4238 
Q 1616 4238 1336 4038 
Q 1056 3838 1056 3469 
Q 1056 3159 1242 3001 
Q 1428 2844 1947 2747 
L 2328 2669 
Q 3034 2534 3370 2195 
Q 3706 1856 3706 1288 
Q 3706 609 3251 259 
Q 2797 -91 1919 -91 
Q 1588 -91 1214 -16 
Q 841 59 441 206 
L 441 856 
Q 825 641 1194 531 
Q 1563 422 1919 422 
Q 2459 422 2753 634 
Q 3047 847 3047 1241 
Q 3047 1584 2836 1778 
Q 2625 1972 2144 2069 
L 1759 2144 
Q 1053 2284 737 2584 
Q 422 2884 422 3419 
Q 422 4038 858 4394 
Q 1294 4750 2059 4750 
Q 2388 4750 2728 4690 
Q 3069 4631 3425 4513 
z
" transform="scale(0.015625)"/>
      <path id="DejaVuSans-77" d="M 269 3500 
L 844 3500 
L 1563 769 
L 2278 3500 
L 2956 3500 
L 3675 769 
L 4391 3500 
L 4966 3500 
L 4050 0 
L 3372 0 
L 2619 2869 
L 1863 0 
L 1184 0 
L 269 3500 
z
" transform="scale(0.015625)"/>
      <path id="DejaVuSans-5b" d="M 550 4863 
L 1875 4863 
L 1875 4416 
L 1125 4416 
L 1125 -397 
L 1875 -397 
L 1875 -844 
L 550 -844 
L 550 4863 
z
" transform="scale(0.015625)"/>
      <path id="DejaVuSans-5d" d="M 1947 4863 
L 1947 -844 
L 622 -844 
L 622 -397 
L 1369 -397 
L 1369 4416 
L 622 4416 
L 622 4863 
L 1947 4863 
z
" transform="scale(0.015625)"/>
      <path id="DejaVuSans-66" d="M 2375 4863 
L 2375 4384 
L 1825 4384 
Q 1516 4384 1395 4259 
Q 1275 4134 1275 3809 
L 1275 3500 
L 2222 3500 
L 2222 3053 
L 1275 3053 
L 1275 0 
L 697 0 
L 697 3053 
L 147 3053 
L 147 3500 
L 697 3500 
L 697 3744 
Q 697 4328 969 4595 
Q 1241 4863 1831 4863 
L 2375 4863 
z
" transform="scale(0.015625)"/>
      <path id="DejaVuSans-41" d="M 2188 4044 
L 1331 1722 
L 3047 1722 
L 2188 4044 
z
M 1831 4666 
L 2547 4666 
L 4325 0 
L 3669 0 
L 3244 1197 
L 1141 1197 
L 716 0 
L 50 0 
L 1831 4666 
z
" transform="scale(0.015625)"/>
      <path id="DejaVuSans-70" d="M 1159 525 
L 1159 -1331 
L 581 -1331 
L 581 3500 
L 1159 3500 
L 1159 2969 
Q 1341 3281 1617 3432 
Q 1894 3584 2278 3584 
Q 2916 3584 3314 3078 
Q 3713 2572 3713 1747 
Q 3713 922 3314 415 
Q 2916 -91 2278 -91 
Q 1894 -91 1617 61 
Q 1341 213 1159 525 
z
M 3116 1747 
Q 3116 2381 2855 2742 
Q 2594 3103 2138 3103 
Q 1681 3103 1420 2742 
Q 1159 2381 1159 1747 
Q 1159 1113 1420 752 
Q 1681 391 2138 391 
Q 2594 391 2855 752 
Q 3116 1113 3116 1747 
z
" transform="scale(0.015625)"/>
      <path id="DejaVuSans-51" d="M 2522 4238 
Q 1834 4238 1429 3725 
Q 1025 3213 1025 2328 
Q 1025 1447 1429 934 
Q 1834 422 2522 422 
Q 3209 422 3611 934 
Q 4013 1447 4013 2328 
Q 4013 3213 3611 3725 
Q 3209 4238 2522 4238 
z
M 3406 84 
L 4238 -825 
L 3475 -825 
L 2784 -78 
Q 2681 -84 2626 -87 
Q 2572 -91 2522 -91 
Q 1538 -91 948 567 
Q 359 1225 359 2328 
Q 359 3434 948 4092 
Q 1538 4750 2522 4750 
Q 3503 4750 4090 4092 
Q 4678 3434 4678 2328 
Q 4678 1516 4351 937 
Q 4025 359 3406 84 
z
" transform="scale(0.015625)"/>
     </defs>
     <use xlink:href="#DejaVuSans-71"/>
     <use xlink:href="#DejaVuSans-75" x="63.476562"/>
     <use xlink:href="#DejaVuSans-65" x="126.855469"/>
     <use xlink:href="#DejaVuSans-75" x="188.378906"/>
     <use xlink:href="#DejaVuSans-65" x="251.757812"/>
     <use xlink:href="#DejaVuSans-4c" x="313.28125"/>
     <use xlink:href="#DejaVuSans-65" x="367.244141"/>
     <use xlink:href="#DejaVuSans-6e" x="428.767578"/>
     <use xlink:href="#DejaVuSans-67" x="492.146484"/>
     <use xlink:href="#DejaVuSans-74" x="555.623047"/>
     <use xlink:href="#DejaVuSans-68" x="594.832031"/>
     <use xlink:href="#DejaVuSans-3a" x="658.210938"/>
     <use xlink:href="#DejaVuSans-76" x="691.902344"/>
     <use xlink:href="#DejaVuSans-65" x="751.082031"/>
     <use xlink:href="#DejaVuSans-63" x="812.605469"/>
     <use xlink:href="#DejaVuSans-74" x="867.585938"/>
     <use xlink:href="#DejaVuSans-6f" x="906.794922"/>
     <use xlink:href="#DejaVuSans-72" x="967.976562"/>
     <use xlink:href="#DejaVuSans-20" x="1009.089844"/>
     <use xlink:href="#DejaVuSans-28" x="1040.876953"/>
     <use xlink:href="#DejaVuSans-48" x="1079.890625"/>
     <use xlink:href="#DejaVuSans-61" x="1155.085938"/>
     <use xlink:href="#DejaVuSans-6e" x="1216.365234"/>
     <use xlink:href="#DejaVuSans-64" x="1279.744141"/>
     <use xlink:href="#DejaVuSans-6f" x="1343.220703"/>
     <use xlink:href="#DejaVuSans-76" x="1404.402344"/>
     <use xlink:href="#DejaVuSans-65" x="1463.582031"/>
     <use xlink:href="#DejaVuSans-72" x="1525.105469"/>
     <use xlink:href="#DejaVuSans-53" x="1566.21875"/>
     <use xlink:href="#DejaVuSans-68" x="1629.695312"/>
     <use xlink:href="#DejaVuSans-6f" x="1693.074219"/>
     <use xlink:href="#DejaVuSans-77" x="1754.255859"/>
     <use xlink:href="#DejaVuSans-63" x="1836.042969"/>
     <use xlink:href="#DejaVuSans-61" x="1891.023438"/>
     <use xlink:href="#DejaVuSans-73" x="1952.302734"/>
     <use xlink:href="#DejaVuSans-65" x="2004.402344"/>
     <use xlink:href="#DejaVuSans-2e" x="2065.925781"/>
     <use xlink:href="#DejaVuSans-68" x="2097.712891"/>
     <use xlink:href="#DejaVuSans-6f" x="2161.091797"/>
     <use xlink:href="#DejaVuSans-73" x="2222.273438"/>
     <use xlink:href="#DejaVuSans-74" x="2274.373047"/>
     <use xlink:href="#DejaVuSans-32" x="2313.582031"/>
     <use xlink:href="#DejaVuSans-2e" x="2377.205078"/>
     <use xlink:href="#DejaVuSans-77" x="2408.992188"/>
     <use xlink:href="#DejaVuSans-6c" x="2490.779297"/>
     <use xlink:href="#DejaVuSans-61" x="2518.5625"/>
     <use xlink:href="#DejaVuSans-6e" x="2579.841797"/>
     <use xlink:href="#DejaVuSans-5b" x="2643.220703"/>
     <use xlink:href="#DejaVuSans-30" x="2682.234375"/>
     <use xlink:href="#DejaVuSans-5d" x="2745.857422"/>
     <use xlink:href="#DejaVuSans-2e" x="2784.871094"/>
     <use xlink:href="#DejaVuSans-6d" x="2816.658203"/>
     <use xlink:href="#DejaVuSans-61" x="2914.070312"/>
     <use xlink:href="#DejaVuSans-63" x="2975.349609"/>
     <use xlink:href="#DejaVuSans-2e" x="3030.330078"/>
     <use xlink:href="#DejaVuSans-64" x="3062.117188"/>
     <use xlink:href="#DejaVuSans-63" x="3125.59375"/>
     <use xlink:href="#DejaVuSans-66" x="3180.574219"/>
     <use xlink:href="#DejaVuSans-2e" x="3208.529297"/>
     <use xlink:href="#DejaVuSans-63" x="3240.316406"/>
     <use xlink:href="#DejaVuSans-68" x="3295.296875"/>
     <use xlink:href="#DejaVuSans-61" x="3358.675781"/>
     <use xlink:href="#DejaVuSans-6e" x="3419.955078"/>
     <use xlink:href="#DejaVuSans-6e" x="3483.333984"/>
     <use xlink:href="#DejaVuSans-65" x="3546.712891"/>
     <use xlink:href="#DejaVuSans-6c" x="3608.236328"/>
     <use xlink:href="#DejaVuSans-41" x="3636.019531"/>
     <use xlink:href="#DejaVuSans-63" x="3702.677734"/>
     <use xlink:href="#DejaVuSans-63" x="3757.658203"/>
     <use xlink:href="#DejaVuSans-65" x="3812.638672"/>
     <use xlink:href="#DejaVuSans-73" x="3874.162109"/>
     <use xlink:href="#DejaVuSans-73" x="3926.261719"/>
     <use xlink:href="#DejaVuSans-2e" x="3978.361328"/>
     <use xlink:href="#DejaVuSans-70" x="4010.148438"/>
     <use xlink:href="#DejaVuSans-65" x="4073.625"/>
     <use xlink:href="#DejaVuSans-6e" x="4135.148438"/>
     <use xlink:href="#DejaVuSans-64" x="4198.527344"/>
     <use xlink:href="#DejaVuSans-69" x="4262.003906"/>
     <use xlink:href="#DejaVuSans-6e" x="4289.787109"/>
     <use xlink:href="#DejaVuSans-67" x="4353.166016"/>
     <use xlink:href="#DejaVuSans-51" x="4416.642578"/>
     <use xlink:href="#DejaVuSans-75" x="4495.353516"/>
     <use xlink:href="#DejaVuSans-65" x="4558.732422"/>
     <use xlink:href="#DejaVuSans-75" x="4620.255859"/>
     <use xlink:href="#DejaVuSans-65" x="4683.634766"/>
     <use xlink:href="#DejaVuSans-29" x="4745.158203"/>
    </g>
   </g>
   <g id="legend_1">
    <g id="patch_7">
     <path d="M 576.717187 145.299062 
L 702.2 145.299062 
Q 704.2 145.299062 704.2 143.299062 
L 704.2 129.620937 
Q 704.2 127.620937 702.2 127.620937 
L 576.717187 127.620937 
Q 574.717187 127.620937 574.717187 129.620937 
L 574.717187 143.299062 
Q 574.717187 145.299062 576.717187 145.299062 
z
" style="fill: #ffffff; opacity: 0.8; stroke: #cccccc; stroke-linejoin: miter"/>
    </g>
    <g id="line2d_24">
     <path d="M 578.717187 135.719375 
L 588.717187 135.719375 
L 598.717187 135.719375 
" style="fill: none; stroke: #1f77b4; stroke-width: 1.5; stroke-linecap: square"/>
    </g>
    <g id="text_15">
     <!-- value per sample -->
     <g transform="translate(606.717187 139.219375) scale(0.1 -0.1)">
      <defs>
       <path id="DejaVuSans-394" d="M 2188 4044 
L 906 525 
L 3472 525 
L 2188 4044 
z
M 50 0 
L 1831 4666 
L 2547 4666 
L 4325 0 
L 50 0 
z
" transform="scale(0.015625)"/>
      </defs>
      <use xlink:href="#DejaVuSans-394"/>
      <use xlink:href="#DejaVuSans-76" x="68.408203"/>
      <use xlink:href="#DejaVuSans-61" x="127.587891"/>
      <use xlink:href="#DejaVuSans-6c" x="188.867188"/>
      <use xlink:href="#DejaVuSans-75" x="216.650391"/>
      <use xlink:href="#DejaVuSans-65" x="280.029297"/>
      <use xlink:href="#DejaVuSans-20" x="341.552734"/>
      <use xlink:href="#DejaVuSans-70" x="373.339844"/>
      <use xlink:href="#DejaVuSans-65" x="436.816406"/>
      <use xlink:href="#DejaVuSans-72" x="498.339844"/>
      <use xlink:href="#DejaVuSans-20" x="539.453125"/>
      <use xlink:href="#DejaVuSans-73" x="571.240234"/>
      <use xlink:href="#DejaVuSans-61" x="623.339844"/>
      <use xlink:href="#DejaVuSans-6d" x="684.619141"/>
      <use xlink:href="#DejaVuSans-70" x="782.03125"/>
      <use xlink:href="#DejaVuSans-6c" x="845.507812"/>
      <use xlink:href="#DejaVuSans-65" x="873.291016"/>
     </g>
    </g>
   </g>
  </g>
 </g>
 <defs>
  <clipPath id="p9a93d0d308">
   <rect x="54.02" y="26.88" width="655.18" height="219.16"/>
  </clipPath>
 </defs>
</svg>
